<svg width="547" height="242" viewBox="0 0 547 242" fill="none" xmlns="http://www.w3.org/2000/svg">
<rect x="1.5" y="1.5" width="544" height="238.686" rx="30.5" fill="white"/>
<rect x="1.5" y="1.5" width="544" height="238.686" rx="30.5" stroke="#212121" stroke-width="3"/>
<path d="M170.877 120.843C170.877 127.967 169.617 134.815 167.313 141.172C167.221 141.417 167.128 141.694 167.036 141.939C165.838 145.133 164.363 148.173 162.643 151.059C159.908 155.696 156.528 159.934 152.657 163.649C152.35 163.957 152.012 164.264 151.674 164.571C151.52 164.724 151.366 164.847 151.244 164.97C150.906 165.277 150.568 165.584 150.23 165.86C149.431 166.536 148.632 167.212 147.802 167.856C145.652 169.515 143.378 171.05 140.981 172.401C139.507 173.23 138.001 174.029 136.465 174.735C132.932 176.362 129.214 177.683 125.312 178.604C123.56 179.034 121.748 179.372 119.935 179.617C117.907 179.894 115.848 180.078 113.759 180.17C113.022 180.201 112.254 180.201 111.486 180.201C105.556 180.201 99.8101 179.341 94.4025 177.714C94.1874 177.652 94.0031 177.591 93.788 177.529C91.4222 176.792 89.1485 175.932 86.9056 174.919C84.9085 174.029 82.9728 173.015 81.1293 171.91C81.0986 171.879 81.0679 171.879 81.0371 171.848C80.1461 171.296 79.2244 170.743 78.3641 170.159C77.5345 169.607 76.7357 169.023 75.9368 168.44C74.124 167.089 72.3727 165.615 70.7443 164.049C70.1298 163.465 69.5153 162.851 68.9008 162.237C67.4567 160.732 66.0741 159.166 64.7837 157.508C64.7529 157.477 64.7222 157.416 64.6915 157.385C63.4318 155.758 62.2335 154.069 61.1581 152.318C60.052 150.568 59.0381 148.756 58.1471 146.883C57.594 145.747 57.0717 144.58 56.5801 143.382C56.5187 143.26 56.4879 143.137 56.4265 143.014C55.6891 141.172 55.0439 139.298 54.4908 137.394C54.3679 136.934 54.2143 136.443 54.0914 135.982C54.0299 135.706 53.9378 135.429 53.8763 135.122C53.7534 134.6 53.6305 134.047 53.5076 133.525C52.5859 129.411 52.125 125.173 52.125 120.843C52.125 120.137 52.125 119.461 52.1557 118.755C53.2618 86.9419 79.4087 61.4854 111.516 61.4854C137.54 61.4854 159.662 78.221 167.681 101.528C168.665 104.384 169.433 107.332 169.986 110.372C170.17 111.324 170.293 112.276 170.416 113.258C170.723 115.746 170.877 118.264 170.877 120.843Z" fill="#B9E2F3"/>
<path fill-rule="evenodd" clip-rule="evenodd" d="M173.057 143.293L173.045 143.325C173.024 143.382 172.998 143.455 172.948 143.597L172.942 143.613C172.9 143.732 172.836 143.912 172.769 144.093C171.44 147.634 169.807 150.999 167.909 154.185C164.894 159.295 161.18 163.953 156.937 168.032C156.557 168.408 156.166 168.765 155.869 169.035C155.721 169.177 155.596 169.289 155.536 169.343L155.527 169.351L155.508 169.368L155.468 169.408L155.32 169.542C155.017 169.817 154.595 170.201 154.147 170.57L154.143 170.573C153.369 171.228 152.489 171.972 151.559 172.695L151.549 172.703L151.54 172.71C149.185 174.525 146.668 176.228 143.987 177.74L143.981 177.743C142.426 178.617 140.764 179.501 139.025 180.301M151.673 164.571C152.011 164.264 152.349 163.957 152.656 163.65C156.527 159.934 159.907 155.697 162.642 151.06C164.362 148.173 165.837 145.133 167.035 141.94C167.081 141.817 167.127 141.686 167.174 141.556C167.22 141.425 167.266 141.295 167.312 141.172C169.616 134.815 170.876 127.968 170.876 120.843C170.876 118.264 170.722 115.746 170.415 113.259C170.292 112.276 170.169 111.324 169.985 110.372C169.432 107.332 168.664 104.384 167.681 101.528C159.661 78.2213 137.539 61.4857 111.515 61.4857C79.4078 61.4857 53.2609 86.9422 52.1548 118.755C52.1241 119.462 52.1241 120.137 52.1241 120.843C52.1241 125.173 52.585 129.411 53.5067 133.526C53.5682 133.787 53.6296 134.055 53.6911 134.324C53.7525 134.593 53.814 134.861 53.8754 135.122C53.9098 135.294 53.9538 135.457 53.9967 135.615C54.0304 135.739 54.0634 135.861 54.0905 135.982C54.152 136.213 54.2211 136.451 54.2902 136.689C54.3593 136.926 54.4285 137.164 54.4899 137.395C55.043 139.299 55.6882 141.172 56.4256 143.014C56.4563 143.076 56.4794 143.137 56.5024 143.199C56.5255 143.26 56.5485 143.321 56.5792 143.383C57.0708 144.58 57.5931 145.747 58.1462 146.883C59.0372 148.757 60.0511 150.568 61.1572 152.319C62.2326 154.069 63.4309 155.758 64.6906 157.385C64.706 157.401 64.7213 157.424 64.7367 157.447C64.7521 157.47 64.7674 157.493 64.7828 157.508C66.0732 159.166 67.4558 160.733 68.8999 162.237C69.5144 162.851 70.1289 163.466 70.7434 164.049C72.3718 165.615 74.1231 167.089 75.9359 168.44C76.7346 169.023 77.5338 169.607 78.3632 170.16C79.0374 170.617 79.7494 171.055 80.4547 171.49C80.6494 171.61 80.8435 171.729 81.0363 171.849C81.0516 171.864 81.067 171.872 81.0823 171.879C81.0977 171.887 81.1131 171.895 81.1284 171.91C82.9719 173.016 84.9076 174.029 86.9047 174.919C89.1476 175.933 91.4213 176.793 93.7871 177.53C93.8946 177.56 93.9945 177.591 94.0943 177.622C94.1942 177.652 94.2941 177.683 94.4016 177.714C99.8092 179.341 105.555 180.201 111.485 180.201C112.253 180.201 113.021 180.201 113.758 180.17C115.848 180.078 117.906 179.894 119.934 179.618C121.747 179.372 123.56 179.034 125.311 178.604C129.213 177.683 132.931 176.363 136.464 174.735C138 174.029 139.506 173.231 140.981 172.401C143.377 171.05 145.651 169.515 147.801 167.857C148.631 167.212 149.43 166.536 150.229 165.861C150.567 165.584 150.905 165.277 151.243 164.97C151.301 164.912 151.366 164.854 151.434 164.793C151.511 164.725 151.592 164.652 151.673 164.571ZM139.024 180.301C135.159 182.082 131.064 183.54 126.744 184.562C124.777 185.043 122.761 185.418 120.761 185.689C118.544 185.991 116.299 186.192 114.028 186.292L114.02 186.292L114.013 186.292C113.147 186.328 112.271 186.328 111.538 186.328H111.485C104.976 186.328 98.6482 185.386 92.6747 183.593C92.5247 183.549 92.3922 183.508 92.3067 183.482L92.295 183.479C92.1883 183.446 92.1455 183.433 92.1063 183.422L92.0362 183.402L91.9665 183.38C89.3741 182.572 86.8707 181.626 84.3977 180.51C82.1732 179.517 80.0237 178.391 77.9801 177.166L77.3336 176.778L77.294 176.738C76.5881 176.304 75.736 175.779 74.9486 175.246C74.0161 174.624 73.1345 173.98 72.3682 173.421L72.3011 173.372L72.2773 173.354C70.2765 171.863 68.3331 170.229 66.5136 168.48C65.8465 167.846 65.1901 167.19 64.5966 166.597L64.5267 166.527L64.4825 166.481C62.946 164.88 61.4424 163.182 60.0181 161.359C59.9291 161.249 59.8583 161.155 59.8086 161.087C59.8033 161.079 59.7981 161.072 59.793 161.065C58.4583 159.337 57.154 157.5 55.9605 155.561C54.7509 153.644 53.6267 151.638 52.6284 149.542C52.0406 148.333 51.4861 147.096 50.9645 145.833C50.9248 145.743 50.8917 145.664 50.865 145.599C50.8577 145.581 50.8506 145.563 50.8437 145.546L50.8351 145.529L50.7404 145.292C49.9286 143.264 49.2181 141.201 48.6092 139.105L48.5904 139.04L48.573 138.975C48.532 138.821 48.4823 138.649 48.4094 138.399L48.4026 138.375C48.3379 138.152 48.2526 137.859 48.1736 137.563L48.1404 137.438L48.1176 137.336C48.1171 137.334 48.1166 137.332 48.116 137.329C48.109 137.303 48.1033 137.282 48.0923 137.241C48.0868 137.221 48.0802 137.196 48.0714 137.164L48.071 137.163C48.0341 137.026 47.9629 136.763 47.8958 136.448C47.8363 136.194 47.7779 135.938 47.7236 135.701L47.7213 135.691C47.659 135.418 47.6019 135.169 47.5458 134.93L47.5381 134.898L47.5309 134.866C46.5076 130.298 46 125.61 46 120.843L46 120.795C46 120.126 46 119.347 46.0353 118.516C47.2692 83.4231 76.1104 55.3584 111.515 55.3584C140.229 55.3584 164.626 73.8265 173.471 99.5339C174.554 102.679 175.397 105.916 176.004 109.242C176.228 110.408 176.371 111.535 176.492 112.498L176.493 112.507C176.832 115.249 177 118.019 177 120.843C177 128.695 175.611 136.249 173.069 143.261L173.057 143.293M78.3177 177.347C78.3269 177.351 78.3353 177.356 78.3407 177.358L78.3346 177.355L78.3177 177.347Z" fill="#212121"/>
<path d="M133.626 100.716L131.103 153.772H78.1706C77.3296 153.772 76.6328 153.074 76.6328 152.233V100.716H133.626Z" fill="#A8EC6C"/>
<path d="M76.6328 100.717L93.6683 90.1871C94.8456 89.4419 96.3834 90.3073 96.3834 91.7017V100.717L113.587 90.1631C114.764 89.4419 116.302 90.2833 116.302 91.6776V100.717H76.6328Z" fill="#786E7A"/>
<path d="M109.669 140.838H104.047C102.749 140.838 101.668 139.781 101.668 138.458V132.833C101.668 131.535 102.725 130.453 104.047 130.453H109.669C110.967 130.453 112.048 131.511 112.048 132.833V138.458C112.048 139.781 110.991 140.838 109.669 140.838Z" fill="#786E7A"/>
<path d="M127.282 140.838H121.66C120.362 140.838 119.281 139.781 119.281 138.458V132.833C119.281 131.535 120.338 130.453 121.66 130.453H127.282C128.58 130.453 129.661 131.511 129.661 132.833V138.458C129.637 139.781 128.58 140.838 127.282 140.838Z" fill="#786E7A"/>
<path d="M145.058 100.716V153.772H131.098L133.621 100.716H145.058Z" fill="#9BDD61"/>
<mask id="mask0_277_18703" style="mask-type:alpha" maskUnits="userSpaceOnUse" x="52" y="61" width="119" height="120">
<path d="M170.877 120.843C170.877 127.967 169.617 134.815 167.313 141.172C167.221 141.417 167.128 141.694 167.036 141.939C165.838 145.133 164.363 148.173 162.643 151.059C159.908 155.696 156.528 159.934 152.657 163.649C152.35 163.957 152.012 164.264 151.674 164.571C151.52 164.724 151.366 164.847 151.244 164.97C150.906 165.277 150.568 165.584 150.23 165.86C149.431 166.536 148.632 167.212 147.802 167.856C145.652 169.515 143.378 171.05 140.981 172.401C139.507 173.23 138.001 174.029 136.465 174.735C132.932 176.362 129.214 177.683 125.312 178.604C123.56 179.034 121.748 179.372 119.935 179.617C117.907 179.894 115.848 180.078 113.759 180.17C113.022 180.201 112.254 180.201 111.486 180.201C105.556 180.201 99.8101 179.341 94.4025 177.714C94.1874 177.652 94.0031 177.591 93.788 177.529C91.4222 176.792 89.1485 175.932 86.9056 174.919C84.9085 174.029 82.9728 173.015 81.1293 171.91C81.0986 171.879 81.0679 171.879 81.0371 171.848C80.1461 171.296 79.2244 170.743 78.3641 170.159C77.5345 169.607 76.7357 169.023 75.9368 168.44C74.124 167.089 72.3727 165.615 70.7443 164.049C70.1298 163.465 69.5153 162.851 68.9008 162.237C67.4567 160.732 66.0741 159.166 64.7837 157.508C64.7529 157.477 64.7222 157.416 64.6915 157.385C63.4318 155.758 62.2335 154.069 61.1581 152.318C60.052 150.568 59.0381 148.756 58.1471 146.883C57.594 145.747 57.0717 144.58 56.5801 143.382C56.5187 143.26 56.4879 143.137 56.4265 143.014C55.6891 141.172 55.0439 139.298 54.4908 137.394C54.3679 136.934 54.2143 136.443 54.0914 135.982C54.0299 135.706 53.9378 135.429 53.8763 135.122C53.7534 134.6 53.6305 134.047 53.5076 133.525C52.5859 129.411 52.125 125.173 52.125 120.843C52.125 120.137 52.125 119.461 52.1557 118.755C53.2618 86.9419 79.4087 61.4854 111.516 61.4854C137.54 61.4854 159.662 78.221 167.681 101.528C168.665 104.384 169.433 107.332 169.986 110.372C170.17 111.324 170.293 112.276 170.416 113.258C170.723 115.746 170.877 118.264 170.877 120.843Z" fill="#6EB7E6"/>
</mask>
<g mask="url(#mask0_277_18703)">
<rect x="54.4219" y="143.438" width="109.468" height="39.0612" fill="#8AA6B2"/>
<path d="M157.65 83.9127H141.527L141.888 76.3402C141.888 76.3402 141.984 72.9746 144.891 72.9746H153.133C153.253 72.9746 153.301 72.9746 153.301 72.9746H157.193L157.65 83.9127Z" fill="#786E7A"/>
<path d="M160.68 153.989H138.238L141.098 93.1924H158.061L160.68 153.989Z" fill="#786E7A"/>
<path d="M158.061 93.1915H141.098L141.53 83.9121H157.653L158.061 93.1915Z" fill="white"/>
<path d="M164.885 83.9127H157.652L157.172 72.9746H161.521C164.428 72.9746 164.524 76.3402 164.524 76.3402L164.885 83.9127Z" fill="#6A6069"/>
<path d="M165.317 93.1915H158.061L157.652 83.9121H164.885L165.317 93.1915Z" fill="#F3F1EB"/>
<path d="M168.176 153.989H160.68L158.061 93.1924H165.317L168.176 153.989Z" fill="#6A6069"/>
</g>
<path d="M167.718 139.608L160.68 153.989L158.061 93.1924H165.317L167.718 139.608Z" fill="#6A6069"/>
<path d="M94.9464 117.821C94.9464 118.062 94.9464 118.278 94.9464 118.494C94.9464 118.59 94.9464 118.663 94.8503 118.687C94.7542 118.735 94.7062 118.663 94.6341 118.59C94.0574 117.965 93.4808 117.316 92.9041 116.691C92.808 116.571 92.808 116.523 92.9041 116.403C93.4808 115.778 94.0574 115.129 94.6341 114.504C94.6821 114.456 94.7783 114.407 94.8263 114.432C94.8744 114.456 94.9224 114.552 94.9224 114.624C94.9224 114.84 94.9224 115.057 94.9224 115.273C94.9705 115.273 95.0185 115.273 95.0666 115.273C95.7153 115.273 96.3881 115.273 97.0368 115.273C97.5895 115.273 98.1421 115.201 98.6707 115.008C98.7428 114.984 98.8149 114.96 98.8869 114.912C99.2954 114.72 99.3915 114.504 99.3194 114.047C99.6318 114.504 99.848 114.96 99.6558 115.537C99.6318 115.634 99.5837 115.73 99.5117 115.826C99.3194 116.162 99.1272 116.523 98.911 116.86C98.5506 117.485 98.022 117.773 97.3011 117.797C96.5563 117.797 95.8114 117.797 95.0666 117.797C95.0666 117.821 95.0185 117.821 94.9464 117.821Z" fill="#212121"/>
<path d="M89.6621 117.773C89.4218 117.749 89.1575 117.773 88.9172 117.725C88.5328 117.653 88.2445 117.437 88.0523 117.1C87.836 116.716 87.6198 116.355 87.4035 115.97C87.0671 115.393 87.0912 114.792 87.4035 114.191C87.788 113.518 88.1724 112.869 88.5568 112.196C88.5809 112.148 88.6049 112.124 88.6289 112.076C88.4367 111.956 88.2445 111.86 88.0763 111.739C88.0042 111.691 87.9081 111.667 87.9321 111.547C87.9561 111.451 88.0282 111.427 88.1243 111.403C88.9653 111.211 89.7822 111.042 90.6232 110.85C90.7674 110.826 90.8154 110.85 90.8635 110.994C91.1278 111.812 91.3921 112.629 91.6324 113.446C91.6564 113.518 91.6324 113.614 91.6083 113.663C91.5362 113.735 91.4642 113.687 91.3921 113.639C91.1999 113.542 91.0317 113.422 90.8394 113.302C90.8154 113.35 90.7914 113.374 90.7674 113.422C90.431 113.999 90.0946 114.576 89.7582 115.177C89.4699 115.682 89.2536 116.211 89.1815 116.788C89.1575 116.956 89.1575 117.124 89.2056 117.269C89.2536 117.533 89.4459 117.677 89.7102 117.725C89.6621 117.749 89.6621 117.749 89.6621 117.773Z" fill="#212121"/>
<path d="M94.6095 110.729C94.0809 109.887 93.6004 109.046 93.0718 108.253C92.9036 107.988 92.6393 107.796 92.423 107.579C92.375 107.531 92.3269 107.507 92.2789 107.483C91.9905 107.315 91.7022 107.195 91.3418 107.555C91.5821 107.027 91.9185 106.594 92.5191 106.498C92.6153 106.474 92.7354 106.474 92.8315 106.474C93.2159 106.474 93.6004 106.474 93.9848 106.474C94.6576 106.474 95.1862 106.762 95.5226 107.363C95.907 108.036 96.2915 108.709 96.6759 109.358C96.6999 109.406 96.7239 109.431 96.748 109.479C96.9402 109.358 97.1324 109.262 97.3006 109.166C97.3727 109.118 97.4448 109.07 97.5409 109.142C97.637 109.214 97.5889 109.286 97.5649 109.382C97.3006 110.2 97.0603 110.993 96.796 111.81C96.748 111.979 96.6999 112.003 96.5317 111.955C95.6908 111.762 94.8738 111.594 94.0329 111.402C93.9608 111.378 93.8647 111.33 93.8647 111.258C93.8647 111.209 93.9368 111.113 93.9848 111.089C94.2011 110.969 94.3933 110.849 94.6095 110.729Z" fill="#212121"/>
<path d="M90.0938 109.719C90.1178 109.647 90.1418 109.623 90.1658 109.575C90.4782 109.046 90.7665 108.517 91.0789 108.012C91.3672 107.507 91.7276 107.435 92.2082 107.748C92.6887 108.084 93.0251 108.541 93.3375 109.022C93.3615 109.046 93.3375 109.118 93.3375 109.142C93.0251 109.719 92.6887 110.272 92.3523 110.849C92.2802 110.969 92.2082 110.993 92.088 110.921C91.4633 110.561 90.8626 110.2 90.2379 109.839C90.1658 109.815 90.1178 109.743 90.0938 109.719Z" fill="#212121"/>
<path d="M99.2477 114.022C99.2477 114.335 99.1036 114.503 98.9113 114.623C98.575 114.839 98.2146 114.912 97.8301 114.984C97.5898 115.032 97.3496 115.032 97.1093 115.056C97.0612 115.056 96.9892 115.032 96.9651 114.984C96.6287 114.407 96.2924 113.854 95.98 113.277C95.9079 113.181 95.9319 113.084 96.0521 113.036C96.6768 112.676 97.3015 112.315 97.9262 111.955C98.0223 111.883 98.1184 111.907 98.1665 112.027C98.4789 112.58 98.8152 113.133 99.1276 113.71C99.1757 113.806 99.2237 113.95 99.2477 114.022Z" fill="#212121"/>
<path d="M92.2318 116.498C92.2318 116.834 92.2318 117.195 92.2318 117.531C92.2318 117.7 92.1837 117.748 92.0155 117.748C91.3908 117.748 90.7661 117.748 90.1654 117.748C89.5887 117.748 89.3725 117.411 89.4205 116.906C89.4686 116.329 89.7089 115.801 89.9491 115.296C89.9732 115.272 90.0212 115.224 90.0693 115.224C90.718 115.224 91.3908 115.224 92.0395 115.224C92.1597 115.224 92.2077 115.272 92.2077 115.416C92.2318 115.777 92.2318 116.137 92.2318 116.498Z" fill="#212121"/>
<path d="M92.0826 140.838H86.4842C85.1867 140.838 84.1055 139.781 84.1055 138.458V132.833C84.1055 131.535 85.1627 130.453 86.4842 130.453H92.1066C93.4041 130.453 94.4853 131.511 94.4853 132.833V138.458C94.4613 139.781 93.4041 140.838 92.0826 140.838Z" fill="#786E7A"/>
<path d="M125.723 177.327H93.8302C91.4643 176.59 89.1907 175.731 86.9478 174.717C84.9507 173.827 83.015 172.813 81.1715 171.708C81.1408 171.677 81.11 171.677 81.0793 171.647C80.1883 171.094 79.2665 170.541 78.4062 169.958V150.121L79.8503 147.05L80.895 144.839L81.2022 144.194L84.244 137.715L84.582 137.039L87.2243 131.389L87.2857 131.235L88.6991 128.195L91.4029 122.392L93.4615 125.677L95.4893 128.932L99.1763 134.797L101.051 137.807L114.754 159.763L116.382 162.373L117.734 164.522L123.572 173.888L125.723 177.327Z" fill="#B06C6C"/>
<path d="M81.1716 137.714V171.708C81.1409 171.677 81.1101 171.677 81.0794 171.646C80.1884 171.093 79.2666 170.541 78.4063 169.957C77.5768 169.405 76.7779 168.821 75.9791 168.238C74.1663 166.887 72.415 165.413 70.7866 163.846C70.1721 163.263 69.5576 162.649 68.9431 162.035C67.499 160.53 66.1164 158.964 64.8259 157.306C64.7952 157.275 64.7645 157.214 64.7338 157.183C63.474 155.555 62.2758 153.866 61.2004 152.116C60.0943 150.366 59.0804 148.554 58.1893 146.681C57.6363 145.545 57.114 144.378 56.6224 143.18C56.5609 143.057 56.5302 142.935 56.4688 142.812L56.4995 142.781C57.1447 142.198 57.9435 141.676 58.896 141.276C60.463 140.632 62.4601 140.324 65.041 140.632C65.1332 140.632 65.2253 140.662 65.3482 140.662C66.5772 140.816 67.9291 141.123 69.4039 141.583L69.619 141.399L71.8619 139.465L75.8254 136.025L77.1466 137.684H81.1716V137.714Z" fill="#748D97"/>
<path d="M93.5822 137.714H77.0829L75.7617 136.056L78.4655 133.722L79.3565 127.089C79.3565 127.089 85.1021 116.065 96.9005 121.624C88.2975 128.717 93.5822 137.714 93.5822 137.714Z" fill="#748D97"/>
<path d="M94.7503 177.328C94.6582 177.389 94.566 177.45 94.4431 177.512C94.228 177.45 94.0437 177.389 93.8286 177.328C91.4628 176.591 89.1891 175.731 86.9462 174.717C84.9491 173.827 83.0134 172.814 81.1699 171.708V137.715H93.5828C93.5828 137.715 93.5521 137.653 93.4906 137.531C93.4599 137.469 93.4292 137.439 93.3984 137.346C93.3063 137.162 93.1834 136.916 93.0605 136.609C92.999 136.487 92.9376 136.333 92.8761 136.179C92.7532 135.872 92.6303 135.535 92.5381 135.166C92.5074 135.043 92.4767 134.92 92.4152 134.767C92.3845 134.706 92.3845 134.644 92.3538 134.552C92.2923 134.276 92.2309 133.999 92.1694 133.692C92.1387 133.6 92.1387 133.508 92.1387 133.416C92.1387 133.324 92.108 133.262 92.108 133.17C92.0773 133.017 92.0773 132.832 92.0465 132.648C92.0465 132.556 92.0158 132.495 92.0158 132.402C91.9851 132.065 91.9544 131.727 91.9544 131.389V131.328C91.9544 131.174 91.9544 131.021 91.9544 130.867C91.9544 130.775 91.9544 130.683 91.9851 130.591C91.9851 130.56 91.9851 130.529 91.9851 130.529C92.1387 130.652 92.2923 130.775 92.446 130.928C92.4767 130.959 92.5074 130.959 92.5074 130.99C92.5074 130.99 92.5074 130.99 92.5381 130.99C92.5689 131.021 92.6303 131.051 92.661 131.082C92.7225 131.143 92.8147 131.205 92.9068 131.297C92.9376 131.328 92.9683 131.358 93.0297 131.389C93.0912 131.451 93.1526 131.512 93.2141 131.573C93.2448 131.604 93.3063 131.635 93.337 131.696C93.3984 131.727 93.4292 131.788 93.4906 131.819C93.5521 131.85 93.5828 131.911 93.6442 131.942C93.7057 131.973 93.7671 132.034 93.7979 132.095C93.89 132.188 93.9822 132.249 94.0744 132.341C94.1973 132.433 94.2895 132.556 94.4124 132.679C94.4431 132.71 94.4431 132.71 94.4738 132.74C94.5353 132.802 94.566 132.832 94.6274 132.894C94.6582 132.955 94.7196 132.986 94.7503 133.047C94.8425 133.139 94.904 133.201 94.9961 133.293C95.0269 133.324 95.0269 133.324 95.0576 133.354C95.1498 133.447 95.2419 133.539 95.3034 133.631C95.4263 133.784 95.5492 133.907 95.6721 134.061C95.7643 134.183 95.8564 134.276 95.9486 134.398C95.9793 134.429 96.0101 134.46 96.0101 134.491C96.1022 134.613 96.2251 134.736 96.3173 134.859C96.4402 135.013 96.5631 135.166 96.686 135.32C96.7167 135.381 96.7475 135.412 96.8089 135.473C96.8396 135.504 96.8704 135.535 96.9011 135.596L96.9318 135.627C96.9625 135.657 96.9625 135.688 96.9933 135.719C97.024 135.75 97.0547 135.78 97.0547 135.811C97.1161 135.872 97.1469 135.903 97.1776 135.965C97.1776 135.995 97.2083 135.995 97.2083 136.026C97.3619 136.241 97.5156 136.425 97.6692 136.64C97.6999 136.671 97.7306 136.702 97.7306 136.732C97.8228 136.855 97.915 136.978 98.0072 137.131C98.0379 137.162 98.0686 137.193 98.0993 137.254C98.1301 137.316 98.1915 137.377 98.2222 137.439C98.2222 137.439 98.2222 137.439 98.2222 137.469L98.253 137.5C98.2837 137.531 98.2837 137.531 98.2837 137.561C98.3144 137.592 98.3451 137.653 98.3759 137.715C98.3759 137.746 98.4066 137.746 98.4066 137.746C98.5295 137.961 98.6831 138.145 98.806 138.36C98.806 138.36 98.8367 138.39 98.8367 138.421C98.8367 138.421 98.8367 138.452 98.8675 138.452C98.8982 138.513 98.9289 138.544 98.9596 138.605C99.0211 138.698 99.0518 138.759 99.1133 138.851C99.2054 139.005 99.2976 139.158 99.3898 139.312C99.3898 139.312 99.4205 139.342 99.4205 139.373C99.5741 139.619 99.7278 139.895 99.8507 140.141C99.9736 140.356 100.066 140.571 100.189 140.755C100.25 140.878 100.312 140.97 100.373 141.093C100.496 141.308 100.588 141.553 100.711 141.768C100.711 141.799 100.742 141.799 100.742 141.83C100.926 142.198 101.08 142.567 101.264 142.935C101.295 143.027 101.325 143.089 101.356 143.181C101.387 143.273 101.448 143.365 101.479 143.488C101.602 143.795 101.725 144.102 101.848 144.409C107.102 157.583 103.845 171.462 94.7503 177.328Z" fill="white"/>
<path d="M80.8324 117.57C80.6787 118.184 80.4329 118.768 80.095 119.259L76.1929 126.721L72.0143 128.133C71.4305 127.673 69.8418 128.194 68.1519 127.917C54.2028 125.86 61.9673 114.376 61.9673 114.376C62.7354 114.284 63.5342 114.346 64.3638 114.591C64.9783 114.776 65.5313 115.021 66.0537 115.328C66.0537 115.328 66.0537 115.328 66.0844 115.328C66.1151 115.359 66.1458 115.359 66.1458 115.39C66.5453 115.635 67.9893 116.342 68.4502 114.622C68.4809 114.468 68.5117 114.315 68.5424 114.161C69.4334 110.784 72.9053 108.818 76.2851 109.77C79.6955 110.691 81.7234 114.192 80.8324 117.57Z" fill="#FAC04F"/>
<path d="M158.904 142.382C155.125 139.526 149.902 141.676 149.687 141.768C149.779 141.676 151.193 140.355 148.243 135.688C145.201 130.836 140.17 132.926 140.17 132.926C140.17 132.926 140.009 127.428 132.665 122.361C130.76 121.04 128.794 120.518 126.951 120.488C121.604 120.334 117.057 124.05 117.057 124.05C117.057 124.05 116.904 117.755 110.636 116.526C110.113 116.434 109.56 116.342 108.977 116.342C107.87 116.281 106.856 116.404 105.996 116.588C100.712 117.847 99.6361 123.129 99.6361 123.129C99.5747 123.098 99.5132 123.067 99.4518 123.006C98.5608 122.453 97.7312 121.992 96.9016 121.593C96.5637 121.87 96.2564 122.146 95.9799 122.422C95.9492 122.453 95.9184 122.484 95.857 122.514C95.8263 122.545 95.7955 122.576 95.7341 122.606C95.6726 122.668 95.6112 122.729 95.5497 122.791C95.519 122.852 95.4576 122.883 95.4268 122.944C95.3961 122.975 95.3961 122.975 95.3654 123.006C95.3039 123.067 95.2425 123.129 95.181 123.221C95.1503 123.251 95.1196 123.282 95.0889 123.343C95.0274 123.405 94.966 123.497 94.9045 123.558C94.8123 123.651 94.7509 123.743 94.6587 123.835C94.5051 124.019 94.3822 124.173 94.2593 124.357C94.1978 124.449 94.1057 124.572 94.0442 124.664C93.9828 124.756 93.8906 124.879 93.8291 124.971C93.7677 125.063 93.7062 125.186 93.6448 125.278C93.6141 125.339 93.5833 125.401 93.5526 125.462C93.5219 125.493 93.5219 125.524 93.4912 125.554C93.4604 125.585 93.4604 125.616 93.4297 125.647C93.3683 125.739 93.3375 125.831 93.2761 125.923C93.2146 126.015 93.1839 126.138 93.1225 126.23C93.0917 126.291 93.061 126.353 93.0303 126.414C92.9996 126.506 92.9688 126.568 92.9074 126.66C92.8767 126.752 92.8459 126.813 92.8152 126.906C92.7845 126.998 92.7538 127.09 92.723 127.182C92.6923 127.274 92.6616 127.366 92.6001 127.489C92.5694 127.55 92.5387 127.643 92.508 127.735C92.4772 127.796 92.4772 127.857 92.4465 127.919C92.3851 128.103 92.3543 128.257 92.2929 128.441C92.2622 128.533 92.2314 128.656 92.2314 128.748C92.2007 128.871 92.17 128.994 92.17 129.117C92.1393 129.209 92.1393 129.27 92.1393 129.362C92.1085 129.546 92.0778 129.761 92.0471 129.946C92.0471 130.007 92.0164 130.068 92.0164 130.13C92.0164 130.191 92.0164 130.253 91.9856 130.283C91.9856 130.376 91.9856 130.468 91.9549 130.56C92.1085 130.683 92.2622 130.805 92.4158 130.959C92.4465 130.99 92.4772 130.99 92.4772 131.02C92.4772 131.02 92.4772 131.02 92.508 131.02C92.5387 131.051 92.6001 131.082 92.6309 131.112C92.6923 131.174 92.7845 131.235 92.8767 131.327C92.9074 131.358 92.9381 131.389 92.9996 131.42C93.061 131.481 93.1225 131.542 93.1839 131.604C93.2146 131.635 93.2761 131.665 93.3068 131.727C93.3683 131.757 93.399 131.819 93.4604 131.849C93.5219 131.88 93.5526 131.942 93.6141 131.972C93.6755 132.003 93.737 132.064 93.7677 132.126C93.8599 132.218 93.952 132.279 94.0442 132.372C94.1671 132.464 94.2593 132.586 94.3822 132.709C94.4129 132.74 94.4129 132.74 94.4436 132.771C94.5051 132.832 94.5358 132.863 94.5973 132.924C94.628 132.986 94.6894 133.016 94.7202 133.078C94.8123 133.17 94.9045 133.293 95.0274 133.385C95.1196 133.477 95.2118 133.569 95.2732 133.661C95.3961 133.815 95.519 133.938 95.6419 134.091C95.7341 134.214 95.8263 134.306 95.9184 134.429C95.9492 134.46 95.9799 134.49 95.9799 134.521C96.0721 134.644 96.195 134.767 96.2871 134.89C96.41 135.043 96.5329 135.197 96.6558 135.35C96.6866 135.412 96.7173 135.442 96.7787 135.504C96.8095 135.534 96.8402 135.565 96.8709 135.627C96.9324 135.688 96.9938 135.78 97.0553 135.841C97.1167 135.903 97.1474 135.934 97.1782 135.995C97.1782 136.026 97.2089 136.026 97.2089 136.056C97.3625 136.271 97.5161 136.456 97.6698 136.671C97.7005 136.701 97.7312 136.732 97.7312 136.763C97.8234 136.886 97.9156 137.008 98.0077 137.162C98.0692 137.254 98.1306 137.377 98.2228 137.469C98.2228 137.469 98.2228 137.469 98.2228 137.5C98.2228 137.5 98.2228 137.53 98.2535 137.53C98.2843 137.561 98.2842 137.561 98.2842 137.592C98.315 137.622 98.3457 137.684 98.3764 137.745C98.3764 137.776 98.4072 137.776 98.4072 137.776C98.5608 137.991 98.6837 138.206 98.8373 138.421C98.8373 138.421 98.8373 138.452 98.868 138.452C98.8988 138.513 98.9295 138.544 98.9602 138.605C99.0216 138.697 99.0524 138.759 99.1138 138.851C99.206 139.004 99.2982 139.158 99.3903 139.311C99.544 139.588 99.6976 139.864 99.8512 140.141C100.158 140.693 100.435 141.246 100.712 141.829C100.896 142.198 101.049 142.566 101.234 142.935C100.957 143.027 100.712 143.15 100.466 143.242C100.312 143.303 100.158 143.396 100.005 143.457C99.6976 143.61 99.3903 143.764 99.1138 143.948C98.9909 144.04 98.8373 144.102 98.7144 144.194C98.3764 144.409 98.0692 144.655 97.7927 144.9C97.7312 144.962 97.6698 144.992 97.6083 145.054C97.424 145.207 97.2703 145.361 97.1167 145.514C91.8627 150.857 95.4576 159.916 95.4576 159.916C87.3769 165.628 86.2094 170.971 86.8853 174.748C89.0975 175.761 91.4019 176.621 93.7677 177.358C93.9828 177.42 94.1671 177.481 94.3822 177.542C99.7898 179.17 105.505 180.03 111.465 180.03C112.233 180.03 112.971 180.03 113.739 179.999C115.828 179.938 117.887 179.723 119.915 179.446C121.727 179.201 123.54 178.832 125.291 178.433C129.163 177.512 132.88 176.222 136.445 174.564C137.981 173.857 139.486 173.059 140.961 172.23C143.327 170.879 145.601 169.343 147.782 167.685C148.612 167.04 149.441 166.396 150.209 165.689C150.547 165.413 150.885 165.106 151.223 164.799C151.377 164.676 151.531 164.522 151.653 164.4C151.991 164.092 152.299 163.785 152.637 163.478C156.508 159.763 159.888 155.525 162.622 150.888C162.223 146.313 160.748 143.764 158.904 142.382Z" fill="#8AA6B2"/>
<path d="M72.0458 128.165L67.7751 129.608L61.1692 126.814C57.7587 125.862 55.7309 122.361 56.6219 118.983C57.2979 116.404 59.4793 114.653 61.9988 114.377C61.9988 114.377 54.7477 125.032 68.7275 127.121C70.3867 127.336 71.4621 127.704 72.0458 128.165Z" fill="#EBAE56"/>
<path d="M101.295 142.934C101.019 143.027 100.773 143.149 100.527 143.241C100.374 143.303 100.22 143.395 100.066 143.456C99.7591 143.61 99.4519 143.764 99.1754 143.948C99.0525 144.04 98.8988 144.101 98.7759 144.193C98.438 144.408 98.1307 144.654 97.8542 144.9C97.7927 144.961 97.7313 144.992 97.6698 145.053C97.4855 145.207 97.3319 145.36 97.1782 145.514C91.9243 150.857 95.5191 159.916 95.5191 159.916C87.4384 165.627 86.2709 170.97 86.9468 174.747C84.9497 173.857 83.0141 172.844 81.1706 171.738C81.1398 171.707 81.1091 171.707 81.0784 171.677C80.1874 171.124 79.2656 170.571 78.4053 169.988C77.5757 169.435 76.7769 168.852 75.9781 168.268C75.9781 168.207 75.9781 168.145 75.9473 168.053C75.9473 168.023 75.9473 167.961 75.9473 167.93C75.9473 167.838 75.9166 167.777 75.9166 167.685C75.8859 167.623 75.8859 167.531 75.8552 167.47C75.8552 167.439 75.8552 167.408 75.8244 167.378C75.7937 167.286 75.7937 167.224 75.763 167.132C75.7323 167.009 75.7015 166.886 75.6401 166.763C75.6094 166.671 75.5786 166.579 75.5172 166.487C75.3943 166.149 75.2099 165.781 74.9949 165.412C74.9641 165.32 74.9027 165.259 74.872 165.167C74.8412 165.136 74.8105 165.075 74.8105 165.044C74.7491 164.952 74.7183 164.86 74.6569 164.768C74.2267 164.123 73.7351 163.416 73.0899 162.679C72.967 162.557 72.8748 162.403 72.7519 162.28C72.629 162.127 72.4754 161.942 72.3525 161.789C72.3218 161.758 72.2911 161.697 72.2603 161.666C72.076 161.451 71.9224 161.236 71.7687 161.021C71.4922 160.653 71.2157 160.284 70.9699 159.916C70.6319 159.424 70.3247 158.964 70.0174 158.472C69.956 158.35 69.8638 158.227 69.8023 158.104C69.5873 157.735 69.3722 157.398 69.1878 157.029C69.0649 156.814 68.942 156.599 68.8499 156.384C68.8191 156.354 68.8191 156.323 68.7884 156.262C68.6655 156.047 68.5733 155.832 68.4504 155.617C68.2968 155.279 68.1125 154.941 67.9896 154.603C67.9281 154.45 67.8667 154.296 67.8052 154.173C67.7745 154.112 67.7438 154.051 67.7438 154.02C67.6516 153.805 67.5594 153.621 67.498 153.406C67.4365 153.252 67.3751 153.099 67.3136 152.945C67.1907 152.638 67.0678 152.3 66.9757 151.993V151.962C66.9142 151.747 66.822 151.533 66.7606 151.318C66.6377 150.888 66.4841 150.458 66.3919 150.028C66.3919 149.997 66.3919 149.997 66.3612 149.966C66.2383 149.537 65.9926 149.13 65.9004 148.7C65.8697 148.546 65.4087 148.071 65.378 147.949C65.3165 147.641 65.4306 147.724 65.3999 147.448C63.99 146.757 64.9302 146.222 64.8995 145.945C64.8073 145.393 62.1775 143.994 62.1467 143.442C62.0546 142.305 64.8686 142.764 64.8994 141.689C63.6702 140.829 65.1192 140.964 65.1499 140.687C64.1403 139.931 64.8995 140.12 64.8995 139.936C64.1095 138.861 64.2984 137.947 65.1499 138.684C65.1499 138.592 64.6494 137.591 64.6494 137.499C64.6801 137.346 65.5623 138.727 65.5623 138.574C65.1499 138.081 64.6494 136.553 64.6494 136.431C64.6801 136.246 65.1192 137.116 65.1499 136.931C65.1499 136.87 65.0929 136.642 65.378 137.182C65.4087 136.936 64.8688 136.363 64.8995 136.117C64.9302 135.872 65.3387 135.394 65.4001 135.179C65.4309 134.964 65.3472 135.644 65.378 135.429C65.378 135.368 65.5623 134.674 65.5623 134.613C65.593 134.521 65.8697 135.02 65.9004 134.928C65.9311 134.775 65.3474 133.742 65.9004 134.428C65.9311 134.305 65.4225 134.567 66.1507 134.177C66.2121 133.993 65.3165 133.61 65.378 133.426C65.4701 133.027 66.0585 132.793 66.1507 132.424C66.2121 132.24 66.3395 131.857 66.4009 131.673C66.6775 130.783 66.8752 130.346 67.1517 129.67C66.7792 129.67 67.4685 128.727 67.6522 128.919C67.8059 128.52 68.1432 128.594 68.2968 128.287C68.3275 128.225 68.3583 128.164 68.389 128.103C68.4504 127.98 68.4812 127.888 68.5426 127.796C68.5733 127.734 68.5733 127.703 68.6041 127.673C68.7577 127.366 68.8499 127.181 68.8806 127.12H68.8499C69.5565 126.721 70.2632 126.383 71.0313 126.076C73.0899 125.278 75.2099 124.878 77.3914 124.848C78.0673 124.848 78.7126 124.878 79.3885 124.94C79.8801 124.97 80.4024 125.063 80.894 125.124C81.57 125.247 82.2152 125.4 82.8912 125.585C83.7515 125.83 84.581 126.107 85.4413 126.444C85.5028 126.475 85.5335 126.475 85.595 126.506C86.701 126.966 87.8071 127.519 88.8825 128.164C90.0193 128.84 91.1562 129.638 92.2315 130.529C92.3852 130.651 92.5388 130.774 92.6924 130.928C92.7231 130.958 92.7539 130.958 92.7539 130.989C92.7539 130.989 92.7539 130.989 92.7846 130.989C92.8153 131.02 92.8768 131.051 92.9075 131.081C92.9689 131.143 93.0611 131.204 93.1533 131.296C93.184 131.327 93.2147 131.358 93.2762 131.388C93.3376 131.45 93.3991 131.511 93.4605 131.573C93.4913 131.603 93.5527 131.634 93.5834 131.695C93.6449 131.726 93.6756 131.788 93.7371 131.818C93.7985 131.849 93.8292 131.91 93.8907 131.941C93.9521 131.972 94.0136 132.033 94.0443 132.095C94.1365 132.187 94.2287 132.248 94.3208 132.34C94.4437 132.432 94.5359 132.555 94.6588 132.678C94.6895 132.709 94.6895 132.709 94.7203 132.74C94.7817 132.801 94.8124 132.832 94.8739 132.893C94.9046 132.954 94.9661 132.985 94.9968 133.047C95.089 133.139 95.1504 133.2 95.2426 133.292C95.3347 133.415 95.4576 133.538 95.5498 133.63C95.6727 133.784 95.7956 133.906 95.9185 134.06C96.0107 134.183 96.1029 134.275 96.195 134.398C96.2258 134.428 96.2565 134.459 96.2565 134.49C96.3487 134.613 96.4716 134.735 96.5637 134.858C96.6866 135.012 96.8095 135.165 96.9324 135.319C96.9632 135.38 96.9939 135.411 97.0553 135.472C97.0861 135.503 97.1168 135.534 97.1475 135.595L97.1782 135.626C97.209 135.657 97.209 135.687 97.2397 135.718C97.2704 135.749 97.3011 135.78 97.3011 135.81C97.3626 135.872 97.3933 135.902 97.424 135.964C97.424 135.995 97.4548 135.995 97.4548 136.025C97.6084 136.24 97.762 136.424 97.9156 136.639C97.9464 136.67 97.9771 136.701 97.9771 136.731C98.0693 136.854 98.1614 136.977 98.2536 137.131C98.2843 137.161 98.3151 137.192 98.3458 137.254C98.3765 137.315 98.438 137.376 98.4687 137.438C98.4687 137.438 98.4687 137.438 98.4687 137.468C98.4687 137.468 98.4687 137.499 98.4994 137.499C98.5301 137.53 98.5301 137.53 98.5301 137.561C98.5609 137.591 98.5916 137.653 98.6223 137.714C98.6223 137.745 98.653 137.745 98.653 137.745C98.7759 137.96 98.9296 138.144 99.0525 138.359C99.0525 138.359 99.0832 138.39 99.0832 138.42C99.0832 138.42 99.0832 138.451 99.1139 138.451C99.1446 138.513 99.1754 138.543 99.2061 138.605C99.2675 138.697 99.2983 138.758 99.3597 138.85C99.4519 139.004 99.5441 139.157 99.6362 139.311C99.6362 139.311 99.667 139.342 99.667 139.372C99.8206 139.618 99.9742 139.894 100.097 140.14C100.22 140.355 100.312 140.57 100.435 140.754C100.497 140.877 100.558 140.969 100.619 141.092C100.742 141.307 100.835 141.553 100.957 141.768C100.957 141.798 100.988 141.798 100.988 141.829C100.957 142.197 101.142 142.535 101.295 142.934Z" fill="#FAC04F"/>
<path d="M75.9772 168.208C74.1645 166.857 72.4131 165.383 70.7847 163.817C70.1702 163.233 69.5557 162.619 68.9412 162.005C67.4971 160.5 66.1145 158.934 64.8241 157.276C64.7934 157.245 64.7626 157.184 64.7319 157.153C63.4722 155.525 62.2739 153.837 61.1985 152.086C60.0924 150.336 59.0785 148.524 58.1875 146.651C58.2489 144.778 58.4947 142.997 58.8942 141.246C59.4779 138.606 60.4611 136.149 61.7516 133.999C62.2739 133.14 62.827 132.311 63.4722 131.543C63.8102 131.113 64.1789 130.714 64.5476 130.315C65.0392 129.793 65.5922 129.301 66.1453 128.841C66.9748 128.165 67.8351 127.582 68.7569 127.06H68.7876C68.7569 127.121 68.6647 127.305 68.5111 127.612C68.4803 127.643 68.4803 127.704 68.4496 127.735C68.4189 127.827 68.3574 127.95 68.296 128.042C68.2653 128.104 68.2345 128.165 68.2038 128.226C68.0809 128.534 67.9273 128.902 67.7429 129.301C67.7122 129.363 67.6815 129.424 67.6815 129.485C67.405 130.161 67.1284 130.959 66.8519 131.85C66.7905 132.034 66.729 132.218 66.6676 132.433C66.5754 132.802 66.4525 133.17 66.3603 133.57C66.2989 133.754 66.2682 133.969 66.2067 134.153C66.176 134.276 66.1453 134.429 66.1145 134.552C66.0838 134.675 66.0531 134.829 66.0224 134.951C65.9916 135.044 65.9916 135.166 65.9609 135.258C65.9609 135.32 65.9302 135.351 65.9302 135.412C65.8995 135.627 65.838 135.842 65.8073 136.057C65.7766 136.272 65.7151 136.518 65.6844 136.732C65.6537 136.947 65.6229 137.193 65.5922 137.439C65.5922 137.5 65.5615 137.531 65.5615 137.592C65.5308 137.777 65.5308 137.961 65.5 138.145C65.5 138.268 65.4693 138.391 65.4693 138.513C65.4386 138.667 65.4386 138.79 65.4386 138.943C65.4386 139.036 65.4079 139.158 65.4079 139.25C65.3771 139.496 65.3771 139.742 65.3464 140.018C65.3464 140.233 65.3157 140.417 65.3157 140.632C65.3157 140.909 65.285 141.185 65.285 141.492C65.2542 142.567 65.3157 143.672 65.4079 144.809C65.4693 145.361 65.5308 145.914 65.5922 146.467C65.6229 146.743 65.6844 147.05 65.7151 147.327C65.7766 147.603 65.8073 147.91 65.8687 148.186C65.8995 148.34 65.9302 148.463 65.9609 148.616C66.0531 149.046 66.1453 149.476 66.2682 149.906C66.2682 149.937 66.2682 149.937 66.2989 149.967C66.4218 150.397 66.5447 150.827 66.6676 151.257C66.729 151.472 66.8212 151.687 66.8826 151.902V151.933C67.0055 152.24 67.0977 152.578 67.2206 152.885C67.2821 153.038 67.3435 153.192 67.405 153.345C67.4971 153.53 67.5586 153.744 67.6508 153.959C67.6815 154.021 67.6815 154.082 67.7122 154.113C67.7737 154.266 67.8351 154.389 67.8966 154.543C68.0502 154.881 68.2038 155.218 68.3574 155.556C68.4803 155.771 68.5725 155.986 68.6954 156.201C68.7261 156.232 68.7261 156.262 68.7569 156.324C68.8798 156.539 68.9719 156.754 69.0948 156.969C69.3099 157.337 69.4943 157.675 69.7093 158.044C69.7708 158.166 69.863 158.289 69.9244 158.412C70.2317 158.873 70.5389 159.364 70.8769 159.855C71.1227 160.224 71.3992 160.592 71.6757 160.961C71.8294 161.176 72.0137 161.391 72.1673 161.606C72.1981 161.636 72.2288 161.698 72.2595 161.728C72.3824 161.882 72.536 162.066 72.6589 162.22C72.7818 162.343 72.874 162.496 72.9969 162.619C73.6421 163.356 74.1337 164.062 74.5639 164.707C74.6253 164.799 74.6868 164.891 74.7175 164.983C74.7482 165.014 74.779 165.076 74.779 165.106C74.8404 165.198 74.8711 165.26 74.9018 165.352C75.1169 165.72 75.2706 166.089 75.4242 166.427C75.4549 166.519 75.4856 166.611 75.5471 166.703C75.5778 166.826 75.6392 166.949 75.67 167.072C75.7007 167.164 75.7314 167.225 75.7314 167.317C75.7314 167.348 75.7621 167.379 75.7621 167.409C75.7929 167.471 75.7929 167.563 75.8236 167.624C75.8543 167.716 75.8543 167.809 75.8543 167.87C75.8543 167.901 75.8543 167.962 75.8543 167.993C75.9772 168.085 75.9772 168.146 75.9772 168.208Z" fill="#EBAE56"/>
<path d="M103.262 142.32C102.555 142.505 101.91 142.689 101.295 142.935C101.019 143.027 100.773 143.15 100.527 143.242C100.373 143.303 100.22 143.395 100.066 143.457C99.759 143.61 99.4517 143.764 99.1752 143.948C99.0523 144.04 98.8987 144.102 98.7758 144.194C98.4378 144.409 98.1306 144.654 97.854 144.9C97.7926 144.961 97.7311 144.992 97.6697 145.053C97.4853 145.207 97.3317 145.361 97.1781 145.514C91.9241 150.857 95.5189 159.916 95.5189 159.916C87.4383 165.628 86.2707 170.971 86.9467 174.748C84.9496 173.857 83.0139 172.844 81.1704 171.738C81.1397 171.708 81.109 171.708 81.0782 171.677C80.1872 171.124 79.2655 170.571 78.4052 169.988C77.5756 169.435 76.7767 168.852 75.9779 168.268C74.1651 166.917 72.4138 165.443 70.7854 163.877C70.1709 163.294 69.5564 162.68 68.9419 162.065C67.4978 160.561 66.1152 158.995 64.8248 157.336C64.794 157.306 64.7633 157.244 64.7326 157.214C63.4729 155.586 62.2746 153.897 61.1992 152.147C62.6126 150.212 64.3024 149.168 65.9923 148.708C66.4532 148.585 66.8833 148.493 67.3442 148.431C69.4028 148.186 71.3384 148.616 72.6289 149.045C73.6121 149.383 74.2266 149.69 74.2266 149.69C75.4249 147.418 76.7767 146.098 78.1594 145.422C79.1118 144.961 80.0336 144.808 80.9246 144.839C81.0168 144.839 81.1397 144.839 81.2319 144.869C84.3351 145.115 86.8545 147.571 86.8545 147.571C89.2203 144.071 92.385 142.566 95.3039 141.983C96.7172 141.706 98.0691 141.645 99.2367 141.706C99.8204 141.737 100.373 141.768 100.834 141.829C102.309 142.013 103.262 142.32 103.262 142.32Z" fill="#748D97"/>
<path d="M141.083 164.798L124.891 170.755C123.723 171.185 122.433 170.602 122.003 169.435L112.878 144.654C112.447 143.487 113.031 142.197 114.199 141.767L130.391 135.81C131.558 135.38 132.849 135.964 133.279 137.131L142.404 161.912C142.834 163.078 142.251 164.368 141.083 164.798Z" fill="white"/>
<path d="M130.923 139.21L115.783 144.773L123.142 164.776L138.282 159.212L130.923 139.21Z" fill="#868686"/>
<path d="M124.401 141.584L121.328 159.425L123.202 164.553L129.747 162.158L132.819 144.439L130.914 139.188L124.401 141.584Z" fill="#9C9C9C"/>
<path d="M134.295 163.876C134.295 163.846 134.264 163.815 134.264 163.784L134.233 163.692C134.11 163.354 133.865 163.078 133.588 162.894C133.189 162.617 132.636 162.556 132.144 162.74L130.178 163.477C129.963 163.538 129.809 163.661 129.655 163.784C129.471 163.968 129.317 164.183 129.225 164.398C129.102 164.767 129.071 165.166 129.225 165.534L129.256 165.627C129.563 166.456 130.516 166.886 131.345 166.579L133.342 165.842C133.588 165.749 133.772 165.627 133.926 165.442C134.295 165.074 134.479 164.46 134.295 163.876ZM133.127 165.412L131.13 166.149C130.608 166.333 130.024 166.118 129.778 165.657C129.747 165.596 129.717 165.565 129.717 165.504L129.686 165.412C129.471 164.828 129.778 164.183 130.362 163.968L132.359 163.231C132.943 163.016 133.588 163.324 133.803 163.907L133.834 163.999C133.865 164.061 133.865 164.122 133.865 164.153C133.926 164.675 133.649 165.227 133.127 165.412Z" fill="#566C78"/>
<path d="M120.988 141.645C121.26 141.645 121.48 141.425 121.48 141.154C121.48 140.882 121.26 140.662 120.988 140.662C120.716 140.662 120.496 140.882 120.496 141.154C120.496 141.425 120.716 141.645 120.988 141.645Z" fill="black"/>
<path d="M122.832 141.001C123.104 141.001 123.324 140.781 123.324 140.509C123.324 140.238 123.104 140.018 122.832 140.018C122.56 140.018 122.34 140.238 122.34 140.509C122.34 140.781 122.56 141.001 122.832 141.001Z" fill="black"/>
<path d="M124.676 140.355C124.947 140.355 125.168 140.135 125.168 139.864C125.168 139.592 124.947 139.372 124.676 139.372C124.404 139.372 124.184 139.592 124.184 139.864C124.184 140.135 124.404 140.355 124.676 140.355Z" fill="black"/>
<path d="M133.771 163.877L133.802 163.969C133.833 164.031 133.833 164.061 133.833 164.123C133.71 164.553 133.403 164.891 132.972 165.044L130.975 165.781C130.545 165.935 130.084 165.873 129.716 165.628C129.685 165.566 129.654 165.535 129.654 165.474L129.623 165.382C129.408 164.798 129.716 164.123 130.299 163.908L132.296 163.171C132.911 162.956 133.556 163.263 133.771 163.877Z" fill="#8EAABD"/>
<path d="M151.222 164.769C150.884 165.076 150.546 165.383 150.208 165.659C149.409 166.335 148.61 167.01 147.781 167.655C145.63 169.313 143.356 170.849 140.96 172.2C139.485 173.029 137.98 173.827 136.443 174.534L123.539 173.858L114.844 173.398L115.212 169.098L115.765 162.988L116.349 162.374L118.561 160.101L120.62 157.952L121.788 156.723L122.248 156.263L124.215 156.693L130.483 158.044L132.295 158.443L134.17 160.715L135.061 161.79L136.013 162.957L137.949 161.514L140.345 159.733L141.697 159.978L144.217 160.408L149.993 161.422L150.638 163.172L151.222 164.769Z" fill="#8AA6B2"/>
<path d="M151.345 162.031C151.191 162.185 150.627 162.674 150.504 162.797C150.166 163.104 150.577 163.085 150.239 163.361C149.44 164.037 148.641 164.712 147.811 165.357C147.811 165.326 147.781 165.296 147.781 165.234C147.75 165.081 147.719 164.896 147.658 164.743C147.228 162.962 146.552 160.812 145.015 159.983C144.616 159.768 144.032 159.615 143.602 159.584C143.203 159.553 142.834 159.553 142.435 159.584C142.097 159.615 141.759 159.615 141.421 159.645C140.622 159.707 140.53 159.615 140.099 160.045C139.669 160.475 139.331 161.181 139.086 161.795C138.871 162.317 138.717 162.9 138.594 163.453C138.594 163.484 138.563 163.515 138.563 163.545C138.502 164.098 138.41 164.681 138.256 165.265C137.611 167.476 134.352 167.152 134.045 165.095C134.045 165.095 134.397 164.927 134.428 164.712C134.459 164.497 134.014 164.161 134.045 163.946C134.076 163.7 133.924 163.545 133.955 163.269C133.955 163.269 133.955 163.238 133.955 163.208C133.955 162.839 133.985 162.471 133.955 162.102C133.955 162.01 133.955 161.887 133.924 161.795C133.924 161.795 133.924 161.795 133.924 161.764C133.893 161.519 133.832 161.304 133.77 161.058C133.739 160.904 133.678 160.751 133.617 160.597C133.401 159.983 133.125 159.461 132.664 158.939C132.603 158.878 132.541 158.816 132.48 158.755C131.834 158.079 131.066 157.588 130.268 157.189C129.868 157.005 129.469 156.851 129.039 156.698C127.687 156.237 126.243 155.93 124.829 155.93C123.631 155.93 122.463 156.175 121.419 156.759C121.327 156.82 121.234 156.882 121.142 156.912C121.019 157.005 120.896 157.066 120.774 157.158C120.128 157.649 119.575 158.294 119.084 159.062C119.022 159.154 118.961 159.246 118.93 159.338C118.316 160.382 118.162 160.782 117.824 161.826C117.793 161.918 117.762 162.041 117.732 162.133C117.547 162.778 117.394 163.422 117.271 164.098C117.24 164.221 117.24 164.313 117.209 164.436C117.209 164.467 117.209 164.528 117.209 164.559C117.117 165.787 116.226 166.493 115.274 166.708C113.953 166.985 112.447 166.278 112.601 164.559C112.754 162.532 113.307 160.567 114.106 158.693C114.291 158.233 114.506 157.803 114.751 157.373C115.427 156.145 116.257 155.039 117.271 154.118C117.947 153.504 118.684 152.951 119.514 152.521C119.667 152.46 119.821 152.368 119.975 152.306C120.712 151.969 121.511 151.723 122.31 151.539C122.648 151.477 122.986 151.416 123.324 151.385C125.905 151.078 128.608 151.569 131.066 152.521C131.527 152.706 131.988 152.89 132.449 153.105C134.231 153.965 135.737 155.285 136.812 156.882C137.181 156.544 137.549 156.237 137.979 155.991C138.778 155.531 139.731 155.224 140.806 155.07C140.929 155.039 141.083 155.039 141.206 155.009C142.803 154.855 144.462 154.855 145.968 155.346C146.49 155.5 146.982 155.715 147.473 156.022C149.348 157.127 150.546 158.939 151.345 160.935C151.437 161.334 151.498 161.878 151.345 162.031Z" fill="#748D97"/>
<path d="M151.684 164.369C151.53 164.523 151.376 164.646 151.254 164.768C150.916 165.075 150.578 165.383 150.24 165.659C149.441 166.334 148.642 167.01 147.812 167.655C147.812 167.624 147.782 167.593 147.782 167.532C147.751 167.379 147.72 167.194 147.659 167.041C147.229 165.26 146.553 163.11 145.016 162.281C144.617 162.066 144.033 161.913 143.603 161.882C143.204 161.851 142.835 161.851 142.435 161.882C142.098 161.913 141.76 161.913 141.422 161.943C140.623 162.005 140.531 161.913 140.1 162.342C139.67 162.772 139.332 163.479 139.086 164.093C138.871 164.615 138.718 165.198 138.595 165.751C138.595 165.782 138.564 165.812 138.564 165.843C138.503 166.396 138.411 166.979 138.257 167.563C137.612 169.774 134.048 169.62 133.74 167.563C133.71 167.379 133.71 167.164 133.74 166.949C133.771 166.734 133.802 166.549 133.833 166.334C133.863 166.089 133.925 165.843 133.955 165.567C133.955 165.567 133.955 165.536 133.955 165.505C133.955 165.137 133.986 164.768 133.955 164.4C133.955 164.308 133.955 164.185 133.925 164.093C133.925 164.093 133.925 164.093 133.925 164.062C133.894 163.816 133.833 163.601 133.771 163.356C133.74 163.202 133.679 163.049 133.617 162.895C133.402 162.281 133.126 161.759 132.665 161.237C132.604 161.176 132.542 161.114 132.481 161.053C131.835 160.377 131.067 159.886 130.268 159.487C129.869 159.302 129.47 159.149 129.039 158.995C127.688 158.535 126.243 158.228 124.83 158.228C123.632 158.228 122.464 158.473 121.42 159.057C121.327 159.118 121.235 159.18 121.143 159.21C121.02 159.302 120.897 159.364 120.774 159.456C120.129 159.947 119.576 160.592 119.085 161.36C119.023 161.452 118.962 161.544 118.931 161.636C118.316 162.68 118.163 163.079 117.825 164.124C117.794 164.216 117.763 164.338 117.733 164.431C117.548 165.075 117.395 165.72 117.272 166.396C117.241 166.519 117.241 166.611 117.21 166.734C117.21 166.764 117.21 166.826 117.21 166.856C117.118 168.085 116.227 168.791 115.275 169.006C113.953 169.282 112.841 168.576 112.995 166.856C113.186 164.712 113.308 162.865 114.107 160.991C114.291 160.531 114.507 160.101 114.752 159.671C115.428 158.443 116.258 157.337 117.272 156.416C117.948 155.802 118.685 155.249 119.515 154.819C119.668 154.758 119.822 154.666 119.976 154.604C120.713 154.266 121.512 154.021 122.311 153.836C122.649 153.775 122.987 153.714 123.325 153.683C125.905 153.376 128.609 153.867 131.067 154.819C131.528 155.003 131.989 155.188 132.45 155.403C134.232 156.262 135.737 157.583 136.813 159.18C137.182 158.842 137.55 158.535 137.98 158.289C138.779 157.828 139.732 157.521 140.807 157.368C140.93 157.337 141.084 157.337 141.206 157.306C142.804 157.153 144.463 157.153 145.969 157.644C146.491 157.798 146.983 158.013 147.474 158.32C149.349 159.425 150.547 161.237 151.346 163.233C151.438 163.632 151.561 164.001 151.684 164.369Z" fill="#8AA6B2"/>
<path d="M78.5908 125.339L65.164 130.283C64.3651 130.56 63.5048 130.161 63.2283 129.393C62.9518 128.594 63.3512 127.735 64.1193 127.458L77.5461 122.514C78.345 122.238 79.2053 122.637 79.4818 123.405C79.789 124.173 79.3896 125.063 78.5908 125.339Z" fill="#E2A552"/>
<path d="M157.65 83.9127H141.527L141.888 76.3402C141.888 76.3402 141.984 72.9746 144.891 72.9746H153.133C153.253 72.9746 153.301 72.9746 153.301 72.9746H157.193L157.65 83.9127Z" fill="#786E7A"/>
<path d="M165.317 93.1915H158.061L157.652 83.9121H164.885L165.317 93.1915Z" fill="#F3F1EB"/>
<path d="M164.885 83.9127H157.652L157.172 72.9746H161.521C164.428 72.9746 164.524 76.3402 164.524 76.3402L164.885 83.9127Z" fill="#6A6069"/>
<path d="M215.734 79H210.936L210.966 75.458H215.734C216.925 75.458 217.929 75.1906 218.746 74.6558C219.563 74.1108 220.179 73.3187 220.593 72.2793C221.017 71.2399 221.229 69.9836 221.229 68.5103V67.4355C221.229 66.3053 221.107 65.3114 220.865 64.4536C220.633 63.5959 220.285 62.8743 219.821 62.2891C219.357 61.7038 218.786 61.2648 218.11 60.9722C217.434 60.6694 216.657 60.5181 215.779 60.5181H210.845V56.9609H215.779C217.253 56.9609 218.6 57.2132 219.821 57.7178C221.052 58.2122 222.117 58.9237 223.015 59.8521C223.913 60.7804 224.604 61.8905 225.088 63.1821C225.583 64.4637 225.83 65.8916 225.83 67.4658V68.5103C225.83 70.0744 225.583 71.5023 225.088 72.7939C224.604 74.0856 223.913 75.1956 223.015 76.124C222.127 77.0423 221.062 77.7537 219.821 78.2583C218.59 78.7528 217.227 79 215.734 79ZM213.509 56.9609V79H208.968V56.9609H213.509ZM236.396 79.3027C235.124 79.3027 233.984 79.1009 232.975 78.6973C231.965 78.2835 231.108 77.7134 230.401 76.9868C229.705 76.2603 229.17 75.4176 228.797 74.459C228.424 73.4902 228.237 72.4609 228.237 71.3711V70.7656C228.237 69.5244 228.413 68.3892 228.767 67.3599C229.12 66.3306 229.624 65.4375 230.28 64.6807C230.946 63.9238 231.754 63.3436 232.702 62.9399C233.651 62.5262 234.72 62.3193 235.911 62.3193C237.072 62.3193 238.101 62.5111 238.999 62.8945C239.897 63.278 240.649 63.8229 241.254 64.5293C241.87 65.2357 242.334 66.0833 242.647 67.0723C242.96 68.0511 243.116 69.141 243.116 70.3418V72.1582H230.099V69.252H238.833V68.9189C238.833 68.3135 238.722 67.7736 238.5 67.2993C238.288 66.8149 237.965 66.4315 237.531 66.1489C237.097 65.8664 236.542 65.7251 235.866 65.7251C235.291 65.7251 234.796 65.8512 234.382 66.1035C233.969 66.3558 233.631 66.709 233.368 67.1631C233.116 67.6172 232.924 68.152 232.793 68.7676C232.672 69.373 232.611 70.0391 232.611 70.7656V71.3711C232.611 72.027 232.702 72.6325 232.884 73.1875C233.076 73.7425 233.343 74.2218 233.686 74.6255C234.039 75.0291 234.463 75.342 234.958 75.564C235.462 75.786 236.032 75.897 236.668 75.897C237.455 75.897 238.187 75.7456 238.863 75.4429C239.549 75.13 240.139 74.6608 240.634 74.0352L242.753 76.3359C242.41 76.8304 241.941 77.3047 241.345 77.7588C240.76 78.2129 240.054 78.5863 239.226 78.8789C238.399 79.1615 237.455 79.3027 236.396 79.3027ZM233.323 60.397L236.29 55.7349H241.027L236.865 60.397H233.323ZM252.365 75.897C252.9 75.897 253.374 75.7961 253.788 75.5942C254.201 75.3823 254.524 75.0897 254.756 74.7163C254.999 74.3328 255.125 73.8838 255.135 73.3691H259.237C259.227 74.5195 258.919 75.5438 258.313 76.4419C257.708 77.3299 256.896 78.0312 255.876 78.5459C254.857 79.0505 253.717 79.3027 252.456 79.3027C251.184 79.3027 250.074 79.0908 249.125 78.667C248.187 78.2432 247.405 77.6579 246.779 76.9111C246.154 76.1543 245.684 75.2764 245.372 74.2773C245.059 73.2682 244.902 72.1885 244.902 71.0381V70.5991C244.902 69.4386 245.059 68.3589 245.372 67.3599C245.684 66.3507 246.154 65.4728 246.779 64.7261C247.405 63.9692 248.187 63.3789 249.125 62.9551C250.064 62.5312 251.164 62.3193 252.425 62.3193C253.767 62.3193 254.943 62.5767 255.952 63.0913C256.971 63.606 257.769 64.3426 258.344 65.3013C258.929 66.2498 259.227 67.375 259.237 68.6768H255.135C255.125 68.1318 255.009 67.6374 254.787 67.1934C254.575 66.7493 254.262 66.3962 253.848 66.1338C253.444 65.8613 252.945 65.7251 252.35 65.7251C251.714 65.7251 251.194 65.8613 250.791 66.1338C250.387 66.3962 250.074 66.7594 249.852 67.2236C249.63 67.6777 249.474 68.1974 249.383 68.7827C249.302 69.3579 249.262 69.9634 249.262 70.5991V71.0381C249.262 71.6738 249.302 72.2843 249.383 72.8696C249.464 73.4549 249.615 73.9746 249.837 74.4287C250.069 74.8828 250.387 75.241 250.791 75.5034C251.194 75.7658 251.719 75.897 252.365 75.897ZM266.018 55.75V79H261.659V55.75H266.018ZM265.397 70.2358H264.202C264.212 69.0955 264.363 68.0461 264.656 67.0874C264.948 66.1187 265.367 65.2811 265.912 64.5747C266.457 63.8582 267.108 63.3032 267.865 62.9097C268.632 62.5161 269.479 62.3193 270.408 62.3193C271.215 62.3193 271.947 62.4354 272.603 62.6675C273.269 62.8895 273.839 63.2528 274.313 63.7573C274.797 64.2518 275.171 64.9027 275.433 65.71C275.695 66.5173 275.827 67.4961 275.827 68.6465V79H271.437V68.6162C271.437 67.8896 271.331 67.3195 271.119 66.9058C270.917 66.4819 270.62 66.1842 270.226 66.0127C269.843 65.8311 269.368 65.7402 268.803 65.7402C268.178 65.7402 267.643 65.8563 267.199 66.0884C266.765 66.3205 266.417 66.6434 266.154 67.0571C265.892 67.4608 265.7 67.9351 265.579 68.48C265.458 69.0249 265.397 69.6102 265.397 70.2358ZM286.68 79.3027C285.408 79.3027 284.268 79.1009 283.259 78.6973C282.25 78.2835 281.392 77.7134 280.686 76.9868C279.989 76.2603 279.454 75.4176 279.081 74.459C278.708 73.4902 278.521 72.4609 278.521 71.3711V70.7656C278.521 69.5244 278.698 68.3892 279.051 67.3599C279.404 66.3306 279.909 65.4375 280.564 64.6807C281.23 63.9238 282.038 63.3436 282.986 62.9399C283.935 62.5262 285.005 62.3193 286.195 62.3193C287.356 62.3193 288.385 62.5111 289.283 62.8945C290.181 63.278 290.933 63.8229 291.539 64.5293C292.154 65.2357 292.618 66.0833 292.931 67.0723C293.244 68.0511 293.4 69.141 293.4 70.3418V72.1582H280.383V69.252H289.117V68.9189C289.117 68.3135 289.006 67.7736 288.784 67.2993C288.572 66.8149 288.249 66.4315 287.815 66.1489C287.381 65.8664 286.826 65.7251 286.15 65.7251C285.575 65.7251 285.08 65.8512 284.667 66.1035C284.253 66.3558 283.915 66.709 283.652 67.1631C283.4 67.6172 283.208 68.152 283.077 68.7676C282.956 69.373 282.896 70.0391 282.896 70.7656V71.3711C282.896 72.027 282.986 72.6325 283.168 73.1875C283.36 73.7425 283.627 74.2218 283.97 74.6255C284.323 75.0291 284.747 75.342 285.242 75.564C285.746 75.786 286.316 75.897 286.952 75.897C287.739 75.897 288.471 75.7456 289.147 75.4429C289.833 75.13 290.424 74.6608 290.918 74.0352L293.037 76.3359C292.694 76.8304 292.225 77.3047 291.629 77.7588C291.044 78.2129 290.338 78.5863 289.51 78.8789C288.683 79.1615 287.739 79.3027 286.68 79.3027ZM303.905 62.6221V65.71H294.369V62.6221H303.905ZM296.73 58.5806H301.09V74.0654C301.09 74.5397 301.15 74.903 301.271 75.1553C301.403 75.4076 301.594 75.5841 301.847 75.6851C302.099 75.7759 302.417 75.8213 302.8 75.8213C303.073 75.8213 303.315 75.8112 303.527 75.791C303.749 75.7607 303.936 75.7305 304.087 75.7002L304.102 78.9092C303.729 79.0303 303.325 79.1261 302.891 79.1968C302.457 79.2674 301.978 79.3027 301.453 79.3027C300.494 79.3027 299.657 79.1463 298.94 78.8335C298.234 78.5106 297.689 77.9959 297.306 77.2896C296.922 76.5832 296.73 75.6548 296.73 74.5044V58.5806ZM315.243 74.4741C315.243 74.1613 315.152 73.8787 314.97 73.6265C314.789 73.3742 314.451 73.1421 313.956 72.9302C313.472 72.7082 312.77 72.5063 311.852 72.3247C311.025 72.1431 310.253 71.916 309.536 71.6436C308.83 71.361 308.214 71.0229 307.689 70.6294C307.175 70.2358 306.771 69.7716 306.479 69.2368C306.186 68.6919 306.04 68.0713 306.04 67.375C306.04 66.6888 306.186 66.043 306.479 65.4375C306.781 64.832 307.21 64.2972 307.765 63.833C308.33 63.3587 309.016 62.9904 309.824 62.728C310.641 62.4556 311.559 62.3193 312.579 62.3193C314.001 62.3193 315.222 62.5464 316.242 63.0005C317.271 63.4546 318.058 64.0802 318.603 64.8774C319.158 65.6646 319.436 66.5627 319.436 67.5718H315.076C315.076 67.1479 314.985 66.7695 314.804 66.4365C314.632 66.0934 314.36 65.826 313.986 65.6343C313.623 65.4325 313.149 65.3315 312.563 65.3315C312.079 65.3315 311.66 65.4173 311.307 65.5889C310.954 65.7503 310.681 65.9723 310.49 66.2549C310.308 66.5273 310.217 66.8301 310.217 67.1631C310.217 67.4154 310.268 67.6424 310.369 67.8442C310.48 68.036 310.656 68.2126 310.898 68.374C311.141 68.5355 311.453 68.6868 311.837 68.8281C312.23 68.9593 312.715 69.0804 313.29 69.1914C314.471 69.4336 315.525 69.7515 316.454 70.145C317.382 70.5285 318.119 71.0532 318.664 71.7192C319.208 72.3752 319.481 73.238 319.481 74.3076C319.481 75.0342 319.319 75.7002 318.997 76.3057C318.674 76.9111 318.209 77.4409 317.604 77.895C316.999 78.339 316.272 78.6872 315.424 78.9395C314.587 79.1816 313.643 79.3027 312.594 79.3027C311.07 79.3027 309.778 79.0303 308.719 78.4854C307.669 77.9404 306.872 77.2492 306.327 76.4116C305.792 75.564 305.525 74.6961 305.525 73.8081H309.657C309.677 74.4035 309.829 74.8828 310.111 75.2461C310.404 75.6094 310.772 75.8717 311.216 76.0332C311.67 76.1947 312.16 76.2754 312.685 76.2754C313.25 76.2754 313.719 76.1997 314.092 76.0483C314.466 75.8869 314.748 75.675 314.94 75.4126C315.142 75.1401 315.243 74.8273 315.243 74.4741ZM212.964 102.119V115H208.604V98.6221H212.691L212.964 102.119ZM212.328 106.236H211.147C211.147 105.025 211.304 103.935 211.617 102.966C211.93 101.987 212.368 101.155 212.934 100.469C213.499 99.7725 214.17 99.2427 214.947 98.8794C215.734 98.506 216.612 98.3193 217.581 98.3193C218.347 98.3193 219.049 98.4303 219.685 98.6523C220.32 98.8743 220.865 99.2275 221.319 99.7119C221.784 100.196 222.137 100.837 222.379 101.634C222.631 102.431 222.757 103.405 222.757 104.556V115H218.368V104.541C218.368 103.814 218.267 103.249 218.065 102.845C217.863 102.442 217.565 102.159 217.172 101.998C216.788 101.826 216.314 101.74 215.749 101.74C215.164 101.74 214.654 101.856 214.22 102.088C213.796 102.32 213.443 102.643 213.161 103.057C212.888 103.461 212.681 103.935 212.54 104.48C212.399 105.025 212.328 105.61 212.328 106.236ZM235.76 111.08V98.6221H240.119V115H236.017L235.76 111.08ZM236.244 107.719L237.531 107.689C237.531 108.779 237.405 109.793 237.152 110.731C236.9 111.66 236.522 112.467 236.017 113.153C235.513 113.829 234.877 114.359 234.11 114.743C233.343 115.116 232.44 115.303 231.4 115.303C230.603 115.303 229.867 115.192 229.19 114.97C228.524 114.738 227.949 114.379 227.465 113.895C226.991 113.401 226.617 112.77 226.345 112.003C226.082 111.226 225.951 110.292 225.951 109.203V98.6221H230.311V109.233C230.311 109.717 230.366 110.126 230.477 110.459C230.598 110.792 230.765 111.064 230.977 111.276C231.188 111.488 231.436 111.64 231.718 111.73C232.011 111.821 232.334 111.867 232.687 111.867C233.585 111.867 234.292 111.685 234.806 111.322C235.331 110.958 235.699 110.464 235.911 109.838C236.133 109.203 236.244 108.496 236.244 107.719ZM247.809 102.013V115H243.434V98.6221H247.536L247.809 102.013ZM247.203 106.236H245.992C245.992 105.096 246.128 104.046 246.401 103.087C246.683 102.119 247.092 101.281 247.627 100.575C248.172 99.8582 248.843 99.3032 249.64 98.9097C250.437 98.5161 251.361 98.3193 252.41 98.3193C253.137 98.3193 253.803 98.4303 254.408 98.6523C255.014 98.8643 255.533 99.2023 255.967 99.6665C256.411 100.121 256.754 100.716 256.997 101.453C257.239 102.179 257.36 103.052 257.36 104.071V115H253V104.556C253 103.809 252.9 103.234 252.698 102.83C252.496 102.426 252.208 102.144 251.835 101.982C251.472 101.821 251.033 101.74 250.518 101.74C249.953 101.74 249.458 101.856 249.035 102.088C248.621 102.32 248.278 102.643 248.005 103.057C247.733 103.461 247.531 103.935 247.4 104.48C247.269 105.025 247.203 105.61 247.203 106.236ZM256.951 105.736L255.392 105.933C255.392 104.863 255.523 103.869 255.786 102.951C256.058 102.033 256.457 101.226 256.981 100.529C257.516 99.833 258.177 99.2931 258.964 98.9097C259.751 98.5161 260.66 98.3193 261.689 98.3193C262.476 98.3193 263.193 98.4354 263.838 98.6675C264.484 98.8895 265.034 99.2477 265.488 99.7422C265.952 100.227 266.306 100.862 266.548 101.649C266.8 102.437 266.926 103.4 266.926 104.541V115H262.552V104.541C262.552 103.784 262.451 103.208 262.249 102.815C262.057 102.411 261.775 102.134 261.401 101.982C261.038 101.821 260.604 101.74 260.1 101.74C259.575 101.74 259.116 101.846 258.722 102.058C258.329 102.26 258.001 102.542 257.738 102.906C257.476 103.269 257.279 103.693 257.148 104.177C257.017 104.652 256.951 105.171 256.951 105.736ZM277.84 115.303C276.568 115.303 275.428 115.101 274.419 114.697C273.41 114.284 272.552 113.713 271.846 112.987C271.149 112.26 270.615 111.418 270.241 110.459C269.868 109.49 269.681 108.461 269.681 107.371V106.766C269.681 105.524 269.858 104.389 270.211 103.36C270.564 102.331 271.069 101.438 271.725 100.681C272.391 99.9238 273.198 99.3436 274.146 98.9399C275.095 98.5262 276.165 98.3193 277.355 98.3193C278.516 98.3193 279.545 98.5111 280.443 98.8945C281.341 99.278 282.093 99.8229 282.699 100.529C283.314 101.236 283.778 102.083 284.091 103.072C284.404 104.051 284.561 105.141 284.561 106.342V108.158H271.543V105.252H280.277V104.919C280.277 104.313 280.166 103.774 279.944 103.299C279.732 102.815 279.409 102.431 278.975 102.149C278.541 101.866 277.986 101.725 277.31 101.725C276.735 101.725 276.24 101.851 275.827 102.104C275.413 102.356 275.075 102.709 274.812 103.163C274.56 103.617 274.368 104.152 274.237 104.768C274.116 105.373 274.056 106.039 274.056 106.766V107.371C274.056 108.027 274.146 108.632 274.328 109.188C274.52 109.743 274.787 110.222 275.13 110.625C275.484 111.029 275.907 111.342 276.402 111.564C276.906 111.786 277.477 111.897 278.112 111.897C278.899 111.897 279.631 111.746 280.307 111.443C280.993 111.13 281.584 110.661 282.078 110.035L284.197 112.336C283.854 112.83 283.385 113.305 282.79 113.759C282.204 114.213 281.498 114.586 280.67 114.879C279.843 115.161 278.899 115.303 277.84 115.303ZM274.767 96.397L277.734 91.7349H282.472L278.309 96.397H274.767ZM291.402 102.194V115H287.043V98.6221H291.145L291.402 102.194ZM296.337 98.5161L296.261 102.558C296.049 102.527 295.792 102.502 295.489 102.482C295.197 102.452 294.929 102.437 294.687 102.437C294.071 102.437 293.537 102.517 293.083 102.679C292.639 102.83 292.265 103.057 291.962 103.36C291.67 103.663 291.448 104.031 291.296 104.465C291.155 104.899 291.074 105.393 291.054 105.948L290.176 105.676C290.176 104.616 290.282 103.642 290.494 102.754C290.706 101.856 291.014 101.074 291.417 100.408C291.831 99.7422 292.336 99.2275 292.931 98.8643C293.527 98.501 294.208 98.3193 294.975 98.3193C295.217 98.3193 295.464 98.3395 295.716 98.3799C295.969 98.4102 296.175 98.4556 296.337 98.5161ZM302.997 98.6221V115H298.623V98.6221H302.997ZM298.35 94.3535C298.35 93.7178 298.572 93.193 299.016 92.7793C299.46 92.3656 300.056 92.1587 300.802 92.1587C301.539 92.1587 302.129 92.3656 302.573 92.7793C303.027 93.193 303.254 93.7178 303.254 94.3535C303.254 94.9893 303.027 95.514 302.573 95.9277C302.129 96.3415 301.539 96.5483 300.802 96.5483C300.056 96.5483 299.46 96.3415 299.016 95.9277C298.572 95.514 298.35 94.9893 298.35 94.3535ZM316.272 121.297V101.967L316.832 98.6221H320.662V121.297H316.272ZM305.918 106.978V106.66C305.918 105.408 306.055 104.273 306.327 103.254C306.61 102.225 307.023 101.347 307.568 100.62C308.113 99.8835 308.779 99.3184 309.566 98.9248C310.364 98.5212 311.282 98.3193 312.321 98.3193C313.32 98.3193 314.183 98.5212 314.91 98.9248C315.636 99.3285 316.247 99.8986 316.741 100.635C317.246 101.372 317.649 102.24 317.952 103.239C318.255 104.238 318.487 105.333 318.648 106.523V107.22C318.497 108.36 318.265 109.42 317.952 110.398C317.649 111.377 317.246 112.235 316.741 112.972C316.247 113.708 315.631 114.284 314.895 114.697C314.168 115.101 313.3 115.303 312.291 115.303C311.272 115.303 310.364 115.096 309.566 114.682C308.779 114.258 308.113 113.673 307.568 112.926C307.023 112.18 306.61 111.302 306.327 110.292C306.055 109.273 305.918 108.168 305.918 106.978ZM310.278 106.66V106.978C310.278 107.654 310.333 108.289 310.444 108.885C310.555 109.47 310.732 109.99 310.974 110.444C311.226 110.898 311.549 111.256 311.943 111.519C312.336 111.771 312.821 111.897 313.396 111.897C314.193 111.897 314.834 111.725 315.318 111.382C315.813 111.029 316.176 110.55 316.408 109.944C316.65 109.339 316.792 108.648 316.832 107.871V105.888C316.802 105.252 316.716 104.682 316.575 104.177C316.444 103.663 316.242 103.224 315.969 102.86C315.707 102.497 315.364 102.22 314.94 102.028C314.526 101.826 314.022 101.725 313.426 101.725C312.861 101.725 312.377 101.851 311.973 102.104C311.569 102.356 311.242 102.709 310.989 103.163C310.747 103.607 310.565 104.127 310.444 104.722C310.333 105.318 310.278 105.963 310.278 106.66ZM333.785 111.08V98.6221H338.145V115H334.042L333.785 111.08ZM334.27 107.719L335.556 107.689C335.556 108.779 335.43 109.793 335.178 110.731C334.925 111.66 334.547 112.467 334.042 113.153C333.538 113.829 332.902 114.359 332.135 114.743C331.368 115.116 330.465 115.303 329.426 115.303C328.629 115.303 327.892 115.192 327.216 114.97C326.55 114.738 325.975 114.379 325.49 113.895C325.016 113.401 324.643 112.77 324.37 112.003C324.108 111.226 323.977 110.292 323.977 109.203V98.6221H328.336V109.233C328.336 109.717 328.391 110.126 328.502 110.459C328.624 110.792 328.79 111.064 329.002 111.276C329.214 111.488 329.461 111.64 329.744 111.73C330.036 111.821 330.359 111.867 330.712 111.867C331.611 111.867 332.317 111.685 332.832 111.322C333.356 110.958 333.725 110.464 333.937 109.838C334.159 109.203 334.27 108.496 334.27 107.719ZM349.013 115.303C347.741 115.303 346.601 115.101 345.592 114.697C344.583 114.284 343.725 113.713 343.019 112.987C342.322 112.26 341.787 111.418 341.414 110.459C341.041 109.49 340.854 108.461 340.854 107.371V106.766C340.854 105.524 341.031 104.389 341.384 103.36C341.737 102.331 342.242 101.438 342.897 100.681C343.563 99.9238 344.371 99.3436 345.319 98.9399C346.268 98.5262 347.338 98.3193 348.528 98.3193C349.689 98.3193 350.718 98.5111 351.616 98.8945C352.514 99.278 353.266 99.8229 353.872 100.529C354.487 101.236 354.951 102.083 355.264 103.072C355.577 104.051 355.733 105.141 355.733 106.342V108.158H342.716V105.252H351.45V104.919C351.45 104.313 351.339 103.774 351.117 103.299C350.905 102.815 350.582 102.431 350.148 102.149C349.714 101.866 349.159 101.725 348.483 101.725C347.908 101.725 347.413 101.851 347 102.104C346.586 102.356 346.248 102.709 345.985 103.163C345.733 103.617 345.541 104.152 345.41 104.768C345.289 105.373 345.229 106.039 345.229 106.766V107.371C345.229 108.027 345.319 108.632 345.501 109.188C345.693 109.743 345.96 110.222 346.303 110.625C346.656 111.029 347.08 111.342 347.575 111.564C348.079 111.786 348.649 111.897 349.285 111.897C350.072 111.897 350.804 111.746 351.48 111.443C352.166 111.13 352.757 110.661 353.251 110.035L355.37 112.336C355.027 112.83 354.558 113.305 353.962 113.759C353.377 114.213 352.671 114.586 351.843 114.879C351.016 115.161 350.072 115.303 349.013 115.303ZM367.071 110.474C367.071 110.161 366.98 109.879 366.798 109.626C366.617 109.374 366.279 109.142 365.784 108.93C365.3 108.708 364.598 108.506 363.68 108.325C362.853 108.143 362.081 107.916 361.364 107.644C360.658 107.361 360.042 107.023 359.518 106.629C359.003 106.236 358.599 105.772 358.307 105.237C358.014 104.692 357.868 104.071 357.868 103.375C357.868 102.689 358.014 102.043 358.307 101.438C358.609 100.832 359.038 100.297 359.593 99.833C360.158 99.3587 360.845 98.9904 361.652 98.728C362.469 98.4556 363.388 98.3193 364.407 98.3193C365.83 98.3193 367.051 98.5464 368.07 99.0005C369.099 99.4546 369.886 100.08 370.431 100.877C370.986 101.665 371.264 102.563 371.264 103.572H366.904C366.904 103.148 366.813 102.77 366.632 102.437C366.46 102.093 366.188 101.826 365.814 101.634C365.451 101.432 364.977 101.332 364.392 101.332C363.907 101.332 363.488 101.417 363.135 101.589C362.782 101.75 362.51 101.972 362.318 102.255C362.136 102.527 362.045 102.83 362.045 103.163C362.045 103.415 362.096 103.642 362.197 103.844C362.308 104.036 362.484 104.213 362.727 104.374C362.969 104.535 363.282 104.687 363.665 104.828C364.059 104.959 364.543 105.08 365.118 105.191C366.299 105.434 367.353 105.751 368.282 106.145C369.21 106.528 369.947 107.053 370.492 107.719C371.037 108.375 371.309 109.238 371.309 110.308C371.309 111.034 371.148 111.7 370.825 112.306C370.502 112.911 370.038 113.441 369.432 113.895C368.827 114.339 368.1 114.687 367.252 114.939C366.415 115.182 365.471 115.303 364.422 115.303C362.898 115.303 361.606 115.03 360.547 114.485C359.497 113.94 358.7 113.249 358.155 112.412C357.62 111.564 357.353 110.696 357.353 109.808H361.485C361.506 110.403 361.657 110.883 361.939 111.246C362.232 111.609 362.6 111.872 363.044 112.033C363.499 112.195 363.988 112.275 364.513 112.275C365.078 112.275 365.547 112.2 365.92 112.048C366.294 111.887 366.576 111.675 366.768 111.413C366.97 111.14 367.071 110.827 367.071 110.474Z" fill="#222222"/>
<rect x="451" y="50" width="50" height="50" rx="16" fill="#E4E4E4"/>
<path d="M468.043 78.4977C466.362 78.4977 465 77.1354 465 75.4549V75.4549C465 73.7744 466.362 72.4121 468.043 72.4121L484.957 72.4121C486.638 72.4121 488 73.7744 488 75.4549V75.4549C488 77.1354 486.638 78.4977 484.957 78.4977L468.043 78.4977Z" fill="#212121"/>
<mask id="mask1_277_18703" style="mask-type:alpha" maskUnits="userSpaceOnUse" x="207" y="153" width="294" height="25">
<rect x="207" y="153.386" width="294" height="24.5" rx="12.25" fill="#D9D9D9"/>
</mask>
<g mask="url(#mask1_277_18703)">
<rect x="207" y="153.386" width="26.95" height="24.5" fill="#A8EC6C"/>
<rect x="238.955" y="153.386" width="24.5" height="24.5" fill="#A8EC6C"/>
<rect x="268.355" y="153.386" width="24.5" height="24.5" fill="#A8EC6C"/>
<rect x="297.756" y="153.386" width="24.5" height="24.5" fill="#FAC04F"/>
<rect x="327.154" y="153.386" width="24.5" height="24.5" fill="#FAC04F"/>
<rect x="356.555" y="153.386" width="24.5" height="24.5" fill="#FAC04F"/>
<rect x="415.355" y="153.386" width="24.5" height="24.5" fill="#E96B73"/>
<rect x="385.955" y="153.386" width="24.5" height="24.5" fill="#FAC04F"/>
<rect x="444.754" y="153.386" width="24.5" height="24.5" fill="#E96B73"/>
<rect x="474.051" y="153.386" width="26.95" height="24.5" fill="#E96B73"/>
</g>
<mask id="path-64-outside-1_277_18703" maskUnits="userSpaceOnUse" x="297.326" y="160.426" width="25" height="35" fill="black">
<rect fill="white" x="297.326" y="160.426" width="25" height="35"/>
<path fill-rule="evenodd" clip-rule="evenodd" d="M317.252 178.734L309.901 166.426L302.55 178.734C299.142 184.441 303.254 191.686 309.901 191.686C316.548 191.686 320.66 184.441 317.252 178.734Z"/>
</mask>
<path fill-rule="evenodd" clip-rule="evenodd" d="M317.252 178.734L309.901 166.426L302.55 178.734C299.142 184.441 303.254 191.686 309.901 191.686C316.548 191.686 320.66 184.441 317.252 178.734Z" fill="#212121"/>
<path d="M309.901 166.426L312.477 164.888L309.901 160.575L307.326 164.888L309.901 166.426ZM317.252 178.734L319.828 177.196L319.828 177.196L317.252 178.734ZM302.55 178.734L305.126 180.272L305.126 180.272L302.55 178.734ZM307.326 167.964L314.676 180.272L319.828 177.196L312.477 164.888L307.326 167.964ZM305.126 180.272L312.477 167.964L307.326 164.888L299.975 177.196L305.126 180.272ZM309.901 188.686C305.583 188.686 302.912 183.979 305.126 180.272L299.975 177.196C295.372 184.902 300.925 194.686 309.901 194.686V188.686ZM314.676 180.272C316.89 183.979 314.219 188.686 309.901 188.686V194.686C318.878 194.686 324.43 184.902 319.828 177.196L314.676 180.272Z" fill="white" mask="url(#path-64-outside-1_277_18703)"/>
<circle cx="309.9" cy="183.575" r="3.675" fill="white"/>
</svg>
