<svg width="282" height="175" viewBox="0 0 282 175" fill="none" xmlns="http://www.w3.org/2000/svg">
<path fill-rule="evenodd" clip-rule="evenodd" d="M40.2513 20.439V60.5169V60.5175V114.034H13.2109V60.5175V60.5169V20.439C13.2109 12.9641 19.2288 7 26.7713 7C30.5425 7 33.9125 8.51089 36.3197 10.8965C38.7268 13.3617 40.2513 16.7015 40.2513 20.439ZM40.2513 154.114V114.035H13.2109V154.114C13.2109 161.509 19.2288 167.553 26.691 167.553C34.2334 167.553 40.2513 161.509 40.2513 154.114Z" fill="#E96B73"/>
<path fill-rule="evenodd" clip-rule="evenodd" d="M40.2513 114.035H13.2109V154.114C13.2109 161.509 19.2288 167.553 26.691 167.553C34.2334 167.553 40.2513 161.509 40.2513 154.114V114.035ZM6.21094 20.439C6.21094 9.03889 15.4223 0 26.7712 0C32.4479 0 37.5721 2.2825 41.2471 5.92458L41.2878 5.96497L41.3279 6.00603C44.9125 9.67698 47.2513 14.7363 47.2513 20.439V154.114C47.2513 165.407 38.0671 174.553 26.691 174.553C15.368 174.553 6.21094 165.38 6.21094 154.114V20.439ZM13.2109 114.035V20.439C13.2109 12.9641 19.2288 7 26.7712 7C30.5425 7 33.9125 8.51089 36.3196 10.8965C38.7268 13.3617 40.2513 16.7015 40.2513 20.439V114.035H13.2109Z" fill="#212121"/>
<path d="M26.6603 167C19.2324 167 13.2109 160.978 13.2109 153.551L13.2109 20.0172C13.2109 12.5893 19.2324 6.56779 26.6603 6.56779V6.56779C34.0882 6.56779 40.1098 12.5893 40.1098 20.0172L40.1098 153.551C40.1098 160.978 34.0883 167 26.6603 167V167Z" fill="#212121"/>
<path d="M40.2513 60.5166H13.2109V114.034H40.2513V60.5166Z" fill="#FAC04F"/>
<path d="M40.2513 20.439V60.5175H13.2109V20.439C13.2109 12.9641 19.2288 7 26.7712 7C30.5425 7 33.9125 8.51089 36.3196 10.8965C38.7268 13.3617 40.2513 16.7015 40.2513 20.439Z" fill="#A8EB6C"/>
<path d="M40.2513 114.035V154.114C40.2513 161.509 34.2334 167.553 26.691 167.553C19.2288 167.553 13.2109 161.509 13.2109 154.114V114.035H40.2513Z" fill="#E96B73"/>
<path d="M0 37C0 34.2386 2.23858 32 5 32H23C25.7614 32 28 34.2386 28 37V37C28 39.7614 25.7614 42 23 42H5C2.23858 42 0 39.7614 0 37V37Z" fill="#212121"/>
<path fill-rule="evenodd" clip-rule="evenodd" d="M0 44.4845C1.4301 45.4417 3.14985 46 5 46H23C27.9706 46 32 41.9706 32 37C32 32.0294 27.9706 28 23 28H5C3.14985 28 1.4301 28.5583 0 29.5155V37V44.4845ZM0 37C0 39.7614 2.23858 42 5 42H23C25.7614 42 28 39.7614 28 37C28 34.2386 25.7614 32 23 32H5C2.23858 32 0 34.2386 0 37Z" fill="white"/>
<path opacity="0.2" d="M40.3945 125.5C35.6732 169.9 13.8945 155 12.8945 146L11.8945 160.5L18.288 167L29.5994 170L41.8945 160.5L40.3945 125.5Z" fill="#212121"/>
<path d="M195.751 166.553C238.553 166.553 273.251 131.864 273.251 89.0728C273.251 46.2818 238.553 11.5928 195.751 11.5928C152.949 11.5928 118.251 46.2818 118.251 89.0728C118.251 131.864 152.949 166.553 195.751 166.553Z" fill="#205C7E"/>
<path fill-rule="evenodd" clip-rule="evenodd" d="M281.251 89.0728C281.251 136.284 242.969 174.553 195.751 174.553C148.533 174.553 110.251 136.284 110.251 89.0728C110.251 41.8615 148.533 3.59277 195.751 3.59277C242.969 3.59277 281.251 41.8615 281.251 89.0728ZM273.251 89.0728C273.251 131.864 238.553 166.553 195.751 166.553C152.949 166.553 118.251 131.864 118.251 89.0728C118.251 46.2818 152.949 11.5928 195.751 11.5928C238.553 11.5928 273.251 46.2818 273.251 89.0728Z" fill="#212121"/>
<path d="M253.09 77.7064C257.334 77.6306 262.071 77.1381 266.922 75.8499C266.922 75.8499 261.351 74.5996 253.09 74.4481C253.014 70.2047 252.521 65.4687 251.233 60.6191C251.233 60.6191 249.982 66.1886 249.831 74.4481C245.624 74.5239 240.925 74.9027 235.998 75.8499C235.998 75.8499 241.683 77.4412 249.831 77.6685C249.906 81.874 250.285 86.5721 251.233 91.4975C251.271 91.5354 252.862 85.8522 253.09 77.7064Z" fill="#FEFEFF"/>
<path d="M151.866 40.6151C156.111 40.5393 160.848 40.0468 165.699 38.7586C165.699 38.7586 160.128 37.5083 151.866 37.3568C151.79 33.1134 151.298 28.3774 150.009 23.5278C150.009 23.5278 148.759 29.0973 148.607 37.3568C144.4 37.4326 139.701 37.8114 134.774 38.7586C134.774 38.7586 140.459 40.3499 148.607 40.5772C148.683 44.7827 149.062 49.4808 150.009 54.4062C150.009 54.4441 151.639 48.7609 151.866 40.6151Z" fill="#FEFEFF"/>
<path d="M206.059 45.7295C213.828 46.9419 221.104 49.594 227.963 53.4207C223.795 57.361 219.512 61.0739 214.017 63.2714C210 64.8627 209.924 65.6583 210.531 69.9396C210.531 70.0533 210.569 70.1291 210.569 70.2427C210.758 72.3644 210.19 73.0464 208.029 73.3116C206.476 73.501 204.922 73.6905 203.406 73.9178C202.269 74.0694 201.284 74.524 200.526 75.3954C199.124 76.9488 198.025 78.6916 197.418 80.6997C196.66 83.2003 197.039 85.5114 199.199 87.2163C199.995 87.8604 199.919 88.353 199.465 89.0728C198.176 91.2324 196.622 93.1268 194.652 94.6423C193.477 95.5516 192.454 96.5746 191.809 97.9006C189.687 102.144 189.195 106.615 189.649 111.275C189.801 112.753 190.066 114.192 190.862 115.443C192.567 118.133 194.652 120.519 197.191 122.49C199.692 124.384 202.307 124.877 205.263 123.588C207.044 122.831 208.939 122.187 210.796 121.542C211.592 121.277 212.501 121.088 213.221 121.732C215.116 123.399 216.67 125.331 216.822 127.983C216.897 129.461 217.314 130.749 218.262 131.886C220.46 134.462 220.611 137.19 219.133 140.145C218.072 142.305 217.959 144.578 218.338 146.927C218.906 150.261 219.891 153.482 220.915 156.702C218.034 157.801 214.965 157.649 212.009 157.573C208.863 157.536 205.718 157.308 202.572 156.816C191.355 154.997 181.312 150.602 172.406 143.593C172.027 143.29 171.686 142.873 171.117 143.025L171.155 142.987C171.117 142.873 171.042 142.722 171.004 142.608C170.549 141.358 170.814 140.297 171.61 139.236C174.301 135.637 173.922 133.932 170.018 131.696C169.715 131.507 169.412 131.355 169.071 131.204C166.57 130.105 164.106 129.006 161.605 127.983C160.014 127.339 158.877 126.316 158.308 124.725C157.816 123.361 156.944 122.3 155.807 121.429C154.973 120.785 154.215 120.065 153.419 119.383C153.306 119.269 153.192 119.193 153.078 119.08V119.118C153.116 118.322 152.775 117.64 152.472 116.958C149.478 109.608 147.924 101.955 147.924 94.0361C147.924 91.1188 147.849 88.2014 148.265 85.2841C149.668 84.0717 151.373 84.3748 153.003 84.2611C155.201 84.1096 155.731 83.5791 155.959 81.4574C155.996 81.0028 156.034 80.5481 156.034 80.0935C156.148 78.1991 156.982 77.7445 158.725 78.6159C159.066 78.8053 159.407 79.0326 159.748 79.2221C160.772 79.8662 161.757 80.4345 162.932 79.4873C164.258 78.4643 164.637 77.3656 164.106 75.7743C163.69 74.524 163.197 73.3116 162.78 72.0992C161.833 69.4471 162.287 68.462 164.864 67.439C165.092 67.3633 165.319 67.2496 165.584 67.1738C167.138 66.5297 167.214 66.2645 166.191 64.9006C166.039 64.7111 165.888 64.5217 165.736 64.2944C164.713 62.8925 164.864 61.9454 166.305 61.0361C167.707 60.1646 169.298 59.5963 170.852 59.028C172.633 58.3839 173.05 58.7628 172.747 60.6572C172.52 62.1348 172.027 63.6124 172.217 65.1279C172.482 67.0981 173.77 67.9316 175.665 67.2875C176.272 67.0981 176.916 66.7571 177.333 66.3024C179.569 63.9155 182.487 63.1199 185.518 62.4758C187.944 61.9832 190.369 61.6423 192.605 60.5056C198.972 57.1715 203.065 51.943 206.059 45.7295Z" fill="#74CBED"/>
<path d="M220.952 156.702C219.929 153.482 218.905 150.299 218.375 146.927C217.996 144.578 218.11 142.305 219.171 140.145C220.611 137.19 220.497 134.424 218.299 131.886C217.352 130.787 216.935 129.461 216.859 127.984C216.707 125.331 215.154 123.437 213.259 121.732C212.539 121.088 211.629 121.277 210.833 121.543C208.976 122.187 207.119 122.793 205.3 123.589C202.344 124.877 199.729 124.384 197.228 122.49C194.651 120.558 192.605 118.171 190.899 115.443C190.103 114.193 189.838 112.753 189.687 111.275C189.232 106.615 189.724 102.144 191.847 97.9009C192.529 96.5369 193.552 95.5518 194.689 94.6425C196.66 93.0891 198.213 91.1948 199.502 89.0731C199.957 88.3153 200.033 87.8228 199.237 87.2166C197.077 85.5116 196.698 83.2005 197.456 80.6999C198.062 78.6919 199.123 76.9491 200.563 75.3957C201.359 74.5243 202.344 74.0696 203.443 73.9181C204.997 73.6907 206.551 73.5013 208.067 73.3118C210.227 73.0466 210.795 72.3647 210.606 70.243C210.606 70.1293 210.606 70.0535 210.568 69.9399C209.962 65.6586 210.037 64.9008 214.055 63.2717C219.55 61.0742 223.832 57.3612 228.001 53.4209C235.77 57.778 242.212 63.6505 247.632 70.6976C247.783 70.8871 247.973 71.0765 248.124 71.2659C249.678 73.7286 251.27 76.2292 252.824 78.6919C256.158 85.0949 258.546 91.801 259.721 98.9238C259.91 100.098 259.986 101.311 260.138 102.485C258.773 103.736 257.447 105.099 256.5 106.691C255.552 108.282 254.529 109.532 252.634 109.987C251.649 110.214 251.346 110.896 251.649 111.957C253.24 117.072 252.482 121.656 248.465 125.521C246.078 127.832 245.13 130.863 245.055 134.159C245.017 136.773 244.41 139.236 243.311 141.585C241.416 145.601 238.801 149.201 236.262 152.8C234.822 154.315 233.382 155.831 231.98 157.384C229.289 159.013 226.447 160.34 223.453 161.249C222.316 159.923 221.596 158.331 220.952 156.702Z" fill="#A8EB6C"/>
<path d="M153.381 119.269C154.177 119.951 154.935 120.671 155.769 121.315C156.906 122.186 157.778 123.247 158.27 124.611C158.839 126.24 159.976 127.225 161.567 127.869C164.068 128.892 166.532 129.991 169.033 131.09C169.336 131.241 169.677 131.393 169.98 131.582C173.884 133.818 174.263 135.523 171.572 139.122C170.776 140.183 170.511 141.244 170.966 142.494C171.004 142.608 171.079 142.759 171.117 142.873L171.079 142.911C171.307 144.085 171.496 145.298 171.724 146.472C172.254 149.276 171.383 151.095 168.806 152.459C168.237 152.762 167.631 153.027 167.024 153.292C164.485 154.391 163.121 156.361 162.969 159.127C158.157 157.081 153.76 154.315 149.554 151.246C147.432 149.693 145.423 148.101 143.566 146.245C143.111 144.692 142.353 143.29 141.254 142.077C139.208 139.804 137.502 137.417 137.048 134.272C136.707 131.961 136.214 129.65 135.759 127.339C134.736 122.262 133.523 117.261 130.984 112.677C130.378 109.797 130.833 106.918 131.022 104.114C131.477 97.8626 132.917 91.7627 135.267 85.928C141.709 70.091 152.623 58.4217 168.048 51.0336C178.053 46.2219 188.664 44.4033 199.692 44.9716C201.776 45.0852 203.899 45.3126 205.945 45.7672C202.951 51.9808 198.858 57.2092 192.529 60.4297C190.293 61.5663 187.83 61.9073 185.443 62.3998C182.411 63.006 179.493 63.8396 177.257 66.2265C176.84 66.6811 176.196 67.0221 175.589 67.2116C173.694 67.8556 172.406 67.0221 172.141 65.052C171.951 63.5365 172.444 62.0589 172.671 60.5812C172.936 58.6869 172.557 58.308 170.776 58.9521C169.223 59.5204 167.631 60.0887 166.229 60.9601C164.751 61.8694 164.637 62.8166 165.66 64.2184C165.812 64.4079 165.963 64.5973 166.115 64.8246C167.138 66.1886 167.062 66.4159 165.509 67.0979C165.281 67.2116 165.054 67.2873 164.789 67.3631C162.212 68.3861 161.757 69.409 162.704 72.0233C163.159 73.2736 163.614 74.486 164.031 75.6984C164.561 77.2896 164.144 78.3884 162.856 79.4113C161.681 80.3206 160.696 79.7902 159.672 79.1461C159.331 78.9188 158.99 78.6915 158.649 78.5399C156.906 77.6685 156.072 78.1232 155.958 80.0175C155.921 80.4722 155.921 80.9268 155.883 81.3815C155.655 83.5411 155.125 84.0336 152.927 84.1852C151.297 84.2988 149.554 83.9957 148.19 85.2081C147.09 85.8143 146.598 86.8752 146.257 87.9739C144.892 92.2552 142.202 95.6272 138.412 97.7489C135.721 99.2644 134.736 101.197 134.736 104.076C134.736 107.221 135.077 110.176 137.086 112.752C137.844 113.7 138.639 114.116 139.814 113.737C142.126 112.98 144.248 113.472 146.257 114.798C148.455 116.276 150.767 117.64 153.002 119.08C153.192 119.08 153.306 119.155 153.381 119.269Z" fill="#A8EB6C"/>
<path d="M230.2 19.6631C233.383 16.4426 237.173 14.5861 241.759 14.6619C253.279 14.8135 260.404 27.6194 254.492 37.546C254.378 37.7733 254.265 38.0006 254.113 38.1901C251.271 41.9409 247.633 44.1763 242.933 44.7825C235.089 45.7676 227.282 39.4025 226.562 31.5597C226.107 27.0132 227.471 23.1866 230.2 19.6631Z" fill="#FAC04F"/>
<path d="M236.263 152.838C238.84 149.238 241.417 145.639 243.312 141.623C244.411 139.274 245.017 136.811 245.055 134.197C245.131 130.901 246.078 127.87 248.466 125.559C252.483 121.656 253.241 117.11 251.649 111.995C251.308 110.934 251.649 110.252 252.634 110.025C254.529 109.57 255.552 108.32 256.5 106.728C257.447 105.137 258.774 103.773 260.138 102.523C261.578 115.746 259.191 128.249 253.013 140.032C252.824 140.373 252.483 140.676 252.672 141.13V141.055C252.293 141.13 252.255 141.396 252.331 141.737C250.55 144.199 248.2 146.056 245.964 147.988C245.206 148.632 244.6 149.428 243.615 149.807C243.463 149.92 243.349 150.034 243.198 150.11H243.236C242.895 150.148 242.705 150.337 242.592 150.64C242.554 150.716 242.516 150.716 242.44 150.716C241.796 150.678 241.303 150.981 240.735 151.171C239.257 151.777 237.892 152.686 236.263 152.838Z" fill="#74CBED"/>
<path d="M131.06 112.677C133.599 117.262 134.812 122.263 135.835 127.34C136.29 129.651 136.782 131.962 137.123 134.273C137.578 137.418 139.284 139.843 141.33 142.078C142.429 143.29 143.187 144.692 143.642 146.246C142.012 144.882 140.345 143.48 139.17 141.661C139.17 141.207 139.056 140.79 138.526 140.714L138.488 140.752C138.829 140.184 138.336 139.805 138.147 139.388C134.167 131.848 131.932 123.74 131.098 115.254C130.984 114.42 131.06 113.549 131.06 112.677Z" fill="#63BEE1"/>
<path d="M269.007 91.6111C268.969 91.8763 267.112 93.6191 266.885 93.5812C266.62 93.5434 264.801 91.649 264.914 91.4974C265.521 90.7397 266.127 89.944 267.037 89.4894C267.188 89.4136 269.007 91.4217 269.007 91.6111Z" fill="#FEFEFF"/>
<path d="M131.553 79.7147C131.553 79.9799 129.62 81.8364 129.469 81.7227C128.673 81.2302 128.029 80.5103 127.46 79.7526C127.346 79.601 129.203 77.6309 129.469 77.6309C129.696 77.6309 131.553 79.4873 131.553 79.7147Z" fill="#FEFEFF"/>
<path d="M192.075 21.5195C192.302 21.5195 194.197 23.3002 194.197 23.5655C194.197 23.7928 192.226 25.6493 192.075 25.5735C191.279 25.081 190.635 24.3611 190.066 23.6033C189.915 23.4139 191.81 21.5195 192.075 21.5195Z" fill="#FEFEFF"/>
<path d="M206.097 35.8784C205.869 35.9163 203.974 34.1356 203.937 33.8704C203.937 33.6431 205.793 31.7487 206.021 31.8245C206.893 32.2412 207.461 33.0369 208.067 33.7567C208.219 33.9462 206.4 35.8406 206.097 35.8784Z" fill="#FEFEFF"/>
<path d="M163.046 159.203C163.197 156.437 164.524 154.467 167.101 153.368C167.707 153.103 168.276 152.838 168.882 152.534C171.421 151.208 172.293 149.39 171.8 146.548C171.573 145.374 171.383 144.161 171.156 142.987C171.762 142.835 172.065 143.252 172.444 143.555C181.35 150.564 191.431 154.959 202.611 156.778C205.756 157.27 208.902 157.498 212.047 157.536C215.003 157.573 218.073 157.725 220.953 156.664C221.597 158.293 222.317 159.885 223.416 161.249C219.551 162.991 215.458 163.976 211.365 164.886C204.885 166.288 198.328 166.704 191.734 166.363C181.691 165.871 172.065 163.635 163.046 159.203Z" fill="#63BEE1"/>
<path d="M236.263 152.838C237.892 152.686 239.257 151.739 240.735 151.171C241.303 150.943 241.834 150.64 242.44 150.716C239.219 153.33 235.732 155.603 231.942 157.384C233.382 155.907 234.823 154.391 236.263 152.838Z" fill="#63BEE1"/>
<path d="M138.488 140.789C139.057 140.865 139.133 141.282 139.133 141.736C138.867 141.433 138.375 141.32 138.488 140.789Z" fill="#205C7E"/>
<path d="M242.592 150.678C242.705 150.375 242.895 150.185 243.236 150.147C243.047 150.299 242.819 150.489 242.592 150.678Z" fill="#63BEE1"/>
<path d="M252.332 141.737C252.256 141.434 252.294 141.168 252.673 141.055C252.938 141.472 252.521 141.547 252.332 141.737Z" fill="#205C7E"/>
<path d="M243.236 150.148C243.388 150.034 243.502 149.921 243.653 149.845C243.502 149.921 243.35 150.034 243.236 150.148Z" fill="#63BEE1"/>
<path d="M153.079 119.004C150.843 117.564 148.569 116.2 146.333 114.722C144.324 113.396 142.24 112.904 139.891 113.662C138.716 114.041 137.882 113.624 137.162 112.677C135.115 110.1 134.774 107.145 134.812 104C134.812 101.121 135.798 99.1886 138.488 97.6731C142.316 95.5514 145.007 92.1794 146.333 87.8981C146.674 86.7994 147.205 85.7385 148.266 85.1323C147.849 88.0497 147.963 90.967 147.925 93.8843C147.925 101.841 149.479 109.456 152.472 116.806C152.776 117.526 153.079 118.208 153.079 119.004Z" fill="#63BEE1"/>
<path d="M153.382 119.269C153.268 119.155 153.155 119.08 153.041 118.966C153.193 119.08 153.306 119.155 153.382 119.269Z" fill="#63BEE1"/>
<path d="M171.155 142.949C171.118 142.835 171.042 142.684 171.004 142.57C171.042 142.684 171.118 142.797 171.155 142.949Z" fill="#63BEE1"/>
</svg>
