<svg width="282" height="175" viewBox="0 0 282 175" fill="none" xmlns="http://www.w3.org/2000/svg">
<path fill-rule="evenodd" clip-rule="evenodd" d="M40.2513 20.439V60.5169V60.5175V114.034H13.2109V60.5175V60.5169V20.439C13.2109 12.9641 19.2288 7 26.7713 7C30.5425 7 33.9125 8.51089 36.3197 10.8965C38.7268 13.3617 40.2513 16.7015 40.2513 20.439ZM40.2513 154.114V114.035H13.2109V154.114C13.2109 161.509 19.2288 167.553 26.691 167.553C34.2334 167.553 40.2513 161.509 40.2513 154.114Z" fill="#E96B73"/>
<path fill-rule="evenodd" clip-rule="evenodd" d="M40.2513 114.035H13.2109V154.114C13.2109 161.509 19.2288 167.553 26.691 167.553C34.2334 167.553 40.2513 161.509 40.2513 154.114V114.035ZM6.21094 20.439C6.21094 9.03889 15.4223 0 26.7712 0C32.4479 0 37.5721 2.2825 41.2471 5.92458L41.2878 5.96497L41.3279 6.00603C44.9125 9.67698 47.2513 14.7363 47.2513 20.439V154.114C47.2513 165.407 38.0671 174.553 26.691 174.553C15.368 174.553 6.21094 165.38 6.21094 154.114V20.439ZM13.2109 114.035V20.439C13.2109 12.9641 19.2288 7 26.7712 7C30.5425 7 33.9125 8.51089 36.3196 10.8965C38.7268 13.3617 40.2513 16.7015 40.2513 20.439V114.035H13.2109Z" fill="#212121"/>
<path d="M26.6603 167C19.2324 167 13.2109 160.978 13.2109 153.551L13.2109 20.0172C13.2109 12.5893 19.2324 6.56779 26.6603 6.56779V6.56779C34.0882 6.56779 40.1098 12.5893 40.1098 20.0172L40.1098 153.551C40.1098 160.978 34.0883 167 26.6603 167V167Z" fill="#212121"/>
<path d="M40.2513 60.5166H13.2109V114.034H40.2513V60.5166Z" fill="#FAC04F"/>
<path d="M40.2513 20.439V60.5175H13.2109V20.439C13.2109 12.9641 19.2288 7 26.7712 7C30.5425 7 33.9125 8.51089 36.3196 10.8965C38.7268 13.3617 40.2513 16.7015 40.2513 20.439Z" fill="#A8EB6C"/>
<path d="M40.2513 114.035V154.114C40.2513 161.509 34.2334 167.553 26.691 167.553C19.2288 167.553 13.2109 161.509 13.2109 154.114V114.035H40.2513Z" fill="#E96B73"/>
<path d="M0 88C0 85.2386 2.23858 83 5 83H23C25.7614 83 28 85.2386 28 88V88C28 90.7614 25.7614 93 23 93H5C2.23858 93 0 90.7614 0 88V88Z" fill="#212121"/>
<path fill-rule="evenodd" clip-rule="evenodd" d="M0 95.4845C1.4301 96.4417 3.14985 97 5 97H23C27.9706 97 32 92.9706 32 88C32 83.0294 27.9706 79 23 79H5C3.14985 79 1.4301 79.5583 0 80.5155V88V95.4845ZM0 88C0 90.7614 2.23858 93 5 93H23C25.7614 93 28 90.7614 28 88C28 85.2386 25.7614 83 23 83H5C2.23858 83 0 85.2386 0 88Z" fill="white"/>
<path opacity="0.2" d="M40.3945 125.5C35.6732 169.9 13.8945 155 12.8945 146L11.8945 160.5L18.288 167L29.5994 170L41.8945 160.5L40.3945 125.5Z" fill="#212121"/>
<path d="M195.751 166.553C238.553 166.553 273.251 131.864 273.251 89.0728C273.251 46.2818 238.553 11.5928 195.751 11.5928C152.949 11.5928 118.251 46.2818 118.251 89.0728C118.251 131.864 152.949 166.553 195.751 166.553Z" fill="#205C7E"/>
<path fill-rule="evenodd" clip-rule="evenodd" d="M281.251 89.0728C281.251 136.284 242.969 174.553 195.751 174.553C148.533 174.553 110.251 136.284 110.251 89.0728C110.251 41.8615 148.533 3.59277 195.751 3.59277C242.969 3.59277 281.251 41.8615 281.251 89.0728ZM273.251 89.0728C273.251 131.864 238.553 166.553 195.751 166.553C152.949 166.553 118.251 131.864 118.251 89.0728C118.251 46.2818 152.949 11.5928 195.751 11.5928C238.553 11.5928 273.251 46.2818 273.251 89.0728Z" fill="#212121"/>
<path d="M253.09 77.7064C257.334 77.6306 262.071 77.1381 266.922 75.8499C266.922 75.8499 261.351 74.5996 253.09 74.4481C253.014 70.2047 252.521 65.4687 251.233 60.6191C251.233 60.6191 249.982 66.1886 249.831 74.4481C245.624 74.5239 240.925 74.9027 235.998 75.8499C235.998 75.8499 241.683 77.4412 249.831 77.6685C249.906 81.874 250.285 86.5721 251.233 91.4975C251.271 91.5354 252.862 85.8522 253.09 77.7064Z" fill="#FEFEFF"/>
<path d="M151.866 40.6151C156.111 40.5393 160.848 40.0468 165.699 38.7586C165.699 38.7586 160.128 37.5083 151.866 37.3568C151.79 33.1134 151.298 28.3774 150.009 23.5278C150.009 23.5278 148.759 29.0973 148.607 37.3568C144.4 37.4326 139.701 37.8114 134.774 38.7586C134.774 38.7586 140.459 40.3499 148.607 40.5772C148.683 44.7827 149.062 49.4808 150.009 54.4062C150.009 54.4441 151.639 48.7609 151.866 40.6151Z" fill="#FEFEFF"/>
<path d="M205.748 45.5928C213.699 46.8101 221.145 49.4729 228.164 53.3149C223.898 57.2711 243.292 67.9984 237.669 70.2047C233.558 71.8024 229.373 67.7637 229.994 72.0622C250.174 78.2402 237.344 79.9439 220.783 75.0743C220.977 77.2046 223.506 76.8161 221.295 77.0824C219.705 77.2726 222.335 78.3602 220.783 78.5884C219.62 78.7406 222.071 79.2195 221.295 80.0945C219.86 81.6541 221.916 79.5844 221.295 81.6005C220.52 84.1112 225.488 81.3406 213.893 87.1227C236.115 84.1555 226.366 99.9543 225.9 100.677C224.582 102.845 215.909 100.159 213.893 101.681C212.69 102.594 215.303 107.88 214.643 109.211C212.472 113.472 221.853 110.055 222.318 114.733C222.474 116.217 225.086 111.337 225.9 112.593C227.645 115.294 221.767 112.253 224.365 114.231C226.925 116.133 224.922 117.533 227.947 116.239C229.77 115.479 232.187 120.4 234.087 119.754C234.901 119.487 233.35 122.621 234.087 123.268C236.026 124.941 248.596 129.43 248.751 132.093C248.829 133.576 241.781 144.952 242.751 146.093C245 148.68 239.181 148.915 237.669 151.882C236.583 154.051 236.251 154.502 234.751 155.593C229.251 159.593 224.251 160.593 223.751 161.093C221.251 162.093 214.862 157.963 211.837 157.887C208.618 157.849 205.399 157.621 202.18 157.126C190.701 155.301 180.424 150.888 171.31 143.85C170.922 143.546 170.573 143.128 169.991 143.28L170.03 143.242C169.991 143.128 169.914 142.976 169.875 142.861C169.409 141.606 166.937 140.658 167.751 139.593C170.505 135.979 166.246 140.337 162.251 138.093C159.635 149.048 154.813 145.274 161.251 135.593C158.691 134.49 158.811 139.62 156.251 138.593C154.622 137.946 157.465 126.504 156.883 124.906C156.379 123.537 155.487 122.472 154.323 121.597C153.47 120.95 152.694 120.228 151.88 119.543C151.764 119.429 151.647 119.353 151.531 119.238V119.277C151.57 118.478 151.221 117.793 150.91 117.108C147.847 109.728 146.256 102.044 146.256 94.094C146.256 91.1649 146.179 88.2358 146.606 85.3067C148.04 84.0894 149.583 83.7069 151.251 83.5928C153.5 83.4406 154.246 83.5949 154.478 81.4646C154.517 81.0081 154.556 80.5517 154.556 80.0952C154.672 78.1932 155.467 75.7179 157.251 76.5928C157.6 76.783 159.402 76.9026 159.751 77.0928C160.798 77.7395 160.412 80.4375 161.614 79.4865C162.972 78.4595 163.359 77.3563 162.816 75.7586C162.39 74.5033 161.886 73.286 161.459 72.0687C160.49 69.4059 160.955 68.4169 163.592 67.3898C163.825 67.3137 164.057 67.1996 164.329 67.1235C165.919 66.4768 165.997 66.2105 164.949 64.8411C164.794 64.6509 164.639 64.4607 164.484 64.2324C163.437 62.825 163.592 61.874 165.066 60.961C166.501 60.0861 168.13 59.5155 169.72 58.9449C171.542 58.2982 174.561 57.6908 174.251 59.5928C174.018 61.0763 175.057 63.0712 175.251 64.5928C175.522 66.5709 171.812 66.2395 173.751 65.5928C174.371 65.4026 175.925 66.705 176.351 66.2486C178.64 63.852 181.626 63.0532 184.728 62.4065C187.21 61.912 189.692 61.5696 191.981 60.4284C198.496 57.0809 202.684 51.8314 205.748 45.5928Z" fill="#B9E2F3"/>
<path d="M231.751 125.093C229.251 123.593 229.751 122.093 229.751 121.093C229.749 112.103 201.254 119.076 214.251 93.0928C216.216 89.1642 206.839 84.7992 211.251 82.5928C212.251 82.0928 213.569 81.5928 215.251 81.5928C219.251 81.5928 217.751 75.3957 217.751 75.3957C217.751 67.0928 224.751 76.5928 228.751 68.5928C234.251 59.5928 223.832 57.3612 228.001 53.4209C235.77 57.778 242.213 63.6505 247.632 70.6976C247.784 70.8871 247.973 71.0765 248.125 71.2659C249.678 73.7286 251.27 76.2292 252.824 78.6919C256.159 85.0949 258.546 91.801 259.721 98.9238C259.911 100.098 259.986 101.311 260.138 102.485C258.774 103.736 258.198 97.5015 257.251 99.0928C256.304 100.684 255.251 101.093 252.824 98.0928C243.94 83.1986 244.752 110.032 245.055 111.093C258.558 154.485 235.578 128.536 231.751 125.093Z" fill="#9ABA7D"/>
<path d="M153.381 119.269C154.177 119.951 154.935 120.671 155.769 121.315C156.906 122.186 157.778 123.247 158.27 124.611C158.839 126.24 160.659 133.949 162.251 134.593C164.251 135.593 161.75 135.994 164.251 137.093C164.554 137.244 168.448 137.403 168.751 137.593C169.251 137.593 170.966 138.093 169.751 140.593C168.955 141.654 170.251 142.093 170.966 142.494C175.251 144.093 169.902 152.033 167.024 153.292C164.485 154.391 163.121 156.361 162.969 159.127C158.157 157.081 153.76 154.315 149.554 151.246C147.432 149.693 145.423 148.101 143.566 146.245C143.111 144.692 142.353 143.29 141.254 142.077C139.208 139.804 137.502 137.417 137.048 134.272C136.707 131.961 136.214 129.65 135.759 127.339C134.736 122.262 133.523 117.261 130.984 112.677C130.378 109.797 130.833 106.918 131.022 104.114C131.477 97.8626 132.917 91.7627 135.267 85.928C141.709 70.091 152.623 58.4217 168.048 51.0336C178.053 46.2219 188.664 44.4033 199.692 44.9716C201.776 45.0852 203.899 45.3126 205.945 45.7672C202.951 51.9808 198.858 57.2092 192.529 60.4297C190.293 61.5663 187.83 61.9073 185.443 62.3998C182.411 63.006 179.493 63.8396 177.257 66.2265C176.84 66.6811 176.196 67.0221 175.589 67.2116C173.694 67.8556 172.406 67.0221 172.141 65.052C171.951 63.5365 172.444 62.0589 172.671 60.5812C172.936 58.6869 172.557 58.308 170.776 58.9521C169.223 59.5204 167.631 60.0887 166.229 60.9601C164.751 61.8694 164.637 62.8166 165.66 64.2184C165.812 64.4079 165.963 64.5973 166.115 64.8246C167.138 66.1886 167.062 66.4159 165.509 67.0979C165.281 67.2116 165.054 67.2873 164.789 67.3631C162.212 68.3861 161.757 69.409 162.704 72.0233C163.159 73.2736 163.614 74.486 164.031 75.6984C164.561 77.2896 164.144 78.3884 162.856 79.4113C161.681 80.3206 160.696 79.7902 159.672 79.1461C159.331 78.9188 158.99 78.6915 158.649 78.5399C156.906 77.6685 156.072 78.1232 155.958 80.0175C155.921 80.4722 155.921 80.9268 155.883 81.3815C155.655 83.5411 155.125 84.0336 152.927 84.1852C151.297 84.2988 149.554 83.9957 148.19 85.2081C147.09 85.8143 146.598 86.8752 146.257 87.9739C144.892 92.2552 142.202 95.6272 138.412 97.7489C135.721 99.2644 134.736 101.197 134.736 104.076C134.736 107.221 135.077 110.176 137.086 112.752C137.844 113.7 138.639 114.116 139.814 113.737C142.126 112.98 144.248 113.472 146.257 114.798C148.455 116.276 150.767 117.64 153.002 119.08C153.192 119.08 153.306 119.155 153.381 119.269Z" fill="#9ABA7D"/>
<path d="M230.2 19.6631C233.383 16.4426 237.173 14.5861 241.759 14.6619C253.279 14.8135 260.404 27.6194 254.492 37.546C254.378 37.7733 254.265 38.0006 254.113 38.1901C251.271 41.9409 247.633 44.1763 242.933 44.7825C235.089 45.7676 227.282 39.4025 226.562 31.5597C226.107 27.0132 227.471 23.1866 230.2 19.6631Z" fill="#FAC04F"/>
<path d="M236.263 152.838C238.84 149.238 241.417 145.639 243.312 141.623C244.411 139.274 245.017 136.811 245.055 134.197C245.131 130.901 242.667 125.404 245.055 123.093C245.055 118.093 240.343 116.208 238.751 111.093C238.41 110.032 242.751 94.5929 243.751 91.5929C246.251 87.0929 249.751 94.0928 255.751 92.093C257.751 90.0928 258.774 103.773 260.138 102.523C261.578 115.746 259.191 128.249 253.013 140.032C252.824 140.373 252.483 140.676 252.672 141.13V141.055C252.293 141.13 252.255 141.396 252.331 141.737C250.55 144.199 248.2 146.056 245.964 147.988C245.206 148.632 244.6 149.428 243.615 149.807C243.463 149.92 243.349 150.034 243.198 150.11H243.236C242.895 150.148 242.705 150.337 242.592 150.64C242.554 150.716 242.516 150.716 242.44 150.716C241.796 150.678 241.303 150.981 240.735 151.171C239.257 151.777 237.892 152.686 236.263 152.838Z" fill="#B9E2F3"/>
<path d="M131.06 112.677C133.599 117.262 134.812 122.263 135.835 127.34C136.29 129.651 136.782 131.962 137.123 134.273C137.578 137.418 139.284 139.843 141.33 142.078C142.429 143.29 143.187 144.692 143.642 146.246C142.012 144.882 140.345 143.48 139.17 141.661C139.17 141.207 139.056 140.79 138.526 140.714L138.488 140.752C138.829 140.184 138.336 139.805 138.147 139.388C134.167 131.848 131.932 123.74 131.098 115.254C130.984 114.42 131.06 113.549 131.06 112.677Z" fill="#A9D8EC"/>
<path d="M269.007 91.6111C268.969 91.8763 267.112 93.6191 266.885 93.5812C266.62 93.5434 264.801 91.649 264.914 91.4974C265.521 90.7397 266.127 89.944 267.037 89.4894C267.188 89.4136 269.007 91.4217 269.007 91.6111Z" fill="#FEFEFF"/>
<path d="M131.553 79.7147C131.553 79.9799 129.62 81.8364 129.469 81.7227C128.673 81.2302 128.029 80.5103 127.46 79.7526C127.346 79.601 129.203 77.6309 129.469 77.6309C129.696 77.6309 131.553 79.4873 131.553 79.7147Z" fill="#FEFEFF"/>
<path d="M192.075 21.5195C192.302 21.5195 194.197 23.3002 194.197 23.5655C194.197 23.7928 192.226 25.6493 192.075 25.5735C191.279 25.081 190.635 24.3611 190.066 23.6033C189.915 23.4139 191.81 21.5195 192.075 21.5195Z" fill="#FEFEFF"/>
<path d="M206.097 35.8784C205.869 35.9163 203.974 34.1356 203.937 33.8704C203.937 33.6431 205.793 31.7487 206.021 31.8245C206.893 32.2412 207.461 33.0369 208.067 33.7567C208.219 33.9462 206.4 35.8406 206.097 35.8784Z" fill="#FEFEFF"/>
<path d="M163.046 159.202C163.198 156.436 161.175 153.691 163.752 152.592C164.358 152.327 167.145 152.396 167.751 152.092C170.778 150.512 173.557 145.631 172.251 143.593C181.157 150.602 191.431 154.959 202.611 156.777C205.757 157.27 208.902 157.497 212.047 157.535C215.003 157.573 234.871 153.653 237.751 152.592C238.396 154.222 231.751 158.092 223.417 161.248C219.551 162.991 215.458 163.976 211.365 164.885C204.885 166.287 198.329 166.704 191.735 166.363C181.692 165.87 172.066 163.635 163.046 159.202Z" fill="#A9D8EC"/>
<path d="M236.263 152.838C237.892 152.686 239.257 151.739 240.735 151.171C241.303 150.943 241.834 150.64 242.44 150.716C239.219 153.33 235.732 155.603 231.942 157.384C233.382 155.907 234.823 154.391 236.263 152.838Z" fill="#A9D8EC"/>
<path d="M138.488 140.789C139.057 140.865 139.133 141.282 139.133 141.736C138.867 141.433 138.375 141.32 138.488 140.789Z" fill="#205C7E"/>
<path d="M242.592 150.678C242.705 150.375 242.895 150.185 243.236 150.147C243.047 150.299 242.819 150.489 242.592 150.678Z" fill="#A9D8EC"/>
<path d="M252.332 141.737C252.256 141.434 252.294 141.168 252.673 141.055C252.938 141.472 252.521 141.547 252.332 141.737Z" fill="#205C7E"/>
<path d="M243.236 150.148C243.388 150.034 243.502 149.921 243.653 149.845C243.502 149.921 243.35 150.034 243.236 150.148Z" fill="#A9D8EC"/>
<path d="M153.751 119.593C149.251 116.806 147.487 118.284 145.251 116.806C143.242 115.48 140.838 113.835 138.488 114.593C137.314 114.972 136.971 113.54 136.251 112.593C134.205 110.016 134.213 107.237 134.251 104.093C134.251 101.213 135.798 99.1886 138.488 97.6731C142.316 95.5514 144.925 91.8741 146.251 87.5928C146.592 86.494 147.205 85.7385 148.266 85.1323C147.849 88.0497 147.963 90.967 147.925 93.8843C147.925 101.841 149.479 109.456 152.472 116.806C152.776 117.526 153.751 118.797 153.751 119.593Z" fill="#A9D8EC"/>
<path d="M153.382 119.269C153.268 119.155 153.155 119.08 153.041 118.966C153.193 119.08 153.306 119.155 153.382 119.269Z" fill="#A9D8EC"/>
</svg>
