<svg width="326" height="30" viewBox="0 0 326 30" fill="none" xmlns="http://www.w3.org/2000/svg">
<rect width="30" height="30" fill="white"/>
<path d="M53.1604 16.096C53.1604 18.0173 53.5858 19.5353 54.4364 20.65C55.3018 21.7647 56.4604 22.322 57.9124 22.322C58.6018 22.322 59.3278 22.1973 60.0904 21.948C60.8678 21.6987 61.5498 21.3613 62.1364 20.936V23.51C61.5644 23.8767 60.8678 24.1773 60.0464 24.412C59.2251 24.632 58.4111 24.742 57.6044 24.742C55.4778 24.742 53.7618 23.9353 52.4564 22.322C51.1511 20.7087 50.4984 18.6407 50.4984 16.118C50.4984 13.5807 51.1658 11.5053 52.5004 9.892C53.8498 8.27867 55.6171 7.472 57.8024 7.472C58.5944 7.472 59.3791 7.57467 60.1564 7.78C60.9338 7.98533 61.5571 8.264 62.0264 8.616V11.19C61.4104 10.7647 60.7578 10.442 60.0684 10.222C59.3791 9.98733 58.7044 9.87 58.0444 9.87C56.5484 9.87 55.3604 10.4273 54.4804 11.542C53.6004 12.642 53.1604 14.16 53.1604 16.096ZM67.6784 15.656V24.5H65.2144V7.098H67.6784V13.39L67.7444 13.456C68.3164 13.0453 68.8957 12.7447 69.4824 12.554C70.0837 12.3633 70.6997 12.268 71.3304 12.268C72.5037 12.268 73.391 12.5907 73.9924 13.236C74.5937 13.8813 74.8944 14.8347 74.8944 16.096V24.5H72.4304V16.91C72.4304 16.03 72.291 15.4067 72.0124 15.04C71.7484 14.6587 71.301 14.468 70.6704 14.468C70.113 14.468 69.5337 14.5853 68.9324 14.82C68.331 15.0547 67.913 15.3333 67.6784 15.656ZM85.347 23.378C84.9656 23.7887 84.467 24.1187 83.851 24.368C83.2496 24.6173 82.6043 24.742 81.915 24.742C80.7856 24.742 79.8836 24.4047 79.209 23.73C78.5343 23.0553 78.197 22.168 78.197 21.068C78.197 19.836 78.6443 18.89 79.539 18.23C80.4483 17.5553 81.7463 17.218 83.433 17.218H85.105C85.1196 17.174 85.127 17.1227 85.127 17.064C85.127 17.0053 85.127 16.9027 85.127 16.756C85.127 15.9053 84.9363 15.3113 84.555 14.974C84.1883 14.6367 83.543 14.468 82.619 14.468C82.0176 14.468 81.431 14.534 80.859 14.666C80.3016 14.798 79.715 15.0107 79.099 15.304V13.038C79.3483 12.9207 79.6343 12.818 79.957 12.73C80.2943 12.6273 80.661 12.5393 81.057 12.466C81.3943 12.3927 81.739 12.3413 82.091 12.312C82.443 12.2827 82.7876 12.268 83.125 12.268C84.709 12.268 85.8456 12.6493 86.535 13.412C87.2243 14.1747 87.569 15.3993 87.569 17.086V24.5H85.787L85.413 23.4L85.347 23.378ZM83.697 19.044C82.6703 19.044 81.9076 19.1907 81.409 19.484C80.925 19.7773 80.683 20.2467 80.683 20.892C80.683 21.4787 80.8443 21.926 81.167 22.234C81.4896 22.542 81.959 22.696 82.575 22.696C83.147 22.696 83.6896 22.5713 84.203 22.322C84.731 22.0727 85.0976 21.7793 85.303 21.442V19.044H83.697ZM93.7819 15.656V24.5H91.3179V12.51H93.7819V13.39L93.8479 13.456C94.4052 13.06 94.9846 12.7667 95.5859 12.576C96.1872 12.3707 96.8106 12.268 97.4559 12.268C98.6146 12.268 99.4946 12.5907 100.096 13.236C100.697 13.8813 100.998 14.8347 100.998 16.096V24.5H98.5339V16.91C98.5339 16.0153 98.4019 15.3847 98.1379 15.018C97.8739 14.6513 97.4266 14.468 96.7959 14.468C96.2239 14.468 95.6372 14.5853 95.0359 14.82C94.4492 15.0547 94.0312 15.3333 93.7819 15.656ZM104.3 26.37C104.3 25.886 104.41 25.4313 104.63 25.006C104.865 24.5807 105.158 24.258 105.51 24.038C105.188 23.8767 104.946 23.6493 104.784 23.356C104.623 23.0627 104.542 22.718 104.542 22.322C104.542 21.882 104.638 21.4053 104.828 20.892C105.034 20.3787 105.349 19.8067 105.774 19.176C105.408 18.8093 105.122 18.384 104.916 17.9C104.726 17.416 104.63 16.9027 104.63 16.36C104.63 15.1573 105.048 14.1747 105.884 13.412C106.72 12.6493 107.857 12.268 109.294 12.268C109.852 12.268 110.365 12.3267 110.834 12.444C111.318 12.5613 111.744 12.7373 112.11 12.972L114.838 12.268V14.578H113.562C113.694 14.8567 113.79 15.1427 113.848 15.436C113.922 15.7293 113.958 16.0373 113.958 16.36C113.958 17.5773 113.54 18.5673 112.704 19.33C111.868 20.078 110.732 20.452 109.294 20.452C108.898 20.452 108.524 20.4227 108.172 20.364C107.835 20.3053 107.527 20.2247 107.248 20.122C107.072 20.474 106.955 20.7527 106.896 20.958C106.838 21.1633 106.808 21.3687 106.808 21.574C106.808 21.926 106.904 22.168 107.094 22.3C107.285 22.4173 107.696 22.476 108.326 22.476H111.186C112.404 22.476 113.342 22.762 114.002 23.334C114.677 23.906 115.014 24.698 115.014 25.71C115.014 26.9567 114.516 27.9247 113.518 28.614C112.521 29.318 111.172 29.67 109.47 29.67C107.916 29.67 106.662 29.362 105.708 28.746C104.77 28.13 104.3 27.338 104.3 26.37ZM111.582 16.36C111.582 15.7 111.384 15.194 110.988 14.842C110.592 14.4753 110.028 14.292 109.294 14.292C108.561 14.292 107.996 14.4753 107.6 14.842C107.204 15.194 107.006 15.7 107.006 16.36C107.006 17.02 107.204 17.5333 107.6 17.9C107.996 18.252 108.561 18.428 109.294 18.428C110.028 18.428 110.592 18.252 110.988 17.9C111.384 17.5333 111.582 17.02 111.582 16.36ZM107.754 24.5C107.593 24.5 107.476 24.5 107.402 24.5C107.329 24.5 107.263 24.4927 107.204 24.478C107.043 24.6687 106.911 24.8813 106.808 25.116C106.72 25.3507 106.676 25.5927 106.676 25.842C106.676 26.414 106.926 26.854 107.424 27.162C107.938 27.4847 108.664 27.646 109.602 27.646C110.556 27.646 111.296 27.492 111.824 27.184C112.367 26.876 112.638 26.4287 112.638 25.842C112.638 25.3873 112.462 25.05 112.11 24.83C111.773 24.61 111.26 24.5 110.57 24.5H107.754ZM126.585 24.06C125.969 24.2947 125.367 24.4633 124.781 24.566C124.194 24.6833 123.607 24.742 123.021 24.742C121.129 24.742 119.647 24.2067 118.577 23.136C117.521 22.0507 116.993 20.5327 116.993 18.582C116.993 16.6607 117.491 15.128 118.489 13.984C119.486 12.84 120.835 12.268 122.537 12.268C123.989 12.268 125.111 12.708 125.903 13.588C126.695 14.4533 127.091 15.6633 127.091 17.218C127.091 17.57 127.069 17.9367 127.025 18.318C126.981 18.6993 126.915 19.0807 126.827 19.462H119.391C119.537 20.5033 119.911 21.2807 120.513 21.794C121.114 22.3073 121.957 22.564 123.043 22.564C123.585 22.564 124.15 22.5053 124.737 22.388C125.338 22.256 125.954 22.0653 126.585 21.816V24.06ZM124.847 16.756C124.861 15.9933 124.641 15.3847 124.187 14.93C123.747 14.4607 123.131 14.226 122.339 14.226C121.473 14.226 120.784 14.512 120.271 15.084C119.757 15.656 119.464 16.47 119.391 17.526H124.781C124.795 17.4087 124.81 17.284 124.825 17.152C124.839 17.0053 124.847 16.8733 124.847 16.756ZM132.626 15.634V24.5H130.162V12.51H132.626V13.39L132.692 13.456C133.249 13.0453 133.814 12.7447 134.386 12.554C134.972 12.3633 135.581 12.268 136.212 12.268C136.916 12.268 137.51 12.3853 137.994 12.62C138.492 12.8547 138.859 13.1993 139.094 13.654C139.68 13.1993 140.318 12.8547 141.008 12.62C141.697 12.3853 142.408 12.268 143.142 12.268C144.33 12.268 145.21 12.5833 145.782 13.214C146.368 13.8447 146.662 14.8053 146.662 16.096V24.5H144.198V16.91C144.198 16.0447 144.058 15.4213 143.78 15.04C143.516 14.6587 143.068 14.468 142.438 14.468C141.895 14.468 141.352 14.5853 140.81 14.82C140.267 15.0547 139.878 15.3333 139.644 15.656V24.5H137.18V17.042C137.18 16.0887 137.048 15.4213 136.784 15.04C136.534 14.6587 136.087 14.468 135.442 14.468C134.884 14.468 134.334 14.578 133.792 14.798C133.249 15.018 132.86 15.2967 132.626 15.634ZM159.327 24.06C158.711 24.2947 158.109 24.4633 157.523 24.566C156.936 24.6833 156.349 24.742 155.763 24.742C153.871 24.742 152.389 24.2067 151.319 23.136C150.263 22.0507 149.735 20.5327 149.735 18.582C149.735 16.6607 150.233 15.128 151.231 13.984C152.228 12.84 153.577 12.268 155.279 12.268C156.731 12.268 157.853 12.708 158.645 13.588C159.437 14.4533 159.833 15.6633 159.833 17.218C159.833 17.57 159.811 17.9367 159.767 18.318C159.723 18.6993 159.657 19.0807 159.569 19.462H152.133C152.279 20.5033 152.653 21.2807 153.255 21.794C153.856 22.3073 154.699 22.564 155.785 22.564C156.327 22.564 156.892 22.5053 157.479 22.388C158.08 22.256 158.696 22.0653 159.327 21.816V24.06ZM157.589 16.756C157.603 15.9933 157.383 15.3847 156.929 14.93C156.489 14.4607 155.873 14.226 155.081 14.226C154.215 14.226 153.526 14.512 153.013 15.084C152.499 15.656 152.206 16.47 152.133 17.526H157.523C157.537 17.4087 157.552 17.284 157.567 17.152C157.581 17.0053 157.589 16.8733 157.589 16.756ZM165.368 15.656V24.5H162.904V12.51H165.368V13.39L165.434 13.456C165.991 13.06 166.57 12.7667 167.172 12.576C167.773 12.3707 168.396 12.268 169.042 12.268C170.2 12.268 171.08 12.5907 171.682 13.236C172.283 13.8813 172.584 14.8347 172.584 16.096V24.5H170.12V16.91C170.12 16.0153 169.988 15.3847 169.724 15.018C169.46 14.6513 169.012 14.468 168.382 14.468C167.81 14.468 167.223 14.5853 166.622 14.82C166.035 15.0547 165.617 15.3333 165.368 15.656ZM183.212 24.324C182.89 24.456 182.53 24.5587 182.134 24.632C181.738 24.7053 181.335 24.742 180.924 24.742C179.663 24.742 178.717 24.39 178.086 23.686C177.47 22.982 177.162 21.926 177.162 20.518V14.622H175.226V12.51H177.162V9.342H179.626V12.51H182.97V14.622H179.626V19.154C179.626 20.4593 179.751 21.3467 180 21.816C180.264 22.2853 180.748 22.52 181.452 22.52C181.731 22.52 182.024 22.4907 182.332 22.432C182.655 22.3733 182.948 22.3 183.212 22.212V24.324ZM193.719 21.178C193.719 22.2487 193.316 23.114 192.509 23.774C191.703 24.4193 190.625 24.742 189.275 24.742C188.601 24.742 187.926 24.6613 187.251 24.5C186.591 24.3387 186.056 24.126 185.645 23.862V21.508C185.836 21.684 186.063 21.8453 186.327 21.992C186.606 22.124 186.921 22.2487 187.273 22.366C187.567 22.454 187.867 22.5273 188.175 22.586C188.483 22.63 188.799 22.652 189.121 22.652C189.811 22.652 190.346 22.5493 190.727 22.344C191.109 22.124 191.299 21.816 191.299 21.42C191.299 21.0973 191.16 20.804 190.881 20.54C190.603 20.276 189.994 19.946 189.055 19.55C188.351 19.242 187.831 18.9927 187.493 18.802C187.171 18.6113 186.892 18.4133 186.657 18.208C186.276 17.8853 185.99 17.526 185.799 17.13C185.623 16.7193 185.535 16.2647 185.535 15.766C185.535 14.6953 185.924 13.8447 186.701 13.214C187.493 12.5833 188.571 12.268 189.935 12.268C190.581 12.268 191.204 12.3487 191.805 12.51C192.407 12.6567 192.898 12.8473 193.279 13.082V15.282C192.751 14.9887 192.187 14.7613 191.585 14.6C190.999 14.4387 190.427 14.358 189.869 14.358C189.253 14.358 188.777 14.468 188.439 14.688C188.117 14.908 187.955 15.2087 187.955 15.59C187.955 15.9127 188.095 16.206 188.373 16.47C188.652 16.7193 189.261 17.042 190.199 17.438C190.903 17.7313 191.417 17.9733 191.739 18.164C192.077 18.3547 192.363 18.5527 192.597 18.758C192.979 19.0807 193.257 19.44 193.433 19.836C193.624 20.232 193.719 20.6793 193.719 21.178ZM212.672 23.928C212.291 24.1773 211.8 24.3753 211.198 24.522C210.612 24.6687 210.018 24.742 209.416 24.742C207.744 24.742 206.424 24.1773 205.456 23.048C204.488 21.9187 204.004 20.408 204.004 18.516C204.004 16.624 204.488 15.1133 205.456 13.984C206.439 12.84 207.766 12.268 209.438 12.268C210.04 12.268 210.634 12.3413 211.22 12.488C211.807 12.62 212.269 12.796 212.606 13.016V15.392C212.342 15.128 211.924 14.9153 211.352 14.754C210.795 14.578 210.223 14.49 209.636 14.49C208.566 14.49 207.774 14.8127 207.26 15.458C206.747 16.1033 206.49 17.086 206.49 18.406C206.49 19.7847 206.747 20.8187 207.26 21.508C207.774 22.1827 208.551 22.52 209.592 22.52C210.135 22.52 210.7 22.432 211.286 22.256C211.888 22.08 212.35 21.8673 212.672 21.618V23.928ZM218.219 7.098V24.5H215.755V7.098H218.219ZM225.127 7.978C225.127 8.462 224.959 8.87267 224.621 9.21C224.299 9.53267 223.895 9.694 223.411 9.694C222.927 9.694 222.517 9.53267 222.179 9.21C221.857 8.87267 221.695 8.462 221.695 7.978C221.695 7.494 221.857 7.09067 222.179 6.768C222.517 6.43067 222.927 6.262 223.411 6.262C223.895 6.262 224.299 6.43067 224.621 6.768C224.959 7.09067 225.127 7.494 225.127 7.978ZM224.643 12.51V24.5H222.179V12.51H224.643ZM231.067 15.634V24.5H228.603V12.51H231.067V13.39L231.133 13.456C231.69 13.0453 232.255 12.7447 232.827 12.554C233.414 12.3633 234.022 12.268 234.653 12.268C235.357 12.268 235.951 12.3853 236.435 12.62C236.934 12.8547 237.3 13.1993 237.535 13.654C238.122 13.1993 238.76 12.8547 239.449 12.62C240.138 12.3853 240.85 12.268 241.583 12.268C242.771 12.268 243.651 12.5833 244.223 13.214C244.81 13.8447 245.103 14.8053 245.103 16.096V24.5H242.639V16.91C242.639 16.0447 242.5 15.4213 242.221 15.04C241.957 14.6587 241.51 14.468 240.879 14.468C240.336 14.468 239.794 14.5853 239.251 14.82C238.708 15.0547 238.32 15.3333 238.085 15.656V24.5H235.621V17.042C235.621 16.0887 235.489 15.4213 235.225 15.04C234.976 14.6587 234.528 14.468 233.883 14.468C233.326 14.468 232.776 14.578 232.233 14.798C231.69 15.018 231.302 15.2967 231.067 15.634ZM255.546 23.378C255.165 23.7887 254.666 24.1187 254.05 24.368C253.449 24.6173 252.804 24.742 252.114 24.742C250.985 24.742 250.083 24.4047 249.408 23.73C248.734 23.0553 248.396 22.168 248.396 21.068C248.396 19.836 248.844 18.89 249.738 18.23C250.648 17.5553 251.946 17.218 253.632 17.218H255.304C255.319 17.174 255.326 17.1227 255.326 17.064C255.326 17.0053 255.326 16.9027 255.326 16.756C255.326 15.9053 255.136 15.3113 254.754 14.974C254.388 14.6367 253.742 14.468 252.818 14.468C252.217 14.468 251.63 14.534 251.058 14.666C250.501 14.798 249.914 15.0107 249.298 15.304V13.038C249.548 12.9207 249.834 12.818 250.156 12.73C250.494 12.6273 250.86 12.5393 251.256 12.466C251.594 12.3927 251.938 12.3413 252.29 12.312C252.642 12.2827 252.987 12.268 253.324 12.268C254.908 12.268 256.045 12.6493 256.734 13.412C257.424 14.1747 257.768 15.3993 257.768 17.086V24.5H255.986L255.612 23.4L255.546 23.378ZM253.896 19.044C252.87 19.044 252.107 19.1907 251.608 19.484C251.124 19.7773 250.882 20.2467 250.882 20.892C250.882 21.4787 251.044 21.926 251.366 22.234C251.689 22.542 252.158 22.696 252.774 22.696C253.346 22.696 253.889 22.5713 254.402 22.322C254.93 22.0727 255.297 21.7793 255.502 21.442V19.044H253.896ZM268.183 24.324C267.86 24.456 267.501 24.5587 267.105 24.632C266.709 24.7053 266.306 24.742 265.895 24.742C264.634 24.742 263.688 24.39 263.057 23.686C262.441 22.982 262.133 21.926 262.133 20.518V14.622H260.197V12.51H262.133V9.342H264.597V12.51H267.941V14.622H264.597V19.154C264.597 20.4593 264.722 21.3467 264.971 21.816C265.235 22.2853 265.719 22.52 266.423 22.52C266.702 22.52 266.995 22.4907 267.303 22.432C267.626 22.3733 267.919 22.3 268.183 22.212V24.324ZM274.004 7.978C274.004 8.462 273.836 8.87267 273.498 9.21C273.176 9.53267 272.772 9.694 272.288 9.694C271.804 9.694 271.394 9.53267 271.056 9.21C270.734 8.87267 270.572 8.462 270.572 7.978C270.572 7.494 270.734 7.09067 271.056 6.768C271.394 6.43067 271.804 6.262 272.288 6.262C272.772 6.262 273.176 6.43067 273.498 6.768C273.836 7.09067 274.004 7.494 274.004 7.978ZM273.52 12.51V24.5H271.056V12.51H273.52ZM284.212 23.576C283.831 23.9573 283.391 24.2507 282.892 24.456C282.408 24.6467 281.88 24.742 281.308 24.742C279.9 24.742 278.763 24.1773 277.898 23.048C277.033 21.904 276.6 20.4373 276.6 18.648C276.6 16.756 277.091 15.2233 278.074 14.05C279.071 12.862 280.391 12.268 282.034 12.268C282.474 12.268 282.885 12.3193 283.266 12.422C283.662 12.51 284.051 12.6567 284.432 12.862L286.764 12.334V29.428H284.278V23.642L284.212 23.576ZM284.278 15.084C284.029 14.908 283.713 14.7687 283.332 14.666C282.965 14.5487 282.591 14.49 282.21 14.49C281.242 14.49 280.479 14.8567 279.922 15.59C279.365 16.3233 279.086 17.3207 279.086 18.582C279.086 19.7993 279.35 20.7673 279.878 21.486C280.406 22.2047 281.125 22.564 282.034 22.564C282.547 22.564 283.002 22.4467 283.398 22.212C283.794 21.9773 284.087 21.662 284.278 21.266V15.084ZM297.864 23.554C297.307 23.95 296.728 24.2507 296.126 24.456C295.525 24.6467 294.902 24.742 294.256 24.742C293.098 24.742 292.218 24.4193 291.616 23.774C291.015 23.1287 290.714 22.1753 290.714 20.914V12.51H293.178V20.1C293.178 20.9947 293.31 21.6253 293.574 21.992C293.838 22.3587 294.286 22.542 294.916 22.542C295.474 22.542 296.053 22.4247 296.654 22.19C297.27 21.9553 297.696 21.6767 297.93 21.354V12.51H300.394V24.5H297.93V23.62L297.864 23.554ZM313.069 24.06C312.453 24.2947 311.852 24.4633 311.265 24.566C310.678 24.6833 310.092 24.742 309.505 24.742C307.613 24.742 306.132 24.2067 305.061 23.136C304.005 22.0507 303.477 20.5327 303.477 18.582C303.477 16.6607 303.976 15.128 304.973 13.984C305.97 12.84 307.32 12.268 309.021 12.268C310.473 12.268 311.595 12.708 312.387 13.588C313.179 14.4533 313.575 15.6633 313.575 17.218C313.575 17.57 313.553 17.9367 313.509 18.318C313.465 18.6993 313.399 19.0807 313.311 19.462H305.875C306.022 20.5033 306.396 21.2807 306.997 21.794C307.598 22.3073 308.442 22.564 309.527 22.564C310.07 22.564 310.634 22.5053 311.221 22.388C311.822 22.256 312.438 22.0653 313.069 21.816V24.06ZM311.331 16.756C311.346 15.9933 311.126 15.3847 310.671 14.93C310.231 14.4607 309.615 14.226 308.823 14.226C307.958 14.226 307.268 14.512 306.755 15.084C306.242 15.656 305.948 16.47 305.875 17.526H311.265C311.28 17.4087 311.294 17.284 311.309 17.152C311.324 17.0053 311.331 16.8733 311.331 16.756ZM324.28 21.178C324.28 22.2487 323.877 23.114 323.07 23.774C322.263 24.4193 321.185 24.742 319.836 24.742C319.161 24.742 318.487 24.6613 317.812 24.5C317.152 24.3387 316.617 24.126 316.206 23.862V21.508C316.397 21.684 316.624 21.8453 316.888 21.992C317.167 22.124 317.482 22.2487 317.834 22.366C318.127 22.454 318.428 22.5273 318.736 22.586C319.044 22.63 319.359 22.652 319.682 22.652C320.371 22.652 320.907 22.5493 321.288 22.344C321.669 22.124 321.86 21.816 321.86 21.42C321.86 21.0973 321.721 20.804 321.442 20.54C321.163 20.276 320.555 19.946 319.616 19.55C318.912 19.242 318.391 18.9927 318.054 18.802C317.731 18.6113 317.453 18.4133 317.218 18.208C316.837 17.8853 316.551 17.526 316.36 17.13C316.184 16.7193 316.096 16.2647 316.096 15.766C316.096 14.6953 316.485 13.8447 317.262 13.214C318.054 12.5833 319.132 12.268 320.496 12.268C321.141 12.268 321.765 12.3487 322.366 12.51C322.967 12.6567 323.459 12.8473 323.84 13.082V15.282C323.312 14.9887 322.747 14.7613 322.146 14.6C321.559 14.4387 320.987 14.358 320.43 14.358C319.814 14.358 319.337 14.468 319 14.688C318.677 14.908 318.516 15.2087 318.516 15.59C318.516 15.9127 318.655 16.206 318.934 16.47C319.213 16.7193 319.821 17.042 320.76 17.438C321.464 17.7313 321.977 17.9733 322.3 18.164C322.637 18.3547 322.923 18.5527 323.158 18.758C323.539 19.0807 323.818 19.44 323.994 19.836C324.185 20.232 324.28 20.6793 324.28 21.178Z" fill="#212121"/>
</svg>
