<svg width="547" height="242" viewBox="0 0 547 242" fill="none" xmlns="http://www.w3.org/2000/svg">
<rect x="1.5" y="1.5" width="544" height="238.686" rx="30.5" fill="white"/>
<rect x="1.5" y="1.5" width="544" height="238.686" rx="30.5" stroke="#212121" stroke-width="3"/>
<path d="M111.5 180.199C144.29 180.199 170.872 153.625 170.872 120.843C170.872 88.0619 144.29 61.4873 111.5 61.4873C78.7104 61.4873 52.1289 88.0619 52.1289 120.843C52.1289 153.625 78.7104 180.199 111.5 180.199Z" fill="#205C7E"/>
<path fill-rule="evenodd" clip-rule="evenodd" d="M177 120.843C177 157.011 147.673 186.328 111.5 186.328C75.3268 186.328 46 157.011 46 120.843C46 84.6754 75.3268 55.3584 111.5 55.3584C147.673 55.3584 177 84.6754 177 120.843ZM170.871 120.843C170.871 153.625 144.29 180.199 111.5 180.199C78.7101 180.199 52.1287 153.625 52.1287 120.843C52.1287 88.0617 78.7101 61.4871 111.5 61.4871C144.29 61.4871 170.871 88.0617 170.871 120.843Z" fill="#212121"/>
<path d="M155.426 112.135C158.677 112.077 162.306 111.7 166.022 110.713C166.022 110.713 161.755 109.755 155.426 109.639C155.368 106.388 154.99 102.76 154.003 99.0449C154.003 99.0449 153.045 103.312 152.929 109.639C149.706 109.697 146.106 109.987 142.332 110.713C142.332 110.713 146.687 111.932 152.929 112.106C152.987 115.328 153.277 118.927 154.003 122.7C154.032 122.729 155.251 118.376 155.426 112.135Z" fill="#FEFEFF"/>
<path d="M77.8807 83.7201C81.1324 83.6621 84.7614 83.2848 88.4776 82.2979C88.4776 82.2979 84.2098 81.3401 77.8807 81.224C77.8227 77.9732 77.4453 74.3451 76.4582 70.6299C76.4582 70.6299 75.5001 74.8966 75.384 81.224C72.1613 81.282 68.5613 81.5723 64.7871 82.2979C64.7871 82.2979 69.142 83.517 75.384 83.6911C75.442 86.9129 75.7323 90.512 76.4582 94.2852C76.4582 94.3142 77.7065 89.9605 77.8807 83.7201Z" fill="#FEFEFF"/>
<path d="M119.158 87.5342C125.249 88.4667 130.953 90.5067 136.33 93.45C133.062 96.4807 147.92 104.699 143.612 106.389C140.462 107.613 137.256 104.519 137.732 107.812C153.192 112.545 143.363 113.85 130.676 110.119C130.825 111.751 132.762 111.454 131.068 111.658C129.85 111.804 131.865 112.637 130.676 112.812C129.785 112.928 131.662 113.295 131.068 113.965C129.969 115.16 131.543 113.575 131.068 115.119C130.474 117.042 134.28 114.92 125.397 119.349C142.421 117.076 134.952 129.18 134.596 129.733C133.586 131.394 126.942 129.337 125.397 130.502C124.476 131.202 126.477 135.251 125.972 136.271C124.309 139.535 131.496 136.917 131.852 140.502C131.971 141.638 133.972 137.9 134.596 138.862C135.933 140.931 131.429 138.602 133.42 140.117C135.381 141.574 133.847 142.646 136.164 141.655C137.56 141.073 139.412 144.843 140.868 144.347C141.492 144.143 140.303 146.544 140.868 147.04C142.353 148.322 151.983 151.76 152.102 153.8C152.161 154.937 146.762 163.651 147.505 164.525C149.228 166.507 144.77 166.688 143.612 168.961C142.78 170.622 142.525 170.967 141.376 171.803C137.163 174.868 133.333 175.634 132.949 176.017C131.034 176.783 126.14 173.619 123.822 173.561C121.357 173.532 118.891 173.357 116.425 172.978C107.63 171.579 99.7571 168.199 92.7752 162.808C92.4781 162.574 92.2107 162.254 91.765 162.37L91.7948 162.341C91.7651 162.254 91.7056 162.137 91.6759 162.05C91.3194 161.088 89.425 160.362 90.0489 159.546C92.1583 156.777 88.8956 160.116 85.8354 158.397C83.8317 166.79 80.1374 163.898 85.0694 156.482C83.1085 155.636 83.1998 159.567 81.2389 158.78C79.9911 158.284 82.1686 149.519 81.723 148.295C81.3367 147.246 80.6534 146.43 79.7621 145.76C79.1085 145.264 78.5143 144.711 77.8903 144.186C77.8012 144.099 77.7121 144.04 77.623 143.953V143.982C77.6527 143.37 77.3853 142.845 77.1476 142.321C74.8005 136.667 73.5824 130.781 73.5824 124.69C73.5824 122.446 73.5229 120.202 73.8497 117.958C74.949 117.026 76.131 116.733 77.4085 116.645C79.1317 116.529 79.7027 116.647 79.8809 115.015C79.9106 114.665 79.9404 114.316 79.9404 113.966C80.0295 112.509 80.6384 110.612 82.005 111.283C82.2724 111.428 83.6528 111.52 83.9202 111.666C84.7224 112.161 84.4266 114.228 85.3476 113.5C86.3875 112.713 86.6846 111.868 86.2686 110.644C85.9418 109.682 85.5556 108.749 85.2288 107.817C84.486 105.777 84.8426 105.019 86.8629 104.232C87.0411 104.174 87.2194 104.087 87.4273 104.028C88.6455 103.533 88.7049 103.329 87.9027 102.28C87.7839 102.134 87.665 101.989 87.5462 101.814C86.744 100.735 86.8629 100.007 87.9918 99.3075C89.0911 98.6372 90.339 98.2001 91.5571 97.763C92.9535 97.2676 95.2661 96.8022 95.0284 98.2593C94.8502 99.3959 95.6459 100.924 95.7945 102.09C96.0025 103.605 93.1599 103.351 94.6454 102.856C95.1207 102.71 96.3107 103.708 96.6375 103.358C98.3904 101.522 100.678 100.91 103.055 100.415C104.956 100.036 106.858 99.7738 108.611 98.8995C113.602 96.335 116.811 92.3134 119.158 87.5342Z" fill="#B9E2F3"/>
<path d="M139.079 148.438C137.164 147.289 137.546 146.14 137.547 145.373C137.545 138.486 115.716 143.828 125.672 123.923C127.178 120.914 119.994 117.57 123.374 115.879C124.14 115.496 125.15 115.113 126.439 115.113C129.503 115.113 128.354 110.366 128.354 110.366C128.354 104.005 133.716 111.283 136.781 105.154C140.994 98.2594 133.012 96.5498 136.206 93.5312C142.158 96.8691 147.093 101.368 151.245 106.767C151.361 106.912 151.506 107.057 151.622 107.202C152.813 109.089 154.032 111.004 155.222 112.891C157.777 117.796 159.606 122.934 160.506 128.39C160.651 129.29 160.709 130.219 160.825 131.119C159.78 132.076 159.34 127.301 158.614 128.52C157.888 129.739 157.082 130.052 155.222 127.754C148.417 116.343 149.038 136.9 149.271 137.713C159.615 170.955 142.01 151.075 139.079 148.438Z" fill="#9ABA7D"/>
<path d="M79.0418 143.976C79.6515 144.499 80.2321 145.05 80.8708 145.544C81.7418 146.211 82.4096 147.024 82.787 148.069C83.2225 149.317 84.6172 155.222 85.8366 155.716C87.3687 156.482 85.4526 156.789 87.3687 157.631C87.601 157.747 90.5839 157.869 90.8161 158.014C91.1992 158.014 92.5129 158.397 91.5822 160.312C90.9725 161.125 91.9652 161.461 92.5129 161.769C95.7956 162.993 91.6979 169.077 89.4935 170.041C87.5483 170.882 86.5031 172.392 86.387 174.511C82.6999 172.943 79.3321 170.824 76.1095 168.473C74.4837 167.283 72.945 166.064 71.5224 164.642C71.174 163.452 70.5934 162.378 69.7514 161.449C68.1837 159.708 66.8772 157.879 66.5288 155.47C66.2675 153.7 65.8901 151.929 65.5417 150.159C64.7578 146.269 63.8288 142.438 61.8836 138.926C61.4191 136.72 61.7675 134.514 61.9127 132.366C62.261 127.577 63.3643 122.904 65.1643 118.434C70.0998 106.302 78.4611 97.3623 90.2773 91.7024C97.9419 88.0162 106.071 86.6231 114.519 87.0584C116.116 87.1455 117.742 87.3196 119.31 87.6679C117.016 92.428 113.881 96.4335 109.032 98.9006C107.319 99.7714 105.432 100.033 103.603 100.41C101.281 100.874 99.0451 101.513 97.3322 103.341C97.0129 103.69 96.5193 103.951 96.0548 104.096C94.6032 104.589 93.6161 103.951 93.4129 102.442C93.2677 101.281 93.6451 100.149 93.8193 99.0167C94.0225 97.5655 93.7322 97.2752 92.3677 97.7686C91.1774 98.204 89.958 98.6394 88.8838 99.307C87.7515 100.004 87.6644 100.729 88.4483 101.803C88.5644 101.948 88.6806 102.093 88.7967 102.267C89.5806 103.312 89.5225 103.487 88.3322 104.009C88.158 104.096 87.9838 104.154 87.7806 104.212C85.8064 104.996 85.458 105.78 86.1838 107.782C86.5322 108.74 86.8806 109.669 87.1999 110.598C87.6064 111.817 87.287 112.658 86.2999 113.442C85.3999 114.139 84.6451 113.732 83.8612 113.239C83.5999 113.065 83.3386 112.891 83.0773 112.775C81.7418 112.107 81.1031 112.455 81.016 113.907C80.987 114.255 80.987 114.603 80.9579 114.951C80.7837 116.606 80.3773 116.983 78.6934 117.099C77.445 117.186 76.1095 116.954 75.0644 117.883C74.2224 118.347 73.845 119.16 73.5837 120.002C72.5385 123.282 70.4772 125.865 67.574 127.49C65.5127 128.651 64.7578 130.131 64.7578 132.337C64.7578 134.746 65.0191 137.01 66.5578 138.984C67.1385 139.71 67.7482 140.029 68.6482 139.739C70.4192 139.158 72.045 139.536 73.5837 140.551C75.2676 141.683 77.0386 142.728 78.7515 143.831C78.8966 143.831 78.9837 143.889 79.0418 143.976Z" fill="#9ABA7D"/>
<path d="M137.89 67.6699C140.329 65.2028 143.232 63.7806 146.745 63.8386C155.571 63.9547 161.029 73.7652 156.5 81.3697C156.413 81.5438 156.326 81.718 156.21 81.8631C154.032 84.7366 151.245 86.4491 147.645 86.9135C141.635 87.6681 135.655 82.7919 135.103 76.7838C134.755 73.3008 135.8 70.3692 137.89 67.6699Z" fill="#FAC04F"/>
<path d="M142.535 169.692C144.509 166.935 146.484 164.178 147.935 161.101C148.777 159.301 149.242 157.415 149.271 155.412C149.329 152.887 147.442 148.676 149.271 146.905C149.271 143.075 145.661 141.631 144.441 137.712C144.18 136.9 147.506 125.072 148.272 122.774C150.187 119.326 152.868 124.689 157.465 123.157C158.997 121.625 159.78 132.105 160.826 131.147C161.929 141.277 160.1 150.855 155.367 159.882C155.222 160.143 154.961 160.375 155.106 160.724V160.666C154.816 160.724 154.787 160.927 154.845 161.188C153.48 163.075 151.68 164.497 149.967 165.977C149.387 166.471 148.922 167.08 148.167 167.37C148.051 167.457 147.964 167.544 147.848 167.603H147.877C147.616 167.632 147.471 167.777 147.384 168.009C147.355 168.067 147.326 168.067 147.267 168.067C146.774 168.038 146.396 168.27 145.961 168.415C144.829 168.88 143.784 169.576 142.535 169.692Z" fill="#B9E2F3"/>
<path d="M61.9428 138.926C63.888 142.438 64.817 146.269 65.6009 150.158C65.9493 151.929 66.3267 153.699 66.588 155.47C66.9364 157.879 68.2428 159.737 69.8106 161.449C70.6525 162.378 71.2332 163.452 71.5816 164.642C70.3332 163.597 69.0557 162.523 68.1557 161.13C68.1557 160.782 68.0686 160.462 67.6622 160.404L67.6331 160.433C67.8944 159.998 67.517 159.708 67.3719 159.388C64.3234 153.612 62.6105 147.401 61.9718 140.899C61.8847 140.261 61.9428 139.593 61.9428 138.926Z" fill="#A9D8EC"/>
<path d="M167.62 122.787C167.591 122.99 166.168 124.325 165.994 124.296C165.791 124.267 164.397 122.816 164.484 122.7C164.949 122.12 165.413 121.51 166.11 121.162C166.226 121.104 167.62 122.642 167.62 122.787Z" fill="#FEFEFF"/>
<path d="M62.319 113.674C62.319 113.877 60.8384 115.299 60.7222 115.212C60.1126 114.835 59.619 114.283 59.1835 113.703C59.0964 113.586 60.519 112.077 60.7222 112.077C60.8964 112.077 62.319 113.499 62.319 113.674Z" fill="#FEFEFF"/>
<path d="M108.684 69.0918C108.858 69.0918 110.31 70.456 110.31 70.6591C110.31 70.8333 108.8 72.2555 108.684 72.1975C108.074 71.8201 107.581 71.2687 107.145 70.6882C107.029 70.543 108.481 69.0918 108.684 69.0918Z" fill="#FEFEFF"/>
<path d="M119.426 80.0917C119.252 80.1208 117.801 78.7566 117.771 78.5534C117.771 78.3793 119.194 76.928 119.368 76.9861C120.036 77.3053 120.471 77.9149 120.936 78.4663C121.052 78.6115 119.659 80.0627 119.426 80.0917Z" fill="#FEFEFF"/>
<path d="M86.444 174.568C86.5601 172.449 85.0101 170.346 86.9843 169.504C87.4489 169.301 89.5839 169.353 90.0484 169.121C92.3674 167.91 94.4962 164.171 93.4955 162.609C100.318 167.979 108.189 171.317 116.754 172.71C119.164 173.087 121.573 173.261 123.983 173.29C126.247 173.319 141.468 170.317 143.674 169.504C144.168 170.752 139.078 173.717 132.693 176.135C129.731 177.47 126.596 178.225 123.46 178.921C118.496 179.995 113.473 180.314 108.422 180.053C100.728 179.676 93.3537 177.963 86.444 174.568Z" fill="#A9D8EC"/>
<path d="M142.534 169.692C143.783 169.576 144.828 168.85 145.96 168.415C146.396 168.241 146.802 168.009 147.267 168.067C144.799 170.069 142.128 171.811 139.225 173.175C140.328 172.043 141.431 170.882 142.534 169.692Z" fill="#A9D8EC"/>
<path d="M67.632 160.462C68.0675 160.52 68.1255 160.839 68.1255 161.188C67.9223 160.955 67.5449 160.868 67.632 160.462Z" fill="#205C7E"/>
<path d="M147.383 168.037C147.47 167.805 147.615 167.66 147.876 167.631C147.731 167.747 147.557 167.892 147.383 168.037Z" fill="#A9D8EC"/>
<path d="M154.845 161.188C154.787 160.955 154.816 160.752 155.106 160.665C155.309 160.984 154.99 161.042 154.845 161.188Z" fill="#205C7E"/>
<path d="M147.877 167.632C147.993 167.545 148.08 167.457 148.196 167.399C148.08 167.457 147.964 167.545 147.877 167.632Z" fill="#A9D8EC"/>
<path d="M79.3243 144.225C75.8769 142.09 74.5255 143.222 72.8126 142.09C71.2738 141.074 69.4318 139.814 67.6318 140.394C66.7318 140.685 66.4695 139.588 65.9179 138.862C64.3502 136.888 64.3566 134.76 64.3856 132.35C64.3856 130.145 65.5705 128.593 67.6318 127.432C70.5641 125.807 72.5625 122.99 73.5786 119.71C73.8399 118.868 74.3093 118.29 75.1222 117.825C74.8028 120.06 74.8899 122.295 74.8609 124.53C74.8609 130.625 76.0512 136.459 78.3448 142.09C78.577 142.642 79.3243 143.615 79.3243 144.225Z" fill="#A9D8EC"/>
<path d="M79.0406 143.975C78.9535 143.888 78.8664 143.83 78.7793 143.743C78.8954 143.83 78.9825 143.888 79.0406 143.975Z" fill="#A9D8EC"/>
<path d="M221.743 71.689H226.269C226.178 73.1724 225.77 74.4893 225.043 75.6396C224.326 76.79 223.322 77.6882 222.031 78.334C220.749 78.9798 219.205 79.3027 217.399 79.3027C215.986 79.3027 214.72 79.0605 213.6 78.5762C212.479 78.0817 211.521 77.3753 210.724 76.457C209.937 75.5387 209.336 74.4287 208.922 73.127C208.509 71.8252 208.302 70.367 208.302 68.7524V67.2236C208.302 65.609 208.514 64.1509 208.938 62.8491C209.371 61.5373 209.987 60.4222 210.784 59.5039C211.591 58.5856 212.555 57.8792 213.675 57.3848C214.795 56.8903 216.047 56.6431 217.429 56.6431C219.266 56.6431 220.815 56.9761 222.076 57.6421C223.348 58.3081 224.332 59.2264 225.028 60.397C225.734 61.5675 226.158 62.8996 226.299 64.3931H221.758C221.708 63.505 221.531 62.7533 221.229 62.1377C220.926 61.512 220.467 61.0428 219.851 60.73C219.246 60.4071 218.438 60.2456 217.429 60.2456C216.672 60.2456 216.011 60.3869 215.446 60.6694C214.881 60.952 214.407 61.3809 214.023 61.9561C213.64 62.5312 213.352 63.2578 213.161 64.1357C212.979 65.0036 212.888 66.0228 212.888 67.1934V68.7524C212.888 69.8927 212.974 70.8968 213.146 71.7646C213.317 72.6224 213.579 73.349 213.933 73.9443C214.296 74.5296 214.76 74.9736 215.325 75.2764C215.9 75.569 216.592 75.7153 217.399 75.7153C218.347 75.7153 219.13 75.564 219.745 75.2612C220.361 74.9585 220.83 74.5094 221.153 73.9141C221.486 73.3187 221.683 72.577 221.743 71.689ZM233.232 55.75V79H228.873V55.75H233.232ZM232.611 70.2358H231.416C231.426 69.0955 231.577 68.0461 231.87 67.0874C232.162 66.1187 232.581 65.2811 233.126 64.5747C233.671 63.8582 234.322 63.3032 235.079 62.9097C235.846 62.5161 236.693 62.3193 237.622 62.3193C238.429 62.3193 239.16 62.4354 239.816 62.6675C240.482 62.8895 241.053 63.2528 241.527 63.7573C242.011 64.2518 242.385 64.9027 242.647 65.71C242.909 66.5173 243.041 67.4961 243.041 68.6465V79H238.651V68.6162C238.651 67.8896 238.545 67.3195 238.333 66.9058C238.131 66.4819 237.833 66.1842 237.44 66.0127C237.056 65.8311 236.582 65.7402 236.017 65.7402C235.391 65.7402 234.857 65.8563 234.413 66.0884C233.979 66.3205 233.631 66.6434 233.368 67.0571C233.106 67.4608 232.914 67.9351 232.793 68.48C232.672 69.0249 232.611 69.6102 232.611 70.2358ZM255.195 75.3066V68.0107C255.195 67.486 255.11 67.0369 254.938 66.6636C254.766 66.2801 254.499 65.9824 254.136 65.7705C253.783 65.5586 253.323 65.4526 252.758 65.4526C252.274 65.4526 251.855 65.5384 251.502 65.71C251.149 65.8714 250.876 66.1086 250.685 66.4214C250.493 66.7241 250.397 67.0824 250.397 67.4961H246.038C246.038 66.7998 246.199 66.1388 246.522 65.5132C246.845 64.8875 247.314 64.3376 247.93 63.8633C248.545 63.3789 249.277 63.0005 250.125 62.728C250.982 62.4556 251.941 62.3193 253 62.3193C254.272 62.3193 255.402 62.5312 256.391 62.9551C257.38 63.3789 258.157 64.0146 258.722 64.8623C259.297 65.71 259.585 66.7695 259.585 68.041V75.0493C259.585 75.9474 259.64 76.6841 259.751 77.2593C259.862 77.8244 260.024 78.3188 260.236 78.7427V79H255.831C255.619 78.556 255.458 78.001 255.347 77.335C255.246 76.6589 255.195 75.9827 255.195 75.3066ZM255.771 69.0249L255.801 71.4922H253.364C252.789 71.4922 252.289 71.5578 251.865 71.689C251.441 71.8201 251.093 72.0068 250.821 72.249C250.548 72.4811 250.347 72.7536 250.215 73.0664C250.094 73.3792 250.034 73.7223 250.034 74.0957C250.034 74.4691 250.119 74.8071 250.291 75.1099C250.463 75.4025 250.71 75.6346 251.033 75.8062C251.356 75.9676 251.734 76.0483 252.168 76.0483C252.824 76.0483 253.394 75.9172 253.878 75.6548C254.363 75.3924 254.736 75.0695 254.999 74.686C255.271 74.3026 255.412 73.9393 255.422 73.5962L256.573 75.4429C256.411 75.8566 256.189 76.2855 255.907 76.7295C255.634 77.1735 255.286 77.5923 254.862 77.9858C254.438 78.3693 253.929 78.6872 253.333 78.9395C252.738 79.1816 252.032 79.3027 251.214 79.3027C250.175 79.3027 249.231 79.0959 248.384 78.6821C247.546 78.2583 246.88 77.6781 246.386 76.9414C245.901 76.1947 245.659 75.347 245.659 74.3984C245.659 73.5407 245.821 72.7788 246.144 72.1128C246.466 71.4468 246.941 70.8867 247.566 70.4326C248.202 69.9684 248.994 69.6203 249.943 69.3882C250.891 69.146 251.991 69.0249 253.243 69.0249H255.771ZM267.214 66.1187V79H262.854V62.6221H266.941L267.214 66.1187ZM266.578 70.2358H265.397C265.397 69.0249 265.554 67.9351 265.867 66.9663C266.18 65.9875 266.618 65.1549 267.184 64.4688C267.749 63.7725 268.42 63.2427 269.197 62.8794C269.984 62.506 270.862 62.3193 271.831 62.3193C272.597 62.3193 273.299 62.4303 273.935 62.6523C274.57 62.8743 275.115 63.2275 275.569 63.7119C276.034 64.1963 276.387 64.8371 276.629 65.6343C276.881 66.4315 277.007 67.4053 277.007 68.5557V79H272.618V68.5405C272.618 67.814 272.517 67.2489 272.315 66.8452C272.113 66.4416 271.815 66.159 271.422 65.9976C271.038 65.826 270.564 65.7402 269.999 65.7402C269.414 65.7402 268.904 65.8563 268.47 66.0884C268.046 66.3205 267.693 66.6434 267.411 67.0571C267.138 67.4608 266.931 67.9351 266.79 68.48C266.649 69.0249 266.578 69.6102 266.578 70.2358ZM290.691 62.6221H294.642V78.4551C294.642 79.9486 294.309 81.215 293.643 82.2544C292.987 83.3039 292.068 84.096 290.888 84.6309C289.707 85.1758 288.335 85.4482 286.771 85.4482C286.084 85.4482 285.358 85.3574 284.591 85.1758C283.834 84.9941 283.107 84.7116 282.411 84.3281C281.725 83.9447 281.15 83.4603 280.686 82.875L282.608 80.3018C283.112 80.887 283.698 81.3411 284.364 81.6641C285.03 81.9971 285.766 82.1636 286.574 82.1636C287.361 82.1636 288.027 82.0173 288.572 81.7246C289.117 81.4421 289.535 81.0233 289.828 80.4683C290.121 79.9233 290.267 79.2624 290.267 78.4854V66.4062L290.691 62.6221ZM279.671 71.0078V70.6899C279.671 69.4386 279.823 68.3034 280.125 67.2842C280.438 66.2549 280.877 65.3719 281.442 64.6353C282.018 63.8986 282.714 63.3285 283.531 62.9248C284.349 62.5212 285.272 62.3193 286.301 62.3193C287.391 62.3193 288.304 62.5212 289.041 62.9248C289.778 63.3285 290.383 63.9036 290.857 64.6504C291.332 65.387 291.7 66.2599 291.962 67.269C292.235 68.2681 292.447 69.363 292.598 70.5537V71.25C292.447 72.3903 292.22 73.4499 291.917 74.4287C291.614 75.4076 291.216 76.2653 290.721 77.002C290.227 77.7285 289.611 78.2936 288.875 78.6973C288.148 79.1009 287.28 79.3027 286.271 79.3027C285.262 79.3027 284.349 79.0959 283.531 78.6821C282.724 78.2684 282.033 77.6882 281.458 76.9414C280.882 76.1947 280.438 75.3167 280.125 74.3076C279.823 73.2985 279.671 72.1986 279.671 71.0078ZM284.031 70.6899V71.0078C284.031 71.6839 284.096 72.3146 284.228 72.8999C284.359 73.4852 284.561 74.0049 284.833 74.459C285.116 74.903 285.464 75.2511 285.877 75.5034C286.301 75.7456 286.801 75.8667 287.376 75.8667C288.173 75.8667 288.824 75.7002 289.329 75.3672C289.833 75.0241 290.212 74.5549 290.464 73.9595C290.716 73.3641 290.862 72.6779 290.903 71.9009V69.918C290.883 69.2822 290.797 68.7121 290.646 68.2075C290.494 67.6929 290.282 67.2539 290.01 66.8906C289.737 66.5273 289.384 66.2448 288.95 66.043C288.516 65.8411 288.002 65.7402 287.406 65.7402C286.831 65.7402 286.332 65.8714 285.908 66.1338C285.494 66.3861 285.146 66.7342 284.863 67.1782C284.591 67.6222 284.384 68.147 284.243 68.7524C284.101 69.3478 284.031 69.9937 284.031 70.6899ZM305.57 79.3027C304.299 79.3027 303.159 79.1009 302.149 78.6973C301.14 78.2835 300.283 77.7134 299.576 76.9868C298.88 76.2603 298.345 75.4176 297.972 74.459C297.598 73.4902 297.412 72.4609 297.412 71.3711V70.7656C297.412 69.5244 297.588 68.3892 297.941 67.3599C298.295 66.3306 298.799 65.4375 299.455 64.6807C300.121 63.9238 300.928 63.3436 301.877 62.9399C302.826 62.5262 303.895 62.3193 305.086 62.3193C306.246 62.3193 307.276 62.5111 308.174 62.8945C309.072 63.278 309.824 63.8229 310.429 64.5293C311.045 65.2357 311.509 66.0833 311.822 67.0723C312.135 68.0511 312.291 69.141 312.291 70.3418V72.1582H299.273V69.252H308.007V68.9189C308.007 68.3135 307.896 67.7736 307.674 67.2993C307.462 66.8149 307.139 66.4315 306.706 66.1489C306.272 65.8664 305.717 65.7251 305.041 65.7251C304.465 65.7251 303.971 65.8512 303.557 66.1035C303.143 66.3558 302.805 66.709 302.543 67.1631C302.291 67.6172 302.099 68.152 301.968 68.7676C301.847 69.373 301.786 70.0391 301.786 70.7656V71.3711C301.786 72.027 301.877 72.6325 302.059 73.1875C302.25 73.7425 302.518 74.2218 302.861 74.6255C303.214 75.0291 303.638 75.342 304.132 75.564C304.637 75.786 305.207 75.897 305.843 75.897C306.63 75.897 307.361 75.7456 308.038 75.4429C308.724 75.13 309.314 74.6608 309.809 74.0352L311.928 76.3359C311.585 76.8304 311.115 77.3047 310.52 77.7588C309.935 78.2129 309.228 78.5863 308.401 78.8789C307.573 79.1615 306.63 79.3027 305.57 79.3027ZM319.133 66.0127V79H314.758V62.6221H318.86L319.133 66.0127ZM318.527 70.2358H317.316C317.316 69.0955 317.453 68.0461 317.725 67.0874C318.008 66.1187 318.416 65.2811 318.951 64.5747C319.496 63.8582 320.167 63.3032 320.964 62.9097C321.762 62.5161 322.685 62.3193 323.734 62.3193C324.461 62.3193 325.127 62.4303 325.732 62.6523C326.338 62.8643 326.858 63.2023 327.292 63.6665C327.736 64.1206 328.079 64.716 328.321 65.4526C328.563 66.1792 328.684 67.0521 328.684 68.0713V79H324.325V68.5557C324.325 67.8089 324.224 67.2337 324.022 66.8301C323.82 66.4264 323.533 66.1439 323.159 65.9824C322.796 65.821 322.357 65.7402 321.842 65.7402C321.277 65.7402 320.783 65.8563 320.359 66.0884C319.945 66.3205 319.602 66.6434 319.33 67.0571C319.057 67.4608 318.855 67.9351 318.724 68.48C318.593 69.0249 318.527 69.6102 318.527 70.2358ZM328.275 69.7363L326.716 69.9331C326.716 68.8634 326.847 67.8695 327.11 66.9512C327.382 66.0329 327.781 65.2256 328.306 64.5293C328.84 63.833 329.501 63.2931 330.289 62.9097C331.076 62.5161 331.984 62.3193 333.013 62.3193C333.8 62.3193 334.517 62.4354 335.163 62.6675C335.808 62.8895 336.358 63.2477 336.812 63.7422C337.277 64.2266 337.63 64.8623 337.872 65.6494C338.124 66.4365 338.25 67.4002 338.25 68.5405V79H333.876V68.5405C333.876 67.7837 333.775 67.2085 333.573 66.8149C333.382 66.4113 333.099 66.1338 332.726 65.9824C332.362 65.821 331.928 65.7402 331.424 65.7402C330.899 65.7402 330.44 65.8462 330.046 66.0581C329.653 66.2599 329.325 66.5425 329.062 66.9058C328.8 67.269 328.603 67.6929 328.472 68.1772C328.341 68.6515 328.275 69.1712 328.275 69.7363ZM349.164 79.3027C347.893 79.3027 346.752 79.1009 345.743 78.6973C344.734 78.2835 343.876 77.7134 343.17 76.9868C342.474 76.2603 341.939 75.4176 341.565 74.459C341.192 73.4902 341.005 72.4609 341.005 71.3711V70.7656C341.005 69.5244 341.182 68.3892 341.535 67.3599C341.888 66.3306 342.393 65.4375 343.049 64.6807C343.715 63.9238 344.522 63.3436 345.471 62.9399C346.419 62.5262 347.489 62.3193 348.68 62.3193C349.84 62.3193 350.869 62.5111 351.768 62.8945C352.666 63.278 353.417 63.8229 354.023 64.5293C354.639 65.2357 355.103 66.0833 355.416 67.0723C355.728 68.0511 355.885 69.141 355.885 70.3418V72.1582H342.867V69.252H351.601V68.9189C351.601 68.3135 351.49 67.7736 351.268 67.2993C351.056 66.8149 350.733 66.4315 350.299 66.1489C349.865 65.8664 349.31 65.7251 348.634 65.7251C348.059 65.7251 347.565 65.8512 347.151 66.1035C346.737 66.3558 346.399 66.709 346.137 67.1631C345.884 67.6172 345.693 68.152 345.562 68.7676C345.44 69.373 345.38 70.0391 345.38 70.7656V71.3711C345.38 72.027 345.471 72.6325 345.652 73.1875C345.844 73.7425 346.111 74.2218 346.455 74.6255C346.808 75.0291 347.232 75.342 347.726 75.564C348.231 75.786 348.801 75.897 349.437 75.897C350.224 75.897 350.955 75.7456 351.631 75.4429C352.318 75.13 352.908 74.6608 353.402 74.0352L355.521 76.3359C355.178 76.8304 354.709 77.3047 354.114 77.7588C353.528 78.2129 352.822 78.5863 351.995 78.8789C351.167 79.1615 350.224 79.3027 349.164 79.3027ZM362.636 66.1187V79H358.276V62.6221H362.363L362.636 66.1187ZM362 70.2358H360.819C360.819 69.0249 360.976 67.9351 361.289 66.9663C361.601 65.9875 362.04 65.1549 362.605 64.4688C363.171 63.7725 363.842 63.2427 364.619 62.8794C365.406 62.506 366.284 62.3193 367.252 62.3193C368.019 62.3193 368.721 62.4303 369.356 62.6523C369.992 62.8743 370.537 63.2275 370.991 63.7119C371.455 64.1963 371.809 64.8371 372.051 65.6343C372.303 66.4315 372.429 67.4053 372.429 68.5557V79H368.04V68.5405C368.04 67.814 367.939 67.2489 367.737 66.8452C367.535 66.4416 367.237 66.159 366.844 65.9976C366.46 65.826 365.986 65.7402 365.421 65.7402C364.836 65.7402 364.326 65.8563 363.892 66.0884C363.468 66.3205 363.115 66.6434 362.833 67.0571C362.56 67.4608 362.353 67.9351 362.212 68.48C362.071 69.0249 362 69.6102 362 70.2358ZM383.767 62.6221V65.71H374.23V62.6221H383.767ZM376.592 58.5806H380.951V74.0654C380.951 74.5397 381.012 74.903 381.133 75.1553C381.264 75.4076 381.456 75.5841 381.708 75.6851C381.96 75.7759 382.278 75.8213 382.662 75.8213C382.934 75.8213 383.176 75.8112 383.388 75.791C383.61 75.7607 383.797 75.7305 383.948 75.7002L383.963 78.9092C383.59 79.0303 383.186 79.1261 382.752 79.1968C382.319 79.2674 381.839 79.3027 381.314 79.3027C380.356 79.3027 379.518 79.1463 378.802 78.8335C378.095 78.5106 377.55 77.9959 377.167 77.2896C376.784 76.5832 376.592 75.6548 376.592 74.5044V58.5806ZM395.104 74.4741C395.104 74.1613 395.013 73.8787 394.832 73.6265C394.65 73.3742 394.312 73.1421 393.817 72.9302C393.333 72.7082 392.632 72.5063 391.713 72.3247C390.886 72.1431 390.114 71.916 389.397 71.6436C388.691 71.361 388.076 71.0229 387.551 70.6294C387.036 70.2358 386.632 69.7716 386.34 69.2368C386.047 68.6919 385.901 68.0713 385.901 67.375C385.901 66.6888 386.047 66.043 386.34 65.4375C386.643 64.832 387.071 64.2972 387.626 63.833C388.192 63.3587 388.878 62.9904 389.685 62.728C390.502 62.4556 391.421 62.3193 392.44 62.3193C393.863 62.3193 395.084 62.5464 396.103 63.0005C397.132 63.4546 397.919 64.0802 398.464 64.8774C399.019 65.6646 399.297 66.5627 399.297 67.5718H394.938C394.938 67.1479 394.847 66.7695 394.665 66.4365C394.493 66.0934 394.221 65.826 393.848 65.6343C393.484 65.4325 393.01 65.3315 392.425 65.3315C391.94 65.3315 391.522 65.4173 391.168 65.5889C390.815 65.7503 390.543 65.9723 390.351 66.2549C390.169 66.5273 390.079 66.8301 390.079 67.1631C390.079 67.4154 390.129 67.6424 390.23 67.8442C390.341 68.036 390.518 68.2126 390.76 68.374C391.002 68.5355 391.315 68.6868 391.698 68.8281C392.092 68.9593 392.576 69.0804 393.151 69.1914C394.332 69.4336 395.387 69.7515 396.315 70.145C397.243 70.5285 397.98 71.0532 398.525 71.7192C399.07 72.3752 399.342 73.238 399.342 74.3076C399.342 75.0342 399.181 75.7002 398.858 76.3057C398.535 76.9111 398.071 77.4409 397.465 77.895C396.86 78.339 396.133 78.6872 395.286 78.9395C394.448 79.1816 393.505 79.3027 392.455 79.3027C390.931 79.3027 389.64 79.0303 388.58 78.4854C387.531 77.9404 386.733 77.2492 386.188 76.4116C385.654 75.564 385.386 74.6961 385.386 73.8081H389.519C389.539 74.4035 389.69 74.8828 389.973 75.2461C390.265 75.6094 390.634 75.8717 391.078 76.0332C391.532 76.1947 392.021 76.2754 392.546 76.2754C393.111 76.2754 393.58 76.1997 393.954 76.0483C394.327 75.8869 394.61 75.675 394.801 75.4126C395.003 75.1401 395.104 74.8273 395.104 74.4741ZM215.461 111.897C215.996 111.897 216.471 111.796 216.884 111.594C217.298 111.382 217.621 111.09 217.853 110.716C218.095 110.333 218.221 109.884 218.231 109.369H222.333C222.323 110.52 222.016 111.544 221.41 112.442C220.805 113.33 219.992 114.031 218.973 114.546C217.954 115.05 216.814 115.303 215.552 115.303C214.281 115.303 213.171 115.091 212.222 114.667C211.284 114.243 210.502 113.658 209.876 112.911C209.25 112.154 208.781 111.276 208.468 110.277C208.155 109.268 207.999 108.188 207.999 107.038V106.599C207.999 105.439 208.155 104.359 208.468 103.36C208.781 102.351 209.25 101.473 209.876 100.726C210.502 99.9692 211.284 99.3789 212.222 98.9551C213.161 98.5312 214.261 98.3193 215.522 98.3193C216.864 98.3193 218.04 98.5767 219.049 99.0913C220.068 99.606 220.865 100.343 221.44 101.301C222.026 102.25 222.323 103.375 222.333 104.677H218.231C218.221 104.132 218.105 103.637 217.883 103.193C217.671 102.749 217.359 102.396 216.945 102.134C216.541 101.861 216.042 101.725 215.446 101.725C214.811 101.725 214.291 101.861 213.887 102.134C213.484 102.396 213.171 102.759 212.949 103.224C212.727 103.678 212.57 104.197 212.479 104.783C212.399 105.358 212.358 105.963 212.358 106.599V107.038C212.358 107.674 212.399 108.284 212.479 108.87C212.56 109.455 212.712 109.975 212.934 110.429C213.166 110.883 213.484 111.241 213.887 111.503C214.291 111.766 214.816 111.897 215.461 111.897ZM229.463 91.75V115H225.088V91.75H229.463ZM237.667 98.6221V115H233.292V98.6221H237.667ZM233.02 94.3535C233.02 93.7178 233.242 93.193 233.686 92.7793C234.13 92.3656 234.725 92.1587 235.472 92.1587C236.209 92.1587 236.799 92.3656 237.243 92.7793C237.697 93.193 237.924 93.7178 237.924 94.3535C237.924 94.9893 237.697 95.514 237.243 95.9277C236.799 96.3415 236.209 96.5483 235.472 96.5483C234.725 96.5483 234.13 96.3415 233.686 95.9277C233.242 95.514 233.02 94.9893 233.02 94.3535ZM245.629 102.013V115H241.254V98.6221H245.356L245.629 102.013ZM245.023 106.236H243.812C243.812 105.096 243.949 104.046 244.221 103.087C244.504 102.119 244.912 101.281 245.447 100.575C245.992 99.8582 246.663 99.3032 247.46 98.9097C248.258 98.5161 249.181 98.3193 250.23 98.3193C250.957 98.3193 251.623 98.4303 252.229 98.6523C252.834 98.8643 253.354 99.2023 253.788 99.6665C254.232 100.121 254.575 100.716 254.817 101.453C255.059 102.179 255.18 103.052 255.18 104.071V115H250.821V104.556C250.821 103.809 250.72 103.234 250.518 102.83C250.316 102.426 250.029 102.144 249.655 101.982C249.292 101.821 248.853 101.74 248.338 101.74C247.773 101.74 247.279 101.856 246.855 102.088C246.441 102.32 246.098 102.643 245.826 103.057C245.553 103.461 245.351 103.935 245.22 104.48C245.089 105.025 245.023 105.61 245.023 106.236ZM254.771 105.736L253.212 105.933C253.212 104.863 253.344 103.869 253.606 102.951C253.878 102.033 254.277 101.226 254.802 100.529C255.337 99.833 255.998 99.2931 256.785 98.9097C257.572 98.5161 258.48 98.3193 259.509 98.3193C260.296 98.3193 261.013 98.4354 261.659 98.6675C262.305 98.8895 262.854 99.2477 263.309 99.7422C263.773 100.227 264.126 100.862 264.368 101.649C264.62 102.437 264.747 103.4 264.747 104.541V115H260.372V104.541C260.372 103.784 260.271 103.208 260.069 102.815C259.878 102.411 259.595 102.134 259.222 101.982C258.858 101.821 258.424 101.74 257.92 101.74C257.395 101.74 256.936 101.846 256.542 102.058C256.149 102.26 255.821 102.542 255.559 102.906C255.296 103.269 255.099 103.693 254.968 104.177C254.837 104.652 254.771 105.171 254.771 105.736ZM276.962 111.307V104.011C276.962 103.486 276.876 103.037 276.705 102.664C276.533 102.28 276.266 101.982 275.902 101.771C275.549 101.559 275.09 101.453 274.525 101.453C274.041 101.453 273.622 101.538 273.269 101.71C272.915 101.871 272.643 102.109 272.451 102.421C272.259 102.724 272.164 103.082 272.164 103.496H267.804C267.804 102.8 267.966 102.139 268.289 101.513C268.611 100.888 269.081 100.338 269.696 99.8633C270.312 99.3789 271.043 99.0005 271.891 98.728C272.749 98.4556 273.708 98.3193 274.767 98.3193C276.039 98.3193 277.169 98.5312 278.158 98.9551C279.147 99.3789 279.924 100.015 280.489 100.862C281.064 101.71 281.352 102.77 281.352 104.041V111.049C281.352 111.947 281.407 112.684 281.518 113.259C281.629 113.824 281.791 114.319 282.002 114.743V115H277.598C277.386 114.556 277.224 114.001 277.113 113.335C277.012 112.659 276.962 111.983 276.962 111.307ZM277.537 105.025L277.567 107.492H275.13C274.555 107.492 274.056 107.558 273.632 107.689C273.208 107.82 272.86 108.007 272.587 108.249C272.315 108.481 272.113 108.754 271.982 109.066C271.861 109.379 271.8 109.722 271.8 110.096C271.8 110.469 271.886 110.807 272.058 111.11C272.229 111.403 272.476 111.635 272.799 111.806C273.122 111.968 273.501 112.048 273.935 112.048C274.59 112.048 275.161 111.917 275.645 111.655C276.129 111.392 276.503 111.069 276.765 110.686C277.038 110.303 277.179 109.939 277.189 109.596L278.339 111.443C278.178 111.857 277.956 112.285 277.673 112.729C277.401 113.174 277.053 113.592 276.629 113.986C276.205 114.369 275.695 114.687 275.1 114.939C274.505 115.182 273.798 115.303 272.981 115.303C271.942 115.303 270.998 115.096 270.15 114.682C269.313 114.258 268.647 113.678 268.152 112.941C267.668 112.195 267.426 111.347 267.426 110.398C267.426 109.541 267.587 108.779 267.91 108.113C268.233 107.447 268.707 106.887 269.333 106.433C269.969 105.968 270.761 105.62 271.709 105.388C272.658 105.146 273.758 105.025 275.009 105.025H277.537ZM292.734 98.6221V101.71H283.198V98.6221H292.734ZM285.56 94.5806H289.919V110.065C289.919 110.54 289.979 110.903 290.101 111.155C290.232 111.408 290.424 111.584 290.676 111.685C290.928 111.776 291.246 111.821 291.629 111.821C291.902 111.821 292.144 111.811 292.356 111.791C292.578 111.761 292.765 111.73 292.916 111.7L292.931 114.909C292.558 115.03 292.154 115.126 291.72 115.197C291.286 115.267 290.807 115.303 290.282 115.303C289.324 115.303 288.486 115.146 287.77 114.833C287.063 114.511 286.518 113.996 286.135 113.29C285.751 112.583 285.56 111.655 285.56 110.504V94.5806ZM299.818 98.6221V115H295.444V98.6221H299.818ZM295.171 94.3535C295.171 93.7178 295.393 93.193 295.837 92.7793C296.281 92.3656 296.877 92.1587 297.624 92.1587C298.36 92.1587 298.951 92.3656 299.395 92.7793C299.849 93.193 300.076 93.7178 300.076 94.3535C300.076 94.9893 299.849 95.514 299.395 95.9277C298.951 96.3415 298.36 96.5483 297.624 96.5483C296.877 96.5483 296.281 96.3415 295.837 95.9277C295.393 95.514 295.171 94.9893 295.171 94.3535ZM313.093 121.297V101.967L313.653 98.6221H317.483V121.297H313.093ZM302.74 106.978V106.66C302.74 105.408 302.876 104.273 303.148 103.254C303.431 102.225 303.845 101.347 304.39 100.62C304.935 99.8835 305.601 99.3184 306.388 98.9248C307.185 98.5212 308.103 98.3193 309.143 98.3193C310.142 98.3193 311.004 98.5212 311.731 98.9248C312.458 99.3285 313.068 99.8986 313.562 100.635C314.067 101.372 314.471 102.24 314.773 103.239C315.076 104.238 315.308 105.333 315.47 106.523V107.22C315.318 108.36 315.086 109.42 314.773 110.398C314.471 111.377 314.067 112.235 313.562 112.972C313.068 113.708 312.452 114.284 311.716 114.697C310.989 115.101 310.121 115.303 309.112 115.303C308.093 115.303 307.185 115.096 306.388 114.682C305.601 114.258 304.935 113.673 304.39 112.926C303.845 112.18 303.431 111.302 303.148 110.292C302.876 109.273 302.74 108.168 302.74 106.978ZM307.099 106.66V106.978C307.099 107.654 307.155 108.289 307.266 108.885C307.377 109.47 307.553 109.99 307.795 110.444C308.048 110.898 308.371 111.256 308.764 111.519C309.158 111.771 309.642 111.897 310.217 111.897C311.014 111.897 311.655 111.725 312.14 111.382C312.634 111.029 312.997 110.55 313.229 109.944C313.472 109.339 313.613 108.648 313.653 107.871V105.888C313.623 105.252 313.537 104.682 313.396 104.177C313.265 103.663 313.063 103.224 312.791 102.86C312.528 102.497 312.185 102.22 311.761 102.028C311.347 101.826 310.843 101.725 310.248 101.725C309.682 101.725 309.198 101.851 308.794 102.104C308.391 102.356 308.063 102.709 307.811 103.163C307.568 103.607 307.387 104.127 307.266 104.722C307.155 105.318 307.099 105.963 307.099 106.66ZM330.606 111.08V98.6221H334.966V115H330.864L330.606 111.08ZM331.091 107.719L332.377 107.689C332.377 108.779 332.251 109.793 331.999 110.731C331.747 111.66 331.368 112.467 330.864 113.153C330.359 113.829 329.723 114.359 328.957 114.743C328.19 115.116 327.286 115.303 326.247 115.303C325.45 115.303 324.713 115.192 324.037 114.97C323.371 114.738 322.796 114.379 322.312 113.895C321.837 113.401 321.464 112.77 321.191 112.003C320.929 111.226 320.798 110.292 320.798 109.203V98.6221H325.157V109.233C325.157 109.717 325.213 110.126 325.324 110.459C325.445 110.792 325.611 111.064 325.823 111.276C326.035 111.488 326.282 111.64 326.565 111.73C326.858 111.821 327.181 111.867 327.534 111.867C328.432 111.867 329.138 111.685 329.653 111.322C330.178 110.958 330.546 110.464 330.758 109.838C330.98 109.203 331.091 108.496 331.091 107.719ZM345.834 115.303C344.562 115.303 343.422 115.101 342.413 114.697C341.404 114.284 340.546 113.713 339.84 112.987C339.144 112.26 338.609 111.418 338.235 110.459C337.862 109.49 337.675 108.461 337.675 107.371V106.766C337.675 105.524 337.852 104.389 338.205 103.36C338.558 102.331 339.063 101.438 339.719 100.681C340.385 99.9238 341.192 99.3436 342.141 98.9399C343.089 98.5262 344.159 98.3193 345.35 98.3193C346.51 98.3193 347.539 98.5111 348.438 98.8945C349.336 99.278 350.087 99.8229 350.693 100.529C351.308 101.236 351.773 102.083 352.085 103.072C352.398 104.051 352.555 105.141 352.555 106.342V108.158H339.537V105.252H348.271V104.919C348.271 104.313 348.16 103.774 347.938 103.299C347.726 102.815 347.403 102.431 346.969 102.149C346.535 101.866 345.98 101.725 345.304 101.725C344.729 101.725 344.235 101.851 343.821 102.104C343.407 102.356 343.069 102.709 342.807 103.163C342.554 103.617 342.363 104.152 342.231 104.768C342.11 105.373 342.05 106.039 342.05 106.766V107.371C342.05 108.027 342.141 108.632 342.322 109.188C342.514 109.743 342.781 110.222 343.125 110.625C343.478 111.029 343.902 111.342 344.396 111.564C344.901 111.786 345.471 111.897 346.106 111.897C346.894 111.897 347.625 111.746 348.301 111.443C348.987 111.13 349.578 110.661 350.072 110.035L352.191 112.336C351.848 112.83 351.379 113.305 350.784 113.759C350.198 114.213 349.492 114.586 348.665 114.879C347.837 115.161 346.894 115.303 345.834 115.303ZM363.892 110.474C363.892 110.161 363.801 109.879 363.62 109.626C363.438 109.374 363.1 109.142 362.605 108.93C362.121 108.708 361.42 108.506 360.501 108.325C359.674 108.143 358.902 107.916 358.186 107.644C357.479 107.361 356.864 107.023 356.339 106.629C355.824 106.236 355.421 105.772 355.128 105.237C354.835 104.692 354.689 104.071 354.689 103.375C354.689 102.689 354.835 102.043 355.128 101.438C355.431 100.832 355.86 100.297 356.415 99.833C356.98 99.3587 357.666 98.9904 358.473 98.728C359.291 98.4556 360.209 98.3193 361.228 98.3193C362.651 98.3193 363.872 98.5464 364.891 99.0005C365.92 99.4546 366.708 100.08 367.252 100.877C367.807 101.665 368.085 102.563 368.085 103.572H363.726C363.726 103.148 363.635 102.77 363.453 102.437C363.282 102.093 363.009 101.826 362.636 101.634C362.272 101.432 361.798 101.332 361.213 101.332C360.729 101.332 360.31 101.417 359.957 101.589C359.603 101.75 359.331 101.972 359.139 102.255C358.958 102.527 358.867 102.83 358.867 103.163C358.867 103.415 358.917 103.642 359.018 103.844C359.129 104.036 359.306 104.213 359.548 104.374C359.79 104.535 360.103 104.687 360.486 104.828C360.88 104.959 361.364 105.08 361.939 105.191C363.12 105.434 364.175 105.751 365.103 106.145C366.031 106.528 366.768 107.053 367.313 107.719C367.858 108.375 368.13 109.238 368.13 110.308C368.13 111.034 367.969 111.7 367.646 112.306C367.323 112.911 366.859 113.441 366.253 113.895C365.648 114.339 364.921 114.687 364.074 114.939C363.236 115.182 362.293 115.303 361.243 115.303C359.719 115.303 358.428 115.03 357.368 114.485C356.319 113.94 355.521 113.249 354.977 112.412C354.442 111.564 354.174 110.696 354.174 109.808H358.307C358.327 110.403 358.478 110.883 358.761 111.246C359.053 111.609 359.422 111.872 359.866 112.033C360.32 112.195 360.809 112.275 361.334 112.275C361.899 112.275 362.368 112.2 362.742 112.048C363.115 111.887 363.398 111.675 363.589 111.413C363.791 111.14 363.892 110.827 363.892 110.474Z" fill="#222222"/>
<rect x="451" y="50" width="50" height="50" rx="16" fill="#E4E4E4"/>
<path d="M468.043 78.4977C466.362 78.4977 465 77.1354 465 75.4549V75.4549C465 73.7744 466.362 72.4121 468.043 72.4121L484.957 72.4121C486.638 72.4121 488 73.7744 488 75.4549V75.4549C488 77.1354 486.638 78.4977 484.957 78.4977L468.043 78.4977Z" fill="#212121"/>
<mask id="mask0_278_21989" style="mask-type:alpha" maskUnits="userSpaceOnUse" x="207" y="153" width="294" height="25">
<rect x="207" y="153.386" width="294" height="24.5" rx="12.25" fill="#D9D9D9"/>
</mask>
<g mask="url(#mask0_278_21989)">
<rect x="207" y="153.386" width="26.95" height="24.5" fill="#A8EC6C"/>
<rect x="238.955" y="153.386" width="24.5" height="24.5" fill="#A8EC6C"/>
<rect x="268.355" y="153.386" width="24.5" height="24.5" fill="#A8EC6C"/>
<rect x="297.756" y="153.386" width="24.5" height="24.5" fill="#FAC04F"/>
<rect x="327.154" y="153.386" width="24.5" height="24.5" fill="#FAC04F"/>
<rect x="356.555" y="153.386" width="24.5" height="24.5" fill="#FAC04F"/>
<rect x="415.355" y="153.386" width="24.5" height="24.5" fill="#E96B73"/>
<rect x="385.955" y="153.386" width="24.5" height="24.5" fill="#FAC04F"/>
<rect x="444.754" y="153.386" width="24.5" height="24.5" fill="#E96B73"/>
<rect x="474.051" y="153.386" width="26.95" height="24.5" fill="#E96B73"/>
</g>
<mask id="path-38-outside-1_278_21989" maskUnits="userSpaceOnUse" x="326.723" y="160.426" width="25" height="35" fill="black">
<rect fill="white" x="326.723" y="160.426" width="25" height="35"/>
<path fill-rule="evenodd" clip-rule="evenodd" d="M346.648 178.734L339.298 166.426L331.947 178.734C328.539 184.441 332.65 191.686 339.298 191.686C345.945 191.686 350.057 184.441 346.648 178.734Z"/>
</mask>
<path fill-rule="evenodd" clip-rule="evenodd" d="M346.648 178.734L339.298 166.426L331.947 178.734C328.539 184.441 332.65 191.686 339.298 191.686C345.945 191.686 350.057 184.441 346.648 178.734Z" fill="#212121"/>
<path d="M339.298 166.426L341.873 164.888L339.298 160.575L336.722 164.888L339.298 166.426ZM346.648 178.734L344.073 180.272L344.073 180.272L346.648 178.734ZM331.947 178.734L334.523 180.272L334.523 180.272L331.947 178.734ZM336.722 167.964L344.073 180.272L349.224 177.196L341.873 164.888L336.722 167.964ZM334.523 180.272L341.873 167.964L336.722 164.888L329.371 177.196L334.523 180.272ZM339.298 188.686C334.98 188.686 332.309 183.979 334.523 180.272L329.371 177.196C324.769 184.902 330.321 194.686 339.298 194.686V188.686ZM344.073 180.272C346.287 183.979 343.616 188.686 339.298 188.686V194.686C348.274 194.686 353.827 184.902 349.224 177.196L344.073 180.272Z" fill="white" mask="url(#path-38-outside-1_278_21989)"/>
<circle cx="339.298" cy="183.575" r="3.675" fill="white"/>
</svg>
