<svg width="282" height="175" viewBox="0 0 282 175" fill="none" xmlns="http://www.w3.org/2000/svg">
<path fill-rule="evenodd" clip-rule="evenodd" d="M40.2513 20.439V60.5169V60.5175V114.034H13.2109V60.5175V60.5169V20.439C13.2109 12.9641 19.2288 7 26.7713 7C30.5425 7 33.9125 8.51089 36.3197 10.8965C38.7268 13.3617 40.2513 16.7015 40.2513 20.439ZM40.2513 154.114V114.035H13.2109V154.114C13.2109 161.509 19.2288 167.553 26.691 167.553C34.2334 167.553 40.2513 161.509 40.2513 154.114Z" fill="#E96B73"/>
<path fill-rule="evenodd" clip-rule="evenodd" d="M40.2513 114.035H13.2109V154.114C13.2109 161.509 19.2288 167.553 26.691 167.553C34.2334 167.553 40.2513 161.509 40.2513 154.114V114.035ZM6.21094 20.439C6.21094 9.03889 15.4223 0 26.7712 0C32.4479 0 37.5721 2.2825 41.2471 5.92458L41.2878 5.96497L41.3279 6.00603C44.9125 9.67698 47.2513 14.7363 47.2513 20.439V154.114C47.2513 165.407 38.0671 174.553 26.691 174.553C15.368 174.553 6.21094 165.38 6.21094 154.114V20.439ZM13.2109 114.035V20.439C13.2109 12.9641 19.2288 7 26.7712 7C30.5425 7 33.9125 8.51089 36.3196 10.8965C38.7268 13.3617 40.2513 16.7015 40.2513 20.439V114.035H13.2109Z" fill="#212121"/>
<path d="M26.6603 167C19.2324 167 13.2109 160.978 13.2109 153.551L13.2109 20.0172C13.2109 12.5893 19.2324 6.56779 26.6603 6.56779V6.56779C34.0882 6.56779 40.1098 12.5893 40.1098 20.0172L40.1098 153.551C40.1098 160.978 34.0883 167 26.6603 167V167Z" fill="#212121"/>
<path d="M40.2513 60.5166H13.2109V114.034H40.2513V60.5166Z" fill="#FAC04F"/>
<path d="M40.2513 20.439V60.5175H13.2109V20.439C13.2109 12.9641 19.2288 7 26.7712 7C30.5425 7 33.9125 8.51089 36.3196 10.8965C38.7268 13.3617 40.2513 16.7015 40.2513 20.439Z" fill="#A8EB6C"/>
<path d="M40.2513 114.035V154.114C40.2513 161.509 34.2334 167.553 26.691 167.553C19.2288 167.553 13.2109 161.509 13.2109 154.114V114.035H40.2513Z" fill="#E96B73"/>
<path opacity="0.2" d="M40.3945 125.5C35.6732 169.9 13.8945 155 12.8945 146L11.8945 160.5L18.288 167L29.5994 170L41.8945 160.5L40.3945 125.5Z" fill="#212121"/>
<path d="M0 140C0 137.239 2.23858 135 5 135H23C25.7614 135 28 137.239 28 140C28 142.761 25.7614 145 23 145H5C2.23858 145 0 142.761 0 140Z" fill="#212121"/>
<path fill-rule="evenodd" clip-rule="evenodd" d="M0 147.484C1.4301 148.442 3.14985 149 5 149H23C27.9706 149 32 144.971 32 140C32 135.029 27.9706 131 23 131H5C3.14985 131 1.4301 131.558 0 132.516V140V147.484ZM0 140C0 142.761 2.23858 145 5 145H23C25.7614 145 28 142.761 28 140C28 137.239 25.7614 135 23 135H5C2.23858 135 0 137.239 0 140Z" fill="white"/>
<path d="M195.751 166.553C238.553 166.553 273.251 131.864 273.251 89.0728C273.251 46.2818 238.553 11.5928 195.751 11.5928C152.949 11.5928 118.251 46.2818 118.251 89.0728C118.251 131.864 152.949 166.553 195.751 166.553Z" fill="#205C7E"/>
<path fill-rule="evenodd" clip-rule="evenodd" d="M281.251 89.0728C281.251 136.284 242.969 174.553 195.751 174.553C148.533 174.553 110.251 136.284 110.251 89.0728C110.251 41.8615 148.533 3.59277 195.751 3.59277C242.969 3.59277 281.251 41.8615 281.251 89.0728ZM273.251 89.0728C273.251 131.864 238.553 166.553 195.751 166.553C152.949 166.553 118.251 131.864 118.251 89.0728C118.251 46.2818 152.949 11.5928 195.751 11.5928C238.553 11.5928 273.251 46.2818 273.251 89.0728Z" fill="#212121"/>
<path d="M253.09 77.7064C257.334 77.6306 262.071 77.1381 266.922 75.8499C266.922 75.8499 261.351 74.5996 253.09 74.4481C253.014 70.2047 252.521 65.4687 251.233 60.6191C251.233 60.6191 249.982 66.1886 249.831 74.4481C245.624 74.5239 240.925 74.9027 235.998 75.8499C235.998 75.8499 241.683 77.4412 249.831 77.6685C249.906 81.874 250.285 86.5721 251.233 91.4975C251.271 91.5354 252.862 85.8522 253.09 77.7064Z" fill="#FEFEFF"/>
<path d="M151.866 40.6151C156.111 40.5393 160.848 40.0468 165.699 38.7586C165.699 38.7586 160.128 37.5083 151.866 37.3568C151.79 33.1134 151.298 28.3774 150.009 23.5278C150.009 23.5278 148.759 29.0973 148.607 37.3568C144.4 37.4326 139.701 37.8114 134.774 38.7586C134.774 38.7586 140.459 40.3499 148.607 40.5772C148.683 44.7827 149.062 49.4808 150.009 54.4062C150.009 54.4441 151.639 48.7609 151.866 40.6151Z" fill="#FEFEFF"/>
<path d="M205.748 45.5928C213.699 46.8101 221.145 49.4729 228.164 53.3149C223.898 57.2711 243.292 67.9984 237.669 70.2047C233.558 71.8024 229.373 67.7637 229.994 72.0622C250.174 78.2402 237.344 79.9439 220.783 75.0743C220.977 77.2046 223.506 76.8161 221.295 77.0824C219.705 77.2726 222.335 78.3602 220.783 78.5884C219.62 78.7406 222.071 79.2195 221.295 80.0945C219.86 81.6541 221.916 79.5844 221.295 81.6005C220.52 84.1112 225.488 81.3406 213.893 87.1227C236.115 84.1555 226.366 99.9543 225.9 100.677C224.582 102.845 215.909 100.159 213.893 101.681C212.69 102.594 215.303 107.88 214.643 109.211C212.472 113.472 221.853 110.055 222.318 114.733C222.474 116.217 213.829 114.482 214.643 115.737C216.389 118.438 221.767 112.253 224.365 114.231C226.925 116.133 224.922 117.533 227.947 116.239C229.77 115.479 232.187 120.4 234.087 119.754C234.901 119.487 233.35 122.621 234.087 123.268C236.026 124.941 241.095 128.637 241.25 131.3C241.328 132.783 233.117 142.709 234.087 143.85C236.336 146.437 234.064 144.231 232.552 147.198C231.466 149.366 232.164 149.524 232.552 151.882C233.134 155.23 222.704 157.859 223.751 161.093C220.804 162.196 214.862 157.963 211.837 157.887C208.618 157.849 205.399 157.621 202.18 157.126C190.701 155.301 180.424 150.888 171.31 143.85C170.922 143.546 170.573 143.128 169.991 143.28L170.03 143.242C169.991 143.128 169.914 142.976 169.875 142.861C169.409 141.606 166.937 140.658 167.751 139.593C170.505 135.979 166.246 140.337 162.251 138.093C159.635 149.048 154.813 145.274 161.251 135.593C158.691 134.49 158.811 139.62 156.251 138.593C154.622 137.946 157.465 126.504 156.883 124.906C156.379 123.537 155.487 122.472 154.323 121.597C153.47 120.95 152.694 120.228 151.88 119.543C151.764 119.429 151.647 119.353 151.531 119.238V119.277C151.57 118.478 151.221 117.793 150.91 117.108C147.847 109.728 146.256 102.044 146.256 94.094C146.256 91.1649 146.179 88.2358 146.606 85.3067C148.04 84.0894 149.786 84.3937 151.453 84.2796C153.703 84.1274 154.246 83.5949 154.478 81.4646C154.517 81.0081 154.556 80.5517 154.556 80.0952C154.672 78.1932 155.467 75.7179 157.251 76.5928C157.6 76.783 159.402 76.9026 159.751 77.0928C160.798 77.7395 160.412 80.4375 161.614 79.4865C162.972 78.4595 163.359 77.3563 162.816 75.7586C162.39 74.5033 161.886 73.286 161.459 72.0687C160.49 69.4059 160.955 68.4169 163.592 67.3898C163.825 67.3137 164.057 67.1996 164.329 67.1235C165.919 66.4768 165.997 66.2105 164.949 64.8411C164.794 64.6509 164.639 64.4607 164.484 64.2324C163.437 62.825 163.592 61.874 165.066 60.961C166.501 60.0861 168.13 59.5155 169.72 58.9449C171.542 58.2982 174.561 57.6908 174.251 59.5928C174.018 61.0763 175.057 63.0712 175.251 64.5928C175.522 66.5709 171.812 66.2395 173.751 65.5928C174.371 65.4026 175.925 66.705 176.351 66.2486C178.64 63.852 181.626 63.0532 184.728 62.4065C187.21 61.912 189.692 61.5696 191.981 60.4284C198.496 57.0809 202.684 51.8314 205.748 45.5928Z" fill="#617B86"/>
<path d="M227.751 155.593C226.728 152.372 226.282 153.965 225.751 150.593C225.372 148.244 228.19 147.252 229.251 145.093C231.251 140.093 227.751 137.093 227.751 134.593C227.751 129.593 234.251 131.093 235.251 127.593C236.764 122.297 233.646 126.798 231.751 125.093C229.251 123.593 229.751 122.093 229.751 121.093C229.751 119.593 227.57 117.297 225.751 118.093C222.795 119.381 222.751 118.093 222.251 117.593C221.751 116.093 220.251 116.093 220.251 116.093C218.751 116.093 218.251 116.593 217.251 116.593C213.251 118.093 210.129 117.336 212.251 113.093C212.934 111.729 208.751 112.093 209.751 110.093C209.251 110.093 208.001 108.093 207.751 107.593C206.251 104.593 208.251 105.593 208.251 105.593C211.751 107.093 208.993 105.093 209.751 102.593C210.358 100.585 213 95.5928 214.251 93.0928C215.251 91.0928 210.152 86.2443 211.251 86.0928C213.751 83.2166 208.251 84.0928 211.251 82.5928C213.251 83.0928 213.751 80.8316 215.251 81.5928C218.896 83.4426 217.751 75.3957 217.751 75.3957C217.751 67.0928 224.751 76.5928 228.751 68.5928C234.251 59.5928 223.832 57.3612 228.001 53.4209C235.77 57.778 242.213 63.6505 247.632 70.6976C247.784 70.8871 247.973 71.0765 248.125 71.2659C249.678 73.7286 251.27 76.2292 252.824 78.6919C256.159 85.0949 258.546 91.801 259.721 98.9238C259.911 100.098 259.986 101.311 260.138 102.485C258.774 103.736 258.198 97.5015 257.251 99.0928C256.304 100.684 256.178 104.093 253.751 101.093C244.868 86.1986 248.448 109.532 248.751 110.593C250.343 115.708 254.768 122.728 250.751 126.593C248.363 128.904 245.827 130.797 245.751 134.093C245.713 136.707 245.35 139.744 244.251 142.093C242.356 146.109 239.79 148.493 237.251 152.093C235.811 153.608 233.383 155.831 231.98 157.384C229.29 159.013 226.447 160.34 223.453 161.249C222.317 159.923 228.395 157.222 227.751 155.593Z" fill="#617B86"/>
<path d="M153.381 119.269C154.177 119.951 154.935 120.671 155.769 121.315C156.906 122.186 157.778 123.247 158.27 124.611C158.839 126.24 160.659 133.949 162.251 134.593C164.251 135.593 161.75 135.994 164.251 137.093C164.554 137.244 168.448 137.403 168.751 137.593C169.251 137.593 170.966 138.093 169.751 140.593C168.955 141.654 170.251 142.093 170.966 142.494C171.251 142.593 171.251 142.593 171.117 142.873L171.751 143.093C171.978 144.267 171.496 145.298 171.724 146.472C172.254 149.276 171.383 151.095 168.806 152.459C168.237 152.762 167.631 153.027 167.024 153.292C164.485 154.391 163.121 156.361 162.969 159.127C158.157 157.081 153.76 154.315 149.554 151.246C147.432 149.693 145.423 148.101 143.566 146.245C143.111 144.692 147.356 137.305 146.257 136.093C143.566 130.593 146.257 130.093 145.751 128.093C145.41 125.782 137.086 128.093 137.048 119.08C136.024 114.003 133.523 117.261 130.984 112.677C130.378 109.797 130.833 106.918 131.022 104.114C131.477 97.8626 132.917 91.7627 135.267 85.928C141.709 70.091 152.623 58.4217 168.048 51.0336C178.053 46.2219 188.664 44.4033 199.692 44.9716C201.776 45.0852 203.899 45.3126 205.945 45.7672C202.951 51.9808 198.858 57.2092 192.529 60.4297C190.293 61.5663 187.83 61.9073 185.443 62.3998C182.411 63.006 179.493 63.8396 177.257 66.2265C176.84 66.6811 176.196 67.0221 175.589 67.2116C173.694 67.8556 172.406 67.0221 172.141 65.052C171.951 63.5365 172.444 62.0589 172.671 60.5812C172.936 58.6869 172.557 58.308 170.776 58.9521C169.223 59.5204 167.631 60.0887 166.229 60.9601C164.751 61.8694 164.637 62.8166 165.66 64.2184C165.812 64.4079 165.963 64.5973 166.115 64.8246C167.138 66.1886 167.062 66.4159 165.509 67.0979C165.281 67.2116 165.054 67.2873 164.789 67.3631C162.212 68.3861 161.757 69.409 162.704 72.0233C163.159 73.2736 163.614 74.486 164.031 75.6984C164.561 77.2896 164.144 78.3884 162.856 79.4113C161.681 80.3206 160.696 79.7902 159.672 79.1461C159.331 78.9188 158.99 78.6915 158.649 78.5399C156.906 77.6685 156.072 78.1232 155.958 80.0175C155.921 80.4722 155.921 80.9268 155.883 81.3815C155.655 83.5411 155.125 84.0336 152.927 84.1852C151.297 84.2988 149.554 83.9957 148.19 85.2081C147.09 85.8143 146.598 86.8752 146.257 87.9739C144.892 92.2552 142.202 95.6272 138.412 97.7489C135.721 99.2644 134.736 101.197 134.736 104.076C134.736 107.221 135.077 110.176 137.086 112.752C137.844 113.7 138.639 114.116 139.814 113.737C142.126 112.98 144.248 113.472 146.257 114.798C148.455 116.276 150.767 117.64 153.002 119.08C153.192 119.08 153.306 119.155 153.381 119.269Z" fill="#4B5A59"/>
<path d="M230.2 19.6631C233.383 16.4426 237.173 14.5861 241.759 14.6619C253.279 14.8135 260.404 27.6194 254.492 37.546C254.378 37.7733 254.265 38.0006 254.113 38.1901C251.271 41.9409 247.633 44.1763 242.933 44.7825C235.089 45.7676 227.282 39.4025 226.562 31.5597C226.107 27.0132 227.471 23.1866 230.2 19.6631Z" fill="#FAC04F"/>
<path d="M236.263 152.838C238.84 149.238 241.417 145.639 243.312 141.623C244.411 139.274 245.017 136.811 245.055 134.197C245.131 130.901 246.078 127.87 248.466 125.559C252.483 121.656 240.343 116.208 238.751 111.093C238.41 110.032 242.751 94.5929 243.751 91.5929C246.251 87.0929 249.751 94.0928 255.751 92.093C257.751 90.0928 258.774 103.773 260.138 102.523C261.578 115.746 259.191 128.249 253.013 140.032C252.824 140.373 252.483 140.676 252.672 141.13V141.055C252.293 141.13 252.255 141.396 252.331 141.737C250.55 144.199 248.2 146.056 245.964 147.988C245.206 148.632 244.6 149.428 243.615 149.807C243.463 149.92 243.349 150.034 243.198 150.11H243.236C242.895 150.148 242.705 150.337 242.592 150.64C242.554 150.716 242.516 150.716 242.44 150.716C241.796 150.678 241.303 150.981 240.735 151.171C239.257 151.777 237.892 152.686 236.263 152.838Z" fill="#617B86"/>
<path d="M131.06 112.677C133.599 117.262 139.228 113.516 140.251 118.593C139.17 127.593 149.251 127.593 147.751 130.593C145.751 132.593 145.751 134.093 147.751 139.388C148.85 140.6 143.187 144.692 143.642 146.246C142.012 144.882 140.345 143.48 139.17 141.661C139.17 141.207 139.056 140.79 138.526 140.714L138.488 140.752C138.829 140.184 138.336 139.805 138.147 139.388C134.167 131.848 131.932 123.74 131.098 115.254C130.984 114.42 131.06 113.549 131.06 112.677Z" fill="#5D757F"/>
<path d="M269.007 91.6111C268.969 91.8763 267.112 93.6191 266.885 93.5812C266.62 93.5434 264.801 91.649 264.914 91.4974C265.521 90.7397 266.127 89.944 267.037 89.4894C267.188 89.4136 269.007 91.4217 269.007 91.6111Z" fill="#FEFEFF"/>
<path d="M131.553 79.7147C131.553 79.9799 129.62 81.8364 129.469 81.7227C128.673 81.2302 128.029 80.5103 127.46 79.7526C127.346 79.601 129.203 77.6309 129.469 77.6309C129.696 77.6309 131.553 79.4873 131.553 79.7147Z" fill="#FEFEFF"/>
<path d="M192.075 21.5195C192.302 21.5195 194.197 23.3002 194.197 23.5655C194.197 23.7928 192.226 25.6493 192.075 25.5735C191.279 25.081 190.635 24.3611 190.066 23.6033C189.915 23.4139 191.81 21.5195 192.075 21.5195Z" fill="#FEFEFF"/>
<path d="M206.097 35.8784C205.869 35.9163 203.974 34.1356 203.937 33.8704C203.937 33.6431 205.793 31.7487 206.021 31.8245C206.893 32.2412 207.461 33.0369 208.067 33.7567C208.219 33.9462 206.4 35.8406 206.097 35.8784Z" fill="#FEFEFF"/>
<path d="M163.046 159.203C163.197 156.437 164.524 154.467 167.101 153.368C167.707 153.103 168.276 152.838 168.882 152.534C171.421 151.208 172.293 149.39 171.8 146.548C171.573 145.374 171.383 144.161 171.156 142.987C171.762 142.835 172.065 143.252 172.444 143.555C181.35 150.564 191.431 154.959 202.611 156.778C205.756 157.27 208.902 157.498 212.047 157.536C215.003 157.573 234.371 153.654 237.251 152.593C237.895 154.222 236.751 155.593 223.416 161.249C219.551 162.991 215.458 163.976 211.365 164.886C204.885 166.288 198.328 166.704 191.734 166.363C181.691 165.871 172.065 163.635 163.046 159.203Z" fill="#5D757F"/>
<path d="M236.263 152.838C237.892 152.686 239.257 151.739 240.735 151.171C241.303 150.943 241.834 150.64 242.44 150.716C239.219 153.33 235.732 155.603 231.942 157.384C233.382 155.907 234.823 154.391 236.263 152.838Z" fill="#5D757F"/>
<path d="M138.488 140.789C139.057 140.865 139.133 141.282 139.133 141.736C138.867 141.433 138.375 141.32 138.488 140.789Z" fill="#205C7E"/>
<path d="M242.592 150.678C242.705 150.375 242.895 150.185 243.236 150.147C243.047 150.299 242.819 150.489 242.592 150.678Z" fill="#5D757F"/>
<path d="M252.332 141.737C252.256 141.434 252.294 141.168 252.673 141.055C252.938 141.472 252.521 141.547 252.332 141.737Z" fill="#205C7E"/>
<path d="M243.236 150.148C243.388 150.034 243.502 149.921 243.653 149.845C243.502 149.921 243.35 150.034 243.236 150.148Z" fill="#5D757F"/>
<path d="M153.079 119.004C150.843 117.564 148.569 116.2 146.333 114.722C144.324 113.396 142.24 112.904 139.891 113.662C138.716 114.041 137.882 113.624 137.162 112.677C135.115 110.1 134.774 107.145 134.812 104C134.812 101.121 135.798 99.1886 138.488 97.6731C142.316 95.5514 145.007 92.1794 146.333 87.8981C146.674 86.7994 147.205 85.7385 148.266 85.1323C147.849 88.0497 147.963 90.967 147.925 93.8843C147.925 101.841 149.479 109.456 152.472 116.806C152.776 117.526 153.079 118.208 153.079 119.004Z" fill="#5D757F"/>
<path d="M153.382 119.269C153.268 119.155 153.155 119.08 153.041 118.966C153.193 119.08 153.306 119.155 153.382 119.269Z" fill="#5D757F"/>
<path d="M201.22 91.0648C203.074 84.7727 209.252 86.0306 211.724 84.7727C217.975 76.2842 220.975 87.4594 227.789 82.2558C242 79.739 245.09 96.7277 236.439 99.8738C229.519 102.391 229.437 98.8251 230.26 96.7277C230.755 95.4694 231.496 92.3234 227.789 92.3234C220.349 92.3234 217.285 98.6153 222.228 99.8738C227.171 101.132 227.789 106.795 227.789 111.829C227.789 116.863 225.317 114.346 219.139 114.346C212.96 114.346 211.724 115.604 209.253 118.12L209.252 118.121C206.781 120.638 203.691 120.009 201.22 115.604C198.749 111.2 201.22 111.2 206.163 106.795C211.106 102.391 208.017 99.2447 206.163 99.8738C203.819 100.67 199.367 97.3569 201.22 91.0648Z" fill="#4B5A59"/>
</svg>
