<svg width="285" height="344" viewBox="0 0 285 344" fill="none" xmlns="http://www.w3.org/2000/svg">
<rect x="1.5" y="1.5" width="282" height="340.172" rx="30.5" stroke="#212121" stroke-width="3"/>
<path d="M95.5003 164.841C128.29 164.841 154.872 138.266 154.872 105.485C154.872 72.7035 128.29 46.1289 95.5003 46.1289C62.7104 46.1289 36.1289 72.7035 36.1289 105.485C36.1289 138.266 62.7104 164.841 95.5003 164.841Z" fill="#205C7E"/>
<path fill-rule="evenodd" clip-rule="evenodd" d="M161 105.485C161 141.652 131.673 170.969 95.5 170.969C59.3268 170.969 30 141.652 30 105.485C30 69.317 59.3268 40 95.5 40C131.673 40 161 69.317 161 105.485ZM154.871 105.485C154.871 138.266 128.29 164.841 95.5 164.841C62.7101 164.841 36.1287 138.266 36.1287 105.485C36.1287 72.7033 62.7101 46.1287 95.5 46.1287C128.29 46.1287 154.871 72.7033 154.871 105.485Z" fill="#212121"/>
<path d="M139.426 96.7768C142.677 96.7187 146.306 96.3414 150.022 95.3546C150.022 95.3546 145.755 94.3967 139.426 94.2806C139.368 91.0298 138.99 87.4017 138.003 83.6865C138.003 83.6865 137.045 87.9532 136.929 94.2806C133.706 94.3387 130.106 94.6289 126.332 95.3546C126.332 95.3546 130.687 96.5736 136.929 96.7477C136.987 99.9695 137.277 103.569 138.003 107.342C138.032 107.371 139.251 103.017 139.426 96.7768Z" fill="#FEFEFF"/>
<path d="M61.8807 68.3617C65.1324 68.3037 68.7614 67.9264 72.4776 66.9395C72.4776 66.9395 68.2098 65.9817 61.8807 65.8656C61.8227 62.6148 61.4453 58.9867 60.4582 55.2715C60.4582 55.2715 59.5001 59.5382 59.384 65.8656C56.1613 65.9236 52.5613 66.2139 48.7871 66.9395C48.7871 66.9395 53.142 68.1586 59.384 68.3327C59.442 71.5545 59.7323 75.1536 60.4582 78.9268C60.4582 78.9558 61.7065 74.6021 61.8807 68.3617Z" fill="#FEFEFF"/>
<path d="M103.397 72.2803C109.349 73.2091 114.923 75.2408 120.178 78.1723C116.985 81.1909 113.704 84.0354 109.494 85.7188C106.417 86.9379 106.359 87.5474 106.823 90.8272C106.823 90.9143 106.852 90.9723 106.852 91.0594C106.997 92.6848 106.562 93.2073 104.907 93.4104C103.717 93.5556 102.526 93.7007 101.365 93.8748C100.494 93.9909 99.7392 94.3392 99.1586 95.0068C98.0844 96.1968 97.2424 97.532 96.7779 99.0703C96.1973 100.986 96.4876 102.756 98.1424 104.063C98.7521 104.556 98.6941 104.933 98.3457 105.485C97.3586 107.139 96.1682 108.59 94.6586 109.751C93.7585 110.448 92.9747 111.232 92.4811 112.248C90.8553 115.498 90.4779 118.923 90.8263 122.493C90.9424 123.625 91.1456 124.728 91.7553 125.686C93.0618 127.747 94.6586 129.576 96.6037 131.085C98.5199 132.536 100.523 132.913 102.788 131.927C104.152 131.346 105.604 130.853 107.026 130.359C107.636 130.156 108.333 130.011 108.884 130.504C110.336 131.781 111.526 133.262 111.643 135.293C111.701 136.425 112.02 137.412 112.746 138.283C114.43 140.257 114.546 142.346 113.414 144.61C112.601 146.265 112.514 148.006 112.804 149.806C113.239 152.36 113.994 154.827 114.778 157.294C112.572 158.136 110.22 158.02 107.955 157.962C105.546 157.933 103.136 157.759 100.726 157.381C92.1327 155.988 84.4391 152.621 77.6165 147.252C77.3262 147.02 77.0649 146.7 76.6294 146.816L76.6584 146.787C76.6294 146.7 76.5713 146.584 76.5423 146.497C76.1939 145.539 76.3971 144.727 77.0068 143.914C79.0681 141.156 78.7778 139.85 75.7875 138.138C75.5552 137.993 75.3229 137.877 75.0617 137.761C73.1455 136.919 71.2584 136.077 69.3423 135.293C68.1229 134.8 67.2519 134.016 66.8164 132.797C66.439 131.752 65.7713 130.94 64.9003 130.272C64.2616 129.779 63.6809 129.227 63.0713 128.705C62.9842 128.618 62.8971 128.56 62.81 128.473V128.502C62.839 127.892 62.5777 127.37 62.3454 126.847C60.0519 121.216 58.8616 115.353 58.8616 109.287C58.8616 107.052 58.8035 104.817 59.1228 102.582C60.197 101.654 61.5035 101.886 62.7519 101.799C64.4358 101.683 64.8422 101.276 65.0164 99.6508C65.0455 99.3025 65.0745 98.9542 65.0745 98.6059C65.1616 97.1547 65.8003 96.8064 67.1358 97.4739C67.3971 97.6191 67.6584 97.7932 67.9197 97.9383C68.7035 98.4318 69.4584 98.8671 70.3584 98.1415C71.3745 97.3578 71.6649 96.5161 71.2584 95.2971C70.939 94.3392 70.5616 93.4104 70.2423 92.4816C69.5165 90.4499 69.8648 89.6952 71.8391 88.9116C72.0132 88.8535 72.1874 88.7664 72.3907 88.7084C73.581 88.215 73.6391 88.0118 72.8552 86.9669C72.7391 86.8218 72.6229 86.6767 72.5068 86.5025C71.7229 85.4286 71.8391 84.703 72.9423 84.0064C74.0165 83.3388 75.2359 82.9034 76.4262 82.468C77.7907 81.9746 78.1101 82.2649 77.8778 83.7161C77.7036 84.8481 77.3262 85.9801 77.4713 87.141C77.6746 88.6503 78.6617 89.2889 80.1133 88.7955C80.5778 88.6503 81.0714 88.3891 81.3907 88.0408C83.1036 86.2122 85.3391 85.6027 87.6617 85.1093C89.5198 84.732 91.3779 84.4708 93.0908 83.6C97.9682 81.0458 101.104 77.0404 103.397 72.2803Z" fill="#74CBED"/>
<path d="M114.807 157.295C114.023 154.828 113.239 152.39 112.833 149.806C112.543 148.007 112.63 146.265 113.443 144.611C114.546 142.347 114.459 140.228 112.775 138.284C112.049 137.442 111.73 136.426 111.672 135.294C111.555 133.262 110.365 131.811 108.914 130.505C108.362 130.011 107.665 130.157 107.055 130.36C105.633 130.853 104.21 131.318 102.817 131.927C100.552 132.914 98.5489 132.537 96.6328 131.085C94.6586 129.605 93.0908 127.776 91.7844 125.687C91.1747 124.729 90.9715 123.626 90.8553 122.494C90.5069 118.924 90.8844 115.499 92.5102 112.248C93.0328 111.203 93.8166 110.449 94.6876 109.752C96.1973 108.562 97.3876 107.111 98.3747 105.485C98.7231 104.905 98.7812 104.528 98.1715 104.063C96.5167 102.757 96.2263 100.986 96.807 99.0708C97.2715 97.5325 98.0844 96.1973 99.1876 95.0073C99.7973 94.3397 100.552 93.9914 101.394 93.8753C102.584 93.7012 103.775 93.5561 104.936 93.4109C106.591 93.2078 107.026 92.6853 106.881 91.0599C106.881 90.9729 106.881 90.9148 106.852 90.8277C106.388 87.5479 106.446 86.9674 109.523 85.7193C113.733 84.0359 117.014 81.1914 120.207 78.1729C126.159 81.5107 131.094 86.0096 135.246 91.4082C135.362 91.5534 135.507 91.6985 135.623 91.8436C136.814 93.7302 138.033 95.6459 139.223 97.5325C141.778 102.438 143.607 107.575 144.507 113.032C144.652 113.932 144.711 114.86 144.827 115.76C143.781 116.718 142.765 117.763 142.04 118.982C141.314 120.201 140.53 121.159 139.078 121.507C138.323 121.681 138.091 122.204 138.323 123.016C139.543 126.935 138.962 130.447 135.885 133.407C134.056 135.178 133.33 137.5 133.272 140.025C133.243 142.028 132.778 143.914 131.936 145.714C130.485 148.791 128.481 151.548 126.536 154.305C125.433 155.466 124.33 156.627 123.256 157.817C121.194 159.065 119.017 160.081 116.723 160.778C115.852 159.762 115.301 158.543 114.807 157.295Z" fill="#A8EB6C"/>
<path d="M63.0418 128.618C63.6515 129.14 64.2321 129.692 64.8708 130.185C65.7418 130.853 66.4096 131.666 66.787 132.71C67.2225 133.959 68.0934 134.713 69.3128 135.207C71.2289 135.99 73.1161 136.832 75.0322 137.674C75.2645 137.79 75.5257 137.906 75.758 138.051C78.7483 139.764 79.0387 141.07 76.9774 143.827C76.3677 144.64 76.1645 145.452 76.5129 146.41C76.5419 146.497 76.5999 146.613 76.629 146.7L76.5999 146.73C76.7741 147.629 76.9193 148.558 77.0935 149.458C77.5 151.606 76.8322 152.999 74.858 154.044C74.4225 154.276 73.958 154.479 73.4935 154.682C71.5483 155.524 70.5031 157.033 70.387 159.152C66.6999 157.585 63.3321 155.466 60.1095 153.115C58.4837 151.925 56.945 150.706 55.5224 149.284C55.174 148.094 54.5934 147.02 53.7514 146.091C52.1837 144.349 50.8772 142.521 50.5288 140.112C50.2675 138.341 49.8901 136.571 49.5417 134.8C48.7578 130.911 47.8288 127.08 45.8836 123.568C45.4191 121.362 45.7675 119.156 45.9127 117.008C46.261 112.219 47.3643 107.546 49.1643 103.076C54.0998 90.9436 62.4611 82.0039 74.2773 76.344C81.9419 72.6578 90.071 71.2647 98.5194 71.7C100.116 71.7871 101.742 71.9613 103.31 72.3095C101.016 77.0696 97.8807 81.0751 93.0323 83.5422C91.3194 84.413 89.4323 84.6742 87.6032 85.0515C85.2806 85.5159 83.0451 86.1544 81.3322 87.983C81.0129 88.3313 80.5193 88.5925 80.0548 88.7377C78.6032 89.2311 77.6161 88.5925 77.4129 87.0833C77.2677 85.9223 77.6451 84.7903 77.8193 83.6583C78.0225 82.2071 77.7322 81.9168 76.3677 82.4102C75.1774 82.8456 73.958 83.281 72.8838 83.9486C71.7515 84.6452 71.6644 85.3708 72.4483 86.4447C72.5644 86.5898 72.6806 86.7349 72.7967 86.9091C73.5806 87.954 73.5225 88.1281 72.3322 88.6506C72.158 88.7377 71.9838 88.7957 71.7806 88.8538C69.8064 89.6374 69.458 90.4211 70.1838 92.4238C70.5322 93.3817 70.8806 94.3105 71.1999 95.2393C71.6064 96.4583 71.287 97.3 70.2999 98.0837C69.3999 98.7803 68.6451 98.374 67.8612 97.8805C67.5999 97.7064 67.3386 97.5322 67.0773 97.4161C65.7418 96.7486 65.1031 97.0969 65.016 98.5481C64.987 98.8964 64.987 99.2447 64.9579 99.593C64.7837 101.247 64.3773 101.625 62.6934 101.741C61.445 101.828 60.1095 101.596 59.0644 102.525C58.2224 102.989 57.845 103.802 57.5837 104.643C56.5385 107.923 54.4772 110.506 51.574 112.132C49.5127 113.293 48.7578 114.773 48.7578 116.979C48.7578 119.388 49.0191 121.652 50.5578 123.626C51.1385 124.351 51.7482 124.671 52.6482 124.38C54.4192 123.8 56.045 124.177 57.5837 125.193C59.2676 126.325 61.0386 127.37 62.7515 128.473C62.8966 128.473 62.9837 128.531 63.0418 128.618Z" fill="#A8EB6C"/>
<path d="M121.89 52.3115C124.329 49.8444 127.232 48.4222 130.745 48.4802C139.571 48.5963 145.029 58.4068 140.5 66.0113C140.413 66.1854 140.326 66.3596 140.21 66.5047C138.032 69.3782 135.245 71.0907 131.645 71.5551C125.635 72.3097 119.655 67.4335 119.103 61.4254C118.755 57.9424 119.8 55.0108 121.89 52.3115Z" fill="#FAC04F"/>
<path d="M126.535 154.333C128.509 151.576 130.484 148.818 131.935 145.742C132.777 143.942 133.242 142.056 133.271 140.053C133.329 137.528 134.055 135.206 135.884 133.435C138.961 130.446 139.542 126.963 138.322 123.044C138.061 122.232 138.322 121.709 139.077 121.535C140.529 121.187 141.313 120.229 142.038 119.01C142.764 117.791 143.78 116.746 144.826 115.788C145.929 125.918 144.1 135.496 139.367 144.523C139.222 144.784 138.961 145.016 139.106 145.365V145.306C138.816 145.365 138.787 145.568 138.845 145.829C137.48 147.716 135.68 149.138 133.967 150.618C133.387 151.111 132.922 151.721 132.167 152.011C132.051 152.098 131.964 152.185 131.848 152.243H131.877C131.616 152.272 131.471 152.418 131.384 152.65C131.355 152.708 131.326 152.708 131.267 152.708C130.774 152.679 130.396 152.911 129.961 153.056C128.829 153.521 127.784 154.217 126.535 154.333Z" fill="#74CBED"/>
<path d="M45.9428 123.567C47.888 127.079 48.817 130.911 49.6009 134.8C49.9493 136.571 50.3267 138.341 50.588 140.112C50.9364 142.521 52.2428 144.378 53.8106 146.091C54.6525 147.02 55.2332 148.093 55.5816 149.283C54.3332 148.239 53.0557 147.165 52.1557 145.771C52.1557 145.423 52.0686 145.104 51.6622 145.046L51.6331 145.075C51.8944 144.639 51.517 144.349 51.3719 144.03C48.3234 138.254 46.6105 132.043 45.9718 125.541C45.8847 124.903 45.9428 124.235 45.9428 123.567Z" fill="#63BEE1"/>
<path d="M151.62 107.43C151.591 107.633 150.168 108.968 149.994 108.939C149.791 108.91 148.397 107.459 148.484 107.343C148.949 106.762 149.413 106.153 150.11 105.804C150.226 105.746 151.62 107.285 151.62 107.43Z" fill="#FEFEFF"/>
<path d="M46.319 98.3151C46.319 98.5183 44.8384 99.9405 44.7222 99.8534C44.1126 99.4761 43.619 98.9246 43.1835 98.3441C43.0964 98.228 44.519 96.7188 44.7222 96.7188C44.8964 96.7187 46.319 98.141 46.319 98.3151Z" fill="#FEFEFF"/>
<path d="M92.684 53.7334C92.8582 53.7334 94.3098 55.0976 94.3098 55.3007C94.3098 55.4749 92.8001 56.8971 92.684 56.8391C92.0743 56.4617 91.5808 55.9103 91.1453 55.3298C91.0291 55.1846 92.4808 53.7334 92.684 53.7334Z" fill="#FEFEFF"/>
<path d="M103.426 64.7333C103.252 64.7624 101.801 63.3982 101.771 63.195C101.771 63.0209 103.194 61.5696 103.368 61.6277C104.036 61.9469 104.471 62.5565 104.936 63.1079C105.052 63.2531 103.659 64.7043 103.426 64.7333Z" fill="#FEFEFF"/>
<path d="M70.4453 159.209C70.5614 157.09 71.5776 155.581 73.5518 154.739C74.0163 154.536 74.4518 154.333 74.9163 154.101C76.8615 153.085 77.5292 151.692 77.1518 149.515C76.9776 148.615 76.8325 147.686 76.6583 146.786C77.1228 146.67 77.355 146.99 77.6454 147.222C84.468 152.591 92.1906 155.958 100.755 157.351C103.165 157.729 105.575 157.903 107.984 157.932C110.249 157.961 112.6 158.077 114.807 157.264C115.3 158.512 115.852 159.731 116.694 160.776C113.733 162.112 110.597 162.866 107.462 163.563C102.497 164.637 97.4745 164.956 92.4229 164.695C84.7293 164.317 77.355 162.605 70.4453 159.209Z" fill="#63BEE1"/>
<path d="M126.534 154.334C127.783 154.218 128.828 153.492 129.96 153.057C130.396 152.882 130.802 152.65 131.267 152.708C128.799 154.711 126.128 156.453 123.225 157.817C124.328 156.685 125.431 155.524 126.534 154.334Z" fill="#63BEE1"/>
<path d="M51.632 145.104C52.0675 145.162 52.1255 145.481 52.1255 145.829C51.9223 145.597 51.5449 145.51 51.632 145.104Z" fill="#205C7E"/>
<path d="M131.383 152.679C131.47 152.447 131.615 152.301 131.876 152.272C131.731 152.389 131.557 152.534 131.383 152.679Z" fill="#63BEE1"/>
<path d="M138.845 145.829C138.787 145.597 138.816 145.394 139.106 145.307C139.309 145.626 138.99 145.684 138.845 145.829Z" fill="#205C7E"/>
<path d="M131.877 152.273C131.993 152.186 132.08 152.099 132.196 152.041C132.08 152.099 131.964 152.186 131.877 152.273Z" fill="#63BEE1"/>
<path d="M62.8102 128.415C61.0972 127.312 59.3553 126.267 57.6424 125.135C56.1037 124.119 54.5069 123.742 52.7069 124.323C51.8069 124.613 51.1681 124.294 50.6165 123.568C49.0488 121.594 48.7875 119.33 48.8165 116.921C48.8165 114.715 49.5714 113.235 51.6327 112.074C54.5649 110.449 56.6262 107.865 57.6424 104.586C57.9037 103.744 58.3101 102.931 59.123 102.467C58.8037 104.702 58.8908 106.937 58.8617 109.172C58.8617 115.267 60.0521 121.101 62.3456 126.732C62.5779 127.283 62.8102 127.806 62.8102 128.415Z" fill="#63BEE1"/>
<path d="M63.0406 128.617C62.9535 128.53 62.8664 128.472 62.7793 128.385C62.8954 128.472 62.9825 128.53 63.0406 128.617Z" fill="#63BEE1"/>
<path d="M76.6591 146.758C76.6301 146.671 76.572 146.555 76.543 146.468C76.572 146.555 76.6301 146.642 76.6591 146.758Z" fill="#63BEE1"/>
<path d="M44.7432 212.659H49.269C49.1782 214.142 48.7695 215.459 48.043 216.609C47.3265 217.76 46.3224 218.658 45.0308 219.304C43.7492 219.95 42.2052 220.272 40.3989 220.272C38.9862 220.272 37.7197 220.03 36.5996 219.546C35.4795 219.051 34.5208 218.345 33.7236 217.427C32.9365 216.508 32.3361 215.398 31.9224 214.097C31.5086 212.795 31.3018 211.337 31.3018 209.722V208.193C31.3018 206.579 31.5137 205.121 31.9375 203.819C32.3714 202.507 32.987 201.392 33.7842 200.474C34.5915 199.555 35.5552 198.849 36.6753 198.354C37.7954 197.86 39.0467 197.613 40.4292 197.613C42.2658 197.613 43.8148 197.946 45.0762 198.612C46.3477 199.278 47.3315 200.196 48.0278 201.367C48.7342 202.537 49.158 203.869 49.2993 205.363H44.7583C44.7078 204.475 44.5312 203.723 44.2285 203.107C43.9258 202.482 43.4666 202.013 42.8511 201.7C42.2456 201.377 41.4383 201.215 40.4292 201.215C39.6724 201.215 39.0114 201.357 38.4463 201.639C37.8812 201.922 37.4069 202.351 37.0234 202.926C36.64 203.501 36.3524 204.228 36.1606 205.105C35.979 205.973 35.8882 206.993 35.8882 208.163V209.722C35.8882 210.862 35.974 211.867 36.1455 212.734C36.3171 213.592 36.5794 214.319 36.9326 214.914C37.2959 215.499 37.7601 215.943 38.3252 216.246C38.9004 216.539 39.5916 216.685 40.3989 216.685C41.3475 216.685 42.1296 216.534 42.7451 216.231C43.3607 215.928 43.8299 215.479 44.1528 214.884C44.4858 214.288 44.6826 213.547 44.7432 212.659ZM56.2319 196.72V219.97H51.8726V196.72H56.2319ZM55.6113 211.206H54.4155C54.4256 210.065 54.577 209.016 54.8696 208.057C55.1623 207.088 55.5811 206.251 56.126 205.544C56.6709 204.828 57.3218 204.273 58.0786 203.879C58.8455 203.486 59.6932 203.289 60.6216 203.289C61.4289 203.289 62.1605 203.405 62.8164 203.637C63.4824 203.859 64.0526 204.222 64.5269 204.727C65.0112 205.222 65.3846 205.872 65.647 206.68C65.9093 207.487 66.0405 208.466 66.0405 209.616V219.97H61.6509V209.586C61.6509 208.859 61.5449 208.289 61.333 207.875C61.1312 207.452 60.8335 207.154 60.4399 206.982C60.0565 206.801 59.5822 206.71 59.0171 206.71C58.3914 206.71 57.8566 206.826 57.4126 207.058C56.9787 207.29 56.6305 207.613 56.3682 208.027C56.1058 208.431 55.9141 208.905 55.793 209.45C55.6719 209.995 55.6113 210.58 55.6113 211.206ZM78.1953 216.276V208.98C78.1953 208.456 78.1095 208.007 77.938 207.633C77.7664 207.25 77.499 206.952 77.1357 206.74C76.7826 206.528 76.3234 206.422 75.7583 206.422C75.2739 206.422 74.8551 206.508 74.502 206.68C74.1488 206.841 73.8763 207.078 73.6846 207.391C73.4928 207.694 73.397 208.052 73.397 208.466H69.0376C69.0376 207.77 69.1991 207.109 69.522 206.483C69.8449 205.857 70.3141 205.307 70.9297 204.833C71.5452 204.349 72.2769 203.97 73.1245 203.698C73.9823 203.425 74.9409 203.289 76.0005 203.289C77.272 203.289 78.4022 203.501 79.3911 203.925C80.38 204.349 81.1571 204.984 81.7222 205.832C82.2974 206.68 82.585 207.739 82.585 209.011V216.019C82.585 216.917 82.6405 217.654 82.7515 218.229C82.8625 218.794 83.0239 219.289 83.2358 219.712V219.97H78.8311C78.6191 219.526 78.4577 218.971 78.3467 218.305C78.2458 217.629 78.1953 216.952 78.1953 216.276ZM78.7705 209.995L78.8008 212.462H76.3638C75.7886 212.462 75.2891 212.528 74.8652 212.659C74.4414 212.79 74.0933 212.977 73.8208 213.219C73.5483 213.451 73.3465 213.723 73.2153 214.036C73.0942 214.349 73.0337 214.692 73.0337 215.065C73.0337 215.439 73.1195 215.777 73.291 216.08C73.4626 216.372 73.7098 216.604 74.0327 216.776C74.3556 216.937 74.734 217.018 75.168 217.018C75.8239 217.018 76.394 216.887 76.8784 216.625C77.3628 216.362 77.7362 216.039 77.9985 215.656C78.271 215.272 78.4123 214.909 78.4224 214.566L79.5728 216.413C79.4113 216.826 79.1893 217.255 78.9067 217.699C78.6343 218.143 78.2861 218.562 77.8623 218.956C77.4385 219.339 76.9289 219.657 76.3335 219.909C75.7381 220.151 75.0317 220.272 74.2144 220.272C73.175 220.272 72.2314 220.066 71.3838 219.652C70.5462 219.228 69.8802 218.648 69.3857 217.911C68.9014 217.164 68.6592 216.317 68.6592 215.368C68.6592 214.51 68.8206 213.749 69.1436 213.083C69.4665 212.417 69.9408 211.856 70.5664 211.402C71.2021 210.938 71.9943 210.59 72.9429 210.358C73.8914 210.116 74.9914 209.995 76.2427 209.995H78.7705ZM90.2139 207.088V219.97H85.8545V203.592H89.9414L90.2139 207.088ZM89.5781 211.206H88.3975C88.3975 209.995 88.5539 208.905 88.8667 207.936C89.1795 206.957 89.6185 206.125 90.1836 205.438C90.7487 204.742 91.4198 204.212 92.1968 203.849C92.9839 203.476 93.8618 203.289 94.8306 203.289C95.5975 203.289 96.2988 203.4 96.9346 203.622C97.5703 203.844 98.1152 204.197 98.5693 204.682C99.0335 205.166 99.3867 205.807 99.6289 206.604C99.8812 207.401 100.007 208.375 100.007 209.525V219.97H95.6177V209.51C95.6177 208.784 95.5168 208.219 95.3149 207.815C95.1131 207.411 94.8154 207.129 94.4219 206.967C94.0384 206.796 93.5641 206.71 92.999 206.71C92.4137 206.71 91.9041 206.826 91.4702 207.058C91.0464 207.29 90.6932 207.613 90.4106 208.027C90.1382 208.431 89.9313 208.905 89.79 209.45C89.6488 209.995 89.5781 210.58 89.5781 211.206ZM113.691 203.592H117.642V219.425C117.642 220.918 117.309 222.185 116.643 223.224C115.987 224.274 115.068 225.066 113.888 225.601C112.707 226.146 111.335 226.418 109.771 226.418C109.084 226.418 108.358 226.327 107.591 226.146C106.834 225.964 106.107 225.681 105.411 225.298C104.725 224.914 104.15 224.43 103.686 223.845L105.608 221.271C106.112 221.857 106.698 222.311 107.364 222.634C108.03 222.967 108.766 223.133 109.574 223.133C110.361 223.133 111.027 222.987 111.572 222.694C112.117 222.412 112.535 221.993 112.828 221.438C113.121 220.893 113.267 220.232 113.267 219.455V207.376L113.691 203.592ZM102.671 211.978V211.66C102.671 210.408 102.823 209.273 103.125 208.254C103.438 207.225 103.877 206.342 104.442 205.605C105.018 204.868 105.714 204.298 106.531 203.895C107.349 203.491 108.272 203.289 109.301 203.289C110.391 203.289 111.304 203.491 112.041 203.895C112.778 204.298 113.383 204.873 113.857 205.62C114.332 206.357 114.7 207.23 114.962 208.239C115.235 209.238 115.447 210.333 115.598 211.523V212.22C115.447 213.36 115.22 214.42 114.917 215.398C114.614 216.377 114.216 217.235 113.721 217.972C113.227 218.698 112.611 219.263 111.875 219.667C111.148 220.071 110.28 220.272 109.271 220.272C108.262 220.272 107.349 220.066 106.531 219.652C105.724 219.238 105.033 218.658 104.458 217.911C103.882 217.164 103.438 216.286 103.125 215.277C102.823 214.268 102.671 213.168 102.671 211.978ZM107.031 211.66V211.978C107.031 212.654 107.096 213.284 107.228 213.87C107.359 214.455 107.561 214.975 107.833 215.429C108.116 215.873 108.464 216.221 108.877 216.473C109.301 216.715 109.801 216.836 110.376 216.836C111.173 216.836 111.824 216.67 112.329 216.337C112.833 215.994 113.212 215.525 113.464 214.929C113.716 214.334 113.862 213.648 113.903 212.871V210.888C113.883 210.252 113.797 209.682 113.646 209.177C113.494 208.663 113.282 208.224 113.01 207.86C112.737 207.497 112.384 207.215 111.95 207.013C111.516 206.811 111.002 206.71 110.406 206.71C109.831 206.71 109.332 206.841 108.908 207.104C108.494 207.356 108.146 207.704 107.863 208.148C107.591 208.592 107.384 209.117 107.243 209.722C107.101 210.318 107.031 210.963 107.031 211.66ZM128.57 220.272C127.299 220.272 126.159 220.071 125.149 219.667C124.14 219.253 123.283 218.683 122.576 217.957C121.88 217.23 121.345 216.387 120.972 215.429C120.598 214.46 120.412 213.431 120.412 212.341V211.735C120.412 210.494 120.588 209.359 120.941 208.33C121.295 207.3 121.799 206.407 122.455 205.65C123.121 204.894 123.928 204.313 124.877 203.91C125.826 203.496 126.895 203.289 128.086 203.289C129.246 203.289 130.276 203.481 131.174 203.864C132.072 204.248 132.824 204.793 133.429 205.499C134.045 206.205 134.509 207.053 134.822 208.042C135.135 209.021 135.291 210.111 135.291 211.312V213.128H122.273V210.222H131.007V209.889C131.007 209.283 130.896 208.743 130.674 208.269C130.462 207.785 130.139 207.401 129.706 207.119C129.272 206.836 128.717 206.695 128.041 206.695C127.465 206.695 126.971 206.821 126.557 207.073C126.143 207.326 125.805 207.679 125.543 208.133C125.291 208.587 125.099 209.122 124.968 209.737C124.847 210.343 124.786 211.009 124.786 211.735V212.341C124.786 212.997 124.877 213.602 125.059 214.157C125.25 214.712 125.518 215.192 125.861 215.595C126.214 215.999 126.638 216.312 127.132 216.534C127.637 216.756 128.207 216.867 128.843 216.867C129.63 216.867 130.361 216.715 131.038 216.413C131.724 216.1 132.314 215.631 132.809 215.005L134.928 217.306C134.585 217.8 134.115 218.274 133.52 218.729C132.935 219.183 132.228 219.556 131.401 219.849C130.573 220.131 129.63 220.272 128.57 220.272ZM142.133 206.982V219.97H137.758V203.592H141.86L142.133 206.982ZM141.527 211.206H140.316C140.316 210.065 140.453 209.016 140.725 208.057C141.008 207.088 141.416 206.251 141.951 205.544C142.496 204.828 143.167 204.273 143.964 203.879C144.762 203.486 145.685 203.289 146.734 203.289C147.461 203.289 148.127 203.4 148.732 203.622C149.338 203.834 149.858 204.172 150.292 204.636C150.736 205.09 151.079 205.686 151.321 206.422C151.563 207.149 151.684 208.022 151.684 209.041V219.97H147.325V209.525C147.325 208.779 147.224 208.203 147.022 207.8C146.82 207.396 146.533 207.114 146.159 206.952C145.796 206.791 145.357 206.71 144.842 206.71C144.277 206.71 143.783 206.826 143.359 207.058C142.945 207.29 142.602 207.613 142.33 208.027C142.057 208.431 141.855 208.905 141.724 209.45C141.593 209.995 141.527 210.58 141.527 211.206ZM151.275 210.706L149.716 210.903C149.716 209.833 149.847 208.839 150.11 207.921C150.382 207.003 150.781 206.195 151.306 205.499C151.84 204.803 152.501 204.263 153.289 203.879C154.076 203.486 154.984 203.289 156.013 203.289C156.8 203.289 157.517 203.405 158.163 203.637C158.808 203.859 159.358 204.217 159.812 204.712C160.277 205.196 160.63 205.832 160.872 206.619C161.124 207.406 161.25 208.37 161.25 209.51V219.97H156.876V209.51C156.876 208.753 156.775 208.178 156.573 207.785C156.382 207.381 156.099 207.104 155.726 206.952C155.362 206.791 154.928 206.71 154.424 206.71C153.899 206.71 153.44 206.816 153.046 207.028C152.653 207.23 152.325 207.512 152.062 207.875C151.8 208.239 151.603 208.663 151.472 209.147C151.341 209.621 151.275 210.141 151.275 210.706ZM172.164 220.272C170.893 220.272 169.752 220.071 168.743 219.667C167.734 219.253 166.876 218.683 166.17 217.957C165.474 217.23 164.939 216.387 164.565 215.429C164.192 214.46 164.005 213.431 164.005 212.341V211.735C164.005 210.494 164.182 209.359 164.535 208.33C164.888 207.3 165.393 206.407 166.049 205.65C166.715 204.894 167.522 204.313 168.471 203.91C169.419 203.496 170.489 203.289 171.68 203.289C172.84 203.289 173.869 203.481 174.768 203.864C175.666 204.248 176.417 204.793 177.023 205.499C177.639 206.205 178.103 207.053 178.416 208.042C178.728 209.021 178.885 210.111 178.885 211.312V213.128H165.867V210.222H174.601V209.889C174.601 209.283 174.49 208.743 174.268 208.269C174.056 207.785 173.733 207.401 173.299 207.119C172.865 206.836 172.31 206.695 171.634 206.695C171.059 206.695 170.565 206.821 170.151 207.073C169.737 207.326 169.399 207.679 169.137 208.133C168.884 208.587 168.693 209.122 168.562 209.737C168.44 210.343 168.38 211.009 168.38 211.735V212.341C168.38 212.997 168.471 213.602 168.652 214.157C168.844 214.712 169.111 215.192 169.455 215.595C169.808 215.999 170.232 216.312 170.726 216.534C171.231 216.756 171.801 216.867 172.437 216.867C173.224 216.867 173.955 216.715 174.631 216.413C175.318 216.1 175.908 215.631 176.402 215.005L178.521 217.306C178.178 217.8 177.709 218.274 177.114 218.729C176.528 219.183 175.822 219.556 174.995 219.849C174.167 220.131 173.224 220.272 172.164 220.272ZM185.636 207.088V219.97H181.276V203.592H185.363L185.636 207.088ZM185 211.206H183.819C183.819 209.995 183.976 208.905 184.289 207.936C184.601 206.957 185.04 206.125 185.605 205.438C186.171 204.742 186.842 204.212 187.619 203.849C188.406 203.476 189.284 203.289 190.252 203.289C191.019 203.289 191.721 203.4 192.356 203.622C192.992 203.844 193.537 204.197 193.991 204.682C194.455 205.166 194.809 205.807 195.051 206.604C195.303 207.401 195.429 208.375 195.429 209.525V219.97H191.04V209.51C191.04 208.784 190.939 208.219 190.737 207.815C190.535 207.411 190.237 207.129 189.844 206.967C189.46 206.796 188.986 206.71 188.421 206.71C187.836 206.71 187.326 206.826 186.892 207.058C186.468 207.29 186.115 207.613 185.833 208.027C185.56 208.431 185.353 208.905 185.212 209.45C185.071 209.995 185 210.58 185 211.206ZM206.767 203.592V206.68H197.23V203.592H206.767ZM199.592 199.55H203.951V215.035C203.951 215.509 204.012 215.873 204.133 216.125C204.264 216.377 204.456 216.554 204.708 216.655C204.96 216.746 205.278 216.791 205.662 216.791C205.934 216.791 206.176 216.781 206.388 216.761C206.61 216.73 206.797 216.7 206.948 216.67L206.963 219.879C206.59 220 206.186 220.096 205.752 220.167C205.319 220.237 204.839 220.272 204.314 220.272C203.356 220.272 202.518 220.116 201.802 219.803C201.095 219.48 200.55 218.966 200.167 218.259C199.784 217.553 199.592 216.625 199.592 215.474V199.55ZM218.104 215.444C218.104 215.131 218.013 214.848 217.832 214.596C217.65 214.344 217.312 214.112 216.817 213.9C216.333 213.678 215.632 213.476 214.713 213.294C213.886 213.113 213.114 212.886 212.397 212.613C211.691 212.331 211.076 211.993 210.551 211.599C210.036 211.206 209.632 210.741 209.34 210.207C209.047 209.662 208.901 209.041 208.901 208.345C208.901 207.659 209.047 207.013 209.34 206.407C209.643 205.802 210.071 205.267 210.626 204.803C211.192 204.328 211.878 203.96 212.685 203.698C213.502 203.425 214.421 203.289 215.44 203.289C216.863 203.289 218.084 203.516 219.103 203.97C220.132 204.424 220.919 205.05 221.464 205.847C222.019 206.634 222.297 207.532 222.297 208.542H217.938C217.938 208.118 217.847 207.739 217.665 207.406C217.493 207.063 217.221 206.796 216.848 206.604C216.484 206.402 216.01 206.301 215.425 206.301C214.94 206.301 214.522 206.387 214.168 206.559C213.815 206.72 213.543 206.942 213.351 207.225C213.169 207.497 213.079 207.8 213.079 208.133C213.079 208.385 213.129 208.612 213.23 208.814C213.341 209.006 213.518 209.182 213.76 209.344C214.002 209.505 214.315 209.657 214.698 209.798C215.092 209.929 215.576 210.05 216.151 210.161C217.332 210.403 218.387 210.721 219.315 211.115C220.243 211.498 220.98 212.023 221.525 212.689C222.07 213.345 222.342 214.208 222.342 215.277C222.342 216.004 222.181 216.67 221.858 217.275C221.535 217.881 221.071 218.411 220.465 218.865C219.86 219.309 219.133 219.657 218.286 219.909C217.448 220.151 216.505 220.272 215.455 220.272C213.931 220.272 212.64 220 211.58 219.455C210.531 218.91 209.733 218.219 209.188 217.381C208.654 216.534 208.386 215.666 208.386 214.778H212.519C212.539 215.373 212.69 215.853 212.973 216.216C213.265 216.579 213.634 216.841 214.078 217.003C214.532 217.164 215.021 217.245 215.546 217.245C216.111 217.245 216.58 217.169 216.954 217.018C217.327 216.857 217.61 216.645 217.801 216.382C218.003 216.11 218.104 215.797 218.104 215.444ZM38.4614 252.867C38.9963 252.867 39.4705 252.766 39.8843 252.564C40.298 252.352 40.6209 252.059 40.853 251.686C41.0952 251.303 41.2214 250.854 41.2314 250.339H45.3335C45.3234 251.489 45.0156 252.514 44.4102 253.412C43.8047 254.3 42.9924 255.001 41.9731 255.516C40.9539 256.02 39.8136 256.272 38.5522 256.272C37.2808 256.272 36.1707 256.061 35.2222 255.637C34.2837 255.213 33.5016 254.628 32.876 253.881C32.2503 253.124 31.7811 252.246 31.4683 251.247C31.1554 250.238 30.999 249.158 30.999 248.008V247.569C30.999 246.408 31.1554 245.329 31.4683 244.33C31.7811 243.32 32.2503 242.443 32.876 241.696C33.5016 240.939 34.2837 240.349 35.2222 239.925C36.1606 239.501 37.2606 239.289 38.522 239.289C39.8641 239.289 41.0397 239.546 42.0488 240.061C43.068 240.576 43.8652 241.312 44.4404 242.271C45.0257 243.22 45.3234 244.345 45.3335 245.646H41.2314C41.2214 245.102 41.1053 244.607 40.8833 244.163C40.6714 243.719 40.3586 243.366 39.9448 243.104C39.5412 242.831 39.0417 242.695 38.4463 242.695C37.8105 242.695 37.2909 242.831 36.8872 243.104C36.4836 243.366 36.1707 243.729 35.9487 244.193C35.7267 244.647 35.5703 245.167 35.4795 245.752C35.3988 246.328 35.3584 246.933 35.3584 247.569V248.008C35.3584 248.644 35.3988 249.254 35.4795 249.839C35.5602 250.425 35.7116 250.944 35.9336 251.398C36.1657 251.853 36.4836 252.211 36.8872 252.473C37.2909 252.736 37.8156 252.867 38.4614 252.867ZM52.4629 232.72V255.97H48.0884V232.72H52.4629ZM60.667 239.592V255.97H56.2925V239.592H60.667ZM56.02 235.323C56.02 234.688 56.242 234.163 56.686 233.749C57.13 233.335 57.7254 233.128 58.4722 233.128C59.2088 233.128 59.7992 233.335 60.2432 233.749C60.6973 234.163 60.9243 234.688 60.9243 235.323C60.9243 235.959 60.6973 236.484 60.2432 236.897C59.7992 237.311 59.2088 237.518 58.4722 237.518C57.7254 237.518 57.13 237.311 56.686 236.897C56.242 236.484 56.02 235.959 56.02 235.323ZM68.6289 242.982V255.97H64.2544V239.592H68.3564L68.6289 242.982ZM68.0234 247.206H66.8125C66.8125 246.065 66.9487 245.016 67.2212 244.057C67.5037 243.088 67.9124 242.251 68.4473 241.544C68.9922 240.828 69.6632 240.273 70.4604 239.879C71.2576 239.486 72.181 239.289 73.2305 239.289C73.957 239.289 74.623 239.4 75.2285 239.622C75.834 239.834 76.3537 240.172 76.7876 240.636C77.2316 241.09 77.5747 241.686 77.8169 242.422C78.0591 243.149 78.1802 244.022 78.1802 245.041V255.97H73.8208V245.525C73.8208 244.779 73.7199 244.203 73.5181 243.8C73.3162 243.396 73.0286 243.114 72.6553 242.952C72.292 242.791 71.853 242.71 71.3384 242.71C70.7733 242.71 70.2788 242.826 69.855 243.058C69.4412 243.29 69.0981 243.613 68.8257 244.027C68.5532 244.431 68.3514 244.905 68.2202 245.45C68.089 245.995 68.0234 246.58 68.0234 247.206ZM77.7715 246.706L76.2124 246.903C76.2124 245.833 76.3436 244.839 76.606 243.921C76.8784 243.003 77.277 242.195 77.8018 241.499C78.3366 240.803 78.9976 240.263 79.7847 239.879C80.5718 239.486 81.48 239.289 82.5093 239.289C83.2964 239.289 84.0129 239.405 84.6587 239.637C85.3045 239.859 85.8545 240.217 86.3086 240.712C86.7728 241.196 87.126 241.832 87.3682 242.619C87.6204 243.406 87.7466 244.37 87.7466 245.51V255.97H83.3721V245.51C83.3721 244.753 83.2712 244.178 83.0693 243.785C82.8776 243.381 82.5951 243.104 82.2217 242.952C81.8584 242.791 81.4245 242.71 80.9199 242.71C80.3952 242.71 79.936 242.816 79.5425 243.028C79.1489 243.23 78.821 243.512 78.5586 243.875C78.2962 244.239 78.0994 244.663 77.9683 245.147C77.8371 245.621 77.7715 246.141 77.7715 246.706ZM99.9619 252.276V244.98C99.9619 244.456 99.8761 244.007 99.7046 243.633C99.533 243.25 99.2656 242.952 98.9023 242.74C98.5492 242.528 98.09 242.422 97.5249 242.422C97.0405 242.422 96.6217 242.508 96.2686 242.68C95.9154 242.841 95.6429 243.078 95.4512 243.391C95.2594 243.694 95.1636 244.052 95.1636 244.466H90.8042C90.8042 243.77 90.9657 243.109 91.2886 242.483C91.6115 241.857 92.0807 241.307 92.6963 240.833C93.3118 240.349 94.0435 239.97 94.8911 239.698C95.7489 239.425 96.7075 239.289 97.7671 239.289C99.0386 239.289 100.169 239.501 101.158 239.925C102.147 240.349 102.924 240.984 103.489 241.832C104.064 242.68 104.352 243.739 104.352 245.011V252.019C104.352 252.917 104.407 253.654 104.518 254.229C104.629 254.794 104.791 255.289 105.002 255.712V255.97H100.598C100.386 255.526 100.224 254.971 100.113 254.305C100.012 253.629 99.9619 252.952 99.9619 252.276ZM100.537 245.995L100.567 248.462H98.1304C97.5552 248.462 97.0557 248.528 96.6318 248.659C96.208 248.79 95.8599 248.977 95.5874 249.219C95.3149 249.451 95.1131 249.723 94.9819 250.036C94.8608 250.349 94.8003 250.692 94.8003 251.065C94.8003 251.439 94.8861 251.777 95.0576 252.08C95.2292 252.372 95.4764 252.604 95.7993 252.776C96.1222 252.937 96.5007 253.018 96.9346 253.018C97.5905 253.018 98.1606 252.887 98.645 252.625C99.1294 252.362 99.5028 252.039 99.7651 251.656C100.038 251.272 100.179 250.909 100.189 250.566L101.339 252.413C101.178 252.826 100.956 253.255 100.673 253.699C100.401 254.143 100.053 254.562 99.6289 254.956C99.2051 255.339 98.6955 255.657 98.1001 255.909C97.5047 256.151 96.7983 256.272 95.981 256.272C94.9416 256.272 93.998 256.066 93.1504 255.652C92.3128 255.228 91.6468 254.648 91.1523 253.911C90.668 253.164 90.4258 252.317 90.4258 251.368C90.4258 250.51 90.5872 249.749 90.9102 249.083C91.2331 248.417 91.7074 247.856 92.333 247.402C92.9688 246.938 93.7609 246.59 94.7095 246.358C95.658 246.116 96.758 245.995 98.0093 245.995H100.537ZM115.734 239.592V242.68H106.198V239.592H115.734ZM108.56 235.55H112.919V251.035C112.919 251.509 112.979 251.873 113.101 252.125C113.232 252.377 113.424 252.554 113.676 252.655C113.928 252.746 114.246 252.791 114.629 252.791C114.902 252.791 115.144 252.781 115.356 252.761C115.578 252.73 115.765 252.7 115.916 252.67L115.931 255.879C115.558 256 115.154 256.096 114.72 256.167C114.286 256.237 113.807 256.272 113.282 256.272C112.324 256.272 111.486 256.116 110.77 255.803C110.063 255.48 109.518 254.966 109.135 254.259C108.751 253.553 108.56 252.625 108.56 251.474V235.55ZM122.818 239.592V255.97H118.444V239.592H122.818ZM118.171 235.323C118.171 234.688 118.393 234.163 118.837 233.749C119.281 233.335 119.877 233.128 120.624 233.128C121.36 233.128 121.951 233.335 122.395 233.749C122.849 234.163 123.076 234.688 123.076 235.323C123.076 235.959 122.849 236.484 122.395 236.897C121.951 237.311 121.36 237.518 120.624 237.518C119.877 237.518 119.281 237.311 118.837 236.897C118.393 236.484 118.171 235.959 118.171 235.323ZM136.093 262.267V242.937L136.653 239.592H140.483V262.267H136.093ZM125.74 247.947V247.629C125.74 246.378 125.876 245.243 126.148 244.224C126.431 243.194 126.845 242.316 127.39 241.59C127.935 240.853 128.601 240.288 129.388 239.895C130.185 239.491 131.103 239.289 132.143 239.289C133.142 239.289 134.004 239.491 134.731 239.895C135.458 240.298 136.068 240.868 136.562 241.605C137.067 242.342 137.471 243.209 137.773 244.208C138.076 245.208 138.308 246.302 138.47 247.493V248.189C138.318 249.33 138.086 250.389 137.773 251.368C137.471 252.347 137.067 253.205 136.562 253.941C136.068 254.678 135.452 255.253 134.716 255.667C133.989 256.071 133.121 256.272 132.112 256.272C131.093 256.272 130.185 256.066 129.388 255.652C128.601 255.228 127.935 254.643 127.39 253.896C126.845 253.149 126.431 252.271 126.148 251.262C125.876 250.243 125.74 249.138 125.74 247.947ZM130.099 247.629V247.947C130.099 248.623 130.155 249.259 130.266 249.854C130.377 250.44 130.553 250.959 130.795 251.414C131.048 251.868 131.371 252.226 131.764 252.488C132.158 252.741 132.642 252.867 133.217 252.867C134.014 252.867 134.655 252.695 135.14 252.352C135.634 251.999 135.997 251.52 136.229 250.914C136.472 250.309 136.613 249.617 136.653 248.84V246.857C136.623 246.222 136.537 245.652 136.396 245.147C136.265 244.632 136.063 244.193 135.791 243.83C135.528 243.467 135.185 243.189 134.761 242.998C134.347 242.796 133.843 242.695 133.248 242.695C132.682 242.695 132.198 242.821 131.794 243.073C131.391 243.326 131.063 243.679 130.811 244.133C130.568 244.577 130.387 245.097 130.266 245.692C130.155 246.287 130.099 246.933 130.099 247.629ZM153.606 252.049V239.592H157.966V255.97H153.864L153.606 252.049ZM154.091 248.689L155.377 248.659C155.377 249.749 155.251 250.763 154.999 251.701C154.747 252.63 154.368 253.437 153.864 254.123C153.359 254.799 152.723 255.329 151.957 255.712C151.19 256.086 150.286 256.272 149.247 256.272C148.45 256.272 147.713 256.161 147.037 255.939C146.371 255.707 145.796 255.349 145.312 254.865C144.837 254.37 144.464 253.74 144.191 252.973C143.929 252.196 143.798 251.262 143.798 250.172V239.592H148.157V250.203C148.157 250.687 148.213 251.096 148.324 251.429C148.445 251.762 148.611 252.034 148.823 252.246C149.035 252.458 149.282 252.609 149.565 252.7C149.858 252.791 150.181 252.836 150.534 252.836C151.432 252.836 152.138 252.655 152.653 252.292C153.178 251.928 153.546 251.434 153.758 250.808C153.98 250.172 154.091 249.466 154.091 248.689ZM168.834 256.272C167.562 256.272 166.422 256.071 165.413 255.667C164.404 255.253 163.546 254.683 162.84 253.957C162.144 253.23 161.609 252.387 161.235 251.429C160.862 250.46 160.675 249.431 160.675 248.341V247.735C160.675 246.494 160.852 245.359 161.205 244.33C161.558 243.3 162.063 242.407 162.719 241.65C163.385 240.894 164.192 240.313 165.141 239.91C166.089 239.496 167.159 239.289 168.35 239.289C169.51 239.289 170.539 239.481 171.438 239.864C172.336 240.248 173.087 240.793 173.693 241.499C174.308 242.205 174.773 243.053 175.085 244.042C175.398 245.021 175.555 246.111 175.555 247.312V249.128H162.537V246.222H171.271V245.889C171.271 245.283 171.16 244.743 170.938 244.269C170.726 243.785 170.403 243.401 169.969 243.119C169.535 242.836 168.98 242.695 168.304 242.695C167.729 242.695 167.235 242.821 166.821 243.073C166.407 243.326 166.069 243.679 165.807 244.133C165.554 244.587 165.363 245.122 165.231 245.737C165.11 246.343 165.05 247.009 165.05 247.735V248.341C165.05 248.997 165.141 249.602 165.322 250.157C165.514 250.712 165.781 251.192 166.125 251.595C166.478 251.999 166.902 252.312 167.396 252.534C167.901 252.756 168.471 252.867 169.106 252.867C169.894 252.867 170.625 252.715 171.301 252.413C171.987 252.1 172.578 251.631 173.072 251.005L175.191 253.306C174.848 253.8 174.379 254.274 173.784 254.729C173.198 255.183 172.492 255.556 171.665 255.849C170.837 256.131 169.894 256.272 168.834 256.272ZM186.892 251.444C186.892 251.131 186.801 250.848 186.62 250.596C186.438 250.344 186.1 250.112 185.605 249.9C185.121 249.678 184.42 249.476 183.501 249.294C182.674 249.113 181.902 248.886 181.186 248.613C180.479 248.331 179.864 247.993 179.339 247.599C178.824 247.206 178.421 246.741 178.128 246.207C177.835 245.662 177.689 245.041 177.689 244.345C177.689 243.659 177.835 243.013 178.128 242.407C178.431 241.802 178.86 241.267 179.415 240.803C179.98 240.328 180.666 239.96 181.473 239.698C182.291 239.425 183.209 239.289 184.228 239.289C185.651 239.289 186.872 239.516 187.891 239.97C188.92 240.424 189.708 241.05 190.252 241.847C190.807 242.634 191.085 243.532 191.085 244.542H186.726C186.726 244.118 186.635 243.739 186.453 243.406C186.282 243.063 186.009 242.796 185.636 242.604C185.272 242.402 184.798 242.301 184.213 242.301C183.729 242.301 183.31 242.387 182.957 242.559C182.603 242.72 182.331 242.942 182.139 243.225C181.958 243.497 181.867 243.8 181.867 244.133C181.867 244.385 181.917 244.612 182.018 244.814C182.129 245.006 182.306 245.182 182.548 245.344C182.79 245.505 183.103 245.657 183.486 245.798C183.88 245.929 184.364 246.05 184.939 246.161C186.12 246.403 187.175 246.721 188.103 247.115C189.031 247.498 189.768 248.023 190.313 248.689C190.858 249.345 191.13 250.208 191.13 251.277C191.13 252.004 190.969 252.67 190.646 253.275C190.323 253.881 189.859 254.411 189.253 254.865C188.648 255.309 187.921 255.657 187.074 255.909C186.236 256.151 185.293 256.272 184.243 256.272C182.719 256.272 181.428 256 180.368 255.455C179.319 254.91 178.521 254.219 177.977 253.381C177.442 252.534 177.174 251.666 177.174 250.778H181.307C181.327 251.373 181.478 251.853 181.761 252.216C182.053 252.579 182.422 252.841 182.866 253.003C183.32 253.164 183.809 253.245 184.334 253.245C184.899 253.245 185.368 253.169 185.742 253.018C186.115 252.857 186.398 252.645 186.589 252.382C186.791 252.11 186.892 251.797 186.892 251.444Z" fill="#222222"/>
<rect x="30" y="284.355" width="18" height="18.8169" fill="#A8EC6C"/>
<rect x="53" y="284.355" width="18" height="18.8169" fill="#A8EC6C"/>
<rect x="76" y="284.355" width="18" height="18.8169" fill="#A8EC6C"/>
<rect x="99" y="284.355" width="18" height="18.8169" fill="#A8EC6C"/>
<rect x="122" y="284.355" width="18" height="18.8169" fill="#A8EC6C"/>
<rect x="145" y="284.355" width="18" height="18.8169" fill="#A8EC6C"/>
<rect x="168" y="284.355" width="18" height="18.8169" fill="#A8EC6C"/>
<rect x="191" y="284.355" width="18" height="18.8169" fill="#A8EC6C"/>
<rect x="214" y="284.355" width="18" height="18.8169" fill="#E4E4E4"/>
<rect x="237" y="284.355" width="18" height="18.8169" fill="#E4E4E4"/>
</svg>
