<svg width="311" height="610" viewBox="0 0 311 610" fill="none" xmlns="http://www.w3.org/2000/svg">
<rect width="311" height="610" fill="white"/>
<path d="M110.409 579.376V581.992H101.913V579.376H104.721V566.296H101.913V563.68H110.409V566.296H107.601V579.376H110.409ZM116.941 572.344V581.992H114.253V568.912H116.941V569.872L117.013 569.944C117.621 569.512 118.253 569.192 118.909 568.984C119.565 568.76 120.245 568.648 120.949 568.648C122.213 568.648 123.173 569 123.829 569.704C124.485 570.408 124.813 571.448 124.813 572.824V581.992H122.125V573.712C122.125 572.736 121.981 572.048 121.693 571.648C121.405 571.248 120.917 571.048 120.229 571.048C119.605 571.048 118.965 571.176 118.309 571.432C117.669 571.688 117.213 571.992 116.941 572.344ZM137.631 581.368C137.215 581.64 136.679 581.856 136.023 582.016C135.383 582.176 134.735 582.256 134.079 582.256C132.255 582.256 130.815 581.64 129.759 580.408C128.703 579.176 128.175 577.528 128.175 575.464C128.175 573.4 128.703 571.752 129.759 570.52C130.831 569.272 132.279 568.648 134.103 568.648C134.759 568.648 135.407 568.728 136.047 568.888C136.687 569.032 137.191 569.224 137.559 569.464V572.056C137.271 571.768 136.815 571.536 136.191 571.36C135.583 571.168 134.959 571.072 134.319 571.072C133.151 571.072 132.287 571.424 131.727 572.128C131.167 572.832 130.887 573.904 130.887 575.344C130.887 576.848 131.167 577.976 131.727 578.728C132.287 579.464 133.135 579.832 134.271 579.832C134.863 579.832 135.479 579.736 136.119 579.544C136.775 579.352 137.279 579.12 137.631 578.848V581.368ZM151.867 575.464C151.867 577.496 151.331 579.136 150.259 580.384C149.187 581.632 147.747 582.256 145.939 582.256C144.147 582.256 142.715 581.632 141.643 580.384C140.571 579.136 140.035 577.496 140.035 575.464C140.035 573.432 140.571 571.792 141.643 570.544C142.715 569.28 144.147 568.648 145.939 568.648C147.731 568.648 149.163 569.28 150.235 570.544C151.323 571.792 151.867 573.432 151.867 575.464ZM149.155 575.464C149.155 574.12 148.867 573.048 148.291 572.248C147.715 571.448 146.931 571.048 145.939 571.048C144.931 571.048 144.147 571.448 143.587 572.248C143.027 573.032 142.747 574.104 142.747 575.464C142.747 576.824 143.027 577.896 143.587 578.68C144.147 579.464 144.931 579.856 145.939 579.856C146.931 579.856 147.715 579.464 148.291 578.68C148.867 577.88 149.155 576.808 149.155 575.464ZM157.909 572.344V581.992H155.221V568.912H157.909V569.872L157.981 569.944C158.589 569.512 159.221 569.192 159.877 568.984C160.533 568.76 161.213 568.648 161.917 568.648C163.181 568.648 164.141 569 164.797 569.704C165.453 570.408 165.781 571.448 165.781 572.824V581.992H163.093V573.712C163.093 572.736 162.949 572.048 162.661 571.648C162.373 571.248 161.885 571.048 161.197 571.048C160.573 571.048 159.933 571.176 159.277 571.432C158.637 571.688 158.181 571.992 157.909 572.344ZM173.56 571.192V581.992H170.872V571.192H168.904V568.912H170.872C170.936 566.752 171.368 565.192 172.168 564.232C172.968 563.256 174.184 562.768 175.816 562.768C176.232 562.768 176.64 562.8 177.04 562.864C177.456 562.928 177.88 563.032 178.312 563.176V565.672C178.056 565.496 177.736 565.36 177.352 565.264C176.984 565.168 176.576 565.12 176.128 565.12C175.152 565.12 174.48 565.368 174.112 565.864C173.744 566.344 173.56 567.36 173.56 568.912H177.04V571.192H173.56ZM190.867 575.464C190.867 577.496 190.331 579.136 189.259 580.384C188.187 581.632 186.747 582.256 184.939 582.256C183.147 582.256 181.715 581.632 180.643 580.384C179.571 579.136 179.035 577.496 179.035 575.464C179.035 573.432 179.571 571.792 180.643 570.544C181.715 569.28 183.147 568.648 184.939 568.648C186.731 568.648 188.163 569.28 189.235 570.544C190.323 571.792 190.867 573.432 190.867 575.464ZM188.155 575.464C188.155 574.12 187.867 573.048 187.291 572.248C186.715 571.448 185.931 571.048 184.939 571.048C183.931 571.048 183.147 571.448 182.587 572.248C182.027 573.032 181.747 574.104 181.747 575.464C181.747 576.824 182.027 577.896 182.587 578.68C183.147 579.464 183.931 579.856 184.939 579.856C185.931 579.856 186.715 579.464 187.291 578.68C187.867 577.88 188.155 576.808 188.155 575.464ZM196.909 573.352V581.992H194.221V568.912H196.909V570.472L197.005 570.544C197.453 569.936 197.989 569.472 198.613 569.152C199.253 568.816 199.957 568.648 200.725 568.648C200.869 568.648 201.005 568.656 201.133 568.672C201.277 568.672 201.413 568.68 201.541 568.696V571.624C201.461 571.608 201.381 571.6 201.301 571.6C201.221 571.6 201.125 571.6 201.013 571.6C200.021 571.6 199.165 571.76 198.445 572.08C197.741 572.384 197.229 572.808 196.909 573.352ZM211.689 581.8C211.337 581.944 210.945 582.056 210.513 582.136C210.081 582.216 209.641 582.256 209.193 582.256C207.817 582.256 206.785 581.872 206.097 581.104C205.425 580.336 205.089 579.184 205.089 577.648V571.216H202.977V568.912H205.089V565.456H207.777V568.912H211.425V571.216H207.777V576.16C207.777 577.584 207.913 578.552 208.185 579.064C208.473 579.576 209.001 579.832 209.769 579.832C210.073 579.832 210.393 579.8 210.729 579.736C211.081 579.672 211.401 579.592 211.689 579.496V581.8Z" fill="#212121"/>
<rect x="6" y="28" width="300" height="509.301" rx="12" stroke="#212121" stroke-width="8"/>
<mask id="mask0_212_6550" style="mask-type:alpha" maskUnits="userSpaceOnUse" x="10" y="32" width="292" height="502">
<rect x="10" y="32" width="292" height="501.301" rx="8" fill="#D9D9D9"/>
</mask>
<g mask="url(#mask0_212_6550)">
<path d="M281.274 323.435L239.059 364.322L243.112 375.644L262.053 366.768L288.612 334.268L281.274 323.435Z" fill="#212121"/>
<path d="M302.24 365.021V404.23C154.139 514.8 53.7733 460.703 -1.79102 402.134V370.612C1.63371 370.193 5.05843 369.284 8.48315 369.354C30.4992 369.634 48.1121 384.241 52.7949 405.698C53.2841 408.005 52.725 409.542 51.2572 411.359C49.1605 413.945 47.6228 417.021 45.8755 419.886C46.225 420.096 46.5045 420.306 46.854 420.515C47.4131 419.816 48.1121 419.187 48.6013 418.488C57.6873 406.537 74.1819 403.042 86.9023 410.591C87.9507 411.22 88.9991 413.246 88.7894 414.435C87.8808 419.956 89.3485 424.779 92.284 429.322C96.9668 436.66 102.908 442.531 111.015 445.607C110.386 447.773 109.897 449.73 109.338 451.617C114.58 443.929 121.429 439.806 130.725 439.596C140.929 439.316 148.407 444.838 150.434 454.623C150.434 454.762 150.784 454.762 151.203 454.902C154.488 446.655 161.058 442.392 169.445 441.343C177.762 440.295 185.45 442.112 190.832 449.8C190.762 448.123 190.063 446.935 189.924 445.607C189.574 442.601 188.735 439.386 189.364 436.451C193.348 417.72 204.95 405.488 222.703 398.988C234.165 394.795 243.391 397.591 250.87 407.096C251.009 407.306 251.429 407.375 251.638 407.515C251.219 405.139 250.45 402.832 248.913 401.365C245.698 398.359 245.907 395.074 247.515 391.65C255.832 374.456 269.251 364.881 288.611 364.392C293.224 364.182 297.697 364.741 302.24 365.021Z" fill="white"/>
<path d="M269.252 320.988C277.639 313.65 286.166 306.451 294.623 299.252C297.069 297.155 299.655 295.128 302.171 293.101V290.306C291.268 299.182 280.435 307.988 269.532 316.935C268.553 317.703 267.784 318.752 267.015 319.66C264.919 316.236 262.822 312.881 260.515 309.246C261.354 308.967 262.682 308.408 264.01 307.988C271.838 305.892 278.338 301.628 282.811 295.058C286.795 289.187 287.144 282.617 284.558 275.978C285.816 294.849 269.252 304.074 256.392 305.402C252.897 305.752 249.123 304.144 245.489 303.375C240.526 302.327 235.564 300.929 230.532 300.16C227.736 299.741 226.408 298.763 226.268 295.897C226.198 294.359 225.569 292.752 224.451 291.214C224.241 293.66 224.032 296.037 223.892 298.413C220.397 299.112 218.3 298.064 216.693 294.709C209.214 279.402 197.892 267.73 182.306 260.601C167.489 253.822 151.973 252.564 136.037 255.01C119.053 257.596 104.865 265.634 93.403 278.074C88.5804 283.386 85.3654 290.166 81.2417 296.177C80.403 297.365 79.1449 298.623 77.8869 299.042C72.9245 300.51 67.8224 301.768 62.7203 302.886C61.1127 303.236 59.2256 303.445 57.688 302.886C52.1665 300.999 47.344 298.203 43.8493 293.381C43.0805 292.263 42.3816 291.074 41.7526 289.746C41.8225 291.004 42.0321 292.263 42.4515 293.521C44.1988 299.182 49.0214 304.004 54.7525 305.822C50.8386 309.246 46.7149 312.881 42.0321 316.935C38.0483 312.811 33.4354 308.198 29.0322 303.445C19.8763 293.59 10.7903 283.596 1.70429 273.671C0.44623 272.273 -0.741939 270.736 -2 269.268V286.042C0.0268762 290.306 2.19354 294.499 4.15052 298.832C13.2365 318.682 22.3225 338.601 34.0644 357.123C43.7794 372.429 54.3332 387.106 67.8224 399.477C68.5213 400.106 69.0106 400.875 69.5697 401.504C65.1665 403.042 60.9729 404.44 56.4998 405.977C55.6611 398.639 53.0052 391.649 48.1827 385.918C44.1289 381.166 39.516 376.623 34.4139 372.988C30.4999 370.123 25.3978 368.864 20.9247 366.698C20.1559 366.348 19.5268 365.16 19.2473 364.182C17.4999 358.52 16.4516 352.649 14.0752 347.268C11.1397 340.279 4.49998 336.644 -1.79032 332.87V338.461C-0.741939 338.741 0.586015 338.671 1.35483 339.3C9.95158 345.8 14.5645 354.467 15.1236 364.741C9.32255 365.3 3.73117 365.859 -1.79032 366.418V370.612C1.6344 370.192 5.05912 369.284 8.48384 369.354C30.4999 369.633 48.1128 384.241 52.7955 405.698C53.2848 408.004 52.7257 409.542 51.2579 411.359C49.1612 413.945 47.6235 417.02 45.8762 419.886C46.2257 420.096 46.5052 420.305 46.8547 420.515C47.4138 419.816 48.1128 419.187 48.602 418.488C57.688 406.536 74.1826 403.042 86.903 410.59C87.9514 411.219 88.9998 413.246 88.7901 414.434C87.8815 419.956 89.3492 424.778 92.2847 429.321C96.9675 436.66 102.908 442.531 111.016 445.606C110.387 447.773 109.898 449.73 109.338 451.617C114.58 443.929 121.43 439.805 130.725 439.595C140.93 439.316 148.408 444.837 150.435 454.622C150.435 454.762 150.785 454.762 151.204 454.902C154.489 446.655 161.059 442.391 169.446 441.343C177.763 440.294 185.451 442.112 190.833 449.8C190.763 448.122 190.064 446.934 189.924 445.606C189.575 442.601 188.736 439.386 189.365 436.45C193.349 417.719 204.951 405.488 222.704 398.988C234.166 394.794 243.392 397.59 250.87 407.096C251.01 407.305 251.429 407.375 251.639 407.515C251.22 405.139 250.451 402.832 248.913 401.364C245.698 398.359 245.908 395.074 247.515 391.649C255.833 374.456 269.252 364.881 288.612 364.391C293.085 364.252 297.628 364.811 302.171 365.09V362.994C295.531 359.499 288.333 360.198 281.204 360.827C280.714 352.09 289.591 336.784 302.171 334.338V330.843C300.843 331.053 299.515 331.262 297.558 331.612C299.306 328.956 300.773 326.719 302.171 324.553V295.897C294.833 302.117 287.494 308.338 280.155 314.628C276.591 317.633 273.096 320.709 269.601 323.714C268.623 324.553 267.505 325.322 266.456 326.09C266.247 325.881 265.967 325.671 265.757 325.461C266.945 323.854 267.924 322.176 269.252 320.988ZM235.494 304.983C242.204 306.87 248.913 308.687 255.273 311.413C262.263 314.418 264.01 321.687 259.886 327.628C258.838 329.096 257.3 330.284 255.763 331.123C251.36 333.569 246.747 335.666 242.274 338.042C236.612 340.977 231.091 344.123 225.429 346.988C222.843 348.316 220.118 349.434 217.182 350.692C216.204 346.779 217.741 345.451 220.118 344.123C225.429 341.047 230.532 337.693 235.704 334.338C236.752 333.639 237.591 332.73 238.709 331.682C237.731 331.193 237.032 330.843 236.053 330.354C238.569 326.999 241.085 323.714 243.392 320.709C241.295 319.101 239.338 317.564 237.311 316.096C236.333 315.397 235.144 314.558 234.026 314.558C229.623 314.418 226.757 311.483 223.892 308.967C222.913 308.128 222.284 306.87 221.585 305.402C221.585 305.332 221.516 305.332 221.516 305.263C221.096 304.354 220.607 303.306 220.048 302.187C219.978 301.978 219.838 301.768 219.698 301.628C225.639 302.886 230.671 303.655 235.494 304.983ZM87.2524 292.961C95.2901 277.935 108.01 268.22 123.596 262.139C135.897 257.316 148.828 256.478 161.828 258.505C185.661 262.279 202.924 275.419 213.897 296.666C217.392 303.375 220.467 310.365 220.118 318.332C219.978 321.478 220.956 324.623 221.446 328.047C218.929 327.488 217.112 327.139 214.526 326.65C214.806 329.166 215.016 331.402 215.225 333.429C207.327 331.262 199.639 329.166 191.811 333.219C189.505 334.408 187.338 335.037 184.542 334.617C179.65 333.848 175.876 336.644 172.591 339.999C168.607 344.123 166.65 349.155 165.881 354.676C165.462 357.472 164.064 358.52 161.408 358.94C157.844 359.429 154.279 360.128 150.785 361.037C148.548 361.666 147.779 360.897 146.94 358.94C145.543 355.864 144.075 352.719 142.607 349.644C142.258 348.875 141.838 348.106 141.489 347.408C141.07 346.569 140.65 345.73 140.161 344.891C139.742 344.053 139.252 343.214 138.833 342.375C135.059 335.526 129.118 332.101 121.22 332.94C113.602 333.709 108.849 338.391 105.984 345.101C105.075 347.198 104.446 349.504 103.817 351.741C102.978 354.676 101.301 355.375 99.4137 353.209C96.4782 349.924 92.9137 347.967 88.7901 346.709C88.4406 346.569 88.0912 346.149 87.8815 346.289C87.2524 346.569 86.6933 346.778 86.2041 346.918C86.1342 346.918 85.9944 346.988 85.9245 346.988C85.8546 346.988 85.7847 346.988 85.7148 346.988C85.1557 347.058 84.7363 346.988 84.317 346.779C84.1772 346.709 84.1073 346.639 83.9675 346.569C83.8976 346.569 83.8277 346.499 83.8277 346.429C83.7578 346.359 83.6879 346.359 83.6879 346.289C82.6396 345.241 82.36 343.144 81.9406 341.606C77.2579 324.623 79.0052 308.408 87.2524 292.961ZM185.731 355.725C179.65 361.037 174.268 367.187 168.048 373.547C168.537 372.219 168.747 371.311 169.236 370.612C177.274 359.778 186.29 349.924 198.311 343.354C200.338 342.236 202.575 341.397 204.811 340.838C207.397 340.209 209.983 340.279 212.569 342.795C200.618 341.746 193.279 349.155 185.731 355.725ZM211.521 347.198C211.241 348.735 211.381 350.483 210.682 351.671C203.064 364.112 192.091 371.73 177.553 373.967C176.575 374.106 175.526 373.967 174.478 373.967C174.268 373.687 174.129 373.407 173.919 373.128C176.575 370.262 178.951 367.117 181.817 364.531C188.107 359.08 194.607 353.908 201.177 348.805C202.575 347.687 204.462 346.918 206.209 346.639C207.956 346.359 209.774 346.918 211.521 347.198ZM187.198 339.999C190.833 336.504 195.655 333.988 201.107 334.547C203.763 334.827 206.349 336.225 209.005 337.063C208.865 337.553 208.795 337.972 208.655 338.461C202.016 337.972 196.774 341.117 191.602 344.542C183.215 350.133 176.225 357.192 170.005 365.09C169.655 365.02 169.306 364.881 168.957 364.811C169.306 362.714 168.957 360.058 170.075 358.73C175.526 352.23 181.118 345.8 187.198 339.999ZM183.704 338.671C179.37 343.773 174.967 349.015 170.564 354.117C170.215 346.219 177.483 337.832 183.704 338.671ZM143.656 365.09C150.715 363.902 157.704 362.714 165.112 361.456C165.112 364.951 165.043 367.956 165.112 370.961C165.182 372.918 164.414 373.687 162.457 373.617C159.381 373.477 156.236 373.617 153.021 373.617V370.612C147.08 374.037 147.989 365.37 143.656 365.09ZM126.742 402.203C126.462 401.924 126.182 401.574 125.833 401.295C125.553 401.015 125.274 400.735 124.924 400.456C122.618 398.499 120.172 397.311 117.446 396.682C116.118 396.402 114.72 396.262 113.322 396.262C112.484 396.262 111.575 396.332 110.666 396.402C110.527 396.402 110.387 396.402 110.247 396.472C110.037 396.472 109.828 396.542 109.618 396.542C108.36 396.751 107.032 397.031 105.704 397.45C105.774 392.838 106.962 391.37 110.946 390.811C111.715 390.671 112.484 390.601 113.252 390.601C113.532 390.601 113.881 390.601 114.161 390.601C117.865 390.601 121.15 391.579 123.736 393.467C124.086 393.676 124.365 393.956 124.715 394.235C124.994 394.515 125.344 394.795 125.623 395.074C125.833 395.284 126.043 395.493 126.252 395.773C127.65 397.381 128.768 399.407 129.537 401.644C129.817 402.553 129.887 403.601 130.027 404.579C129.747 404.859 129.467 405.069 129.188 405.348C128.908 404.929 128.629 404.579 128.419 404.23C127.86 403.531 127.301 402.832 126.742 402.203ZM108.5 401.225C116.607 401.574 119.822 406.676 118.704 417.789C111.295 409.961 102.838 409.612 93.7524 412.966C93.7524 406.327 100.672 400.875 108.5 401.225ZM120.102 389.413C117.865 388.504 115.559 388.225 113.322 388.574C111.225 388.854 109.269 389.553 107.451 390.601C107.451 382.773 107.242 374.945 107.521 367.117C107.731 360.687 108.15 354.117 109.338 347.827C110.457 341.746 114.72 337.832 120.941 336.714C125.973 335.805 129.957 337.762 133.172 341.187C133.591 341.606 133.94 342.026 134.29 342.445C138.903 348.176 141.279 354.886 143.656 361.666C141.139 363.553 139.951 362.714 139.182 360.268C138.274 357.542 137.156 354.956 136.107 352.3C135.828 352.37 135.548 352.44 135.268 352.44C133.94 367.187 132.613 381.934 131.354 396.122C127.72 393.956 124.156 391.16 120.102 389.413ZM48.3224 316.305C52.0267 311.972 56.9192 309.596 62.0213 307.639C67.403 305.612 72.9944 303.935 78.7256 301.978C78.6557 303.865 78.3062 305.472 77.7471 306.94C75.5105 312.461 69.9192 315.117 65.5858 318.961C67.0536 321.128 68.6611 323.365 70.1288 325.741C72.8546 330.074 72.7149 330.633 69.0805 334.547C68.6611 334.967 68.4514 335.526 67.7525 336.784C62.5805 333.01 57.7579 329.445 52.9353 325.881C51.5375 324.832 50.1396 323.784 48.8117 322.596C46.2257 320.569 46.1558 318.822 48.3224 316.305ZM14.9139 293.311C17.9892 296.526 21.1343 299.741 24.1397 303.096C41.4031 322.456 60.8332 339.02 83.8976 351.112C84.946 351.671 85.9245 352.16 86.9729 352.649C87.3922 352.859 87.8116 353.069 88.2309 353.279C91.2363 354.746 94.3815 356.074 97.4567 357.332C103.328 359.778 103.328 359.709 102.349 366.838C95.4997 363.832 88.5804 361.386 82.1503 357.961C69.8493 351.531 58.3869 343.773 48.6719 333.779C42.102 327.069 36.0913 319.8 29.9408 312.671C25.0483 307.01 20.3655 301.279 15.6129 295.547C15.1236 294.988 14.7741 294.289 14.3548 293.73C14.6344 293.521 14.7741 293.451 14.9139 293.311ZM19.1075 319.031C18.6881 318.332 18.3387 317.703 17.9892 317.004C13.9354 309.875 10.4408 302.327 6.94621 294.849C6.87632 294.639 6.80643 294.499 6.66664 294.289C6.45697 293.8 6.1774 293.311 6.03761 292.892C5.89783 292.612 5.82794 292.332 5.68815 292.123C5.54837 291.913 5.47847 291.633 5.40858 291.494C5.33869 291.424 5.33869 291.284 5.2688 291.214C5.05912 290.725 4.91934 290.375 4.84944 290.306L4.91934 290.375C15.2634 305.402 24.2795 321.268 35.3924 335.736C36.0913 336.644 36.7902 337.553 37.4891 338.391C39.9354 341.537 42.5214 344.542 45.3171 347.477C35.2526 331.682 25.1182 315.956 15.0537 300.16C15.2634 299.951 15.543 299.811 15.7526 299.601C16.4516 300.58 17.2204 301.558 17.9193 302.537C18.6182 303.515 19.387 304.494 20.086 305.402C20.715 306.171 21.344 307.01 21.9032 307.779C22.3924 308.408 22.8118 308.967 23.301 309.596C23.8601 310.225 24.3494 310.924 24.9085 311.553C27.1451 314.348 29.4515 317.074 31.758 319.73C32.387 320.429 32.9461 321.128 33.5752 321.827C34.2042 322.526 34.8332 323.225 35.4623 323.924C35.8117 324.343 36.1612 324.762 36.5805 325.112C37.1397 325.741 37.6988 326.3 38.258 326.929C38.3977 327.069 38.5375 327.209 38.6773 327.348C39.4461 328.187 40.2149 328.956 41.0536 329.795C41.8225 330.564 42.5913 331.402 43.43 332.171C43.5698 332.311 43.7794 332.52 43.9192 332.66C44.6182 333.359 45.3171 334.058 46.016 334.687C46.1558 334.827 46.2257 334.897 46.3655 335.037C46.9945 335.596 47.6235 336.225 48.1827 336.784C48.5321 337.133 48.8816 337.413 49.231 337.693C49.7203 338.182 50.2794 338.601 50.7687 339.09C51.1181 339.37 51.3977 339.65 51.6773 339.929C52.3762 340.558 53.145 341.257 53.9138 341.886C54.3332 342.305 54.8224 342.655 55.2418 343.004C56.6396 344.262 58.1074 345.451 59.5751 346.569C60.1342 346.988 60.6235 347.408 61.1826 347.827C62.0912 348.526 62.9998 349.225 63.9783 349.924C64.6073 350.413 65.2364 350.832 65.7955 351.252C66.0751 351.461 66.3547 351.671 66.6342 351.811C67.3331 352.3 68.0321 352.789 68.731 353.279C69.4998 353.838 70.3385 354.397 71.1772 354.956C71.2471 355.026 71.317 355.096 71.3869 355.096C72.1557 355.585 72.9245 356.074 73.6235 356.563C73.6933 356.633 73.7632 356.633 73.8331 356.703C75.4406 357.752 77.1181 358.73 78.7955 359.778C78.8654 359.778 78.9353 359.848 78.9353 359.848C79.774 360.338 80.6826 360.827 81.5213 361.316C82.4299 361.805 83.3385 362.295 84.1772 362.784C85.0858 363.273 85.9944 363.762 86.903 364.182C87.532 364.531 88.161 364.811 88.7901 365.16C89.4191 365.51 90.0481 365.789 90.7471 366.069C91.446 366.348 92.0051 366.698 92.704 366.977C93.1933 367.187 93.6825 367.397 94.1718 367.606C94.5212 367.746 94.8707 367.886 95.1503 368.026C95.5696 368.235 95.989 368.375 96.4083 368.585C97.1771 368.934 97.946 369.214 98.6449 369.563C99.2739 369.843 99.9029 370.053 100.602 370.332C101.301 370.612 101.93 370.891 102.629 371.101V378.16C102.769 382.703 102.699 387.246 102.419 391.719C102.349 393.047 102 394.305 101.72 395.563C101.51 396.332 101.301 397.171 101.091 397.94C100.742 397.94 100.462 397.94 100.113 397.94C99.9728 397.101 99.7632 396.192 99.6234 395.354C97.1772 395.633 94.8707 396.402 92.6342 393.606C92.5643 393.536 92.4944 393.397 92.3546 393.327C92.2847 393.257 92.1449 393.187 92.075 393.117C91.9352 393.047 91.8653 392.977 91.7256 392.907C91.5858 392.838 91.5159 392.768 91.3761 392.698C91.2363 392.628 91.0965 392.558 90.9567 392.558C90.6772 392.488 90.4675 392.418 90.1879 392.278C89.9782 392.208 89.8385 392.208 89.6288 392.139H89.5589C89.4191 392.139 89.2793 392.069 89.1395 392.069C89.1395 392.069 89.1395 392.069 89.0696 392.069C88.7901 391.999 88.4406 391.929 88.0912 391.859C87.9514 391.789 87.7417 391.789 87.532 391.719C87.2524 391.649 87.0428 391.579 86.7632 391.579C86.5535 391.51 86.4137 391.51 86.2041 391.44C85.9944 391.37 85.8546 391.3 85.6449 391.23C84.1772 390.671 82.1503 390.112 81.5912 388.993C80.2632 386.407 78.5858 386.058 75.86 387.176C76.2794 386.268 76.5589 385.709 77.0482 384.59C75.86 385.499 75.1611 385.988 74.7417 386.338C70.8977 383.612 66.9138 381.235 63.4192 378.16C63.1396 377.881 62.86 377.671 62.5805 377.391C58.3869 373.687 54.473 369.703 50.7687 365.51C46.1558 360.268 41.473 354.886 37.6289 349.015C31.2687 339.37 24.9784 329.305 19.1075 319.031ZM111.156 440.714C104.236 437.708 99.4137 432.466 95.8492 426.036C93.9621 422.612 94.7309 421.214 98.5051 420.375C99.7632 420.096 101.021 419.956 102.139 419.816C108.01 420.585 113.462 421.074 115.559 430.23C116.048 432.397 116.537 434.563 116.747 436.73C117.096 440.155 114.301 442.112 111.156 440.714ZM120.941 436.87C120.521 435.332 120.032 433.864 119.822 432.327C117.306 416.321 104.306 412.967 92.2847 417.789C93.0535 416.88 93.6126 415.413 94.5911 415.133C100.742 413.106 106.962 413.036 112.833 416.112C114.021 416.741 115.279 417.579 116.048 418.698C119.962 424.079 120.661 430.44 122.059 436.59C121.709 436.59 121.29 436.73 120.941 436.87ZM122.548 407.794C123.317 408.354 123.946 408.913 124.575 409.402C124.785 409.122 125.064 408.843 125.274 408.633C122.478 406.187 119.752 403.741 116.817 401.085C123.247 401.924 127.301 407.026 126.672 413.106C126.462 415.273 126.392 417.509 125.833 419.606C125.344 421.703 124.365 423.73 123.527 425.897C120.941 421.284 120.731 417.44 122.548 407.794ZM187.967 427.434C186.569 431.069 185.801 434.983 184.682 439.176C172.661 434.913 161.408 435.821 152.182 446.585C146.032 437.219 137.156 434.284 125.693 435.612C126.811 430.579 127.86 425.966 128.978 421.074C151.134 427.015 172.451 425.268 193.838 415.902C191.532 420.165 189.435 423.66 187.967 427.434ZM293.854 305.612C295.951 303.655 298.187 301.768 300.983 300.37C298.886 302.746 296.999 305.263 294.763 307.429C275.962 325.601 257.091 343.773 238.22 361.945C233.607 366.348 228.784 370.542 224.102 374.875C224.311 375.155 224.451 375.434 224.661 375.644C227.876 373.687 231.161 371.8 234.306 369.633C236.682 368.026 238.849 366.069 241.225 364.321L241.295 364.252C241.435 364.112 241.575 364.042 241.784 363.902C242.204 363.623 243.112 363.972 243.741 364.042V363.972C243.741 363.413 243.671 362.714 243.951 362.434C255.343 351.671 266.736 340.908 278.198 330.144C278.338 330.074 278.617 330.144 279.386 330.144C275.333 334.547 271.628 338.741 267.714 342.725C261.075 349.504 254.295 356.144 247.446 362.714C246.607 363.553 244.999 363.623 243.741 363.972C243.741 363.972 243.741 363.972 243.741 364.042C244.021 364.042 244.231 364.112 244.37 364.182C244.58 364.252 244.79 364.321 244.929 364.391C244.999 364.461 245.069 364.461 245.139 364.531C245.209 364.601 245.209 364.601 245.279 364.671C245.349 364.741 245.349 364.741 245.349 364.811C245.349 364.881 245.419 365.02 245.349 365.09C245.279 365.44 244.999 365.859 244.37 366.348C243.182 367.257 241.924 368.166 240.736 369.074C237.94 371.171 235.075 373.268 232.279 375.434C231.79 375.784 231.79 376.762 231.3 377.182C230.252 377.95 229.204 378.579 227.876 379.418C227.317 379.768 226.757 380.117 226.198 380.467C226.198 380.467 225.639 381.305 225.01 382.074C224.591 382.563 223.962 382.913 223.472 383.402C223.053 383.752 222.494 384.52 222.284 384.45C218.929 383.053 217.602 386.407 215.295 387.386C213.688 388.085 212.08 388.574 210.193 389.273C210.263 389.692 210.403 390.531 210.403 390.531C209.214 391.3 208.446 391.719 207.747 392.278C204.462 394.585 201.247 396.961 197.892 399.128C196.913 399.757 195.446 399.617 194.327 400.106C190.553 401.784 186.29 402.622 182.865 404.23C179.091 406.047 175.247 405.768 171.612 407.096C169.935 407.725 167.908 407.655 166.231 408.563C164.414 408.004 162.596 407.515 160.709 406.956C160.639 407.725 160.639 408.284 160.569 409.332C158.263 407.235 156.026 406.816 153.091 407.096C151.204 407.305 148.059 405.628 147.22 403.95C145.752 401.015 143.446 398.219 144.285 394.305C144.494 393.397 144.704 392.698 145.053 392.069C145.123 391.929 145.193 391.859 145.263 391.719C145.543 391.3 145.822 390.95 146.172 390.601C146.242 390.531 146.311 390.461 146.451 390.391C146.521 390.321 146.591 390.321 146.591 390.251C146.731 390.112 146.94 390.042 147.08 389.902C147.15 389.832 147.22 389.832 147.36 389.762C147.43 389.692 147.43 389.692 147.5 389.692C147.5 389.692 147.569 389.622 147.639 389.622C147.849 389.553 148.059 389.483 148.268 389.343C148.408 389.273 148.618 389.203 148.828 389.203C149.107 389.133 149.387 389.063 149.666 388.993C154.069 388.085 158.473 387.176 162.806 385.918C157.704 385.219 152.322 388.364 147.5 384.73C149.177 382.843 150.575 380.956 152.252 379.418C153.161 378.579 154.489 377.811 155.607 377.811C159.451 377.881 163.295 378.16 167.069 378.719C179.021 380.467 189.994 377.671 200.268 371.73C211.94 364.95 223.612 358.171 234.935 350.902C255.903 337.413 275.682 322.526 293.854 305.612Z" fill="#212121"/>
<path d="M54.8932 305.822C50.9792 309.246 46.8555 312.881 42.1728 316.934C38.1889 312.811 33.576 308.198 29.1728 303.445C20.0169 293.59 10.9309 283.596 1.84492 273.671C0.586855 272.273 -0.601314 270.736 -1.85938 269.268V267.94C7.99544 281.01 23.3018 295.198 42.5222 293.451C44.4093 299.112 49.2319 303.934 54.8932 305.822Z" fill="#EAF9FF"/>
<path d="M302.242 260.741V290.236C291.339 299.112 280.505 307.919 269.602 316.865C268.624 317.634 267.855 318.682 267.086 319.591C264.989 316.166 262.892 312.811 260.586 309.177C261.425 308.897 262.753 308.338 264.081 307.919C271.909 305.822 278.409 301.558 282.882 294.989C286.865 289.118 287.215 282.548 284.629 275.908C285.887 294.779 269.323 304.005 256.462 305.333C252.968 305.682 249.194 304.075 245.559 303.306C240.597 302.257 235.634 300.86 230.602 300.091C227.807 299.671 226.479 298.693 226.339 295.827C226.269 294.29 225.64 292.682 224.522 291.144C224.312 293.591 224.102 295.967 223.962 298.343C220.468 299.042 218.371 297.994 216.764 294.639C209.285 279.333 197.963 267.661 182.377 260.532C167.559 253.752 152.043 252.494 136.108 254.94C119.124 257.526 104.936 265.564 93.4736 278.005C88.651 283.317 85.4359 290.096 81.3123 296.107C80.4736 297.295 79.2155 298.553 77.9575 298.972C72.9951 300.44 67.893 301.698 62.7908 302.816C61.1833 303.166 59.2962 303.376 57.7586 302.816C52.2371 300.929 47.4145 298.134 43.9199 293.311C79.4951 288.628 105.565 261.161 105.565 261.161C105.565 261.161 142.538 222.86 199.43 264.096C199.43 264.096 212.5 282.757 227.177 286.112C238.919 288.698 273.656 289.537 302.242 260.741Z" fill="#EAF9FF"/>
<path d="M248.635 555.616C250.661 555.616 252.688 555.616 254.506 555.616C253.457 554.498 253.317 553.38 255.833 552.262C257.092 551.703 258 549.326 258.07 547.719C258.489 540.59 258.489 533.391 258.699 526.262C258.769 524.235 259.188 522.208 259.468 519.552C256.532 519.832 253.667 520.181 250.242 520.531C251.85 517.036 253.317 513.821 254.925 510.676C256.393 507.81 258.28 505.084 259.678 502.149C261.355 498.514 263.382 495.998 268.274 498.165C264.43 504.385 260.516 510.676 256.323 517.455C258.839 517.805 261.005 518.084 263.452 518.434C258.14 528.079 261.565 538.213 260.796 547.928C260.796 548.138 261.914 548.487 262.124 548.557C261.844 549.885 261.495 551.213 261.215 552.471C262.194 552.891 263.592 553.1 264.43 553.939C264.78 554.289 263.871 555.896 263.452 557.084C264.57 557.294 265.898 557.573 267.855 557.993C267.505 556.805 267.156 555.547 267.016 554.918C268.344 553.799 269.672 552.681 270.511 551.912C271.35 552.332 272.398 552.821 273.446 553.31C273.656 552.751 273.936 552.192 274.215 551.563C274.704 551.703 275.333 551.842 276.172 552.052C275.893 550.864 275.683 549.955 275.403 548.977C275.543 548.907 275.753 548.837 275.893 548.697C276.591 549.746 277.29 550.794 277.64 551.353C279.946 551.423 281.833 551.563 284 551.633C284 549.885 284 548.208 284 546.6C283.022 546.6 282.183 546.6 281.484 546.6C281.344 546.391 281.274 546.251 281.274 546.181C284.21 546.181 281.973 543.176 283.511 542.197C284.21 541.708 284.419 540.24 284.419 539.192C284.629 527.729 284.699 516.267 284.839 504.735C284.839 504.316 285.048 503.966 285.118 503.547C285.538 503.547 285.887 503.547 286.307 503.617C286.307 516.686 286.307 529.686 286.307 543.455C288.473 541.848 289.661 540.17 290.919 540.17C292.247 540.17 293.645 541.638 295.742 542.966C297.909 539.751 300.005 536.676 302.172 533.53C302.172 548.208 302.172 562.885 302.172 577.563C200.828 577.563 99.4844 577.563 -1.85938 577.563C-1.85938 563.584 -1.85938 549.606 -1.85938 535.627C-0.251853 535.487 1.28578 535.348 2.40405 535.278C2.40405 536.606 2.12448 538.283 2.47395 539.751C2.82341 541.079 3.94168 542.127 5.12985 543.944C5.19975 543.735 4.85028 544.504 4.64061 544.993C7.64598 546.67 10.3019 548.208 13.8664 550.305C13.0976 548.348 12.7481 547.509 12.3987 546.67C12.6083 546.53 12.818 546.391 13.0277 546.321C14.4954 548.557 15.9632 550.724 17.2212 552.681C17.8502 551.423 18.5492 550.444 18.7588 549.396C19.3879 546.321 20.2266 543.246 20.2965 540.17C20.7857 524.934 20.9954 509.697 21.3449 494.531C21.3449 493.971 21.4846 493.412 21.904 492.853C23.0922 512.982 22.1836 533.111 23.3018 552.821C24.9793 554.079 26.3771 555.616 28.0545 556.176C29.8717 556.735 31.9685 556.315 33.9255 556.315C33.9954 556.595 34.0653 556.875 34.1351 557.224C34.7642 556.245 35.4631 555.337 36.0921 554.358C36.3018 554.428 36.5115 554.568 36.7911 554.638C36.8609 555.826 36.9308 557.014 37.0007 558.202C37.2803 558.202 37.5599 558.272 37.7695 558.272C37.9792 557.504 38.2588 556.805 38.6083 555.547C39.0975 556.385 39.5169 556.875 39.7265 557.504C40.705 560.439 42.3125 560.998 44.9685 559.321C47.6244 557.643 50.4899 556.176 53.8448 558.412C53.6351 557.853 53.3555 557.364 53.1458 556.805C55.8716 557.364 61.6727 549.815 62.3716 544.574C60.3448 544.434 58.3179 544.224 55.3125 544.014C56.4308 542.966 56.9899 542.127 57.5491 542.057C60.205 541.987 62.9308 541.848 65.5168 542.267C67.6834 542.616 67.4738 544.084 66.2856 545.622C62.5114 550.444 58.8071 555.337 54.963 560.369C57.619 561.348 61.8125 558.901 63.3501 563.025C65.7265 562.606 68.0329 562.326 70.2695 561.767C72.7157 561.208 74.2533 561.138 72.5759 564.283C72.2264 564.912 72.4361 565.751 72.5759 566.659C73.4845 564.563 74.1834 562.326 77.9576 563.934C77.9576 553.1 77.9576 542.966 77.9576 532.762C77.9576 532.552 77.9576 532.272 77.9576 532.063C77.6081 529.826 80.3339 526.821 76.7694 525.493C74.6028 524.654 72.0168 524.794 69.6404 524.444C69.0114 524.375 68.3125 524.235 67.1942 523.955C70.549 517.106 73.6942 510.606 77.049 504.106C77.3286 503.477 78.7264 503.127 79.4952 503.127C80.7533 503.197 81.9415 503.756 83.549 504.176C80.5436 509.767 77.6081 515.359 74.3931 521.509C77.7479 522.138 80.3339 522.627 83.3393 523.186C83.0597 524.375 83.1995 525.842 82.5705 526.681C79.4253 530.875 79.9845 535.697 80.0544 540.38C80.0544 544.923 80.0544 549.466 80.2641 554.009C80.3339 555.197 80.963 556.455 81.6619 557.504C82.7802 559.391 83.549 561.068 80.5436 562.186C83.3393 561.278 86.2049 566.31 87.9522 562.676C90.1189 562.466 91.4468 562.116 92.7049 562.326C93.9629 562.466 95.1511 563.025 96.2694 563.654C97.9468 564.633 99.5543 565.751 101.232 566.799C101.581 566.659 102.001 566.52 102.35 566.45C102.35 548.278 102.35 530.106 102.35 511.864C102.979 511.864 103.538 511.864 104.167 511.864C104.167 531.294 104.167 550.724 104.167 570.154C104.587 570.154 104.936 570.154 105.355 570.224C105.425 568.337 105.565 566.52 105.705 563.864C106.683 565.052 107.103 565.541 107.452 566.1C107.802 565.401 108.081 564.702 108.501 563.724C114.232 569.805 121.011 563.864 127.371 565.891C127.371 565.961 127.092 566.659 126.742 567.708C130.307 565.331 135.898 565.751 137.855 567.848C138.974 566.45 140.371 565.192 141.21 563.654C143.517 559.53 145.613 555.267 148.339 549.955C142.259 551.073 137.156 551.982 131.076 553.03C137.576 540.03 144.146 527.52 151.414 515.149C153.651 517.455 155.748 519.622 158.264 522.208C154.28 528.988 149.807 536.466 145.054 544.504C150.366 544.504 154.629 544.504 159.452 544.504C158.683 545.832 158.264 546.74 157.705 547.509C153.371 553.729 149.038 559.88 144.775 566.1C144.285 566.799 144.495 567.917 144.355 568.826C144.705 568.896 144.984 568.966 145.334 569.036C145.753 568.197 146.172 567.288 147.011 565.541C148.479 567.358 149.667 568.896 150.436 569.874C151.065 568.686 151.484 566.799 152.603 565.821C154.14 564.423 156.167 563.584 157.775 566.24C158.054 566.659 160.361 566.52 160.64 566.03C162.527 562.676 163.995 564.283 165.463 566.1C166.861 565.332 168.189 564.563 169.726 563.724C169.656 565.541 169.586 566.659 169.517 567.778C169.726 567.848 169.936 567.918 170.215 568.057C171.124 567.009 172.033 565.961 172.732 565.052C174.619 565.821 176.226 566.52 177.904 567.149C178.043 566.939 178.183 566.799 178.323 566.59C176.785 565.122 175.248 563.724 173.64 562.186C175.737 558.202 178.463 565.262 180.559 561.348C180.559 562.396 180.559 562.885 180.559 563.794C181.678 563.025 182.447 561.977 183.146 561.977C185.941 562.186 188.737 562.745 191.533 563.025C192.581 563.165 193.839 563.095 194.608 562.606C195.027 562.256 194.678 560.788 194.678 559.181C196.984 560.788 199.081 562.256 201.317 563.794C200.619 559.67 205.022 565.471 204.882 561.977C206.769 562.606 208.656 563.235 211.172 564.073C210.683 561.907 210.264 559.81 209.774 557.713C209.635 557.154 209.145 556.385 209.355 555.966C212.43 550.235 210.683 544.084 210.963 538.143C211.242 531.993 211.033 525.842 211.033 519.272C208.586 519.692 205.791 520.181 202.296 520.81C203.484 518.084 204.393 515.708 205.581 513.402C208.377 508.02 211.102 502.638 214.248 497.466C215.226 495.859 217.253 494.601 219.14 493.762C221.307 492.783 223.753 492.434 226.618 491.665C223.054 497.326 219.699 502.638 216.344 507.95C215.296 509.627 214.038 511.165 213.059 512.912C212.43 513.961 212.151 515.149 211.662 516.267C212.92 516.477 214.248 516.826 215.506 516.756C217.812 516.617 220.119 516.127 223.334 515.708C221.656 518.574 220.468 520.81 219.07 522.907C215.366 528.289 213.059 533.95 213.688 540.799C214.108 545.971 213.898 551.213 213.828 556.455C213.758 558.971 214.877 560.09 217.393 560.509C220.468 561.068 223.403 559.6 226.059 559.88C233.608 560.788 232.699 554.428 234.936 550.794C235.495 549.885 236.124 548.907 237.032 547.369C234.167 547.858 231.791 548.278 228.575 548.907C233.118 545.272 237.382 543.944 243.043 545.063C239.618 550.375 236.473 555.337 233.258 560.299C233.608 560.649 233.957 561.068 234.307 561.418C235.565 560.579 236.893 559.81 238.151 558.971C239.968 557.713 241.715 556.455 243.463 555.127L243.323 554.987C242.903 556.106 242.484 557.154 241.995 558.272C243.043 557.993 244.231 557.923 245.21 557.504C245.979 557.154 246.538 556.385 247.237 555.756C247.796 555.756 248.215 555.686 248.635 555.616Z" fill="white"/>
<path d="M302.24 175.612V187.494C288.961 192.177 286.235 195.043 277.918 213.284C277.638 213.215 277.359 213.215 277.009 213.145C277.638 209.86 277.848 206.435 278.966 203.29C282.042 194.833 287.703 188.612 296.369 185.467C299.025 184.489 299.654 182.811 299.165 180.295C297.767 173.376 294.622 167.645 290.359 163.451C285.396 158.559 278.757 155.623 271.488 155.344C268.413 155.204 265.128 155.484 261.843 156.322C257.999 157.301 254.504 159.957 251.009 162.263C254.784 163.451 258.138 164.919 261.144 166.736C267.154 170.301 271.697 175.053 274.423 181.414C275.611 184.139 276.45 187.145 277.009 190.5C275.611 187.844 274.144 185.258 272.536 182.881C268.762 177.29 264.289 172.607 258.628 169.532C254.574 167.295 249.821 165.897 244.3 165.618C227.945 164.709 216.622 171.838 211.101 187.914C209.773 182.043 204.741 178.548 197.542 178.199C184.612 177.5 175.526 183.51 169.305 194.414C168.606 195.672 167.977 197.069 167.139 198.607C166.929 196.79 167.278 194.693 168.047 192.526C169.795 187.774 173.569 182.742 177.762 179.946C188.526 172.817 199.429 172.677 209.983 178.967C213.966 174.983 217.531 170.65 221.794 167.365C228.085 162.543 235.563 160.795 243.461 161.215C245.907 161.354 247.305 160.166 249.122 158.699C252.617 155.973 256.531 153.736 260.585 151.919C263.939 150.451 265.477 148.844 264.568 145.349C262.192 136.263 257.439 128.575 251.149 122.914C242.203 114.946 230.112 111.032 217.042 113.129C215.504 113.408 214.036 113.688 212.569 114.037C212.009 114.177 211.52 114.317 210.961 114.457C210.472 114.597 209.983 114.736 209.493 114.876C209.423 114.876 209.354 114.946 209.284 114.946C208.864 115.086 208.445 115.226 208.026 115.365C207.397 115.575 206.768 115.855 206.208 116.064C205.999 116.134 205.719 116.274 205.509 116.344C205.16 116.484 204.88 116.623 204.601 116.763C204.391 116.833 204.182 116.973 203.972 117.043C203.692 117.183 203.413 117.322 203.133 117.462C202.923 117.532 202.784 117.672 202.574 117.742C202.155 117.951 201.735 118.161 201.316 118.441C200.897 118.72 200.477 118.93 200.058 119.209C200.058 119.209 199.988 119.279 199.918 119.279C199.778 119.349 199.639 119.489 199.429 119.559C199.219 119.699 199.01 119.838 198.8 119.978C198.66 120.048 198.45 120.188 198.311 120.328C198.031 120.537 197.751 120.747 197.472 120.957C197.262 121.166 196.983 121.306 196.773 121.516C196.284 121.865 195.794 122.285 195.375 122.704C195.165 122.914 194.886 123.123 194.676 123.333C194.187 123.752 193.768 124.172 193.278 124.661C192.859 125.08 192.37 125.57 191.95 126.059C191.811 126.199 191.671 126.408 191.461 126.548C191.321 126.688 191.251 126.828 191.112 126.967C190.972 127.107 190.832 127.317 190.692 127.457C190.483 127.736 190.273 128.016 190.063 128.295C189.924 128.505 189.714 128.715 189.574 128.924C189.155 129.484 188.735 130.043 188.316 130.602C188.176 130.881 187.967 131.091 187.757 131.371C187.407 131.93 186.988 132.489 186.639 133.118C186.499 133.398 186.359 133.607 186.219 133.887C185.73 134.656 185.311 135.494 184.891 136.333C184.751 136.682 184.542 137.032 184.402 137.381C184.053 138.01 183.773 138.639 183.493 139.338C183.354 139.688 183.144 140.107 183.004 140.527C182.794 141.016 182.585 141.505 182.375 141.994C182.235 142.414 182.096 142.763 181.956 143.182C181.536 144.371 181.117 145.629 180.698 146.817C180.558 147.306 180.418 147.795 180.278 148.285C180.069 148.984 179.929 149.613 179.719 150.311C179.719 150.381 179.579 150.451 179.51 150.521C178.182 145.419 179.789 137.521 183.633 131.231C183.773 131.021 183.913 130.812 183.983 130.602C183.983 130.602 183.983 130.602 183.983 130.532C184.122 130.252 184.332 130.043 184.472 129.763C184.821 129.204 185.241 128.575 185.66 128.016C185.87 127.736 186.079 127.387 186.289 127.107C186.499 126.758 186.778 126.478 186.988 126.199C186.988 126.199 186.988 126.199 186.988 126.129C187.198 125.849 187.407 125.57 187.617 125.36C187.827 125.15 188.036 124.871 188.246 124.661C188.386 124.451 188.526 124.312 188.735 124.102C189.155 123.613 189.644 123.123 190.063 122.634C190.273 122.355 190.553 122.145 190.832 121.865C191.042 121.656 191.251 121.446 191.531 121.166C191.881 120.887 192.16 120.537 192.51 120.258C192.789 120.048 193.069 119.769 193.348 119.559C193.628 119.349 193.907 119.07 194.187 118.86C194.467 118.65 194.746 118.371 195.026 118.161C195.305 117.951 195.585 117.742 195.864 117.462C196.144 117.183 196.423 117.043 196.773 116.833C197.053 116.623 197.402 116.414 197.682 116.204C197.891 116.064 198.101 115.924 198.38 115.785C199.988 114.736 201.665 113.828 203.343 112.989C203.622 112.849 203.902 112.709 204.182 112.57C204.321 112.5 204.461 112.43 204.601 112.36C204.88 112.22 205.16 112.15 205.44 112.011C205.789 111.871 206.139 111.731 206.558 111.591C207.117 111.381 207.676 111.172 208.235 110.962C209.354 110.613 210.472 110.263 211.59 109.984C211.94 109.914 212.289 109.774 212.638 109.704C212.988 109.634 213.337 109.564 213.687 109.494C214.176 109.424 214.595 109.285 215.085 109.215C215.225 109.215 215.364 109.145 215.504 109.145C215.923 109.075 216.343 109.005 216.762 108.935C217.251 108.865 217.741 108.795 218.3 108.726C218.3 108.726 218.37 108.726 218.44 108.726C218.929 108.656 219.418 108.586 219.907 108.586H219.977C220.466 108.516 220.956 108.516 221.445 108.446C221.864 108.376 222.354 108.376 222.773 108.376C223.262 108.376 223.751 108.306 224.241 108.306C225.009 108.306 225.778 108.236 226.547 108.236C227.735 108.236 228.854 108.306 230.042 108.236C230.321 108.236 230.671 108.027 231.16 107.747C230.671 106.07 230.112 104.392 229.413 102.785C229.273 102.505 229.203 102.295 229.063 102.016C228.993 101.946 228.993 101.876 228.923 101.736C228.784 101.387 228.644 101.107 228.504 100.758C228.504 100.758 228.504 100.688 228.434 100.688C228.294 100.408 228.155 100.129 228.015 99.8493C227.945 99.7095 227.875 99.5697 227.805 99.36C227.805 99.2901 227.735 99.2202 227.665 99.1503C227.526 98.8009 227.316 98.5213 227.176 98.2417C227.106 98.1718 227.106 98.1019 227.106 98.1019C226.966 97.8224 226.757 97.4729 226.617 97.1933C226.547 97.1235 226.477 96.9837 226.477 96.9138C226.337 96.6342 226.128 96.3546 225.918 96.0751C225.638 95.5858 225.289 95.0966 225.009 94.6772C224.87 94.4675 224.66 94.188 224.52 93.9783C223.681 92.7901 222.843 91.6719 221.864 90.5536C211.171 77.973 198.59 70.0052 184.472 66.0214C174.687 63.2956 164.133 62.4569 152.881 63.3655C138.553 64.5536 125.553 69.516 114.16 78.1128C104.515 85.3815 97.0367 94.6073 91.9345 105.86C91.3055 107.328 90.6765 108.726 90.1173 110.193C86.8324 118.65 85.155 127.247 85.8539 136.403C86.0636 139.199 87.1819 141.924 88.0206 144.65C88.6496 146.607 89.5582 148.424 89.9776 150.591C82.0098 139.828 71.5959 137.941 59.5744 141.365C50.4884 143.951 41.8917 152.199 39.1659 161.005C48.5314 165.338 55.1013 172.188 57.4077 182.811C71.3163 175.682 83.7571 177.43 94.3808 189.731C99.2732 185.328 104.934 183.371 111.295 183.86C111.854 182.602 112.413 181.414 112.972 180.295C119.752 167.365 129.117 162.682 143.235 164.779C143.585 164.849 143.864 164.849 144.214 164.919C144.494 164.989 144.703 164.989 144.983 165.059C145.192 165.129 145.402 165.129 145.612 165.199C145.682 165.199 145.682 165.199 145.752 165.199C146.031 165.268 146.241 165.338 146.52 165.408C147.359 165.618 148.128 165.897 148.897 166.177C149.106 166.247 149.316 166.317 149.456 166.387C149.526 166.457 149.666 166.457 149.735 166.526C149.945 166.596 150.085 166.666 150.295 166.736C150.504 166.806 150.714 166.876 150.854 167.016C150.924 167.016 150.924 167.016 150.994 167.086C151.203 167.225 151.483 167.295 151.692 167.435C152.182 167.645 152.671 167.924 153.16 168.204C153.44 168.344 153.719 168.483 153.929 168.623C154.278 168.833 154.558 169.043 154.907 169.252C155.047 169.322 155.187 169.462 155.327 169.532C155.676 169.742 156.026 170.021 156.375 170.231C156.795 170.51 157.144 170.79 157.493 171.069C157.633 171.209 157.843 171.349 157.983 171.489C158.053 171.559 158.192 171.629 158.262 171.699C158.402 171.838 158.542 171.978 158.682 172.048C159.031 172.397 159.381 172.747 159.73 173.026C160.289 173.586 160.778 174.145 161.268 174.704C161.407 174.914 161.547 175.053 161.687 175.263C162.106 175.822 162.526 176.381 162.805 176.94C162.945 177.15 163.015 177.29 163.085 177.5C163.225 177.709 163.295 177.919 163.364 178.059C163.854 179.107 164.203 180.155 164.343 181.204C163.504 180.575 162.735 179.946 161.897 179.247C161.617 179.037 161.338 178.758 161.058 178.548C160.08 177.709 159.101 176.871 158.053 176.032C157.703 175.752 157.354 175.473 157.004 175.193C156.864 175.053 156.655 174.914 156.515 174.774C156.166 174.494 155.746 174.215 155.397 173.935C154.418 173.236 153.44 172.537 152.461 171.908C152.252 171.768 152.042 171.629 151.832 171.489C151.343 171.139 150.784 170.86 150.295 170.58C140.23 165.129 124.085 167.016 117.026 177.639C116.397 178.618 115.838 179.457 115.488 180.295C114.37 182.672 114.3 184.629 115.209 186.865H108.15C104.166 186.865 100.531 188.123 97.6657 190.919C96.4775 192.037 95.7087 193.645 94.5904 195.252C89.7679 188.263 83.4776 182.462 73.6926 182.043C64.1174 181.693 56.4991 185.188 51.1873 193.435C50.9078 193.295 50.6981 193.086 50.4185 192.876C51.1174 191.198 51.6067 189.311 52.6551 187.844C54.2626 185.607 54.3325 183.65 53.4239 181.064C50.6981 172.118 44.3379 166.596 35.811 164.43C33.7842 163.871 31.5476 163.591 29.311 163.381C21.0638 162.822 9.11218 167.435 4.77886 177.29C4.07994 178.828 2.82188 180.086 1.63371 181.833C11.1391 185.677 18.6175 190.919 22.2519 199.166C23.2304 201.333 23.8595 203.709 24.2788 206.365C24.4885 207.903 24.6283 209.58 24.6283 211.327C23.9992 209.58 23.3702 207.903 22.6014 206.225C21.2734 203.22 19.7358 200.354 17.9885 197.838C14.2143 192.526 9.25196 188.543 2.19284 186.795C0.864891 186.516 -0.39317 186.306 -1.79102 186.096V180.505C-1.23188 179.666 -0.532955 178.897 -0.113601 177.989C5.89714 165.338 18.8272 158.07 32.596 159.747C32.8057 159.747 32.9454 159.817 33.1551 159.817C33.5046 159.817 33.7842 159.817 34.0637 159.817C34.1336 159.817 34.2035 159.817 34.2734 159.817C34.3433 159.817 34.4132 159.817 34.4831 159.817C34.553 159.817 34.6229 159.817 34.6928 159.747C34.7626 159.747 34.8325 159.677 34.9024 159.677C34.9723 159.677 35.0422 159.607 35.1121 159.607C35.182 159.607 35.2519 159.537 35.3218 159.467C35.3917 159.397 35.4616 159.397 35.4616 159.328C35.5315 159.258 35.6014 159.258 35.6014 159.188C35.6712 159.118 35.7411 159.048 35.7411 158.978C35.811 158.908 35.8809 158.838 35.8809 158.768C35.9508 158.699 36.0207 158.629 36.0207 158.559C36.0906 158.489 36.0906 158.419 36.1605 158.349C36.2304 158.279 36.3003 158.139 36.3003 158C44.1282 141.715 62.7196 132.419 79.9131 138.15C80.6819 138.43 81.4507 138.5 82.0098 138.639C82.3593 133.328 82.0797 128.086 83.1281 123.053C83.198 122.704 83.2679 122.355 83.3378 122.005C83.4077 121.656 83.4776 121.306 83.5475 120.957C83.6872 120.467 83.7571 120.048 83.8969 119.559C83.9668 119.279 84.0367 119 84.1066 118.72C84.1765 118.441 84.2464 118.161 84.3163 117.881C84.5958 116.763 84.9453 115.575 85.2249 114.457C85.2948 114.177 85.3647 113.898 85.5044 113.618C85.5743 113.338 85.6442 113.059 85.784 112.779C85.9937 112.15 86.2034 111.451 86.413 110.822C86.5528 110.403 86.6926 109.984 86.8324 109.564C87.1819 108.516 87.6012 107.468 88.0206 106.419C88.1604 106.07 88.3001 105.79 88.4399 105.441C89.4184 103.064 90.5367 100.828 91.7249 98.6611C91.9345 98.2417 92.2141 97.8224 92.4238 97.3331C93.3324 95.6557 94.3109 94.1181 95.3593 92.5106C95.499 92.3009 95.7087 92.0213 95.8485 91.8116C96.4775 90.903 97.1066 90.0643 97.7356 89.2256C97.9453 88.9461 98.1549 88.6665 98.3646 88.3869C98.7141 87.8977 99.1334 87.4783 99.4829 86.9891C100.112 86.2901 100.671 85.5912 101.3 84.8923C101.51 84.6127 101.719 84.4031 101.999 84.1934C102.209 83.9837 102.348 83.774 102.558 83.5644C102.698 83.3547 102.908 83.2149 103.047 83.0052C103.816 82.2364 104.585 81.4676 105.354 80.7687C105.843 80.3493 106.262 79.93 106.752 79.5106C106.961 79.3009 107.171 79.0912 107.381 78.9515C107.8 78.602 108.289 78.1826 108.709 77.8332C110.386 76.4353 112.064 75.1773 113.881 73.9891C114.16 73.7794 114.44 73.6396 114.719 73.43C115.768 72.731 116.886 72.0321 118.004 71.4031C118.284 71.2633 118.563 71.0536 118.913 70.9138C121.219 69.5859 123.666 68.3278 126.252 67.2096C126.531 67.0698 126.811 66.9999 127.02 66.8601C128.139 66.3708 129.257 65.8816 130.445 65.4622C130.865 65.3225 131.284 65.1128 131.773 64.973C133.381 64.4139 134.988 63.8547 136.596 63.3655C145.961 60.4999 155.117 59.1021 163.924 59.1021C164.553 59.1021 165.182 59.1021 165.811 59.1021C166.37 59.1021 166.999 59.102 167.558 59.1719C167.838 59.1719 168.117 59.1719 168.327 59.2418H168.397C168.676 59.2418 168.956 59.3117 169.235 59.3117C169.305 59.3117 169.305 59.3117 169.375 59.3117C169.655 59.3117 169.934 59.3816 170.214 59.3816C171.192 59.4515 172.101 59.5214 173.079 59.6612C174.897 59.8709 176.714 60.1504 178.531 60.4999C179.02 60.5698 179.51 60.7096 179.999 60.7795C180.698 60.9192 181.467 61.1289 182.165 61.2687C182.864 61.4085 183.633 61.6182 184.332 61.8278C184.821 61.9676 185.311 62.1074 185.8 62.2472C186.499 62.4569 187.198 62.6666 187.897 62.8762C188.665 63.1558 189.434 63.3655 190.203 63.7149C190.622 63.8547 190.972 63.9945 191.391 64.1343C191.741 64.2741 192.09 64.4139 192.44 64.5536C192.789 64.6934 193.069 64.8332 193.418 64.973H193.488C193.558 64.973 193.558 64.973 193.628 65.0429C193.837 65.1128 193.977 65.1827 194.187 65.3225C194.327 65.3924 194.467 65.4622 194.606 65.5321C194.956 65.6719 195.305 65.8117 195.655 66.0214C195.934 66.1612 196.284 66.301 196.563 66.4407C197.332 66.7902 198.031 67.1397 198.8 67.559C199.149 67.7687 199.569 67.9085 199.918 68.1182C200.407 68.3278 200.827 68.6074 201.316 68.887C201.526 69.0268 201.735 69.0966 201.945 69.2364C202.155 69.3762 202.434 69.516 202.644 69.6558C202.993 69.8655 203.343 70.0751 203.692 70.2848C204.88 70.9837 206.069 71.7526 207.187 72.5214C207.606 72.8009 207.956 73.0805 208.375 73.3601C208.515 73.43 208.585 73.4999 208.725 73.5698C209.144 73.8493 209.563 74.1988 209.983 74.4784C210.751 75.0375 211.52 75.5966 212.289 76.2257C212.708 76.5751 213.128 76.8547 213.477 77.2041C214.036 77.6934 214.665 78.1826 215.225 78.6719C215.364 78.8117 215.574 78.9515 215.784 79.0912C216.203 79.4407 216.622 79.7902 216.972 80.1396C217.531 80.6289 218.09 81.1181 218.579 81.6074C219.698 82.5859 220.746 83.6342 221.794 84.6826C222.214 85.102 222.563 85.5213 222.983 85.9407C223.262 86.2901 223.612 86.5697 223.891 86.9192C224.031 87.059 224.101 87.1289 224.241 87.2686C224.52 87.6181 224.8 87.8977 225.079 88.2471C225.219 88.4568 225.429 88.5966 225.569 88.8063C225.778 89.0858 226.058 89.3654 226.267 89.645C226.617 90.0643 226.897 90.4837 227.176 90.903C227.316 91.1127 227.526 91.3224 227.665 91.5321C227.875 91.8116 228.085 92.1611 228.294 92.4407C228.504 92.7202 228.644 92.9998 228.854 93.2794C229.063 93.5589 229.203 93.8385 229.413 94.1181C229.622 94.3976 229.762 94.6772 229.972 95.0267C230.112 95.3063 230.251 95.5159 230.391 95.7955C230.601 96.145 230.741 96.4245 230.95 96.774C231.09 97.0536 231.3 97.3331 231.44 97.6826C231.649 98.1019 231.859 98.5213 232.069 98.9407C232.278 99.36 232.488 99.7794 232.698 100.199C232.907 100.618 233.117 101.107 233.327 101.527C233.536 101.946 233.676 102.365 233.886 102.855C233.956 103.064 234.026 103.204 234.095 103.414C234.235 103.833 234.445 104.322 234.585 104.742C234.724 105.161 234.934 105.58 235.004 106.07C235.214 106.699 235.423 107.398 235.633 108.027C236.332 110.333 237.52 111.521 239.617 112.36C240.526 112.709 241.364 113.059 242.203 113.478C242.343 113.548 242.413 113.618 242.552 113.618C242.692 113.688 242.902 113.758 243.042 113.828C243.321 113.967 243.531 114.037 243.81 114.177C244.09 114.317 244.37 114.457 244.649 114.597C244.929 114.736 245.208 114.876 245.488 115.016C246.187 115.365 246.886 115.785 247.515 116.204C247.724 116.344 247.934 116.484 248.144 116.623C248.493 116.833 248.773 116.973 249.052 117.183C249.472 117.462 249.891 117.742 250.241 117.951C251.009 118.51 251.708 119 252.407 119.559C252.827 119.908 253.246 120.188 253.595 120.537C254.015 120.887 254.364 121.166 254.784 121.516C255.133 121.795 255.482 122.145 255.832 122.424C256.181 122.774 256.531 123.053 256.81 123.403C257.16 123.752 257.439 124.102 257.789 124.451C258.348 125.08 258.907 125.64 259.396 126.269C259.536 126.408 259.606 126.548 259.746 126.688C260.235 127.247 260.655 127.876 261.144 128.505C261.284 128.645 261.353 128.855 261.493 128.994C261.703 129.344 261.913 129.623 262.192 129.973C262.751 130.742 263.241 131.58 263.66 132.419C263.87 132.838 264.149 133.258 264.359 133.677C264.568 134.096 264.778 134.516 264.988 134.935C265.128 135.285 265.337 135.634 265.477 135.984C265.687 136.473 265.896 136.962 266.106 137.451C266.176 137.591 266.176 137.661 266.246 137.801C266.316 138.01 266.386 138.15 266.456 138.36C266.595 138.639 266.665 138.919 266.805 139.199C266.945 139.548 267.085 139.898 267.224 140.317C267.294 140.527 267.364 140.736 267.434 140.946C267.574 141.295 267.714 141.715 267.784 142.064C267.923 142.484 268.063 142.903 268.133 143.322C268.413 144.301 268.692 145.349 268.902 146.328C268.972 146.537 268.972 146.747 269.042 146.957C269.111 147.166 269.181 147.306 269.181 147.516C269.251 147.725 269.321 147.935 269.391 148.075C269.461 148.215 269.531 148.424 269.601 148.564C269.601 148.634 269.671 148.704 269.671 148.774C269.74 148.914 269.81 148.984 269.81 149.123C269.88 149.263 269.95 149.333 269.95 149.403C270.09 149.613 270.23 149.822 270.37 149.962C270.37 150.032 270.439 150.032 270.439 150.102C270.509 150.172 270.579 150.242 270.649 150.311C270.719 150.381 270.789 150.451 270.929 150.591C271.068 150.731 271.138 150.801 271.278 150.871C271.418 150.941 271.558 151.08 271.697 151.15C271.837 151.22 271.907 151.29 272.047 151.36H272.117C272.257 151.43 272.327 151.5 272.466 151.5C272.606 151.57 272.746 151.639 272.816 151.639C272.956 151.709 273.025 151.709 273.165 151.779C273.305 151.849 273.515 151.919 273.724 151.919C273.724 151.919 273.724 151.919 273.794 151.919C274.004 151.989 274.214 152.059 274.423 152.059C274.633 152.129 274.913 152.199 275.122 152.199C275.542 152.268 275.961 152.338 276.38 152.408C277.219 152.548 277.988 152.758 278.826 152.967L279.246 153.107C279.875 153.317 280.504 153.457 281.133 153.666C283.16 154.365 285.047 155.204 286.794 156.252C287.074 156.392 287.283 156.532 287.563 156.742C287.912 156.951 288.192 157.161 288.542 157.371C288.891 157.58 289.171 157.79 289.45 158C290.359 158.699 291.267 159.397 292.106 160.166C292.386 160.376 292.665 160.656 292.945 160.935C293.224 161.215 293.504 161.494 293.714 161.704C293.993 161.983 294.203 162.263 294.482 162.543C295.461 163.591 296.369 164.779 297.138 166.037C297.348 166.387 297.558 166.666 297.767 167.016C297.977 167.365 298.187 167.715 298.396 167.994C298.606 168.344 298.816 168.693 298.955 169.043C299.305 169.742 299.724 170.44 300.074 171.209C300.563 172.328 301.052 173.446 301.472 174.634C301.961 174.774 302.101 175.193 302.24 175.612Z" fill="#212121"/>
<path d="M297.348 226.983C289.8 225.725 282.671 227.193 276.38 231.526C272.117 234.532 268.482 238.306 264.568 241.731C258.348 231.666 252.407 226.354 241.923 221.881C220.117 212.585 199.219 213.564 180.139 229.22C179.02 230.128 176.784 230.268 175.106 230.059C172.52 229.709 170.004 228.451 167.418 227.962C154.278 225.585 141.209 225.516 128.139 228.591C117.236 231.177 106.961 235.021 98.8539 242.919C94.3808 247.322 90.6066 252.424 86.3432 257.456C74.1819 252.424 64.3271 257.107 56.1497 267.521C46.9239 255.709 35.182 252.145 21.1337 256.478C20.5046 253.962 20.0154 251.935 19.5261 249.908C19.0369 247.671 17.7089 245.155 18.338 243.268C19.0369 241.032 21.4132 239.284 23.0906 237.397C23.4401 236.978 23.8595 236.628 24.3487 236.279C24.8379 235.929 25.3272 235.58 25.8164 235.161C41.3325 223.559 63.4884 222.301 79.0045 236.419C82.6389 239.774 85.5044 243.967 88.8593 247.951C88.0905 242.22 85.5044 237.747 81.8701 234.112C79.5636 231.806 76.8378 229.849 73.9023 227.962C78.0959 223.279 82.7787 220.274 88.7894 220.973C91.2356 221.252 93.9614 222.161 95.7087 223.698C97.1765 225.026 97.5958 227.473 98.0851 228.8C98.0851 228.87 98.155 228.94 98.155 229.08C98.2248 228.94 98.2947 228.87 98.4345 228.731C111.155 212.166 126.322 209.37 143.375 219.575C145.123 220.623 146.94 221.811 148.757 223.139C148.338 221.671 147.569 220.274 146.59 219.016C138.483 208.462 114.021 204.827 99.2732 222.231C90.2571 215.661 80.2625 216.29 73.4131 224.118C71.526 226.284 70.198 226.214 67.8916 225.306C55.4508 220.553 43.1497 220.903 31.4777 227.403C27.6336 229.569 24.0691 232.225 20.5745 234.811C18.4777 236.419 16.381 238.026 14.2842 239.564C9.25197 236.838 3.73048 233.833 -1.79102 230.827V235.72C-0.672739 235.93 0.585322 235.999 1.56381 236.489C9.39175 240.612 14.9831 246.623 17.4294 255.36C18.1982 258.015 18.0584 259.972 15.8917 261.79C15.053 262.489 14.5638 263.747 13.9347 264.725C16.0315 263.886 17.5691 262.419 19.3165 261.51C29.8702 255.849 42.8003 258.085 50.8379 266.962C53.354 269.757 55.6604 272.693 58.3862 275.908C58.1067 267.451 63.4185 263.747 69.4991 261.161C75.8593 258.505 82.2894 258.644 88.3001 262.978C88.4399 262.768 88.7894 262.419 88.9292 262.069C95.0797 248.37 105.983 239.774 119.752 235.161C139.671 228.521 159.73 228.032 179.51 236.069C190.622 240.612 200.058 247.322 206.348 257.736C208.445 261.231 210.332 264.795 212.569 268.849C212.848 264.935 214.875 263.187 217.811 261.999C223.192 259.833 228.434 260.112 233.676 262.279C236.542 263.467 238.289 264.935 236.542 268.29C236.192 268.919 236.472 269.827 236.472 271.295C241.364 262.419 247.515 255.919 256.741 253.263C265.966 250.607 274.773 251.795 283.02 256.967C279.246 251.446 273.515 249.628 266.316 248.3C268.762 244.876 270.439 241.521 272.956 239.075C281.203 231.107 290.988 228.661 302.171 231.526V228.731C300.633 228.171 299.025 227.263 297.348 226.983ZM239.407 260.951C227.036 255.08 222.633 255.08 212.429 261.091C206.488 247.182 195.445 238.655 181.467 232.575C196.074 220.553 212.219 217.897 229.552 221.741C244.579 225.096 255.972 233.483 263.171 248.021C253.246 249.559 245.208 253.472 239.407 260.951Z" fill="#212121"/>
<path d="M-1.79102 286.042C0.305753 290.305 2.40252 294.499 4.35951 298.832C13.4455 318.682 22.5315 338.601 34.2734 357.122C43.9884 372.429 54.5422 387.106 68.0314 399.477C68.6604 400.106 69.2195 400.875 69.7787 401.504C65.3755 403.042 61.1819 404.439 56.7088 405.977C55.8701 398.638 53.2142 391.649 48.3916 385.918C44.3379 381.096 39.725 376.622 34.6229 372.988C30.7089 370.122 25.6068 368.864 21.1337 366.698C20.3648 366.278 19.7358 365.16 19.3863 364.182C17.639 358.59 16.5907 352.649 14.2143 347.268C11.1391 340.348 4.49929 336.644 -1.79102 332.87C-1.79102 329.864 -1.79102 326.789 -1.79102 323.784C5.40789 323.085 9.46164 327.209 11.9079 333.569C12.3971 325.112 6.94552 320.359 -1.79102 320.988C-1.79102 309.316 -1.79102 297.714 -1.79102 286.042Z" fill="#EAF9FF"/>
<path d="M-1.79102 448.891C-0.183493 444.208 4.01004 441.552 9.18207 441.902C15.053 442.321 20.5046 446.654 21.1337 451.896C22.4616 463.778 28.4025 472.375 39.5852 478.595C36.3003 479.923 33.5745 481.531 30.7089 482.02C21.7627 483.558 12.8864 483.488 5.40789 477.337C2.68209 475.24 0.585322 472.375 -1.79102 469.859C-1.79102 462.869 -1.79102 455.88 -1.79102 448.891Z" fill="#EAF9FF"/>
<path d="M302.241 362.924C295.601 359.429 288.402 360.128 281.273 360.757C280.784 352.021 289.66 336.714 302.241 334.268C302.241 343.843 302.241 353.419 302.241 362.924Z" fill="white"/>
<path d="M-1.79102 338.461C-0.742631 338.741 0.585322 338.671 1.35414 339.3C9.95089 345.8 14.5638 354.467 15.1229 364.741C9.32186 365.3 3.80037 365.859 -1.79102 366.418C-1.79102 357.123 -1.79102 347.827 -1.79102 338.461Z" fill="white"/>
<path d="M302.242 466.364V471.257C298.817 471.396 300.075 473.913 300.075 475.73C299.726 474.402 299.446 473.074 299.167 471.886C284.279 472.026 274.774 466.085 273.586 455.88C279.457 463.638 287.075 467.483 296.65 466.993C298.468 466.923 300.355 466.574 302.242 466.364Z" fill="#212121"/>
<path d="M302.242 420.235V423.031C300.564 423.101 298.817 423.101 297.14 423.241C286.796 424.359 278.688 432.117 277.011 442.461C276.731 444.278 276.382 446.095 275.822 447.843C274.005 441.483 275.473 435.612 279.107 430.3C284.629 422.192 292.457 418.907 302.242 420.235Z" fill="#212121"/>
<path d="M302.242 295.827C294.903 302.047 287.565 308.268 280.226 314.488C276.661 317.494 273.167 320.569 269.672 323.574C268.694 324.413 267.575 325.182 266.527 325.951C266.317 325.741 266.038 325.531 265.828 325.321C266.946 323.854 267.925 322.176 269.323 320.918C277.71 313.58 286.237 306.381 294.764 299.182C297.21 297.085 299.796 295.058 302.312 293.031C302.242 293.94 302.242 294.918 302.242 295.827Z" fill="#E96B73"/>
<path d="M-1.79102 320.988C6.94552 320.359 12.3971 325.112 11.9079 333.569C9.39175 327.209 5.40789 323.155 -1.79102 323.784C-1.79102 322.875 -1.79102 321.897 -1.79102 320.988Z" fill="#212121"/>
<path d="M302.241 330.773C300.913 330.983 299.585 331.193 297.559 331.542C299.306 328.886 300.774 326.65 302.241 324.483C302.241 326.58 302.241 328.676 302.241 330.773Z" fill="white"/>
<path d="M302.242 471.257V477.547C301.333 478.106 300.215 478.945 300.355 476.778C300.215 476.429 300.145 476.079 300.005 475.73C300.075 473.913 298.817 471.467 302.242 471.257Z" fill="#EAF9FF"/>
<path d="M164.134 127.037C163.505 126.478 161.688 125.569 161.758 124.871C161.898 123.543 162.876 121.725 163.994 121.236C168.328 119.559 172.801 118.301 177.204 116.833C181.188 115.575 185.102 114.037 189.156 113.059C190.344 112.779 192.51 113.548 193.07 114.457C194.118 116.274 192.58 117.252 190.833 117.881C182.726 120.747 174.688 123.613 166.58 126.478C166.021 126.688 165.462 126.758 164.134 127.037Z" fill="#212121"/>
<path d="M135.058 127.177C133.381 126.757 132.332 126.548 131.354 126.198C124.295 123.892 117.236 121.585 110.316 118.999C109.058 118.51 107.451 116.483 107.591 115.435C108.01 113.198 110.037 113.338 112.064 113.967C119.682 116.413 127.37 118.58 134.918 121.096C136.177 121.516 137.295 123.333 137.644 124.661C137.784 125.36 135.827 126.478 135.058 127.177Z" fill="#212121"/>
<path d="M190.343 220.832C190.063 221.042 189.714 221.252 189.434 221.462C181.746 210.069 172.381 205.876 160.01 213.424C160.429 209.37 162.945 207.273 168.886 206.435C176.434 205.316 186.289 210.488 189.504 217.408C189.994 218.386 190.063 219.644 190.343 220.832Z" fill="#212121"/>
<path d="M159.521 131.51C158.542 131.93 157.284 133.048 156.655 132.768C152.462 130.742 148.478 130.951 144.354 133.118C143.725 133.467 142.327 133.118 141.908 132.629C141.488 132.139 141.488 130.742 141.838 130.112C143.795 127.037 147.22 126.129 150.295 126.408C153.16 126.688 155.956 128.435 158.752 129.623C159.031 129.693 159.101 130.392 159.521 131.51Z" fill="#212121"/>
<path d="M38.3988 518.923C34.4848 524.934 30.7805 530.525 27.0762 536.187C26.6569 535.977 26.3074 535.767 25.8881 535.557C27.6354 531.853 29.3827 528.079 31.3397 523.955C28.9633 523.746 26.9365 523.536 24.4902 523.326C29.3827 514.45 34.0655 505.713 38.8182 497.117C41.6138 498.445 41.7536 499.982 40.4257 502.289C37.63 507.041 35.1139 512.004 32.458 517.036C34.4848 517.665 36.0924 518.224 38.3988 518.923Z" fill="white"/>
<path d="M102.769 378.44V371.381C65.4462 357.472 38.7474 330.773 15.6829 299.671C15.4732 299.881 15.1937 300.021 14.984 300.23C25.0485 316.026 35.1829 331.752 45.2474 347.548C29.242 330.214 18.0593 309.526 4.84961 290.236C4.84961 290.236 4.9195 290.376 5.05929 290.725C5.61842 291.913 6.17756 293.101 6.7367 294.29C6.80659 294.429 6.87649 294.639 7.01627 294.849C10.441 302.397 13.9356 309.876 18.0593 317.005C18.4786 317.703 18.8281 318.333 19.2474 319.031C25.1184 329.306 31.4087 339.37 37.9087 349.225C41.7527 355.096 46.4355 360.408 51.0484 365.72C54.7527 369.913 58.6667 373.897 62.8602 377.601C63.1398 377.881 63.4193 378.09 63.6989 378.37C67.1236 381.445 71.1774 383.822 75.0215 386.547C75.4408 386.198 76.1397 385.709 77.3279 384.8C76.8387 385.918 76.5591 386.408 76.1397 387.386C78.8655 386.338 80.5429 386.617 81.8709 389.203C82.43 390.391 84.4569 390.951 85.9247 391.44C88.2311 392.279 91.516 392.279 92.7741 393.886C95.0107 396.682 97.2472 395.913 99.7633 395.633C99.9031 396.472 100.113 397.381 100.253 398.219C100.602 398.219 100.882 398.219 101.231 398.219C101.371 397.451 101.65 396.612 101.86 395.843C102.21 394.585 102.489 393.257 102.559 391.999C102.839 387.526 102.908 382.983 102.769 378.44ZM40.0753 336.924C40.4248 336.644 40.8441 336.365 41.1936 336.085C45.8764 341.746 50.5592 347.408 55.2419 353.069C54.9624 353.279 54.6828 353.558 54.4032 353.768C49.7205 348.107 44.8979 342.515 40.0753 336.924Z" fill="#E96B73"/>
<path d="M143.516 361.666C141 363.553 139.811 362.714 139.043 360.268C138.134 357.542 137.016 354.956 135.967 352.3C135.688 352.37 135.408 352.44 135.129 352.44C133.801 367.187 132.473 381.934 131.215 396.122C127.72 393.956 124.156 391.09 120.102 389.413C117.865 388.504 115.559 388.225 113.322 388.574C113.322 376.413 113.812 355.934 116.817 344.891C119.333 335.666 126.951 337.693 133.102 341.187C133.521 341.606 133.871 342.026 134.22 342.445C138.833 348.176 141.139 354.956 143.516 361.666Z" fill="#74CBED"/>
<path d="M193.768 415.902C191.532 420.235 189.435 423.73 187.967 427.504C186.57 431.138 185.801 435.052 184.682 439.246C172.661 434.982 161.408 435.961 152.183 446.654C146.032 437.289 137.156 434.353 125.693 435.681C126.812 430.649 127.86 426.036 128.978 421.144C151.064 427.015 172.381 425.198 193.768 415.902Z" fill="#EAF9FF"/>
<path d="M234.586 322.386C233.607 321.687 228.505 322.456 227.457 322.386C223.752 321.058 224.731 313.16 223.193 309.526C222.285 307.359 221.376 304.703 219.629 301.558C225.639 302.816 230.672 303.585 235.494 304.983C242.204 306.87 248.913 308.687 255.274 311.413C262.263 314.418 264.01 321.687 259.887 327.628C258.838 329.096 257.301 330.284 255.763 331.123C251.29 333.569 246.747 335.666 242.274 338.042C236.612 340.977 231.091 344.123 225.43 346.988C222.844 348.316 220.118 349.434 217.182 350.692C216.064 351.321 216.414 349.155 216.344 346.778C216.274 346.219 216.134 345.52 216.204 343.913C216.134 343.074 216.134 343.424 216.344 341.956C216.763 341.117 216.903 340.977 217.392 340.488L234.586 322.386Z" fill="#FAC04F"/>
<path d="M14.915 293.311C17.9903 296.526 21.1354 299.741 24.1408 303.096C41.4042 322.456 60.8343 339.021 83.8987 351.112C88.3019 353.418 92.9148 355.445 97.5277 357.332C103.399 359.779 103.399 359.709 102.42 366.838C95.5707 363.832 88.6514 361.386 82.2213 357.961C69.9203 351.531 58.4579 343.773 48.7429 333.779C42.173 327.069 36.1623 319.8 30.0118 312.671C25.1193 307.01 20.4365 301.279 15.6838 295.548C15.1946 294.988 14.8451 294.29 14.4258 293.73C14.6355 293.521 14.7752 293.451 14.915 293.311Z" fill="#E96B73"/>
<path d="M67.6828 336.854C62.5108 333.08 57.6882 329.515 52.8656 325.951C51.4678 324.902 50.07 323.854 48.742 322.735C46.2259 320.569 46.156 318.891 48.3226 316.375C52.0269 312.042 56.9194 309.666 62.0215 307.709C67.4032 305.682 72.9247 304.004 78.7258 302.047C76.2796 314.768 74.7419 319.311 70.7581 323.434C72.5753 325.461 71.6667 324.343 73.1344 326.23C76.2796 330.284 77.3279 335.316 74.7419 340.558C74.3226 341.187 69.7796 338.461 67.6828 336.854Z" fill="#FAC04F"/>
<path d="M173.639 373.166C176.408 370.176 178.886 366.894 181.875 364.195C188.434 358.507 195.213 353.109 202.064 347.785C203.522 346.618 205.49 345.816 207.312 345.524C209.061 345.232 210.956 345.889 212.778 346.108C212.487 347.712 212.633 349.536 211.904 350.775C203.959 363.758 192.516 371.708 177.356 374.042C176.335 374.188 175.242 374.042 174.149 374.042C174.076 373.75 173.857 373.458 173.639 373.166Z" fill="#212121"/>
<path d="M102.137 418.837C108.109 419.694 113.654 420.161 115.787 430.442C116.285 432.856 116.782 435.271 116.996 437.685C117.351 441.501 114.507 443.604 111.237 442.124C104.199 438.775 99.2934 432.934 95.6677 425.769C93.7481 421.953 94.5302 420.395 98.3692 419.46C99.7199 419.149 101 418.993 102.137 418.837Z" fill="#212121"/>
<path d="M208.656 338.461C202.086 337.972 196.774 341.117 191.602 344.542C183.215 350.133 176.226 357.192 170.005 365.09C169.656 365.02 169.306 364.881 168.957 364.811C169.306 362.714 168.957 360.058 170.075 358.73C175.527 352.23 181.118 345.87 187.199 339.999C190.903 336.434 195.656 333.988 201.107 334.547C203.763 334.827 206.349 336.225 209.005 337.064C208.866 337.553 208.726 337.972 208.656 338.461Z" fill="#E96B73"/>
<path d="M118.703 417.789C111.295 409.891 102.838 409.612 93.752 412.966C93.752 406.327 100.671 400.805 108.499 401.225C116.537 401.644 119.822 406.676 118.703 417.789Z" fill="#E96B73"/>
<path d="M165.111 361.456C165.111 364.951 165.041 367.956 165.111 370.961C165.181 372.848 164.412 373.687 162.455 373.617C159.38 373.478 156.235 373.617 153.02 373.617C153.02 372.429 153.02 371.73 153.02 370.612C147.079 374.107 147.988 365.37 143.654 365.16C150.713 363.902 157.703 362.714 165.111 361.456Z" fill="#E96B73"/>
<path d="M129.189 405.418C123.388 396.542 115.21 394.795 105.705 397.59C105.775 392.977 107.033 391.51 110.947 390.951C119.823 389.623 126.882 393.746 129.538 401.784C129.818 402.692 129.888 403.741 130.028 404.719C129.818 404.859 129.468 405.139 129.189 405.418Z" fill="#74CBED"/>
<path d="M212.569 342.795C200.617 341.746 193.278 349.155 185.8 355.725C179.719 361.037 174.338 367.187 168.117 373.547C168.606 372.219 168.816 371.311 169.305 370.612C177.343 359.779 186.359 349.924 198.381 343.354C200.407 342.236 202.644 341.397 204.881 340.838C207.327 340.209 209.983 340.279 212.569 342.795Z" fill="white"/>
<path d="M125.344 408.633C122.548 406.187 119.822 403.74 116.887 401.084C123.317 401.923 127.371 407.025 126.742 413.106C126.532 415.273 126.462 417.509 125.903 419.676C125.414 421.773 124.435 423.799 123.596 425.966C120.94 421.353 120.731 417.509 122.548 407.864C123.317 408.423 123.946 408.982 124.575 409.472C124.854 409.122 125.064 408.843 125.344 408.633Z" fill="#E96B73"/>
<path d="M120.941 436.87C120.592 435.402 120.032 433.864 119.823 432.327C117.307 416.321 104.307 412.967 92.2852 417.789C93.054 416.88 93.6131 415.413 94.5916 415.133C100.742 413.106 106.893 413.036 112.833 416.112C114.022 416.741 115.28 417.579 116.049 418.698C119.963 424.079 120.661 430.44 122.059 436.59C121.71 436.66 121.29 436.73 120.941 436.87Z" fill="white"/>
<path d="M226.896 386.338C227.036 386.268 227.246 386.198 227.386 386.198C227.386 386.407 227.316 386.547 227.316 386.757C227.316 386.687 226.896 386.338 226.896 386.338Z" fill="white"/>
<path d="M302.241 301.139V318.612C297.628 323.644 292.945 328.676 288.262 333.708C276.73 346.149 265.128 358.52 253.456 370.821C252.897 371.45 252.268 372.079 251.639 372.708C251.569 372.778 251.569 372.778 251.499 372.848C251.429 372.918 251.359 372.988 251.289 373.058C249.123 375.364 246.956 377.671 244.72 379.977C244.16 380.536 243.601 381.026 242.972 381.515C238.639 384.45 232.558 384.59 227.316 386.198C227.596 384.031 227.526 381.375 227.876 379.418C228.085 378.509 228.365 377.741 228.784 377.321C232.419 373.547 235.983 369.843 239.617 366.069C240.177 365.509 240.736 364.88 241.295 364.321C251.709 353.488 262.193 342.655 272.607 331.821C282.531 321.547 292.386 311.343 302.241 301.139Z" fill="#E96B73"/>
<path d="M170.563 354.117C170.213 346.219 177.552 337.832 183.703 338.671C179.369 343.773 174.966 348.945 170.563 354.117Z" fill="#74CBED"/>
<path d="M263.171 248.021C253.316 249.489 245.278 253.472 239.407 260.951C227.037 255.08 222.633 255.08 212.429 261.091C206.488 247.182 195.445 238.655 181.467 232.575C196.004 220.553 212.219 217.897 229.553 221.741C244.51 225.096 255.902 233.483 263.171 248.021Z" fill="white"/>
<path d="M149.877 316.864C156.097 317.144 162.807 318.542 169.027 321.617C169.936 322.106 171.124 322.526 171.613 323.294C172.452 324.622 172.801 326.16 173.36 327.628C171.893 327.628 170.145 328.187 168.957 327.558C159.242 322.875 149.178 320.638 138.554 323.644C135.758 324.413 133.172 325.88 130.447 326.789C129.119 327.208 127.581 326.929 126.113 326.999C126.812 325.461 127.092 323.294 128.28 322.526C134.57 318.542 141.699 316.934 149.877 316.864Z" fill="#212121"/>
<path d="M41.194 336.085C45.8768 341.746 50.5596 347.408 55.2424 353.069C54.9628 353.278 54.6832 353.558 54.4037 353.768C49.5811 348.176 44.8284 342.585 40.0059 336.994C40.4951 336.644 40.8446 336.365 41.194 336.085Z" fill="#212121"/>
<path d="M302.242 477.547V577.493H-1.78948V469.859C0.586855 472.375 2.68362 475.17 5.33953 477.407C12.818 483.557 21.6943 483.627 30.6405 482.09C33.5061 481.6 36.2319 479.923 39.5169 478.665C28.404 472.375 22.3932 463.778 21.0653 451.966C20.5062 446.724 14.9847 442.391 9.11371 441.971C3.94168 441.622 -0.251853 444.278 -1.85938 448.961V441.971C8.13522 433.864 22.8126 440.084 24.6298 452.875C26.3771 465.455 36.162 474.192 48.7426 476.009C57.7587 477.337 66.2157 476.289 74.0436 471.256C69.7103 478.106 63.2103 481.181 55.2426 481.461C55.0329 481.74 54.8233 482.02 54.6136 482.369C57.7587 485.235 60.5544 488.729 64.1189 490.896C70.0598 494.6 76.2802 497.606 83.9683 496.907C87.3232 496.627 91.0275 497.746 94.592 497.047C95.0812 496.977 95.5006 496.977 95.9898 496.907C102.42 495.16 102.699 494.391 99.8339 488.45C98.2264 485.095 97.178 481.531 95.85 478.036C86.0651 477.267 79.1458 472.445 77.7479 464.547C79.0759 466.014 80.4737 467.482 81.8017 468.95C85.0866 472.654 89.42 474.262 94.0328 475.031C96.6888 475.45 97.9468 476.428 99.0651 479.154C103.818 490.686 111.925 499.353 123.667 503.966C145.823 512.633 167.07 510.606 186.99 497.326C188.597 496.208 190.065 494.88 191.533 493.552C192.371 492.783 193.07 491.805 193.769 491.036C190.764 487.471 187.898 484.047 185.033 480.622C185.312 480.342 185.522 480.133 185.732 479.853C195.307 487.891 206.14 490.966 218.441 488.52C225.151 487.192 232.699 482.928 235.495 478.944C230.672 476.079 225.85 473.143 224.032 467.203C238.081 478.036 252.269 477.617 266.876 468.391C264.57 472.794 260.866 475.729 256.602 477.547C252.339 479.294 247.726 480.203 243.183 481.461C247.027 486.633 252.618 489.638 259.328 490.966C273.586 493.762 286.586 491.106 297.839 481.6C298.957 480.692 299.376 479.014 300.075 477.547C300.145 477.337 300.285 477.127 300.355 476.918C300.215 479.014 301.333 478.106 302.242 477.547Z" fill="#212121"/>
<path d="M98.9948 353.698C102.14 355.235 103.049 354.536 103.887 351.601C104.516 349.364 105.145 347.128 106.054 344.961C108.92 338.182 113.672 333.499 121.29 332.8C129.188 332.031 135.129 335.386 138.903 342.235C141.839 347.617 144.495 353.208 147.011 358.8C147.85 360.757 148.618 361.526 150.855 360.897C154.35 359.918 157.914 359.289 161.479 358.8C164.134 358.45 165.532 357.332 165.952 354.536C166.79 349.015 168.747 343.913 172.661 339.859C175.946 336.504 179.651 333.709 184.613 334.477C187.409 334.897 189.575 334.338 191.882 333.079C199.64 329.026 207.328 331.123 215.296 333.289L221.516 327.977C221.027 324.553 220.048 321.407 220.188 318.262C220.538 310.295 217.462 303.305 213.968 296.596C202.995 275.348 185.731 262.209 161.898 258.435C148.898 256.408 135.968 257.176 123.667 262.069C108.081 268.15 95.3604 277.865 87.3228 292.891C79.0755 308.338 77.3282 324.553 82.0809 341.397C82.8497 344.053 82.3605 345.94 87.5325 347.967M168.957 327.628C159.242 322.945 149.178 320.709 138.554 323.714C135.758 324.483 133.172 325.95 130.446 326.859C129.118 327.278 127.581 326.999 126.113 326.999C126.812 325.461 127.092 323.295 128.28 322.526C134.64 318.472 141.699 316.934 149.876 316.795C156.167 317.074 162.806 318.472 169.027 321.617C169.796 321.967 170.704 322.386 171.263 322.875C171.333 322.875 171.333 322.945 171.403 323.015C171.473 323.085 171.543 323.225 171.613 323.295C172.452 324.623 172.801 326.16 173.36 327.628C171.893 327.698 170.145 328.257 168.957 327.628Z" fill="#FAC04F"/>
<path d="M302.24 -11C200.897 -11 99.5528 -11 -1.79102 -11C-1.79102 52.8117 -1.79102 116.693 -1.79102 180.505C-1.23188 179.666 -0.532955 178.897 -0.113601 177.989C5.89714 165.338 18.8272 158.069 32.596 159.747C34.553 159.957 35.4616 159.677 36.3702 157.86C44.1981 141.575 62.7895 132.279 79.983 138.01C80.7518 138.29 81.5206 138.36 82.0797 138.5C82.4292 133.188 82.1496 127.946 83.1281 122.914C89.2087 92.5105 107.311 72.032 136.735 63.0858C168.886 53.3708 197.821 60.2901 221.934 84.3331C228.434 90.833 233.047 98.661 235.633 107.537C236.332 109.844 237.52 111.032 239.617 111.871C255.343 118.091 265.198 129.553 269.111 145.978C269.95 149.682 271.418 151.29 275.402 152.059C288.961 154.505 297.767 162.682 302.171 175.682C302.24 113.408 302.24 51.2041 302.24 -11Z" fill="url(#paint0_linear_212_6550)"/>
<path d="M294.833 307.429C297.069 305.263 298.957 302.746 301.053 300.37C298.258 301.768 296.021 303.655 293.924 305.612C275.682 322.526 255.903 337.413 235.005 350.762C223.613 358.031 211.941 364.811 200.339 371.59C190.134 377.531 179.091 380.327 167.21 378.58C163.435 378.02 159.591 377.741 155.747 377.671C154.629 377.671 153.231 378.44 152.392 379.279C150.715 380.816 149.317 382.703 147.64 384.59C152.462 388.225 157.844 385.08 162.946 385.778C158.613 387.037 154.21 387.945 149.806 388.854C147.849 389.273 146.382 390.042 145.473 391.58C145.403 391.719 145.333 391.789 145.263 391.929C144.704 392.488 144.075 393.676 143.726 396.192C143.726 396.192 139.043 404.51 139.323 411.848C139.602 419.187 159.452 419.886 176.296 413.665C193.14 407.445 233.957 395.494 250.032 374.037C250.032 374.037 257.72 370.612 245.419 365.09C245.489 364.531 244.93 364.182 243.742 364.042L243.812 364.112C243.113 364.042 242.274 363.693 241.855 363.972C239.338 365.789 236.962 367.956 234.376 369.703C231.231 371.87 227.946 373.687 224.731 375.714C224.521 375.434 224.381 375.155 224.172 374.875C228.855 370.612 233.677 366.418 238.29 361.945C257.161 343.843 276.032 325.671 294.833 307.429Z" fill="#E96B73"/>
<path d="M4.84961 290.236C4.84961 290.236 52.3065 396.472 92.2849 404.44C92.2849 404.44 95.7795 399.198 101.231 398.219C106.683 397.241 86.6236 377.601 86.6236 377.601H62.8602L31.5485 332.66L4.84961 290.236Z" fill="#E96B73"/>
<path d="M175.038 309.805C179.941 309.805 183.915 304.486 183.915 297.924C183.915 291.362 179.941 286.042 175.038 286.042C170.136 286.042 166.162 291.362 166.162 297.924C166.162 304.486 170.136 309.805 175.038 309.805Z" fill="#212121"/>
<path d="M124.435 309.805C129.337 309.805 133.311 304.486 133.311 297.924C133.311 291.362 129.337 286.042 124.435 286.042C119.533 286.042 115.559 291.362 115.559 297.924C115.559 304.486 119.533 309.805 124.435 309.805Z" fill="#212121"/>
<path d="M231.509 107.957C231.02 108.166 230.67 108.376 230.391 108.446C229.202 108.446 228.084 108.446 226.896 108.446C221.584 108.446 216.552 109.005 211.869 110.263C207.606 92.7202 196.353 77.6235 184.891 66.1611C199.009 70.145 211.589 78.1127 222.283 90.6933C226.616 95.6557 229.622 101.457 231.509 107.957Z" fill="#EAF9FF"/>
<path d="M277.919 213.284C277.639 213.214 277.359 213.214 277.01 213.144C277.639 209.86 277.849 206.435 278.967 203.29C282.042 194.833 287.704 188.612 296.37 185.467C299.026 184.489 299.655 182.811 299.166 180.295C297.768 173.376 294.623 167.645 290.359 163.451C285.816 170.72 280.435 176.661 274.424 181.483C275.612 184.209 276.451 187.214 277.01 190.569C275.612 187.913 274.144 185.327 272.537 182.951C232.349 213.144 169.306 194.483 169.306 194.483C168.607 195.741 167.978 197.139 167.139 198.677C166.93 196.86 167.279 194.763 168.048 192.596C169.795 187.843 173.569 182.811 177.763 180.015C188.526 172.886 199.43 172.747 209.983 179.037C213.967 175.053 217.532 170.72 221.795 167.435C228.085 162.612 235.564 160.865 243.462 161.284C245.908 161.424 247.306 160.236 249.123 158.768C252.618 156.042 256.532 153.806 260.585 151.989C263.94 150.521 265.478 148.913 264.569 145.419C262.193 136.333 257.44 128.645 251.15 122.983C251.15 122.983 225.01 166.456 163.784 178.338C164.274 179.386 164.623 180.435 164.763 181.483C163.924 180.854 163.155 180.225 162.317 179.526C161.688 180.016 160.989 180.575 160.36 181.064C159.94 181.413 159.521 181.693 159.102 181.972C158.682 182.252 158.263 182.602 157.844 182.881C157.424 183.161 157.005 183.44 156.586 183.79C156.166 184.069 155.747 184.349 155.328 184.628C154.489 185.188 153.65 185.747 152.742 186.306C152.182 186.655 151.623 187.005 150.994 187.354C150.156 187.843 149.387 188.333 148.548 188.822C148.199 189.032 147.849 189.241 147.569 189.381C146.451 190.01 145.403 190.639 144.285 191.198C143.935 191.408 143.586 191.548 143.306 191.757C142.957 191.897 142.677 192.107 142.328 192.247C141.489 192.666 140.72 193.085 139.881 193.435C139.462 193.644 138.973 193.854 138.553 194.064C138.064 194.274 137.645 194.483 137.225 194.693C136.806 194.903 136.317 195.112 135.897 195.322C135.129 195.671 134.43 195.951 133.661 196.3C133.032 196.58 132.403 196.79 131.774 197.069C131.704 197.069 131.634 197.139 131.564 197.139C131.215 197.279 130.795 197.419 130.446 197.558C130.096 197.698 129.747 197.838 129.397 197.978C128.838 198.187 128.349 198.397 127.79 198.537C127.301 198.677 126.811 198.886 126.322 199.026C125.973 199.166 125.693 199.236 125.344 199.376C124.785 199.585 124.156 199.795 123.596 199.935C123.177 200.075 122.758 200.214 122.338 200.354C121.849 200.494 121.36 200.634 120.801 200.843C120.381 200.983 119.892 201.123 119.473 201.193C119.123 201.333 118.774 201.403 118.424 201.472C118.005 201.612 117.516 201.752 117.096 201.822C116.677 201.892 116.188 202.032 115.768 202.171C115.768 202.171 115.769 202.171 115.699 202.171C115.629 202.171 115.489 202.241 115.419 202.241C112.134 203.08 108.849 203.779 105.564 204.408C104.726 204.548 103.887 204.687 103.118 204.827C102.838 204.897 102.559 204.897 102.279 204.967C101.65 205.037 101.021 205.177 100.392 205.247C100.183 205.247 99.9728 205.317 99.8331 205.317C99.4137 205.386 98.9245 205.456 98.5051 205.526C97.946 205.596 97.3169 205.666 96.7578 205.736C96.1987 205.806 95.5696 205.876 95.0105 205.946C94.032 206.085 93.0535 206.155 92.1449 206.225C91.3761 206.295 90.5374 206.365 89.7686 206.435C88.7901 206.505 87.8116 206.575 86.8331 206.644C86.0643 206.714 85.2256 206.714 84.4568 206.784C84.0374 206.784 83.618 206.784 83.1288 206.854C82.36 206.854 81.6611 206.924 80.8922 206.924C80.6826 206.924 80.403 206.924 80.1234 206.924C79.4245 206.924 78.6557 206.924 77.9568 206.924C54.5429 207.064 34.1343 202.591 21.9731 199.096C22.9515 201.263 23.5806 203.639 23.9999 206.295C24.2096 207.833 24.3494 209.51 24.3494 211.257C23.7204 209.51 23.0913 207.833 22.3225 206.155C12.5376 205.107 4.49998 202.032 -2 197.978V230.827C3.52149 233.833 9.04298 236.838 14.1451 239.564C16.2419 238.026 18.3387 236.419 20.4354 234.811C23.93 232.155 27.4945 229.499 31.3386 227.402C42.9407 220.902 55.3117 220.553 67.7525 225.306C70.1288 226.214 71.4568 226.284 73.274 224.118C80.1933 216.22 90.118 215.661 99.1341 222.23C113.881 204.827 138.414 208.462 146.451 219.015C147.43 220.273 148.199 221.671 148.618 223.139C146.801 221.811 145.053 220.623 143.236 219.575C122.059 223.279 107.871 226.284 98.2954 228.73C98.2255 228.87 98.1556 228.94 98.0159 229.08C97.946 229.01 97.946 228.94 97.946 228.8C88.9998 231.107 84.1772 232.854 81.6611 234.042C85.2955 237.677 87.8815 242.15 88.6503 247.881C85.2955 243.897 82.4299 239.704 78.7955 236.349C61.2525 246.623 38.5375 241.451 24.1397 236.209C23.7204 236.558 23.301 236.908 22.8817 237.327C21.1343 239.214 18.8279 240.962 18.129 243.198C17.4999 245.085 18.8279 247.601 19.3171 249.838C19.8064 251.865 20.2956 253.892 20.9247 256.408C34.973 252.074 46.7149 255.639 55.9407 267.451C64.1181 257.037 73.9729 252.424 86.1342 257.386C90.3976 252.354 94.1718 247.252 98.6449 242.849C106.752 234.881 117.027 231.107 127.93 228.521C141.07 225.445 154.139 225.515 167.209 227.892C169.795 228.381 172.311 229.569 174.897 229.988C176.505 230.198 178.741 230.128 179.93 229.15C199.01 213.494 219.978 212.515 241.714 221.811C252.198 226.284 258.139 231.666 264.359 241.66C268.273 238.236 271.908 234.392 276.171 231.456C282.392 227.123 289.591 225.655 297.139 226.913C298.816 227.193 300.424 228.031 302.031 228.661V195.671C296.51 201.682 288.053 208.951 277.919 213.284ZM189.435 221.462C188.946 220.693 188.387 219.994 187.897 219.295C187.618 218.946 187.408 218.666 187.128 218.316C186.989 218.177 186.849 218.037 186.779 217.897C186.569 217.618 186.36 217.408 186.15 217.128C185.661 216.569 185.172 216.01 184.612 215.521C184.403 215.311 184.193 215.101 183.913 214.892C183.704 214.682 183.424 214.472 183.215 214.263C182.935 213.983 182.655 213.773 182.306 213.494C182.026 213.284 181.747 213.075 181.467 212.865C181.188 212.655 180.908 212.515 180.629 212.306C180.069 211.956 179.44 211.607 178.811 211.257C178.672 211.187 178.532 211.118 178.322 211.048C178.182 210.978 178.043 210.908 177.903 210.838C177.134 210.489 176.365 210.279 175.596 210.069C175.457 210.069 175.317 209.999 175.177 209.999C175.037 209.929 174.827 209.929 174.688 209.86C174.338 209.79 173.989 209.72 173.639 209.72C173.5 209.72 173.29 209.65 173.15 209.65C173.01 209.65 172.801 209.65 172.661 209.58C172.521 209.58 172.381 209.58 172.241 209.58C172.032 209.58 171.822 209.58 171.612 209.58C171.333 209.58 171.053 209.58 170.774 209.58C170.704 209.58 170.634 209.58 170.634 209.58C170.494 209.58 170.284 209.58 170.145 209.58C169.935 209.58 169.725 209.65 169.446 209.65C169.026 209.72 168.607 209.79 168.188 209.86C167.069 210.069 165.951 210.419 164.833 210.838C164.623 210.908 164.414 210.978 164.274 211.048C163.854 211.187 163.435 211.397 163.016 211.607C162.876 211.677 162.736 211.747 162.526 211.816C162.457 211.816 162.457 211.816 162.387 211.886C162.247 211.956 162.037 212.026 161.897 212.166C161.198 212.515 160.569 212.865 159.871 213.284C159.871 213.005 159.94 212.795 160.01 212.585C160.01 212.376 160.08 212.236 160.15 212.026C160.779 209.44 162.596 207.763 166.091 206.854C166.231 206.854 166.371 206.784 166.51 206.714C166.65 206.714 166.79 206.644 166.93 206.644C167.489 206.505 168.188 206.365 168.817 206.295C176.365 205.177 186.22 210.349 189.435 217.268C189.924 218.316 189.994 219.575 190.274 220.693C190.064 221.042 189.784 221.252 189.435 221.462Z" fill="#EAF9FF"/>
<path d="M164.904 181.553C163.786 180.715 162.737 179.806 161.619 178.828C162.388 178.688 163.157 178.548 163.926 178.408C164.415 179.526 164.764 180.575 164.904 181.553Z" fill="#EAF9FF"/>
<path d="M113.392 180.435C112.763 181.553 112.204 182.741 111.715 183.999C105.355 183.51 99.6933 185.397 94.8008 189.87C84.1772 177.639 71.7364 175.822 57.8278 182.951C55.5913 172.327 48.9515 165.478 39.5859 161.145C67.1235 172.467 91.6557 178.338 113.392 180.435Z" fill="#EAF9FF"/>
<path d="M302.24 187.494V195.741C296.509 201.682 288.052 208.951 277.918 213.354C286.235 195.043 288.961 192.177 302.24 187.494Z" fill="white"/>
<path d="M22.5315 206.295C12.7466 205.247 4.70897 202.171 -1.79102 198.118V186.096C11.1391 187.774 17.9186 195.811 22.5315 206.295Z" fill="white"/>
<path d="M150.785 170.93C140.72 165.478 124.575 167.365 117.516 177.989C116.887 178.967 116.328 179.806 115.979 180.645C114.86 183.021 114.79 184.978 115.699 187.215H108.64C104.656 187.215 101.022 188.473 98.156 191.268C96.9678 192.387 96.199 193.994 95.0808 195.602C90.2582 188.612 83.9679 182.811 74.183 182.392C64.6077 182.043 56.9895 185.537 51.6776 193.784C51.3981 193.645 51.1884 193.435 50.9088 193.225C51.6077 191.548 52.097 189.661 53.1454 188.193C54.7529 185.956 54.8228 183.999 53.9142 181.413C50.6991 172.118 44.3389 166.596 35.8121 164.43C33.7852 163.871 31.5487 163.591 29.3121 163.381C21.0648 162.822 9.11324 167.435 4.77992 177.29C4.081 178.827 2.82293 180.086 1.63477 181.833C11.1401 185.677 18.6186 190.919 22.253 199.166C48.2529 206.575 112.065 218.806 162.457 179.596C162.177 179.387 161.898 179.107 161.618 178.897C158.263 176.102 154.769 173.096 150.785 170.93Z" fill="white"/>
<path d="M217.182 113.339C215.644 113.618 214.176 113.898 212.709 114.247C195.306 118.58 185.521 131.091 180.488 148.494C180.279 149.193 180.139 149.822 179.929 150.521C179.929 150.591 179.789 150.661 179.72 150.731C178.392 145.629 179.999 137.731 183.843 131.441C190.832 120.048 200.338 113.199 211.8 110.193C207.537 92.6504 196.284 77.5537 184.822 66.0913C175.037 63.3655 164.483 62.5268 153.23 63.4354C138.902 64.6236 125.902 69.5859 114.51 78.1827C104.865 85.4515 97.3864 94.6773 92.2843 105.93C91.6553 107.398 91.0262 108.796 90.4671 110.263C87.1822 118.72 85.5047 127.317 86.2037 136.473C86.4133 139.269 87.5316 141.994 88.3703 144.72C88.9994 146.677 89.908 148.494 90.3273 150.661C82.3596 139.898 71.9456 138.011 59.9242 141.435C50.8382 144.021 42.2414 152.269 39.5156 161.075C67.0532 172.328 91.6553 178.199 113.322 180.365C120.101 167.435 129.467 162.752 143.585 164.849C152.322 166.107 160.919 172.397 163.854 178.408C225.15 166.527 251.219 123.054 251.219 123.054C242.343 115.156 230.252 111.242 217.182 113.339ZM137.574 125.011C137.225 125.64 135.687 126.548 134.988 127.107C133.311 126.688 132.263 126.478 131.284 126.129C124.225 123.822 117.166 121.516 110.247 118.93C108.989 118.441 107.381 116.414 107.591 115.365C107.661 115.156 107.661 115.016 107.73 114.806C108.36 113.129 110.177 113.269 112.064 113.898C119.682 116.344 127.37 118.511 134.919 121.027C136.177 121.446 137.295 123.263 137.644 124.591C137.714 124.801 137.644 124.941 137.574 125.011ZM156.655 132.699C154.908 131.86 153.23 131.371 151.553 131.301C149.177 131.161 146.8 131.79 144.424 133.048C143.795 133.398 142.397 133.048 141.978 132.559C141.558 132.07 141.558 130.672 141.908 130.043C142.537 129.064 143.306 128.295 144.144 127.736C145.962 126.478 148.268 126.129 150.365 126.338C153.23 126.618 156.026 128.365 158.822 129.554C159.101 129.693 159.171 130.322 159.591 131.511C158.542 131.93 157.214 133.048 156.655 132.699ZM164.134 127.037C163.505 126.478 161.687 125.57 161.757 124.801C161.897 123.473 162.876 121.656 163.994 121.166C168.327 119.489 172.8 118.231 177.203 116.833C181.187 115.575 185.101 114.037 189.085 113.059C190.273 112.779 192.44 113.548 192.999 114.457C194.047 116.274 192.51 117.252 190.763 117.882C182.655 120.747 174.617 123.613 166.51 126.478C166.021 126.688 165.462 126.758 164.134 127.037Z" fill="white"/>
<path d="M272.538 183.021C232.349 213.214 169.307 194.553 169.307 194.553C175.527 183.65 184.613 177.639 197.543 178.338C204.742 178.757 209.774 182.252 211.102 188.053C216.624 171.978 227.946 164.849 244.301 165.758C249.823 166.037 254.505 167.435 258.629 169.672C264.29 172.747 268.763 177.43 272.538 183.021Z" fill="white"/>
<path d="M290.359 163.521C285.816 170.79 280.434 176.731 274.424 181.553C271.698 175.193 267.155 170.371 261.144 166.876C258.139 165.059 254.714 163.591 251.01 162.403C254.504 160.027 257.999 157.371 261.843 156.462C265.128 155.623 268.343 155.344 271.488 155.484C278.757 155.693 285.397 158.559 290.359 163.521Z" fill="white"/>
<path d="M133.031 341.187C126.88 337.693 119.262 335.666 116.746 344.892C113.74 355.935 113.251 376.413 113.251 388.574C111.154 388.854 109.197 389.553 107.38 390.601C107.38 382.773 107.17 374.945 107.45 367.117C107.66 360.687 108.079 354.117 109.267 347.827C110.386 341.746 114.649 337.832 120.869 336.714C125.832 335.806 129.816 337.693 133.031 341.187Z" fill="white"/>
<path d="M279.036 430.37C275.402 435.682 274.004 441.553 275.751 447.913C276.38 446.165 276.66 444.348 276.939 442.531C278.687 432.187 286.724 424.429 297.068 423.311C298.746 423.101 300.423 423.171 302.171 423.101V466.434C300.283 466.644 298.396 466.923 296.509 467.063C286.934 467.552 279.316 463.708 273.445 455.95C274.633 466.155 284.208 472.165 299.025 471.956C299.305 473.214 299.654 474.542 299.934 475.8C300.074 476.149 300.144 476.499 300.283 476.848C300.144 477.058 300.074 477.268 300.004 477.477C299.375 478.945 298.886 480.552 297.767 481.531C286.515 491.106 273.515 493.692 259.257 490.896C252.547 489.569 246.956 486.633 243.112 481.391C247.655 480.133 252.267 479.225 256.531 477.477C260.864 475.66 264.568 472.725 266.805 468.321C252.198 477.547 238.009 478.036 223.961 467.133C225.848 473.074 230.601 476.009 235.423 478.875C232.628 482.859 225.079 487.052 218.37 488.45C206.069 490.896 195.235 487.821 185.66 479.784C185.45 480.063 185.171 480.273 184.961 480.552C187.827 483.977 190.692 487.402 193.698 490.966C192.999 491.805 192.3 492.714 191.461 493.483C189.993 494.81 188.526 496.138 186.918 497.257C166.999 510.536 145.752 512.563 123.596 503.896C111.854 499.284 103.746 490.687 98.9937 479.085C97.8754 476.359 96.6872 475.38 93.9614 474.961C89.3485 474.192 84.9453 472.585 81.7303 468.88C80.4023 467.413 79.0744 465.945 77.6765 464.477C79.0744 472.375 85.9937 477.198 95.7786 477.966C97.1066 481.531 98.1549 485.095 99.7625 488.38C102.628 494.321 102.418 495.02 95.9184 496.837C95.499 496.977 95.0098 496.907 94.5206 496.977C90.956 497.676 87.2517 496.558 83.8969 496.837C76.1389 497.536 69.9884 494.531 64.0475 490.827C60.483 488.66 57.6873 485.165 54.5422 482.3C54.7518 482.02 54.9615 481.741 55.1712 481.391C63.2088 481.112 69.6389 478.036 73.9722 471.187C66.1443 476.219 57.6873 477.268 48.6712 475.94C36.0906 474.122 26.3756 465.316 24.5584 452.805C22.881 440.085 8.20358 433.795 -1.79102 441.902V402.133C53.7733 460.633 154.139 514.73 302.24 404.23V420.235C292.455 418.907 284.628 422.192 279.036 430.37Z" fill="#EAF9FF"/>
<path d="M160.01 213.424C160.429 209.37 162.945 207.273 168.886 206.435C176.434 205.316 186.289 210.488 189.504 217.408C189.994 218.456 190.063 219.714 190.343 220.832C190.063 221.042 189.714 221.252 189.434 221.462C181.816 210.069 172.381 205.876 160.01 213.424Z" fill="#212121"/>
<path d="M79.0757 236.419C61.5327 246.693 38.8177 241.521 24.4199 236.279C24.9092 235.929 25.3984 235.58 25.8877 235.161C41.4037 223.559 63.5596 222.3 79.0757 236.419Z" fill="white"/>
<path d="M98.2253 228.73C89.2791 231.037 84.4565 232.784 81.9404 233.972C79.6339 231.666 76.9081 229.709 73.9727 227.822C78.1662 223.139 82.849 220.134 88.8597 220.833C91.3059 221.112 94.0317 222.021 95.7791 223.558C97.3167 224.956 97.736 227.402 98.2253 228.73Z" fill="white"/>
<path d="M143.515 219.575C122.338 223.279 108.149 226.284 98.5742 228.731C111.295 212.096 126.461 209.37 143.515 219.575Z" fill="white"/>
<path d="M302.24 231.526V260.741C273.654 289.537 238.918 288.698 227.386 286.042C212.708 282.687 199.639 264.026 199.639 264.026C142.746 222.79 105.773 261.091 105.773 261.091C105.773 261.091 79.7034 288.558 44.1282 293.241C43.3594 292.123 42.6605 290.935 42.0314 289.607C42.1013 290.865 42.311 292.123 42.7304 293.381C23.3702 295.198 8.0638 281.01 -1.79102 267.94V235.72C-0.672739 235.93 0.585322 235.999 1.56381 236.489C9.39175 240.612 14.9831 246.623 17.4294 255.36C18.1982 258.015 18.0584 259.972 15.8917 261.79C15.053 262.489 14.5638 263.747 13.9347 264.725C16.0315 263.886 17.5691 262.419 19.3165 261.51C29.8702 255.849 42.8003 258.085 50.8379 266.962C53.354 269.757 55.6604 272.693 58.3862 275.908C58.1067 267.451 63.4185 263.747 69.4991 261.161C75.8593 258.505 82.2894 258.645 88.3001 262.978C88.4399 262.768 88.7894 262.419 88.9292 262.069C95.0797 248.37 105.983 239.774 119.752 235.161C139.671 228.521 159.73 228.032 179.51 236.069C190.622 240.612 200.058 247.322 206.348 257.736C208.445 261.231 210.332 264.795 212.569 268.849C212.848 264.935 214.875 263.188 217.811 261.999C223.192 259.833 228.434 260.112 233.676 262.279C236.542 263.467 238.289 264.935 236.542 268.29C236.192 268.919 236.472 269.827 236.472 271.295C241.364 262.419 247.515 255.919 256.741 253.263C265.966 250.607 274.773 251.795 283.02 256.967C279.246 251.446 273.515 249.628 266.316 248.3C268.762 244.876 270.439 241.521 272.956 239.075C281.273 231.177 291.128 228.661 302.24 231.526Z" fill="white"/>
<path d="M41.9609 289.677C42.59 291.005 43.2889 292.193 44.0577 293.311C43.5685 293.381 43.0792 293.451 42.59 293.451C42.2405 292.263 42.0308 291.005 41.9609 289.677Z" fill="white"/>
<path d="M7.85547 64.2041L57.7586 84.3331L44.0597 89.6449L71.1779 105.371L26.4468 89.4352L38.9575 83.2847L7.85547 64.2041Z" fill="white"/>
<path d="M166.301 513.472L145.473 551.703L161.478 549.606L150.645 573.369L173.849 542.128H159.661L180.838 507.95C181.188 507.391 180.628 506.692 179.999 506.902L170.354 510.047C168.607 510.676 167.139 511.864 166.301 513.472Z" fill="#FAC04F"/>
<path d="M44.4787 546.741L55.312 523.047L39.3066 525.074L57.4786 491.666C58.8765 492.993 60.3442 494.252 61.9517 495.23C62.9302 495.859 63.9786 496.418 64.9571 496.977L53.4948 515.499H67.6829L44.4787 546.741Z" fill="#FAC04F"/>
<path d="M245.697 525.283L237.66 507.81L249.472 509.348L236.052 484.746C235.004 485.724 233.956 486.633 232.767 487.402C231.999 487.821 231.3 488.31 230.531 488.729L238.988 502.358H228.504L245.697 525.283Z" fill="#FAC04F"/>
<path d="M271.279 499.703C271.279 499.703 269.671 565.402 271.279 576.026C272.886 586.649 271.279 499.703 271.279 499.703Z" fill="white"/>
<path d="M81.0328 504.315C81.0328 504.315 79.4253 570.014 81.0328 580.638C82.6403 591.261 81.0328 504.315 81.0328 504.315Z" fill="white"/>
<path d="M216.064 517.665C216.064 517.665 214.457 583.364 216.064 593.987C217.672 604.611 216.064 517.665 216.064 517.665Z" fill="white"/>
<path d="M19.1773 498.165C19.1773 498.165 17.5698 544.294 19.1773 551.772C20.7849 559.251 19.1773 498.165 19.1773 498.165Z" fill="white"/>
<path d="M263.522 -1.91406L237.382 34.2203L246.398 31.2848L233.328 56.3062L260.237 23.3869L248.425 27.1611L263.522 -1.91406Z" fill="white"/>
<path d="M67.334 1.58057L93.4038 37.7149L84.4576 34.7794L97.5274 59.8008L70.549 26.8816L82.4307 30.6558L67.334 1.58057Z" fill="white"/>
<path d="M292.526 25.6235L253.386 62.5267H268.064L248.424 86.989L284.348 55.9568L270.51 54.7686L292.526 25.6235Z" fill="white"/>
<path d="M27.5645 26.043L50.8386 42.1881L42.8709 43.0967L54.8224 54.1397L33.6451 40.7203L41.1236 39.3225L27.5645 26.043Z" fill="white"/>
<path d="M177.678 306.285C179.137 306.302 180.34 304.607 180.364 302.5C180.388 300.393 179.225 298.671 177.767 298.654C176.308 298.637 175.105 300.331 175.081 302.439C175.056 304.546 176.219 306.268 177.678 306.285Z" fill="white"/>
<path d="M127.356 306.285C128.815 306.302 130.017 304.607 130.042 302.5C130.066 300.393 128.903 298.671 127.444 298.654C125.985 298.637 124.783 300.331 124.759 302.439C124.734 304.546 125.897 306.268 127.356 306.285Z" fill="white"/>
</g>
<path d="M202.487 236.463C203.908 236.479 205.079 234.829 205.103 232.776C205.127 230.724 203.994 229.046 202.573 229.03C201.152 229.013 199.981 230.664 199.957 232.717C199.933 234.769 201.066 236.447 202.487 236.463Z" fill="white"/>
<path d="M150.573 236.463C151.994 236.479 153.165 234.829 153.189 232.776C153.213 230.724 152.08 229.046 150.659 229.03C149.238 229.013 148.067 230.664 148.043 232.717C148.019 234.769 149.152 236.447 150.573 236.463Z" fill="white"/>
<defs>
<linearGradient id="paint0_linear_212_6550" x1="150.225" y1="-11" x2="150.574" y2="573.649" gradientUnits="userSpaceOnUse">
<stop stop-color="#74CBED"/>
<stop offset="1" stop-color="#212121" stop-opacity="0"/>
</linearGradient>
</defs>
</svg>
