<svg width="490" height="720" viewBox="0 0 490 720" fill="none" xmlns="http://www.w3.org/2000/svg">
<rect x="1.5" y="1.5" width="487" height="717" rx="30.5" stroke="black" stroke-width="3"/>
<path d="M245 398C327.29 398 394 331.29 394 249C394 166.71 327.29 100 245 100C162.71 100 96 166.71 96 249C96 331.29 162.71 398 245 398Z" fill="#FAC04F" stroke="#263238" stroke-width="7" stroke-miterlimit="10" stroke-linecap="round" stroke-linejoin="round"/>
<path d="M158.303 160.324L202.146 173.84L140.502 188.344" stroke="#263238" stroke-width="5" stroke-miterlimit="10" stroke-linecap="round" stroke-linejoin="round"/>
<path d="M333.674 160.324L287.523 173.84L346.53 188.344" stroke="#263238" stroke-width="5" stroke-miterlimit="10" stroke-linecap="round" stroke-linejoin="round"/>
<path d="M131.27 218.344C146.433 282.955 191.595 329.764 245.327 329.764C299.059 329.764 344.221 282.955 359.385 218.344L339.606 215.048C276.314 204.499 212.033 204.499 148.741 215.377L131.27 218.344Z" fill="#263238" stroke="#263238" stroke-width="5" stroke-miterlimit="10" stroke-linecap="round" stroke-linejoin="round"/>
<path d="M322.792 291.525C303.013 278.339 275.982 270.428 245.984 270.428C215.327 270.428 187.966 278.999 168.188 292.184C188.955 315.589 215.657 329.764 244.995 329.764C274.663 329.764 301.694 315.26 322.792 291.525Z" fill="#E96B73" stroke="#263238" stroke-width="5" stroke-miterlimit="10" stroke-linecap="round" stroke-linejoin="round"/>
<g opacity="0.1" filter="url(#filter0_f_257_24366)">
<ellipse cx="245" cy="475.5" rx="159.5" ry="27.5" fill="#333333"/>
</g>
<path d="M65.0234 590.478H70.8633C70.7461 592.392 70.2188 594.091 69.2812 595.575C68.3568 597.06 67.0612 598.218 65.3945 599.052C63.7409 599.885 61.7487 600.302 59.418 600.302C57.5951 600.302 55.9609 599.989 54.5156 599.364C53.0703 598.726 51.8333 597.815 50.8047 596.63C49.7891 595.445 49.0143 594.013 48.4805 592.333C47.9466 590.653 47.6797 588.772 47.6797 586.688V584.716C47.6797 582.632 47.9531 580.751 48.5 579.071C49.0599 577.379 49.8542 575.94 50.8828 574.755C51.9245 573.57 53.168 572.659 54.6133 572.021C56.0586 571.382 57.6732 571.063 59.457 571.063C61.8268 571.063 63.8255 571.493 65.4531 572.353C67.0938 573.212 68.3633 574.397 69.2617 575.907C70.1732 577.418 70.7201 579.136 70.9023 581.063H65.043C64.9779 579.918 64.75 578.948 64.3594 578.153C63.9688 577.346 63.3763 576.741 62.582 576.337C61.8008 575.92 60.7591 575.712 59.457 575.712C58.4805 575.712 57.6276 575.894 56.8984 576.259C56.1693 576.623 55.5573 577.177 55.0625 577.919C54.5677 578.661 54.1966 579.599 53.9492 580.731C53.7148 581.851 53.5977 583.166 53.5977 584.677V586.688C53.5977 588.16 53.7083 589.455 53.9297 590.575C54.151 591.682 54.4896 592.619 54.9453 593.388C55.4141 594.143 56.013 594.716 56.7422 595.106C57.4844 595.484 58.3763 595.673 59.418 595.673C60.6419 595.673 61.651 595.478 62.4453 595.087C63.2396 594.696 63.8451 594.117 64.2617 593.349C64.6914 592.58 64.9453 591.623 65.0234 590.478ZM73.4609 589.56V589.149C73.4609 587.6 73.6823 586.174 74.125 584.872C74.5677 583.557 75.2122 582.418 76.0586 581.454C76.9049 580.491 77.9466 579.742 79.1836 579.208C80.4206 578.661 81.8398 578.388 83.4414 578.388C85.043 578.388 86.4688 578.661 87.7188 579.208C88.9688 579.742 90.0169 580.491 90.8633 581.454C91.7227 582.418 92.3737 583.557 92.8164 584.872C93.2591 586.174 93.4805 587.6 93.4805 589.149V589.56C93.4805 591.096 93.2591 592.522 92.8164 593.837C92.3737 595.139 91.7227 596.278 90.8633 597.255C90.0169 598.218 88.9753 598.967 87.7383 599.501C86.5013 600.035 85.082 600.302 83.4805 600.302C81.8789 600.302 80.4531 600.035 79.2031 599.501C77.9661 598.967 76.918 598.218 76.0586 597.255C75.2122 596.278 74.5677 595.139 74.125 593.837C73.6823 592.522 73.4609 591.096 73.4609 589.56ZM79.0859 589.149V589.56C79.0859 590.445 79.1641 591.272 79.3203 592.04C79.4766 592.808 79.724 593.485 80.0625 594.071C80.4141 594.644 80.8698 595.093 81.4297 595.419C81.9896 595.744 82.6732 595.907 83.4805 595.907C84.2617 595.907 84.9323 595.744 85.4922 595.419C86.0521 595.093 86.5013 594.644 86.8398 594.071C87.1784 593.485 87.4258 592.808 87.582 592.04C87.7513 591.272 87.8359 590.445 87.8359 589.56V589.149C87.8359 588.29 87.7513 587.483 87.582 586.728C87.4258 585.959 87.1719 585.282 86.8203 584.696C86.4818 584.097 86.0326 583.629 85.4727 583.29C84.9128 582.951 84.2357 582.782 83.4414 582.782C82.6471 582.782 81.9701 582.951 81.4102 583.29C80.8633 583.629 80.4141 584.097 80.0625 584.696C79.724 585.282 79.4766 585.959 79.3203 586.728C79.1641 587.483 79.0859 588.29 79.0859 589.149ZM102.445 583.29V599.911H96.8203V578.778H102.094L102.445 583.29ZM101.625 588.603H100.102C100.102 587.04 100.303 585.634 100.707 584.384C101.111 583.121 101.677 582.047 102.406 581.161C103.135 580.263 104.001 579.579 105.004 579.11C106.02 578.629 107.152 578.388 108.402 578.388C109.392 578.388 110.297 578.531 111.117 578.817C111.938 579.104 112.641 579.56 113.227 580.185C113.826 580.81 114.281 581.636 114.594 582.665C114.919 583.694 115.082 584.95 115.082 586.435V599.911H109.418V586.415C109.418 585.478 109.288 584.748 109.027 584.228C108.767 583.707 108.383 583.342 107.875 583.134C107.38 582.912 106.768 582.802 106.039 582.802C105.284 582.802 104.626 582.951 104.066 583.251C103.52 583.55 103.064 583.967 102.699 584.501C102.348 585.022 102.081 585.634 101.898 586.337C101.716 587.04 101.625 587.795 101.625 588.603ZM126.527 599.911H120.863V576.903C120.863 575.302 121.176 573.954 121.801 572.86C122.439 571.754 123.331 570.92 124.477 570.36C125.635 569.787 127.009 569.501 128.598 569.501C129.118 569.501 129.62 569.54 130.102 569.618C130.583 569.683 131.052 569.768 131.508 569.872L131.449 574.11C131.202 574.045 130.941 574 130.668 573.974C130.395 573.948 130.076 573.935 129.711 573.935C129.034 573.935 128.454 574.052 127.973 574.286C127.504 574.507 127.146 574.84 126.898 575.282C126.651 575.725 126.527 576.265 126.527 576.903V599.911ZM130.746 578.778V582.763H117.719V578.778H130.746ZM132.797 589.56V589.149C132.797 587.6 133.018 586.174 133.461 584.872C133.904 583.557 134.548 582.418 135.395 581.454C136.241 580.491 137.283 579.742 138.52 579.208C139.757 578.661 141.176 578.388 142.777 578.388C144.379 578.388 145.805 578.661 147.055 579.208C148.305 579.742 149.353 580.491 150.199 581.454C151.059 582.418 151.71 583.557 152.152 584.872C152.595 586.174 152.816 587.6 152.816 589.149V589.56C152.816 591.096 152.595 592.522 152.152 593.837C151.71 595.139 151.059 596.278 150.199 597.255C149.353 598.218 148.311 598.967 147.074 599.501C145.837 600.035 144.418 600.302 142.816 600.302C141.215 600.302 139.789 600.035 138.539 599.501C137.302 598.967 136.254 598.218 135.395 597.255C134.548 596.278 133.904 595.139 133.461 593.837C133.018 592.522 132.797 591.096 132.797 589.56ZM138.422 589.149V589.56C138.422 590.445 138.5 591.272 138.656 592.04C138.812 592.808 139.06 593.485 139.398 594.071C139.75 594.644 140.206 595.093 140.766 595.419C141.326 595.744 142.009 595.907 142.816 595.907C143.598 595.907 144.268 595.744 144.828 595.419C145.388 595.093 145.837 594.644 146.176 594.071C146.514 593.485 146.762 592.808 146.918 592.04C147.087 591.272 147.172 590.445 147.172 589.56V589.149C147.172 588.29 147.087 587.483 146.918 586.728C146.762 585.959 146.508 585.282 146.156 584.696C145.818 584.097 145.368 583.629 144.809 583.29C144.249 582.951 143.572 582.782 142.777 582.782C141.983 582.782 141.306 582.951 140.746 583.29C140.199 583.629 139.75 584.097 139.398 584.696C139.06 585.282 138.812 585.959 138.656 586.728C138.5 587.483 138.422 588.29 138.422 589.149ZM161.898 583.388V599.911H156.273V578.778H161.566L161.898 583.388ZM168.266 578.642L168.168 583.856C167.895 583.817 167.562 583.785 167.172 583.759C166.794 583.72 166.449 583.7 166.137 583.7C165.342 583.7 164.652 583.804 164.066 584.013C163.493 584.208 163.012 584.501 162.621 584.892C162.243 585.282 161.957 585.757 161.762 586.317C161.579 586.877 161.475 587.515 161.449 588.231L160.316 587.88C160.316 586.513 160.453 585.256 160.727 584.11C161 582.951 161.397 581.942 161.918 581.083C162.452 580.224 163.103 579.56 163.871 579.091C164.639 578.622 165.518 578.388 166.508 578.388C166.82 578.388 167.139 578.414 167.465 578.466C167.79 578.505 168.057 578.563 168.266 578.642ZM182.25 578.778V582.763H169.945V578.778H182.25ZM172.992 573.563H178.617V593.544C178.617 594.156 178.695 594.625 178.852 594.95C179.021 595.276 179.268 595.504 179.594 595.634C179.919 595.751 180.329 595.81 180.824 595.81C181.176 595.81 181.488 595.797 181.762 595.771C182.048 595.731 182.289 595.692 182.484 595.653L182.504 599.794C182.022 599.95 181.501 600.074 180.941 600.165C180.382 600.256 179.763 600.302 179.086 600.302C177.849 600.302 176.768 600.1 175.844 599.696C174.932 599.28 174.229 598.616 173.734 597.704C173.24 596.793 172.992 595.595 172.992 594.11V573.563Z" fill="#222222"/>
<rect x="46" y="634.911" width="24" height="25.0892" fill="#A8EC6C"/>
<rect x="80" y="634.911" width="24" height="25.0892" fill="#A8EC6C"/>
<rect x="114" y="634.911" width="24" height="25.0892" fill="#A8EC6C"/>
<rect x="148" y="634.911" width="24" height="25.0892" fill="#A8EC6C"/>
<rect x="182" y="634.911" width="24" height="25.0892" fill="#A8EC6C"/>
<rect x="216" y="634.911" width="24" height="25.0892" fill="#A8EC6C"/>
<rect x="250" y="634.911" width="24" height="25.0892" fill="#A8EC6C"/>
<rect x="284" y="634.911" width="24" height="25.0892" fill="#A8EC6C"/>
<rect x="318" y="634.911" width="24" height="25.0892" fill="#A8EC6C"/>
<rect x="352" y="634.911" width="24" height="25.0892" fill="#E4E4E4"/>
<defs>
<filter id="filter0_f_257_24366" x="55.5" y="418" width="379" height="115" filterUnits="userSpaceOnUse" color-interpolation-filters="sRGB">
<feFlood flood-opacity="0" result="BackgroundImageFix"/>
<feBlend mode="normal" in="SourceGraphic" in2="BackgroundImageFix" result="shape"/>
<feGaussianBlur stdDeviation="15" result="effect1_foregroundBlur_257_24366"/>
</filter>
</defs>
</svg>
