<svg width="311" height="610" viewBox="0 0 311 610" fill="none" xmlns="http://www.w3.org/2000/svg">
<rect width="311" height="610" fill="white"/>
<path d="M121.223 571.12V581.992H118.319V563.68H121.223L128.015 574.672C128.223 574.992 128.439 575.384 128.663 575.848C128.903 576.312 129.159 576.848 129.431 577.456H129.527C129.479 576.848 129.439 576.304 129.407 575.824C129.391 575.344 129.383 574.92 129.383 574.552V563.68H132.287V581.992H129.383L122.591 571C122.335 570.584 122.087 570.144 121.847 569.68C121.623 569.216 121.399 568.728 121.175 568.216H121.079C121.127 568.728 121.159 569.224 121.175 569.704C121.207 570.184 121.223 570.656 121.223 571.12ZM146.104 581.512C145.432 581.768 144.776 581.952 144.136 582.064C143.496 582.192 142.856 582.256 142.216 582.256C140.152 582.256 138.536 581.672 137.368 580.504C136.216 579.32 135.64 577.664 135.64 575.536C135.64 573.44 136.184 571.768 137.272 570.52C138.36 569.272 139.832 568.648 141.688 568.648C143.272 568.648 144.496 569.128 145.36 570.088C146.224 571.032 146.656 572.352 146.656 574.048C146.656 574.432 146.632 574.832 146.584 575.248C146.536 575.664 146.464 576.08 146.368 576.496H138.256C138.416 577.632 138.824 578.48 139.48 579.04C140.136 579.6 141.056 579.88 142.24 579.88C142.832 579.88 143.448 579.816 144.088 579.688C144.744 579.544 145.416 579.336 146.104 579.064V581.512ZM144.208 573.544C144.224 572.712 143.984 572.048 143.488 571.552C143.008 571.04 142.336 570.784 141.472 570.784C140.528 570.784 139.776 571.096 139.216 571.72C138.656 572.344 138.336 573.232 138.256 574.384H144.136C144.152 574.256 144.168 574.12 144.184 573.976C144.2 573.816 144.208 573.672 144.208 573.544ZM157.806 580.96C157.198 581.392 156.566 581.72 155.91 581.944C155.254 582.152 154.574 582.256 153.87 582.256C152.606 582.256 151.646 581.904 150.99 581.2C150.334 580.496 150.006 579.456 150.006 578.08V568.912H152.694V577.192C152.694 578.168 152.838 578.856 153.126 579.256C153.414 579.656 153.902 579.856 154.59 579.856C155.198 579.856 155.83 579.728 156.486 579.472C157.158 579.216 157.622 578.912 157.878 578.56V568.912H160.566V581.992H157.878V581.032L157.806 580.96ZM172.161 581.8C171.809 581.944 171.417 582.056 170.985 582.136C170.553 582.216 170.113 582.256 169.665 582.256C168.289 582.256 167.257 581.872 166.569 581.104C165.897 580.336 165.561 579.184 165.561 577.648V571.216H163.449V568.912H165.561V565.456H168.249V568.912H171.897V571.216H168.249V576.16C168.249 577.584 168.385 578.552 168.657 579.064C168.945 579.576 169.473 579.832 170.241 579.832C170.545 579.832 170.865 579.8 171.201 579.736C171.553 579.672 171.873 579.592 172.161 579.496V581.8ZM177.983 573.352V581.992H175.295V568.912H177.983V570.472L178.079 570.544C178.527 569.936 179.063 569.472 179.687 569.152C180.327 568.816 181.031 568.648 181.799 568.648C181.943 568.648 182.079 568.656 182.207 568.672C182.351 568.672 182.487 568.68 182.615 568.696V571.624C182.535 571.608 182.455 571.6 182.375 571.6C182.295 571.6 182.199 571.6 182.087 571.6C181.095 571.6 180.239 571.76 179.519 572.08C178.815 572.384 178.303 572.808 177.983 573.352ZM194.995 581.512C194.323 581.768 193.667 581.952 193.027 582.064C192.387 582.192 191.747 582.256 191.107 582.256C189.043 582.256 187.427 581.672 186.259 580.504C185.107 579.32 184.531 577.664 184.531 575.536C184.531 573.44 185.075 571.768 186.163 570.52C187.251 569.272 188.723 568.648 190.579 568.648C192.163 568.648 193.387 569.128 194.251 570.088C195.115 571.032 195.547 572.352 195.547 574.048C195.547 574.432 195.523 574.832 195.475 575.248C195.427 575.664 195.355 576.08 195.259 576.496H187.147C187.307 577.632 187.715 578.48 188.371 579.04C189.027 579.6 189.947 579.88 191.131 579.88C191.723 579.88 192.339 579.816 192.979 579.688C193.635 579.544 194.307 579.336 194.995 579.064V581.512ZM193.099 573.544C193.115 572.712 192.875 572.048 192.379 571.552C191.899 571.04 191.227 570.784 190.363 570.784C189.419 570.784 188.667 571.096 188.107 571.72C187.547 572.344 187.227 573.232 187.147 574.384H193.027C193.043 574.256 193.059 574.12 193.075 573.976C193.091 573.816 193.099 573.672 193.099 573.544Z" fill="#212121"/>
<rect x="6" y="28" width="300" height="509.301" rx="12" stroke="#212121" stroke-width="8"/>
<mask id="mask0_206_6173" style="mask-type:alpha" maskUnits="userSpaceOnUse" x="10" y="32" width="292" height="502">
<rect x="10" y="32" width="292" height="501.3" rx="8" fill="#D9D9D9"/>
</mask>
<g mask="url(#mask0_206_6173)">
<path d="M130.729 439.165C130.729 439.456 130.656 439.747 130.583 439.965C130.583 440.111 130.511 440.183 130.511 440.329C130.438 440.547 130.365 440.765 130.365 440.983C130.292 441.129 130.22 441.347 130.22 441.493C130.074 440.983 130.001 440.547 129.856 440.038C129.783 439.82 129.71 439.602 129.638 439.311C129.856 440.038 130.001 440.765 130.22 441.493C130.438 440.911 130.656 440.111 130.729 439.165ZM212.417 289.492C212.344 289.929 212.344 290.292 212.272 290.729C212.708 290.729 213.145 290.656 213.581 290.656C213.581 290.292 213.581 289.929 213.581 289.565C213.217 289.565 212.781 289.492 212.417 289.492ZM204.125 288.401C203.834 289.492 203.47 290.583 203.179 291.674C202.815 292.983 202.452 294.22 202.233 295.529C202.088 296.183 201.942 296.838 201.87 297.565C202.815 297.419 203.616 297.274 204.343 297.129C204.416 295.238 204.634 293.347 204.852 291.456C204.998 290.51 205.07 289.565 205.143 288.619C204.779 288.547 204.416 288.474 204.125 288.401ZM237.367 348.983C235.694 349.856 233.949 350.656 232.276 351.456C231.039 352.038 229.802 352.547 228.566 353.056C228.566 353.056 228.638 353.056 228.638 353.129C229.875 352.62 231.112 352.038 232.276 351.529C234.094 350.656 235.767 349.856 237.367 348.983C237.44 348.983 237.44 348.983 237.367 348.983ZM227.402 299.092C227.402 299.165 227.329 299.31 227.329 299.383C227.402 299.31 227.402 299.165 227.402 299.092ZM307.635 546.002C307.635 545.711 307.563 545.493 307.563 545.202C307.563 545.056 307.563 544.984 307.563 544.838C307.49 514.656 307.417 484.474 307.344 454.293C307.344 449.929 307.344 445.638 307.344 441.274C307.344 371.82 307.417 302.438 307.344 232.983C307.344 179.528 307.199 126.074 307.199 72.619C307.199 28.7644 307.199 -15.0903 307.199 -58.9449C307.199 -59.5995 307.272 -60.3268 307.199 -60.9813C307.199 -61.1268 307.199 -61.2722 307.199 -61.4177C307.199 -61.7813 307.126 -62.1449 307.053 -62.5086C306.835 -63.3086 306.035 -63.8904 305.453 -64.6177C304.798 -64.0359 303.926 -63.5268 303.562 -62.7268C303.416 -62.5086 303.344 -62.2177 303.344 -61.9268C303.344 -61.854 303.344 -61.7813 303.344 -61.7086C303.344 -61.4177 303.344 -61.1268 303.344 -60.8358C303.344 -60.6904 303.344 -60.4722 303.344 -60.3268C303.344 -5.92663 303.271 48.4735 303.271 102.946C303.271 148.183 303.125 193.347 303.707 238.583C303.707 239.528 303.707 240.474 303.635 241.347C303.635 241.783 303.562 242.219 303.562 242.583C303.562 242.801 303.489 242.947 303.489 243.165C303.416 243.528 303.416 243.892 303.344 244.256C303.198 244.91 303.053 245.492 302.907 246.074C301.671 250.074 298.906 252.547 293.451 254.001C287.995 255.456 282.831 258.292 277.521 260.474V260.401C279.339 253.274 281.521 246.583 282.685 239.747C282.758 239.383 282.758 239.092 282.831 238.728C282.831 238.51 282.903 238.219 282.903 238.001C282.976 237.419 283.049 236.838 283.049 236.328C283.122 235.092 283.122 233.928 283.049 232.838C282.467 224.838 277.812 219.674 268.573 217.201C261.808 215.383 254.462 215.601 247.406 215.383C245.442 215.31 243.841 215.238 242.314 214.51C241.586 214.147 240.859 213.565 240.204 212.837C233.73 205.71 226.165 200.11 217.655 196.256C214.963 195.019 212.199 194.001 209.362 193.128C182.812 185.128 158.807 188.256 137.785 203.892C134.293 206.51 130.802 209.492 127.455 212.765C126.146 214.001 124.037 214.801 122.218 215.019C116.981 215.747 111.525 215.601 106.361 216.619C97.9953 218.292 90.4302 221.71 87.957 230.947C87.6661 232.038 87.4478 233.128 87.3024 234.219C87.2296 234.583 87.2296 234.947 87.2296 235.31C87.1569 236.038 87.1569 236.838 87.2296 237.565C87.2296 237.856 87.2296 238.219 87.3024 238.51C87.4478 240.692 87.8843 242.801 88.4662 244.91C89.0482 247.019 89.7756 249.056 90.5757 251.165C91.1576 252.619 91.7396 254.074 92.6125 256.256C92.6125 256.256 92.6125 256.329 92.6852 256.329C91.1576 255.529 90.503 255.238 89.9211 254.874C75.8093 246.801 62.8613 237.201 50.7863 226.147C32.7465 209.637 17.4708 191.456 9.25109 168.037C9.03286 167.456 8.88738 166.874 8.81464 166.292C8.81464 166.219 8.81464 166.074 8.7419 166.001C8.7419 165.783 8.66916 165.565 8.66916 165.346C8.66916 165.128 8.66916 164.837 8.66916 164.619C8.66916 164.474 8.66916 164.328 8.66916 164.256C8.7419 163.383 8.96012 162.437 9.32383 161.492C9.68753 160.474 9.83302 159.383 9.90576 158.219C9.9785 157.274 9.90576 156.256 9.90576 155.31C9.90576 154.946 9.90576 154.656 9.83302 154.365C9.83302 154.074 9.76028 153.783 9.76028 153.492C9.61479 151.746 8.88738 149.928 8.52368 148.183C8.45094 147.965 8.45093 147.674 8.37819 147.456C8.37819 147.31 8.37819 147.165 8.30545 147.019C8.23271 146.874 8.30545 146.728 8.23271 146.583C8.23271 146.437 8.23271 146.292 8.23271 146.146C8.23271 97.6372 8.30545 49.2008 8.37819 0.764285C8.45093 -19.2358 8.52368 -39.2358 8.45094 -59.2358V-59.3086C8.45094 -59.454 8.45094 -59.5268 8.45094 -59.6722C8.45094 -59.7449 8.45093 -59.8904 8.37819 -60.0358C8.08723 -61.854 6.92337 -64.1813 6.41418 -64.1813C4.88662 -64.1086 4.45017 -63.454 4.37743 -62.5086C4.37743 -62.2177 4.37743 -61.9995 4.37743 -61.7086C4.37743 -61.3449 4.45017 -60.9813 4.45017 -60.6177C4.45017 -60.3268 4.45017 -60.1086 4.45017 -59.8177C4.45017 -59.6722 4.45017 -59.5268 4.37743 -59.3813V-59.3086V-59.2358C4.37743 -58.9449 4.37743 -58.654 4.37743 -58.4358C4.37743 7.38249 4.30469 73.2008 4.30469 139.019C4.30469 197.856 4.30469 256.765 4.30469 315.601C4.30469 333.856 4.30469 352.111 4.30469 370.365C4.30469 374.147 4.30469 378.001 4.30469 381.783V395.602C4.30469 400.402 4.30469 405.202 4.30469 410.002C4.30469 454.947 4.30469 499.82 4.37743 544.766C4.37743 544.911 4.37743 544.984 4.37743 545.129C4.37743 545.42 4.30469 545.711 4.30469 545.929C4.30469 546.147 4.30469 546.293 4.30469 546.511C4.30469 546.802 4.37743 547.093 4.45017 547.311C4.88662 548.329 5.68677 549.129 6.34144 550.002C6.99611 549.129 7.79626 548.256 8.37819 547.311C8.45093 547.166 8.45094 547.02 8.52368 546.875C8.52368 546.802 8.52368 546.802 8.52368 546.729C8.52368 546.584 8.52368 546.511 8.52368 546.366C8.52368 546.22 8.52368 546.002 8.45094 545.784C8.45094 545.638 8.45094 545.566 8.45094 545.42C8.37819 526.656 8.37819 507.965 8.37819 489.202C8.37819 488.184 8.96012 487.093 9.32383 485.929C12.5244 487.529 15.0704 489.784 17.9073 490.147C25.6906 491.02 33.5466 491.093 41.039 487.82C42.2028 487.311 43.8759 487.674 45.258 488.038C46.2763 488.256 47.1492 489.056 47.9494 489.711C48.8223 490.438 49.6224 491.384 50.3498 492.038C51.5864 492.111 53.0413 492.184 54.5688 492.329C54.5688 492.402 54.4961 492.547 54.4961 492.62C54.4961 492.693 54.4961 492.765 54.4961 492.838C54.4961 492.984 54.4961 493.129 54.4961 493.202C54.7143 495.02 56.8238 495.602 57.7695 496.911C60.1699 500.256 62.8613 503.529 65.9165 506.365C75.2273 515.02 85.8476 521.42 97.9226 525.565C117.054 532.184 135.821 532.329 154.079 522.729C154.952 522.293 156.406 522.365 157.352 522.729C168.7 527.165 180.266 530.365 192.486 530.802C206.816 531.311 220.71 529.347 233.658 522.947C239.04 520.256 244.132 517.129 249.37 514.22C265.882 524.547 283.631 528.329 303.489 523.965C303.489 527.529 303.489 530.656 303.489 533.784C303.489 538.147 303.271 542.511 303.489 546.875V546.947C303.562 547.893 304.871 548.838 305.599 549.784C306.326 548.838 307.126 547.966 307.635 546.947C307.708 546.802 307.781 546.584 307.781 546.366C307.635 546.293 307.635 546.147 307.635 546.002ZM304.144 261.492C303.489 262.729 302.98 264.183 302.034 265.129C297.452 269.274 292.723 273.274 288.068 277.274C287.486 277.783 286.831 278.365 286.249 278.874C286.468 279.238 286.759 279.529 286.977 279.892C291.996 276.038 297.015 272.183 301.962 268.329C302.18 268.547 302.398 268.838 302.616 269.056C289.086 283.529 272.647 294.947 258.244 309.056L258.171 309.129C261.227 309.347 279.703 290.729 282.976 295.092C282.976 295.092 282.976 295.092 283.049 295.165C279.776 298.001 260.208 314.365 256.935 316.91L245.442 323.747L225.438 335.529L222.674 337.129C222.019 337.347 221.364 337.638 220.782 337.856C219.764 338.22 218.746 338.656 217.8 339.02C216.854 339.383 215.909 339.747 214.963 340.111C214.818 340.183 214.745 340.183 214.599 340.256C214.017 340.474 213.363 340.692 212.708 340.983C212.053 341.201 211.326 341.347 210.817 341.856C209.58 343.02 208.125 343.747 206.671 344.111C206.671 344.111 206.671 344.111 206.598 344.111C205.07 344.474 203.543 344.547 202.088 344.401C201.506 344.329 200.997 344.256 200.488 344.183C200.415 344.183 200.342 344.183 200.342 344.183C200.051 344.111 199.76 344.038 199.469 343.965C198.087 343.674 196.414 343.383 194.887 342.656C194.741 342.583 194.596 342.511 194.523 342.511C192.704 341.565 191.25 339.965 191.25 336.765C191.322 336.401 191.395 336.11 191.54 335.747C192.268 333.492 193.504 330.947 193.359 327.82C193.359 327.311 193.577 326.729 194.014 326.147C194.668 325.274 195.687 324.329 196.56 323.965C199.324 322.583 202.452 321.929 206.016 320.765C203.106 320.765 200.851 321.129 198.815 320.62C197.36 320.256 196.196 318.583 194.887 317.565C195.978 316.692 196.996 315.383 198.233 315.092C203.47 313.856 208.853 312.765 214.163 311.82C214.672 311.747 215.109 311.674 215.618 311.674C217.145 311.529 218.746 311.601 220.273 311.456C220.782 311.383 221.292 311.31 221.801 311.165C222.819 310.874 223.765 310.583 224.638 310.074C226.093 309.274 227.256 308.038 227.766 306.001C228.129 304.838 229.948 303.892 231.33 303.238H231.403C234.167 301.929 236.931 300.62 239.768 299.383C241.15 298.801 242.459 298.147 243.841 297.565C250.17 294.656 256.426 291.747 262.609 288.692C276.211 281.856 288.286 272.765 300.143 263.383C301.161 262.583 302.18 261.783 303.198 260.91C303.562 261.056 303.853 261.274 304.144 261.492C304.144 261.419 304.144 261.419 304.144 261.492ZM112.762 247.965C112.835 247.528 112.907 247.092 113.053 246.656C113.125 246.219 113.271 245.783 113.344 245.419C113.416 244.983 113.562 244.619 113.635 244.183C113.707 243.819 113.853 243.383 113.926 243.019C114.071 242.583 114.144 242.219 114.289 241.783V241.71C114.362 241.347 114.508 240.983 114.653 240.619C114.799 240.183 114.944 239.747 115.089 239.238C115.38 238.51 115.599 237.783 115.89 237.128C115.962 236.91 116.035 236.692 116.181 236.474C116.326 236.183 116.399 235.965 116.544 235.674C116.69 235.31 116.908 234.874 117.054 234.51C117.272 234.074 117.49 233.638 117.708 233.128C117.854 232.838 117.999 232.474 118.217 232.183C118.363 231.819 118.581 231.456 118.799 231.019C119.163 230.292 119.599 229.492 120.036 228.765C120.254 228.401 120.472 228.038 120.691 227.674C121.127 226.947 121.563 226.219 122.073 225.419C122.291 225.056 122.582 224.692 122.8 224.328C122.873 224.256 122.946 224.183 122.946 224.038C123.091 223.819 123.309 223.528 123.455 223.31C123.964 222.583 124.473 221.928 124.982 221.274C125.201 220.983 125.419 220.692 125.637 220.474C125.637 220.474 125.637 220.401 125.71 220.401C125.928 220.11 126.146 219.819 126.364 219.601C126.51 219.383 126.728 219.165 126.874 218.947C127.165 218.656 127.383 218.292 127.674 218.001C129.201 216.256 130.802 214.51 132.547 212.765C132.911 212.401 133.202 212.11 133.566 211.747C133.929 211.383 134.293 211.092 134.657 210.728C135.093 210.365 135.53 209.928 135.966 209.565C136.403 209.201 136.766 208.837 137.203 208.474C137.785 207.965 138.367 207.528 138.949 207.092C139.24 206.874 139.458 206.656 139.749 206.51C139.894 206.437 139.967 206.365 140.112 206.292C140.403 206.074 140.694 205.856 140.985 205.637C141.349 205.419 141.713 205.128 142.004 204.91C143.313 204.037 144.622 203.165 145.932 202.437C146.223 202.219 146.586 202.074 146.877 201.856C147.168 201.71 147.459 201.492 147.75 201.347C148.041 201.201 148.259 201.056 148.55 200.91C148.55 200.91 148.623 200.91 148.623 200.837C148.987 200.619 149.351 200.474 149.642 200.328C150.005 200.183 150.369 199.965 150.733 199.819C151.169 199.601 151.606 199.383 152.042 199.165C152.769 198.874 153.497 198.51 154.224 198.219C154.515 198.074 154.806 198.001 155.097 197.856C155.679 197.637 156.261 197.419 156.843 197.201C157.134 197.128 157.425 196.983 157.716 196.91C158.952 196.474 160.116 196.11 161.353 195.747C161.717 195.674 162.008 195.528 162.371 195.456C162.662 195.383 163.026 195.31 163.317 195.165C163.681 195.092 164.117 194.947 164.481 194.874C164.772 194.801 165.135 194.728 165.426 194.656C165.717 194.583 166.008 194.51 166.299 194.51C166.736 194.437 167.099 194.365 167.536 194.292C168.191 194.147 168.845 194.074 169.5 193.928C169.791 193.856 170.082 193.856 170.373 193.783C170.736 193.71 171.1 193.637 171.391 193.637C171.828 193.565 172.191 193.492 172.555 193.492C172.846 193.419 173.064 193.419 173.355 193.419L174.446 193.274C175.537 193.128 176.701 193.056 177.865 192.983C186.667 192.328 195.105 192.983 203.106 195.165C210.962 197.274 218.455 200.692 225.583 205.637C231.039 209.419 235.84 213.783 239.986 218.801C241.077 220.038 242.096 221.347 243.041 222.728C245.151 225.638 247.115 228.838 248.788 232.183C249.806 234.147 250.024 236.547 251.406 239.31L227.111 257.71L214.527 267.238L210.453 270.365L202.015 276.765C198.16 279.019 195.541 282.438 193.795 286.438C193.65 286.656 193.577 286.947 193.504 287.238C193.214 287.965 192.923 288.692 192.632 289.419C192.486 289.856 192.268 290.365 192.122 290.874C192.05 291.165 191.904 291.529 191.759 291.819V291.892C191.468 291.819 191.104 291.747 190.813 291.674C190.74 291.674 190.668 291.674 190.668 291.601C190.449 291.529 190.158 291.456 189.94 291.456C189.14 291.238 188.34 291.092 187.54 290.874C186.594 290.583 185.648 290.292 184.703 289.929C184.266 289.783 183.903 289.347 183.539 288.91C183.175 288.401 182.812 287.819 182.521 287.31C180.047 283.456 177.938 279.31 175.101 275.747C165.354 263.529 149.205 265.638 141.422 279.819C141.276 280.038 141.204 280.256 141.058 280.474C141.058 280.474 141.058 280.547 140.985 280.547C140.258 281.856 139.458 283.165 138.585 284.619C132.693 282.074 127.383 279.819 121.563 277.274C120.836 276.91 120.036 276.401 118.945 275.819C117.926 275.238 116.763 274.583 115.38 273.856C115.308 273.783 115.235 273.783 115.162 273.71V279.674C114.944 279.747 114.435 279.165 114.217 279.092H114.144C113.562 277.638 113.053 277.056 112.762 275.456C112.325 273.056 112.034 270.656 111.816 268.329C111.743 267.747 111.743 267.165 111.671 266.583C111.598 266.001 111.598 265.492 111.598 264.91C111.525 262.51 111.525 260.183 111.598 257.856C111.598 257.492 111.671 257.129 111.671 256.765C111.671 256.401 111.743 255.965 111.743 255.601C111.743 255.165 111.816 254.801 111.889 254.365C111.962 253.856 111.962 253.347 112.034 252.838C112.034 252.619 112.107 252.401 112.107 252.256C112.18 251.892 112.18 251.528 112.253 251.165C112.325 250.147 112.544 249.056 112.762 247.965ZM303.926 255.819C302.543 257.274 301.307 259.019 299.707 260.183C284.431 271.31 268.573 281.419 251.406 289.419C248.861 290.583 246.242 291.747 243.696 292.91C240.059 294.51 236.495 296.038 232.785 297.492C232.639 297.565 232.566 297.565 232.421 297.638C231.403 298.001 229.439 298.583 227.693 299.02C227.62 299.02 227.62 299.02 227.547 299.02C227.547 299.02 227.547 299.02 227.475 299.02C227.329 299.02 227.256 299.092 227.111 299.092C226.747 299.165 226.311 299.31 225.947 299.383C225.292 299.529 224.71 299.601 224.274 299.601C224.565 297.856 225.365 296.329 226.529 294.947C227.111 294.292 227.693 293.638 228.42 293.056C228.784 292.765 229.148 292.474 229.511 292.183C231.694 290.51 234.167 289.274 236.058 288.401C238.459 287.31 240.786 286.147 243.187 285.056C255.844 279.019 268.428 272.765 281.012 266.51C288.432 262.801 295.779 258.874 303.198 255.092C303.416 255.383 303.635 255.601 303.926 255.819ZM198.305 286.656C201.07 281.783 205.216 278.947 210.453 278.219C211.472 278.074 212.49 278.001 213.654 278.074C216.272 278.147 218.746 278.438 221.073 279.092C223.256 279.747 225.292 280.692 227.111 282.147C227.984 282.801 228.784 283.529 229.511 284.401C230.021 284.983 230.457 285.565 230.966 286.219C230.966 286.219 230.966 286.292 231.039 286.292C231.184 286.583 231.184 287.019 231.257 287.747C230.893 287.819 230.602 287.819 230.239 287.892C228.784 288.11 227.256 288.329 225.583 288.619C225.001 288.692 224.347 288.838 223.692 288.91C223.547 289.492 223.474 290.147 223.328 290.729C223.11 291.819 222.892 292.91 222.674 294.001C222.092 296.983 221.51 300.038 221.146 303.165C221.073 303.892 220.855 304.474 220.491 304.91C219.691 306.001 218.382 306.147 217.218 306.292C216.782 306.365 216.272 305.929 215.691 305.42C215.109 304.765 214.599 303.965 214.454 303.383C214.017 300.838 213.872 298.22 213.727 295.601C213.654 294.729 213.654 293.856 213.581 292.983C213.508 292.183 213.508 291.456 213.581 290.656C213.581 290.292 213.581 289.929 213.581 289.565C213.145 289.565 212.781 289.492 212.344 289.492C212.272 289.929 212.272 290.292 212.199 290.729C211.981 292.474 211.835 294.22 211.617 295.965C211.181 299.747 210.744 303.529 210.308 307.456C209.508 307.82 208.489 308.183 207.107 308.838C204.561 305.129 204.052 301.201 204.197 297.201C204.27 295.31 204.488 293.419 204.707 291.529C204.852 290.583 204.925 289.638 204.998 288.692C204.707 288.619 204.343 288.547 204.052 288.474C203.761 289.565 203.397 290.656 203.106 291.747C202.743 293.056 202.379 294.292 202.161 295.601C202.015 296.256 201.87 296.91 201.797 297.638C201.506 299.456 201.288 301.347 200.924 303.601C199.178 302.001 197.869 300.256 197.142 298.365C196.269 296.329 196.05 294.22 196.414 291.965C196.56 291.238 196.705 290.51 196.996 289.71C197.287 288.692 197.723 287.674 198.305 286.656ZM192.923 309.42C190.886 308.401 189.358 305.856 187.467 303.892L187.394 303.82H187.467C189.504 302.801 191.177 302.51 192.704 302.656C196.269 303.092 198.887 306.292 202.161 309.201C198.742 309.42 195.687 310.438 193.432 309.565C193.214 309.565 193.068 309.492 192.923 309.42ZM256.717 271.31C256.644 271.456 256.644 271.529 256.571 271.674C256.353 272.038 255.989 272.474 255.48 272.838C255.116 273.129 254.68 273.419 254.171 273.71C254.171 273.71 254.171 273.71 254.098 273.71C253.225 274.219 252.352 274.656 251.843 274.874C249.879 275.892 248.788 276.474 248.06 276.91C247.115 277.419 246.678 277.71 245.66 278.292C245.369 278.51 245.078 278.656 244.787 278.874L244.714 278.947C244.569 279.019 244.351 279.165 244.205 279.31C243.696 279.601 243.696 279.601 243.041 279.965C242.968 280.038 242.968 280.038 242.896 280.11C241.732 280.91 242.241 280.547 240.859 281.419C239.913 281.856 238.24 282.874 237.295 283.383V283.31L239.331 279.165L242.387 273.056L253.88 249.71C254.098 251.383 254.534 253.783 255.044 256.401V256.474C256.207 262.365 257.517 269.201 256.717 271.31ZM142.367 296.038C142.149 295.092 141.567 294.074 141.422 293.201C141.422 292.983 141.422 292.838 141.422 292.619C141.422 292.547 141.422 292.474 141.495 292.401C142.949 288.038 144.331 283.601 146.586 279.674C151.824 270.729 162.662 269.783 170.009 277.201C174.519 281.71 181.648 293.71 183.903 300.692V300.765C180.193 300.91 179.611 298.074 178.447 295.747C177.283 293.419 175.974 291.165 174.301 288.983C174.446 290.365 174.592 291.747 174.737 293.201C174.81 293.929 174.883 294.583 174.883 295.31C174.955 296.038 175.028 296.692 175.028 297.42C175.246 300.183 175.392 303.02 175.61 305.783C175.683 307.601 175.756 309.42 175.828 311.165C175.828 312.11 175.901 312.983 175.901 313.929C175.901 314.801 175.974 315.674 175.974 316.62C175.974 317.42 175.974 318.22 176.047 319.092C176.119 321.929 176.119 324.765 176.119 327.601C176.119 329.783 176.119 331.965 176.047 334.22V334.292C168.772 328.838 161.789 327.238 154.588 330.22C153.206 330.801 151.751 331.529 150.296 332.474C148.914 318.438 147.605 304.62 146.295 290.729C145.932 290.656 145.568 290.656 145.204 290.583C144.622 292.329 143.968 294.074 143.386 295.892C143.095 295.892 142.731 295.965 142.367 296.038ZM149.278 339.456C150.151 337.638 150.442 335.165 151.824 334.147C152.769 333.42 153.861 332.838 154.952 332.401C163.899 328.62 175.174 333.492 177.065 342.001C177.065 342.074 177.065 342.147 177.138 342.22C177.138 342.583 177.138 343.092 177.138 343.892V343.965C170.518 336.765 163.535 332.91 155.606 336.692C154.515 337.201 153.351 337.929 152.187 338.729C151.533 339.238 150.805 339.747 150.151 340.329C150.005 340.11 149.787 339.82 149.642 339.601C149.423 339.601 149.351 339.529 149.278 339.456ZM146.877 349.711C146.877 349.711 146.877 349.638 146.95 349.638C150.951 340.838 160.916 336.91 168.191 341.565C169.573 342.438 170.446 344.256 171.537 345.711C174.81 346.147 175.537 348.62 175.901 351.311C175.974 351.892 176.047 352.474 176.047 352.983C176.047 353.274 176.047 353.565 176.047 353.856C175.974 356.111 174.883 357.274 172.119 358.874C164.044 346.001 158.007 346.292 146.877 349.711ZM146.659 354.656C156.261 348.692 168.7 354.001 170.955 364.838C170.955 364.983 171.027 365.201 171.027 365.347C171.027 365.492 171.1 365.565 171.1 365.711C171.1 365.783 171.1 365.783 171.1 365.783C171.1 365.856 171.1 365.929 171.1 366.001C171.1 366.074 171.1 366.22 171.1 366.292C171.027 367.674 170.227 368.256 168.482 368.401C164.844 368.765 161.28 369.056 156.916 369.492C152.988 369.056 148.405 368.547 143.895 368.111C142.076 367.965 141.204 367.165 140.985 365.565C140.985 365.347 140.913 365.056 140.913 364.765C140.913 364.474 140.913 364.183 140.913 363.892C140.913 363.601 140.913 363.383 140.985 363.165C140.985 363.092 140.985 363.02 140.985 362.947C140.985 362.801 140.985 362.656 141.058 362.583V362.511C141.64 359.02 143.531 356.547 146.659 354.656ZM170.591 371.311C165.354 375.02 147.314 374.947 142.877 371.311H170.591ZM246.606 219.601C253.589 218.074 260.354 218.656 266.973 220.619C274.174 222.728 278.03 226.51 278.83 232.183C278.83 232.401 278.903 232.547 278.903 232.765C278.975 232.983 278.975 233.274 278.975 233.492V233.565C279.048 234.074 279.048 234.656 278.975 235.238C278.975 235.601 278.975 235.892 278.903 236.256C278.903 236.619 278.83 236.983 278.83 237.274C278.757 238.219 278.539 239.238 278.321 240.256C277.884 242.219 277.448 244.183 276.866 246.074C276.72 246.583 276.575 247.092 276.429 247.601C274.829 252.91 272.574 257.929 269.446 262.656C268.719 264.401 268.428 265.419 266.9 266.001C266.173 266.438 264.645 267.019 263.991 267.238C263.918 267.238 263.845 267.238 263.845 267.31C262.681 267.529 262.172 265.129 261.881 262.365V262.292C261.736 260.765 261.59 259.092 261.517 257.71C261.517 257.565 261.517 257.347 261.445 257.201C261.445 257.129 261.445 257.056 261.445 256.983C260.863 253.638 260.863 250.438 259.626 247.747C259.19 246.728 258.899 245.783 258.753 244.838C258.753 244.692 258.681 244.474 258.681 244.328C258.681 244.183 258.608 243.965 258.608 243.819C258.608 243.674 258.608 243.528 258.608 243.383C258.608 243.165 258.608 242.947 258.608 242.801C258.826 239.747 260.499 237.056 262.681 234.365C263.772 232.983 264.718 231.528 266.1 229.71H266.027C256.571 232.983 253.952 231.092 248.497 222.656C247.842 221.638 247.187 220.692 246.606 219.601ZM91.0849 234.438C91.0849 234.074 91.1577 233.783 91.1577 233.419C91.1577 233.128 91.2304 232.838 91.3031 232.547C91.3759 232.256 91.3759 231.965 91.4486 231.747C92.3942 227.747 95.2312 224.838 99.1592 223.019C106.142 219.819 113.707 218.874 122.727 218.947H122.8C121.563 220.474 120.327 221.856 119.236 223.165C119.09 223.31 118.945 223.456 118.872 223.601C118.799 223.601 118.799 223.674 118.799 223.674C118.799 223.747 118.727 223.747 118.654 223.819C117.054 225.783 115.599 227.747 114.289 229.783C112.544 232.547 112.034 233.638 111.452 235.019C109.707 238.874 105.779 236.11 102.651 234.728C102.651 234.728 102.578 234.728 102.578 234.656C103.378 235.601 104.178 236.619 105.124 237.565C106.724 239.165 109.561 240.619 109.707 242.365C109.707 242.51 109.707 242.583 109.707 242.728C109.707 243.019 109.707 243.238 109.707 243.528C109.707 243.819 109.634 244.11 109.634 244.401C109.634 244.547 109.561 244.692 109.561 244.838C109.197 246.801 108.325 248.838 107.743 250.801C107.161 252.765 106.361 254.656 105.633 256.619C99.7411 255.383 107.379 263.965 103.887 264.765H102.433C101.923 264.401 100.978 263.165 100.178 261.856L98.8682 259.529L98.65 259.165C95.3039 252.474 92.1033 245.565 91.3031 237.928C91.2304 237.492 91.2304 237.128 91.2304 236.692C91.2304 236.401 91.2304 236.183 91.1577 235.892C91.1577 235.601 91.1577 235.383 91.1577 235.092C91.0849 235.019 91.0849 234.728 91.0849 234.438ZM37.4019 217.492C40.5298 220.619 43.7304 223.674 46.7855 226.874C61.6975 242.51 77.5551 256.983 94.6492 270.074C100.032 274.219 105.56 278.292 111.234 282.147C112.325 282.874 113.416 283.601 114.58 284.329C116.69 285.71 118.872 287.019 121.054 288.329C126.801 291.674 132.693 294.801 138.73 297.492C142.222 299.092 143.677 300.983 143.895 303.82C143.895 303.965 143.895 304.183 143.895 304.329C143.895 304.474 143.895 304.62 143.895 304.838C143.895 304.983 143.895 305.201 143.895 305.347C143.895 305.492 143.895 305.638 143.822 305.856C143.75 306.583 143.604 307.383 143.459 308.256C136.403 304.62 129.347 301.347 122.655 297.638C121.418 296.983 120.254 296.256 119.09 295.601C115.744 293.565 112.471 291.456 109.27 289.274C105.56 286.729 101.996 284.11 98.5045 281.419C84.6109 270.583 72.0267 258.147 60.4609 244.619C53.405 236.474 46.2763 228.401 39.1477 220.328C38.2748 219.528 37.6201 218.656 37.4019 217.492ZM27.3636 216.11C49.6224 246.656 69.6263 278.947 100.396 302.292C100.25 302.147 100.032 302.001 99.8866 301.856C74.7182 279.165 55.8054 251.528 37.4747 223.383C37.5474 223.456 37.6201 223.528 37.6201 223.601C56.7511 246.728 76.6822 268.91 100.105 286.874C102.214 288.474 104.324 290.074 106.506 291.601C111.889 295.456 117.49 299.092 123.309 302.438C129.929 306.292 136.839 309.783 144.113 312.838C144.113 313.492 144.186 314.147 144.259 314.801C144.331 315.238 144.331 315.601 144.331 316.038C144.331 316.256 144.404 316.474 144.404 316.692C144.477 317.492 144.55 318.292 144.695 319.02C144.841 320.256 144.986 321.492 145.204 322.729C145.277 323.529 145.423 324.256 145.495 325.056C145.568 325.856 145.714 326.656 145.786 327.383C145.859 327.892 145.859 328.401 145.932 328.911C146.005 329.42 146.004 329.929 146.004 330.438C146.004 330.583 146.004 330.656 146.004 330.801C146.004 331.02 146.004 331.31 146.004 331.529C146.004 331.747 146.004 332.038 146.004 332.256C146.004 332.765 146.004 333.274 146.004 333.783C146.004 333.929 146.004 334.147 146.004 334.365C146.004 335.02 145.932 335.674 145.859 336.256C145.859 336.62 145.786 336.983 145.714 337.347C145.641 337.711 145.641 338.074 145.568 338.51C145.495 338.874 145.423 339.238 145.35 339.601C145.277 340.038 145.132 340.547 145.059 340.983C144.986 341.274 144.913 341.638 144.841 341.929C144.477 341.783 144.113 341.638 143.75 341.492C139.385 339.674 135.021 337.856 130.656 336.11C130.074 335.892 129.492 335.674 128.838 335.456C126.583 334.656 124.328 333.929 122.218 332.911C118.799 331.238 115.38 329.492 112.253 327.31C105.779 322.801 99.0137 318.438 93.3399 313.056C86.3567 306.438 79.9555 299.165 73.9907 291.674C60.7518 274.874 49.477 256.692 39.4387 237.783C35.5106 230.365 31.2189 223.019 27.1454 215.674C27.2909 215.965 27.2909 216.037 27.3636 216.11ZM8.01449 189.419C8.01449 189.274 8.01449 189.201 8.01449 189.056C8.08723 188.256 8.30545 187.456 8.81464 186.437C9.54205 187.747 10.3422 188.983 10.9241 190.292C18.6347 205.783 26.0543 221.492 34.1286 236.765C49.9134 266.438 67.9532 294.656 91.2304 319.238C104.397 333.201 119.818 343.82 137.567 351.092C138.73 351.601 139.967 351.892 141.713 352.474C141.058 353.711 140.549 354.729 139.967 355.674C138.439 358.147 137.494 360.765 137.13 363.529C137.057 363.892 137.057 364.329 136.985 364.692C136.985 365.201 136.912 365.638 136.912 366.147C136.912 366.365 136.912 366.656 136.912 366.874C136.912 367.02 136.912 367.165 136.912 367.238C136.912 367.529 136.912 367.82 136.985 368.111C136.985 368.401 137.057 368.62 137.057 368.911C137.494 372.256 139.24 374.874 142.367 376.256C151.169 380.111 160.189 380.474 169.282 377.274C174.519 375.456 176.774 371.238 177.21 366.074C177.501 362.801 178.665 361.929 182.011 362.074C186.303 362.292 190.449 362.22 194.596 361.929C197.36 361.711 200.124 361.347 202.815 360.911C211.617 359.456 220.201 356.765 228.493 353.201C229.73 352.692 230.966 352.111 232.13 351.601C233.803 350.801 235.549 350.001 237.222 349.129C238.095 348.692 239.04 348.183 239.986 347.674C242.096 346.511 244.205 345.347 246.242 344.183C263.772 333.783 278.757 320.401 292.505 305.42C295.633 301.929 299.634 299.165 302.98 296.256V298.729C302.98 320.765 302.907 342.874 303.053 364.911C303.053 365.129 303.053 365.274 303.053 365.42C302.98 367.674 302.253 368.692 299.852 369.856C295.051 372.183 290.759 375.601 286.177 378.511C284.867 379.311 283.194 380.256 281.812 380.183C258.899 378.729 241.805 388.329 229.657 407.383C226.165 412.838 226.383 412.765 219.982 412.111C206.016 410.729 193.286 413.492 183.248 424.256C182.884 424.693 182.302 424.911 181.429 425.493C174.083 416.256 164.917 409.565 153.57 406.22C142.295 402.947 130.874 402.874 119.599 407.165C115.962 369.638 94.14 348.765 59.588 339.674C58.0604 334.001 57.2603 328.038 54.9325 322.656C47.0038 304.038 32.8192 292.838 12.8881 289.056C9.39657 288.401 8.37819 288.256 8.01449 286.51C7.94175 286.365 7.94175 286.219 7.94175 286.001C7.94175 285.856 7.94175 285.638 7.869 285.419C7.79626 284.765 7.79626 284.038 7.79626 283.092C7.72352 252.183 7.72352 221.274 7.65078 190.365C7.94175 189.928 7.94175 189.71 8.01449 189.419ZM184.485 429.783C184.412 429.638 184.412 429.42 184.412 429.202V429.129C184.412 428.329 184.921 427.311 185.43 426.729C192.85 419.165 202.015 415.674 212.417 415.456C216.636 415.383 220.928 416.038 225.147 416.329C223.91 421.492 222.892 425.856 221.801 430.656C210.162 431.02 199.178 434.438 190.377 442.729C188.194 438.365 186.158 434.147 184.485 429.783ZM115.671 409.638C113.344 407.82 110.943 406.22 108.543 404.765C101.705 400.547 94.6492 397.856 87.3024 396.547C79.0099 395.092 70.2809 395.602 61.261 398.074C60.2426 389.202 57.9149 381.202 54.1324 374.002C53.6959 373.202 53.2595 372.329 52.7503 371.529C48.8223 364.765 43.5849 358.801 36.9655 353.638C34.9287 352.038 32.8192 350.511 30.5643 349.056H30.637C31.4371 348.401 32.31 347.82 33.1102 347.383C34.6378 346.511 36.1653 345.856 37.6929 345.347C40.0206 344.547 42.4938 344.111 44.8943 343.892C61.0428 342.438 75.5183 347.02 88.3207 356.838C98.2863 364.401 106.433 373.492 111.016 385.42C112.325 388.911 113.416 392.474 114.144 396.256C114.289 396.765 114.362 397.347 114.435 397.856C114.58 398.511 114.653 399.092 114.726 399.747C114.799 400.329 114.871 400.911 114.944 401.492C115.017 402.074 115.09 402.656 115.162 403.238C115.235 403.82 115.308 404.402 115.308 404.983C115.38 405.565 115.38 406.22 115.453 406.802C115.453 407.165 115.526 407.602 115.526 408.038C115.671 408.474 115.671 408.983 115.671 409.638ZM8.59642 292.983C30.4188 292.983 52.4593 313.71 54.4961 333.71C54.5688 334.001 54.5688 334.365 54.5688 334.656C54.6416 335.674 54.6416 336.765 54.6416 337.783V337.856C47.4402 339.601 39.8024 340.038 33.6194 343.238C33.5466 343.238 33.5466 343.311 33.4739 343.311C32.8192 343.674 32.1646 343.965 31.5099 344.183C27.1454 345.929 23.5811 345.492 19.3621 343.601C17.3981 342.729 15.2886 342.001 13.1064 341.565C12.6699 341.492 12.1607 341.347 11.7243 341.274C9.90576 340.983 9.10561 340.329 8.81464 339.02C8.81464 338.947 8.7419 338.801 8.7419 338.729C8.7419 338.511 8.66916 338.292 8.66916 338.074C8.66916 337.929 8.66916 337.783 8.66916 337.711C8.66916 334.147 8.59642 330.511 8.59642 326.947C8.59642 325.638 8.59642 324.256 8.59642 322.947C8.52368 313.492 8.45093 304.11 8.37819 294.656C8.37819 294.583 8.37819 294.583 8.37819 294.51C8.37819 294.001 8.52368 293.492 8.59642 292.983ZM8.23271 372.62C8.15997 363.529 8.23271 354.511 8.23271 345.129C9.39657 345.42 10.6332 345.711 11.797 346.001C27.8001 350.292 39.8751 359.092 48.6041 372.692C48.8223 372.983 48.9678 373.274 49.186 373.565C53.5505 380.547 56.0237 388.183 57.333 396.256C57.333 396.402 57.4057 396.62 57.4057 396.765C57.4057 396.911 57.4785 397.056 57.4785 397.274C57.4785 397.347 57.4785 397.347 57.4785 397.42C57.4785 397.638 57.4785 397.856 57.4785 398.147C57.4785 398.292 57.4785 398.365 57.4785 398.511C57.4785 398.656 57.4785 398.729 57.4785 398.874C57.333 400.547 56.6056 401.929 54.7143 403.092C52.2411 404.547 50.0589 406.438 47.8039 408.111C48.2404 408.692 48.6768 409.274 49.1133 409.856C64.0979 397.565 80.7557 397.056 97.5589 403.965C113.562 410.583 124.837 422.22 129.71 439.456C129.929 440.183 130.074 440.911 130.292 441.638C130.583 440.911 130.729 440.111 130.874 439.238C130.874 438.947 130.947 438.583 130.947 438.293C130.947 438.074 130.947 437.929 130.947 437.711C130.947 437.42 130.947 437.202 130.947 436.911C130.947 436.62 130.947 436.329 130.874 436.038C130.874 435.82 130.802 435.602 130.802 435.383C130.802 435.165 130.729 435.02 130.729 434.802C130.656 434.438 130.583 434.074 130.511 433.638C130.511 433.42 130.438 433.274 130.365 433.056C130.365 433.056 130.365 433.056 130.365 432.983C129.056 427.093 125.346 419.674 118.727 412.038H118.799C121.636 411.165 124.328 410.074 126.946 409.347C128.183 408.983 129.347 408.693 130.583 408.547C142.44 406.802 154.952 409.347 165.208 415.747C168.918 418.074 172.337 420.838 175.392 424.111C178.374 427.311 180.92 431.02 182.884 435.093C184.339 438.074 185.43 441.42 185.939 444.693C185.939 444.765 185.939 444.838 185.939 444.911C185.939 445.129 185.939 445.347 185.939 445.565C185.939 445.711 185.939 445.783 185.867 445.929C185.867 446.074 185.794 446.147 185.794 446.293C185.503 447.529 184.776 448.838 184.048 449.856C182.302 452.547 181.211 455.311 180.557 458.365C180.484 458.584 180.484 458.729 180.411 458.947C180.338 459.165 180.338 459.383 180.266 459.602C180.193 460.183 180.12 460.765 180.047 461.347C179.975 462.22 179.902 463.093 179.902 464.038V464.111C186.085 449.274 196.705 439.747 212.417 436.474C228.348 433.202 241.732 438.002 252.57 450.293V450.22C251.043 441.347 239.768 433.056 226.238 431.238V431.165C227.693 415.529 234.749 402.802 247.187 393.565C261.081 383.311 276.648 381.42 294.397 387.311H294.469C286.031 393.492 278.684 399.674 277.23 410.947V411.02C283.122 399.892 291.341 392.983 302.907 389.202C302.907 389.42 302.98 389.565 302.98 389.783C302.98 390.002 303.053 390.22 303.053 390.438V390.511C303.053 390.656 303.125 390.874 303.125 391.02C303.198 391.383 303.198 391.674 303.271 392.038C303.271 392.183 303.344 392.402 303.344 392.547C303.344 392.765 303.416 392.983 303.416 393.202C303.416 393.565 303.489 393.929 303.489 394.292C303.416 410.365 303.344 426.438 303.271 442.583C303.271 447.02 303.271 451.529 303.271 455.965C303.271 474.874 303.271 493.784 303.125 512.693C303.125 513.129 303.125 513.565 303.125 514.002C303.125 514.438 303.125 514.875 303.125 515.238C303.125 515.965 303.125 516.547 303.125 517.056C303.125 517.129 303.125 517.202 303.125 517.347C302.98 519.602 301.889 519.384 296.506 520.329C284.795 522.293 273.593 519.965 262.536 515.529C251.115 510.947 242.605 503.02 235.403 493.202C235.403 493.42 235.331 493.711 235.331 493.929C235.331 494.22 235.331 494.511 235.331 494.802C235.331 495.093 235.331 495.384 235.403 495.675C235.403 495.747 235.403 495.82 235.403 495.893C235.476 496.038 235.476 496.256 235.549 496.402C235.549 496.475 235.622 496.62 235.622 496.693C235.622 496.765 235.694 496.911 235.694 496.984C235.694 497.129 235.767 497.202 235.84 497.347C235.913 497.493 235.913 497.565 235.985 497.711C235.985 497.784 236.058 497.856 236.058 498.002C236.204 498.438 236.422 498.875 236.64 499.311C236.713 499.456 236.785 499.529 236.858 499.675C236.931 499.82 237.004 499.965 237.076 500.111C237.149 500.256 237.222 500.402 237.295 500.547C237.804 501.42 238.386 502.438 239.113 503.602C239.259 503.82 239.404 504.111 239.55 504.329C240.423 505.638 241.441 507.165 242.605 508.984C242.968 509.493 243.332 510.002 243.696 510.584C240.423 515.165 227.475 521.493 225.874 520.256C223.547 521.347 221.728 522.656 219.764 523.02C212.999 524.256 206.234 525.784 199.397 526.002C186.23 526.438 173.282 524.475 161.062 519.093C146.586 512.765 134.584 503.674 127.892 488.693C128.91 503.238 138.367 511.965 149.642 519.529C149.642 519.529 149.714 519.529 149.714 519.602C120.982 534.729 78.3552 518.511 62.3521 494.584C62.3521 494.584 62.3521 494.584 62.4249 494.584C66.4984 492.838 70.7174 491.02 74.8636 489.202C74.8636 489.202 74.8636 489.202 74.8636 489.129C74.7181 488.765 74.5727 488.329 74.4272 487.965C73.6998 488.111 72.9724 488.184 72.2449 488.329C60.5336 491.093 50.859 486.729 42.1301 479.529C31.5826 470.874 26.3453 459.965 24.745 447.529C24.6722 447.02 24.5995 446.583 24.5995 446.074C24.5267 445.565 24.5267 445.129 24.454 444.62C24.3813 444.111 24.3813 443.674 24.3813 443.165C24.3813 442.656 24.3085 442.147 24.3085 441.711C24.2358 440.329 24.2358 438.947 24.2358 437.565C22.9992 439.674 22.199 442.583 21.9808 446.074C21.9808 446.293 21.9808 446.511 21.9081 446.802C21.8353 447.965 21.8353 449.129 21.9081 450.365C22.4172 460.547 27.0727 473.565 37.8384 483.384C37.8384 483.384 37.9111 483.384 37.9111 483.456C30.637 486.729 23.2901 485.856 16.307 483.674C10.0512 481.784 8.66916 481.42 8.52368 479.093C8.52368 479.02 8.52368 478.947 8.52368 478.802C8.52368 478.729 8.52368 478.656 8.52368 478.584C8.52368 478.365 8.52368 478.147 8.52368 477.929C8.52368 477.784 8.52368 477.638 8.52368 477.493C8.52368 477.202 8.52368 476.838 8.59642 476.474C8.59642 476.329 8.59642 476.184 8.59642 476.111C8.66916 475.093 8.66916 473.929 8.66916 472.474C8.59642 468.402 8.59642 464.402 8.59642 460.329C8.59642 459.529 8.59642 458.729 8.59642 457.856C8.59642 452.984 8.52368 448.111 8.52368 443.238C8.52368 438.365 8.45094 433.493 8.45094 428.62C8.45094 423.747 8.37819 418.874 8.37819 414.002C8.37819 409.929 8.37819 405.856 8.30545 401.711C8.30545 391.965 8.23271 382.292 8.23271 372.62ZM303.416 381.929C303.416 382.292 303.344 382.583 303.344 382.947C303.125 385.492 301.234 386.074 299.125 385.274C295.924 384.038 292.796 382.511 288.504 380.62C288.504 380.62 288.577 380.62 288.577 380.547C293.451 377.638 297.815 374.947 302.253 372.256C302.616 372.547 302.98 372.911 303.416 373.201C303.416 373.711 303.416 374.147 303.416 374.656C303.416 376.547 303.489 378.511 303.489 380.402C303.416 380.911 303.416 381.42 303.416 381.929ZM204.125 288.401C203.834 289.492 203.47 290.583 203.179 291.674C202.815 292.983 202.452 294.22 202.233 295.529C202.088 296.183 201.942 296.838 201.87 297.565C202.815 297.419 203.616 297.274 204.343 297.129C204.416 295.238 204.634 293.347 204.852 291.456C204.998 290.51 205.07 289.565 205.143 288.619C204.779 288.547 204.416 288.474 204.125 288.401ZM212.417 289.492C212.344 289.929 212.344 290.292 212.272 290.729C212.708 290.729 213.145 290.656 213.581 290.656C213.581 290.292 213.581 289.929 213.581 289.565C213.217 289.565 212.781 289.492 212.417 289.492ZM204.125 288.401C203.834 289.492 203.47 290.583 203.179 291.674C202.815 292.983 202.452 294.22 202.233 295.529C202.088 296.183 201.942 296.838 201.87 297.565C202.815 297.419 203.616 297.274 204.343 297.129C204.416 295.238 204.634 293.347 204.852 291.456C204.998 290.51 205.07 289.565 205.143 288.619C204.779 288.547 204.416 288.474 204.125 288.401ZM212.417 289.492C212.344 289.929 212.344 290.292 212.272 290.729C212.708 290.729 213.145 290.656 213.581 290.656C213.581 290.292 213.581 289.929 213.581 289.565C213.217 289.565 212.781 289.492 212.417 289.492Z" fill="#212121"/>
<path d="M249.88 276.474L185.504 292.546L185.94 308.183C185.94 308.183 188.486 315.383 188.777 315.237C189.068 315.165 208.563 311.092 208.563 311.092C208.563 311.092 225.148 305.056 225.148 304.765C225.148 304.474 227.112 290.365 227.112 290.365L249.88 276.474Z" fill="#212121"/>
<path d="M37.9835 483.092C37.9108 483.165 37.9108 483.165 37.9835 483.092Z" fill="white"/>
<path d="M74.863 488.911C74.863 488.983 74.863 488.983 74.863 488.911C70.7168 490.802 66.5706 492.547 62.4243 494.365C62.4243 494.365 62.4243 494.365 62.3516 494.292C66.4978 492.547 70.6441 490.729 74.863 488.911Z" fill="white"/>
<path d="M149.717 519.311C138.369 511.82 128.913 503.092 127.895 488.547C128.913 503.02 138.369 511.82 149.717 519.311Z" fill="white"/>
<path d="M235.332 495.529C235.696 498.22 237.587 501.274 243.697 510.438C237.514 501.202 235.623 498.22 235.332 495.529Z" fill="white"/>
<path d="M303.346 394.22C303.274 410.293 303.201 426.365 303.128 442.511C303.128 446.947 303.128 451.456 303.128 455.893C143.752 515.02 56.3174 469.056 8.3082 401.638C8.3082 391.965 8.23545 382.365 8.23545 372.693C8.16271 363.602 8.23545 354.583 8.23545 345.202V345.129C26.348 349.129 39.7324 358.438 49.1887 373.565C53.5532 380.547 56.0264 388.184 57.3358 396.256C57.4085 396.62 57.4085 396.911 57.4812 397.274C57.4812 397.347 57.4812 397.347 57.4812 397.42C57.4812 397.638 57.4812 397.856 57.4812 398.147C57.4812 398.293 57.4812 398.365 57.4812 398.511C57.4085 400.329 56.6811 401.784 54.7171 403.02C52.2439 404.474 50.0616 406.365 47.7339 408.111C47.7339 408.111 47.7339 408.111 47.7339 408.184C48.1704 408.765 48.6068 409.347 49.0433 409.929C64.0279 397.638 80.6857 397.056 97.4889 404.038C113.565 410.729 124.84 422.293 129.64 439.602C129.713 439.82 129.786 440.038 129.859 440.329C130.004 440.765 130.077 441.275 130.222 441.784C130.295 441.638 130.368 441.42 130.368 441.275C130.441 441.056 130.513 440.838 130.513 440.62C130.513 440.475 130.586 440.402 130.586 440.256C130.659 439.965 130.659 439.675 130.732 439.456C130.732 439.165 130.804 438.802 130.804 438.511C130.804 438.293 130.804 438.147 130.804 437.929C130.804 437.638 130.804 437.42 130.804 437.129C130.804 436.838 130.804 436.547 130.732 436.256C130.732 436.038 130.732 435.82 130.659 435.602C130.659 435.384 130.586 435.238 130.586 435.02C129.64 428.911 126.003 420.693 118.657 412.256C118.657 412.256 118.584 412.256 118.584 412.184C122.73 410.875 126.513 409.274 130.368 408.693C150.808 405.638 173.14 415.529 182.669 435.238C184.124 438.22 185.215 441.565 185.724 444.838C185.724 444.911 185.724 445.056 185.724 445.129C185.724 445.347 185.724 445.565 185.724 445.784C185.724 445.929 185.724 446.002 185.651 446.147C185.651 446.293 185.578 446.365 185.578 446.511C185.287 447.747 184.56 448.984 183.833 450.002C181.941 452.838 180.778 455.893 180.196 459.166C180.123 459.384 180.123 459.602 180.05 459.82C179.977 460.402 179.905 460.984 179.832 461.566C179.759 462.438 179.686 463.311 179.686 464.256C185.869 449.42 196.49 439.893 212.202 436.62C228.059 433.347 241.444 438.147 252.355 450.366C250.9 441.42 239.625 433.129 226.023 431.311C227.477 415.602 234.533 402.875 246.972 393.638C260.866 383.384 276.505 381.493 294.254 387.384C294.254 387.384 294.181 387.384 294.181 387.456C285.743 393.638 278.396 399.82 277.014 411.165C282.906 400.038 291.126 393.129 302.692 389.347C302.765 389.784 302.764 390.22 302.837 390.656V390.729C302.91 391.456 302.983 392.111 303.055 392.765C303.055 392.984 303.128 393.202 303.128 393.42C303.346 393.493 303.346 393.856 303.346 394.22Z" fill="white"/>
<path d="M303.2 295.965C303.2 296.183 303.2 297.346 303.2 298.51C303.2 320.546 303.127 342.656 303.273 364.692C303.273 367.31 302.618 368.401 300.072 369.637C295.271 371.965 290.979 375.383 286.397 378.292C285.087 379.092 283.487 380.037 282.032 379.965C259.119 378.51 242.025 388.11 229.877 407.165C226.385 412.619 226.603 412.474 220.202 411.892C206.236 410.51 193.506 413.274 183.468 424.038C183.104 424.474 182.522 424.692 181.649 425.274C174.302 416.038 165.137 409.347 153.789 406.001C142.515 402.728 131.167 402.656 119.819 406.947C116.182 369.419 94.3599 348.546 59.8078 339.456C58.2803 333.783 57.4801 327.819 55.1524 322.437C47.2236 303.819 33.0391 292.619 13.108 288.91C8.16158 287.965 8.08884 288.11 8.08884 283.019C8.0161 252.11 8.0161 221.201 7.94336 190.292C7.94336 189.128 8.08884 187.964 8.81625 186.437C9.54367 187.746 10.2711 188.982 10.9257 190.292C18.6363 205.783 26.0559 221.492 34.2029 236.764C49.9878 266.437 68.0276 294.655 91.3048 319.237C104.471 333.201 119.892 343.746 137.641 351.019C138.805 351.528 140.114 351.819 141.787 352.401C141.132 353.637 140.623 354.656 140.041 355.601C137.495 359.674 136.623 364.11 137.277 368.837C137.714 372.183 139.459 374.801 142.587 376.183C151.389 380.037 160.409 380.401 169.502 377.201C174.739 375.383 176.994 371.165 177.43 366.001C177.721 362.728 178.885 361.856 182.231 362.001C203.035 363.165 222.093 357.274 240.279 347.528C260.501 336.692 277.449 322.001 292.798 305.201C295.853 301.71 299.781 298.946 303.2 295.965Z" fill="url(#paint0_linear_206_6173)"/>
<path d="M112.18 251.165C112.325 250.074 112.543 248.983 112.762 247.965C112.543 249.056 112.325 250.147 112.18 251.165Z" fill="white"/>
<path d="M256.571 271.601C256.353 272.256 255.989 272.62 255.48 272.765C255.48 272.765 255.407 272.765 255.334 272.765C254.898 273.056 254.534 273.347 254.171 273.638C254.171 273.638 254.171 273.638 254.098 273.638C253.007 274.438 252.352 274.874 251.334 275.383C249.661 276.256 250.243 275.965 248.861 276.62C248.715 276.692 248.57 276.765 248.424 276.838L244.714 278.801L244.642 278.874L242.968 279.747C241.368 280.91 238.604 282.292 237.658 282.947C237.513 283.02 237.44 283.092 237.295 283.165C235.694 284.183 233.367 285.274 230.966 286.22C228.348 287.31 225.583 288.256 223.619 288.765C218.6 290.147 216.491 290.365 213.581 290.51C213.145 290.51 212.708 290.583 212.272 290.583C210.453 290.729 208.198 290.874 204.779 291.31C204.707 291.31 204.561 291.31 204.488 291.31C203.979 291.383 203.543 291.456 203.179 291.456C200.269 291.82 202.088 291.31 197.796 291.674C197.287 291.674 196.923 291.747 196.414 291.747C195.469 291.747 194.232 291.674 191.686 291.674C191.104 291.529 190.522 291.383 190.013 291.238C188.122 290.801 186.376 290.365 184.63 289.71C183.684 289.347 183.03 288.038 182.448 287.092C179.975 283.238 177.865 279.092 175.028 275.529C165.281 263.31 149.132 265.419 141.349 279.601C141.276 279.747 141.131 280.038 140.985 280.329C140.985 280.329 140.985 280.401 140.913 280.401C139.821 282.729 137.567 287.965 137.13 290.074C131.093 287.02 128.256 284.838 122.436 282.365C121.2 281.71 118.727 281.201 116.035 279.892C115.962 279.892 115.744 279.82 115.453 279.674C115.162 279.601 114.944 279.456 114.944 279.456C114.944 279.456 114.362 279.092 114.144 278.874C114.362 278.874 114.871 279.529 115.089 279.456V273.492C115.162 273.565 115.235 273.565 115.308 273.638C115.599 250.51 124.255 193.274 203.179 195.092C195.105 192.983 186.667 192.256 177.938 192.91C161.571 194.147 146.732 199.456 134.584 210.656C123.237 221.128 116.035 233.129 113.053 246.51C116.035 233.056 123.237 221.056 134.584 210.583C146.805 199.31 161.571 194.001 177.938 192.765C186.812 192.11 195.323 192.837 203.47 195.019C211.253 197.128 218.673 200.547 225.656 205.419C235.476 212.328 243.405 221.056 248.861 231.892C249.661 233.419 250.388 234.947 251.334 236.765C251.916 237.929 252.352 239.165 252.498 240.474C253.298 245.783 254.825 254.147 254.898 255.674C254.898 255.819 254.971 256.038 254.971 256.256V256.329C255.916 261.492 257.589 268.765 256.571 271.601Z" fill="#FAC04F"/>
<path d="M-2.09374 268.674C-2.09374 268.674 -10.3135 267.365 -10.168 270.929C-6.16725 273.329 31.4399 271.292 33.2585 271.947C36.3863 263.001 19.5831 266.42 18.5648 268.02C20.0196 254.565 -4.34871 253.765 -2.09374 268.674Z" fill="white"/>
<path d="M27.2227 215.819C49.5542 246.438 69.558 278.801 100.4 302.22C75.0136 279.456 55.9554 251.601 37.4792 223.31C67.594 259.674 99.6001 293.856 144.19 312.838C144.554 322.583 147.755 332.183 144.918 342.074C140.19 340.111 135.462 338.147 130.733 336.183C127.969 335.092 125.06 334.292 122.368 332.983C118.949 331.311 115.53 329.565 112.403 327.383C105.929 322.874 99.1637 318.51 93.4899 313.129C86.5067 306.51 80.1055 299.238 74.1407 291.747C60.9018 274.947 49.6269 256.765 39.5887 237.856C35.5879 230.51 31.3689 223.165 27.2227 215.819Z" fill="#E96B73"/>
<path d="M115.671 409.565C113.416 407.82 111.161 406.22 108.833 404.838C101.85 400.547 94.649 397.71 87.1566 396.474C73.6268 390.001 62.8611 382.292 54.2776 374.147C50.2041 366.219 44.3848 359.383 36.9652 353.492C35.0012 351.965 32.8917 350.438 30.7095 349.056H30.6367C31.4369 348.401 32.3098 347.819 33.1827 347.31C36.9652 345.129 40.966 344.183 45.0395 343.819C61.188 342.365 75.6635 346.947 88.466 356.765C98.4315 364.329 106.579 373.42 111.161 385.347C113.707 392.038 115.235 398.947 115.671 406.729C115.671 407.092 115.744 407.529 115.744 407.965C115.671 408.474 115.671 408.983 115.671 409.565Z" fill="white"/>
<path d="M222.675 337.129C219.401 338.438 216.055 339.747 212.709 340.983C212.054 341.202 211.327 341.42 210.818 341.856C207.472 344.984 190.014 350.002 186.522 349.202C183.322 348.474 183.904 339.093 183.904 333.129C184.486 330.656 184.049 328.911 183.831 325.274C183.758 323.965 183.685 316.402 183.831 314.802C184.122 311.674 182.958 307.456 184.704 305.056C187.904 301.347 192.051 299.165 194.16 298.802C200.416 297.783 204.926 296.983 206.744 296.765C212.273 295.892 221.438 294.365 222.675 294.074C227.912 292.838 220.056 304.402 225.366 303.456C227.912 303.02 229.076 302.802 231.986 302.147C234.604 301.42 242.024 297.783 242.242 299.602C242.388 300.838 230.094 303.82 231.476 303.165C241.878 298.22 252.426 293.711 262.682 288.547C276.285 281.711 288.36 272.62 300.29 263.238C301.308 262.438 302.326 261.638 303.345 260.765L304.145 261.347C303.417 262.583 302.981 264.038 302.035 264.983C297.453 269.129 292.724 273.129 288.069 277.129C287.414 277.638 286.832 278.22 286.178 278.729C286.396 279.092 286.687 279.383 286.905 279.747L301.89 268.183C302.326 268.62 302.181 268.474 302.545 268.911C289.015 283.456 272.502 294.802 258.027 308.983C261.082 309.202 279.777 290.365 282.904 295.02C279.631 297.856 260.064 314.22 256.79 316.765L222.675 337.129Z" fill="#E96B73"/>
<path d="M54.5705 337.856C47.3691 339.601 39.7313 340.038 33.5483 343.238C33.4756 343.238 33.4028 343.31 33.3301 343.383C21.4733 337.71 13.6172 330.292 8.4526 322.947C8.37986 313.492 8.30712 304.11 8.23438 294.656C8.23438 294.583 8.23438 294.583 8.23438 294.51C8.23438 294.001 8.4526 293.419 8.52534 292.91C30.7114 292.91 53.1157 314.365 54.4978 334.656C54.6433 335.747 54.6433 336.765 54.5705 337.856Z" fill="white"/>
<path d="M176.047 319.02C176.119 321.856 176.119 324.62 176.119 327.529C176.119 329.71 176.119 331.892 176.047 334.147C168.772 328.692 161.789 327.092 154.588 330.074L149.205 288.401C149.205 288.401 155.17 268.256 174.228 288.91V288.983C174.374 290.365 174.519 291.747 174.664 293.129C174.737 293.856 174.81 294.51 174.81 295.238C174.883 295.965 174.955 296.619 174.955 297.347C175.174 300.11 175.319 302.947 175.537 305.71C175.61 307.529 175.683 309.274 175.756 311.092C175.756 312.038 175.828 312.91 175.828 313.856C175.828 314.729 175.901 315.601 175.901 316.547C176.047 317.42 176.047 318.22 176.047 319.02Z" fill="#74CBED"/>
<path d="M183.977 300.692C181.722 293.71 174.593 281.71 170.083 277.201C162.737 269.783 151.898 270.729 146.661 279.674C144.406 283.601 143.024 288.038 141.569 292.401C141.569 292.474 141.496 292.547 141.496 292.619C141.496 292.547 141.496 292.401 141.569 292.329C143.024 288.038 144.406 283.529 146.661 279.601C151.898 270.656 162.737 269.71 170.083 277.129C174.593 281.638 181.722 293.71 183.977 300.692Z" fill="white"/>
<path d="M246.607 219.601C253.591 218.001 260.356 218.583 266.975 220.547C274.249 222.656 278.032 226.438 278.832 232.183C278.032 226.51 274.249 222.729 266.975 220.619C260.356 218.729 253.591 218.074 246.607 219.601Z" fill="white"/>
<path d="M278.977 235.165C278.977 235.819 278.904 236.474 278.832 237.201C278.686 238.147 278.541 239.092 278.322 240.11C277.886 242.074 277.45 244.11 276.868 246.001C276.722 246.51 276.577 247.019 276.431 247.528C274.831 252.838 272.649 257.856 269.521 262.583C268.211 265.492 267.848 265.783 265.084 266.801C264.647 267.019 264.283 267.092 263.992 267.092C263.338 267.165 263.12 266.874 263.047 266.801C262.756 266.51 262.247 265.419 261.956 263.238C261.956 262.874 261.883 262.729 261.81 262.365C261.81 262.292 261.81 262.219 261.81 262.219V262.147C261.519 260.256 261.592 259.819 261.446 257.565C261.446 257.419 261.446 257.201 261.374 257.056C261.374 256.983 261.374 256.91 261.374 256.765C260.792 253.419 260.792 250.219 259.555 247.528C259.119 246.51 258.828 245.565 258.682 244.692C258.682 244.547 258.61 244.328 258.61 244.183C258.61 244.038 258.537 243.819 258.537 243.674C258.537 243.528 258.537 243.383 258.537 243.238C258.537 243.019 258.537 242.801 258.537 242.656C258.682 239.528 260.428 236.838 262.61 234.147C263.701 232.838 264.647 231.383 265.956 229.565L266.029 229.492C256.573 232.765 253.881 230.947 248.426 222.51C257.518 222.51 270.321 224.328 278.904 233.419C278.904 233.419 278.904 233.419 278.904 233.492C278.977 234.074 278.977 234.656 278.977 235.165Z" fill="#FAC04F"/>
<path d="M143.314 308.183C134.949 303.892 126.656 300.183 118.946 295.528C96.3959 282.001 77.3377 264.401 60.2436 244.546C53.1877 236.401 46.059 228.328 38.9304 220.255C38.203 219.455 37.621 218.583 37.3301 217.346C40.4579 220.473 43.7313 223.528 46.7864 226.728C66.4266 247.31 87.8125 265.928 111.235 282.001C119.891 287.965 129.129 293.055 138.659 297.419C143.678 299.819 144.478 302.583 143.314 308.183Z" fill="#E96B73"/>
<path d="M190.305 442.874C188.268 438.292 186.231 434.074 184.486 429.783C184.195 428.983 184.704 427.456 185.431 426.801C192.851 419.238 202.016 415.747 212.418 415.601C216.637 415.529 220.929 416.183 225.148 416.474C223.984 421.638 222.893 426.001 221.802 430.801C210.09 431.165 199.179 434.51 190.305 442.874Z" fill="white"/>
<path d="M118.874 223.674C118.801 223.674 118.801 223.747 118.801 223.747C118.801 223.82 118.729 223.82 118.656 223.892C117.056 225.929 115.601 227.82 114.291 229.856C112.982 231.892 112.036 233.711 111.454 235.02C109.709 238.947 105.708 236.038 102.58 234.729L102.653 234.801C103.453 235.747 104.253 236.692 105.053 237.565C106.654 239.165 109.49 240.62 109.636 242.365C109.636 242.511 109.636 242.656 109.636 242.801C109.636 243.092 109.636 243.311 109.636 243.601C109.636 243.892 109.563 244.183 109.563 244.474C109.563 244.62 109.49 244.765 109.49 244.911C109.127 246.947 108.254 248.983 107.672 250.947C107.09 252.911 106.217 266.583 106.217 267.892C102.289 265.783 103.235 266.22 101.343 264.111L100.107 262.002C99.5977 261.202 99.0885 260.329 98.7975 259.674C98.7248 259.529 98.652 259.383 98.5793 259.238C95.2332 252.547 92.0326 245.638 91.2324 238.001C92.6145 231.311 98.1428 222.074 118.874 223.674Z" fill="#FAC04F"/>
<path d="M122.802 218.947L122.729 219.019C113.709 218.946 106.144 219.892 99.1612 223.092C94.8695 224.983 92.0326 228.256 91.2324 232.619C91.9598 228.183 94.8695 224.983 99.1612 223.019C106.217 219.819 113.709 218.801 122.802 218.947Z" fill="#FAC04F"/>
<path d="M227.329 296.401C228.202 290.728 232.057 290.292 236.058 288.401C251.115 281.346 266.027 273.928 281.012 266.51C288.432 262.801 295.778 258.874 303.198 255.092C303.416 255.31 303.707 255.528 303.925 255.674C302.543 257.128 301.307 258.874 299.706 260.037C284.431 271.165 268.573 281.274 251.406 289.274C245.296 292.11 239.04 294.801 232.785 297.346C228.638 299.674 225.729 300.983 227.329 296.401Z" fill="#E96B73"/>
<path d="M156.844 369.347C152.916 368.911 148.334 368.402 143.824 367.965C141.787 367.747 140.914 366.802 140.914 364.692C140.841 360.111 142.878 356.911 146.661 354.511C156.262 348.547 168.701 353.856 170.883 364.62C171.393 367.093 170.665 367.965 168.41 368.183C164.773 368.62 161.209 368.983 156.844 369.347Z" fill="#E96B73"/>
<path d="M171.463 345.638C174.81 346.002 175.537 348.547 175.901 351.238C176.483 355.383 175.755 356.692 172.118 358.802C164.044 346.002 157.934 346.22 146.877 349.638C150.805 340.765 160.843 336.838 168.19 341.42C169.645 342.365 170.518 344.256 171.609 345.711C170.518 345.056 169.354 344.402 168.263 343.674C164.48 341.056 159.461 340.62 155.606 343.165C161.498 341.129 166.153 342.002 170.009 346.22C170.081 346.438 170.954 345.856 171.463 345.638Z" fill="#E96B73"/>
<path d="M177.064 343.965C168.917 335.165 160.334 331.383 150.005 340.402C149.787 340.038 149.496 339.747 149.277 339.383C150.077 337.565 150.441 335.092 151.823 334.074C160.989 327.456 174.882 332.401 177.064 341.929C177.137 342.365 177.064 342.874 177.064 343.965Z" fill="#74CBED"/>
<path d="M303.418 373.201C303.418 376.401 303.563 379.674 303.345 382.874C303.127 385.42 301.236 386.001 299.126 385.201C295.925 383.965 292.798 382.438 288.506 380.547C293.38 377.565 297.817 374.874 302.254 372.256C302.618 372.547 303.054 372.838 303.418 373.201Z" fill="white"/>
<path d="M170.592 371.238C165.354 374.947 147.315 374.874 142.805 371.238C151.97 371.238 161.354 371.238 170.592 371.238Z" fill="white"/>
<path d="M171.465 345.638C170.956 345.856 170.083 346.438 169.938 346.292C166.083 342.074 161.427 341.129 155.535 343.238C159.39 340.765 164.41 341.129 168.192 343.747C169.283 344.474 170.447 345.129 171.538 345.783C171.611 345.783 171.465 345.638 171.465 345.638Z" fill="#212121"/>
<path d="M1.32227 -68.8359V552.984H312.655V-68.8359H1.32227ZM307.49 547.02C306.981 548.038 306.181 548.911 305.453 549.856C304.726 548.911 303.344 547.965 303.344 547.02C303.125 542.656 303.344 538.293 303.344 533.929C303.344 530.802 303.344 527.674 303.344 524.111V524.038C283.485 528.402 265.664 524.62 249.224 514.293C243.987 517.202 238.895 520.329 233.512 523.02C220.564 529.42 206.743 531.456 192.341 530.874C180.12 530.438 168.554 527.238 157.207 522.802C156.261 522.438 154.806 522.293 153.933 522.802C135.602 532.402 116.908 532.329 97.7771 525.711C85.702 521.493 75.0818 515.093 65.771 506.438C62.7158 503.602 60.0244 500.402 57.6239 496.984C56.6783 495.674 54.6415 495.093 54.3506 493.347C54.3506 493.202 54.3506 493.129 54.3506 492.984C54.3506 492.911 54.3506 492.838 54.3506 492.765C54.3506 492.693 54.3506 492.547 54.3506 492.474V492.402C52.823 492.329 52.6048 491.674 51.2955 491.093C50.3498 490.074 48.604 489.856 47.7311 489.129C46.931 488.474 46.0581 488.402 45.1125 488.111C43.7304 487.747 42.0573 487.383 40.8935 487.893C33.4011 491.165 25.5451 491.02 17.7618 490.22C14.9249 489.929 12.3789 487.674 9.17831 486.002C8.81461 487.165 8.23268 488.256 8.23268 489.274V489.347C8.23268 508.111 8.30542 526.802 8.30542 545.565C8.30542 545.711 8.30542 545.784 8.30542 545.929C8.30542 546.075 8.30542 546.293 8.37816 546.511C8.37816 546.656 8.37816 546.802 8.37816 546.875C8.37816 546.947 8.37816 546.947 8.37816 547.02C8.37816 547.165 8.30542 547.311 8.23268 547.384C7.65075 548.329 6.92334 549.202 6.19593 550.075C5.54125 549.202 4.66836 548.329 4.30465 547.384C4.23191 547.165 4.15917 546.875 4.15917 546.656C4.15917 546.438 4.15917 546.293 4.15917 546.075C4.15917 545.784 4.15917 545.493 4.23191 545.275C4.23191 545.129 4.23191 545.056 4.23191 544.911C4.23191 499.965 4.23191 455.092 4.15917 410.147C4.15917 405.347 4.15917 400.547 4.15917 395.747V381.929C4.15917 378.147 4.15917 374.292 4.15917 370.51C4.15917 352.256 4.15917 334.001 4.15917 315.747C4.15917 256.838 4.15917 198.001 4.15917 139.165C4.15917 73.3462 4.15917 7.52787 4.23191 -58.2905C4.23191 -58.5814 4.23191 -58.8723 4.23191 -59.0905V-59.1632C4.23191 -59.2359 4.23191 -59.3086 4.23191 -59.3086C4.23191 -59.4541 4.30465 -59.5268 4.30465 -59.6723C4.30465 -59.9632 4.30465 -60.1814 4.30465 -60.4723C4.30465 -60.8359 4.23191 -61.1996 4.23191 -61.5632C4.23191 -61.8541 4.23191 -62.145 4.23191 -62.3632C4.30465 -63.3087 4.7411 -64.0359 6.26867 -64.1087C6.8506 -64.1087 7.94171 -61.7086 8.23268 -59.8905C8.23268 -59.745 8.30542 -59.6723 8.30542 -59.5268C8.30542 -59.3814 8.30542 -59.3086 8.30542 -59.1632V-59.0905C8.37816 -39.0904 8.30542 -19.0904 8.23268 0.909675C8.15994 49.4189 8.0872 97.8553 8.0872 146.292C8.0872 146.437 8.0872 146.583 8.0872 146.728C8.0872 146.874 8.0872 147.019 8.15994 147.165C8.23268 147.31 8.15994 147.455 8.23268 147.601C8.30542 147.819 8.30542 148.11 8.37816 148.328C8.74187 150.074 9.46928 151.819 9.61476 153.565C9.61476 153.855 9.6875 154.219 9.6875 154.51C9.6875 154.801 9.76024 155.165 9.76024 155.455C9.83298 156.401 9.83298 157.419 9.76024 158.365C9.6875 159.455 9.54202 160.546 9.17831 161.565C8.81461 162.583 8.59638 163.528 8.52364 164.401C8.52364 164.546 8.52364 164.692 8.52364 164.765C8.52364 164.983 8.52364 165.274 8.52364 165.492C8.52364 165.71 8.52364 165.928 8.59638 166.146C8.59638 166.219 8.59638 166.365 8.66913 166.437C8.74187 166.946 8.88735 167.528 9.10557 168.11C17.3253 191.528 32.601 209.71 50.6408 226.219C58.0604 233.056 65.8437 239.31 74.0634 244.983C79.1553 248.547 84.3927 251.819 89.7755 254.947C90.3575 255.31 91.0121 255.601 92.5397 256.328C92.5397 256.328 92.5397 256.328 92.6124 256.328C91.7396 254.074 91.1576 252.619 90.5757 251.092C89.7755 249.056 89.0481 247.019 88.4662 244.91C87.8843 242.801 87.4478 240.692 87.3023 238.51C87.3023 238.219 87.2296 237.928 87.2296 237.565C87.2296 236.837 87.2296 236.037 87.2296 235.31C87.2296 234.947 87.3023 234.583 87.3023 234.219C87.4478 233.128 87.5933 232.037 87.957 230.874C90.5029 221.637 97.9953 218.219 106.361 216.547C111.525 215.528 116.981 215.601 122.218 214.947C124.037 214.728 126.219 213.928 127.455 212.692C130.802 209.419 134.22 206.437 137.785 203.819C158.807 188.183 182.884 185.056 209.435 193.056C212.344 193.928 215.181 195.019 217.946 196.256C226.383 200.11 233.949 205.71 240.35 212.692C241.077 213.492 241.805 214.001 242.532 214.437C244.06 215.237 245.66 215.31 247.624 215.31C254.68 215.528 262.027 215.31 268.792 217.128C278.102 219.601 282.758 224.765 283.267 232.837C283.34 233.928 283.34 235.092 283.267 236.328C283.194 236.91 283.194 237.419 283.122 238.001C283.122 238.219 283.049 238.51 283.049 238.728C282.976 239.019 282.976 239.383 282.903 239.674C281.74 246.51 279.557 253.201 277.666 260.401C282.976 258.219 288.068 255.383 293.596 253.928C298.979 252.474 301.816 250.001 303.053 246.074C303.198 245.492 303.344 244.91 303.489 244.256C303.562 243.892 303.635 243.528 303.635 243.165C303.635 243.019 303.707 242.801 303.707 242.583C303.78 242.219 303.78 241.783 303.78 241.347C303.853 240.474 303.853 239.528 303.853 238.583C303.271 193.346 303.416 148.183 303.416 102.946C303.416 48.5461 303.489 -5.85398 303.489 -60.3268C303.489 -60.4723 303.489 -60.6905 303.489 -60.8359C303.489 -61.1268 303.489 -61.4177 303.489 -61.7086C303.489 -61.7814 303.489 -61.8541 303.489 -61.9268C303.489 -62.2177 303.562 -62.5087 303.707 -62.7996C304.071 -63.5268 304.944 -64.0359 305.599 -64.6905C306.181 -63.9632 306.981 -63.3814 307.199 -62.5814C307.272 -62.2177 307.344 -61.8541 307.344 -61.4177C307.344 -61.2723 307.344 -61.1268 307.344 -60.9814C307.344 -60.3268 307.344 -59.5996 307.344 -58.945C307.344 -15.0904 307.272 28.7643 307.344 72.6189C307.344 126.074 307.49 179.528 307.49 232.983C307.49 302.438 307.417 371.82 307.49 441.274C307.49 445.638 307.49 449.929 307.49 454.292C307.49 484.474 307.635 514.656 307.708 544.838C307.708 544.984 307.708 545.056 307.708 545.202C307.708 545.493 307.781 545.711 307.781 546.002C307.781 546.147 307.781 546.293 307.781 546.511C307.635 546.656 307.563 546.802 307.49 547.02ZM90.3575 251.019C89.5573 248.983 88.8299 246.947 88.248 244.837C88.9026 246.947 89.6301 249.056 90.3575 251.019C90.9394 252.547 91.5213 254.001 92.3942 256.183C92.3942 256.183 92.3942 256.183 92.467 256.183C91.5213 254.001 90.9394 252.547 90.3575 251.019Z" fill="url(#paint1_linear_206_6173)"/>
<path d="M33.4029 343.383C28.1655 346.074 24.1647 345.856 19.2911 343.601C16.8906 342.51 14.2719 341.71 11.6533 341.347C9.47103 340.983 8.74361 340.038 8.59813 338.147C8.59813 338.001 8.59813 337.856 8.59813 337.783C8.59813 334.22 8.52539 330.583 8.52539 327.02C8.52539 325.71 8.52539 324.329 8.52539 323.02C13.69 330.22 21.4733 337.638 33.4029 343.383Z" fill="#EAF9FF"/>
<path d="M87.1583 396.402C78.9386 395.02 70.3551 395.529 61.3352 398.002C60.3168 389.202 57.9891 381.202 54.2793 374.074C62.8628 382.22 73.6285 390.002 87.1583 396.402Z" fill="#EAF9FF"/>
<path d="M205.726 248.183C210.828 248.183 214.965 242.647 214.965 235.819C214.965 228.991 210.828 223.456 205.726 223.456C200.624 223.456 196.488 228.991 196.488 235.819C196.488 242.647 200.624 248.183 205.726 248.183Z" fill="#212121"/>
<path d="M153.062 248.183C158.164 248.183 162.3 242.647 162.3 235.819C162.3 228.991 158.164 223.456 153.062 223.456C147.96 223.456 143.824 228.991 143.824 235.819C143.824 242.647 147.96 248.183 153.062 248.183Z" fill="#212121"/>
<path d="M191.833 261.638H167.755C166.155 261.638 164.846 260.328 164.846 258.728C164.846 257.128 166.155 255.819 167.755 255.819H191.833C193.433 255.819 194.742 257.128 194.742 258.728C194.742 260.328 193.433 261.638 191.833 261.638Z" fill="#212121"/>
<path d="M283.049 295.092C283.049 295.092 297.161 296.983 288.577 305.056C279.921 313.056 241.441 349.856 212.272 354.729C183.103 359.602 184.121 359.674 184.194 345.129C184.267 330.583 252.789 312.183 252.789 312.183L257.59 314.147L280.067 295.965L283.049 295.092Z" fill="#E96B73"/>
<path d="M224.856 309.347C225.074 308.328 225.438 306.437 225.947 304.183C226.02 303.965 226.02 303.819 226.093 303.528C227.402 299.383 227.693 297.928 228.857 293.637C228.93 293.346 229.293 292.474 229.657 292.037C229.802 291.819 229.948 291.601 230.021 291.31C231.185 285.71 227.911 280.619 227.911 280.619C226.82 279.092 225.729 277.71 224.783 276.256C224.783 276.183 224.711 276.183 224.711 276.11C215.691 262.583 199.469 261.928 190.813 274.946C188.267 278.728 186.594 283.092 184.412 287.165C183.903 288.183 183.321 289.492 182.448 290.001C182.23 291.092 181.866 292.183 181.793 293.128C181.648 295.819 184.121 297.565 185.794 297.71C187.758 297.856 187.394 302.874 187.394 302.874C187.394 302.874 189.94 343.892 190.231 347.237C190.522 350.437 193.723 360.547 194.959 362.219C195.032 362.292 195.105 362.292 195.105 362.365C195.178 362.438 195.178 362.438 195.178 362.51C195.541 363.019 195.832 363.674 195.978 364.619C195.978 364.765 196.051 364.91 196.051 365.056C196.341 366.656 196.778 368.183 197.433 369.492C198.815 372.401 201.215 374.51 204.852 375.456C214.163 377.856 223.11 376.765 231.548 372.183C234.531 370.583 236.058 367.819 236.204 364.474C236.422 359.674 235.185 355.383 232.276 351.528C231.621 350.583 231.039 349.637 230.239 348.474C228.202 345.419 226.238 338.51 226.238 338.51C222.674 329.201 224.783 319.674 224.565 310.292L224.856 309.347ZM203.325 369.856L230.966 367.456C226.82 371.456 208.853 373.128 203.325 369.856ZM202.452 363.383C203.688 352.401 215.691 346.074 225.729 351.237C229.73 353.274 231.985 356.328 232.348 360.91C232.494 363.019 231.766 364.038 229.73 364.401C225.22 365.274 220.71 366.147 216.855 366.874C212.49 366.801 208.853 366.801 205.289 366.801C203.034 366.728 202.161 365.856 202.452 363.383ZM196.341 350.365C196.341 350.147 196.341 349.928 196.414 349.71C196.414 349.492 196.487 349.274 196.487 349.056C196.487 348.91 196.56 348.765 196.56 348.619C196.56 348.547 196.56 348.474 196.632 348.328C196.632 348.183 196.705 348.038 196.705 347.892C196.778 347.747 196.778 347.601 196.851 347.456C196.923 347.31 196.923 347.165 196.996 347.092C197.069 346.947 197.142 346.728 197.214 346.583C197.287 346.51 197.287 346.438 197.36 346.365C197.433 346.292 197.433 346.219 197.505 346.147C197.578 346.074 197.651 346.001 197.651 345.928L197.724 345.856C197.796 345.783 197.869 345.71 197.942 345.638C198.015 345.565 198.087 345.492 198.087 345.492L198.16 345.419C198.378 345.274 198.596 345.056 198.887 344.983C198.96 344.91 199.033 344.91 199.178 344.837C199.324 344.765 199.469 344.692 199.688 344.692H199.76C199.906 344.619 200.051 344.619 200.197 344.547H200.27C200.415 344.328 200.488 344.183 200.633 343.965C200.779 343.674 200.924 343.383 201.07 343.165C201.142 343.019 201.215 342.874 201.288 342.728C201.506 342.365 201.724 342.001 201.943 341.638C202.015 341.492 202.088 341.419 202.161 341.274C202.234 341.128 202.379 340.983 202.524 340.837C202.524 340.837 202.524 340.765 202.597 340.765C202.67 340.692 202.67 340.619 202.743 340.619C202.815 340.547 202.888 340.474 202.961 340.401C203.034 340.328 203.034 340.328 203.106 340.256C203.179 340.183 203.179 340.183 203.252 340.11C210.162 334.874 220.492 338.001 225.147 346.437C213.799 343.965 207.689 344.183 200.779 357.71C196.923 355.819 196.123 354.51 196.341 350.365ZM194.596 343.165C194.523 342.074 194.377 341.637 194.45 341.128C195.76 331.456 209.217 325.347 218.891 331.165C220.346 332.037 220.928 334.51 221.874 336.256C221.655 336.619 221.437 336.983 221.219 337.347C210.162 329.274 201.943 333.71 194.596 343.165ZM183.975 300.692C185.576 293.565 191.686 280.91 195.76 276.037C202.452 268.037 213.363 268.037 219.328 276.474C221.946 280.183 223.692 284.546 225.511 288.692C225.947 289.637 225.147 291.165 224.929 292.401C224.565 292.328 224.201 292.328 223.91 292.256C223.11 290.583 222.383 288.837 221.583 287.165C221.219 287.237 220.855 287.31 220.564 287.383C220.419 301.346 220.273 315.237 220.128 329.347C210.817 324.328 202.743 326.074 194.596 333.274C193.068 317.856 192.268 303.092 192.559 288.11C191.031 290.437 189.94 292.765 188.995 295.165C188.049 297.637 187.758 300.546 183.975 300.692Z" fill="#212121"/>
<path d="M194.671 333.347C202.745 326.147 210.892 324.401 220.203 329.42C220.349 315.311 220.494 301.42 220.64 287.456C221.003 287.383 221.367 287.31 221.658 287.238C222.458 288.91 223.186 290.656 223.986 292.329C224.349 292.401 224.713 292.401 225.004 292.474C225.222 291.238 226.022 289.71 225.586 288.765C223.767 284.547 222.022 280.183 219.403 276.547C213.438 268.11 202.527 268.038 195.835 276.11C191.761 280.983 185.651 293.638 184.051 300.765C187.761 300.62 188.124 297.711 189.07 295.311C190.016 292.91 191.107 290.51 192.634 288.256C192.343 303.092 193.143 317.929 194.671 333.347Z" fill="white"/>
<path d="M226.311 302.438C226.602 302.293 226.02 304.62 225.947 304.183C226.675 301.274 227.693 297.856 229.147 295.02C229.438 294.365 229.729 293.711 229.875 293.056L226.311 302.438Z" fill="white"/>
<path d="M216.855 366.801C220.71 366.074 225.22 365.129 229.73 364.329C231.767 363.965 232.567 362.947 232.349 360.838C231.985 356.329 229.73 353.201 225.729 351.238C215.691 346.147 203.688 352.474 202.452 363.383C202.161 365.929 202.961 366.729 205.216 366.729C208.926 366.729 212.49 366.801 216.855 366.801Z" fill="#E96B73"/>
<path d="M200.27 344.401C196.996 345.056 196.487 347.674 196.341 350.365C196.123 354.511 196.923 355.747 200.779 357.565C207.689 344.111 213.799 343.82 225.147 346.292C220.492 337.783 210.162 334.729 203.252 339.965C201.87 340.983 201.215 342.947 200.197 344.547C201.288 343.747 202.379 343.092 203.325 342.22C206.889 339.238 211.835 338.438 215.909 340.62C209.871 339.092 205.289 340.401 201.797 344.911C201.724 345.056 200.779 344.62 200.27 344.401Z" fill="#E96B73"/>
<path d="M194.598 343.165C201.945 333.71 210.164 329.201 221.221 337.274C221.439 336.91 221.658 336.547 221.876 336.183C220.93 334.438 220.348 332.038 218.893 331.092C209.219 325.274 195.762 331.383 194.452 341.056C194.38 341.638 194.452 342.147 194.598 343.165Z" fill="#74CBED"/>
<path d="M203.326 369.856C208.855 373.129 226.822 371.456 230.968 367.456C221.875 368.256 212.564 369.056 203.326 369.856Z" fill="white"/>
<path d="M200.268 344.401C200.777 344.62 201.723 345.056 201.796 344.911C205.287 340.401 209.87 339.092 215.907 340.62C211.907 338.438 206.887 339.238 203.323 342.22C202.305 343.02 201.214 343.747 200.195 344.547L200.268 344.401Z" fill="#212121"/>
<path d="M227.766 299.456L226.821 299.311L225.803 302.801V303.383L226.675 303.238L227.766 299.456Z" fill="black"/>
<path d="M302.981 513.929C302.981 515.238 303.054 516.183 302.981 516.983C302.981 517.056 302.981 517.129 302.981 517.274C302.763 519.456 301.672 519.311 296.362 520.183C284.65 522.147 273.448 519.82 262.392 515.456C250.971 510.874 242.461 502.947 235.259 493.129C235.259 493.42 235.186 493.638 235.186 493.929C235.186 494.22 235.186 494.511 235.186 494.802C235.186 495.092 235.186 495.383 235.259 495.674C235.623 498.365 237.441 501.347 243.624 510.583C240.351 515.165 227.403 521.42 225.876 520.183C223.548 521.274 221.729 522.583 219.765 522.947C213 524.183 206.235 525.711 199.398 525.929C186.232 526.365 173.284 524.402 161.063 519.02C146.588 512.693 134.585 503.602 127.893 488.62V488.692C128.912 503.238 138.368 511.965 149.643 519.529C120.91 534.583 78.3564 518.438 62.4261 494.583C66.4996 492.838 70.7186 491.02 74.8648 489.202C74.8648 489.202 74.8648 489.202 74.8648 489.129C74.7193 488.692 74.5739 488.329 74.4284 487.892C73.701 488.038 72.9736 488.111 72.2461 488.256C60.5348 491.02 50.8602 486.656 42.1313 479.456C31.5838 470.802 26.3465 459.965 24.7461 447.529C24.6734 447.02 24.6007 446.583 24.6007 446.074C24.5279 445.565 24.5279 445.129 24.4552 444.62C24.3824 444.111 24.3824 443.674 24.3824 443.165C24.3824 442.656 24.3097 442.147 24.3097 441.711C24.237 440.329 24.237 438.947 24.237 437.565V437.492C23.0004 439.601 22.2002 442.583 21.982 446.074C21.982 446.292 21.982 446.511 21.9092 446.801C21.8365 447.965 21.8365 449.129 21.9092 450.365C22.4184 460.547 27.0739 473.565 37.8396 483.383C30.6382 486.656 23.2913 485.711 16.3082 483.602C10.1252 481.711 8.74309 481.347 8.52486 479.092C8.52486 479.02 8.52486 478.947 8.52486 478.802C8.52486 478.729 8.52486 478.656 8.52486 478.583C8.52486 478.365 8.52486 478.147 8.52486 477.929C8.52486 477.783 8.52486 477.638 8.52486 477.492C8.52486 477.202 8.52486 476.838 8.59761 476.474C8.59761 476.329 8.59761 476.183 8.59761 476.111C8.67035 475.092 8.67035 473.929 8.67035 472.474C8.59761 468.401 8.59761 464.401 8.59761 460.329C8.59761 459.529 8.59761 458.729 8.59761 457.856C8.59761 452.983 8.52486 448.111 8.52486 443.238C8.52486 438.365 8.45212 433.492 8.45212 428.62C8.45212 423.747 8.37938 418.874 8.37938 414.001C8.37938 409.929 8.37938 405.856 8.30664 401.71C56.3158 469.129 143.751 515.093 303.127 455.965C303.127 474.874 303.127 493.783 302.981 512.692C302.981 513.056 302.981 513.493 302.981 513.929Z" fill="#EAF9FF"/>
<path d="M34.6208 123.611C33.8934 121.356 15.9991 119.902 18.9815 133.502C19.4179 134.811 91.1407 133.502 91.1407 133.502C95.7961 129.938 89.7586 122.665 84.3758 126.593C85.3942 117.138 73.1736 113.865 67.5726 119.247C72.519 93.5016 26.983 98.2289 34.6208 123.611Z" fill="white"/>
<path d="M125.656 118.831C125.656 118.831 117.437 117.522 117.582 121.086C121.583 123.486 159.19 121.45 161.008 122.104C164.136 113.159 147.333 116.577 146.315 118.177C147.77 104.722 123.401 103.922 125.656 118.831Z" fill="white"/>
<path d="M217.119 156.263C216.391 154.008 198.497 152.553 201.479 166.154C201.916 167.463 273.639 166.154 273.639 166.154C278.294 162.59 272.257 155.317 266.874 159.244C267.892 149.79 255.672 146.517 250.071 151.899C255.017 126.153 209.481 130.881 217.119 156.263Z" fill="white"/>
<path d="M158.529 61.1884C157.802 58.9338 139.907 57.4793 142.89 71.0793C143.326 72.3884 215.049 71.0793 215.049 71.0793C219.704 67.5157 213.667 60.2429 208.284 64.1702C209.302 54.7156 197.082 51.4429 191.481 56.8247C196.427 31.0792 150.891 35.8065 158.529 61.1884Z" fill="white"/>
<path d="M349.118 97.8361C350.137 88.3816 337.916 85.1089 332.315 90.4907C336.825 66.9997 299.582 68.8179 298.563 88.527C297.327 88.9634 296.163 89.618 295.217 90.4907C300.236 64.6724 254.7 69.3997 262.265 94.8543C261.538 92.5998 243.644 91.1452 246.626 104.745C246.917 105.473 268.885 105.4 288.525 105.182C304.673 105.691 355.883 104.745 355.883 104.745C360.539 101.109 354.501 93.9089 349.118 97.8361Z" fill="white"/>
<path d="M97.4582 49.8191C98.4765 40.3645 86.256 37.0918 80.6549 42.4736C85.1649 18.9826 47.9214 20.8008 46.903 40.51C45.6664 40.9463 44.5026 41.6009 43.5569 42.4736C48.5761 16.6554 3.0401 21.3826 10.6052 46.8372C9.87777 44.5827 -8.01656 43.1281 -5.03417 56.7282C-4.74321 57.4554 17.2246 57.3827 36.8648 57.1645C53.0133 57.6736 104.223 56.7282 104.223 56.7282C108.879 53.0918 102.841 45.8918 97.4582 49.8191Z" fill="white"/>
<path d="M192.108 91.3218C192.108 91.3218 185.634 89.5763 185.78 94.4491C188.908 97.7218 218.513 94.9582 219.895 95.8309C222.369 83.4672 209.13 88.2673 208.33 90.3764C209.493 71.8309 190.362 70.7399 192.108 91.3218Z" fill="white"/>
<path d="M90.2918 179.673C90.2918 179.673 83.8179 177.928 83.9634 182.801C87.0912 186.073 116.697 183.31 118.079 184.182C120.552 171.819 107.313 176.619 106.513 178.728C107.677 160.182 88.5461 159.092 90.2918 179.673Z" fill="white"/>
<path d="M203.179 195.238C124.182 193.419 115.526 250.729 115.308 273.783C115.235 273.71 115.162 273.71 115.09 273.638V279.601C114.871 279.674 114.362 279.092 114.144 279.02L114.071 278.947C113.489 277.492 112.98 276.838 112.689 275.31C112.253 272.91 111.962 270.583 111.743 268.256C111.671 267.674 111.671 267.092 111.598 266.51C111.525 265.929 111.525 265.419 111.525 264.838C111.453 262.438 111.453 260.11 111.525 257.783C111.525 257.419 111.598 257.056 111.598 256.692C111.598 256.329 111.671 255.892 111.671 255.529C111.671 255.092 111.743 254.729 111.816 254.292C111.889 253.783 111.889 253.274 111.962 252.765C111.962 252.547 112.034 252.329 112.034 252.183C112.107 251.819 112.107 251.456 112.18 251.092C112.325 250.001 112.544 248.91 112.762 247.892C112.835 247.456 112.907 247.019 113.053 246.583C116.035 233.201 123.237 221.201 134.584 210.728C146.805 199.456 161.571 194.219 177.938 192.983C186.74 192.401 195.178 193.056 203.179 195.238Z" fill="#FFFEFE"/>
<path d="M278.905 233.492C270.321 224.401 257.519 222.51 248.426 222.583C247.844 221.71 247.262 220.765 246.607 219.674C253.591 218.147 260.356 218.728 266.975 220.692C274.176 222.801 278.032 226.583 278.832 232.256C278.832 232.474 278.905 232.619 278.905 232.837C278.905 232.983 278.905 233.201 278.905 233.492Z" fill="white"/>
<path d="M122.729 219.019C121.492 220.474 120.328 221.856 119.237 223.238C119.092 223.383 118.946 223.529 118.874 223.674C98.1423 222.074 92.614 231.31 91.2319 238.074C91.1591 237.71 91.1591 237.274 91.0864 236.91C91.0864 236.62 91.0864 236.401 91.0137 236.11C91.0137 235.82 91.0137 235.601 91.0137 235.31C91.0137 235.02 91.0137 234.801 91.0137 234.51C91.0137 234.147 91.0864 233.856 91.0864 233.492C91.0864 233.201 91.1591 232.91 91.2319 232.62C92.032 228.256 94.869 224.983 99.1607 223.092C106.217 219.892 113.709 218.947 122.729 219.019Z" fill="white"/>
<path d="M183.905 300.693C180.195 300.838 179.613 298.002 178.449 295.675C177.285 293.347 175.976 291.093 174.23 288.911C155.172 268.184 149.207 288.402 149.207 288.402L154.59 330.075C153.208 330.656 151.753 331.384 150.298 332.329C148.916 318.293 147.607 304.402 146.297 290.584C145.934 290.511 145.57 290.511 145.206 290.438C144.624 292.184 143.97 293.929 143.388 295.747C143.024 295.82 142.66 295.893 142.369 295.965C142.151 295.093 141.569 294.075 141.424 293.202C141.424 292.984 141.424 292.838 141.424 292.62C141.424 292.547 141.424 292.475 141.497 292.402C142.951 288.038 144.333 283.602 146.588 279.675C151.826 270.729 162.664 269.784 170.011 277.202C174.521 281.711 181.65 293.711 183.905 300.693Z" fill="white"/>
<path d="M192.413 318.874C192.631 321.565 192.922 324.183 193.213 326.874C193.431 328.911 194.159 331.965 194.45 334.074C201.142 328.111 208.052 324.983 217.145 327.965L217.436 286.438C217.436 286.438 208.052 268.547 191.176 290.147L190.812 291.674C190.812 292.983 191.176 292.838 191.249 294.22C191.249 294.874 191.249 295.529 191.249 296.256C191.249 296.911 191.249 297.565 191.322 298.22C191.394 300.911 191.467 303.529 191.613 306.22C191.685 307.965 191.831 309.638 191.904 311.383C191.976 312.256 192.049 313.129 192.122 314.001C192.195 314.874 192.267 315.674 192.34 316.547C192.267 317.274 192.34 318.074 192.413 318.874Z" fill="#74CBED"/>
</g>
<path d="M202.487 236.463C203.908 236.479 205.079 234.829 205.103 232.776C205.127 230.724 203.994 229.046 202.573 229.03C201.152 229.013 199.981 230.664 199.957 232.717C199.933 234.769 201.066 236.447 202.487 236.463Z" fill="white"/>
<path d="M150.573 236.463C151.994 236.479 153.165 234.829 153.189 232.776C153.213 230.724 152.08 229.046 150.659 229.03C149.238 229.013 148.067 230.664 148.043 232.717C148.019 234.769 149.152 236.447 150.573 236.463Z" fill="white"/>
<defs>
<linearGradient id="paint0_linear_206_6173" x1="155.608" y1="186.437" x2="155.608" y2="425.274" gradientUnits="userSpaceOnUse">
<stop stop-color="#74CBED"/>
<stop offset="0.776667" stop-color="#B9E2F3"/>
<stop offset="1" stop-color="#748081"/>
</linearGradient>
<linearGradient id="paint1_linear_206_6173" x1="156.988" y1="-68.8359" x2="156.988" y2="552.984" gradientUnits="userSpaceOnUse">
<stop stop-color="#74CBED"/>
<stop offset="0.776667" stop-color="#B9E2F3"/>
<stop offset="1" stop-color="#748081"/>
</linearGradient>
</defs>
</svg>
