<svg width="282" height="175" viewBox="0 0 282 175" fill="none" xmlns="http://www.w3.org/2000/svg">
<path fill-rule="evenodd" clip-rule="evenodd" d="M40.2513 20.439V60.5169V60.5175V114.034H13.2109V60.5175V60.5169V20.439C13.2109 12.9641 19.2288 7 26.7713 7C30.5425 7 33.9125 8.51089 36.3197 10.8965C38.7268 13.3617 40.2513 16.7015 40.2513 20.439ZM40.2513 154.114V114.035H13.2109V154.114C13.2109 161.509 19.2288 167.553 26.691 167.553C34.2334 167.553 40.2513 161.509 40.2513 154.114Z" fill="#E96B73"/>
<path fill-rule="evenodd" clip-rule="evenodd" d="M40.2513 114.035H13.2109V154.114C13.2109 161.509 19.2288 167.553 26.691 167.553C34.2334 167.553 40.2513 161.509 40.2513 154.114V114.035ZM6.21094 20.439C6.21094 9.03889 15.4223 0 26.7712 0C32.4479 0 37.5721 2.2825 41.2471 5.92458L41.2878 5.96497L41.3279 6.00603C44.9125 9.67698 47.2513 14.7363 47.2513 20.439V154.114C47.2513 165.407 38.0671 174.553 26.691 174.553C15.368 174.553 6.21094 165.38 6.21094 154.114V20.439ZM13.2109 114.035V20.439C13.2109 12.9641 19.2288 7 26.7712 7C30.5425 7 33.9125 8.51089 36.3196 10.8965C38.7268 13.3617 40.2513 16.7015 40.2513 20.439V114.035H13.2109Z" fill="#212121"/>
<path d="M26.6603 167C19.2324 167 13.2109 160.978 13.2109 153.551L13.2109 20.0172C13.2109 12.5893 19.2324 6.56779 26.6603 6.56779V6.56779C34.0882 6.56779 40.1098 12.5893 40.1098 20.0172L40.1098 153.551C40.1098 160.978 34.0883 167 26.6603 167V167Z" fill="#212121"/>
<path d="M40.2513 60.5166H13.2109V114.034H40.2513V60.5166Z" fill="#FAC04F"/>
<path d="M40.2513 20.439V60.5175H13.2109V20.439C13.2109 12.9641 19.2288 7 26.7712 7C30.5425 7 33.9125 8.51089 36.3196 10.8965C38.7268 13.3617 40.2513 16.7015 40.2513 20.439Z" fill="#A8EB6C"/>
<path d="M40.2513 114.035V154.114C40.2513 161.509 34.2334 167.553 26.691 167.553C19.2288 167.553 13.2109 161.509 13.2109 154.114V114.035H40.2513Z" fill="#E96B73"/>
<path d="M0 39C0 36.2386 2.23858 34 5 34H23C25.7614 34 28 36.2386 28 39V39C28 41.7614 25.7614 44 23 44H5C2.23858 44 0 41.7614 0 39V39Z" fill="#212121"/>
<path fill-rule="evenodd" clip-rule="evenodd" d="M0 46.4845C1.4301 47.4417 3.14985 48 5 48H23C27.9706 48 32 43.9706 32 39C32 34.0294 27.9706 30 23 30H5C3.14985 30 1.4301 30.5583 0 31.5155V39V46.4845ZM0 39C0 41.7614 2.23858 44 5 44H23C25.7614 44 28 41.7614 28 39C28 36.2386 25.7614 34 23 34H5C2.23858 34 0 36.2386 0 39Z" fill="white"/>
<path opacity="0.2" d="M40.3945 125.5C35.6732 169.9 13.8945 155 12.8945 146L11.8945 160.5L18.288 167L29.5994 170L41.8945 160.5L40.3945 125.5Z" fill="#212121"/>
<path d="M273.251 89.0727C273.251 98.3719 271.608 107.31 268.601 115.607C262.308 132.923 250.003 147.313 234.21 156.372C227.917 159.979 221.023 162.745 213.768 164.468C211.483 165.03 209.119 165.47 206.754 165.791C204.108 166.152 201.423 166.392 198.697 166.513C197.735 166.553 196.733 166.553 195.731 166.553C181.221 166.553 167.633 162.544 156.009 155.61C151.159 152.724 146.67 149.277 142.581 145.429C127.63 131.32 118.251 111.279 118.251 89.0727C118.251 88.1508 118.251 87.269 118.291 86.3471C119.734 44.8214 153.844 11.5928 195.691 11.5928C238.579 11.6329 273.251 46.3044 273.251 89.0727Z" fill="#74CBED"/>
<path fill-rule="evenodd" clip-rule="evenodd" d="M276.123 118.333L276.12 118.34C269.169 137.467 255.591 153.331 238.191 163.311L238.189 163.312C231.251 167.289 223.651 170.34 215.646 172.245C213.076 172.875 210.443 173.364 207.829 173.719C204.938 174.113 202.012 174.374 199.05 174.505L199.04 174.505L199.03 174.506C197.9 174.553 196.756 174.553 195.801 174.553H195.731C179.73 174.553 164.734 170.129 151.914 162.483C146.526 159.276 141.576 155.469 137.098 151.255L137.091 151.247C120.609 135.694 110.251 113.577 110.251 89.0727L110.251 89.0105C110.251 88.1368 110.251 87.1193 110.297 86.0355C111.906 40.2373 149.526 3.59277 195.691 3.59277H195.698C242.99 3.63697 281.251 41.8766 281.251 89.0727C281.251 99.3203 279.439 109.18 276.123 118.333ZM118.291 86.3471C118.251 87.269 118.251 88.1508 118.251 89.0727C118.251 111.279 127.63 131.32 142.581 145.429C146.67 149.277 151.159 152.724 156.009 155.61C167.633 162.544 181.221 166.553 195.731 166.553C196.733 166.553 197.735 166.553 198.697 166.513C201.423 166.392 204.108 166.152 206.754 165.791C209.119 165.47 211.483 165.03 213.768 164.468C221.023 162.745 227.917 159.979 234.21 156.372C250.003 147.313 262.308 132.923 268.601 115.607C271.608 107.31 273.251 98.3719 273.251 89.0727C273.251 46.3044 238.579 11.6329 195.691 11.5928C153.844 11.5928 119.734 44.8214 118.291 86.3471Z" fill="#212121"/>
<path opacity="0.5" d="M213.807 164.468C221.062 162.745 227.916 159.979 234.249 156.372C250.042 147.353 262.307 132.923 268.64 115.608C252.367 109.796 248.92 125.989 248.92 125.989C242.466 125.267 237.777 126.751 234.33 128.995C233.568 129.476 232.886 130.037 232.245 130.598C230.722 131.921 229.56 133.404 228.678 134.807C226.634 137.974 225.992 140.739 225.992 140.739L222.465 134.807L218.858 128.755L216.934 125.548L215.932 123.865C215.21 119.455 212.885 117.732 210.6 117.171C207.795 116.489 204.949 117.572 204.949 117.572C204.949 117.572 205.43 103.222 191.681 97.5703C189.236 96.5682 186.35 95.8467 182.943 95.5261C174.005 94.6843 166.91 96.8087 161.94 99.2538C156.569 101.899 153.683 104.946 153.683 104.946C151.438 103.102 149.194 102.14 147.069 101.779C141.257 100.737 136.608 104.024 136.608 104.024C133.121 91.8385 125.665 87.4694 118.41 86.3872C118.37 87.3091 118.37 88.1909 118.37 89.1128C118.37 111.319 127.709 131.36 142.66 145.469C146.749 149.317 151.238 152.764 156.128 155.65C167.752 162.584 181.3 166.593 195.85 166.593C196.852 166.593 197.814 166.553 198.816 166.553C201.542 166.473 204.227 166.192 206.873 165.831L213.807 164.468Z" fill="white"/>
<path d="M195.812 137.934H143.384L148.835 83.9424H190.241L195.812 137.934Z" fill="#FFE9E9"/>
<path d="M198.736 166.513C197.774 166.553 196.772 166.553 195.77 166.553C181.26 166.553 167.672 162.544 156.048 155.61C156.569 150.64 157.21 144.507 157.852 137.894H195.73L198.736 166.513Z" fill="#E96B73"/>
<path d="M157.893 137.934C157.211 144.507 156.57 150.68 156.089 155.65C151.239 152.764 146.75 149.317 142.661 145.469L143.423 137.934H157.893Z" fill="#DC4F58"/>
<path d="M163.225 86.628C163.185 86.9887 160.259 115.007 157.934 137.894H143.424L148.875 83.9023H149.997L163.225 86.628Z" fill="#EED3D3"/>
<path d="M158.012 126.029H143.422C141.939 126.029 140.736 124.826 140.736 123.343V122.381C140.736 120.898 141.939 119.696 143.422 119.696H157.852C156.529 120.337 155.607 121.5 155.607 122.822C155.607 124.225 156.609 125.428 158.012 126.029Z" fill="#DC4F58"/>
<path d="M198.537 122.381V123.343C198.537 124.826 197.335 126.029 195.851 126.029H158.013C156.57 125.428 155.608 124.225 155.608 122.822C155.608 121.5 156.49 120.297 157.853 119.696H195.851C197.335 119.696 198.537 120.898 198.537 122.381Z" fill="#EA556A"/>
<path d="M236.253 56.3251C234.369 55.5235 232.285 55.0425 230.08 55.0425C221.423 55.0425 214.408 62.057 214.408 70.7148C214.408 72.9595 214.889 75.0838 215.731 77.0078C209.799 79.2525 205.59 84.9442 205.59 91.6781C205.59 100.336 212.604 107.35 221.262 107.35C223.387 107.35 225.391 106.95 227.235 106.188C226.192 105.747 225.11 105.186 224.068 104.464C216.573 99.5343 217.174 90.3554 217.174 90.3554C217.174 90.3554 217.535 86.2269 220.02 82.6996C220.821 81.5773 221.823 80.495 223.106 79.6132C224.509 78.6913 225.431 77.6892 225.992 76.7272C227.074 74.9636 227.034 73.3603 226.874 72.4785C226.754 71.6768 226.633 70.8351 226.673 70.0334C226.954 61.095 233.006 57.5677 236.253 56.3251Z" fill="#E1ECF1"/>
<path d="M254.092 69.512C254.172 69.1112 254.212 68.6703 254.212 68.2294C254.212 64.181 250.925 60.8541 246.837 60.8541C245.434 60.8541 244.151 61.255 243.069 61.8963C241.867 60.0926 240.263 58.5694 238.46 57.407C237.778 56.9661 237.017 56.5653 236.255 56.2446C233.048 57.4872 226.956 61.0546 226.675 69.993C226.635 70.7947 226.715 71.6364 226.876 72.4381C227.036 73.3199 227.076 74.9232 225.994 76.6868C225.433 77.6488 224.511 78.6108 223.108 79.5728C221.825 80.4546 220.823 81.4968 220.022 82.6592C217.536 86.2265 217.176 90.315 217.176 90.315C217.176 90.315 216.534 99.4939 224.07 104.424C225.152 105.105 226.194 105.707 227.236 106.148C231.806 104.264 235.293 100.296 236.496 95.4055C239.101 97.3294 242.308 98.4518 245.755 98.4518C254.413 98.4518 261.427 91.4373 261.427 82.7794C261.387 77.2079 258.461 72.3178 254.092 69.512Z" fill="#FEF5F5"/>
<path d="M234.212 156.372C227.919 159.979 221.025 162.745 213.77 164.469L216.134 134.808L216.615 128.795L216.856 125.588L217.658 115.768V115.728L217.938 112.041H230.765L231.005 115.407L232.047 128.795L232.168 130.639L232.488 134.848L234.212 156.372Z" fill="#FAC04F"/>
<path d="M213.807 164.469L216.172 134.808L216.653 128.755L216.894 125.588L217.696 115.728L217.976 112.041H216.854L214.329 112.241L210.881 112.562L210.681 115.367L210.561 117.171L209.639 128.755L209.198 134.808L206.793 165.791L213.807 164.469Z" fill="#ECBA5A"/>
<path d="M214.411 134.807H208.599C206.956 134.807 205.593 133.445 205.593 131.801C205.593 130.959 205.954 130.198 206.475 129.677C207.036 129.116 207.757 128.795 208.599 128.795H214.411C213.569 128.795 212.848 129.116 212.287 129.677C211.725 130.238 211.405 130.959 211.405 131.801C211.405 133.445 212.768 134.807 214.411 134.807Z" fill="#CE9145"/>
<path d="M236.176 131.801C236.176 132.643 235.856 133.404 235.295 133.925C234.733 134.487 234.012 134.807 233.17 134.807H214.452C212.808 134.807 211.445 133.444 211.445 131.801C211.445 130.959 211.766 130.198 212.327 129.677C212.888 129.115 213.61 128.795 214.452 128.795H233.17C234.814 128.755 236.176 130.118 236.176 131.801Z" fill="#DEA14E"/>
<path d="M218.177 115.728H212.324C210.2 115.728 208.477 114.004 208.477 111.88V108.232C208.477 106.108 210.2 104.384 212.324 104.384H218.177C216.052 104.384 214.329 106.108 214.329 108.232V111.88C214.329 114.004 216.052 115.728 218.177 115.728Z" fill="#CE9145"/>
<path d="M233.288 108.272V111.92C233.288 114.044 231.565 115.768 229.44 115.768H218.177C216.053 115.768 214.329 114.044 214.329 111.92V108.272C214.329 106.148 216.053 104.424 218.177 104.424H229.44C231.565 104.424 233.288 106.148 233.288 108.272Z" fill="#DEA14E"/>
<path d="M206.473 25.1005C205.992 26.0625 205.311 26.9443 204.429 27.7059C200.661 31.0729 194.849 30.7522 191.482 26.9844C188.115 23.2166 188.436 17.4046 192.204 14.0377C193.887 12.5546 195.972 11.7931 198.056 11.7129C196.372 14.9997 196.733 19.1282 199.339 22.0142C201.263 24.1385 203.868 25.1807 206.473 25.1005Z" fill="#E1ECF1"/>
<path d="M205.191 14.7993C207.796 17.7253 208.197 21.8538 206.474 25.1005C203.868 25.1807 201.263 24.1386 199.379 22.0543C196.773 19.1282 196.373 14.9997 198.096 11.753C200.702 11.6728 203.307 12.6749 205.191 14.7993Z" fill="#FEF5F5"/>
<path d="M223.188 39.7313C222.827 40.4127 222.386 41.0139 221.785 41.535C219.179 43.8598 215.171 43.6193 212.846 41.0139C210.522 38.4086 210.762 34.4003 213.367 32.0755C214.53 31.0333 215.973 30.5123 217.416 30.4722C216.253 32.7168 216.494 35.6028 218.298 37.6069C219.54 39.09 221.384 39.7714 223.188 39.7313Z" fill="#E1ECF1"/>
<path d="M222.266 32.5962C224.07 34.6003 224.35 37.4462 223.148 39.7309C221.344 39.771 219.541 39.0896 218.258 37.6065C216.454 35.6024 216.174 32.7565 217.376 30.4718C219.18 30.4317 220.984 31.1532 222.266 32.5962Z" fill="#FEF5F5"/>
<path d="M160.456 70.1133C151.798 67.1472 153.722 56.0443 154.404 53.038C154.524 52.5971 154.724 52.1562 155.045 51.8356C159.093 47.3062 155.927 43.1376 154.764 41.895C154.484 41.6145 154.323 41.2938 154.203 40.9331C148.752 22.976 162.5 15.1599 167.711 12.9152C165.226 12.0735 162.54 11.6727 159.735 11.7929C149.153 12.314 140.495 20.8115 139.733 31.3533C139.292 37.4459 141.457 43.0174 145.185 47.1058C142.74 50.112 140.776 54.3207 140.776 58.3691C140.776 68.4298 150.195 76.1658 161.258 76.1658C165.266 76.1658 168.994 75.0836 172.12 73.2397C168.152 72.3579 163.943 71.3158 160.456 70.1133Z" fill="#E1ECF1"/>
<path d="M181.862 34.7607C181.902 34.1594 181.942 33.5181 181.942 32.8768C181.942 24.4995 177.092 17.2445 169.998 13.8375C169.236 13.4767 168.434 13.1561 167.633 12.8755C162.422 15.1602 148.674 22.9763 154.125 40.8933C154.165 41.0937 154.245 41.2941 154.325 41.4946C154.325 41.4946 154.526 41.6549 154.806 42.0156C154.806 42.0156 154.806 42.0156 154.846 42.0557C154.886 42.0958 154.927 42.1359 154.967 42.176L155.007 42.2161C155.047 42.2561 155.087 42.2962 155.127 42.3363C155.127 42.3764 155.167 42.3764 155.167 42.4165C155.207 42.4565 155.247 42.4966 155.287 42.5367C155.327 42.5768 155.327 42.5768 155.367 42.6169C155.407 42.657 155.448 42.7371 155.488 42.7772C155.488 42.8173 155.528 42.8173 155.528 42.8574C155.648 43.0177 155.768 43.178 155.888 43.3785C155.888 43.4185 155.929 43.4185 155.929 43.4586C155.969 43.5388 156.009 43.5789 156.049 43.659C156.089 43.6991 156.089 43.7392 156.129 43.7793C156.169 43.8594 156.209 43.8995 156.249 43.9797C156.249 44.0198 156.289 44.0599 156.289 44.0999C156.329 44.1801 156.369 44.2603 156.369 44.3004C156.369 44.3404 156.41 44.3805 156.41 44.4206C156.45 44.5008 156.49 44.621 156.53 44.7012C156.53 44.7012 156.53 44.7413 156.57 44.7413C156.61 44.8615 156.65 44.9818 156.69 45.102C156.69 45.1421 156.73 45.1822 156.73 45.2223C156.77 45.3024 156.77 45.3826 156.81 45.5028C156.81 45.5429 156.85 45.583 156.85 45.6231C156.85 45.7032 156.891 45.7834 156.891 45.8636C156.891 45.9037 156.891 45.9437 156.931 46.0239C156.931 46.1041 156.971 46.1842 156.971 46.2644C156.971 46.3045 156.971 46.3446 156.971 46.4247C156.971 46.545 156.971 46.6252 157.011 46.7454C157.011 46.7855 157.011 46.8256 157.011 46.8657C157.011 46.9859 157.011 47.1462 157.011 47.2665C157.011 47.3066 157.011 47.3466 157.011 47.3867C157.011 47.507 157.011 47.5871 156.971 47.7074C156.971 47.7475 156.971 47.8276 156.971 47.8677C156.971 47.9479 156.931 48.0681 156.931 48.1483C156.931 48.1884 156.891 48.2685 156.891 48.3086C156.891 48.3888 156.85 48.509 156.81 48.5892C156.81 48.6293 156.77 48.7095 156.77 48.7495C156.73 48.8698 156.69 48.95 156.65 49.0702C156.65 49.1103 156.61 49.1504 156.61 49.1905C156.57 49.3508 156.49 49.5111 156.41 49.6714C156.41 49.7115 156.369 49.7115 156.369 49.7516C156.289 49.8719 156.249 50.0322 156.169 50.1524C156.129 50.1925 156.089 50.2727 156.089 50.3128C156.009 50.433 155.969 50.5132 155.888 50.6334C155.848 50.6735 155.808 50.7537 155.768 50.7938C155.688 50.914 155.608 50.9942 155.568 51.1144C155.528 51.1545 155.488 51.2347 155.448 51.2748C155.367 51.395 155.287 51.4752 155.167 51.5954C155.127 51.6355 155.087 51.7157 155.047 51.7557C154.886 51.9161 154.766 52.0764 154.606 52.2367C154.606 52.2367 154.526 52.5173 154.405 52.9983C153.724 56.0045 151.8 67.1074 160.458 70.0736C163.985 71.276 168.154 72.3182 172.122 73.1599C172.403 72.9996 172.643 72.8393 172.924 72.6789C175.569 73.9616 178.495 74.6831 181.622 74.6831C192.644 74.6831 201.583 65.7446 201.583 54.7219C201.583 43.7793 192.765 34.921 181.862 34.7607Z" fill="#FEF5F5"/>
<path d="M195.608 74.8836V84.3031C195.608 86.9485 193.484 89.0729 190.838 89.0729H160.455C157.81 89.0729 155.686 86.9485 155.686 84.3031V74.8836C155.686 72.2382 157.81 70.1138 160.455 70.1138H190.838C193.484 70.1138 195.608 72.2382 195.608 74.8836Z" fill="#E96B73"/>
<path d="M160.458 89.0729H148.473C145.828 89.0729 143.703 86.9485 143.703 84.3031V74.8836C143.703 72.2382 145.828 70.1138 148.473 70.1138H160.458C157.812 70.1138 155.688 72.2382 155.688 74.8836V84.3031C155.648 86.9485 157.812 89.0729 160.458 89.0729Z" fill="#DC4F58"/>
</svg>
