<svg width="282" height="175" viewBox="0 0 282 175" fill="none" xmlns="http://www.w3.org/2000/svg">
<path fill-rule="evenodd" clip-rule="evenodd" d="M40.2513 20.439V60.5169V60.5175V114.034H13.2109V60.5175V60.5169V20.439C13.2109 12.9641 19.2288 7 26.7713 7C30.5425 7 33.9125 8.51089 36.3197 10.8965C38.7268 13.3617 40.2513 16.7015 40.2513 20.439ZM40.2513 154.114V114.035H13.2109V154.114C13.2109 161.509 19.2288 167.553 26.691 167.553C34.2334 167.553 40.2513 161.509 40.2513 154.114Z" fill="#E96B73"/>
<path fill-rule="evenodd" clip-rule="evenodd" d="M40.2513 114.035H13.2109V154.114C13.2109 161.509 19.2288 167.553 26.691 167.553C34.2334 167.553 40.2513 161.509 40.2513 154.114V114.035ZM6.21094 20.439C6.21094 9.03889 15.4223 0 26.7712 0C32.4479 0 37.5721 2.2825 41.2471 5.92458L41.2878 5.96497L41.3279 6.00603C44.9125 9.67698 47.2513 14.7363 47.2513 20.439V154.114C47.2513 165.407 38.0671 174.553 26.691 174.553C15.368 174.553 6.21094 165.38 6.21094 154.114V20.439ZM13.2109 114.035V20.439C13.2109 12.9641 19.2288 7 26.7712 7C30.5425 7 33.9125 8.51089 36.3196 10.8965C38.7268 13.3617 40.2513 16.7015 40.2513 20.439V114.035H13.2109Z" fill="#212121"/>
<path d="M26.6603 167C19.2324 167 13.2109 160.978 13.2109 153.551L13.2109 20.0172C13.2109 12.5893 19.2324 6.56779 26.6603 6.56779V6.56779C34.0882 6.56779 40.1098 12.5893 40.1098 20.0172L40.1098 153.551C40.1098 160.978 34.0883 167 26.6603 167V167Z" fill="#212121"/>
<path d="M40.2513 60.5166H13.2109V114.034H40.2513V60.5166Z" fill="#FAC04F"/>
<path d="M40.2513 20.439V60.5175H13.2109V20.439C13.2109 12.9641 19.2288 7 26.7712 7C30.5425 7 33.9125 8.51089 36.3196 10.8965C38.7268 13.3617 40.2513 16.7015 40.2513 20.439Z" fill="#A8EB6C"/>
<path d="M40.2513 114.035V154.114C40.2513 161.509 34.2334 167.553 26.691 167.553C19.2288 167.553 13.2109 161.509 13.2109 154.114V114.035H40.2513Z" fill="#E96B73"/>
<path d="M0 88C0 85.2386 2.23858 83 5 83H23C25.7614 83 28 85.2386 28 88V88C28 90.7614 25.7614 93 23 93H5C2.23858 93 0 90.7614 0 88V88Z" fill="#212121"/>
<path fill-rule="evenodd" clip-rule="evenodd" d="M0 95.4845C1.4301 96.4417 3.14985 97 5 97H23C27.9706 97 32 92.9706 32 88C32 83.0294 27.9706 79 23 79H5C3.14985 79 1.4301 79.5583 0 80.5155V88V95.4845ZM0 88C0 90.7614 2.23858 93 5 93H23C25.7614 93 28 90.7614 28 88C28 85.2386 25.7614 83 23 83H5C2.23858 83 0 85.2386 0 88Z" fill="white"/>
<path opacity="0.2" d="M40.3945 125.5C35.6732 169.9 13.8945 155 12.8945 146L11.8945 160.5L18.288 167L29.5994 170L41.8945 160.5L40.3945 125.5Z" fill="#212121"/>
<path d="M273.211 89.0527C273.211 98.3543 271.567 107.295 268.56 115.594C262.265 132.915 249.957 147.308 234.16 156.369C227.866 159.977 220.97 162.744 213.713 164.468C211.427 165.029 209.062 165.47 206.696 165.791C204.05 166.152 201.364 166.392 198.638 166.513C197.675 166.553 196.673 166.553 195.671 166.553C181.157 166.553 167.566 162.543 155.939 155.607C151.087 152.721 146.597 149.273 142.507 145.424C127.593 131.271 118.251 111.264 118.251 89.0527C118.251 88.1306 118.251 87.2486 118.291 86.3264C119.734 44.7899 153.854 11.5527 195.751 11.5527C238.53 11.5527 273.211 46.2333 273.211 89.0527Z" fill="#B9E2F3"/>
<path fill-rule="evenodd" clip-rule="evenodd" d="M276.082 118.32L276.079 118.327C269.126 137.458 255.545 153.326 238.141 163.309L238.139 163.31C231.2 167.288 223.598 170.339 215.591 172.244C213.022 172.874 210.39 173.363 207.777 173.718C204.884 174.112 201.955 174.374 198.99 174.505L198.981 174.505L198.971 174.506C197.841 174.553 196.697 174.553 195.742 174.553H195.671C179.666 174.553 164.666 170.128 151.844 162.48C146.454 159.272 141.503 155.464 137.024 151.249L137.012 151.238L137.001 151.227C120.567 135.633 110.251 113.558 110.251 89.0527L110.251 88.9898C110.251 88.1162 110.251 87.0986 110.297 86.0148C111.907 40.2031 149.538 3.55273 195.751 3.55273C242.951 3.55273 281.211 41.8177 281.211 89.0527C281.211 99.3027 279.399 109.165 276.082 118.32ZM118.291 86.3264C118.251 87.2486 118.251 88.1306 118.251 89.0527C118.251 111.264 127.593 131.271 142.507 145.424C146.597 149.273 151.087 152.721 155.939 155.607C167.566 162.543 181.157 166.553 195.671 166.553C196.673 166.553 197.675 166.553 198.638 166.513C201.364 166.392 204.05 166.152 206.696 165.791C209.062 165.47 211.427 165.029 213.713 164.468C220.97 162.744 227.866 159.977 234.16 156.369C249.957 147.308 262.265 132.915 268.56 115.594C271.567 107.295 273.211 98.3543 273.211 89.0527C273.211 46.2333 238.53 11.5527 195.751 11.5527C153.854 11.5527 119.734 44.7899 118.291 86.3264Z" fill="#212121"/>
<path d="M213.753 164.428C221.01 162.704 227.866 159.937 234.2 156.329C249.997 147.308 262.265 132.874 268.6 115.554C252.322 109.741 248.874 125.938 248.874 125.938C242.419 125.217 237.728 126.7 234.321 128.945C233.559 129.426 232.877 129.988 232.236 130.549C230.712 131.872 229.549 133.355 228.627 134.759C226.583 137.926 225.941 140.692 225.941 140.692L222.413 134.759L218.804 128.745L216.88 125.537L215.878 123.853C215.156 119.443 212.831 117.719 210.545 117.158C207.739 116.476 204.892 117.519 204.892 117.519C204.892 117.519 205.373 103.165 191.621 97.5122C189.176 96.5099 186.289 95.7882 182.881 95.4274C173.94 94.5854 166.844 96.7103 161.872 99.156C156.5 101.802 153.613 104.849 153.613 104.849C151.368 103.005 149.123 102.043 146.998 101.682C141.184 100.639 136.533 103.927 136.533 103.927C133.045 91.7388 125.588 87.3686 118.331 86.2861C118.291 87.2083 118.291 88.0903 118.291 89.0125C118.291 111.224 127.633 131.271 142.587 145.383C146.677 149.232 151.167 152.68 156.019 155.567C167.646 162.503 181.237 166.512 195.751 166.512C196.753 166.512 197.715 166.472 198.718 166.472C201.444 166.392 204.13 166.112 206.777 165.751L213.753 164.428Z" fill="#617983" fill-opacity="0.5"/>
<path d="M195.751 137.886H143.31L148.762 83.8809H190.178L195.751 137.886Z" fill="#FFE9E9"/>
<path d="M198.678 166.473C197.715 166.513 196.713 166.513 195.711 166.513C181.197 166.513 167.606 162.503 155.979 155.567C156.5 150.596 157.141 144.462 157.783 137.846H195.671L198.678 166.473Z" fill="#E96B73"/>
<path d="M157.822 137.886C157.141 144.462 156.499 150.636 156.018 155.607C151.167 152.721 146.676 149.273 142.587 145.424L143.349 137.886H157.822Z" fill="#DC4F58"/>
<path d="M163.155 86.6072C163.115 86.968 160.188 114.993 157.862 137.886H143.349L148.801 83.8809H149.924L163.155 86.6072Z" fill="#EED3D3"/>
<path d="M157.943 126.018H143.349C141.866 126.018 140.663 124.816 140.663 123.332V122.37C140.663 120.886 141.866 119.684 143.349 119.684H157.783C156.46 120.325 155.538 121.488 155.538 122.811C155.538 124.174 156.54 125.377 157.943 126.018Z" fill="#DC4F58"/>
<path d="M198.477 122.37V123.332C198.477 124.816 197.274 126.018 195.791 126.018H157.943C156.499 125.417 155.537 124.214 155.537 122.811C155.537 121.488 156.419 120.285 157.782 119.684H195.791C197.274 119.643 198.477 120.846 198.477 122.37Z" fill="#E96B73"/>
<path d="M236.204 56.2566C234.32 55.4547 232.235 54.9736 230.03 54.9736C221.37 54.9736 214.354 61.9899 214.354 70.65C214.354 72.8953 214.835 75.0202 215.677 76.9447C209.743 79.1899 205.533 84.8831 205.533 91.6187C205.533 100.279 212.549 107.295 221.21 107.295C223.335 107.295 225.339 106.894 227.183 106.132C226.141 105.691 225.059 105.13 224.016 104.408C216.519 99.477 217.12 90.2957 217.12 90.2957C217.12 90.2957 217.481 86.1661 219.967 82.6379C220.769 81.5153 221.771 80.4328 223.054 79.5507C224.457 78.6286 225.379 77.6263 225.941 76.664C227.023 74.8999 226.983 73.2962 226.823 72.4141C226.702 71.6123 226.582 70.7703 226.622 69.9685C226.903 61.0277 232.957 57.4995 236.204 56.2566Z" fill="#E1ECF1"/>
<path d="M254.047 69.4871C254.127 69.0862 254.167 68.6452 254.167 68.2042C254.167 64.1547 250.879 60.827 246.79 60.827C245.387 60.827 244.104 61.2279 243.021 61.8694C241.818 60.0652 240.215 58.5417 238.41 57.379C237.729 56.938 236.967 56.5371 236.205 56.2163C232.998 57.4592 226.904 61.0275 226.623 69.9682C226.583 70.7701 226.663 71.6121 226.824 72.4139C226.984 73.296 227.024 74.8997 225.941 76.6638C225.38 77.626 224.458 78.5883 223.055 79.5505C221.772 80.4326 220.769 81.475 219.968 82.6377C217.482 86.206 217.121 90.2955 217.121 90.2955C217.121 90.2955 216.48 99.4768 224.017 104.408C225.1 105.09 226.142 105.691 227.184 106.132C231.755 104.248 235.243 100.279 236.446 95.3873C239.052 97.3118 242.259 98.4344 245.707 98.4344C254.368 98.4344 261.384 91.4181 261.384 82.758C261.344 77.1449 258.417 72.2536 254.047 69.4871Z" fill="#FEF5F5"/>
<path d="M234.161 156.329C227.867 159.938 220.971 162.704 213.714 164.428L216.079 134.759L216.56 128.745L216.801 125.538L217.603 115.715V115.675L217.884 111.986H230.713L230.954 115.354L231.996 128.745L232.117 130.59L232.518 134.759L234.161 156.329Z" fill="#FAC04F"/>
<path d="M213.754 164.428L216.119 134.759L216.6 128.705L216.841 125.538L217.643 115.715V115.675L217.923 111.986H216.801L214.275 112.187L210.827 112.508L210.626 115.354L210.506 117.118L209.584 128.705L209.143 134.759L206.737 165.751L213.754 164.428Z" fill="#ECBA5A"/>
<path d="M214.353 134.759H208.539C206.895 134.759 205.532 133.396 205.532 131.752C205.532 130.91 205.893 130.148 206.414 129.627C206.976 129.066 207.697 128.745 208.539 128.745H214.353C213.511 128.745 212.789 129.066 212.228 129.627C211.666 130.188 211.346 130.91 211.346 131.752C211.346 133.396 212.709 134.759 214.353 134.759Z" fill="#C89551"/>
<path d="M236.123 131.752C236.123 132.594 235.802 133.356 235.241 133.877C234.68 134.438 233.958 134.759 233.116 134.759H214.393C212.749 134.759 211.386 133.396 211.386 131.752C211.386 130.91 211.706 130.148 212.268 129.627C212.829 129.066 213.551 128.745 214.393 128.745H233.116C234.76 128.705 236.123 130.068 236.123 131.752Z" fill="#DEA14E"/>
<path d="M218.122 115.715H212.269C210.144 115.715 208.42 113.991 208.42 111.866V108.218C208.42 106.093 210.144 104.369 212.269 104.369H218.122C215.998 104.369 214.274 106.093 214.274 108.218V111.866C214.274 113.991 215.998 115.715 218.122 115.715Z" fill="#C89551"/>
<path d="M233.237 108.218V111.866C233.237 113.991 231.513 115.715 229.389 115.715H218.122C215.997 115.715 214.273 113.991 214.273 111.866V108.218C214.273 106.093 215.997 104.369 218.122 104.369H229.389C231.513 104.369 233.237 106.093 233.237 108.218Z" fill="#DEA14E"/>
<path d="M263.067 53.6104C262.546 54.6528 261.784 55.615 260.862 56.457C256.773 60.1055 250.478 59.7446 246.83 55.6551C243.181 51.5656 243.542 45.271 247.632 41.6225C249.436 39.9787 251.721 39.1769 253.966 39.0967C252.122 42.665 252.563 47.1153 255.37 50.2827C257.374 52.6081 260.221 53.7307 263.067 53.6104Z" fill="#E1ECF1"/>
<path d="M261.664 42.4245C264.511 45.5919 264.912 50.0823 263.068 53.6105C260.221 53.6907 257.374 52.5681 255.37 50.2828C252.523 47.1154 252.122 42.625 253.966 39.0968C256.773 39.0166 259.62 40.1392 261.664 42.4245Z" fill="#FEF5F5"/>
<path d="M206.415 25.0239C205.934 25.9862 205.253 26.8682 204.371 27.63C200.602 30.9978 194.788 30.677 191.42 26.9083C188.053 23.1395 188.373 17.326 192.142 13.9582C193.826 12.4748 195.911 11.713 197.996 11.6328C196.312 14.9204 196.673 19.05 199.279 21.9367C201.203 24.0617 203.809 25.1041 206.415 25.0239Z" fill="#4B5A59"/>
<path d="M205.132 14.7198C207.738 17.6466 208.139 21.7762 206.415 25.0238C203.809 25.104 201.203 24.0615 199.319 21.9767C196.713 19.0499 196.312 14.9203 198.036 11.6728C200.642 11.5926 203.248 12.635 205.132 14.7198Z" fill="#617983"/>
<path d="M223.135 39.658C222.774 40.3396 222.333 40.941 221.732 41.4622C219.126 43.7876 215.117 43.547 212.791 40.941C210.466 38.3349 210.706 34.3256 213.312 32.0002C214.475 30.9578 215.918 30.4366 217.362 30.3965C216.199 32.6417 216.44 35.5284 218.244 37.5331C219.487 39.0165 221.331 39.7382 223.135 39.658Z" fill="#4B5A59"/>
<path d="M222.213 32.5215C224.017 34.5262 224.298 37.3728 223.095 39.6581C221.291 39.6982 219.487 39.0166 218.204 37.5332C216.399 35.5285 216.119 32.6819 217.322 30.3966C219.126 30.3565 220.93 31.0782 222.213 32.5215Z" fill="#617983"/>
<path d="M160.388 70.0483C151.728 67.0814 153.653 55.9756 154.334 52.9687C154.455 52.5276 154.655 52.0866 154.976 51.7659C159.025 47.2353 155.858 43.0657 154.695 41.8228C154.414 41.5421 154.254 41.2214 154.134 40.8605C148.681 22.8988 162.433 15.0807 167.645 12.8354C165.159 11.9935 162.473 11.5926 159.667 11.7128C149.082 12.234 140.422 20.7338 139.66 31.2783C139.219 37.3724 141.384 42.9454 145.113 47.0349C142.667 50.0419 140.703 54.2516 140.703 58.301C140.703 68.3644 150.124 76.1024 161.19 76.1024C165.199 76.1024 168.928 75.0199 172.055 73.1756C168.086 72.2935 163.876 71.2511 160.388 70.0483Z" fill="#4B5A59"/>
<path d="M181.799 34.6863C181.839 34.0849 181.879 33.4434 181.879 32.8019C181.879 24.4224 177.028 17.1656 169.932 13.7576C169.17 13.3968 168.368 13.0761 167.566 12.7954C162.354 15.0807 148.602 22.8989 154.055 40.8205C154.095 41.021 154.175 41.2214 154.255 41.4219C154.255 41.4219 154.456 41.5823 154.736 41.9431C154.736 41.9431 154.736 41.9431 154.777 41.9832C154.817 42.0233 154.857 42.0634 154.897 42.1035L154.937 42.1436C154.977 42.1837 155.017 42.2238 155.057 42.2639C155.057 42.3039 155.097 42.3039 155.097 42.344C155.137 42.3841 155.177 42.4242 155.218 42.4643C155.258 42.5044 155.258 42.5044 155.298 42.5445C155.338 42.5846 155.378 42.6648 155.418 42.7049C155.418 42.745 155.458 42.745 155.458 42.7851C155.578 42.9454 155.699 43.1058 155.819 43.3063C155.819 43.3464 155.859 43.3464 155.859 43.3865C155.899 43.4666 155.939 43.5067 155.979 43.5869C156.019 43.627 156.019 43.6671 156.06 43.7072C156.1 43.7874 156.14 43.8275 156.18 43.9077C156.18 43.9478 156.22 43.9879 156.22 44.0279C156.26 44.1081 156.3 44.1883 156.3 44.2284C156.3 44.2685 156.34 44.3086 156.34 44.3487C156.38 44.4289 156.42 44.5492 156.46 44.6293C156.46 44.6293 156.46 44.6694 156.501 44.6694C156.541 44.7897 156.581 44.91 156.621 45.0303C156.621 45.0704 156.661 45.1105 156.661 45.1506C156.701 45.2307 156.701 45.3109 156.741 45.4312C156.741 45.4713 156.781 45.5114 156.781 45.5515C156.781 45.6317 156.821 45.7119 156.821 45.792C156.821 45.8321 156.821 45.8722 156.861 45.9524C156.861 46.0326 156.901 46.1128 156.901 46.193C156.901 46.2331 156.901 46.2732 156.901 46.3534C156.901 46.4736 156.901 46.5538 156.942 46.6741C156.942 46.7142 156.942 46.7543 156.942 46.7944C156.942 46.9147 156.942 47.075 156.942 47.1953C156.942 47.2354 156.942 47.2755 156.942 47.3156C156.942 47.4359 156.942 47.5161 156.901 47.6363C156.901 47.6764 156.901 47.7566 156.901 47.7967C156.901 47.8769 156.861 47.9972 156.861 48.0774C156.861 48.1175 156.821 48.1976 156.821 48.2377C156.821 48.3179 156.781 48.4382 156.741 48.5184C156.741 48.5585 156.701 48.6387 156.701 48.6788C156.661 48.799 156.621 48.8792 156.581 48.9995C156.581 49.0396 156.541 49.0797 156.541 49.1198C156.501 49.2802 156.42 49.4405 156.34 49.6009C156.34 49.641 156.3 49.641 156.3 49.6811C156.22 49.8014 156.18 49.9617 156.1 50.082C156.06 50.1221 156.019 50.2023 156.019 50.2424C155.939 50.3627 155.899 50.4428 155.819 50.5631C155.779 50.6032 155.739 50.6834 155.699 50.7235C155.618 50.8438 155.538 50.924 155.498 51.0442C155.458 51.0843 155.418 51.1645 155.378 51.2046C155.298 51.3249 155.218 51.4051 155.097 51.5254C155.057 51.5655 155.017 51.6456 154.977 51.6857C154.817 51.8461 154.696 52.0065 154.536 52.1669C154.536 52.1669 154.456 52.4475 154.336 52.9286C153.654 55.9356 151.729 67.0414 160.39 70.0083C163.918 71.2111 168.087 72.2535 172.057 73.0955C172.337 72.9351 172.578 72.7747 172.859 72.6143C175.505 73.8973 178.431 74.619 181.559 74.619C192.584 74.619 201.525 65.6782 201.525 54.6526C201.525 43.7473 192.705 34.8466 181.799 34.6863Z" fill="#617983"/>
<path d="M195.55 74.8194V84.2413C195.55 86.8874 193.425 89.0124 190.779 89.0124H160.388C157.742 89.0124 155.617 86.8874 155.617 84.2413V74.8194C155.617 72.1733 157.742 70.0483 160.388 70.0483H190.779C193.425 70.0483 195.55 72.2134 195.55 74.8194Z" fill="#E96B73"/>
<path d="M160.389 89.0529H148.401C145.755 89.0529 143.63 86.928 143.63 84.2818V74.86C143.63 72.2138 145.755 70.0889 148.401 70.0889H160.389C157.743 70.0889 155.618 72.2138 155.618 74.86V84.2417C155.578 86.8879 157.743 89.0529 160.389 89.0529Z" fill="#DC4F58"/>
</svg>
