<svg width="327" height="31" viewBox="0 0 327 31" fill="none" xmlns="http://www.w3.org/2000/svg">
<rect x="30.626" y="0.552734" width="30" height="30" rx="8" transform="rotate(90 30.626 0.552734)" fill="#E3E3E3"/>
<rect x="9.62598" y="13.5527" width="12" height="4" fill="#212121"/>
<path d="M54.5276 16.6487C54.5276 18.5701 54.953 20.0881 55.8036 21.2027C56.669 22.3174 57.8276 22.8747 59.2796 22.8747C59.969 22.8747 60.695 22.7501 61.4576 22.5007C62.235 22.2514 62.917 21.9141 63.5036 21.4887V24.0627C62.9316 24.4294 62.235 24.7301 61.4136 24.9647C60.5923 25.1847 59.7783 25.2947 58.9716 25.2947C56.845 25.2947 55.129 24.4881 53.8236 22.8747C52.5183 21.2614 51.8656 19.1934 51.8656 16.6707C51.8656 14.1334 52.533 12.0581 53.8676 10.4447C55.217 8.8314 56.9843 8.02473 59.1696 8.02473C59.9616 8.02473 60.7463 8.1274 61.5236 8.33273C62.301 8.53807 62.9243 8.81673 63.3936 9.16873V11.7427C62.7776 11.3174 62.125 10.9947 61.4356 10.7747C60.7463 10.5401 60.0716 10.4227 59.4116 10.4227C57.9156 10.4227 56.7276 10.9801 55.8476 12.0947C54.9676 13.1947 54.5276 14.7127 54.5276 16.6487ZM76.5476 19.0687C76.5476 20.9314 76.0562 22.4347 75.0736 23.5787C74.0909 24.7227 72.7709 25.2947 71.1136 25.2947C69.4709 25.2947 68.1582 24.7227 67.1756 23.5787C66.1929 22.4347 65.7016 20.9314 65.7016 19.0687C65.7016 17.2061 66.1929 15.7027 67.1756 14.5587C68.1582 13.4001 69.4709 12.8207 71.1136 12.8207C72.7562 12.8207 74.0689 13.4001 75.0516 14.5587C76.0489 15.7027 76.5476 17.2061 76.5476 19.0687ZM74.0616 19.0687C74.0616 17.8367 73.7976 16.8541 73.2696 16.1207C72.7416 15.3874 72.0229 15.0207 71.1136 15.0207C70.1896 15.0207 69.4709 15.3874 68.9576 16.1207C68.4442 16.8394 68.1876 17.8221 68.1876 19.0687C68.1876 20.3154 68.4442 21.2981 68.9576 22.0167C69.4709 22.7354 70.1896 23.0947 71.1136 23.0947C72.0229 23.0947 72.7416 22.7354 73.2696 22.0167C73.7976 21.2834 74.0616 20.3007 74.0616 19.0687ZM82.0866 16.2087V25.0527H79.6226V13.0627H82.0866V13.9427L82.1526 14.0087C82.7099 13.6127 83.2892 13.3194 83.8906 13.1287C84.4919 12.9234 85.1152 12.8207 85.7606 12.8207C86.9192 12.8207 87.7992 13.1434 88.4006 13.7887C89.0019 14.4341 89.3026 15.3874 89.3026 16.6487V25.0527H86.8386V17.4627C86.8386 16.5681 86.7066 15.9374 86.4426 15.5707C86.1786 15.2041 85.7312 15.0207 85.1006 15.0207C84.5286 15.0207 83.9419 15.1381 83.3406 15.3727C82.7539 15.6074 82.3359 15.8861 82.0866 16.2087ZM100.899 21.7307C100.899 22.8014 100.496 23.6667 99.6892 24.3267C98.8825 24.9721 97.8045 25.2947 96.4552 25.2947C95.7805 25.2947 95.1058 25.2141 94.4312 25.0527C93.7712 24.8914 93.2358 24.6787 92.8252 24.4147V22.0607C93.0158 22.2367 93.2432 22.3981 93.5072 22.5447C93.7858 22.6767 94.1012 22.8014 94.4532 22.9187C94.7465 23.0067 95.0472 23.0801 95.3552 23.1387C95.6632 23.1827 95.9785 23.2047 96.3012 23.2047C96.9905 23.2047 97.5258 23.1021 97.9072 22.8967C98.2885 22.6767 98.4792 22.3687 98.4792 21.9727C98.4792 21.6501 98.3398 21.3567 98.0612 21.0927C97.7825 20.8287 97.1738 20.4987 96.2352 20.1027C95.5312 19.7947 95.0105 19.5454 94.6732 19.3547C94.3505 19.1641 94.0718 18.9661 93.8372 18.7607C93.4558 18.4381 93.1698 18.0787 92.9792 17.6827C92.8032 17.2721 92.7152 16.8174 92.7152 16.3187C92.7152 15.2481 93.1038 14.3974 93.8812 13.7667C94.6732 13.1361 95.7512 12.8207 97.1152 12.8207C97.7605 12.8207 98.3838 12.9014 98.9852 13.0627C99.5865 13.2094 100.078 13.4001 100.459 13.6347V15.8347C99.9312 15.5414 99.3665 15.3141 98.7652 15.1527C98.1785 14.9914 97.6065 14.9107 97.0492 14.9107C96.4332 14.9107 95.9565 15.0207 95.6192 15.2407C95.2965 15.4607 95.1352 15.7614 95.1352 16.1427C95.1352 16.4654 95.2745 16.7587 95.5532 17.0227C95.8318 17.2721 96.4405 17.5947 97.3792 17.9907C98.0832 18.2841 98.5965 18.5261 98.9192 18.7167C99.2565 18.9074 99.5425 19.1054 99.7772 19.3107C100.158 19.6334 100.437 19.9927 100.613 20.3887C100.804 20.7847 100.899 21.2321 100.899 21.7307ZM114.167 19.0687C114.167 20.9314 113.675 22.4347 112.693 23.5787C111.71 24.7227 110.39 25.2947 108.733 25.2947C107.09 25.2947 105.777 24.7227 104.795 23.5787C103.812 22.4347 103.321 20.9314 103.321 19.0687C103.321 17.2061 103.812 15.7027 104.795 14.5587C105.777 13.4001 107.09 12.8207 108.733 12.8207C110.375 12.8207 111.688 13.4001 112.671 14.5587C113.668 15.7027 114.167 17.2061 114.167 19.0687ZM111.681 19.0687C111.681 17.8367 111.417 16.8541 110.889 16.1207C110.361 15.3874 109.642 15.0207 108.733 15.0207C107.809 15.0207 107.09 15.3874 106.577 16.1207C106.063 16.8394 105.807 17.8221 105.807 19.0687C105.807 20.3154 106.063 21.2981 106.577 22.0167C107.09 22.7354 107.809 23.0947 108.733 23.0947C109.642 23.0947 110.361 22.7354 110.889 22.0167C111.417 21.2834 111.681 20.3007 111.681 19.0687ZM119.706 16.1867V25.0527H117.242V13.0627H119.706V13.9427L119.772 14.0087C120.329 13.5981 120.894 13.2974 121.466 13.1067C122.052 12.9161 122.661 12.8207 123.292 12.8207C123.996 12.8207 124.59 12.9381 125.074 13.1727C125.572 13.4074 125.939 13.7521 126.174 14.2067C126.76 13.7521 127.398 13.4074 128.088 13.1727C128.777 12.9381 129.488 12.8207 130.222 12.8207C131.41 12.8207 132.29 13.1361 132.862 13.7667C133.448 14.3974 133.742 15.3581 133.742 16.6487V25.0527H131.278V17.4627C131.278 16.5974 131.138 15.9741 130.86 15.5927C130.596 15.2114 130.148 15.0207 129.518 15.0207C128.975 15.0207 128.432 15.1381 127.89 15.3727C127.347 15.6074 126.958 15.8861 126.724 16.2087V25.0527H124.26V17.5947C124.26 16.6414 124.128 15.9741 123.864 15.5927C123.614 15.2114 123.167 15.0207 122.522 15.0207C121.964 15.0207 121.414 15.1307 120.872 15.3507C120.329 15.5707 119.94 15.8494 119.706 16.1867ZM140.159 16.1867V25.0527H137.695V13.0627H140.159V13.9427L140.225 14.0087C140.782 13.5981 141.347 13.2974 141.919 13.1067C142.506 12.9161 143.114 12.8207 143.745 12.8207C144.449 12.8207 145.043 12.9381 145.527 13.1727C146.026 13.4074 146.392 13.7521 146.627 14.2067C147.214 13.7521 147.852 13.4074 148.541 13.1727C149.23 12.9381 149.942 12.8207 150.675 12.8207C151.863 12.8207 152.743 13.1361 153.315 13.7667C153.902 14.3974 154.195 15.3581 154.195 16.6487V25.0527H151.731V17.4627C151.731 16.5974 151.592 15.9741 151.313 15.5927C151.049 15.2114 150.602 15.0207 149.971 15.0207C149.428 15.0207 148.886 15.1381 148.343 15.3727C147.8 15.6074 147.412 15.8861 147.177 16.2087V25.0527H144.713V17.5947C144.713 16.6414 144.581 15.9741 144.317 15.5927C144.068 15.2114 143.62 15.0207 142.975 15.0207C142.418 15.0207 141.868 15.1307 141.325 15.3507C140.782 15.5707 140.394 15.8494 140.159 16.1867ZM164.638 23.9307C164.257 24.3414 163.758 24.6714 163.142 24.9207C162.541 25.1701 161.895 25.2947 161.206 25.2947C160.077 25.2947 159.175 24.9574 158.5 24.2827C157.825 23.6081 157.488 22.7207 157.488 21.6207C157.488 20.3887 157.935 19.4427 158.83 18.7827C159.739 18.1081 161.037 17.7707 162.724 17.7707H164.396C164.411 17.7267 164.418 17.6754 164.418 17.6167C164.418 17.5581 164.418 17.4554 164.418 17.3087C164.418 16.4581 164.227 15.8641 163.846 15.5267C163.479 15.1894 162.834 15.0207 161.91 15.0207C161.309 15.0207 160.722 15.0867 160.15 15.2187C159.593 15.3507 159.006 15.5634 158.39 15.8567V13.5907C158.639 13.4734 158.925 13.3707 159.248 13.2827C159.585 13.1801 159.952 13.0921 160.348 13.0187C160.685 12.9454 161.03 12.8941 161.382 12.8647C161.734 12.8354 162.079 12.8207 162.416 12.8207C164 12.8207 165.137 13.2021 165.826 13.9647C166.515 14.7274 166.86 15.9521 166.86 17.6387V25.0527H165.078L164.704 23.9527L164.638 23.9307ZM162.988 19.5967C161.961 19.5967 161.199 19.7434 160.7 20.0367C160.216 20.3301 159.974 20.7994 159.974 21.4447C159.974 22.0314 160.135 22.4787 160.458 22.7867C160.781 23.0947 161.25 23.2487 161.866 23.2487C162.438 23.2487 162.981 23.1241 163.494 22.8747C164.022 22.6254 164.389 22.3321 164.594 21.9947V19.5967H162.988ZM177.275 24.8767C176.952 25.0087 176.593 25.1114 176.197 25.1847C175.801 25.2581 175.398 25.2947 174.987 25.2947C173.726 25.2947 172.78 24.9427 172.149 24.2387C171.533 23.5347 171.225 22.4787 171.225 21.0707V15.1747H169.289V13.0627H171.225V9.89473H173.689V13.0627H177.033V15.1747H173.689V19.7067C173.689 21.0121 173.814 21.8994 174.063 22.3687C174.327 22.8381 174.811 23.0727 175.515 23.0727C175.794 23.0727 176.087 23.0434 176.395 22.9847C176.718 22.9261 177.011 22.8527 177.275 22.7647V24.8767ZM183.096 8.53073C183.096 9.01473 182.927 9.4254 182.59 9.76273C182.267 10.0854 181.864 10.2467 181.38 10.2467C180.896 10.2467 180.485 10.0854 180.148 9.76273C179.825 9.4254 179.664 9.01473 179.664 8.53073C179.664 8.04673 179.825 7.6434 180.148 7.32073C180.485 6.9834 180.896 6.81473 181.38 6.81473C181.864 6.81473 182.267 6.9834 182.59 7.32073C182.927 7.6434 183.096 8.04673 183.096 8.53073ZM182.612 13.0627V25.0527H180.148V13.0627H182.612ZM196.538 19.0687C196.538 20.9314 196.046 22.4347 195.064 23.5787C194.081 24.7227 192.761 25.2947 191.104 25.2947C189.461 25.2947 188.148 24.7227 187.166 23.5787C186.183 22.4347 185.692 20.9314 185.692 19.0687C185.692 17.2061 186.183 15.7027 187.166 14.5587C188.148 13.4001 189.461 12.8207 191.104 12.8207C192.746 12.8207 194.059 13.4001 195.042 14.5587C196.039 15.7027 196.538 17.2061 196.538 19.0687ZM194.052 19.0687C194.052 17.8367 193.788 16.8541 193.26 16.1207C192.732 15.3874 192.013 15.0207 191.104 15.0207C190.18 15.0207 189.461 15.3874 188.948 16.1207C188.434 16.8394 188.178 17.8221 188.178 19.0687C188.178 20.3154 188.434 21.2981 188.948 22.0167C189.461 22.7354 190.18 23.0947 191.104 23.0947C192.013 23.0947 192.732 22.7354 193.26 22.0167C193.788 21.2834 194.052 20.3007 194.052 19.0687ZM202.077 16.2087V25.0527H199.613V13.0627H202.077V13.9427L202.143 14.0087C202.7 13.6127 203.279 13.3194 203.881 13.1287C204.482 12.9234 205.105 12.8207 205.751 12.8207C206.909 12.8207 207.789 13.1434 208.391 13.7887C208.992 14.4341 209.293 15.3874 209.293 16.6487V25.0527H206.829V17.4627C206.829 16.5681 206.697 15.9374 206.433 15.5707C206.169 15.2041 205.721 15.0207 205.091 15.0207C204.519 15.0207 203.932 15.1381 203.331 15.3727C202.744 15.6074 202.326 15.8861 202.077 16.2087ZM229.633 6.96873L225.167 10.8407L223.891 9.52073L227.499 5.18673L229.633 6.96873ZM229.831 24.6127C229.215 24.8474 228.613 25.0161 228.027 25.1187C227.44 25.2361 226.853 25.2947 226.267 25.2947C224.375 25.2947 222.893 24.7594 221.823 23.6887C220.767 22.6034 220.239 21.0854 220.239 19.1347C220.239 17.2134 220.737 15.6807 221.735 14.5367C222.732 13.3927 224.081 12.8207 225.783 12.8207C227.235 12.8207 228.357 13.2607 229.149 14.1407C229.941 15.0061 230.337 16.2161 230.337 17.7707C230.337 18.1227 230.315 18.4894 230.271 18.8707C230.227 19.2521 230.161 19.6334 230.073 20.0147H222.637C222.783 21.0561 223.157 21.8334 223.759 22.3467C224.36 22.8601 225.203 23.1167 226.289 23.1167C226.831 23.1167 227.396 23.0581 227.983 22.9407C228.584 22.8087 229.2 22.6181 229.831 22.3687V24.6127ZM228.093 17.3087C228.107 16.5461 227.887 15.9374 227.433 15.4827C226.993 15.0134 226.377 14.7787 225.585 14.7787C224.719 14.7787 224.03 15.0647 223.517 15.6367C223.003 16.2087 222.71 17.0227 222.637 18.0787H228.027C228.041 17.9614 228.056 17.8367 228.071 17.7047C228.085 17.5581 228.093 17.4261 228.093 17.3087ZM235.872 7.65073V25.0527H233.408V7.65073H235.872ZM248.544 24.6127C247.928 24.8474 247.326 25.0161 246.74 25.1187C246.153 25.2361 245.566 25.2947 244.98 25.2947C243.088 25.2947 241.606 24.7594 240.536 23.6887C239.48 22.6034 238.952 21.0854 238.952 19.1347C238.952 17.2134 239.45 15.6807 240.448 14.5367C241.445 13.3927 242.794 12.8207 244.496 12.8207C245.948 12.8207 247.07 13.2607 247.862 14.1407C248.654 15.0061 249.05 16.2161 249.05 17.7707C249.05 18.1227 249.028 18.4894 248.984 18.8707C248.94 19.2521 248.874 19.6334 248.786 20.0147H241.35C241.496 21.0561 241.87 21.8334 242.472 22.3467C243.073 22.8601 243.916 23.1167 245.002 23.1167C245.544 23.1167 246.109 23.0581 246.696 22.9407C247.297 22.8087 247.913 22.6181 248.544 22.3687V24.6127ZM246.806 17.3087C246.82 16.5461 246.6 15.9374 246.146 15.4827C245.706 15.0134 245.09 14.7787 244.298 14.7787C243.432 14.7787 242.743 15.0647 242.23 15.6367C241.716 16.2087 241.423 17.0227 241.35 18.0787H246.74C246.754 17.9614 246.769 17.8367 246.784 17.7047C246.798 17.5581 246.806 17.4261 246.806 17.3087ZM259.909 24.4807C259.527 24.7301 259.036 24.9281 258.435 25.0747C257.848 25.2214 257.254 25.2947 256.653 25.2947C254.981 25.2947 253.661 24.7301 252.693 23.6007C251.725 22.4714 251.241 20.9607 251.241 19.0687C251.241 17.1767 251.725 15.6661 252.693 14.5367C253.675 13.3927 255.003 12.8207 256.675 12.8207C257.276 12.8207 257.87 12.8941 258.457 13.0407C259.043 13.1727 259.505 13.3487 259.843 13.5687V15.9447C259.579 15.6807 259.161 15.4681 258.589 15.3067C258.031 15.1307 257.459 15.0427 256.873 15.0427C255.802 15.0427 255.01 15.3654 254.497 16.0107C253.983 16.6561 253.727 17.6387 253.727 18.9587C253.727 20.3374 253.983 21.3714 254.497 22.0607C255.01 22.7354 255.787 23.0727 256.829 23.0727C257.371 23.0727 257.936 22.9847 258.523 22.8087C259.124 22.6327 259.586 22.4201 259.909 22.1707V24.4807ZM269.658 24.8767C269.335 25.0087 268.976 25.1114 268.58 25.1847C268.184 25.2581 267.78 25.2947 267.37 25.2947C266.108 25.2947 265.162 24.9427 264.532 24.2387C263.916 23.5347 263.608 22.4787 263.608 21.0707V15.1747H261.672V13.0627H263.608V9.89473H266.072V13.0627H269.416V15.1747H266.072V19.7067C266.072 21.0121 266.196 21.8994 266.446 22.3687C266.71 22.8381 267.194 23.0727 267.898 23.0727C268.176 23.0727 268.47 23.0434 268.778 22.9847C269.1 22.9261 269.394 22.8527 269.658 22.7647V24.8767ZM274.995 17.1327V25.0527H272.531V13.0627H274.995V14.4927L275.083 14.5587C275.493 14.0014 275.985 13.5761 276.557 13.2827C277.143 12.9747 277.789 12.8207 278.493 12.8207C278.625 12.8207 278.749 12.8281 278.867 12.8427C278.999 12.8427 279.123 12.8501 279.241 12.8647V15.5487C279.167 15.5341 279.094 15.5267 279.021 15.5267C278.947 15.5267 278.859 15.5267 278.757 15.5267C277.847 15.5267 277.063 15.6734 276.403 15.9667C275.757 16.2454 275.288 16.6341 274.995 17.1327ZM284.824 8.53073C284.824 9.01473 284.656 9.4254 284.318 9.76273C283.996 10.0854 283.592 10.2467 283.108 10.2467C282.624 10.2467 282.214 10.0854 281.876 9.76273C281.554 9.4254 281.392 9.01473 281.392 8.53073C281.392 8.04673 281.554 7.6434 281.876 7.32073C282.214 6.9834 282.624 6.81473 283.108 6.81473C283.592 6.81473 283.996 6.9834 284.318 7.32073C284.656 7.6434 284.824 8.04673 284.824 8.53073ZM284.34 13.0627V25.0527H281.876V13.0627H284.34ZM295.032 24.1287C294.651 24.5101 294.211 24.8034 293.712 25.0087C293.228 25.1994 292.7 25.2947 292.128 25.2947C290.72 25.2947 289.584 24.7301 288.718 23.6007C287.853 22.4567 287.42 20.9901 287.42 19.2007C287.42 17.3087 287.912 15.7761 288.894 14.6027C289.892 13.4147 291.212 12.8207 292.854 12.8207C293.294 12.8207 293.705 12.8721 294.086 12.9747C294.482 13.0627 294.871 13.2094 295.252 13.4147L297.584 12.8867V29.9807H295.098V24.1947L295.032 24.1287ZM295.098 15.6367C294.849 15.4607 294.534 15.3214 294.152 15.2187C293.786 15.1014 293.412 15.0427 293.03 15.0427C292.062 15.0427 291.3 15.4094 290.742 16.1427C290.185 16.8761 289.906 17.8734 289.906 19.1347C289.906 20.3521 290.17 21.3201 290.698 22.0387C291.226 22.7574 291.945 23.1167 292.854 23.1167C293.368 23.1167 293.822 22.9994 294.218 22.7647C294.614 22.5301 294.908 22.2147 295.098 21.8187V15.6367ZM308.685 24.1067C308.127 24.5027 307.548 24.8034 306.947 25.0087C306.345 25.1994 305.722 25.2947 305.077 25.2947C303.918 25.2947 303.038 24.9721 302.437 24.3267C301.835 23.6814 301.535 22.7281 301.535 21.4667V13.0627H303.999V20.6527C303.999 21.5474 304.131 22.1781 304.395 22.5447C304.659 22.9114 305.106 23.0947 305.737 23.0947C306.294 23.0947 306.873 22.9774 307.475 22.7427C308.091 22.5081 308.516 22.2294 308.751 21.9067V13.0627H311.215V25.0527H308.751V24.1727L308.685 24.1067ZM323.889 24.6127C323.273 24.8474 322.672 25.0161 322.085 25.1187C321.499 25.2361 320.912 25.2947 320.325 25.2947C318.433 25.2947 316.952 24.7594 315.881 23.6887C314.825 22.6034 314.297 21.0854 314.297 19.1347C314.297 17.2134 314.796 15.6807 315.793 14.5367C316.791 13.3927 318.14 12.8207 319.841 12.8207C321.293 12.8207 322.415 13.2607 323.207 14.1407C323.999 15.0061 324.395 16.2161 324.395 17.7707C324.395 18.1227 324.373 18.4894 324.329 18.8707C324.285 19.2521 324.219 19.6334 324.131 20.0147H316.695C316.842 21.0561 317.216 21.8334 317.817 22.3467C318.419 22.8601 319.262 23.1167 320.347 23.1167C320.89 23.1167 321.455 23.0581 322.041 22.9407C322.643 22.8087 323.259 22.6181 323.889 22.3687V24.6127ZM322.151 17.3087C322.166 16.5461 321.946 15.9374 321.491 15.4827C321.051 15.0134 320.435 14.7787 319.643 14.7787C318.778 14.7787 318.089 15.0647 317.575 15.6367C317.062 16.2087 316.769 17.0227 316.695 18.0787H322.085C322.1 17.9614 322.115 17.8367 322.129 17.7047C322.144 17.5581 322.151 17.4261 322.151 17.3087Z" fill="#212121"/>
</svg>
