<svg width="285" height="344" viewBox="0 0 285 344" fill="none" xmlns="http://www.w3.org/2000/svg">
<rect x="1.5" y="1.5" width="282" height="340.173" rx="30.5" stroke="#212121" stroke-width="3"/>
<path d="M154.871 105.485C154.871 112.609 153.611 119.457 151.307 125.813C146.484 139.079 137.052 150.103 124.948 157.043C120.124 159.806 114.84 161.925 109.279 163.246C107.528 163.676 105.716 164.013 103.903 164.259C101.876 164.535 99.8172 164.72 97.7281 164.812C96.9908 164.842 96.2227 164.842 95.4547 164.842C84.3334 164.842 73.9187 161.772 65.0094 156.459C61.292 154.248 57.8512 151.607 54.7176 148.66C43.289 137.82 36.1309 122.497 36.1309 105.485C36.1309 104.778 36.1309 104.103 36.1616 103.397C37.2676 71.5835 63.4118 46.127 95.5161 46.127C128.296 46.127 154.871 72.689 154.871 105.485Z" fill="#B9E2F3"/>
<path fill-rule="evenodd" clip-rule="evenodd" d="M157.07 127.901L157.068 127.906C151.74 142.559 141.333 154.712 127.997 162.358L127.996 162.359C122.678 165.406 116.853 167.743 110.718 169.202C108.75 169.684 106.733 170.059 104.731 170.33C102.514 170.633 100.269 170.833 97.9975 170.933L97.99 170.934L97.9825 170.934C97.1167 170.97 96.2403 170.97 95.5082 170.97H95.4539C83.1903 170.97 71.6964 167.581 61.871 161.723C57.741 159.267 53.947 156.35 50.5154 153.122L50.5063 153.113L50.4972 153.105C37.9051 141.161 30 124.254 30 105.485L30 105.437C30 104.768 30 103.988 30.0353 103.158C31.2688 68.0708 60.1044 40 95.5154 40C131.683 40 161 69.3074 161 105.485C161 113.336 159.611 120.889 157.07 127.901ZM36.1608 103.397C36.1301 104.103 36.1301 104.779 36.1301 105.485C36.1301 122.497 43.2883 137.82 54.7168 148.66C57.8504 151.608 61.2913 154.249 65.0086 156.46C73.9179 161.772 84.3326 164.843 95.4539 164.843C96.222 164.843 96.99 164.843 97.7273 164.812C99.8164 164.72 101.875 164.536 103.902 164.259C105.715 164.014 107.528 163.676 109.279 163.246C114.839 161.926 120.124 159.807 124.947 157.043C137.051 150.103 146.483 139.079 151.306 125.813C153.61 119.457 154.87 112.609 154.87 105.485C154.87 72.6893 128.296 46.1273 95.5154 46.1273C63.4111 46.1273 37.2668 71.5838 36.1608 103.397Z" fill="#212121"/>
<path d="M109.309 163.215C114.869 161.895 120.123 159.776 124.977 157.012C137.081 150.103 146.482 139.048 151.336 125.783C138.863 121.33 136.221 133.736 136.221 133.736C131.275 133.183 127.68 134.319 125.069 136.039C124.485 136.408 123.963 136.837 123.472 137.267C122.304 138.281 121.413 139.417 120.707 140.492C119.14 142.918 118.648 145.036 118.648 145.036L115.945 140.492L113.18 135.886L111.705 133.429L110.937 132.139C110.384 128.761 108.602 127.441 106.851 127.011C104.701 126.489 102.519 127.287 102.519 127.287C102.519 127.287 102.888 116.294 92.3504 111.964C90.4763 111.197 88.2644 110.644 85.653 110.368C78.802 109.723 73.3643 111.35 69.5548 113.223C65.438 115.25 63.2261 117.584 63.2261 117.584C61.5057 116.171 59.7852 115.434 58.157 115.158C53.7023 114.36 50.1386 116.878 50.1386 116.878C47.4658 107.542 41.7515 104.195 36.1909 103.366C36.1602 104.072 36.1602 104.748 36.1602 105.454C36.1602 122.466 43.3183 137.82 54.7776 148.629C57.9112 151.577 61.352 154.218 65.0694 156.429C73.9787 161.741 84.3934 164.812 95.5147 164.812C96.2827 164.812 97.0201 164.781 97.7881 164.781C99.8772 164.72 101.936 164.505 103.963 164.229L109.309 163.215Z" fill="#617983" fill-opacity="0.5"/>
<path d="M95.5162 142.887H55.332L59.5102 101.524H91.2458L95.5162 142.887Z" fill="#FFE9E9"/>
<path d="M97.7578 164.781C97.0205 164.812 96.2524 164.812 95.4844 164.812C84.3631 164.812 73.9484 161.741 65.0391 156.429C65.4384 152.621 65.93 147.923 66.4215 142.856H95.4537L97.7578 164.781Z" fill="#E96B73"/>
<path d="M66.4516 142.887C65.9294 147.923 65.4378 152.652 65.0692 156.459C61.3518 154.249 57.911 151.608 54.7773 148.66L55.3611 142.887H66.4516Z" fill="#DC4F58"/>
<path d="M70.5379 103.612C70.5072 103.888 68.2645 125.353 66.4826 142.887H55.3613L59.5395 101.524H60.3997L70.5379 103.612Z" fill="#EED3D3"/>
<path d="M66.5438 133.798H55.3611C54.2244 133.798 53.3027 132.876 53.3027 131.74V131.003C53.3027 129.867 54.2244 128.946 55.3611 128.946H66.4209C65.4071 129.437 64.7005 130.328 64.7005 131.341C64.7005 132.385 65.4686 133.306 66.5438 133.798Z" fill="#DC4F58"/>
<path d="M97.6042 131.003V131.74C97.6042 132.876 96.6826 133.797 95.5459 133.797H66.5445C65.4385 133.337 64.7012 132.416 64.7012 131.341C64.7012 130.327 65.377 129.406 66.4216 128.946H95.5459C96.6826 128.915 97.6042 129.836 97.6042 131.003Z" fill="#E96B73"/>
<path d="M126.514 80.3664C125.07 79.7523 123.472 79.3838 121.783 79.3838C115.147 79.3838 109.771 84.7576 109.771 91.3905C109.771 93.1101 110.139 94.7376 110.784 96.2115C106.238 97.9312 103.012 102.292 103.012 107.451C103.012 114.083 108.388 119.457 115.024 119.457C116.652 119.457 118.188 119.15 119.601 118.567C118.803 118.229 117.973 117.799 117.174 117.246C111.429 113.469 111.89 106.437 111.89 106.437C111.89 106.437 112.167 103.274 114.072 100.572C114.686 99.7122 115.454 98.8831 116.437 98.2075C117.512 97.5013 118.219 96.7336 118.649 95.9966C119.479 94.6455 119.448 93.4172 119.325 92.7416C119.233 92.1274 119.141 91.4826 119.171 90.8684C119.386 84.0206 124.025 81.3184 126.514 80.3664Z" fill="#E1ECF1"/>
<path d="M140.184 90.4997C140.246 90.1926 140.276 89.8548 140.276 89.517C140.276 86.4155 137.757 83.8668 134.623 83.8668C133.548 83.8668 132.565 84.1739 131.736 84.6652C130.814 83.2834 129.585 82.1165 128.203 81.226C127.68 80.8882 127.097 80.5811 126.513 80.3354C124.055 81.2874 119.385 84.0204 119.17 90.8681C119.14 91.4823 119.201 92.1272 119.324 92.7413C119.447 93.4169 119.478 94.6452 118.648 95.9963C118.218 96.7333 117.511 97.4703 116.436 98.2073C115.453 98.8828 114.685 99.6812 114.071 100.572C112.166 103.305 111.889 106.437 111.889 106.437C111.889 106.437 111.398 113.469 117.173 117.246C118.003 117.768 118.802 118.229 119.6 118.566C123.103 117.123 125.776 114.083 126.697 110.337C128.694 111.811 131.152 112.671 133.794 112.671C140.43 112.671 145.806 107.297 145.806 100.664C145.775 96.3648 143.533 92.6185 140.184 90.4997Z" fill="#FEF5F5"/>
<path d="M124.947 157.012C120.124 159.776 114.84 161.895 109.279 163.215L111.092 140.492L111.461 135.886L111.645 133.429L112.259 125.906V125.875L112.474 123.05H122.305L122.49 125.629L123.288 135.886L123.381 137.298L123.688 140.492L124.947 157.012Z" fill="#FAC04F"/>
<path d="M109.31 163.215L111.122 140.492L111.491 135.855L111.675 133.429L112.29 125.906V125.875L112.505 123.05H111.645L109.709 123.203L107.067 123.449L106.914 125.629L106.821 126.98L106.115 135.855L105.777 140.492L103.934 164.229L109.31 163.215Z" fill="#ECBA5A"/>
<path d="M109.771 140.492H105.316C104.056 140.492 103.012 139.448 103.012 138.189C103.012 137.544 103.288 136.961 103.688 136.562C104.118 136.132 104.671 135.886 105.316 135.886H109.771C109.125 135.886 108.572 136.132 108.142 136.562C107.712 136.992 107.466 137.544 107.466 138.189C107.466 139.448 108.511 140.492 109.771 140.492Z" fill="#C89551"/>
<path d="M126.451 138.189C126.451 138.834 126.206 139.417 125.776 139.816C125.345 140.246 124.792 140.492 124.147 140.492H109.8C108.541 140.492 107.496 139.448 107.496 138.189C107.496 137.544 107.742 136.961 108.172 136.561C108.602 136.132 109.155 135.886 109.8 135.886H124.147C125.407 135.855 126.451 136.899 126.451 138.189Z" fill="#DEA14E"/>
<path d="M112.657 125.906H108.172C106.544 125.906 105.223 124.586 105.223 122.958V120.164C105.223 118.536 106.544 117.216 108.172 117.216H112.657C111.029 117.216 109.708 118.536 109.708 120.164V122.958C109.708 124.586 111.029 125.906 112.657 125.906Z" fill="#C89551"/>
<path d="M124.238 120.164V122.958C124.238 124.586 122.917 125.906 121.289 125.906H112.656C111.028 125.906 109.707 124.586 109.707 122.958V120.164C109.707 118.536 111.028 117.216 112.656 117.216H121.289C122.917 117.216 124.238 118.536 124.238 120.164Z" fill="#DEA14E"/>
<path d="M147.098 78.3393C146.698 79.1377 146.115 79.8747 145.408 80.5195C142.274 83.3139 137.451 83.0375 134.655 79.9054C131.86 76.7732 132.136 71.9521 135.27 69.1577C136.652 67.8987 138.403 67.2846 140.124 67.2231C138.711 69.9561 139.049 73.3647 141.199 75.7906C142.735 77.5716 144.916 78.4314 147.098 78.3393Z" fill="#E1ECF1"/>
<path d="M146.021 69.772C148.202 72.1979 148.509 75.6372 147.096 78.3394C144.915 78.4008 142.733 77.541 141.197 75.7907C139.016 73.3648 138.709 69.9256 140.122 67.2233C142.273 67.1619 144.454 68.0217 146.021 69.772Z" fill="#FEF5F5"/>
<path d="M103.687 56.4448C103.319 57.1818 102.796 57.8574 102.12 58.4408C99.2325 61.0202 94.7779 60.7746 92.1972 57.8881C89.6166 55.0016 89.8624 50.549 92.7502 47.9695C94.0405 46.8333 95.6381 46.2499 97.2356 46.1885C95.9453 48.7065 96.2218 51.8694 98.2187 54.0803C99.6933 55.7078 101.69 56.5062 103.687 56.4448Z" fill="#4B5A59"/>
<path d="M102.704 48.5529C104.701 50.7945 105.008 53.9574 103.687 56.4447C101.691 56.5062 99.6936 55.7078 98.2497 54.111C96.2528 51.8693 95.9455 48.7064 97.2666 46.2191C99.2635 46.1577 101.26 46.9561 102.704 48.5529Z" fill="#617983"/>
<path d="M116.498 67.653C116.221 68.1751 115.883 68.6357 115.422 69.0349C113.426 70.8159 110.353 70.6317 108.572 68.6357C106.79 66.6397 106.974 63.5689 108.971 61.7879C109.862 60.9895 110.968 60.5903 112.074 60.5596C111.183 62.2792 111.367 64.4901 112.75 66.0255C113.702 67.1617 115.115 67.7144 116.498 67.653Z" fill="#4B5A59"/>
<path d="M115.793 62.1873C117.175 63.7227 117.39 65.9029 116.469 67.6533C115.086 67.684 113.704 67.1619 112.721 66.0258C111.338 64.4904 111.123 62.3101 112.045 60.5598C113.427 60.5291 114.81 61.0818 115.793 62.1873Z" fill="#617983"/>
<path d="M68.4187 90.9295C61.7828 88.6571 63.2575 80.1511 63.7798 77.848C63.8719 77.5102 64.0255 77.1725 64.2713 76.9268C67.3742 73.4568 64.9472 70.2633 64.0563 69.3113C63.8412 69.0964 63.7183 68.8507 63.6262 68.5743C59.448 54.8173 69.9856 48.8294 73.9794 47.1097C72.0747 46.4649 70.0163 46.1578 67.8658 46.2499C59.7552 46.6491 53.1193 53.1591 52.5356 61.2352C52.1976 65.9028 53.8566 70.1711 56.7137 73.3033C54.8397 75.6064 53.3343 78.8307 53.3343 81.9321C53.3343 89.6397 60.554 95.5663 69.0332 95.5663C72.1054 95.5663 74.9625 94.7372 77.3588 93.3246C74.3173 92.6491 71.0915 91.8507 68.4187 90.9295Z" fill="#4B5A59"/>
<path d="M84.8235 63.8454C84.8542 63.3848 84.885 62.8935 84.885 62.4022C84.885 55.9843 81.1676 50.4262 75.7299 47.8161C75.1461 47.5397 74.5317 47.2941 73.9173 47.0791C69.9234 48.8294 59.3858 54.8174 63.564 68.5437C63.5947 68.6972 63.6562 68.8508 63.7176 69.0043C63.7176 69.0043 63.8712 69.1271 64.0863 69.4035C64.0863 69.4035 64.0863 69.4035 64.117 69.4342C64.1477 69.4649 64.1785 69.4956 64.2092 69.5263L64.2399 69.557C64.2706 69.5878 64.3013 69.6185 64.332 69.6492C64.332 69.6799 64.3628 69.6799 64.3628 69.7106C64.3935 69.7413 64.4242 69.772 64.4549 69.8027C64.4857 69.8334 64.4857 69.8334 64.5164 69.8641C64.5471 69.8948 64.5778 69.9562 64.6086 69.987C64.6086 70.0177 64.6393 70.0177 64.6393 70.0484C64.7314 70.1712 64.8236 70.294 64.9158 70.4476C64.9158 70.4783 64.9465 70.4783 64.9465 70.509C64.9772 70.5704 65.0079 70.6011 65.0386 70.6625C65.0694 70.6932 65.0694 70.7239 65.1001 70.7546C65.1308 70.8161 65.1615 70.8468 65.1923 70.9082C65.1923 70.9389 65.223 70.9696 65.223 71.0003C65.2537 71.0617 65.2844 71.1231 65.2844 71.1538C65.2844 71.1845 65.3152 71.2153 65.3152 71.246C65.3459 71.3074 65.3766 71.3995 65.4073 71.4609C65.4073 71.4609 65.4073 71.4916 65.438 71.4916C65.4688 71.5838 65.4995 71.6759 65.5302 71.768C65.5302 71.7987 65.5609 71.8294 65.5609 71.8601C65.5916 71.9215 65.5916 71.9829 65.6224 72.0751C65.6224 72.1058 65.6531 72.1365 65.6531 72.1672C65.6531 72.2286 65.6838 72.29 65.6838 72.3514C65.6838 72.3821 65.6838 72.4129 65.7145 72.4743C65.7145 72.5357 65.7453 72.5971 65.7453 72.6585C65.7453 72.6892 65.7453 72.7199 65.7453 72.7813C65.7453 72.8735 65.7453 72.9349 65.776 73.027C65.776 73.0577 65.776 73.0884 65.776 73.1191C65.776 73.2113 65.776 73.3341 65.776 73.4262C65.776 73.4569 65.776 73.4876 65.776 73.5183C65.776 73.6105 65.776 73.6719 65.7453 73.764C65.7453 73.7947 65.7453 73.8561 65.7453 73.8868C65.7453 73.9482 65.7145 74.0404 65.7145 74.1018C65.7145 74.1325 65.6838 74.1939 65.6838 74.2246C65.6838 74.286 65.6531 74.3781 65.6224 74.4396C65.6224 74.4703 65.5917 74.5317 65.5917 74.5624C65.5609 74.6545 65.5302 74.7159 65.4995 74.808C65.4995 74.8388 65.4688 74.8695 65.4688 74.9002C65.438 75.023 65.3766 75.1458 65.3152 75.2687C65.3152 75.2994 65.2844 75.2994 65.2844 75.3301C65.223 75.4222 65.1923 75.545 65.1308 75.6372C65.1001 75.6679 65.0694 75.7293 65.0694 75.76C65.0079 75.8521 64.9772 75.9135 64.9158 76.0056C64.885 76.0363 64.8543 76.0978 64.8236 76.1285C64.7622 76.2206 64.7007 76.282 64.67 76.3741C64.6393 76.4048 64.6085 76.4663 64.5778 76.497C64.5164 76.5891 64.4549 76.6505 64.3628 76.7426C64.3321 76.7733 64.3013 76.8347 64.2706 76.8655C64.1477 76.9883 64.0556 77.1111 63.9327 77.2339C63.9327 77.2339 63.8712 77.4489 63.7791 77.8174C63.2568 80.1205 61.7821 88.6265 68.418 90.8988C71.1216 91.82 74.3166 92.6184 77.3581 93.2633C77.5732 93.1405 77.7575 93.0176 77.9725 92.8948C80.0002 93.8775 82.2429 94.4302 84.6392 94.4302C93.0877 94.4302 99.9386 87.5824 99.9386 79.1378C99.9386 70.7854 93.1798 63.9683 84.8235 63.8454Z" fill="#617983"/>
<path d="M95.3626 94.5839V101.8C95.3626 103.827 93.7343 105.454 91.7067 105.454H68.4196C66.3919 105.454 64.7637 103.827 64.7637 101.8V94.5839C64.7637 92.5572 66.3919 90.9297 68.4196 90.9297H91.7067C93.7343 90.9297 95.3626 92.5879 95.3626 94.5839Z" fill="#E96B73"/>
<path d="M68.4179 105.485H59.2321C57.2044 105.485 55.5762 103.858 55.5762 101.831V94.6147C55.5762 92.588 57.2044 90.9604 59.2321 90.9604H68.4179C66.3902 90.9604 64.762 92.588 64.762 94.6147V101.8C64.7313 103.827 66.3902 105.485 68.4179 105.485Z" fill="#DC4F58"/>
<path d="M44.7432 212.659H49.269C49.1782 214.143 48.7695 215.459 48.043 216.61C47.3265 217.76 46.3224 218.658 45.0308 219.304C43.7492 219.95 42.2052 220.273 40.3989 220.273C38.9862 220.273 37.7197 220.031 36.5996 219.546C35.4795 219.052 34.5208 218.346 33.7236 217.427C32.9365 216.509 32.3361 215.399 31.9224 214.097C31.5086 212.795 31.3018 211.337 31.3018 209.723V208.194C31.3018 206.579 31.5137 205.121 31.9375 203.819C32.3714 202.507 32.987 201.392 33.7842 200.474C34.5915 199.556 35.5552 198.849 36.6753 198.355C37.7954 197.861 39.0467 197.613 40.4292 197.613C42.2658 197.613 43.8148 197.946 45.0762 198.612C46.3477 199.278 47.3315 200.197 48.0278 201.367C48.7342 202.538 49.158 203.87 49.2993 205.363H44.7583C44.7078 204.475 44.5312 203.723 44.2285 203.108C43.9258 202.482 43.4666 202.013 42.8511 201.7C42.2456 201.377 41.4383 201.216 40.4292 201.216C39.6724 201.216 39.0114 201.357 38.4463 201.64C37.8812 201.922 37.4069 202.351 37.0234 202.926C36.64 203.501 36.3524 204.228 36.1606 205.106C35.979 205.974 35.8882 206.993 35.8882 208.164V209.723C35.8882 210.863 35.974 211.867 36.1455 212.735C36.3171 213.593 36.5794 214.319 36.9326 214.915C37.2959 215.5 37.7601 215.944 38.3252 216.247C38.9004 216.539 39.5916 216.686 40.3989 216.686C41.3475 216.686 42.1296 216.534 42.7451 216.231C43.3607 215.929 43.8299 215.48 44.1528 214.884C44.4858 214.289 44.6826 213.547 44.7432 212.659ZM51.2822 211.948V211.63C51.2822 210.429 51.4538 209.324 51.7969 208.315C52.14 207.296 52.6395 206.413 53.2954 205.666C53.9513 204.919 54.7586 204.339 55.7173 203.925C56.6759 203.501 57.7759 203.29 59.0171 203.29C60.2583 203.29 61.3633 203.501 62.332 203.925C63.3008 204.339 64.1131 204.919 64.769 205.666C65.4351 206.413 65.9396 207.296 66.2827 208.315C66.6258 209.324 66.7974 210.429 66.7974 211.63V211.948C66.7974 213.139 66.6258 214.243 66.2827 215.263C65.9396 216.272 65.4351 217.155 64.769 217.912C64.1131 218.658 63.3058 219.239 62.3472 219.652C61.3885 220.066 60.2886 220.273 59.0474 220.273C57.8062 220.273 56.7012 220.066 55.7324 219.652C54.7738 219.239 53.9614 218.658 53.2954 217.912C52.6395 217.155 52.14 216.272 51.7969 215.263C51.4538 214.243 51.2822 213.139 51.2822 211.948ZM55.6416 211.63V211.948C55.6416 212.634 55.7021 213.275 55.8232 213.87C55.9443 214.465 56.1361 214.99 56.3984 215.444C56.6709 215.888 57.0241 216.236 57.458 216.489C57.8919 216.741 58.4217 216.867 59.0474 216.867C59.6528 216.867 60.1725 216.741 60.6064 216.489C61.0404 216.236 61.3885 215.888 61.6509 215.444C61.9132 214.99 62.105 214.465 62.2261 213.87C62.3573 213.275 62.4229 212.634 62.4229 211.948V211.63C62.4229 210.964 62.3573 210.338 62.2261 209.753C62.105 209.158 61.9082 208.633 61.6357 208.179C61.3734 207.715 61.0252 207.351 60.5913 207.089C60.1574 206.826 59.6326 206.695 59.0171 206.695C58.4015 206.695 57.8768 206.826 57.4429 207.089C57.019 207.351 56.6709 207.715 56.3984 208.179C56.1361 208.633 55.9443 209.158 55.8232 209.753C55.7021 210.338 55.6416 210.964 55.6416 211.63ZM73.7451 207.089V219.97H69.3857V203.592H73.4727L73.7451 207.089ZM73.1094 211.206H71.9287C71.9287 209.995 72.0851 208.905 72.3979 207.937C72.7108 206.958 73.1497 206.125 73.7148 205.439C74.2799 204.743 74.951 204.213 75.728 203.85C76.5151 203.476 77.3931 203.29 78.3618 203.29C79.1287 203.29 79.8301 203.401 80.4658 203.623C81.1016 203.845 81.6465 204.198 82.1006 204.682C82.5648 205.167 82.918 205.807 83.1602 206.604C83.4124 207.402 83.5386 208.375 83.5386 209.526V219.97H79.1489V209.511C79.1489 208.784 79.048 208.219 78.8462 207.815C78.6444 207.412 78.3467 207.129 77.9531 206.968C77.5697 206.796 77.0954 206.71 76.5303 206.71C75.945 206.71 75.4354 206.826 75.0015 207.059C74.5776 207.291 74.2244 207.614 73.9419 208.027C73.6694 208.431 73.4626 208.905 73.3213 209.45C73.18 209.995 73.1094 210.58 73.1094 211.206ZM95.7085 215.444C95.7085 215.132 95.6177 214.849 95.436 214.597C95.2544 214.344 94.9163 214.112 94.4219 213.9C93.9375 213.678 93.2362 213.477 92.3179 213.295C91.4904 213.113 90.7184 212.886 90.002 212.614C89.2956 212.331 88.68 211.993 88.1553 211.6C87.6406 211.206 87.237 210.742 86.9443 210.207C86.6517 209.662 86.5054 209.042 86.5054 208.345C86.5054 207.659 86.6517 207.013 86.9443 206.408C87.2471 205.802 87.6759 205.267 88.231 204.803C88.7961 204.329 89.4823 203.961 90.2896 203.698C91.1069 203.426 92.0252 203.29 93.0444 203.29C94.4673 203.29 95.6883 203.517 96.7075 203.971C97.7368 204.425 98.5239 205.05 99.0688 205.848C99.6239 206.635 99.9014 207.533 99.9014 208.542H95.542C95.542 208.118 95.4512 207.74 95.2695 207.407C95.098 207.064 94.8255 206.796 94.4521 206.604C94.0889 206.403 93.6146 206.302 93.0293 206.302C92.5449 206.302 92.1261 206.388 91.7729 206.559C91.4198 206.721 91.1473 206.943 90.9556 207.225C90.7739 207.498 90.6831 207.8 90.6831 208.133C90.6831 208.386 90.7336 208.613 90.8345 208.814C90.9455 209.006 91.1221 209.183 91.3643 209.344C91.6064 209.506 91.9193 209.657 92.3027 209.798C92.6963 209.93 93.1807 210.051 93.7559 210.162C94.9365 210.404 95.991 210.722 96.9194 211.115C97.8478 211.499 98.5845 212.023 99.1294 212.689C99.6743 213.345 99.9468 214.208 99.9468 215.278C99.9468 216.004 99.7853 216.67 99.4624 217.276C99.1395 217.881 98.6753 218.411 98.0698 218.865C97.4644 219.309 96.7378 219.657 95.8901 219.91C95.0526 220.152 94.109 220.273 93.0596 220.273C91.5358 220.273 90.2441 220 89.1846 219.456C88.1351 218.911 87.3379 218.219 86.793 217.382C86.2581 216.534 85.9907 215.666 85.9907 214.778H90.123C90.1432 215.374 90.2946 215.853 90.5771 216.216C90.8698 216.58 91.2381 216.842 91.6821 217.003C92.1362 217.165 92.6257 217.246 93.1504 217.246C93.7155 217.246 94.1847 217.17 94.5581 217.019C94.9315 216.857 95.214 216.645 95.4058 216.383C95.6076 216.11 95.7085 215.798 95.7085 215.444ZM102.081 211.948V211.63C102.081 210.429 102.253 209.324 102.596 208.315C102.939 207.296 103.438 206.413 104.094 205.666C104.75 204.919 105.557 204.339 106.516 203.925C107.475 203.501 108.575 203.29 109.816 203.29C111.057 203.29 112.162 203.501 113.131 203.925C114.1 204.339 114.912 204.919 115.568 205.666C116.234 206.413 116.738 207.296 117.082 208.315C117.425 209.324 117.596 210.429 117.596 211.63V211.948C117.596 213.139 117.425 214.243 117.082 215.263C116.738 216.272 116.234 217.155 115.568 217.912C114.912 218.658 114.105 219.239 113.146 219.652C112.187 220.066 111.087 220.273 109.846 220.273C108.605 220.273 107.5 220.066 106.531 219.652C105.573 219.239 104.76 218.658 104.094 217.912C103.438 217.155 102.939 216.272 102.596 215.263C102.253 214.243 102.081 213.139 102.081 211.948ZM106.44 211.63V211.948C106.44 212.634 106.501 213.275 106.622 213.87C106.743 214.465 106.935 214.99 107.197 215.444C107.47 215.888 107.823 216.236 108.257 216.489C108.691 216.741 109.221 216.867 109.846 216.867C110.452 216.867 110.971 216.741 111.405 216.489C111.839 216.236 112.187 215.888 112.45 215.444C112.712 214.99 112.904 214.465 113.025 213.87C113.156 213.275 113.222 212.634 113.222 211.948V211.63C113.222 210.964 113.156 210.338 113.025 209.753C112.904 209.158 112.707 208.633 112.435 208.179C112.172 207.715 111.824 207.351 111.39 207.089C110.956 206.826 110.431 206.695 109.816 206.695C109.2 206.695 108.676 206.826 108.242 207.089C107.818 207.351 107.47 207.715 107.197 208.179C106.935 208.633 106.743 209.158 106.622 209.753C106.501 210.338 106.44 210.964 106.44 211.63ZM124.635 206.983V219.97H120.26V203.592H124.362L124.635 206.983ZM124.029 211.206H122.818C122.818 210.066 122.955 209.016 123.227 208.058C123.51 207.089 123.918 206.251 124.453 205.545C124.998 204.828 125.669 204.273 126.466 203.88C127.264 203.486 128.187 203.29 129.236 203.29C129.963 203.29 130.629 203.401 131.234 203.623C131.84 203.834 132.36 204.173 132.793 204.637C133.237 205.091 133.581 205.686 133.823 206.423C134.065 207.149 134.186 208.022 134.186 209.042V219.97H129.827V209.526C129.827 208.779 129.726 208.204 129.524 207.8C129.322 207.397 129.035 207.114 128.661 206.953C128.298 206.791 127.859 206.71 127.344 206.71C126.779 206.71 126.285 206.826 125.861 207.059C125.447 207.291 125.104 207.614 124.832 208.027C124.559 208.431 124.357 208.905 124.226 209.45C124.095 209.995 124.029 210.58 124.029 211.206ZM133.777 210.707L132.218 210.903C132.218 209.834 132.349 208.84 132.612 207.921C132.884 207.003 133.283 206.196 133.808 205.5C134.342 204.803 135.003 204.263 135.791 203.88C136.578 203.486 137.486 203.29 138.515 203.29C139.302 203.29 140.019 203.406 140.665 203.638C141.31 203.86 141.86 204.218 142.314 204.712C142.779 205.197 143.132 205.833 143.374 206.62C143.626 207.407 143.752 208.37 143.752 209.511V219.97H139.378V209.511C139.378 208.754 139.277 208.179 139.075 207.785C138.883 207.382 138.601 207.104 138.228 206.953C137.864 206.791 137.43 206.71 136.926 206.71C136.401 206.71 135.942 206.816 135.548 207.028C135.155 207.23 134.827 207.513 134.564 207.876C134.302 208.239 134.105 208.663 133.974 209.147C133.843 209.622 133.777 210.141 133.777 210.707ZM151.487 206.983V219.97H147.113V203.592H151.215L151.487 206.983ZM150.882 211.206H149.671C149.671 210.066 149.807 209.016 150.08 208.058C150.362 207.089 150.771 206.251 151.306 205.545C151.851 204.828 152.522 204.273 153.319 203.88C154.116 203.486 155.039 203.29 156.089 203.29C156.815 203.29 157.481 203.401 158.087 203.623C158.692 203.834 159.212 204.173 159.646 204.637C160.09 205.091 160.433 205.686 160.675 206.423C160.917 207.149 161.039 208.022 161.039 209.042V219.97H156.679V209.526C156.679 208.779 156.578 208.204 156.376 207.8C156.175 207.397 155.887 207.114 155.514 206.953C155.15 206.791 154.711 206.71 154.197 206.71C153.632 206.71 153.137 206.826 152.713 207.059C152.3 207.291 151.957 207.614 151.684 208.027C151.412 208.431 151.21 208.905 151.079 209.45C150.947 209.995 150.882 210.58 150.882 211.206ZM160.63 210.707L159.071 210.903C159.071 209.834 159.202 208.84 159.464 207.921C159.737 207.003 160.135 206.196 160.66 205.5C161.195 204.803 161.856 204.263 162.643 203.88C163.43 203.486 164.338 203.29 165.368 203.29C166.155 203.29 166.871 203.406 167.517 203.638C168.163 203.86 168.713 204.218 169.167 204.712C169.631 205.197 169.984 205.833 170.227 206.62C170.479 207.407 170.605 208.37 170.605 209.511V219.97H166.23V209.511C166.23 208.754 166.13 208.179 165.928 207.785C165.736 207.382 165.453 207.104 165.08 206.953C164.717 206.791 164.283 206.71 163.778 206.71C163.254 206.71 162.794 206.816 162.401 207.028C162.007 207.23 161.679 207.513 161.417 207.876C161.155 208.239 160.958 208.663 160.827 209.147C160.695 209.622 160.63 210.141 160.63 210.707ZM182.82 216.277V208.981C182.82 208.456 182.735 208.007 182.563 207.634C182.391 207.25 182.124 206.953 181.761 206.741C181.408 206.529 180.948 206.423 180.383 206.423C179.899 206.423 179.48 206.509 179.127 206.68C178.774 206.842 178.501 207.079 178.31 207.392C178.118 207.694 178.022 208.053 178.022 208.466H173.663C173.663 207.77 173.824 207.109 174.147 206.483C174.47 205.858 174.939 205.308 175.555 204.833C176.17 204.349 176.902 203.971 177.75 203.698C178.607 203.426 179.566 203.29 180.625 203.29C181.897 203.29 183.027 203.501 184.016 203.925C185.005 204.349 185.782 204.985 186.347 205.833C186.922 206.68 187.21 207.74 187.21 209.011V216.02C187.21 216.918 187.265 217.654 187.376 218.229C187.487 218.795 187.649 219.289 187.861 219.713V219.97H183.456C183.244 219.526 183.083 218.971 182.972 218.305C182.871 217.629 182.82 216.953 182.82 216.277ZM183.396 209.995L183.426 212.462H180.989C180.414 212.462 179.914 212.528 179.49 212.659C179.066 212.79 178.718 212.977 178.446 213.219C178.173 213.451 177.972 213.724 177.84 214.037C177.719 214.349 177.659 214.693 177.659 215.066C177.659 215.439 177.744 215.777 177.916 216.08C178.088 216.373 178.335 216.605 178.658 216.776C178.981 216.938 179.359 217.019 179.793 217.019C180.449 217.019 181.019 216.887 181.503 216.625C181.988 216.363 182.361 216.04 182.624 215.656C182.896 215.273 183.037 214.91 183.047 214.566L184.198 216.413C184.036 216.827 183.814 217.256 183.532 217.7C183.259 218.144 182.911 218.562 182.487 218.956C182.063 219.34 181.554 219.657 180.958 219.91C180.363 220.152 179.657 220.273 178.839 220.273C177.8 220.273 176.856 220.066 176.009 219.652C175.171 219.229 174.505 218.648 174.011 217.912C173.526 217.165 173.284 216.317 173.284 215.369C173.284 214.511 173.446 213.749 173.769 213.083C174.091 212.417 174.566 211.857 175.191 211.403C175.827 210.939 176.619 210.59 177.568 210.358C178.516 210.116 179.616 209.995 180.868 209.995H183.396ZM198.593 203.592V206.68H189.057V203.592H198.593ZM191.418 199.551H195.777V215.036C195.777 215.51 195.838 215.873 195.959 216.125C196.09 216.378 196.282 216.554 196.534 216.655C196.786 216.746 197.104 216.792 197.488 216.792C197.76 216.792 198.002 216.781 198.214 216.761C198.436 216.731 198.623 216.701 198.774 216.67L198.79 219.879C198.416 220 198.013 220.096 197.579 220.167C197.145 220.238 196.665 220.273 196.141 220.273C195.182 220.273 194.344 220.117 193.628 219.804C192.922 219.481 192.377 218.966 191.993 218.26C191.61 217.553 191.418 216.625 191.418 215.475V199.551ZM205.677 203.592V219.97H201.302V203.592H205.677ZM201.03 199.324C201.03 198.688 201.252 198.163 201.696 197.75C202.14 197.336 202.735 197.129 203.482 197.129C204.219 197.129 204.809 197.336 205.253 197.75C205.707 198.163 205.934 198.688 205.934 199.324C205.934 199.959 205.707 200.484 205.253 200.898C204.809 201.312 204.219 201.519 203.482 201.519C202.735 201.519 202.14 201.312 201.696 200.898C201.252 200.484 201.03 199.959 201.03 199.324ZM208.583 211.948V211.63C208.583 210.429 208.755 209.324 209.098 208.315C209.441 207.296 209.94 206.413 210.596 205.666C211.252 204.919 212.059 204.339 213.018 203.925C213.977 203.501 215.077 203.29 216.318 203.29C217.559 203.29 218.664 203.501 219.633 203.925C220.602 204.339 221.414 204.919 222.07 205.666C222.736 206.413 223.24 207.296 223.583 208.315C223.927 209.324 224.098 210.429 224.098 211.63V211.948C224.098 213.139 223.927 214.243 223.583 215.263C223.24 216.272 222.736 217.155 222.07 217.912C221.414 218.658 220.607 219.239 219.648 219.652C218.689 220.066 217.589 220.273 216.348 220.273C215.107 220.273 214.002 220.066 213.033 219.652C212.075 219.239 211.262 218.658 210.596 217.912C209.94 217.155 209.441 216.272 209.098 215.263C208.755 214.243 208.583 213.139 208.583 211.948ZM212.942 211.63V211.948C212.942 212.634 213.003 213.275 213.124 213.87C213.245 214.465 213.437 214.99 213.699 215.444C213.972 215.888 214.325 216.236 214.759 216.489C215.193 216.741 215.722 216.867 216.348 216.867C216.954 216.867 217.473 216.741 217.907 216.489C218.341 216.236 218.689 215.888 218.952 215.444C219.214 214.99 219.406 214.465 219.527 213.87C219.658 213.275 219.724 212.634 219.724 211.948V211.63C219.724 210.964 219.658 210.338 219.527 209.753C219.406 209.158 219.209 208.633 218.937 208.179C218.674 207.715 218.326 207.351 217.892 207.089C217.458 206.826 216.933 206.695 216.318 206.695C215.702 206.695 215.178 206.826 214.744 207.089C214.32 207.351 213.972 207.715 213.699 208.179C213.437 208.633 213.245 209.158 213.124 209.753C213.003 210.338 212.942 210.964 212.942 211.63ZM231.046 207.089V219.97H226.687V203.592H230.773L231.046 207.089ZM230.41 211.206H229.229C229.229 209.995 229.386 208.905 229.699 207.937C230.012 206.958 230.451 206.125 231.016 205.439C231.581 204.743 232.252 204.213 233.029 203.85C233.816 203.476 234.694 203.29 235.663 203.29C236.43 203.29 237.131 203.401 237.767 203.623C238.402 203.845 238.947 204.198 239.401 204.682C239.866 205.167 240.219 205.807 240.461 206.604C240.713 207.402 240.839 208.375 240.839 209.526V219.97H236.45V209.511C236.45 208.784 236.349 208.219 236.147 207.815C235.945 207.412 235.647 207.129 235.254 206.968C234.87 206.796 234.396 206.71 233.831 206.71C233.246 206.71 232.736 206.826 232.302 207.059C231.878 207.291 231.525 207.614 231.243 208.027C230.97 208.431 230.763 208.905 230.622 209.45C230.481 209.995 230.41 210.58 230.41 211.206ZM41.3677 252.398V232.72H45.7573V255.97H41.8066L41.3677 252.398ZM31.0142 247.978V247.66C31.0142 246.409 31.1554 245.274 31.438 244.254C31.7205 243.225 32.1343 242.342 32.6792 241.605C33.2241 240.869 33.8952 240.299 34.6924 239.895C35.4896 239.491 36.3978 239.29 37.417 239.29C38.3757 239.29 39.2132 239.491 39.9297 239.895C40.6562 240.299 41.2718 240.874 41.7764 241.621C42.291 242.357 42.7048 243.23 43.0176 244.239C43.3304 245.238 43.5575 246.333 43.6987 247.524V248.22C43.5575 249.361 43.3304 250.42 43.0176 251.399C42.7048 252.378 42.291 253.236 41.7764 253.972C41.2718 254.699 40.6562 255.264 39.9297 255.667C39.2031 256.071 38.3555 256.273 37.3867 256.273C36.3675 256.273 35.4593 256.066 34.6621 255.652C33.875 255.239 33.209 254.658 32.6641 253.912C32.1292 253.165 31.7205 252.287 31.438 251.278C31.1554 250.269 31.0142 249.169 31.0142 247.978ZM35.3735 247.66V247.978C35.3735 248.654 35.424 249.285 35.5249 249.87C35.6359 250.455 35.8125 250.975 36.0547 251.429C36.307 251.873 36.6299 252.221 37.0234 252.474C37.4271 252.716 37.9165 252.837 38.4917 252.837C39.2384 252.837 39.854 252.67 40.3384 252.337C40.8228 251.994 41.1911 251.525 41.4434 250.93C41.7057 250.334 41.8571 249.648 41.8975 248.871V246.888C41.8672 246.252 41.7764 245.682 41.625 245.178C41.4837 244.663 41.2718 244.224 40.9893 243.861C40.7168 243.498 40.3737 243.215 39.96 243.013C39.5563 242.811 39.077 242.71 38.522 242.71C37.9569 242.71 37.4725 242.842 37.0688 243.104C36.6652 243.356 36.3372 243.704 36.085 244.148C35.8428 244.592 35.6611 245.117 35.54 245.723C35.429 246.318 35.3735 246.964 35.3735 247.66ZM53.144 232.72V235.021C53.144 235.677 53.0179 236.353 52.7656 237.049C52.5234 237.746 52.1955 238.407 51.7817 239.032C51.368 239.648 50.9139 240.173 50.4194 240.606L48.376 239.426C48.7493 238.83 49.0672 238.185 49.3296 237.488C49.592 236.782 49.7231 235.965 49.7231 235.036V232.72H53.144ZM62.4531 256.273C61.1816 256.273 60.0413 256.071 59.0322 255.667C58.0231 255.254 57.1654 254.684 56.459 253.957C55.7627 253.23 55.2279 252.388 54.8545 251.429C54.4811 250.46 54.2944 249.431 54.2944 248.341V247.736C54.2944 246.495 54.471 245.359 54.8242 244.33C55.1774 243.301 55.682 242.408 56.3379 241.651C57.0039 240.894 57.8112 240.314 58.7598 239.91C59.7083 239.496 60.778 239.29 61.9688 239.29C63.1292 239.29 64.1585 239.481 65.0566 239.865C65.9548 240.248 66.7065 240.793 67.312 241.5C67.9276 242.206 68.3918 243.054 68.7046 244.042C69.0174 245.021 69.1738 246.111 69.1738 247.312V249.128H56.1562V246.222H64.8901V245.889C64.8901 245.284 64.7791 244.744 64.5571 244.27C64.3452 243.785 64.0223 243.402 63.5884 243.119C63.1545 242.837 62.5994 242.695 61.9233 242.695C61.3481 242.695 60.8537 242.821 60.4399 243.074C60.0262 243.326 59.6882 243.679 59.4258 244.133C59.1735 244.587 58.9818 245.122 58.8506 245.738C58.7295 246.343 58.6689 247.009 58.6689 247.736V248.341C58.6689 248.997 58.7598 249.603 58.9414 250.158C59.1331 250.713 59.4006 251.192 59.7437 251.596C60.0968 251.999 60.5207 252.312 61.0151 252.534C61.5197 252.756 62.0898 252.867 62.7256 252.867C63.5127 252.867 64.2443 252.716 64.9204 252.413C65.6066 252.1 66.1969 251.631 66.6914 251.005L68.8105 253.306C68.4674 253.801 67.9982 254.275 67.4028 254.729C66.8175 255.183 66.1112 255.556 65.2837 255.849C64.4562 256.132 63.5127 256.273 62.4531 256.273ZM59.3804 237.367L62.3472 232.705H67.085L62.9224 237.367H59.3804ZM75.9248 243.089V255.97H71.5654V239.592H75.6523L75.9248 243.089ZM75.2891 247.206H74.1084C74.1084 245.995 74.2648 244.905 74.5776 243.937C74.8905 242.958 75.3294 242.125 75.8945 241.439C76.4596 240.743 77.1307 240.213 77.9077 239.85C78.6948 239.476 79.5728 239.29 80.5415 239.29C81.3084 239.29 82.0098 239.401 82.6455 239.623C83.2812 239.845 83.8262 240.198 84.2803 240.682C84.7445 241.167 85.0977 241.807 85.3398 242.604C85.5921 243.402 85.7183 244.375 85.7183 245.526V255.97H81.3286V245.511C81.3286 244.784 81.2277 244.219 81.0259 243.815C80.8241 243.412 80.5264 243.129 80.1328 242.968C79.7493 242.796 79.2751 242.71 78.71 242.71C78.1247 242.71 77.6151 242.826 77.1812 243.059C76.7573 243.291 76.4041 243.614 76.1216 244.027C75.8491 244.431 75.6423 244.905 75.501 245.45C75.3597 245.995 75.2891 246.58 75.2891 247.206ZM96.5713 256.273C95.2998 256.273 94.1595 256.071 93.1504 255.667C92.1413 255.254 91.2835 254.684 90.5771 253.957C89.8809 253.23 89.346 252.388 88.9727 251.429C88.5993 250.46 88.4126 249.431 88.4126 248.341V247.736C88.4126 246.495 88.5892 245.359 88.9424 244.33C89.2956 243.301 89.8001 242.408 90.4561 241.651C91.1221 240.894 91.9294 240.314 92.8779 239.91C93.8265 239.496 94.8962 239.29 96.0869 239.29C97.2474 239.29 98.2767 239.481 99.1748 239.865C100.073 240.248 100.825 240.793 101.43 241.5C102.046 242.206 102.51 243.054 102.823 244.042C103.136 245.021 103.292 246.111 103.292 247.312V249.128H90.2744V246.222H99.0083V245.889C99.0083 245.284 98.8973 244.744 98.6753 244.27C98.4634 243.785 98.1405 243.402 97.7065 243.119C97.2726 242.837 96.7176 242.695 96.0415 242.695C95.4663 242.695 94.9718 242.821 94.5581 243.074C94.1444 243.326 93.8063 243.679 93.5439 244.133C93.2917 244.587 93.0999 245.122 92.9688 245.738C92.8477 246.343 92.7871 247.009 92.7871 247.736V248.341C92.7871 248.997 92.8779 249.603 93.0596 250.158C93.2513 250.713 93.5187 251.192 93.8618 251.596C94.215 251.999 94.6388 252.312 95.1333 252.534C95.6379 252.756 96.208 252.867 96.8438 252.867C97.6309 252.867 98.3625 252.716 99.0386 252.413C99.7248 252.1 100.315 251.631 100.81 251.005L102.929 253.306C102.586 253.801 102.116 254.275 101.521 254.729C100.936 255.183 100.229 255.556 99.4019 255.849C98.5744 256.132 97.6309 256.273 96.5713 256.273ZM110.134 243.165V255.97H105.774V239.592H109.876L110.134 243.165ZM115.068 239.486L114.993 243.528C114.781 243.498 114.523 243.472 114.221 243.452C113.928 243.422 113.661 243.407 113.418 243.407C112.803 243.407 112.268 243.487 111.814 243.649C111.37 243.8 110.997 244.027 110.694 244.33C110.401 244.633 110.179 245.001 110.028 245.435C109.887 245.869 109.806 246.363 109.786 246.918L108.908 246.646C108.908 245.586 109.014 244.613 109.226 243.725C109.438 242.826 109.745 242.044 110.149 241.378C110.563 240.712 111.067 240.198 111.663 239.834C112.258 239.471 112.939 239.29 113.706 239.29C113.948 239.29 114.195 239.31 114.448 239.35C114.7 239.38 114.907 239.426 115.068 239.486ZM127.193 239.592H131.144V255.425C131.144 256.919 130.811 258.185 130.145 259.225C129.489 260.274 128.57 261.066 127.39 261.601C126.209 262.146 124.837 262.418 123.272 262.418C122.586 262.418 121.86 262.328 121.093 262.146C120.336 261.964 119.609 261.682 118.913 261.298C118.227 260.915 117.652 260.431 117.188 259.845L119.11 257.272C119.614 257.857 120.2 258.311 120.866 258.634C121.532 258.967 122.268 259.134 123.076 259.134C123.863 259.134 124.529 258.987 125.074 258.695C125.619 258.412 126.037 257.993 126.33 257.438C126.623 256.894 126.769 256.233 126.769 255.456V243.376L127.193 239.592ZM116.173 247.978V247.66C116.173 246.409 116.325 245.274 116.627 244.254C116.94 243.225 117.379 242.342 117.944 241.605C118.52 240.869 119.216 240.299 120.033 239.895C120.851 239.491 121.774 239.29 122.803 239.29C123.893 239.29 124.806 239.491 125.543 239.895C126.28 240.299 126.885 240.874 127.359 241.621C127.834 242.357 128.202 243.23 128.464 244.239C128.737 245.238 128.949 246.333 129.1 247.524V248.22C128.949 249.361 128.722 250.42 128.419 251.399C128.116 252.378 127.718 253.236 127.223 253.972C126.729 254.699 126.113 255.264 125.376 255.667C124.65 256.071 123.782 256.273 122.773 256.273C121.764 256.273 120.851 256.066 120.033 255.652C119.226 255.239 118.535 254.658 117.959 253.912C117.384 253.165 116.94 252.287 116.627 251.278C116.325 250.269 116.173 249.169 116.173 247.978ZM120.533 247.66V247.978C120.533 248.654 120.598 249.285 120.729 249.87C120.861 250.455 121.062 250.975 121.335 251.429C121.618 251.873 121.966 252.221 122.379 252.474C122.803 252.716 123.303 252.837 123.878 252.837C124.675 252.837 125.326 252.67 125.831 252.337C126.335 251.994 126.714 251.525 126.966 250.93C127.218 250.334 127.364 249.648 127.405 248.871V246.888C127.385 246.252 127.299 245.682 127.147 245.178C126.996 244.663 126.784 244.224 126.512 243.861C126.239 243.498 125.886 243.215 125.452 243.013C125.018 242.811 124.504 242.71 123.908 242.71C123.333 242.71 122.833 242.842 122.41 243.104C121.996 243.356 121.648 243.704 121.365 244.148C121.093 244.592 120.886 245.117 120.745 245.723C120.603 246.318 120.533 246.964 120.533 247.66ZM139.136 239.592V255.97H134.761V239.592H139.136ZM134.489 235.324C134.489 234.688 134.711 234.163 135.155 233.75C135.599 233.336 136.194 233.129 136.941 233.129C137.678 233.129 138.268 233.336 138.712 233.75C139.166 234.163 139.393 234.688 139.393 235.324C139.393 235.959 139.166 236.484 138.712 236.898C138.268 237.312 137.678 237.519 136.941 237.519C136.194 237.519 135.599 237.312 135.155 236.898C134.711 236.484 134.489 235.959 134.489 235.324ZM150.276 256.273C149.005 256.273 147.865 256.071 146.855 255.667C145.846 255.254 144.989 254.684 144.282 253.957C143.586 253.23 143.051 252.388 142.678 251.429C142.304 250.46 142.118 249.431 142.118 248.341V247.736C142.118 246.495 142.294 245.359 142.647 244.33C143.001 243.301 143.505 242.408 144.161 241.651C144.827 240.894 145.634 240.314 146.583 239.91C147.532 239.496 148.601 239.29 149.792 239.29C150.952 239.29 151.982 239.481 152.88 239.865C153.778 240.248 154.53 240.793 155.135 241.5C155.751 242.206 156.215 243.054 156.528 244.042C156.841 245.021 156.997 246.111 156.997 247.312V249.128H143.979V246.222H152.713V245.889C152.713 245.284 152.602 244.744 152.38 244.27C152.168 243.785 151.846 243.402 151.412 243.119C150.978 242.837 150.423 242.695 149.747 242.695C149.171 242.695 148.677 242.821 148.263 243.074C147.849 243.326 147.511 243.679 147.249 244.133C146.997 244.587 146.805 245.122 146.674 245.738C146.553 246.343 146.492 247.009 146.492 247.736V248.341C146.492 248.997 146.583 249.603 146.765 250.158C146.956 250.713 147.224 251.192 147.567 251.596C147.92 251.999 148.344 252.312 148.838 252.534C149.343 252.756 149.913 252.867 150.549 252.867C151.336 252.867 152.068 252.716 152.744 252.413C153.43 252.1 154.02 251.631 154.515 251.005L156.634 253.306C156.291 253.801 155.821 254.275 155.226 254.729C154.641 255.183 153.934 255.556 153.107 255.849C152.279 256.132 151.336 256.273 150.276 256.273Z" fill="#222222"/>
<rect x="30" y="284.356" width="18" height="18.8169" fill="#FAC04F"/>
<rect x="53" y="284.356" width="18" height="18.8169" fill="#FAC04F"/>
<rect x="76" y="284.356" width="18" height="18.8169" fill="#FAC04F"/>
<rect x="99" y="284.356" width="18" height="18.8169" fill="#FAC04F"/>
<rect x="122" y="284.356" width="18" height="18.8169" fill="#FAC04F"/>
<rect x="145" y="284.356" width="18" height="18.8169" fill="#FAC04F"/>
<rect x="168" y="284.356" width="18" height="18.8169" fill="#E4E4E4"/>
<rect x="191" y="284.356" width="18" height="18.8169" fill="#E4E4E4"/>
<rect x="214" y="284.356" width="18" height="18.8169" fill="#E4E4E4"/>
<rect x="237" y="284.356" width="18" height="18.8169" fill="#E4E4E4"/>
<rect x="217" y="18" width="50" height="47.0423" rx="16" fill="#E96B73"/>
<path d="M230.125 45.4998L230.125 37.9995L253.876 37.9995L253.876 45.4998L230.125 45.4998Z" fill="#212121"/>
</svg>
