<svg width="547" height="242" viewBox="0 0 547 242" fill="none" xmlns="http://www.w3.org/2000/svg">
<rect x="1.5" y="1.5" width="544" height="238.686" rx="30.5" fill="white"/>
<rect x="1.5" y="1.5" width="544" height="238.686" rx="30.5" stroke="#212121" stroke-width="3"/>
<path d="M170.871 120.843C170.871 127.967 169.611 134.815 167.307 141.171C162.484 154.437 153.052 165.461 140.948 172.401C136.124 175.164 130.84 177.283 125.279 178.604C123.528 179.033 121.716 179.371 119.903 179.617C117.876 179.893 115.817 180.078 113.728 180.17C112.991 180.2 112.223 180.2 111.455 180.2C100.333 180.2 89.9187 177.13 81.0094 171.817C77.292 169.606 73.8512 166.965 70.7176 164.017C59.289 153.178 52.1309 137.855 52.1309 120.843C52.1309 120.136 52.1309 119.461 52.1616 118.754C53.2676 86.9414 79.4118 61.4849 111.516 61.4849C144.296 61.4849 170.871 88.0469 170.871 120.843Z" fill="#C7C7C7"/>
<path fill-rule="evenodd" clip-rule="evenodd" d="M173.07 143.259L173.068 143.264C167.74 157.917 157.333 170.07 143.997 177.716L143.996 177.717C138.678 180.763 132.853 183.101 126.718 184.56C124.748 185.043 122.73 185.417 120.726 185.689C118.511 185.991 116.268 186.191 113.998 186.291L113.99 186.292L113.983 186.292C113.116 186.328 112.24 186.328 111.508 186.328H111.454C99.1904 186.328 87.6964 182.939 77.871 177.081C73.741 174.625 69.947 171.708 66.5154 168.48L66.5063 168.471L66.4972 168.462C53.9051 156.519 46 139.612 46 120.843L46 120.795C46 120.126 46 119.346 46.0353 118.516C47.2688 83.4287 76.1044 55.3579 111.515 55.3579C147.683 55.3579 177 84.6653 177 120.843C177 128.693 175.611 136.247 173.07 143.259ZM119.902 179.617C121.715 179.372 123.528 179.034 125.279 178.604C130.839 177.283 136.124 175.165 140.947 172.401C153.051 165.461 162.483 154.437 167.306 141.171C169.61 134.815 170.87 127.967 170.87 120.843C170.87 88.0472 144.296 61.4852 111.515 61.4852C79.4111 61.4852 53.2668 86.9417 52.1608 118.755C52.1301 119.461 52.1301 120.137 52.1301 120.843C52.1301 137.855 59.2883 153.178 70.7168 164.018C73.8504 166.966 77.2913 169.607 81.0086 171.817C89.9179 177.13 100.333 180.201 111.454 180.201C112.222 180.201 112.99 180.201 113.727 180.17C115.816 180.078 117.875 179.894 119.902 179.617Z" fill="#212121"/>
<path d="M125.31 178.573C130.871 177.253 136.124 175.134 140.978 172.37C153.083 165.461 162.484 154.406 167.338 141.141C154.865 136.688 152.223 149.094 152.223 149.094C147.276 148.541 143.682 149.677 141.04 151.397C140.456 151.766 139.934 152.195 139.442 152.625C138.275 153.639 137.384 154.775 136.677 155.85C135.11 158.276 134.619 160.394 134.619 160.394L131.915 155.85L129.15 151.244L127.676 148.787L126.908 147.497C126.355 144.119 124.573 142.799 122.822 142.369C120.671 141.847 118.49 142.676 118.49 142.676C118.49 142.676 118.859 131.683 108.321 127.353C106.447 126.585 104.235 126.033 101.624 125.787C94.7727 125.142 89.335 126.77 85.5255 128.643C81.4088 130.669 79.1968 133.003 79.1968 133.003C77.4764 131.591 75.7559 130.854 74.1277 130.577C69.673 129.779 66.1093 132.297 66.1093 132.297C63.4365 122.962 57.7222 119.615 52.1616 118.786C52.1309 119.431 52.1309 120.137 52.1309 120.843C52.1309 137.855 59.289 153.209 70.779 164.018C73.9126 166.966 77.3535 169.607 81.0708 171.818C89.9801 177.13 100.364 180.201 111.516 180.201C112.284 180.201 113.021 180.201 113.79 180.17C115.879 180.109 117.937 179.894 119.965 179.617L125.31 178.573Z" fill="#4B5A59" fill-opacity="0.8"/>
<path d="M111.516 158.245H71.332L75.5102 116.882H107.246L111.516 158.245Z" fill="#FFE9E9"/>
<path d="M113.758 180.139C113.02 180.17 112.252 180.17 111.484 180.17C100.363 180.17 89.9484 177.099 81.0391 171.787C81.4384 167.979 81.93 163.281 82.4215 158.214H111.454L113.758 180.139Z" fill="#E96B73"/>
<path d="M82.4516 158.245C81.9294 163.281 81.4378 168.01 81.0692 171.817C77.3518 169.606 73.911 166.966 70.7773 164.018L71.3611 158.245H82.4516Z" fill="#DC4F58"/>
<path d="M86.5393 118.97C86.5086 119.246 84.2659 140.711 82.4841 158.245H71.332L75.5102 116.882H76.3704L86.5393 118.97Z" fill="#EED3D3"/>
<path d="M82.5438 149.156H71.3611C70.2244 149.156 69.3027 148.234 69.3027 147.098V146.361C69.3027 145.225 70.2244 144.304 71.3611 144.304H82.4209C81.4071 144.795 80.7005 145.686 80.7005 146.699C80.7005 147.743 81.4686 148.664 82.5438 149.156Z" fill="#DC4F58"/>
<path d="M113.604 146.361V147.098C113.604 148.235 112.683 149.156 111.546 149.156H82.5445C81.4385 148.695 80.7012 147.774 80.7012 146.699C80.7012 145.686 81.3771 144.765 82.4216 144.304H111.546C112.683 144.273 113.604 145.194 113.604 146.361Z" fill="#E96B73"/>
<path d="M142.51 95.7243C141.066 95.1102 139.469 94.7417 137.779 94.7417C131.143 94.7417 125.767 100.116 125.767 106.748C125.767 108.468 126.135 110.095 126.78 111.569C122.234 113.289 119.008 117.65 119.008 122.808C119.008 129.441 124.384 134.815 131.02 134.815C132.648 134.815 134.184 134.508 135.598 133.925C134.799 133.587 133.969 133.157 133.171 132.604C127.426 128.827 127.886 121.795 127.886 121.795C127.886 121.795 128.163 118.632 130.068 115.93C130.682 115.07 131.45 114.241 132.433 113.565C133.509 112.859 134.215 112.091 134.645 111.354C135.475 110.003 135.444 108.775 135.321 108.099C135.229 107.485 135.137 106.84 135.167 106.226C135.383 99.3785 140.022 96.6763 142.51 95.7243Z" fill="#4B5A59"/>
<path d="M156.188 105.858C156.249 105.55 156.28 105.213 156.28 104.875C156.28 101.773 153.761 99.2247 150.627 99.2247C149.552 99.2247 148.569 99.5318 147.74 100.023C146.818 98.6413 145.589 97.4744 144.206 96.5839C143.684 96.2461 143.101 95.939 142.517 95.6934C140.059 96.6453 135.389 99.3783 135.174 106.226C135.144 106.84 135.205 107.485 135.328 108.099C135.451 108.775 135.482 110.003 134.652 111.354C134.222 112.091 133.515 112.828 132.44 113.565C131.457 114.241 130.689 115.039 130.074 115.93C128.17 118.663 127.893 121.795 127.893 121.795C127.893 121.795 127.402 128.827 133.177 132.604C134.007 133.126 134.806 133.587 135.604 133.924C139.107 132.481 141.779 129.441 142.701 125.695C144.698 127.169 147.156 128.028 149.798 128.028C156.434 128.028 161.81 122.655 161.81 116.022C161.779 111.723 159.537 107.976 156.188 105.858Z" fill="#617983"/>
<path d="M140.949 172.37C136.126 175.134 130.842 177.253 125.281 178.573L127.094 155.85L127.462 151.243L127.647 148.787L128.261 141.264V141.233L128.476 138.408H138.307L138.492 140.987L139.29 151.243L139.383 152.656L139.628 155.88L140.949 172.37Z" fill="#FAC04F"/>
<path d="M125.31 178.573L127.123 155.85L127.491 151.213L127.675 148.787L128.29 141.264V141.233L128.505 138.408H127.645L125.74 138.561L123.098 138.807L122.914 140.987L122.821 142.338L122.115 151.213L121.777 155.85L119.934 179.587L125.31 178.573Z" fill="#ECBA5A"/>
<path d="M125.771 155.85H121.316C120.056 155.85 119.012 154.806 119.012 153.547C119.012 152.902 119.288 152.318 119.688 151.919C120.118 151.489 120.671 151.244 121.316 151.244H125.771C125.125 151.244 124.572 151.489 124.142 151.919C123.712 152.349 123.466 152.902 123.466 153.547C123.466 154.806 124.511 155.85 125.771 155.85Z" fill="#C89551"/>
<path d="M142.455 153.546C142.455 154.191 142.21 154.775 141.779 155.174C141.349 155.604 140.796 155.849 140.151 155.849H125.804C124.545 155.849 123.5 154.805 123.5 153.546C123.5 152.902 123.746 152.318 124.176 151.919C124.606 151.489 125.159 151.243 125.804 151.243H140.151C141.411 151.213 142.455 152.257 142.455 153.546Z" fill="#DEA14E"/>
<path d="M128.657 141.263H124.172C122.544 141.263 121.223 139.943 121.223 138.316V135.521C121.223 133.894 122.544 132.573 124.172 132.573H128.657C127.029 132.573 125.708 133.894 125.708 135.521V138.316C125.708 139.943 127.029 141.263 128.657 141.263Z" fill="#C89551"/>
<path d="M140.238 135.521V138.316C140.238 139.943 138.917 141.263 137.289 141.263H128.656C127.028 141.263 125.707 139.943 125.707 138.316V135.521C125.707 133.894 127.028 132.573 128.656 132.573H137.289C138.917 132.573 140.238 133.894 140.238 135.521Z" fill="#DEA14E"/>
<path d="M163.098 93.6972C162.698 94.4956 162.115 95.2326 161.408 95.8774C158.274 98.6718 153.451 98.3955 150.655 95.2633C147.86 92.1311 148.136 87.31 151.27 84.5156C152.652 83.2566 154.403 82.6425 156.124 82.5811C154.711 85.314 155.049 88.7226 157.199 91.1485C158.735 92.9295 160.916 93.7893 163.098 93.6972Z" fill="#4B5A59"/>
<path d="M162.021 85.1299C164.202 87.5558 164.509 90.9951 163.096 93.6973C160.915 93.7588 158.733 92.8989 157.197 91.1486C155.016 88.7227 154.709 85.2835 156.122 82.5812C158.273 82.5198 160.454 83.3796 162.021 85.1299Z" fill="#617983"/>
<path d="M119.689 71.8027C119.32 72.5397 118.798 73.2153 118.122 73.7987C115.234 76.3781 110.78 76.1325 108.199 73.246C105.619 70.3595 105.864 65.9069 108.752 63.3274C110.042 62.1912 111.64 61.6078 113.238 61.5464C111.947 64.0644 112.224 67.2273 114.221 69.4382C115.695 71.0657 117.692 71.8641 119.689 71.8027Z" fill="#4B5A59"/>
<path d="M118.706 63.9113C120.703 66.1529 121.01 69.3158 119.689 71.8031C117.692 71.8646 115.696 71.0662 114.252 69.4694C112.255 67.2277 111.947 64.0648 113.269 61.5775C115.265 61.5161 117.262 62.3145 118.706 63.9113Z" fill="#617983"/>
<path d="M132.496 83.0109C132.219 83.533 131.881 83.9936 131.421 84.3928C129.424 86.1738 126.351 85.9896 124.57 83.9936C122.788 81.9976 122.972 78.9268 124.969 77.1458C125.86 76.3474 126.966 75.9482 128.072 75.9175C127.181 77.6371 127.365 79.8481 128.748 81.3834C129.7 82.5196 131.113 83.0723 132.496 83.0109Z" fill="#4B5A59"/>
<path d="M131.791 77.5452C133.173 79.0806 133.388 81.2608 132.467 83.0112C131.084 83.0419 129.702 82.5198 128.719 81.3837C127.336 79.8483 127.121 77.668 128.043 75.9177C129.425 75.887 130.808 76.4397 131.791 77.5452Z" fill="#617983"/>
<path d="M84.4182 106.287C77.7823 104.015 79.257 95.5089 79.7792 93.2059C79.8714 92.8681 80.025 92.5303 80.2708 92.2847C83.3737 88.8147 80.9467 85.6211 80.0557 84.6692C79.8407 84.4542 79.7178 84.2086 79.6256 83.9322C75.4167 70.1752 85.9543 64.1872 89.9482 62.4369C88.0434 61.792 85.985 61.485 83.8345 61.5771C75.724 61.9763 69.088 68.4863 68.5043 76.5624C68.1664 81.2299 69.8254 85.4983 72.6825 88.6304C70.8085 90.9335 69.3031 94.1578 69.3031 97.2593C69.3031 104.967 76.5227 110.893 85.0019 110.893C88.0741 110.893 90.9313 110.064 93.3276 108.652C90.3168 108.007 87.091 107.209 84.4182 106.287Z" fill="#4B5A59"/>
<path d="M100.823 79.2033C100.854 78.7427 100.885 78.2514 100.885 77.7601C100.885 71.3422 97.1676 65.7841 91.7298 63.174C91.1461 62.8976 90.5317 62.652 89.9173 62.437C85.9234 64.1873 75.3858 70.1753 79.564 83.9016C79.5947 84.0551 79.6562 84.2087 79.7176 84.3622C79.7176 84.3622 79.8712 84.4851 80.0863 84.7614C80.0863 84.7614 80.0863 84.7614 80.117 84.7921C80.1477 84.8228 80.1784 84.8535 80.2092 84.8842L80.2399 84.915C80.2706 84.9457 80.3013 84.9764 80.332 85.0071C80.332 85.0378 80.3628 85.0378 80.3628 85.0685C80.3935 85.0992 80.4242 85.1299 80.4549 85.1606C80.4857 85.1913 80.4857 85.1913 80.5164 85.222C80.5471 85.2527 80.5778 85.3142 80.6085 85.3449C80.6085 85.3756 80.6393 85.3756 80.6393 85.4063C80.7314 85.5291 80.8236 85.6519 80.9158 85.8055C80.9158 85.8362 80.9465 85.8362 80.9465 85.8669C80.9772 85.9283 81.0079 85.959 81.0386 86.0204C81.0694 86.0511 81.0694 86.0818 81.1001 86.1126C81.1308 86.174 81.1615 86.2047 81.1923 86.2661C81.1923 86.2968 81.223 86.3275 81.223 86.3582C81.2537 86.4196 81.2844 86.481 81.2844 86.5118C81.2844 86.5425 81.3151 86.5732 81.3151 86.6039C81.3459 86.6653 81.3766 86.7574 81.4073 86.8188C81.4073 86.8188 81.4073 86.8495 81.438 86.8495C81.4688 86.9417 81.4995 87.0338 81.5302 87.1259C81.5302 87.1566 81.5609 87.1873 81.5609 87.218C81.5916 87.2794 81.5916 87.3409 81.6224 87.433C81.6224 87.4637 81.6531 87.4944 81.6531 87.5251C81.6531 87.5865 81.6838 87.6479 81.6838 87.7093C81.6838 87.7401 81.6838 87.7708 81.7145 87.8322C81.7145 87.8936 81.7453 87.955 81.7453 88.0164C81.7453 88.0471 81.7453 88.0778 81.7453 88.1393C81.7453 88.2314 81.7453 88.2928 81.776 88.3849C81.776 88.4156 81.776 88.4463 81.776 88.477C81.776 88.5692 81.776 88.692 81.776 88.7841C81.776 88.8148 81.776 88.8455 81.776 88.8762C81.776 88.9684 81.776 89.0298 81.7453 89.1219C81.7453 89.1526 81.7453 89.214 81.7453 89.2447C81.7453 89.3061 81.7145 89.3983 81.7145 89.4597C81.7145 89.4904 81.6838 89.5518 81.6838 89.5825C81.6838 89.6439 81.6531 89.736 81.6224 89.7975C81.6224 89.8282 81.5916 89.8896 81.5916 89.9203C81.5609 90.0124 81.5302 90.0738 81.4995 90.166C81.4995 90.1967 81.4688 90.2274 81.4688 90.2581C81.438 90.3809 81.3766 90.5037 81.3151 90.6266C81.3151 90.6573 81.2844 90.6573 81.2844 90.688C81.223 90.7801 81.1923 90.9029 81.1308 90.9951C81.1001 91.0258 81.0694 91.0872 81.0694 91.1179C81.0079 91.21 80.9772 91.2714 80.9158 91.3635C80.885 91.3943 80.8543 91.4557 80.8236 91.4864C80.7622 91.5785 80.7007 91.6399 80.67 91.732C80.6393 91.7627 80.6085 91.8242 80.5778 91.8549C80.5164 91.947 80.4549 92.0084 80.3628 92.1005C80.332 92.1312 80.3013 92.1927 80.2706 92.2234C80.1477 92.3462 80.0556 92.469 79.9327 92.5919C79.9327 92.5919 79.8712 92.8068 79.7791 93.1753C79.2568 95.4784 77.7821 103.984 84.418 106.257C87.1216 107.178 90.3166 107.976 93.3581 108.621C93.5732 108.498 93.7575 108.376 93.9725 108.253C96.0002 109.235 98.2429 109.788 100.639 109.788C109.088 109.788 115.939 102.94 115.939 94.4957C115.939 86.1433 109.18 79.3262 100.823 79.2033Z" fill="#617983"/>
<path d="M111.361 109.942V117.158C111.361 119.185 109.732 120.812 107.705 120.812H84.4176C82.39 120.812 80.7617 119.185 80.7617 117.158V109.942C80.7617 107.915 82.39 106.288 84.4176 106.288H107.705C109.732 106.288 111.361 107.915 111.361 109.942Z" fill="#E96B73"/>
<path d="M84.4174 120.843H75.2008C73.1732 120.843 71.5449 119.216 71.5449 117.189V109.973C71.5449 107.946 73.1732 106.318 75.2008 106.318H84.3866C82.359 106.318 80.7307 107.946 80.7307 109.973V117.189C80.7307 119.185 82.3897 120.843 84.4174 120.843Z" fill="#DC4F58"/>
<path d="M221.743 71.689H226.269C226.178 73.1724 225.77 74.4893 225.043 75.6396C224.326 76.79 223.322 77.6882 222.031 78.334C220.749 78.9798 219.205 79.3027 217.399 79.3027C215.986 79.3027 214.72 79.0605 213.6 78.5762C212.479 78.0817 211.521 77.3753 210.724 76.457C209.937 75.5387 209.336 74.4287 208.922 73.127C208.509 71.8252 208.302 70.367 208.302 68.7524V67.2236C208.302 65.609 208.514 64.1509 208.938 62.8491C209.371 61.5373 209.987 60.4222 210.784 59.5039C211.591 58.5856 212.555 57.8792 213.675 57.3848C214.795 56.8903 216.047 56.6431 217.429 56.6431C219.266 56.6431 220.815 56.9761 222.076 57.6421C223.348 58.3081 224.332 59.2264 225.028 60.397C225.734 61.5675 226.158 62.8996 226.299 64.3931H221.758C221.708 63.505 221.531 62.7533 221.229 62.1377C220.926 61.512 220.467 61.0428 219.851 60.73C219.246 60.4071 218.438 60.2456 217.429 60.2456C216.672 60.2456 216.011 60.3869 215.446 60.6694C214.881 60.952 214.407 61.3809 214.023 61.9561C213.64 62.5312 213.352 63.2578 213.161 64.1357C212.979 65.0036 212.888 66.0228 212.888 67.1934V68.7524C212.888 69.8927 212.974 70.8968 213.146 71.7646C213.317 72.6224 213.579 73.349 213.933 73.9443C214.296 74.5296 214.76 74.9736 215.325 75.2764C215.9 75.569 216.592 75.7153 217.399 75.7153C218.347 75.7153 219.13 75.564 219.745 75.2612C220.361 74.9585 220.83 74.5094 221.153 73.9141C221.486 73.3187 221.683 72.577 221.743 71.689ZM228.282 70.9775V70.6597C228.282 69.4588 228.454 68.3538 228.797 67.3447C229.14 66.3255 229.639 65.4425 230.295 64.6958C230.951 63.9491 231.759 63.3688 232.717 62.9551C233.676 62.5312 234.776 62.3193 236.017 62.3193C237.258 62.3193 238.363 62.5312 239.332 62.9551C240.301 63.3688 241.113 63.9491 241.769 64.6958C242.435 65.4425 242.94 66.3255 243.283 67.3447C243.626 68.3538 243.797 69.4588 243.797 70.6597V70.9775C243.797 72.1683 243.626 73.2733 243.283 74.2925C242.94 75.3016 242.435 76.1846 241.769 76.9414C241.113 77.6882 240.306 78.2684 239.347 78.6821C238.389 79.0959 237.289 79.3027 236.047 79.3027C234.806 79.3027 233.701 79.0959 232.732 78.6821C231.774 78.2684 230.961 77.6882 230.295 76.9414C229.639 76.1846 229.14 75.3016 228.797 74.2925C228.454 73.2733 228.282 72.1683 228.282 70.9775ZM232.642 70.6597V70.9775C232.642 71.6637 232.702 72.3045 232.823 72.8999C232.944 73.4953 233.136 74.02 233.398 74.4741C233.671 74.9181 234.024 75.2663 234.458 75.5186C234.892 75.7708 235.422 75.897 236.047 75.897C236.653 75.897 237.173 75.7708 237.606 75.5186C238.04 75.2663 238.389 74.9181 238.651 74.4741C238.913 74.02 239.105 73.4953 239.226 72.8999C239.357 72.3045 239.423 71.6637 239.423 70.9775V70.6597C239.423 69.9937 239.357 69.368 239.226 68.7827C239.105 68.1873 238.908 67.6626 238.636 67.2085C238.373 66.7443 238.025 66.381 237.591 66.1187C237.157 65.8563 236.633 65.7251 236.017 65.7251C235.402 65.7251 234.877 65.8563 234.443 66.1187C234.019 66.381 233.671 66.7443 233.398 67.2085C233.136 67.6626 232.944 68.1873 232.823 68.7827C232.702 69.368 232.642 69.9937 232.642 70.6597ZM250.745 66.1187V79H246.386V62.6221H250.473L250.745 66.1187ZM250.109 70.2358H248.929C248.929 69.0249 249.085 67.9351 249.398 66.9663C249.711 65.9875 250.15 65.1549 250.715 64.4688C251.28 63.7725 251.951 63.2427 252.728 62.8794C253.515 62.506 254.393 62.3193 255.362 62.3193C256.129 62.3193 256.83 62.4303 257.466 62.6523C258.102 62.8743 258.646 63.2275 259.101 63.7119C259.565 64.1963 259.918 64.8371 260.16 65.6343C260.412 66.4315 260.539 67.4053 260.539 68.5557V79H256.149V68.5405C256.149 67.814 256.048 67.2489 255.846 66.8452C255.644 66.4416 255.347 66.159 254.953 65.9976C254.57 65.826 254.095 65.7402 253.53 65.7402C252.945 65.7402 252.435 65.8563 252.001 66.0884C251.578 66.3205 251.224 66.6434 250.942 67.0571C250.669 67.4608 250.463 67.9351 250.321 68.48C250.18 69.0249 250.109 69.6102 250.109 70.2358ZM272.708 74.4741C272.708 74.1613 272.618 73.8787 272.436 73.6265C272.254 73.3742 271.916 73.1421 271.422 72.9302C270.938 72.7082 270.236 72.5063 269.318 72.3247C268.49 72.1431 267.718 71.916 267.002 71.6436C266.296 71.361 265.68 71.0229 265.155 70.6294C264.641 70.2358 264.237 69.7716 263.944 69.2368C263.652 68.6919 263.505 68.0713 263.505 67.375C263.505 66.6888 263.652 66.043 263.944 65.4375C264.247 64.832 264.676 64.2972 265.231 63.833C265.796 63.3587 266.482 62.9904 267.29 62.728C268.107 62.4556 269.025 62.3193 270.044 62.3193C271.467 62.3193 272.688 62.5464 273.708 63.0005C274.737 63.4546 275.524 64.0802 276.069 64.8774C276.624 65.6646 276.901 66.5627 276.901 67.5718H272.542C272.542 67.1479 272.451 66.7695 272.27 66.4365C272.098 66.0934 271.826 65.826 271.452 65.6343C271.089 65.4325 270.615 65.3315 270.029 65.3315C269.545 65.3315 269.126 65.4173 268.773 65.5889C268.42 65.7503 268.147 65.9723 267.956 66.2549C267.774 66.5273 267.683 66.8301 267.683 67.1631C267.683 67.4154 267.734 67.6424 267.834 67.8442C267.945 68.036 268.122 68.2126 268.364 68.374C268.606 68.5355 268.919 68.6868 269.303 68.8281C269.696 68.9593 270.181 69.0804 270.756 69.1914C271.937 69.4336 272.991 69.7515 273.919 70.145C274.848 70.5285 275.584 71.0532 276.129 71.7192C276.674 72.3752 276.947 73.238 276.947 74.3076C276.947 75.0342 276.785 75.7002 276.462 76.3057C276.139 76.9111 275.675 77.4409 275.07 77.895C274.464 78.339 273.738 78.6872 272.89 78.9395C272.053 79.1816 271.109 79.3027 270.06 79.3027C268.536 79.3027 267.244 79.0303 266.185 78.4854C265.135 77.9404 264.338 77.2492 263.793 76.4116C263.258 75.564 262.991 74.6961 262.991 73.8081H267.123C267.143 74.4035 267.295 74.8828 267.577 75.2461C267.87 75.6094 268.238 75.8717 268.682 76.0332C269.136 76.1947 269.626 76.2754 270.15 76.2754C270.715 76.2754 271.185 76.1997 271.558 76.0483C271.931 75.8869 272.214 75.675 272.406 75.4126C272.608 75.1401 272.708 74.8273 272.708 74.4741ZM279.081 70.9775V70.6597C279.081 69.4588 279.253 68.3538 279.596 67.3447C279.939 66.3255 280.438 65.4425 281.094 64.6958C281.75 63.9491 282.557 63.3688 283.516 62.9551C284.475 62.5312 285.575 62.3193 286.816 62.3193C288.057 62.3193 289.162 62.5312 290.131 62.9551C291.1 63.3688 291.912 63.9491 292.568 64.6958C293.234 65.4425 293.738 66.3255 294.082 67.3447C294.425 68.3538 294.596 69.4588 294.596 70.6597V70.9775C294.596 72.1683 294.425 73.2733 294.082 74.2925C293.738 75.3016 293.234 76.1846 292.568 76.9414C291.912 77.6882 291.105 78.2684 290.146 78.6821C289.187 79.0959 288.087 79.3027 286.846 79.3027C285.605 79.3027 284.5 79.0959 283.531 78.6821C282.573 78.2684 281.76 77.6882 281.094 76.9414C280.438 76.1846 279.939 75.3016 279.596 74.2925C279.253 73.2733 279.081 72.1683 279.081 70.9775ZM283.44 70.6597V70.9775C283.44 71.6637 283.501 72.3045 283.622 72.8999C283.743 73.4953 283.935 74.02 284.197 74.4741C284.47 74.9181 284.823 75.2663 285.257 75.5186C285.691 75.7708 286.221 75.897 286.846 75.897C287.452 75.897 287.971 75.7708 288.405 75.5186C288.839 75.2663 289.187 74.9181 289.45 74.4741C289.712 74.02 289.904 73.4953 290.025 72.8999C290.156 72.3045 290.222 71.6637 290.222 70.9775V70.6597C290.222 69.9937 290.156 69.368 290.025 68.7827C289.904 68.1873 289.707 67.6626 289.435 67.2085C289.172 66.7443 288.824 66.381 288.39 66.1187C287.956 65.8563 287.431 65.7251 286.816 65.7251C286.2 65.7251 285.676 65.8563 285.242 66.1187C284.818 66.381 284.47 66.7443 284.197 67.2085C283.935 67.6626 283.743 68.1873 283.622 68.7827C283.501 69.368 283.44 69.9937 283.44 70.6597ZM301.635 66.0127V79H297.26V62.6221H301.362L301.635 66.0127ZM301.029 70.2358H299.818C299.818 69.0955 299.955 68.0461 300.227 67.0874C300.51 66.1187 300.918 65.2811 301.453 64.5747C301.998 63.8582 302.669 63.3032 303.466 62.9097C304.264 62.5161 305.187 62.3193 306.236 62.3193C306.963 62.3193 307.629 62.4303 308.234 62.6523C308.84 62.8643 309.36 63.2023 309.793 63.6665C310.237 64.1206 310.581 64.716 310.823 65.4526C311.065 66.1792 311.186 67.0521 311.186 68.0713V79H306.827V68.5557C306.827 67.8089 306.726 67.2337 306.524 66.8301C306.322 66.4264 306.035 66.1439 305.661 65.9824C305.298 65.821 304.859 65.7402 304.344 65.7402C303.779 65.7402 303.285 65.8563 302.861 66.0884C302.447 66.3205 302.104 66.6434 301.832 67.0571C301.559 67.4608 301.357 67.9351 301.226 68.48C301.095 69.0249 301.029 69.6102 301.029 70.2358ZM310.777 69.7363L309.218 69.9331C309.218 68.8634 309.349 67.8695 309.612 66.9512C309.884 66.0329 310.283 65.2256 310.808 64.5293C311.342 63.833 312.003 63.2931 312.791 62.9097C313.578 62.5161 314.486 62.3193 315.515 62.3193C316.302 62.3193 317.019 62.4354 317.665 62.6675C318.31 62.8895 318.86 63.2477 319.314 63.7422C319.779 64.2266 320.132 64.8623 320.374 65.6494C320.626 66.4365 320.752 67.4002 320.752 68.5405V79H316.378V68.5405C316.378 67.7837 316.277 67.2085 316.075 66.8149C315.883 66.4113 315.601 66.1338 315.228 65.9824C314.864 65.821 314.43 65.7402 313.926 65.7402C313.401 65.7402 312.942 65.8462 312.548 66.0581C312.155 66.2599 311.827 66.5425 311.564 66.9058C311.302 67.269 311.105 67.6929 310.974 68.1772C310.843 68.6515 310.777 69.1712 310.777 69.7363ZM328.487 66.0127V79H324.113V62.6221H328.215L328.487 66.0127ZM327.882 70.2358H326.671C326.671 69.0955 326.807 68.0461 327.08 67.0874C327.362 66.1187 327.771 65.2811 328.306 64.5747C328.851 63.8582 329.522 63.3032 330.319 62.9097C331.116 62.5161 332.039 62.3193 333.089 62.3193C333.815 62.3193 334.481 62.4303 335.087 62.6523C335.692 62.8643 336.212 63.2023 336.646 63.6665C337.09 64.1206 337.433 64.716 337.675 65.4526C337.917 66.1792 338.039 67.0521 338.039 68.0713V79H333.679V68.5557C333.679 67.8089 333.578 67.2337 333.376 66.8301C333.175 66.4264 332.887 66.1439 332.514 65.9824C332.15 65.821 331.711 65.7402 331.197 65.7402C330.632 65.7402 330.137 65.8563 329.713 66.0884C329.3 66.3205 328.957 66.6434 328.684 67.0571C328.412 67.4608 328.21 67.9351 328.079 68.48C327.947 69.0249 327.882 69.6102 327.882 70.2358ZM337.63 69.7363L336.071 69.9331C336.071 68.8634 336.202 67.8695 336.464 66.9512C336.737 66.0329 337.135 65.2256 337.66 64.5293C338.195 63.833 338.856 63.2931 339.643 62.9097C340.43 62.5161 341.338 62.3193 342.368 62.3193C343.155 62.3193 343.871 62.4354 344.517 62.6675C345.163 62.8895 345.713 63.2477 346.167 63.7422C346.631 64.2266 346.984 64.8623 347.227 65.6494C347.479 66.4365 347.605 67.4002 347.605 68.5405V79H343.23V68.5405C343.23 67.7837 343.13 67.2085 342.928 66.8149C342.736 66.4113 342.453 66.1338 342.08 65.9824C341.717 65.821 341.283 65.7402 340.778 65.7402C340.254 65.7402 339.794 65.8462 339.401 66.0581C339.007 66.2599 338.679 66.5425 338.417 66.9058C338.155 67.269 337.958 67.6929 337.827 68.1772C337.695 68.6515 337.63 69.1712 337.63 69.7363ZM359.82 75.3066V68.0107C359.82 67.486 359.735 67.0369 359.563 66.6636C359.391 66.2801 359.124 65.9824 358.761 65.7705C358.408 65.5586 357.948 65.4526 357.383 65.4526C356.899 65.4526 356.48 65.5384 356.127 65.71C355.774 65.8714 355.501 66.1086 355.31 66.4214C355.118 66.7241 355.022 67.0824 355.022 67.4961H350.663C350.663 66.7998 350.824 66.1388 351.147 65.5132C351.47 64.8875 351.939 64.3376 352.555 63.8633C353.17 63.3789 353.902 63.0005 354.75 62.728C355.607 62.4556 356.566 62.3193 357.625 62.3193C358.897 62.3193 360.027 62.5312 361.016 62.9551C362.005 63.3789 362.782 64.0146 363.347 64.8623C363.922 65.71 364.21 66.7695 364.21 68.041V75.0493C364.21 75.9474 364.265 76.6841 364.376 77.2593C364.487 77.8244 364.649 78.3188 364.861 78.7427V79H360.456C360.244 78.556 360.083 78.001 359.972 77.335C359.871 76.6589 359.82 75.9827 359.82 75.3066ZM360.396 69.0249L360.426 71.4922H357.989C357.414 71.4922 356.914 71.5578 356.49 71.689C356.066 71.8201 355.718 72.0068 355.446 72.249C355.173 72.4811 354.972 72.7536 354.84 73.0664C354.719 73.3792 354.659 73.7223 354.659 74.0957C354.659 74.4691 354.744 74.8071 354.916 75.1099C355.088 75.4025 355.335 75.6346 355.658 75.8062C355.981 75.9676 356.359 76.0483 356.793 76.0483C357.449 76.0483 358.019 75.9172 358.503 75.6548C358.988 75.3924 359.361 75.0695 359.624 74.686C359.896 74.3026 360.037 73.9393 360.047 73.5962L361.198 75.4429C361.036 75.8566 360.814 76.2855 360.532 76.7295C360.259 77.1735 359.911 77.5923 359.487 77.9858C359.063 78.3693 358.554 78.6872 357.958 78.9395C357.363 79.1816 356.657 79.3027 355.839 79.3027C354.8 79.3027 353.856 79.0959 353.009 78.6821C352.171 78.2583 351.505 77.6781 351.011 76.9414C350.526 76.1947 350.284 75.347 350.284 74.3984C350.284 73.5407 350.446 72.7788 350.769 72.1128C351.091 71.4468 351.566 70.8867 352.191 70.4326C352.827 69.9684 353.619 69.6203 354.568 69.3882C355.516 69.146 356.616 69.0249 357.868 69.0249H360.396ZM375.593 62.6221V65.71H366.057V62.6221H375.593ZM368.418 58.5806H372.777V74.0654C372.777 74.5397 372.838 74.903 372.959 75.1553C373.09 75.4076 373.282 75.5841 373.534 75.6851C373.786 75.7759 374.104 75.8213 374.488 75.8213C374.76 75.8213 375.002 75.8112 375.214 75.791C375.436 75.7607 375.623 75.7305 375.774 75.7002L375.79 78.9092C375.416 79.0303 375.013 79.1261 374.579 79.1968C374.145 79.2674 373.665 79.3027 373.141 79.3027C372.182 79.3027 371.344 79.1463 370.628 78.8335C369.922 78.5106 369.377 77.9959 368.993 77.2896C368.61 76.5832 368.418 75.6548 368.418 74.5044V58.5806ZM382.677 62.6221V79H378.302V62.6221H382.677ZM378.03 58.3535C378.03 57.7178 378.252 57.193 378.696 56.7793C379.14 56.3656 379.735 56.1587 380.482 56.1587C381.219 56.1587 381.809 56.3656 382.253 56.7793C382.707 57.193 382.934 57.7178 382.934 58.3535C382.934 58.9893 382.707 59.514 382.253 59.9277C381.809 60.3415 381.219 60.5483 380.482 60.5483C379.735 60.5483 379.14 60.3415 378.696 59.9277C378.252 59.514 378.03 58.9893 378.03 58.3535ZM385.583 70.9775V70.6597C385.583 69.4588 385.755 68.3538 386.098 67.3447C386.441 66.3255 386.94 65.4425 387.596 64.6958C388.252 63.9491 389.059 63.3688 390.018 62.9551C390.977 62.5312 392.077 62.3193 393.318 62.3193C394.559 62.3193 395.664 62.5312 396.633 62.9551C397.602 63.3688 398.414 63.9491 399.07 64.6958C399.736 65.4425 400.24 66.3255 400.583 67.3447C400.927 68.3538 401.098 69.4588 401.098 70.6597V70.9775C401.098 72.1683 400.927 73.2733 400.583 74.2925C400.24 75.3016 399.736 76.1846 399.07 76.9414C398.414 77.6882 397.607 78.2684 396.648 78.6821C395.689 79.0959 394.589 79.3027 393.348 79.3027C392.107 79.3027 391.002 79.0959 390.033 78.6821C389.075 78.2684 388.262 77.6882 387.596 76.9414C386.94 76.1846 386.441 75.3016 386.098 74.2925C385.755 73.2733 385.583 72.1683 385.583 70.9775ZM389.942 70.6597V70.9775C389.942 71.6637 390.003 72.3045 390.124 72.8999C390.245 73.4953 390.437 74.02 390.699 74.4741C390.972 74.9181 391.325 75.2663 391.759 75.5186C392.193 75.7708 392.722 75.897 393.348 75.897C393.954 75.897 394.473 75.7708 394.907 75.5186C395.341 75.2663 395.689 74.9181 395.952 74.4741C396.214 74.02 396.406 73.4953 396.527 72.8999C396.658 72.3045 396.724 71.6637 396.724 70.9775V70.6597C396.724 69.9937 396.658 69.368 396.527 68.7827C396.406 68.1873 396.209 67.6626 395.937 67.2085C395.674 66.7443 395.326 66.381 394.892 66.1187C394.458 65.8563 393.933 65.7251 393.318 65.7251C392.702 65.7251 392.178 65.8563 391.744 66.1187C391.32 66.381 390.972 66.7443 390.699 67.2085C390.437 67.6626 390.245 68.1873 390.124 68.7827C390.003 69.368 389.942 69.9937 389.942 70.6597ZM408.046 66.1187V79H403.687V62.6221H407.773L408.046 66.1187ZM407.41 70.2358H406.229C406.229 69.0249 406.386 67.9351 406.699 66.9663C407.012 65.9875 407.451 65.1549 408.016 64.4688C408.581 63.7725 409.252 63.2427 410.029 62.8794C410.816 62.506 411.694 62.3193 412.663 62.3193C413.43 62.3193 414.131 62.4303 414.767 62.6523C415.402 62.8743 415.947 63.2275 416.401 63.7119C416.866 64.1963 417.219 64.8371 417.461 65.6343C417.713 66.4315 417.839 67.4053 417.839 68.5557V79H413.45V68.5405C413.45 67.814 413.349 67.2489 413.147 66.8452C412.945 66.4416 412.647 66.159 412.254 65.9976C411.87 65.826 411.396 65.7402 410.831 65.7402C410.246 65.7402 409.736 65.8563 409.302 66.0884C408.878 66.3205 408.525 66.6434 408.243 67.0571C407.97 67.4608 407.763 67.9351 407.622 68.48C407.481 69.0249 407.41 69.6102 407.41 70.2358ZM218.368 111.428V91.75H222.757V115H218.807L218.368 111.428ZM208.014 107.008V106.69C208.014 105.439 208.155 104.303 208.438 103.284C208.721 102.255 209.134 101.372 209.679 100.635C210.224 99.8986 210.895 99.3285 211.692 98.9248C212.49 98.5212 213.398 98.3193 214.417 98.3193C215.376 98.3193 216.213 98.5212 216.93 98.9248C217.656 99.3285 218.272 99.9036 218.776 100.65C219.291 101.387 219.705 102.26 220.018 103.269C220.33 104.268 220.557 105.363 220.699 106.554V107.25C220.557 108.39 220.33 109.45 220.018 110.429C219.705 111.408 219.291 112.265 218.776 113.002C218.272 113.729 217.656 114.294 216.93 114.697C216.203 115.101 215.355 115.303 214.387 115.303C213.368 115.303 212.459 115.096 211.662 114.682C210.875 114.268 210.209 113.688 209.664 112.941C209.129 112.195 208.721 111.317 208.438 110.308C208.155 109.299 208.014 108.199 208.014 107.008ZM212.374 106.69V107.008C212.374 107.684 212.424 108.315 212.525 108.9C212.636 109.485 212.812 110.005 213.055 110.459C213.307 110.903 213.63 111.251 214.023 111.503C214.427 111.746 214.917 111.867 215.492 111.867C216.238 111.867 216.854 111.7 217.338 111.367C217.823 111.024 218.191 110.555 218.443 109.959C218.706 109.364 218.857 108.678 218.897 107.901V105.918C218.867 105.282 218.776 104.712 218.625 104.208C218.484 103.693 218.272 103.254 217.989 102.891C217.717 102.527 217.374 102.245 216.96 102.043C216.556 101.841 216.077 101.74 215.522 101.74C214.957 101.74 214.472 101.871 214.069 102.134C213.665 102.386 213.337 102.734 213.085 103.178C212.843 103.622 212.661 104.147 212.54 104.752C212.429 105.348 212.374 105.994 212.374 106.69ZM230.144 91.75V94.0508C230.144 94.7067 230.018 95.3828 229.766 96.0791C229.523 96.7754 229.195 97.4364 228.782 98.062C228.368 98.6776 227.914 99.2023 227.419 99.6362L225.376 98.4556C225.749 97.8602 226.067 97.2144 226.33 96.5181C226.592 95.8117 226.723 94.9943 226.723 94.0659V91.75H230.144ZM239.453 115.303C238.182 115.303 237.041 115.101 236.032 114.697C235.023 114.284 234.165 113.713 233.459 112.987C232.763 112.26 232.228 111.418 231.854 110.459C231.481 109.49 231.294 108.461 231.294 107.371V106.766C231.294 105.524 231.471 104.389 231.824 103.36C232.177 102.331 232.682 101.438 233.338 100.681C234.004 99.9238 234.811 99.3436 235.76 98.9399C236.708 98.5262 237.778 98.3193 238.969 98.3193C240.129 98.3193 241.159 98.5111 242.057 98.8945C242.955 99.278 243.707 99.8229 244.312 100.529C244.928 101.236 245.392 102.083 245.705 103.072C246.017 104.051 246.174 105.141 246.174 106.342V108.158H233.156V105.252H241.89V104.919C241.89 104.313 241.779 103.774 241.557 103.299C241.345 102.815 241.022 102.431 240.588 102.149C240.154 101.866 239.599 101.725 238.923 101.725C238.348 101.725 237.854 101.851 237.44 102.104C237.026 102.356 236.688 102.709 236.426 103.163C236.174 103.617 235.982 104.152 235.851 104.768C235.729 105.373 235.669 106.039 235.669 106.766V107.371C235.669 108.027 235.76 108.632 235.941 109.188C236.133 109.743 236.401 110.222 236.744 110.625C237.097 111.029 237.521 111.342 238.015 111.564C238.52 111.786 239.09 111.897 239.726 111.897C240.513 111.897 241.244 111.746 241.92 111.443C242.607 111.13 243.197 110.661 243.691 110.035L245.811 112.336C245.467 112.83 244.998 113.305 244.403 113.759C243.818 114.213 243.111 114.586 242.284 114.879C241.456 115.161 240.513 115.303 239.453 115.303ZM236.38 96.397L239.347 91.7349H244.085L239.922 96.397H236.38ZM252.925 102.119V115H248.565V98.6221H252.652L252.925 102.119ZM252.289 106.236H251.108C251.108 105.025 251.265 103.935 251.578 102.966C251.89 101.987 252.329 101.155 252.895 100.469C253.46 99.7725 254.131 99.2427 254.908 98.8794C255.695 98.506 256.573 98.3193 257.542 98.3193C258.308 98.3193 259.01 98.4303 259.646 98.6523C260.281 98.8743 260.826 99.2275 261.28 99.7119C261.744 100.196 262.098 100.837 262.34 101.634C262.592 102.431 262.718 103.405 262.718 104.556V115H258.329V104.541C258.329 103.814 258.228 103.249 258.026 102.845C257.824 102.442 257.526 102.159 257.133 101.998C256.749 101.826 256.275 101.74 255.71 101.74C255.125 101.74 254.615 101.856 254.181 102.088C253.757 102.32 253.404 102.643 253.122 103.057C252.849 103.461 252.642 103.935 252.501 104.48C252.36 105.025 252.289 105.61 252.289 106.236ZM273.571 115.303C272.3 115.303 271.16 115.101 270.15 114.697C269.141 114.284 268.284 113.713 267.577 112.987C266.881 112.26 266.346 111.418 265.973 110.459C265.599 109.49 265.413 108.461 265.413 107.371V106.766C265.413 105.524 265.589 104.389 265.942 103.36C266.296 102.331 266.8 101.438 267.456 100.681C268.122 99.9238 268.929 99.3436 269.878 98.9399C270.826 98.5262 271.896 98.3193 273.087 98.3193C274.247 98.3193 275.277 98.5111 276.175 98.8945C277.073 99.278 277.825 99.8229 278.43 100.529C279.046 101.236 279.51 102.083 279.823 103.072C280.136 104.051 280.292 105.141 280.292 106.342V108.158H267.274V105.252H276.008V104.919C276.008 104.313 275.897 103.774 275.675 103.299C275.463 102.815 275.14 102.431 274.707 102.149C274.273 101.866 273.718 101.725 273.042 101.725C272.466 101.725 271.972 101.851 271.558 102.104C271.144 102.356 270.806 102.709 270.544 103.163C270.292 103.617 270.1 104.152 269.969 104.768C269.848 105.373 269.787 106.039 269.787 106.766V107.371C269.787 108.027 269.878 108.632 270.06 109.188C270.251 109.743 270.519 110.222 270.862 110.625C271.215 111.029 271.639 111.342 272.133 111.564C272.638 111.786 273.208 111.897 273.844 111.897C274.631 111.897 275.362 111.746 276.039 111.443C276.725 111.13 277.315 110.661 277.81 110.035L279.929 112.336C279.586 112.83 279.116 113.305 278.521 113.759C277.936 114.213 277.229 114.586 276.402 114.879C275.574 115.161 274.631 115.303 273.571 115.303ZM287.134 102.194V115H282.774V98.6221H286.876L287.134 102.194ZM292.068 98.5161L291.993 102.558C291.781 102.527 291.523 102.502 291.221 102.482C290.928 102.452 290.661 102.437 290.418 102.437C289.803 102.437 289.268 102.517 288.814 102.679C288.37 102.83 287.997 103.057 287.694 103.36C287.401 103.663 287.179 104.031 287.028 104.465C286.887 104.899 286.806 105.393 286.786 105.948L285.908 105.676C285.908 104.616 286.014 103.642 286.226 102.754C286.438 101.856 286.745 101.074 287.149 100.408C287.563 99.7422 288.067 99.2275 288.663 98.8643C289.258 98.501 289.939 98.3193 290.706 98.3193C290.948 98.3193 291.195 98.3395 291.448 98.3799C291.7 98.4102 291.907 98.4556 292.068 98.5161ZM304.193 98.6221H308.144V114.455C308.144 115.949 307.811 117.215 307.145 118.254C306.489 119.304 305.57 120.096 304.39 120.631C303.209 121.176 301.837 121.448 300.272 121.448C299.586 121.448 298.86 121.357 298.093 121.176C297.336 120.994 296.609 120.712 295.913 120.328C295.227 119.945 294.652 119.46 294.188 118.875L296.11 116.302C296.614 116.887 297.2 117.341 297.866 117.664C298.532 117.997 299.268 118.164 300.076 118.164C300.863 118.164 301.529 118.017 302.074 117.725C302.619 117.442 303.037 117.023 303.33 116.468C303.623 115.923 303.769 115.262 303.769 114.485V102.406L304.193 98.6221ZM293.173 107.008V106.69C293.173 105.439 293.325 104.303 293.627 103.284C293.94 102.255 294.379 101.372 294.944 100.635C295.52 99.8986 296.216 99.3285 297.033 98.9248C297.851 98.5212 298.774 98.3193 299.803 98.3193C300.893 98.3193 301.806 98.5212 302.543 98.9248C303.28 99.3285 303.885 99.9036 304.359 100.65C304.834 101.387 305.202 102.26 305.464 103.269C305.737 104.268 305.949 105.363 306.1 106.554V107.25C305.949 108.39 305.722 109.45 305.419 110.429C305.116 111.408 304.718 112.265 304.223 113.002C303.729 113.729 303.113 114.294 302.376 114.697C301.65 115.101 300.782 115.303 299.773 115.303C298.764 115.303 297.851 115.096 297.033 114.682C296.226 114.268 295.535 113.688 294.959 112.941C294.384 112.195 293.94 111.317 293.627 110.308C293.325 109.299 293.173 108.199 293.173 107.008ZM297.533 106.69V107.008C297.533 107.684 297.598 108.315 297.729 108.9C297.861 109.485 298.062 110.005 298.335 110.459C298.618 110.903 298.966 111.251 299.379 111.503C299.803 111.746 300.303 111.867 300.878 111.867C301.675 111.867 302.326 111.7 302.831 111.367C303.335 111.024 303.714 110.555 303.966 109.959C304.218 109.364 304.364 108.678 304.405 107.901V105.918C304.385 105.282 304.299 104.712 304.147 104.208C303.996 103.693 303.784 103.254 303.512 102.891C303.239 102.527 302.886 102.245 302.452 102.043C302.018 101.841 301.504 101.74 300.908 101.74C300.333 101.74 299.833 101.871 299.41 102.134C298.996 102.386 298.648 102.734 298.365 103.178C298.093 103.622 297.886 104.147 297.745 104.752C297.603 105.348 297.533 105.994 297.533 106.69ZM316.136 98.6221V115H311.761V98.6221H316.136ZM311.489 94.3535C311.489 93.7178 311.711 93.193 312.155 92.7793C312.599 92.3656 313.194 92.1587 313.941 92.1587C314.678 92.1587 315.268 92.3656 315.712 92.7793C316.166 93.193 316.393 93.7178 316.393 94.3535C316.393 94.9893 316.166 95.514 315.712 95.9277C315.268 96.3415 314.678 96.5483 313.941 96.5483C313.194 96.5483 312.599 96.3415 312.155 95.9277C311.711 95.514 311.489 94.9893 311.489 94.3535ZM327.276 115.303C326.005 115.303 324.865 115.101 323.855 114.697C322.846 114.284 321.989 113.713 321.282 112.987C320.586 112.26 320.051 111.418 319.678 110.459C319.304 109.49 319.118 108.461 319.118 107.371V106.766C319.118 105.524 319.294 104.389 319.647 103.36C320.001 102.331 320.505 101.438 321.161 100.681C321.827 99.9238 322.634 99.3436 323.583 98.9399C324.532 98.5262 325.601 98.3193 326.792 98.3193C327.952 98.3193 328.982 98.5111 329.88 98.8945C330.778 99.278 331.53 99.8229 332.135 100.529C332.751 101.236 333.215 102.083 333.528 103.072C333.841 104.051 333.997 105.141 333.997 106.342V108.158H320.979V105.252H329.713V104.919C329.713 104.313 329.602 103.774 329.38 103.299C329.168 102.815 328.846 102.431 328.412 102.149C327.978 101.866 327.423 101.725 326.747 101.725C326.171 101.725 325.677 101.851 325.263 102.104C324.849 102.356 324.511 102.709 324.249 103.163C323.997 103.617 323.805 104.152 323.674 104.768C323.553 105.373 323.492 106.039 323.492 106.766V107.371C323.492 108.027 323.583 108.632 323.765 109.188C323.956 109.743 324.224 110.222 324.567 110.625C324.92 111.029 325.344 111.342 325.838 111.564C326.343 111.786 326.913 111.897 327.549 111.897C328.336 111.897 329.068 111.746 329.744 111.443C330.43 111.13 331.02 110.661 331.515 110.035L333.634 112.336C333.291 112.83 332.821 113.305 332.226 113.759C331.641 114.213 330.934 114.586 330.107 114.879C329.279 115.161 328.336 115.303 327.276 115.303Z" fill="#222222"/>
<rect x="451" y="50" width="50" height="50" rx="16" fill="#E4E4E4"/>
<path d="M468.043 78.4982C466.362 78.4982 465 77.1359 465 75.4554V75.4554C465 73.7749 466.362 72.4126 468.043 72.4126L484.957 72.4126C486.638 72.4126 488 73.7749 488 75.4554V75.4554C488 77.1359 486.638 78.4982 484.957 78.4982L468.043 78.4982Z" fill="#212121"/>
<mask id="mask0_275_6487" style="mask-type:alpha" maskUnits="userSpaceOnUse" x="207" y="153" width="294" height="25">
<rect x="207" y="153.386" width="294" height="24.5" rx="12.25" fill="#D9D9D9"/>
</mask>
<g mask="url(#mask0_275_6487)">
<rect x="207" y="153.386" width="26.95" height="24.5" fill="#A8EC6C"/>
<rect x="238.957" y="153.386" width="24.5" height="24.5" fill="#A8EC6C"/>
<rect x="268.355" y="153.386" width="24.5" height="24.5" fill="#A8EC6C"/>
<rect x="297.754" y="153.386" width="24.5" height="24.5" fill="#FAC04F"/>
<rect x="327.156" y="153.386" width="24.5" height="24.5" fill="#FAC04F"/>
<rect x="356.555" y="153.386" width="24.5" height="24.5" fill="#FAC04F"/>
<rect x="415.355" y="153.386" width="24.5" height="24.5" fill="#E96B73"/>
<rect x="385.957" y="153.386" width="24.5" height="24.5" fill="#FAC04F"/>
<rect x="444.754" y="153.386" width="24.5" height="24.5" fill="#E96B73"/>
<rect x="474.051" y="153.386" width="26.95" height="24.5" fill="#E96B73"/>
</g>
<mask id="path-43-outside-1_275_6487" maskUnits="userSpaceOnUse" x="473.727" y="160.426" width="25" height="35" fill="black">
<rect fill="white" x="473.727" y="160.426" width="25" height="35"/>
<path fill-rule="evenodd" clip-rule="evenodd" d="M493.652 178.734L486.302 166.426L478.951 178.734C475.543 184.441 479.654 191.686 486.302 191.686C492.949 191.686 497.061 184.441 493.652 178.734Z"/>
</mask>
<path fill-rule="evenodd" clip-rule="evenodd" d="M493.652 178.734L486.302 166.426L478.951 178.734C475.543 184.441 479.654 191.686 486.302 191.686C492.949 191.686 497.061 184.441 493.652 178.734Z" fill="#212121"/>
<path d="M486.302 166.426L488.877 164.888L486.302 160.575L483.726 164.888L486.302 166.426ZM493.652 178.734L491.077 180.272L491.077 180.272L493.652 178.734ZM478.951 178.734L481.526 180.272L481.526 180.272L478.951 178.734ZM483.726 167.964L491.077 180.272L496.228 177.196L488.877 164.888L483.726 167.964ZM481.526 180.272L488.877 167.964L483.726 164.888L476.375 177.196L481.526 180.272ZM486.302 188.686C481.983 188.686 479.312 183.979 481.526 180.272L476.375 177.196C471.773 184.902 477.325 194.686 486.302 194.686V188.686ZM491.077 180.272C493.291 183.979 490.62 188.686 486.302 188.686V194.686C495.278 194.686 500.83 184.902 496.228 177.196L491.077 180.272Z" fill="white" mask="url(#path-43-outside-1_275_6487)"/>
<circle cx="486.3" cy="183.576" r="3.675" fill="white"/>
</svg>
