<svg width="282" height="175" viewBox="0 0 282 175" fill="none" xmlns="http://www.w3.org/2000/svg">
<path fill-rule="evenodd" clip-rule="evenodd" d="M40.2513 20.439V60.5169V60.5175V114.034H13.2109V60.5175V60.5169V20.439C13.2109 12.9641 19.2288 7 26.7713 7C30.5425 7 33.9125 8.51089 36.3197 10.8965C38.7268 13.3617 40.2513 16.7015 40.2513 20.439ZM40.2513 154.114V114.035H13.2109V154.114C13.2109 161.509 19.2288 167.553 26.691 167.553C34.2334 167.553 40.2513 161.509 40.2513 154.114Z" fill="#E96B73"/>
<path fill-rule="evenodd" clip-rule="evenodd" d="M40.2513 114.035H13.2109V154.114C13.2109 161.509 19.2288 167.553 26.691 167.553C34.2334 167.553 40.2513 161.509 40.2513 154.114V114.035ZM6.21094 20.439C6.21094 9.03889 15.4223 0 26.7712 0C32.4479 0 37.5721 2.2825 41.2471 5.92458L41.2878 5.96497L41.3279 6.00603C44.9125 9.67698 47.2513 14.7363 47.2513 20.439V154.114C47.2513 165.407 38.0671 174.553 26.691 174.553C15.368 174.553 6.21094 165.38 6.21094 154.114V20.439ZM13.2109 114.035V20.439C13.2109 12.9641 19.2288 7 26.7712 7C30.5425 7 33.9125 8.51089 36.3196 10.8965C38.7268 13.3617 40.2513 16.7015 40.2513 20.439V114.035H13.2109Z" fill="#212121"/>
<path d="M26.6603 167C19.2324 167 13.2109 160.978 13.2109 153.551L13.2109 20.0172C13.2109 12.5893 19.2324 6.56779 26.6603 6.56779V6.56779C34.0882 6.56779 40.1098 12.5893 40.1098 20.0172L40.1098 153.551C40.1098 160.978 34.0883 167 26.6603 167V167Z" fill="#212121"/>
<path d="M40.2513 60.5166H13.2109V114.034H40.2513V60.5166Z" fill="#FAC04F"/>
<path d="M40.2513 20.439V60.5175H13.2109V20.439C13.2109 12.9641 19.2288 7 26.7712 7C30.5425 7 33.9125 8.51089 36.3196 10.8965C38.7268 13.3617 40.2513 16.7015 40.2513 20.439Z" fill="#A8EB6C"/>
<path d="M40.2513 114.035V154.114C40.2513 161.509 34.2334 167.553 26.691 167.553C19.2288 167.553 13.2109 161.509 13.2109 154.114V114.035H40.2513Z" fill="#E96B73"/>
<path opacity="0.2" d="M40.3945 125.5C35.6732 169.9 13.8945 155 12.8945 146L11.8945 160.5L18.288 167L29.5994 170L41.8945 160.5L40.3945 125.5Z" fill="#212121"/>
<path d="M0 140C0 137.239 2.23858 135 5 135H23C25.7614 135 28 137.239 28 140C28 142.761 25.7614 145 23 145H5C2.23858 145 0 142.761 0 140Z" fill="#212121"/>
<path fill-rule="evenodd" clip-rule="evenodd" d="M0 147.484C1.4301 148.442 3.14985 149 5 149H23C27.9706 149 32 144.971 32 140C32 135.029 27.9706 131 23 131H5C3.14985 131 1.4301 131.558 0 132.516V140V147.484ZM0 140C0 142.761 2.23858 145 5 145H23C25.7614 145 28 142.761 28 140C28 137.239 25.7614 135 23 135H5C2.23858 135 0 137.239 0 140Z" fill="white"/>
<path d="M273.211 89.0527C273.211 98.3543 271.567 107.295 268.56 115.594C262.265 132.915 249.957 147.308 234.16 156.369C227.866 159.977 220.97 162.744 213.713 164.468C211.427 165.029 209.062 165.47 206.696 165.791C204.05 166.152 201.364 166.392 198.638 166.513C197.675 166.553 196.673 166.553 195.671 166.553C181.157 166.553 167.566 162.543 155.938 155.607C151.087 152.721 146.597 149.273 142.507 145.424C127.593 131.271 118.251 111.264 118.251 89.0527C118.251 88.1306 118.251 87.2485 118.291 86.3264C119.734 44.7899 153.854 11.5527 195.751 11.5527C238.53 11.5527 273.211 46.2333 273.211 89.0527Z" fill="#C7C7C7"/>
<path fill-rule="evenodd" clip-rule="evenodd" d="M276.082 118.32L276.079 118.327C269.126 137.458 255.544 153.326 238.141 163.308L238.139 163.31C231.2 167.287 223.598 170.339 215.591 172.244C213.021 172.874 210.386 173.364 207.771 173.718C204.88 174.112 201.953 174.374 198.99 174.505L198.98 174.505L198.971 174.506C197.84 174.553 196.697 174.553 195.741 174.553H195.671C179.666 174.553 164.666 170.128 151.844 162.48C146.454 159.272 141.503 155.464 137.024 151.249L137.012 151.238L137.001 151.227C120.567 135.633 110.251 113.558 110.251 89.0527L110.251 88.9897C110.251 88.1161 110.251 87.0986 110.297 86.0148C111.907 40.2031 149.538 3.55273 195.751 3.55273C242.951 3.55273 281.211 41.8177 281.211 89.0527C281.211 99.3027 279.399 109.165 276.082 118.32ZM206.696 165.791C209.062 165.47 211.427 165.029 213.713 164.468C220.97 162.744 227.866 159.977 234.16 156.369C249.957 147.308 262.265 132.915 268.56 115.594C271.567 107.295 273.211 98.3543 273.211 89.0527C273.211 46.2333 238.53 11.5527 195.751 11.5527C153.854 11.5527 119.734 44.7899 118.291 86.3264C118.251 87.2485 118.251 88.1306 118.251 89.0527C118.251 111.264 127.593 131.271 142.507 145.424C146.597 149.273 151.087 152.721 155.939 155.607C167.566 162.543 181.157 166.553 195.671 166.553C196.673 166.553 197.675 166.553 198.638 166.513C201.364 166.392 204.05 166.152 206.696 165.791Z" fill="#212121"/>
<path d="M213.753 164.427C221.01 162.703 227.866 159.937 234.2 156.329C249.997 147.308 262.265 132.874 268.6 115.554C252.322 109.74 248.874 125.938 248.874 125.938C242.419 125.216 237.728 126.7 234.28 128.945C233.519 129.426 232.837 129.988 232.196 130.549C230.672 131.872 229.509 133.355 228.587 134.759C226.542 137.926 225.901 140.692 225.901 140.692L222.373 134.759L218.764 128.745L216.84 125.537L215.838 123.853C215.116 119.443 212.791 117.719 210.505 117.158C207.699 116.476 204.852 117.559 204.852 117.559C204.852 117.559 205.333 103.205 191.581 97.5522C189.136 96.5499 186.249 95.8282 182.841 95.5074C173.9 94.6655 166.804 96.7904 161.832 99.2361C156.46 101.882 153.573 104.929 153.573 104.929C151.328 103.085 149.083 102.123 146.958 101.762C141.144 100.72 136.493 104.007 136.493 104.007C133.005 91.8189 125.548 87.4487 118.291 86.3662C118.251 87.2082 118.251 88.1303 118.251 89.0524C118.251 111.264 127.593 131.311 142.587 145.423C146.677 149.272 151.167 152.72 156.019 155.607C167.646 162.543 181.197 166.552 195.751 166.552C196.753 166.552 197.716 166.552 198.718 166.512C201.444 166.432 204.13 166.151 206.777 165.791L213.753 164.427Z" fill="#4B5A59" fill-opacity="0.8"/>
<path d="M195.751 137.886H143.31L148.762 83.8809H190.178L195.751 137.886Z" fill="#FFE9E9"/>
<path d="M198.678 166.473C197.715 166.513 196.713 166.513 195.711 166.513C181.197 166.513 167.606 162.503 155.979 155.567C156.5 150.596 157.141 144.462 157.783 137.846H195.671L198.678 166.473Z" fill="#E96B73"/>
<path d="M157.822 137.886C157.141 144.461 156.499 150.636 156.018 155.607C151.167 152.721 146.676 149.273 142.587 145.424L143.349 137.886H157.822Z" fill="#DC4F58"/>
<path d="M163.156 86.6072C163.116 86.968 160.189 114.993 157.863 137.886H143.31L148.762 83.8809H149.885L163.156 86.6072Z" fill="#EED3D3"/>
<path d="M157.943 126.019H143.349C141.866 126.019 140.663 124.816 140.663 123.333V122.37C140.663 120.887 141.866 119.684 143.349 119.684H157.783C156.46 120.326 155.538 121.488 155.538 122.811C155.538 124.175 156.54 125.377 157.943 126.019Z" fill="#DC4F58"/>
<path d="M198.477 122.37V123.333C198.477 124.816 197.274 126.019 195.791 126.019H157.943C156.499 125.417 155.537 124.215 155.537 122.811C155.537 121.488 156.419 120.285 157.782 119.684H195.791C197.274 119.644 198.477 120.847 198.477 122.37Z" fill="#E96B73"/>
<path d="M236.204 56.2566C234.32 55.4547 232.235 54.9736 230.03 54.9736C221.37 54.9736 214.354 61.9899 214.354 70.65C214.354 72.8953 214.835 75.0202 215.677 76.9447C209.743 79.1899 205.533 84.8831 205.533 91.6187C205.533 100.279 212.549 107.295 221.21 107.295C223.335 107.295 225.339 106.894 227.183 106.132C226.141 105.691 225.059 105.13 224.016 104.408C216.519 99.477 217.12 90.2957 217.12 90.2957C217.12 90.2957 217.481 86.1661 219.967 82.6379C220.769 81.5153 221.771 80.4328 223.054 79.5507C224.457 78.6286 225.379 77.6262 225.941 76.664C227.023 74.8999 226.983 73.2962 226.823 72.4141C226.702 71.6123 226.582 70.7703 226.622 69.9685C226.903 61.0277 232.957 57.4995 236.204 56.2566Z" fill="#4B5A59"/>
<path d="M254.047 69.4871C254.127 69.0862 254.167 68.6452 254.167 68.2041C254.167 64.1547 250.879 60.827 246.79 60.827C245.387 60.827 244.104 61.2279 243.021 61.8694C241.818 60.0652 240.215 58.5417 238.41 57.379C237.729 56.938 236.967 56.5371 236.205 56.2163C232.998 57.4592 226.904 61.0275 226.623 69.9682C226.583 70.7701 226.663 71.6121 226.824 72.4139C226.984 73.296 227.024 74.8997 225.941 76.6638C225.38 77.626 224.458 78.5883 223.055 79.5505C221.772 80.4325 220.769 81.475 219.968 82.6377C217.482 86.206 217.121 90.2954 217.121 90.2954C217.121 90.2954 216.479 99.4768 224.017 104.408C225.1 105.09 226.142 105.691 227.184 106.132C231.755 104.248 235.243 100.279 236.446 95.3873C239.052 97.3117 242.259 98.4343 245.707 98.4343C254.367 98.4343 261.384 91.4181 261.384 82.7579C261.344 77.1449 258.417 72.2536 254.047 69.4871Z" fill="#617983"/>
<path d="M234.161 156.329C227.867 159.938 220.971 162.704 213.714 164.428L216.079 134.759L216.56 128.745L216.801 125.538L217.603 115.715V115.675L217.884 111.986H230.713L230.954 115.354L231.996 128.745L232.117 130.59L232.437 134.799L234.161 156.329Z" fill="#FAC04F"/>
<path d="M213.754 164.428L216.119 134.759L216.6 128.705L216.841 125.538L217.643 115.715V115.675L217.923 111.986H216.801L214.315 112.187L210.867 112.508L210.626 115.354L210.506 117.118L209.584 128.705L209.143 134.759L206.737 165.751L213.754 164.428Z" fill="#ECBA5A"/>
<path d="M214.354 134.759H208.54C206.896 134.759 205.533 133.396 205.533 131.752C205.533 130.91 205.894 130.148 206.415 129.627C206.977 129.066 207.698 128.745 208.54 128.745H214.354C213.512 128.745 212.79 129.066 212.229 129.627C211.667 130.188 211.347 130.91 211.347 131.752C211.347 133.396 212.71 134.759 214.354 134.759Z" fill="#C89551"/>
<path d="M236.124 131.752C236.124 132.594 235.803 133.356 235.242 133.877C234.681 134.438 233.959 134.759 233.117 134.759H214.394C212.75 134.759 211.387 133.396 211.387 131.752C211.387 130.91 211.707 130.148 212.269 129.627C212.83 129.066 213.552 128.745 214.394 128.745H233.117C234.761 128.705 236.124 130.068 236.124 131.752Z" fill="#DEA14E"/>
<path d="M218.122 115.715H212.269C210.144 115.715 208.42 113.991 208.42 111.866V108.217C208.42 106.092 210.144 104.368 212.269 104.368H218.122C215.998 104.368 214.274 106.092 214.274 108.217V111.866C214.274 113.991 215.998 115.715 218.122 115.715Z" fill="#C89551"/>
<path d="M233.237 108.217V111.866C233.237 113.991 231.513 115.715 229.389 115.715H218.122C215.997 115.715 214.273 113.991 214.273 111.866V108.217C214.273 106.092 215.997 104.368 218.122 104.368H229.389C231.513 104.368 233.237 106.092 233.237 108.217Z" fill="#DEA14E"/>
<path d="M263.067 53.6104C262.546 54.6528 261.784 55.615 260.862 56.457C256.773 60.1055 250.478 59.7446 246.83 55.6551C243.181 51.5656 243.542 45.271 247.632 41.6225C249.436 39.9787 251.721 39.1769 253.966 39.0967C252.122 42.665 252.563 47.1153 255.369 50.2827C257.374 52.6081 260.221 53.7307 263.067 53.6104Z" fill="#4B5A59"/>
<path d="M261.664 42.4245C264.511 45.5919 264.912 50.0823 263.068 53.6105C260.221 53.6907 257.374 52.5681 255.37 50.2828C252.523 47.1154 252.122 42.625 253.966 39.0968C256.773 39.0166 259.62 40.1392 261.664 42.4245Z" fill="#617983"/>
<path d="M206.416 25.0239C205.935 25.9861 205.254 26.8682 204.372 27.63C200.603 30.9978 194.789 30.677 191.421 26.9083C188.054 23.1395 188.374 17.326 192.143 13.9582C193.827 12.4748 195.912 11.713 197.997 11.6328C196.313 14.9204 196.674 19.05 199.28 21.9367C201.204 24.0617 203.81 25.1041 206.416 25.0239Z" fill="#4B5A59"/>
<path d="M205.132 14.7203C207.738 17.6471 208.139 21.7767 206.415 25.0243C203.809 25.1044 201.203 24.062 199.319 21.9772C196.713 19.0504 196.312 14.9208 198.036 11.6732C200.642 11.5931 203.248 12.6355 205.132 14.7203Z" fill="#617983"/>
<path d="M223.135 39.658C222.774 40.3396 222.333 40.941 221.732 41.4622C219.126 43.7876 215.117 43.547 212.791 40.941C210.466 38.3349 210.706 34.3256 213.312 32.0002C214.475 30.9578 215.918 30.4366 217.362 30.3965C216.199 32.6417 216.44 35.5284 218.244 37.5331C219.487 39.0165 221.331 39.7382 223.135 39.658Z" fill="#4B5A59"/>
<path d="M222.213 32.5215C224.017 34.5262 224.298 37.3728 223.095 39.6581C221.291 39.6982 219.487 39.0166 218.204 37.5332C216.399 35.5285 216.119 32.6819 217.322 30.3966C219.126 30.3565 220.93 31.0782 222.213 32.5215Z" fill="#617983"/>
<path d="M160.388 70.0484C151.728 67.0815 153.653 55.9757 154.334 52.9687C154.455 52.5277 154.655 52.0867 154.976 51.7659C159.025 47.2354 155.858 43.0657 154.695 41.8228C154.414 41.5422 154.254 41.2214 154.134 40.8606C148.641 22.8989 162.393 15.0807 167.605 12.7954C165.119 11.9534 162.433 11.5525 159.627 11.6728C149.042 12.194 140.382 20.6937 139.62 31.2382C139.179 37.3324 141.344 42.9053 145.073 46.9948C142.627 50.0018 140.663 54.2116 140.663 58.261C140.663 68.3244 150.084 76.0623 161.15 76.0623C165.159 76.0623 168.888 74.9798 172.015 73.1355C168.086 72.2936 163.876 71.2512 160.388 70.0484Z" fill="#4B5A59"/>
<path d="M181.799 34.6867C181.839 34.0853 181.879 33.4439 181.879 32.8024C181.879 24.4229 177.028 17.166 169.932 13.7581C169.17 13.3973 168.368 13.0766 167.566 12.7959C162.354 15.0812 148.602 22.8994 154.055 40.821C154.095 41.0214 154.175 41.2219 154.255 41.4224C154.255 41.4224 154.456 41.5828 154.736 41.9436C154.736 41.9436 154.736 41.9436 154.777 41.9837C154.817 42.0238 154.857 42.0639 154.897 42.104L154.937 42.1441C154.977 42.1842 155.017 42.2242 155.057 42.2643C155.057 42.3044 155.097 42.3044 155.097 42.3445C155.137 42.3846 155.177 42.4247 155.218 42.4648C155.258 42.5049 155.258 42.5049 155.298 42.545C155.338 42.5851 155.378 42.6653 155.418 42.7054C155.418 42.7455 155.458 42.7455 155.458 42.7855C155.578 42.9459 155.699 43.1063 155.819 43.3068C155.819 43.3468 155.859 43.3468 155.859 43.3869C155.899 43.4671 155.939 43.5072 155.979 43.5874C156.019 43.6275 156.019 43.6676 156.06 43.7077C156.1 43.7879 156.14 43.828 156.18 43.9082C156.18 43.9482 156.22 43.9883 156.22 44.0284C156.26 44.1086 156.3 44.1888 156.3 44.2289C156.3 44.269 156.34 44.3091 156.34 44.3492C156.38 44.4294 156.42 44.5496 156.46 44.6298C156.46 44.6298 156.46 44.6699 156.501 44.6699C156.541 44.7902 156.581 44.9105 156.621 45.0308C156.621 45.0709 156.661 45.1109 156.661 45.151C156.701 45.2312 156.701 45.3114 156.741 45.4317C156.741 45.4718 156.781 45.5119 156.781 45.552C156.781 45.6322 156.821 45.7123 156.821 45.7925C156.821 45.8326 156.821 45.8727 156.861 45.9529C156.861 46.0331 156.901 46.1133 156.901 46.1935C156.901 46.2336 156.901 46.2736 156.901 46.3538C156.901 46.4741 156.901 46.5543 156.942 46.6746C156.942 46.7147 156.942 46.7548 156.942 46.7949C156.942 46.9151 156.942 47.0755 156.942 47.1958C156.942 47.2359 156.942 47.276 156.942 47.3161C156.942 47.4363 156.942 47.5165 156.901 47.6368C156.901 47.6769 156.901 47.7571 156.901 47.7972C156.901 47.8774 156.861 47.9977 156.861 48.0778C156.861 48.1179 156.821 48.1981 156.821 48.2382C156.821 48.3184 156.781 48.4387 156.741 48.5189C156.741 48.559 156.701 48.6391 156.701 48.6792C156.661 48.7995 156.621 48.8797 156.581 49C156.581 49.0401 156.541 49.0802 156.541 49.1203C156.501 49.2806 156.42 49.441 156.34 49.6014C156.34 49.6415 156.3 49.6415 156.3 49.6816C156.22 49.8018 156.18 49.9622 156.1 50.0825C156.06 50.1226 156.019 50.2028 156.019 50.2429C155.939 50.3631 155.899 50.4433 155.819 50.5636C155.779 50.6037 155.739 50.6839 155.699 50.724C155.618 50.8443 155.538 50.9244 155.498 51.0447C155.458 51.0848 155.418 51.165 155.378 51.2051C155.298 51.3254 155.218 51.4056 155.097 51.5258C155.057 51.5659 155.017 51.6461 154.977 51.6862C154.817 51.8466 154.696 52.007 154.536 52.1673C154.536 52.1673 154.456 52.448 154.336 52.9291C153.654 55.9361 151.729 67.0419 160.39 70.0088C163.918 71.2116 168.087 72.254 172.057 73.0959C172.337 72.9356 172.578 72.7752 172.859 72.6148C175.505 73.8978 178.431 74.6195 181.559 74.6195C192.584 74.6195 201.525 65.6787 201.525 54.6531C201.525 43.7478 192.705 34.8471 181.799 34.6867Z" fill="#617983"/>
<path d="M195.55 74.8194V84.2413C195.55 86.8875 193.425 89.0124 190.779 89.0124H160.388C157.742 89.0124 155.617 86.8875 155.617 84.2413V74.8194C155.617 72.1733 157.742 70.0483 160.388 70.0483H190.779C193.425 70.0483 195.55 72.1733 195.55 74.8194Z" fill="#E96B73"/>
<path d="M160.388 89.0524H148.36C145.714 89.0524 143.589 86.9275 143.589 84.2813V74.8595C143.589 72.2133 145.714 70.0884 148.36 70.0884H160.348C157.702 70.0884 155.577 72.2133 155.577 74.8595V84.2813C155.577 86.8874 157.742 89.0524 160.388 89.0524Z" fill="#DC4F58"/>
</svg>
