<svg width="326" height="30" viewBox="0 0 326 30" fill="none" xmlns="http://www.w3.org/2000/svg">
<rect width="30" height="30" rx="8" fill="#A8EB6C"/>
<path d="M12.2795 21.3478L8.95945 18.0278L15.1795 11.8078L13.4395 10.0678L21.0395 9.26775L20.2395 16.8678L18.4995 15.1278L12.2795 21.3478Z" fill="#212121"/>
<path d="M53.9016 16.096C53.9016 18.0173 54.327 19.5353 55.1776 20.65C56.043 21.7647 57.2016 22.322 58.6536 22.322C59.343 22.322 60.069 22.1973 60.8316 21.948C61.609 21.6987 62.291 21.3613 62.8776 20.936V23.51C62.3056 23.8767 61.609 24.1773 60.7876 24.412C59.9663 24.632 59.1523 24.742 58.3456 24.742C56.219 24.742 54.503 23.9353 53.1976 22.322C51.8923 20.7087 51.2396 18.6407 51.2396 16.118C51.2396 13.5807 51.907 11.5053 53.2416 9.892C54.591 8.27867 56.3583 7.472 58.5436 7.472C59.3356 7.472 60.1203 7.57467 60.8976 7.78C61.675 7.98533 62.2983 8.264 62.7676 8.616V11.19C62.1516 10.7647 61.499 10.442 60.8096 10.222C60.1203 9.98733 59.4456 9.87 58.7856 9.87C57.2896 9.87 56.1016 10.4273 55.2216 11.542C54.3416 12.642 53.9016 14.16 53.9016 16.096ZM75.9216 18.516C75.9216 20.3787 75.4303 21.882 74.4476 23.026C73.4649 24.17 72.1449 24.742 70.4876 24.742C68.8449 24.742 67.5323 24.17 66.5496 23.026C65.5669 21.882 65.0756 20.3787 65.0756 18.516C65.0756 16.6533 65.5669 15.15 66.5496 14.006C67.5323 12.8473 68.8449 12.268 70.4876 12.268C72.1303 12.268 73.4429 12.8473 74.4256 14.006C75.4229 15.15 75.9216 16.6533 75.9216 18.516ZM73.4356 18.516C73.4356 17.284 73.1716 16.3013 72.6436 15.568C72.1156 14.8347 71.3969 14.468 70.4876 14.468C69.5636 14.468 68.8449 14.8347 68.3316 15.568C67.8183 16.2867 67.5616 17.2693 67.5616 18.516C67.5616 19.7627 67.8183 20.7453 68.3316 21.464C68.8449 22.1827 69.5636 22.542 70.4876 22.542C71.3969 22.542 72.1156 22.1827 72.6436 21.464C73.1716 20.7307 73.4356 19.748 73.4356 18.516ZM81.4606 15.656V24.5H78.9966V12.51H81.4606V13.39L81.5266 13.456C82.0839 13.06 82.6633 12.7667 83.2646 12.576C83.8659 12.3707 84.4893 12.268 85.1346 12.268C86.2933 12.268 87.1733 12.5907 87.7746 13.236C88.3759 13.8813 88.6766 14.8347 88.6766 16.096V24.5H86.2126V16.91C86.2126 16.0153 86.0806 15.3847 85.8166 15.018C85.5526 14.6513 85.1053 14.468 84.4746 14.468C83.9026 14.468 83.3159 14.5853 82.7146 14.82C82.1279 15.0547 81.7099 15.3333 81.4606 15.656ZM100.273 21.178C100.273 22.2487 99.8698 23.114 99.0632 23.774C98.2565 24.4193 97.1785 24.742 95.8292 24.742C95.1545 24.742 94.4798 24.6613 93.8052 24.5C93.1452 24.3387 92.6098 24.126 92.1992 23.862V21.508C92.3898 21.684 92.6172 21.8453 92.8812 21.992C93.1598 22.124 93.4752 22.2487 93.8272 22.366C94.1205 22.454 94.4212 22.5273 94.7292 22.586C95.0372 22.63 95.3525 22.652 95.6752 22.652C96.3645 22.652 96.8998 22.5493 97.2812 22.344C97.6625 22.124 97.8532 21.816 97.8532 21.42C97.8532 21.0973 97.7138 20.804 97.4352 20.54C97.1565 20.276 96.5478 19.946 95.6092 19.55C94.9052 19.242 94.3845 18.9927 94.0472 18.802C93.7245 18.6113 93.4458 18.4133 93.2112 18.208C92.8298 17.8853 92.5438 17.526 92.3532 17.13C92.1772 16.7193 92.0892 16.2647 92.0892 15.766C92.0892 14.6953 92.4778 13.8447 93.2552 13.214C94.0472 12.5833 95.1252 12.268 96.4892 12.268C97.1345 12.268 97.7578 12.3487 98.3592 12.51C98.9605 12.6567 99.4518 12.8473 99.8332 13.082V15.282C99.3052 14.9887 98.7405 14.7613 98.1392 14.6C97.5525 14.4387 96.9805 14.358 96.4232 14.358C95.8072 14.358 95.3305 14.468 94.9932 14.688C94.6705 14.908 94.5092 15.2087 94.5092 15.59C94.5092 15.9127 94.6485 16.206 94.9272 16.47C95.2058 16.7193 95.8145 17.042 96.7532 17.438C97.4572 17.7313 97.9705 17.9733 98.2932 18.164C98.6305 18.3547 98.9165 18.5527 99.1512 18.758C99.5325 19.0807 99.8112 19.44 99.9872 19.836C100.178 20.232 100.273 20.6793 100.273 21.178ZM113.541 18.516C113.541 20.3787 113.049 21.882 112.067 23.026C111.084 24.17 109.764 24.742 108.107 24.742C106.464 24.742 105.151 24.17 104.169 23.026C103.186 21.882 102.695 20.3787 102.695 18.516C102.695 16.6533 103.186 15.15 104.169 14.006C105.151 12.8473 106.464 12.268 108.107 12.268C109.749 12.268 111.062 12.8473 112.045 14.006C113.042 15.15 113.541 16.6533 113.541 18.516ZM111.055 18.516C111.055 17.284 110.791 16.3013 110.263 15.568C109.735 14.8347 109.016 14.468 108.107 14.468C107.183 14.468 106.464 14.8347 105.951 15.568C105.437 16.2867 105.181 17.2693 105.181 18.516C105.181 19.7627 105.437 20.7453 105.951 21.464C106.464 22.1827 107.183 22.542 108.107 22.542C109.016 22.542 109.735 22.1827 110.263 21.464C110.791 20.7307 111.055 19.748 111.055 18.516ZM119.08 15.634V24.5H116.616V12.51H119.08V13.39L119.146 13.456C119.703 13.0453 120.268 12.7447 120.84 12.554C121.426 12.3633 122.035 12.268 122.666 12.268C123.37 12.268 123.964 12.3853 124.448 12.62C124.946 12.8547 125.313 13.1993 125.548 13.654C126.134 13.1993 126.772 12.8547 127.462 12.62C128.151 12.3853 128.862 12.268 129.596 12.268C130.784 12.268 131.664 12.5833 132.236 13.214C132.822 13.8447 133.116 14.8053 133.116 16.096V24.5H130.652V16.91C130.652 16.0447 130.512 15.4213 130.234 15.04C129.97 14.6587 129.522 14.468 128.892 14.468C128.349 14.468 127.806 14.5853 127.264 14.82C126.721 15.0547 126.332 15.3333 126.098 15.656V24.5H123.634V17.042C123.634 16.0887 123.502 15.4213 123.238 15.04C122.988 14.6587 122.541 14.468 121.896 14.468C121.338 14.468 120.788 14.578 120.246 14.798C119.703 15.018 119.314 15.2967 119.08 15.634ZM139.533 15.634V24.5H137.069V12.51H139.533V13.39L139.599 13.456C140.156 13.0453 140.721 12.7447 141.293 12.554C141.88 12.3633 142.488 12.268 143.119 12.268C143.823 12.268 144.417 12.3853 144.901 12.62C145.4 12.8547 145.766 13.1993 146.001 13.654C146.588 13.1993 147.226 12.8547 147.915 12.62C148.604 12.3853 149.316 12.268 150.049 12.268C151.237 12.268 152.117 12.5833 152.689 13.214C153.276 13.8447 153.569 14.8053 153.569 16.096V24.5H151.105V16.91C151.105 16.0447 150.966 15.4213 150.687 15.04C150.423 14.6587 149.976 14.468 149.345 14.468C148.802 14.468 148.26 14.5853 147.717 14.82C147.174 15.0547 146.786 15.3333 146.551 15.656V24.5H144.087V17.042C144.087 16.0887 143.955 15.4213 143.691 15.04C143.442 14.6587 142.994 14.468 142.349 14.468C141.792 14.468 141.242 14.578 140.699 14.798C140.156 15.018 139.768 15.2967 139.533 15.634ZM164.012 23.378C163.631 23.7887 163.132 24.1187 162.516 24.368C161.915 24.6173 161.269 24.742 160.58 24.742C159.451 24.742 158.549 24.4047 157.874 23.73C157.199 23.0553 156.862 22.168 156.862 21.068C156.862 19.836 157.309 18.89 158.204 18.23C159.113 17.5553 160.411 17.218 162.098 17.218H163.77C163.785 17.174 163.792 17.1227 163.792 17.064C163.792 17.0053 163.792 16.9027 163.792 16.756C163.792 15.9053 163.601 15.3113 163.22 14.974C162.853 14.6367 162.208 14.468 161.284 14.468C160.683 14.468 160.096 14.534 159.524 14.666C158.967 14.798 158.38 15.0107 157.764 15.304V13.038C158.013 12.9207 158.299 12.818 158.622 12.73C158.959 12.6273 159.326 12.5393 159.722 12.466C160.059 12.3927 160.404 12.3413 160.756 12.312C161.108 12.2827 161.453 12.268 161.79 12.268C163.374 12.268 164.511 12.6493 165.2 13.412C165.889 14.1747 166.234 15.3993 166.234 17.086V24.5H164.452L164.078 23.4L164.012 23.378ZM162.362 19.044C161.335 19.044 160.573 19.1907 160.074 19.484C159.59 19.7773 159.348 20.2467 159.348 20.892C159.348 21.4787 159.509 21.926 159.832 22.234C160.155 22.542 160.624 22.696 161.24 22.696C161.812 22.696 162.355 22.5713 162.868 22.322C163.396 22.0727 163.763 21.7793 163.968 21.442V19.044H162.362ZM176.649 24.324C176.326 24.456 175.967 24.5587 175.571 24.632C175.175 24.7053 174.772 24.742 174.361 24.742C173.1 24.742 172.154 24.39 171.523 23.686C170.907 22.982 170.599 21.926 170.599 20.518V14.622H168.663V12.51H170.599V9.342H173.063V12.51H176.407V14.622H173.063V19.154C173.063 20.4593 173.188 21.3467 173.437 21.816C173.701 22.2853 174.185 22.52 174.889 22.52C175.168 22.52 175.461 22.4907 175.769 22.432C176.092 22.3733 176.385 22.3 176.649 22.212V24.324ZM182.47 7.978C182.47 8.462 182.301 8.87267 181.964 9.21C181.641 9.53267 181.238 9.694 180.754 9.694C180.27 9.694 179.859 9.53267 179.522 9.21C179.199 8.87267 179.038 8.462 179.038 7.978C179.038 7.494 179.199 7.09067 179.522 6.768C179.859 6.43067 180.27 6.262 180.754 6.262C181.238 6.262 181.641 6.43067 181.964 6.768C182.301 7.09067 182.47 7.494 182.47 7.978ZM181.986 12.51V24.5H179.522V12.51H181.986ZM195.912 18.516C195.912 20.3787 195.42 21.882 194.438 23.026C193.455 24.17 192.135 24.742 190.478 24.742C188.835 24.742 187.522 24.17 186.54 23.026C185.557 21.882 185.066 20.3787 185.066 18.516C185.066 16.6533 185.557 15.15 186.54 14.006C187.522 12.8473 188.835 12.268 190.478 12.268C192.12 12.268 193.433 12.8473 194.416 14.006C195.413 15.15 195.912 16.6533 195.912 18.516ZM193.426 18.516C193.426 17.284 193.162 16.3013 192.634 15.568C192.106 14.8347 191.387 14.468 190.478 14.468C189.554 14.468 188.835 14.8347 188.322 15.568C187.808 16.2867 187.552 17.2693 187.552 18.516C187.552 19.7627 187.808 20.7453 188.322 21.464C188.835 22.1827 189.554 22.542 190.478 22.542C191.387 22.542 192.106 22.1827 192.634 21.464C193.162 20.7307 193.426 19.748 193.426 18.516ZM201.451 15.656V24.5H198.987V12.51H201.451V13.39L201.517 13.456C202.074 13.06 202.654 12.7667 203.255 12.576C203.856 12.3707 204.48 12.268 205.125 12.268C206.284 12.268 207.164 12.5907 207.765 13.236C208.366 13.8813 208.667 14.8347 208.667 16.096V24.5H206.203V16.91C206.203 16.0153 206.071 15.3847 205.807 15.018C205.543 14.6513 205.096 14.468 204.465 14.468C203.893 14.468 203.306 14.5853 202.705 14.82C202.118 15.0547 201.7 15.3333 201.451 15.656ZM229.007 6.416L224.541 10.288L223.265 8.968L226.873 4.634L229.007 6.416ZM229.205 24.06C228.589 24.2947 227.987 24.4633 227.401 24.566C226.814 24.6833 226.227 24.742 225.641 24.742C223.749 24.742 222.267 24.2067 221.197 23.136C220.141 22.0507 219.613 20.5327 219.613 18.582C219.613 16.6607 220.111 15.128 221.109 13.984C222.106 12.84 223.455 12.268 225.157 12.268C226.609 12.268 227.731 12.708 228.523 13.588C229.315 14.4533 229.711 15.6633 229.711 17.218C229.711 17.57 229.689 17.9367 229.645 18.318C229.601 18.6993 229.535 19.0807 229.447 19.462H222.011C222.157 20.5033 222.531 21.2807 223.133 21.794C223.734 22.3073 224.577 22.564 225.663 22.564C226.205 22.564 226.77 22.5053 227.357 22.388C227.958 22.256 228.574 22.0653 229.205 21.816V24.06ZM227.467 16.756C227.481 15.9933 227.261 15.3847 226.807 14.93C226.367 14.4607 225.751 14.226 224.959 14.226C224.093 14.226 223.404 14.512 222.891 15.084C222.377 15.656 222.084 16.47 222.011 17.526H227.401C227.415 17.4087 227.43 17.284 227.445 17.152C227.459 17.0053 227.467 16.8733 227.467 16.756ZM235.246 7.098V24.5H232.782V7.098H235.246ZM247.918 24.06C247.302 24.2947 246.7 24.4633 246.114 24.566C245.527 24.6833 244.94 24.742 244.354 24.742C242.462 24.742 240.98 24.2067 239.91 23.136C238.854 22.0507 238.326 20.5327 238.326 18.582C238.326 16.6607 238.824 15.128 239.822 13.984C240.819 12.84 242.168 12.268 243.87 12.268C245.322 12.268 246.444 12.708 247.236 13.588C248.028 14.4533 248.424 15.6633 248.424 17.218C248.424 17.57 248.402 17.9367 248.358 18.318C248.314 18.6993 248.248 19.0807 248.16 19.462H240.724C240.87 20.5033 241.244 21.2807 241.846 21.794C242.447 22.3073 243.29 22.564 244.376 22.564C244.918 22.564 245.483 22.5053 246.07 22.388C246.671 22.256 247.287 22.0653 247.918 21.816V24.06ZM246.18 16.756C246.194 15.9933 245.974 15.3847 245.52 14.93C245.08 14.4607 244.464 14.226 243.672 14.226C242.806 14.226 242.117 14.512 241.604 15.084C241.09 15.656 240.797 16.47 240.724 17.526H246.114C246.128 17.4087 246.143 17.284 246.158 17.152C246.172 17.0053 246.18 16.8733 246.18 16.756ZM259.283 23.928C258.901 24.1773 258.41 24.3753 257.809 24.522C257.222 24.6687 256.628 24.742 256.027 24.742C254.355 24.742 253.035 24.1773 252.067 23.048C251.099 21.9187 250.615 20.408 250.615 18.516C250.615 16.624 251.099 15.1133 252.067 13.984C253.049 12.84 254.377 12.268 256.049 12.268C256.65 12.268 257.244 12.3413 257.831 12.488C258.417 12.62 258.879 12.796 259.217 13.016V15.392C258.953 15.128 258.535 14.9153 257.963 14.754C257.405 14.578 256.833 14.49 256.247 14.49C255.176 14.49 254.384 14.8127 253.871 15.458C253.357 16.1033 253.101 17.086 253.101 18.406C253.101 19.7847 253.357 20.8187 253.871 21.508C254.384 22.1827 255.161 22.52 256.203 22.52C256.745 22.52 257.31 22.432 257.897 22.256C258.498 22.08 258.96 21.8673 259.283 21.618V23.928ZM269.032 24.324C268.709 24.456 268.35 24.5587 267.954 24.632C267.558 24.7053 267.154 24.742 266.744 24.742C265.482 24.742 264.536 24.39 263.906 23.686C263.29 22.982 262.982 21.926 262.982 20.518V14.622H261.046V12.51H262.982V9.342H265.446V12.51H268.79V14.622H265.446V19.154C265.446 20.4593 265.57 21.3467 265.82 21.816C266.084 22.2853 266.568 22.52 267.272 22.52C267.55 22.52 267.844 22.4907 268.152 22.432C268.474 22.3733 268.768 22.3 269.032 22.212V24.324ZM274.369 16.58V24.5H271.905V12.51H274.369V13.94L274.457 14.006C274.867 13.4487 275.359 13.0233 275.931 12.73C276.517 12.422 277.163 12.268 277.867 12.268C277.999 12.268 278.123 12.2753 278.241 12.29C278.373 12.29 278.497 12.2973 278.615 12.312V14.996C278.541 14.9813 278.468 14.974 278.395 14.974C278.321 14.974 278.233 14.974 278.131 14.974C277.221 14.974 276.437 15.1207 275.777 15.414C275.131 15.6927 274.662 16.0813 274.369 16.58ZM284.199 7.978C284.199 8.462 284.03 8.87267 283.693 9.21C283.37 9.53267 282.967 9.694 282.483 9.694C281.999 9.694 281.588 9.53267 281.251 9.21C280.928 8.87267 280.767 8.462 280.767 7.978C280.767 7.494 280.928 7.09067 281.251 6.768C281.588 6.43067 281.999 6.262 282.483 6.262C282.967 6.262 283.37 6.43067 283.693 6.768C284.03 7.09067 284.199 7.494 284.199 7.978ZM283.715 12.51V24.5H281.251V12.51H283.715ZM294.406 23.576C294.025 23.9573 293.585 24.2507 293.086 24.456C292.602 24.6467 292.074 24.742 291.502 24.742C290.094 24.742 288.958 24.1773 288.092 23.048C287.227 21.904 286.794 20.4373 286.794 18.648C286.794 16.756 287.286 15.2233 288.268 14.05C289.266 12.862 290.586 12.268 292.228 12.268C292.668 12.268 293.079 12.3193 293.46 12.422C293.856 12.51 294.245 12.6567 294.626 12.862L296.958 12.334V29.428H294.472V23.642L294.406 23.576ZM294.472 15.084C294.223 14.908 293.908 14.7687 293.526 14.666C293.16 14.5487 292.786 14.49 292.404 14.49C291.436 14.49 290.674 14.8567 290.116 15.59C289.559 16.3233 289.28 17.3207 289.28 18.582C289.28 19.7993 289.544 20.7673 290.072 21.486C290.6 22.2047 291.319 22.564 292.228 22.564C292.742 22.564 293.196 22.4467 293.592 22.212C293.988 21.9773 294.282 21.662 294.472 21.266V15.084ZM308.059 23.554C307.501 23.95 306.922 24.2507 306.321 24.456C305.719 24.6467 305.096 24.742 304.451 24.742C303.292 24.742 302.412 24.4193 301.811 23.774C301.209 23.1287 300.909 22.1753 300.909 20.914V12.51H303.373V20.1C303.373 20.9947 303.505 21.6253 303.769 21.992C304.033 22.3587 304.48 22.542 305.111 22.542C305.668 22.542 306.247 22.4247 306.849 22.19C307.465 21.9553 307.89 21.6767 308.125 21.354V12.51H310.589V24.5H308.125V23.62L308.059 23.554ZM323.263 24.06C322.647 24.2947 322.046 24.4633 321.459 24.566C320.873 24.6833 320.286 24.742 319.699 24.742C317.807 24.742 316.326 24.2067 315.255 23.136C314.199 22.0507 313.671 20.5327 313.671 18.582C313.671 16.6607 314.17 15.128 315.167 13.984C316.165 12.84 317.514 12.268 319.215 12.268C320.667 12.268 321.789 12.708 322.581 13.588C323.373 14.4533 323.769 15.6633 323.769 17.218C323.769 17.57 323.747 17.9367 323.703 18.318C323.659 18.6993 323.593 19.0807 323.505 19.462H316.069C316.216 20.5033 316.59 21.2807 317.191 21.794C317.793 22.3073 318.636 22.564 319.721 22.564C320.264 22.564 320.829 22.5053 321.415 22.388C322.017 22.256 322.633 22.0653 323.263 21.816V24.06ZM321.525 16.756C321.54 15.9933 321.32 15.3847 320.865 14.93C320.425 14.4607 319.809 14.226 319.017 14.226C318.152 14.226 317.463 14.512 316.949 15.084C316.436 15.656 316.143 16.47 316.069 17.526H321.459C321.474 17.4087 321.489 17.284 321.503 17.152C321.518 17.0053 321.525 16.8733 321.525 16.756Z" fill="#212121"/>
</svg>
