<svg width="285" height="344" viewBox="0 0 285 344" fill="none" xmlns="http://www.w3.org/2000/svg">
<rect x="1.5" y="1.5" width="282" height="340.172" rx="30.5" stroke="#212121" stroke-width="3"/>
<path d="M154.872 105.484C154.872 112.608 153.613 119.456 151.31 125.812C146.489 139.078 137.062 150.101 124.963 157.041C120.142 159.805 114.861 161.923 109.303 163.244C107.553 163.674 105.741 164.011 103.929 164.257C101.903 164.533 99.8452 164.718 97.7572 164.81C97.0202 164.84 96.2526 164.84 95.4849 164.84C84.3691 164.84 73.9595 161.77 65.0546 156.457C61.3391 154.247 57.8999 151.606 54.7679 148.658C43.3143 137.849 36.1289 122.496 36.1289 105.484C36.1289 104.778 36.1289 104.103 36.1596 103.396C37.2651 71.5842 63.3964 46.1284 95.4542 46.1284C128.31 46.1591 154.872 72.7204 154.872 105.484Z" fill="#74CBED"/>
<path fill-rule="evenodd" clip-rule="evenodd" d="M157.071 127.9L157.069 127.906C151.744 142.558 141.342 154.711 128.012 162.357L128.011 162.358C122.696 165.405 116.874 167.742 110.741 169.201C108.773 169.684 106.755 170.059 104.752 170.33C102.538 170.632 100.296 170.833 98.0271 170.933L98.0196 170.933L98.0121 170.933C97.1464 170.969 96.2703 170.969 95.5383 170.969H95.4846C83.2268 170.969 71.7382 167.581 61.9175 161.723C57.7894 159.266 53.9972 156.349 50.5672 153.121L50.5613 153.116C37.9354 141.2 30 124.257 30 105.485L30 105.437C30 104.768 30 103.988 30.0353 103.158C31.2682 68.0727 60.0882 40 95.4539 40H95.4597C131.689 40.0339 161 69.3286 161 105.485C161 113.335 159.612 120.888 157.071 127.9ZM36.1594 103.397C36.1287 104.103 36.1287 104.778 36.1287 105.485C36.1287 122.496 43.314 137.849 54.7676 148.658C57.8997 151.606 61.3388 154.247 65.0543 156.458C73.9593 161.77 84.3688 164.841 95.4846 164.841C96.2523 164.841 97.02 164.841 97.7569 164.81C99.845 164.718 101.902 164.534 103.929 164.257C105.741 164.012 107.552 163.674 109.303 163.244C114.861 161.924 120.142 159.805 124.963 157.041C137.061 150.101 146.488 139.078 151.309 125.812C153.612 119.456 154.871 112.609 154.871 105.485C154.871 72.7206 128.31 46.1594 95.4539 46.1287C63.3962 46.1287 37.2648 71.5845 36.1594 103.397Z" fill="#212121"/>
<path opacity="0.5" d="M109.333 163.244C114.891 161.923 120.142 159.805 124.994 157.041C137.092 150.132 146.488 139.078 151.34 125.812C138.873 121.36 136.232 133.765 136.232 133.765C131.289 133.213 127.696 134.349 125.055 136.068C124.472 136.437 123.95 136.867 123.458 137.297C122.291 138.31 121.401 139.446 120.725 140.521C119.159 142.947 118.668 145.065 118.668 145.065L115.966 140.521L113.202 135.884L111.728 133.428L110.961 132.138C110.408 128.76 108.627 127.44 106.877 127.01C104.727 126.488 102.547 127.317 102.547 127.317C102.547 127.317 102.916 116.324 92.3832 111.994C90.5101 111.227 88.2992 110.674 85.6892 110.428C78.8416 109.784 73.4065 111.411 69.5989 113.284C65.4842 115.311 63.2733 117.644 63.2733 117.644C61.5537 116.232 59.8341 115.495 58.2067 115.219C53.7542 114.42 50.1922 116.938 50.1922 116.938C47.5208 107.603 41.8093 104.256 36.2514 103.427C36.2207 104.133 36.2207 104.809 36.2207 105.515C36.2207 122.527 43.3754 137.88 54.829 148.689C57.961 151.637 61.4002 154.277 65.1464 156.488C74.0513 161.801 84.4302 164.871 95.5767 164.871C96.3444 164.871 97.0813 164.841 97.849 164.841C99.9371 164.779 101.994 164.564 104.021 164.288L109.333 163.244Z" fill="white"/>
<path d="M95.5472 142.916H55.3828L59.5589 101.554H91.2789L95.5472 142.916Z" fill="#FFE9E9"/>
<path d="M97.7866 164.81C97.0496 164.841 96.2819 164.841 95.5143 164.841C84.3985 164.841 73.9889 161.77 65.084 156.458C65.4832 152.65 65.9745 147.952 66.4658 142.885H95.4836L97.7866 164.81Z" fill="#E96B73"/>
<path d="M66.4967 142.916C65.9746 147.952 65.4833 152.681 65.1149 156.488C61.3994 154.277 57.9602 151.637 54.8281 148.689L55.4115 142.916H66.4967Z" fill="#DC4F58"/>
<path d="M70.5832 103.612C70.5525 103.888 68.3109 125.352 66.5299 142.886H55.4141L59.5902 101.524H60.45L70.5832 103.612Z" fill="#EED3D3"/>
<path d="M66.5881 133.796H55.4108C54.2747 133.796 53.3535 132.875 53.3535 131.739V131.002C53.3535 129.866 54.2747 128.944 55.4108 128.944H66.4652C65.4519 129.436 64.7457 130.326 64.7457 131.339C64.7457 132.414 65.5133 133.335 66.5881 133.796Z" fill="#DC4F58"/>
<path d="M97.6349 131.002V131.739C97.6349 132.875 96.7137 133.796 95.5775 133.796H66.5904C65.485 133.335 64.748 132.414 64.748 131.339C64.748 130.326 65.4236 129.405 66.4676 128.944H95.5775C96.7137 128.944 97.6349 129.866 97.6349 131.002Z" fill="#EA556A"/>
<path d="M126.528 80.3972C125.084 79.783 123.488 79.4146 121.799 79.4146C115.166 79.4146 109.793 84.7882 109.793 91.4209C109.793 93.1404 110.161 94.7679 110.806 96.2418C106.261 97.9614 103.037 102.322 103.037 107.48C103.037 114.113 108.411 119.487 115.043 119.487C116.671 119.487 118.206 119.18 119.619 118.596C118.82 118.258 117.991 117.829 117.193 117.276C111.451 113.499 111.911 106.467 111.911 106.467C111.911 106.467 112.188 103.304 114.092 100.602C114.706 99.7424 115.473 98.9133 116.456 98.2377C117.531 97.5315 118.237 96.7638 118.667 96.0269C119.496 94.6758 119.465 93.4475 119.342 92.7719C119.25 92.1578 119.158 91.513 119.189 90.8988C119.404 84.0513 124.04 81.3491 126.528 80.3972Z" fill="#E1ECF1"/>
<path d="M140.194 90.4994C140.255 90.1923 140.286 89.8545 140.286 89.5167C140.286 86.4154 137.768 83.8667 134.636 83.8667C133.561 83.8667 132.578 84.1738 131.749 84.6651C130.828 83.2833 129.6 82.1164 128.218 81.2259C127.696 80.8882 127.113 80.5811 126.529 80.3354C124.073 81.2874 119.405 84.0202 119.19 90.8678C119.16 91.482 119.221 92.1268 119.344 92.7409C119.467 93.4165 119.497 94.6448 118.668 95.9958C118.238 96.7328 117.532 97.4698 116.457 98.2067C115.475 98.8823 114.707 99.6807 114.093 100.571C112.189 103.304 111.913 106.436 111.913 106.436C111.913 106.436 111.421 113.468 117.194 117.245C118.023 117.767 118.822 118.227 119.62 118.565C123.121 117.122 125.792 114.082 126.713 110.336C128.709 111.81 131.166 112.67 133.807 112.67C140.439 112.67 145.813 107.296 145.813 100.663C145.782 96.395 143.541 92.6488 140.194 90.4994Z" fill="#FEF5F5"/>
<path d="M124.963 157.041C120.142 159.805 114.861 161.924 109.303 163.244L111.114 140.521L111.483 135.915L111.667 133.458L112.281 125.935V125.905L112.496 123.08H122.322L122.507 125.659L123.305 135.915L123.397 137.327L123.643 140.552L124.963 157.041Z" fill="#FAC04F"/>
<path d="M109.333 163.244L111.144 140.521L111.513 135.884L111.697 133.458L112.311 125.905L112.526 123.08H111.666L109.732 123.233L107.091 123.479L106.938 125.628L106.845 127.01L106.139 135.884L105.801 140.521L103.959 164.257L109.333 163.244Z" fill="#ECBA5A"/>
<path d="M109.795 140.521H105.342C104.083 140.521 103.039 139.477 103.039 138.218C103.039 137.573 103.315 136.99 103.715 136.591C104.145 136.161 104.697 135.915 105.342 135.915H109.795C109.15 135.915 108.597 136.161 108.167 136.591C107.737 137.02 107.492 137.573 107.492 138.218C107.492 139.477 108.536 140.521 109.795 140.521Z" fill="#CE9145"/>
<path d="M126.469 138.218C126.469 138.863 126.224 139.446 125.794 139.845C125.364 140.275 124.811 140.521 124.166 140.521H109.826C108.567 140.521 107.523 139.477 107.523 138.218C107.523 137.573 107.769 136.989 108.199 136.59C108.629 136.16 109.182 135.915 109.826 135.915H124.166C125.425 135.884 126.469 136.928 126.469 138.218Z" fill="#DEA14E"/>
<path d="M112.679 125.904H108.196C106.568 125.904 105.248 124.584 105.248 122.957V120.162C105.248 118.535 106.568 117.214 108.196 117.214H112.679C111.052 117.214 109.731 118.535 109.731 120.162V122.957C109.731 124.584 111.052 125.904 112.679 125.904Z" fill="#CE9145"/>
<path d="M124.255 120.193V122.987C124.255 124.615 122.934 125.935 121.307 125.935H112.678C111.051 125.935 109.73 124.615 109.73 122.987V120.193C109.73 118.566 111.051 117.245 112.678 117.245H121.307C122.934 117.245 124.255 118.566 124.255 120.193Z" fill="#DEA14E"/>
<path d="M103.714 56.4767C103.345 57.2137 102.823 57.8892 102.148 58.4727C99.2614 61.052 94.8089 60.8064 92.2295 57.9199C89.6502 55.0335 89.8958 50.581 92.7823 48.0017C94.072 46.8655 95.6687 46.2821 97.2654 46.2207C95.9758 48.7386 96.2521 51.9014 98.248 54.1123C99.722 55.7398 101.718 56.5381 103.714 56.4767Z" fill="#E1ECF1"/>
<path d="M102.733 48.5852C104.728 50.8268 105.036 53.9895 103.715 56.4768C101.719 56.5382 99.7233 55.7398 98.28 54.1431C96.2841 51.9015 95.9771 48.7387 97.2974 46.2515C99.2934 46.19 101.289 46.9577 102.733 48.5852Z" fill="#FEF5F5"/>
<path d="M116.519 67.685C116.242 68.207 115.904 68.6676 115.444 69.0668C113.448 70.8478 110.377 70.6636 108.596 68.6677C106.815 66.6717 107 63.6011 108.995 61.8201C109.886 61.0217 110.991 60.6225 112.097 60.5918C111.206 62.3114 111.391 64.5223 112.772 66.0576C113.724 67.1937 115.137 67.7157 116.519 67.685Z" fill="#E1ECF1"/>
<path d="M115.812 62.219C117.194 63.7543 117.409 65.9345 116.488 67.6848C115.106 67.7155 113.724 67.1935 112.742 66.0573C111.36 64.522 111.145 62.3418 112.066 60.5915C113.448 60.5608 114.83 61.1136 115.812 62.219Z" fill="#FEF5F5"/>
<path d="M68.4617 90.9604C61.829 88.6881 63.303 80.1823 63.825 77.8793C63.9171 77.5415 64.0706 77.2038 64.3163 76.9581C67.4176 73.4883 64.9918 70.2948 64.1013 69.3429C63.8864 69.1279 63.7636 68.8823 63.6714 68.6059C59.4953 54.8493 70.0277 48.8615 74.0196 47.1419C72.1158 46.4971 70.0584 46.19 67.909 46.2822C59.8024 46.6813 53.1698 53.1912 52.5863 61.267C52.2486 65.9344 53.9067 70.2026 56.7624 73.3347C54.8893 75.6377 53.3847 78.8619 53.3847 81.9633C53.3847 89.6707 60.6008 95.5971 69.0758 95.5971C72.1465 95.5971 75.0022 94.768 77.3973 93.3555C74.3574 92.6799 71.1331 91.8816 68.4617 90.9604Z" fill="#E1ECF1"/>
<path d="M84.8594 63.8772C84.8901 63.4166 84.9208 62.9253 84.9208 62.434C84.9208 56.0163 81.2053 50.4584 75.7703 47.8483C75.1868 47.5719 74.5727 47.3263 73.9586 47.1113C69.9667 48.8616 59.4343 54.8494 63.6104 68.5753C63.6411 68.7288 63.7025 68.8824 63.7639 69.0359C63.7639 69.0359 63.9175 69.1587 64.1324 69.4351C64.1324 69.4351 64.1324 69.4351 64.1631 69.4658C64.1938 69.4965 64.2245 69.5272 64.2553 69.5579L64.286 69.5886C64.3167 69.6193 64.3474 69.65 64.3781 69.6807C64.3781 69.7114 64.4088 69.7114 64.4088 69.7421C64.4395 69.7728 64.4702 69.8036 64.5009 69.8343C64.5316 69.865 64.5316 69.865 64.5623 69.8957C64.593 69.9264 64.6237 69.9878 64.6544 70.0185C64.6544 70.0492 64.6851 70.0492 64.6851 70.0799C64.7773 70.2027 64.8694 70.3256 64.9615 70.4791C64.9615 70.5098 64.9922 70.5098 64.9922 70.5405C65.0229 70.6019 65.0536 70.6326 65.0843 70.694C65.115 70.7248 65.115 70.7555 65.1457 70.7862C65.1764 70.8476 65.2071 70.8783 65.2379 70.9397C65.2379 70.9704 65.2686 71.0011 65.2686 71.0318C65.2993 71.0932 65.33 71.1546 65.33 71.1854C65.33 71.2161 65.3607 71.2468 65.3607 71.2775C65.3914 71.3389 65.4221 71.431 65.4528 71.4924C65.4528 71.4924 65.4528 71.5231 65.4835 71.5231C65.5142 71.6152 65.5449 71.7074 65.5756 71.7995C65.5756 71.8302 65.6063 71.8609 65.6063 71.8916C65.637 71.953 65.637 72.0144 65.6678 72.1066C65.6678 72.1373 65.6985 72.168 65.6985 72.1987C65.6985 72.2601 65.7292 72.3215 65.7292 72.3829C65.7292 72.4136 65.7292 72.4443 65.7599 72.5057C65.7599 72.5672 65.7906 72.6286 65.7906 72.69C65.7906 72.7207 65.7906 72.7514 65.7906 72.8128C65.7906 72.9049 65.7906 72.9663 65.8213 73.0585C65.8213 73.0892 65.8213 73.1199 65.8213 73.1506C65.8213 73.2427 65.8213 73.3655 65.8213 73.4576C65.8213 73.4884 65.8213 73.5191 65.8213 73.5498C65.8213 73.6419 65.8213 73.7033 65.7906 73.7954C65.7906 73.8261 65.7906 73.8875 65.7906 73.9182C65.7906 73.9797 65.7599 74.0718 65.7599 74.1332C65.7599 74.1639 65.7292 74.2253 65.7292 74.256C65.7292 74.3174 65.6985 74.4096 65.6678 74.471C65.6678 74.5017 65.6371 74.5631 65.6371 74.5938C65.6063 74.6859 65.5756 74.7473 65.5449 74.8394C65.5449 74.8702 65.5142 74.9009 65.5142 74.9316C65.4835 75.0544 65.4221 75.1772 65.3607 75.3C65.3607 75.3308 65.33 75.3308 65.33 75.3615C65.2686 75.4536 65.2379 75.5764 65.1765 75.6685C65.1457 75.6992 65.115 75.7606 65.115 75.7914C65.0536 75.8835 65.0229 75.9449 64.9615 76.037C64.9308 76.0677 64.9001 76.1291 64.8694 76.1598C64.808 76.252 64.7466 76.3134 64.7159 76.4055C64.6851 76.4362 64.6544 76.4976 64.6237 76.5283C64.5623 76.6204 64.5009 76.6818 64.4088 76.774C64.3781 76.8047 64.3474 76.8661 64.3167 76.8968C64.1938 77.0196 64.1017 77.1424 63.9789 77.2653C63.9789 77.2653 63.9175 77.4802 63.8254 77.8487C63.3033 80.1517 61.8294 88.6574 68.4621 90.9297C71.1642 91.8509 74.3577 92.6493 77.3977 93.2942C77.6127 93.1713 77.7969 93.0485 78.0118 92.9257C80.0385 93.9083 82.2801 94.461 84.6752 94.461C93.1195 94.461 99.9671 87.6134 99.9671 79.1691C99.9671 70.7862 93.2116 64 84.8594 63.8772Z" fill="#FEF5F5"/>
<path d="M95.3905 94.6145V101.831C95.3905 103.857 93.763 105.485 91.7364 105.485H68.4607C66.4341 105.485 64.8066 103.857 64.8066 101.831V94.6145C64.8066 92.5879 66.4341 90.9604 68.4607 90.9604H91.7364C93.763 90.9604 95.3905 92.5879 95.3905 94.6145Z" fill="#E96B73"/>
<path d="M68.4623 105.485H59.2811C57.2544 105.485 55.627 103.857 55.627 101.831V94.6145C55.627 92.5879 57.2544 90.9604 59.2811 90.9604H68.4623C66.4357 90.9604 64.8083 92.5879 64.8083 94.6145V101.831C64.7775 103.857 66.4357 105.485 68.4623 105.485Z" fill="#DC4F58"/>
<path d="M44.7432 212.658H49.269C49.1782 214.142 48.7695 215.458 48.043 216.609C47.3265 217.759 46.3224 218.657 45.0308 219.303C43.7492 219.949 42.2052 220.272 40.3989 220.272C38.9862 220.272 37.7197 220.03 36.5996 219.545C35.4795 219.051 34.5208 218.345 33.7236 217.426C32.9365 216.508 32.3361 215.398 31.9224 214.096C31.5086 212.794 31.3018 211.336 31.3018 209.722V208.193C31.3018 206.578 31.5137 205.12 31.9375 203.818C32.3714 202.507 32.987 201.391 33.7842 200.473C34.5915 199.555 35.5552 198.848 36.6753 198.354C37.7954 197.86 39.0467 197.612 40.4292 197.612C42.2658 197.612 43.8148 197.945 45.0762 198.611C46.3477 199.277 47.3315 200.196 48.0278 201.366C48.7342 202.537 49.158 203.869 49.2993 205.362H44.7583C44.7078 204.474 44.5312 203.722 44.2285 203.107C43.9258 202.481 43.4666 202.012 42.8511 201.699C42.2456 201.376 41.4383 201.215 40.4292 201.215C39.6724 201.215 39.0114 201.356 38.4463 201.639C37.8812 201.921 37.4069 202.35 37.0234 202.925C36.64 203.5 36.3524 204.227 36.1606 205.105C35.979 205.973 35.8882 206.992 35.8882 208.163V209.722C35.8882 210.862 35.974 211.866 36.1455 212.734C36.3171 213.592 36.5794 214.318 36.9326 214.914C37.2959 215.499 37.7601 215.943 38.3252 216.246C38.9004 216.538 39.5916 216.685 40.3989 216.685C41.3475 216.685 42.1296 216.533 42.7451 216.23C43.3607 215.928 43.8299 215.479 44.1528 214.883C44.4858 214.288 44.6826 213.546 44.7432 212.658ZM51.2822 211.947V211.629C51.2822 210.428 51.4538 209.323 51.7969 208.314C52.14 207.295 52.6395 206.412 53.2954 205.665C53.9513 204.918 54.7586 204.338 55.7173 203.924C56.6759 203.5 57.7759 203.289 59.0171 203.289C60.2583 203.289 61.3633 203.5 62.332 203.924C63.3008 204.338 64.1131 204.918 64.769 205.665C65.4351 206.412 65.9396 207.295 66.2827 208.314C66.6258 209.323 66.7974 210.428 66.7974 211.629V211.947C66.7974 213.138 66.6258 214.243 66.2827 215.262C65.9396 216.271 65.4351 217.154 64.769 217.911C64.1131 218.657 63.3058 219.238 62.3472 219.651C61.3885 220.065 60.2886 220.272 59.0474 220.272C57.8062 220.272 56.7012 220.065 55.7324 219.651C54.7738 219.238 53.9614 218.657 53.2954 217.911C52.6395 217.154 52.14 216.271 51.7969 215.262C51.4538 214.243 51.2822 213.138 51.2822 211.947ZM55.6416 211.629V211.947C55.6416 212.633 55.7021 213.274 55.8232 213.869C55.9443 214.465 56.1361 214.989 56.3984 215.443C56.6709 215.887 57.0241 216.236 57.458 216.488C57.8919 216.74 58.4217 216.866 59.0474 216.866C59.6528 216.866 60.1725 216.74 60.6064 216.488C61.0404 216.236 61.3885 215.887 61.6509 215.443C61.9132 214.989 62.105 214.465 62.2261 213.869C62.3573 213.274 62.4229 212.633 62.4229 211.947V211.629C62.4229 210.963 62.3573 210.337 62.2261 209.752C62.105 209.157 61.9082 208.632 61.6357 208.178C61.3734 207.714 61.0252 207.35 60.5913 207.088C60.1574 206.826 59.6326 206.694 59.0171 206.694C58.4015 206.694 57.8768 206.826 57.4429 207.088C57.019 207.35 56.6709 207.714 56.3984 208.178C56.1361 208.632 55.9443 209.157 55.8232 209.752C55.7021 210.337 55.6416 210.963 55.6416 211.629ZM73.7451 207.088V219.969H69.3857V203.591H73.4727L73.7451 207.088ZM73.1094 211.205H71.9287C71.9287 209.994 72.0851 208.904 72.3979 207.936C72.7108 206.957 73.1497 206.124 73.7148 205.438C74.2799 204.742 74.951 204.212 75.728 203.849C76.5151 203.475 77.3931 203.289 78.3618 203.289C79.1287 203.289 79.8301 203.4 80.4658 203.622C81.1016 203.844 81.6465 204.197 82.1006 204.681C82.5648 205.166 82.918 205.806 83.1602 206.604C83.4124 207.401 83.5386 208.375 83.5386 209.525V219.969H79.1489V209.51C79.1489 208.783 79.048 208.218 78.8462 207.814C78.6444 207.411 78.3467 207.128 77.9531 206.967C77.5697 206.795 77.0954 206.709 76.5303 206.709C75.945 206.709 75.4354 206.826 75.0015 207.058C74.5776 207.29 74.2244 207.613 73.9419 208.026C73.6694 208.43 73.4626 208.904 73.3213 209.449C73.18 209.994 73.1094 210.579 73.1094 211.205ZM95.7085 215.443C95.7085 215.131 95.6177 214.848 95.436 214.596C95.2544 214.343 94.9163 214.111 94.4219 213.899C93.9375 213.677 93.2362 213.476 92.3179 213.294C91.4904 213.112 90.7184 212.885 90.002 212.613C89.2956 212.33 88.68 211.992 88.1553 211.599C87.6406 211.205 87.237 210.741 86.9443 210.206C86.6517 209.661 86.5054 209.041 86.5054 208.344C86.5054 207.658 86.6517 207.012 86.9443 206.407C87.2471 205.801 87.6759 205.266 88.231 204.802C88.7961 204.328 89.4823 203.96 90.2896 203.697C91.1069 203.425 92.0252 203.289 93.0444 203.289C94.4673 203.289 95.6883 203.516 96.7075 203.97C97.7368 204.424 98.5239 205.049 99.0688 205.847C99.6239 206.634 99.9014 207.532 99.9014 208.541H95.542C95.542 208.117 95.4512 207.739 95.2695 207.406C95.098 207.063 94.8255 206.795 94.4521 206.604C94.0889 206.402 93.6146 206.301 93.0293 206.301C92.5449 206.301 92.1261 206.387 91.7729 206.558C91.4198 206.72 91.1473 206.942 90.9556 207.224C90.7739 207.497 90.6831 207.799 90.6831 208.132C90.6831 208.385 90.7336 208.612 90.8345 208.813C90.9455 209.005 91.1221 209.182 91.3643 209.343C91.6064 209.505 91.9193 209.656 92.3027 209.797C92.6963 209.929 93.1807 210.05 93.7559 210.161C94.9365 210.403 95.991 210.721 96.9194 211.114C97.8478 211.498 98.5845 212.022 99.1294 212.688C99.6743 213.344 99.9468 214.207 99.9468 215.277C99.9468 216.003 99.7853 216.669 99.4624 217.275C99.1395 217.88 98.6753 218.41 98.0698 218.864C97.4644 219.308 96.7378 219.656 95.8901 219.909C95.0526 220.151 94.109 220.272 93.0596 220.272C91.5358 220.272 90.2441 220 89.1846 219.455C88.1351 218.91 87.3379 218.218 86.793 217.381C86.2581 216.533 85.9907 215.665 85.9907 214.777H90.123C90.1432 215.373 90.2946 215.852 90.5771 216.215C90.8698 216.579 91.2381 216.841 91.6821 217.002C92.1362 217.164 92.6257 217.245 93.1504 217.245C93.7155 217.245 94.1847 217.169 94.5581 217.018C94.9315 216.856 95.214 216.644 95.4058 216.382C95.6076 216.109 95.7085 215.797 95.7085 215.443ZM102.081 211.947V211.629C102.081 210.428 102.253 209.323 102.596 208.314C102.939 207.295 103.438 206.412 104.094 205.665C104.75 204.918 105.557 204.338 106.516 203.924C107.475 203.5 108.575 203.289 109.816 203.289C111.057 203.289 112.162 203.5 113.131 203.924C114.1 204.338 114.912 204.918 115.568 205.665C116.234 206.412 116.738 207.295 117.082 208.314C117.425 209.323 117.596 210.428 117.596 211.629V211.947C117.596 213.138 117.425 214.243 117.082 215.262C116.738 216.271 116.234 217.154 115.568 217.911C114.912 218.657 114.105 219.238 113.146 219.651C112.187 220.065 111.087 220.272 109.846 220.272C108.605 220.272 107.5 220.065 106.531 219.651C105.573 219.238 104.76 218.657 104.094 217.911C103.438 217.154 102.939 216.271 102.596 215.262C102.253 214.243 102.081 213.138 102.081 211.947ZM106.44 211.629V211.947C106.44 212.633 106.501 213.274 106.622 213.869C106.743 214.465 106.935 214.989 107.197 215.443C107.47 215.887 107.823 216.236 108.257 216.488C108.691 216.74 109.221 216.866 109.846 216.866C110.452 216.866 110.971 216.74 111.405 216.488C111.839 216.236 112.187 215.887 112.45 215.443C112.712 214.989 112.904 214.465 113.025 213.869C113.156 213.274 113.222 212.633 113.222 211.947V211.629C113.222 210.963 113.156 210.337 113.025 209.752C112.904 209.157 112.707 208.632 112.435 208.178C112.172 207.714 111.824 207.35 111.39 207.088C110.956 206.826 110.431 206.694 109.816 206.694C109.2 206.694 108.676 206.826 108.242 207.088C107.818 207.35 107.47 207.714 107.197 208.178C106.935 208.632 106.743 209.157 106.622 209.752C106.501 210.337 106.44 210.963 106.44 211.629ZM124.635 206.982V219.969H120.26V203.591H124.362L124.635 206.982ZM124.029 211.205H122.818C122.818 210.065 122.955 209.015 123.227 208.057C123.51 207.088 123.918 206.25 124.453 205.544C124.998 204.827 125.669 204.272 126.466 203.879C127.264 203.485 128.187 203.289 129.236 203.289C129.963 203.289 130.629 203.4 131.234 203.622C131.84 203.833 132.36 204.172 132.793 204.636C133.237 205.09 133.581 205.685 133.823 206.422C134.065 207.148 134.186 208.021 134.186 209.041V219.969H129.827V209.525C129.827 208.778 129.726 208.203 129.524 207.799C129.322 207.396 129.035 207.113 128.661 206.952C128.298 206.79 127.859 206.709 127.344 206.709C126.779 206.709 126.285 206.826 125.861 207.058C125.447 207.29 125.104 207.613 124.832 208.026C124.559 208.43 124.357 208.904 124.226 209.449C124.095 209.994 124.029 210.579 124.029 211.205ZM133.777 210.706L132.218 210.902C132.218 209.833 132.349 208.839 132.612 207.92C132.884 207.002 133.283 206.195 133.808 205.499C134.342 204.802 135.003 204.262 135.791 203.879C136.578 203.485 137.486 203.289 138.515 203.289C139.302 203.289 140.019 203.405 140.665 203.637C141.31 203.859 141.86 204.217 142.314 204.711C142.779 205.196 143.132 205.832 143.374 206.619C143.626 207.406 143.752 208.369 143.752 209.51V219.969H139.378V209.51C139.378 208.753 139.277 208.178 139.075 207.784C138.883 207.381 138.601 207.103 138.228 206.952C137.864 206.79 137.43 206.709 136.926 206.709C136.401 206.709 135.942 206.815 135.548 207.027C135.155 207.229 134.827 207.512 134.564 207.875C134.302 208.238 134.105 208.662 133.974 209.146C133.843 209.621 133.777 210.14 133.777 210.706ZM151.487 206.982V219.969H147.113V203.591H151.215L151.487 206.982ZM150.882 211.205H149.671C149.671 210.065 149.807 209.015 150.08 208.057C150.362 207.088 150.771 206.25 151.306 205.544C151.851 204.827 152.522 204.272 153.319 203.879C154.116 203.485 155.039 203.289 156.089 203.289C156.815 203.289 157.481 203.4 158.087 203.622C158.692 203.833 159.212 204.172 159.646 204.636C160.09 205.09 160.433 205.685 160.675 206.422C160.917 207.148 161.039 208.021 161.039 209.041V219.969H156.679V209.525C156.679 208.778 156.578 208.203 156.376 207.799C156.175 207.396 155.887 207.113 155.514 206.952C155.15 206.79 154.711 206.709 154.197 206.709C153.632 206.709 153.137 206.826 152.713 207.058C152.3 207.29 151.957 207.613 151.684 208.026C151.412 208.43 151.21 208.904 151.079 209.449C150.947 209.994 150.882 210.579 150.882 211.205ZM160.63 210.706L159.071 210.902C159.071 209.833 159.202 208.839 159.464 207.92C159.737 207.002 160.135 206.195 160.66 205.499C161.195 204.802 161.856 204.262 162.643 203.879C163.43 203.485 164.338 203.289 165.368 203.289C166.155 203.289 166.871 203.405 167.517 203.637C168.163 203.859 168.713 204.217 169.167 204.711C169.631 205.196 169.984 205.832 170.227 206.619C170.479 207.406 170.605 208.369 170.605 209.51V219.969H166.23V209.51C166.23 208.753 166.13 208.178 165.928 207.784C165.736 207.381 165.453 207.103 165.08 206.952C164.717 206.79 164.283 206.709 163.778 206.709C163.254 206.709 162.794 206.815 162.401 207.027C162.007 207.229 161.679 207.512 161.417 207.875C161.155 208.238 160.958 208.662 160.827 209.146C160.695 209.621 160.63 210.14 160.63 210.706ZM182.82 216.276V208.98C182.82 208.455 182.735 208.006 182.563 207.633C182.391 207.249 182.124 206.952 181.761 206.74C181.408 206.528 180.948 206.422 180.383 206.422C179.899 206.422 179.48 206.508 179.127 206.679C178.774 206.841 178.501 207.078 178.31 207.391C178.118 207.693 178.022 208.052 178.022 208.465H173.663C173.663 207.769 173.824 207.108 174.147 206.482C174.47 205.857 174.939 205.307 175.555 204.833C176.17 204.348 176.902 203.97 177.75 203.697C178.607 203.425 179.566 203.289 180.625 203.289C181.897 203.289 183.027 203.5 184.016 203.924C185.005 204.348 185.782 204.984 186.347 205.832C186.922 206.679 187.21 207.739 187.21 209.01V216.019C187.21 216.917 187.265 217.653 187.376 218.229C187.487 218.794 187.649 219.288 187.861 219.712V219.969H183.456C183.244 219.525 183.083 218.97 182.972 218.304C182.871 217.628 182.82 216.952 182.82 216.276ZM183.396 209.994L183.426 212.461H180.989C180.414 212.461 179.914 212.527 179.49 212.658C179.066 212.789 178.718 212.976 178.446 213.218C178.173 213.45 177.972 213.723 177.84 214.036C177.719 214.348 177.659 214.692 177.659 215.065C177.659 215.438 177.744 215.776 177.916 216.079C178.088 216.372 178.335 216.604 178.658 216.775C178.981 216.937 179.359 217.018 179.793 217.018C180.449 217.018 181.019 216.886 181.503 216.624C181.988 216.362 182.361 216.039 182.624 215.655C182.896 215.272 183.037 214.909 183.047 214.565L184.198 216.412C184.036 216.826 183.814 217.255 183.532 217.699C183.259 218.143 182.911 218.562 182.487 218.955C182.063 219.339 181.554 219.656 180.958 219.909C180.363 220.151 179.657 220.272 178.839 220.272C177.8 220.272 176.856 220.065 176.009 219.651C175.171 219.228 174.505 218.647 174.011 217.911C173.526 217.164 173.284 216.316 173.284 215.368C173.284 214.51 173.446 213.748 173.769 213.082C174.091 212.416 174.566 211.856 175.191 211.402C175.827 210.938 176.619 210.59 177.568 210.357C178.516 210.115 179.616 209.994 180.868 209.994H183.396ZM198.593 203.591V206.679H189.057V203.591H198.593ZM191.418 199.55H195.777V215.035C195.777 215.509 195.838 215.872 195.959 216.125C196.09 216.377 196.282 216.553 196.534 216.654C196.786 216.745 197.104 216.791 197.488 216.791C197.76 216.791 198.002 216.78 198.214 216.76C198.436 216.73 198.623 216.7 198.774 216.669L198.79 219.878C198.416 220 198.013 220.095 197.579 220.166C197.145 220.237 196.665 220.272 196.141 220.272C195.182 220.272 194.344 220.116 193.628 219.803C192.922 219.48 192.377 218.965 191.993 218.259C191.61 217.552 191.418 216.624 191.418 215.474V199.55ZM205.677 203.591V219.969H201.302V203.591H205.677ZM201.03 199.323C201.03 198.687 201.252 198.162 201.696 197.749C202.14 197.335 202.735 197.128 203.482 197.128C204.219 197.128 204.809 197.335 205.253 197.749C205.707 198.162 205.934 198.687 205.934 199.323C205.934 199.958 205.707 200.483 205.253 200.897C204.809 201.311 204.219 201.518 203.482 201.518C202.735 201.518 202.14 201.311 201.696 200.897C201.252 200.483 201.03 199.958 201.03 199.323ZM208.583 211.947V211.629C208.583 210.428 208.755 209.323 209.098 208.314C209.441 207.295 209.94 206.412 210.596 205.665C211.252 204.918 212.059 204.338 213.018 203.924C213.977 203.5 215.077 203.289 216.318 203.289C217.559 203.289 218.664 203.5 219.633 203.924C220.602 204.338 221.414 204.918 222.07 205.665C222.736 206.412 223.24 207.295 223.583 208.314C223.927 209.323 224.098 210.428 224.098 211.629V211.947C224.098 213.138 223.927 214.243 223.583 215.262C223.24 216.271 222.736 217.154 222.07 217.911C221.414 218.657 220.607 219.238 219.648 219.651C218.689 220.065 217.589 220.272 216.348 220.272C215.107 220.272 214.002 220.065 213.033 219.651C212.075 219.238 211.262 218.657 210.596 217.911C209.94 217.154 209.441 216.271 209.098 215.262C208.755 214.243 208.583 213.138 208.583 211.947ZM212.942 211.629V211.947C212.942 212.633 213.003 213.274 213.124 213.869C213.245 214.465 213.437 214.989 213.699 215.443C213.972 215.887 214.325 216.236 214.759 216.488C215.193 216.74 215.722 216.866 216.348 216.866C216.954 216.866 217.473 216.74 217.907 216.488C218.341 216.236 218.689 215.887 218.952 215.443C219.214 214.989 219.406 214.465 219.527 213.869C219.658 213.274 219.724 212.633 219.724 211.947V211.629C219.724 210.963 219.658 210.337 219.527 209.752C219.406 209.157 219.209 208.632 218.937 208.178C218.674 207.714 218.326 207.35 217.892 207.088C217.458 206.826 216.933 206.694 216.318 206.694C215.702 206.694 215.178 206.826 214.744 207.088C214.32 207.35 213.972 207.714 213.699 208.178C213.437 208.632 213.245 209.157 213.124 209.752C213.003 210.337 212.942 210.963 212.942 211.629ZM231.046 207.088V219.969H226.687V203.591H230.773L231.046 207.088ZM230.41 211.205H229.229C229.229 209.994 229.386 208.904 229.699 207.936C230.012 206.957 230.451 206.124 231.016 205.438C231.581 204.742 232.252 204.212 233.029 203.849C233.816 203.475 234.694 203.289 235.663 203.289C236.43 203.289 237.131 203.4 237.767 203.622C238.402 203.844 238.947 204.197 239.401 204.681C239.866 205.166 240.219 205.806 240.461 206.604C240.713 207.401 240.839 208.375 240.839 209.525V219.969H236.45V209.51C236.45 208.783 236.349 208.218 236.147 207.814C235.945 207.411 235.647 207.128 235.254 206.967C234.87 206.795 234.396 206.709 233.831 206.709C233.246 206.709 232.736 206.826 232.302 207.058C231.878 207.29 231.525 207.613 231.243 208.026C230.97 208.43 230.763 208.904 230.622 209.449C230.481 209.994 230.41 210.579 230.41 211.205ZM41.3677 252.397V232.719H45.7573V255.969H41.8066L41.3677 252.397ZM31.0142 247.977V247.659C31.0142 246.408 31.1554 245.273 31.438 244.253C31.7205 243.224 32.1343 242.341 32.6792 241.604C33.2241 240.868 33.8952 240.298 34.6924 239.894C35.4896 239.49 36.3978 239.289 37.417 239.289C38.3757 239.289 39.2132 239.49 39.9297 239.894C40.6562 240.298 41.2718 240.873 41.7764 241.62C42.291 242.356 42.7048 243.229 43.0176 244.238C43.3304 245.237 43.5575 246.332 43.6987 247.523V248.219C43.5575 249.36 43.3304 250.419 43.0176 251.398C42.7048 252.377 42.291 253.235 41.7764 253.971C41.2718 254.698 40.6562 255.263 39.9297 255.667C39.2031 256.07 38.3555 256.272 37.3867 256.272C36.3675 256.272 35.4593 256.065 34.6621 255.651C33.875 255.238 33.209 254.657 32.6641 253.911C32.1292 253.164 31.7205 252.286 31.438 251.277C31.1554 250.268 31.0142 249.168 31.0142 247.977ZM35.3735 247.659V247.977C35.3735 248.653 35.424 249.284 35.5249 249.869C35.6359 250.454 35.8125 250.974 36.0547 251.428C36.307 251.872 36.6299 252.22 37.0234 252.473C37.4271 252.715 37.9165 252.836 38.4917 252.836C39.2384 252.836 39.854 252.669 40.3384 252.336C40.8228 251.993 41.1911 251.524 41.4434 250.929C41.7057 250.333 41.8571 249.647 41.8975 248.87V246.887C41.8672 246.251 41.7764 245.681 41.625 245.177C41.4837 244.662 41.2718 244.223 40.9893 243.86C40.7168 243.497 40.3737 243.214 39.96 243.012C39.5563 242.81 39.077 242.709 38.522 242.709C37.9569 242.709 37.4725 242.841 37.0688 243.103C36.6652 243.355 36.3372 243.703 36.085 244.147C35.8428 244.591 35.6611 245.116 35.54 245.722C35.429 246.317 35.3735 246.963 35.3735 247.659ZM53.144 232.719V235.02C53.144 235.676 53.0179 236.352 52.7656 237.048C52.5234 237.745 52.1955 238.406 51.7817 239.031C51.368 239.647 50.9139 240.172 50.4194 240.605L48.376 239.425C48.7493 238.829 49.0672 238.184 49.3296 237.487C49.592 236.781 49.7231 235.964 49.7231 235.035V232.719H53.144ZM62.4531 256.272C61.1816 256.272 60.0413 256.07 59.0322 255.667C58.0231 255.253 57.1654 254.683 56.459 253.956C55.7627 253.229 55.2279 252.387 54.8545 251.428C54.4811 250.459 54.2944 249.43 54.2944 248.34V247.735C54.2944 246.494 54.471 245.358 54.8242 244.329C55.1774 243.3 55.682 242.407 56.3379 241.65C57.0039 240.893 57.8112 240.313 58.7598 239.909C59.7083 239.495 60.778 239.289 61.9688 239.289C63.1292 239.289 64.1585 239.48 65.0566 239.864C65.9548 240.247 66.7065 240.792 67.312 241.499C67.9276 242.205 68.3918 243.053 68.7046 244.042C69.0174 245.02 69.1738 246.11 69.1738 247.311V249.127H56.1562V246.221H64.8901V245.888C64.8901 245.283 64.7791 244.743 64.5571 244.269C64.3452 243.784 64.0223 243.401 63.5884 243.118C63.1545 242.836 62.5994 242.694 61.9233 242.694C61.3481 242.694 60.8537 242.82 60.4399 243.073C60.0262 243.325 59.6882 243.678 59.4258 244.132C59.1735 244.586 58.9818 245.121 58.8506 245.737C58.7295 246.342 58.6689 247.008 58.6689 247.735V248.34C58.6689 248.996 58.7598 249.602 58.9414 250.157C59.1331 250.712 59.4006 251.191 59.7437 251.595C60.0968 251.998 60.5207 252.311 61.0151 252.533C61.5197 252.755 62.0898 252.866 62.7256 252.866C63.5127 252.866 64.2443 252.715 64.9204 252.412C65.6066 252.099 66.1969 251.63 66.6914 251.004L68.8105 253.305C68.4674 253.8 67.9982 254.274 67.4028 254.728C66.8175 255.182 66.1112 255.556 65.2837 255.848C64.4562 256.131 63.5127 256.272 62.4531 256.272ZM59.3804 237.366L62.3472 232.704H67.085L62.9224 237.366H59.3804ZM75.9248 243.088V255.969H71.5654V239.591H75.6523L75.9248 243.088ZM75.2891 247.205H74.1084C74.1084 245.994 74.2648 244.904 74.5776 243.936C74.8905 242.957 75.3294 242.124 75.8945 241.438C76.4596 240.742 77.1307 240.212 77.9077 239.849C78.6948 239.475 79.5728 239.289 80.5415 239.289C81.3084 239.289 82.0098 239.4 82.6455 239.622C83.2812 239.844 83.8262 240.197 84.2803 240.681C84.7445 241.166 85.0977 241.806 85.3398 242.604C85.5921 243.401 85.7183 244.375 85.7183 245.525V255.969H81.3286V245.51C81.3286 244.783 81.2277 244.218 81.0259 243.814C80.8241 243.411 80.5264 243.128 80.1328 242.967C79.7493 242.795 79.2751 242.709 78.71 242.709C78.1247 242.709 77.6151 242.826 77.1812 243.058C76.7573 243.29 76.4041 243.613 76.1216 244.026C75.8491 244.43 75.6423 244.904 75.501 245.449C75.3597 245.994 75.2891 246.579 75.2891 247.205ZM96.5713 256.272C95.2998 256.272 94.1595 256.07 93.1504 255.667C92.1413 255.253 91.2835 254.683 90.5771 253.956C89.8809 253.229 89.346 252.387 88.9727 251.428C88.5993 250.459 88.4126 249.43 88.4126 248.34V247.735C88.4126 246.494 88.5892 245.358 88.9424 244.329C89.2956 243.3 89.8001 242.407 90.4561 241.65C91.1221 240.893 91.9294 240.313 92.8779 239.909C93.8265 239.495 94.8962 239.289 96.0869 239.289C97.2474 239.289 98.2767 239.48 99.1748 239.864C100.073 240.247 100.825 240.792 101.43 241.499C102.046 242.205 102.51 243.053 102.823 244.042C103.136 245.02 103.292 246.11 103.292 247.311V249.127H90.2744V246.221H99.0083V245.888C99.0083 245.283 98.8973 244.743 98.6753 244.269C98.4634 243.784 98.1405 243.401 97.7065 243.118C97.2726 242.836 96.7176 242.694 96.0415 242.694C95.4663 242.694 94.9718 242.82 94.5581 243.073C94.1444 243.325 93.8063 243.678 93.5439 244.132C93.2917 244.586 93.0999 245.121 92.9688 245.737C92.8477 246.342 92.7871 247.008 92.7871 247.735V248.34C92.7871 248.996 92.8779 249.602 93.0596 250.157C93.2513 250.712 93.5187 251.191 93.8618 251.595C94.215 251.998 94.6388 252.311 95.1333 252.533C95.6379 252.755 96.208 252.866 96.8438 252.866C97.6309 252.866 98.3625 252.715 99.0386 252.412C99.7248 252.099 100.315 251.63 100.81 251.004L102.929 253.305C102.586 253.8 102.116 254.274 101.521 254.728C100.936 255.182 100.229 255.556 99.4019 255.848C98.5744 256.131 97.6309 256.272 96.5713 256.272ZM110.134 243.164V255.969H105.774V239.591H109.876L110.134 243.164ZM115.068 239.485L114.993 243.527C114.781 243.497 114.523 243.471 114.221 243.451C113.928 243.421 113.661 243.406 113.418 243.406C112.803 243.406 112.268 243.486 111.814 243.648C111.37 243.799 110.997 244.026 110.694 244.329C110.401 244.632 110.179 245 110.028 245.434C109.887 245.868 109.806 246.362 109.786 246.917L108.908 246.645C108.908 245.585 109.014 244.612 109.226 243.724C109.438 242.826 109.745 242.043 110.149 241.377C110.563 240.711 111.067 240.197 111.663 239.833C112.258 239.47 112.939 239.289 113.706 239.289C113.948 239.289 114.195 239.309 114.448 239.349C114.7 239.379 114.907 239.425 115.068 239.485ZM127.193 239.591H131.144V255.424C131.144 256.918 130.811 258.184 130.145 259.224C129.489 260.273 128.57 261.065 127.39 261.6C126.209 262.145 124.837 262.417 123.272 262.417C122.586 262.417 121.86 262.327 121.093 262.145C120.336 261.963 119.609 261.681 118.913 261.297C118.227 260.914 117.652 260.43 117.188 259.844L119.11 257.271C119.614 257.856 120.2 258.31 120.866 258.633C121.532 258.966 122.268 259.133 123.076 259.133C123.863 259.133 124.529 258.986 125.074 258.694C125.619 258.411 126.037 257.993 126.33 257.438C126.623 256.893 126.769 256.232 126.769 255.455V243.375L127.193 239.591ZM116.173 247.977V247.659C116.173 246.408 116.325 245.273 116.627 244.253C116.94 243.224 117.379 242.341 117.944 241.604C118.52 240.868 119.216 240.298 120.033 239.894C120.851 239.49 121.774 239.289 122.803 239.289C123.893 239.289 124.806 239.49 125.543 239.894C126.28 240.298 126.885 240.873 127.359 241.62C127.834 242.356 128.202 243.229 128.464 244.238C128.737 245.237 128.949 246.332 129.1 247.523V248.219C128.949 249.36 128.722 250.419 128.419 251.398C128.116 252.377 127.718 253.235 127.223 253.971C126.729 254.698 126.113 255.263 125.376 255.667C124.65 256.07 123.782 256.272 122.773 256.272C121.764 256.272 120.851 256.065 120.033 255.651C119.226 255.238 118.535 254.657 117.959 253.911C117.384 253.164 116.94 252.286 116.627 251.277C116.325 250.268 116.173 249.168 116.173 247.977ZM120.533 247.659V247.977C120.533 248.653 120.598 249.284 120.729 249.869C120.861 250.454 121.062 250.974 121.335 251.428C121.618 251.872 121.966 252.22 122.379 252.473C122.803 252.715 123.303 252.836 123.878 252.836C124.675 252.836 125.326 252.669 125.831 252.336C126.335 251.993 126.714 251.524 126.966 250.929C127.218 250.333 127.364 249.647 127.405 248.87V246.887C127.385 246.251 127.299 245.681 127.147 245.177C126.996 244.662 126.784 244.223 126.512 243.86C126.239 243.497 125.886 243.214 125.452 243.012C125.018 242.81 124.504 242.709 123.908 242.709C123.333 242.709 122.833 242.841 122.41 243.103C121.996 243.355 121.648 243.703 121.365 244.147C121.093 244.591 120.886 245.116 120.745 245.722C120.603 246.317 120.533 246.963 120.533 247.659ZM139.136 239.591V255.969H134.761V239.591H139.136ZM134.489 235.323C134.489 234.687 134.711 234.162 135.155 233.749C135.599 233.335 136.194 233.128 136.941 233.128C137.678 233.128 138.268 233.335 138.712 233.749C139.166 234.162 139.393 234.687 139.393 235.323C139.393 235.958 139.166 236.483 138.712 236.897C138.268 237.311 137.678 237.518 136.941 237.518C136.194 237.518 135.599 237.311 135.155 236.897C134.711 236.483 134.489 235.958 134.489 235.323ZM150.276 256.272C149.005 256.272 147.865 256.07 146.855 255.667C145.846 255.253 144.989 254.683 144.282 253.956C143.586 253.229 143.051 252.387 142.678 251.428C142.304 250.459 142.118 249.43 142.118 248.34V247.735C142.118 246.494 142.294 245.358 142.647 244.329C143.001 243.3 143.505 242.407 144.161 241.65C144.827 240.893 145.634 240.313 146.583 239.909C147.532 239.495 148.601 239.289 149.792 239.289C150.952 239.289 151.982 239.48 152.88 239.864C153.778 240.247 154.53 240.792 155.135 241.499C155.751 242.205 156.215 243.053 156.528 244.042C156.841 245.02 156.997 246.11 156.997 247.311V249.127H143.979V246.221H152.713V245.888C152.713 245.283 152.602 244.743 152.38 244.269C152.168 243.784 151.846 243.401 151.412 243.118C150.978 242.836 150.423 242.694 149.747 242.694C149.171 242.694 148.677 242.82 148.263 243.073C147.849 243.325 147.511 243.678 147.249 244.132C146.997 244.586 146.805 245.121 146.674 245.737C146.553 246.342 146.492 247.008 146.492 247.735V248.34C146.492 248.996 146.583 249.602 146.765 250.157C146.956 250.712 147.224 251.191 147.567 251.595C147.92 251.998 148.344 252.311 148.838 252.533C149.343 252.755 149.913 252.866 150.549 252.866C151.336 252.866 152.068 252.715 152.744 252.412C153.43 252.099 154.02 251.63 154.515 251.004L156.634 253.305C156.291 253.8 155.821 254.274 155.226 254.728C154.641 255.182 153.934 255.556 153.107 255.848C152.279 256.131 151.336 256.272 150.276 256.272Z" fill="#222222"/>
<rect x="30" y="284.355" width="18" height="18.8169" fill="#A8EC6C"/>
<rect x="53" y="284.355" width="18" height="18.8169" fill="#A8EC6C"/>
<rect x="76" y="284.355" width="18" height="18.8169" fill="#A8EC6C"/>
<rect x="99" y="284.355" width="18" height="18.8169" fill="#A8EC6C"/>
<rect x="122" y="284.355" width="18" height="18.8169" fill="#A8EC6C"/>
<rect x="145" y="284.355" width="18" height="18.8169" fill="#A8EC6C"/>
<rect x="168" y="284.355" width="18" height="18.8169" fill="#A8EC6C"/>
<rect x="191" y="284.355" width="18" height="18.8169" fill="#A8EC6C"/>
<rect x="214" y="284.355" width="18" height="18.8169" fill="#A8EC6C"/>
<rect x="237" y="284.355" width="18" height="18.8169" fill="#E4E4E4"/>
<rect x="217" y="18" width="50" height="47.0423" rx="16" fill="#A8EC6C"/>
<path fill-rule="evenodd" clip-rule="evenodd" d="M245.75 29.875H238.25V37.9996H230.125L230.125 45.4999H238.25V53.626H245.75V45.4999H253.876V37.9996H245.75V29.875Z" fill="#212121"/>
</svg>
