<svg width="282" height="175" viewBox="0 0 282 175" fill="none" xmlns="http://www.w3.org/2000/svg">
<path fill-rule="evenodd" clip-rule="evenodd" d="M40.2513 20.439V60.5169V60.5175V114.034H13.2109V60.5175V60.5169V20.439C13.2109 12.9641 19.2288 7 26.7713 7C30.5425 7 33.9125 8.51089 36.3197 10.8965C38.7268 13.3617 40.2513 16.7015 40.2513 20.439ZM40.2513 154.114V114.035H13.2109V154.114C13.2109 161.509 19.2288 167.553 26.691 167.553C34.2334 167.553 40.2513 161.509 40.2513 154.114Z" fill="#E96B73"/>
<path fill-rule="evenodd" clip-rule="evenodd" d="M40.2513 114.035H13.2109V154.114C13.2109 161.509 19.2288 167.553 26.691 167.553C34.2334 167.553 40.2513 161.509 40.2513 154.114V114.035ZM6.21094 20.439C6.21094 9.03889 15.4223 0 26.7712 0C32.4479 0 37.5721 2.2825 41.2471 5.92458L41.2878 5.96497L41.3279 6.00603C44.9125 9.67698 47.2513 14.7363 47.2513 20.439V154.114C47.2513 165.407 38.0671 174.553 26.691 174.553C15.368 174.553 6.21094 165.38 6.21094 154.114V20.439ZM13.2109 114.035V20.439C13.2109 12.9641 19.2288 7 26.7712 7C30.5425 7 33.9125 8.51089 36.3196 10.8965C38.7268 13.3617 40.2513 16.7015 40.2513 20.439V114.035H13.2109Z" fill="#212121"/>
<path d="M26.6603 167C19.2324 167 13.2109 160.978 13.2109 153.551L13.2109 20.0172C13.2109 12.5893 19.2324 6.56779 26.6603 6.56779V6.56779C34.0882 6.56779 40.1098 12.5893 40.1098 20.0172L40.1098 153.551C40.1098 160.978 34.0883 167 26.6603 167V167Z" fill="#212121"/>
<path d="M40.2513 60.5166H13.2109V114.034H40.2513V60.5166Z" fill="#FAC04F"/>
<path d="M40.2513 20.439V60.5175H13.2109V20.439C13.2109 12.9641 19.2288 7 26.7712 7C30.5425 7 33.9125 8.51089 36.3196 10.8965C38.7268 13.3617 40.2513 16.7015 40.2513 20.439Z" fill="#A8EB6C"/>
<path d="M40.2513 114.035V154.114C40.2513 161.509 34.2334 167.553 26.691 167.553C19.2288 167.553 13.2109 161.509 13.2109 154.114V114.035H40.2513Z" fill="#E96B73"/>
<path d="M0 88C0 85.2386 2.23858 83 5 83H23C25.7614 83 28 85.2386 28 88V88C28 90.7614 25.7614 93 23 93H5C2.23858 93 0 90.7614 0 88V88Z" fill="#212121"/>
<path fill-rule="evenodd" clip-rule="evenodd" d="M0 95.4845C1.4301 96.4417 3.14985 97 5 97H23C27.9706 97 32 92.9706 32 88C32 83.0294 27.9706 79 23 79H5C3.14985 79 1.4301 79.5583 0 80.5155V88V95.4845ZM0 88C0 90.7614 2.23858 93 5 93H23C25.7614 93 28 90.7614 28 88C28 85.2386 25.7614 83 23 83H5C2.23858 83 0 85.2386 0 88Z" fill="white"/>
<path opacity="0.2" d="M40.3945 125.5C35.6732 169.9 13.8945 155 12.8945 146L11.8945 160.5L18.288 167L29.5994 170L41.8945 160.5L40.3945 125.5Z" fill="#212121"/>
<path d="M273.378 89.0527C273.378 98.3543 271.732 107.295 268.722 115.594C268.602 115.915 268.481 116.276 268.361 116.597C266.796 120.766 264.869 124.736 262.621 128.504C259.049 134.558 254.634 140.091 249.577 144.943C249.176 145.343 248.734 145.744 248.293 146.145C248.092 146.346 247.891 146.506 247.731 146.667C247.289 147.067 246.848 147.468 246.406 147.829C245.363 148.711 244.319 149.593 243.236 150.435C240.426 152.6 237.456 154.605 234.325 156.369C232.399 157.452 230.432 158.494 228.425 159.416C223.81 161.541 218.953 163.265 213.856 164.468C211.568 165.029 209.2 165.47 206.832 165.791C204.183 166.152 201.494 166.392 198.764 166.513C197.801 166.553 196.798 166.553 195.794 166.553C188.048 166.553 180.543 165.43 173.479 163.305C173.198 163.225 172.957 163.145 172.676 163.065C169.585 162.102 166.615 160.98 163.685 159.657C161.076 158.494 158.548 157.171 156.14 155.728C156.1 155.687 156.059 155.687 156.019 155.647C154.855 154.926 153.651 154.204 152.527 153.442C151.444 152.721 150.4 151.959 149.357 151.197C146.989 149.433 144.701 147.508 142.574 145.464C141.771 144.702 140.968 143.9 140.165 143.098C138.279 141.134 136.473 139.089 134.787 136.924C134.747 136.884 134.707 136.804 134.667 136.764C133.021 134.639 131.456 132.433 130.051 130.148C128.606 127.863 127.282 125.497 126.118 123.052C125.395 121.568 124.713 120.045 124.071 118.481C123.99 118.321 123.95 118.16 123.87 118C122.907 115.594 122.064 113.149 121.341 110.663C121.181 110.062 120.98 109.42 120.82 108.819C120.739 108.458 120.619 108.097 120.539 107.696C120.378 107.014 120.218 106.293 120.057 105.611C118.853 100.239 118.251 94.7059 118.251 89.0527C118.251 88.1306 118.251 87.2485 118.291 86.3264C119.736 44.7899 153.892 11.5527 195.835 11.5527C229.83 11.5527 258.728 33.4035 269.204 63.8342C270.488 67.5628 271.492 71.4118 272.214 75.381C272.455 76.6239 272.615 77.8668 272.776 79.1497C273.177 82.3973 273.378 85.6849 273.378 89.0527Z" fill="#B9E2F3"/>
<path fill-rule="evenodd" clip-rule="evenodd" d="M276.227 118.364L276.212 118.406C276.184 118.48 276.15 118.575 276.085 118.761L276.077 118.781C276.022 118.937 275.939 119.173 275.851 119.408C274.115 124.032 271.982 128.425 269.502 132.585C265.564 139.257 260.711 145.338 255.169 150.664C254.674 151.155 254.163 151.621 253.775 151.973C253.581 152.159 253.417 152.306 253.339 152.376L253.328 152.386L253.303 152.408L253.25 152.461L253.057 152.636C252.662 152.995 252.11 153.496 251.525 153.977L251.519 153.982C250.509 154.837 249.359 155.809 248.144 156.753L248.131 156.762L248.119 156.772C245.043 159.142 241.755 161.365 238.253 163.339L238.244 163.343C236.213 164.485 234.043 165.639 231.771 166.683M248.293 146.145C248.734 145.744 249.176 145.343 249.577 144.943C254.634 140.091 259.049 134.558 262.621 128.504C264.869 124.736 266.796 120.766 268.361 116.597C268.421 116.436 268.481 116.266 268.542 116.096C268.602 115.925 268.662 115.755 268.722 115.594C271.732 107.295 273.378 98.3543 273.378 89.0527C273.378 85.6849 273.177 82.3973 272.776 79.1497C272.615 77.8668 272.455 76.6239 272.214 75.381C271.492 71.4118 270.488 67.5628 269.204 63.8342C258.728 33.4035 229.83 11.5527 195.835 11.5527C153.892 11.5527 119.736 44.7899 118.291 86.3264C118.251 87.2485 118.251 88.1306 118.251 89.0527C118.251 94.7059 118.853 100.239 120.057 105.611C120.137 105.952 120.218 106.303 120.298 106.654C120.378 107.004 120.458 107.355 120.539 107.696C120.584 107.92 120.641 108.132 120.697 108.339C120.741 108.501 120.784 108.66 120.82 108.819C120.9 109.119 120.99 109.43 121.081 109.741C121.171 110.051 121.261 110.362 121.341 110.663C122.064 113.149 122.907 115.594 123.87 118C123.91 118.08 123.94 118.16 123.97 118.241C124.001 118.321 124.031 118.401 124.071 118.481C124.713 120.045 125.395 121.568 126.118 123.052C127.282 125.497 128.606 127.863 130.051 130.148C131.456 132.433 133.021 134.639 134.667 136.764C134.687 136.784 134.707 136.814 134.727 136.844C134.747 136.874 134.767 136.904 134.787 136.924C136.473 139.089 138.279 141.134 140.165 143.098C140.968 143.9 141.771 144.702 142.574 145.464C144.701 147.508 146.989 149.433 149.357 151.197C150.4 151.959 151.444 152.721 152.527 153.442C153.408 154.039 154.338 154.612 155.26 155.179C155.514 155.335 155.768 155.491 156.019 155.647C156.039 155.667 156.059 155.677 156.079 155.688C156.1 155.698 156.12 155.708 156.14 155.728C158.548 157.171 161.076 158.494 163.685 159.657C166.615 160.98 169.585 162.102 172.676 163.065C172.816 163.105 172.947 163.145 173.077 163.185C173.208 163.225 173.338 163.265 173.479 163.305C180.543 165.43 188.048 166.553 195.794 166.553C196.798 166.553 197.801 166.553 198.764 166.513C201.494 166.392 204.183 166.152 206.832 165.791C209.2 165.47 211.568 165.029 213.856 164.468C218.953 163.265 223.81 161.541 228.425 159.416C230.432 158.494 232.399 157.452 234.325 156.369C237.456 154.605 240.426 152.6 243.236 150.435C244.319 149.593 245.363 148.711 246.406 147.829C246.848 147.468 247.289 147.067 247.731 146.667C247.807 146.591 247.891 146.515 247.981 146.435C248.081 146.346 248.187 146.251 248.293 146.145ZM231.769 166.684C226.72 169.008 221.371 170.912 215.727 172.246C213.158 172.875 210.525 173.364 207.912 173.718C205.016 174.112 202.084 174.374 199.117 174.505L199.107 174.505L199.097 174.506C197.966 174.553 196.821 174.553 195.865 174.553H195.794C187.292 174.553 179.026 173.323 171.223 170.981C171.027 170.924 170.854 170.871 170.742 170.837L170.727 170.832C170.587 170.789 170.531 170.772 170.48 170.757L170.389 170.731L170.298 170.703C166.911 169.649 163.641 168.414 160.41 166.956C157.504 165.66 154.697 164.19 152.027 162.589L151.182 162.083L151.131 162.032C150.209 161.464 149.096 160.779 148.067 160.083C146.849 159.271 145.697 158.43 144.696 157.7L144.608 157.636L144.577 157.613C141.964 155.665 139.425 153.532 137.048 151.249C136.177 150.421 135.319 149.565 134.544 148.79L134.453 148.699L134.395 148.639C132.388 146.549 130.424 144.332 128.563 141.952C128.447 141.809 128.354 141.685 128.289 141.596C128.282 141.586 128.276 141.577 128.269 141.568C126.525 139.311 124.822 136.913 123.263 134.381C121.682 131.879 120.214 129.259 118.91 126.522C118.142 124.944 117.418 123.33 116.736 121.68C116.684 121.563 116.641 121.46 116.606 121.375C116.597 121.351 116.587 121.328 116.578 121.305L116.567 121.283L116.443 120.974C115.383 118.326 114.455 115.633 113.659 112.896L113.635 112.811L113.612 112.726C113.559 112.525 113.494 112.301 113.398 111.973L113.39 111.943C113.305 111.652 113.194 111.269 113.09 110.882L113.047 110.72L113.017 110.586C113.017 110.583 113.016 110.581 113.015 110.577C113.006 110.543 112.999 110.516 112.984 110.462C112.977 110.436 112.968 110.404 112.957 110.362L112.956 110.36C112.908 110.181 112.815 109.838 112.727 109.426C112.65 109.095 112.573 108.761 112.503 108.451L112.499 108.438C112.418 108.083 112.344 107.757 112.27 107.445L112.26 107.403L112.251 107.361C110.914 101.397 110.251 95.2765 110.251 89.0527L110.251 88.9897C110.251 88.1161 110.251 87.0984 110.297 86.0145C111.909 40.1952 149.585 3.55273 195.835 3.55273C233.344 3.55273 265.214 27.6655 276.768 61.2302C278.182 65.3361 279.284 69.5627 280.077 73.9053C280.37 75.4275 280.557 76.8999 280.714 78.1564L280.715 78.1685C281.158 81.749 281.378 85.3645 281.378 89.0527C281.378 99.3038 279.563 109.167 276.243 118.322L276.227 118.364M152.468 162.826C152.48 162.832 152.491 162.838 152.498 162.841L152.49 162.837L152.468 162.826Z" fill="#212121"/>
<path d="M224.715 62.7739L221.42 132.046H152.273C151.175 132.046 150.265 131.136 150.265 130.037V62.7739H224.715Z" fill="#A8EC6C"/>
<path d="M150.265 62.7742L172.518 49.0266C174.056 48.0535 176.065 49.1835 176.065 51.004V62.7742L198.538 48.9952C200.076 48.0535 202.085 49.1521 202.085 50.9726V62.7742H150.265Z" fill="#786E7A"/>
<path d="M193.422 115.159H186.077C184.382 115.159 182.97 113.778 182.97 112.052V104.707C182.97 103.012 184.351 101.6 186.077 101.6H193.422C195.117 101.6 196.529 102.981 196.529 104.707V112.052C196.529 113.778 195.148 115.159 193.422 115.159Z" fill="#786E7A"/>
<path d="M216.431 115.159H209.087C207.392 115.159 205.979 113.778 205.979 112.052V104.707C205.979 103.012 207.361 101.6 209.087 101.6H216.431C218.126 101.6 219.539 102.981 219.539 104.707V112.052C219.507 113.778 218.126 115.159 216.431 115.159Z" fill="#786E7A"/>
<path d="M239.651 62.7739V132.046H221.415L224.711 62.7739H239.651Z" fill="#9BDD61"/>
<mask id="mask0_186_3256" style="mask-type:alpha" maskUnits="userSpaceOnUse" x="118" y="11" width="156" height="156">
<path d="M273.378 89.0527C273.378 98.3543 271.732 107.295 268.722 115.594C268.602 115.915 268.481 116.276 268.361 116.597C266.796 120.766 264.869 124.736 262.621 128.504C259.049 134.558 254.634 140.091 249.577 144.943C249.176 145.343 248.734 145.744 248.293 146.145C248.092 146.346 247.891 146.506 247.731 146.667C247.289 147.067 246.848 147.468 246.406 147.829C245.363 148.711 244.319 149.593 243.236 150.435C240.426 152.6 237.456 154.605 234.325 156.369C232.399 157.452 230.432 158.494 228.425 159.416C223.81 161.541 218.953 163.265 213.856 164.468C211.568 165.029 209.2 165.47 206.832 165.791C204.183 166.152 201.494 166.392 198.764 166.513C197.801 166.553 196.798 166.553 195.794 166.553C188.048 166.553 180.543 165.43 173.479 163.305C173.198 163.225 172.957 163.145 172.676 163.065C169.585 162.102 166.615 160.98 163.685 159.657C161.076 158.494 158.548 157.171 156.14 155.728C156.1 155.687 156.059 155.687 156.019 155.647C154.855 154.926 153.651 154.204 152.527 153.442C151.444 152.721 150.4 151.959 149.357 151.197C146.989 149.433 144.701 147.508 142.574 145.464C141.771 144.702 140.968 143.9 140.165 143.098C138.279 141.134 136.473 139.089 134.787 136.924C134.747 136.884 134.707 136.804 134.667 136.764C133.021 134.639 131.456 132.433 130.051 130.148C128.606 127.863 127.282 125.497 126.118 123.052C125.395 121.568 124.713 120.045 124.071 118.481C123.99 118.321 123.95 118.16 123.87 118C122.907 115.594 122.064 113.149 121.341 110.663C121.181 110.062 120.98 109.42 120.82 108.819C120.739 108.458 120.619 108.097 120.539 107.696C120.378 107.014 120.218 106.293 120.057 105.611C118.853 100.239 118.251 94.7059 118.251 89.0527C118.251 88.1306 118.251 87.2485 118.291 86.3264C119.736 44.7899 153.892 11.5527 195.835 11.5527C229.83 11.5527 258.728 33.4035 269.204 63.8342C270.488 67.5628 271.492 71.4118 272.214 75.381C272.455 76.6239 272.615 77.8668 272.776 79.1497C273.177 82.3973 273.378 85.6849 273.378 89.0527Z" fill="#6EB7E6"/>
</mask>
<g mask="url(#mask0_186_3256)">
<rect x="121.251" y="118.553" width="143" height="51" fill="#8AA6B2"/>
<path d="M256.099 40.834H235.038L235.509 30.947C235.509 30.947 235.634 26.5527 239.432 26.5527H250.198C250.355 26.5527 250.418 26.5527 250.418 26.5527H255.503L256.099 40.834Z" fill="#786E7A"/>
<path d="M260.059 132.329H230.743L234.478 52.9502H256.638L260.059 132.329Z" fill="#786E7A"/>
<path d="M256.635 52.9495H234.476L235.041 40.834H256.101L256.635 52.9495Z" fill="white"/>
<path d="M265.551 40.834H256.103L255.476 26.5527H261.157C264.955 26.5527 265.08 30.947 265.08 30.947L265.551 40.834Z" fill="#6A6069"/>
<path d="M266.115 52.9495H256.636L256.103 40.834H265.55L266.115 52.9495Z" fill="#F3F1EB"/>
<path d="M269.85 132.329H260.057L256.636 52.9502H266.115L269.85 132.329Z" fill="#6A6069"/>
</g>
<path d="M269.251 113.553L260.057 132.329L256.636 52.9502H266.115L269.251 113.553Z" fill="#6A6069"/>
<path d="M174.191 85.106C174.191 85.4199 174.191 85.7024 174.191 85.9849C174.191 86.1104 174.191 86.2046 174.065 86.236C173.94 86.2988 173.877 86.2046 173.783 86.1104C173.029 85.2944 172.276 84.4469 171.523 83.6308C171.397 83.4739 171.397 83.4111 171.523 83.2542C172.276 82.4381 173.029 81.5907 173.783 80.7746C173.846 80.7118 173.971 80.649 174.034 80.6804C174.097 80.7118 174.159 80.8374 174.159 80.9315C174.159 81.214 174.159 81.4965 174.159 81.779C174.222 81.779 174.285 81.779 174.348 81.779C175.195 81.779 176.074 81.779 176.922 81.779C177.643 81.779 178.365 81.6848 179.056 81.4337C179.15 81.4023 179.244 81.3709 179.338 81.3082C179.872 81.0571 179.997 80.7746 179.903 80.1782C180.311 80.7746 180.594 81.3709 180.343 82.1242C180.311 82.2498 180.249 82.3753 180.154 82.5009C179.903 82.9403 179.652 83.4111 179.37 83.8505C178.899 84.6666 178.208 85.0433 177.267 85.0747C176.294 85.0747 175.321 85.0747 174.348 85.0747C174.348 85.106 174.285 85.106 174.191 85.106Z" fill="#212121"/>
<path d="M167.287 85.0438C166.973 85.0124 166.628 85.0438 166.314 84.981C165.812 84.8869 165.435 84.6044 165.184 84.165C164.901 83.6628 164.619 83.192 164.336 82.6898C163.897 81.9365 163.928 81.1518 164.336 80.3671C164.839 79.4883 165.341 78.6408 165.843 77.762C165.874 77.6992 165.906 77.6678 165.937 77.605C165.686 77.4481 165.435 77.3225 165.215 77.1656C165.121 77.1028 164.996 77.0714 165.027 76.9145C165.058 76.7889 165.153 76.7576 165.278 76.7262C166.377 76.4751 167.444 76.2554 168.542 76.0043C168.731 75.9729 168.793 76.0043 168.856 76.1926C169.202 77.2598 169.547 78.3269 169.861 79.3941C169.892 79.4883 169.861 79.6138 169.829 79.6766C169.735 79.7707 169.641 79.708 169.547 79.6452C169.296 79.5196 169.076 79.3627 168.825 79.2058C168.793 79.2685 168.762 79.2999 168.731 79.3627C168.291 80.116 167.852 80.8693 167.412 81.654C167.036 82.3131 166.753 83.0036 166.659 83.7569C166.628 83.9766 166.628 84.1964 166.691 84.3847C166.753 84.7299 167.004 84.9183 167.35 84.981C167.287 85.0124 167.287 85.0124 167.287 85.0438Z" fill="#212121"/>
<path d="M173.75 75.8461C173.06 74.7475 172.432 73.649 171.741 72.6132C171.522 72.2679 171.176 72.0168 170.894 71.7343C170.831 71.6716 170.768 71.6402 170.706 71.6088C170.329 71.3891 169.952 71.2321 169.481 71.703C169.795 71.0124 170.235 70.4475 171.019 70.3219C171.145 70.2905 171.302 70.2905 171.427 70.2905C171.93 70.2905 172.432 70.2905 172.934 70.2905C173.813 70.2905 174.503 70.6672 174.943 71.4519C175.445 72.3307 175.947 73.2096 176.449 74.057C176.481 74.1198 176.512 74.1512 176.544 74.2139C176.795 74.057 177.046 73.9315 177.266 73.8059C177.36 73.7431 177.454 73.6804 177.579 73.7745C177.705 73.8687 177.642 73.9629 177.611 74.0884C177.266 75.1556 176.952 76.1914 176.606 77.2585C176.544 77.4782 176.481 77.5096 176.261 77.4468C175.163 77.1957 174.095 76.976 172.997 76.7249C172.903 76.6936 172.777 76.6308 172.777 76.5366C172.777 76.4738 172.871 76.3483 172.934 76.3169C173.217 76.16 173.468 76.003 173.75 75.8461Z" fill="#212121"/>
<path d="M167.851 74.5283C167.882 74.4342 167.913 74.4028 167.945 74.34C168.353 73.6495 168.729 72.9589 169.137 72.2998C169.514 71.6407 169.985 71.5465 170.613 71.9546C171.24 72.394 171.68 72.9903 172.088 73.6181C172.119 73.6495 172.088 73.7436 172.088 73.775C171.68 74.5283 171.24 75.2502 170.801 76.0035C170.707 76.1605 170.613 76.1918 170.456 76.0977C169.64 75.6269 168.855 75.1561 168.039 74.6853C167.945 74.6539 167.882 74.5597 167.851 74.5283Z" fill="#212121"/>
<path d="M179.809 80.1458C179.809 80.5539 179.621 80.7736 179.37 80.9305C178.93 81.213 178.459 81.3072 177.957 81.4013C177.643 81.4641 177.329 81.4641 177.015 81.4955C176.953 81.4955 176.859 81.4641 176.827 81.4013C176.388 80.648 175.948 79.9261 175.54 79.1728C175.446 79.0473 175.477 78.9217 175.634 78.859C176.451 78.3881 177.267 77.9173 178.083 77.4465C178.208 77.3524 178.334 77.3837 178.397 77.5407C178.805 78.2626 179.244 78.9845 179.652 79.7378C179.715 79.8633 179.778 80.0517 179.809 80.1458Z" fill="#212121"/>
<path d="M170.645 83.3794C170.645 83.8188 170.645 84.2896 170.645 84.729C170.645 84.9487 170.582 85.0115 170.362 85.0115C169.546 85.0115 168.73 85.0115 167.945 85.0115C167.192 85.0115 166.91 84.5721 166.972 83.9129C167.035 83.1596 167.349 82.4691 167.663 81.81C167.694 81.7786 167.757 81.7158 167.82 81.7158C168.667 81.7158 169.546 81.7158 170.394 81.7158C170.55 81.7158 170.613 81.7786 170.613 81.9669C170.645 82.4377 170.645 82.9085 170.645 83.3794Z" fill="#212121"/>
<path d="M170.447 115.159H163.134C161.439 115.159 160.026 113.778 160.026 112.052V104.707C160.026 103.012 161.407 101.6 163.134 101.6H170.478C172.173 101.6 173.586 102.981 173.586 104.707V112.052C173.554 113.778 172.173 115.159 170.447 115.159Z" fill="#786E7A"/>
<path d="M214.391 162.8H172.729C169.639 161.838 166.669 160.715 163.739 159.392C161.13 158.23 158.602 156.907 156.193 155.463C156.153 155.423 156.113 155.423 156.073 155.383C154.909 154.661 153.705 153.94 152.581 153.178V127.278L154.467 123.269L155.832 120.382L156.233 119.54L160.207 111.08L160.648 110.198L164.1 102.821L164.18 102.621L166.027 98.6513L169.559 91.0737L172.248 95.3637L174.897 99.6136L179.713 107.271L182.162 111.2L200.062 139.867L202.19 143.275L203.956 146.081L211.581 158.31L214.391 162.8Z" fill="#B06C6C"/>
<path d="M156.194 111.08V155.463C156.154 155.423 156.114 155.423 156.074 155.383C154.91 154.661 153.706 153.94 152.582 153.178C151.498 152.456 150.455 151.694 149.411 150.933C147.043 149.169 144.756 147.244 142.628 145.199C141.826 144.438 141.023 143.636 140.22 142.834C138.334 140.869 136.528 138.825 134.842 136.66C134.802 136.619 134.762 136.539 134.721 136.499C133.076 134.374 131.511 132.169 130.106 129.884C128.661 127.598 127.336 125.233 126.172 122.787C125.45 121.304 124.768 119.78 124.125 118.217C124.045 118.056 124.005 117.896 123.925 117.736L123.965 117.695C124.808 116.934 125.851 116.252 127.096 115.731C129.143 114.889 131.751 114.488 135.123 114.889C135.243 114.889 135.364 114.929 135.524 114.929C137.13 115.13 138.896 115.53 140.822 116.132L141.103 115.891L144.033 113.365L149.211 108.875L150.937 111.04H156.194V111.08Z" fill="#748D97"/>
<path d="M172.409 111.08H150.856L149.13 108.915L152.662 105.868L153.826 97.2079C153.826 97.2079 161.331 82.8145 176.744 90.0714C165.506 99.3329 172.409 111.08 172.409 111.08Z" fill="#748D97"/>
<path d="M173.933 162.801C173.812 162.881 173.692 162.961 173.531 163.041C173.25 162.961 173.01 162.881 172.729 162.801C169.638 161.838 166.668 160.716 163.738 159.393C161.129 158.23 158.601 156.907 156.192 155.464V111.081H172.407C172.407 111.081 172.367 111 172.287 110.84C172.247 110.76 172.207 110.72 172.167 110.599C172.046 110.359 171.886 110.038 171.725 109.637C171.645 109.477 171.565 109.276 171.484 109.076C171.324 108.675 171.163 108.234 171.043 107.753C171.003 107.592 170.963 107.432 170.882 107.232C170.842 107.151 170.842 107.071 170.802 106.951C170.722 106.59 170.641 106.229 170.561 105.828C170.521 105.708 170.521 105.588 170.521 105.467C170.521 105.347 170.481 105.267 170.481 105.147C170.441 104.946 170.441 104.706 170.401 104.465C170.401 104.345 170.361 104.265 170.361 104.144C170.32 103.703 170.28 103.262 170.28 102.821V102.741C170.28 102.541 170.28 102.34 170.28 102.14C170.28 102.019 170.28 101.899 170.32 101.779C170.32 101.739 170.32 101.699 170.32 101.699C170.521 101.859 170.722 102.019 170.922 102.22C170.963 102.26 171.003 102.26 171.003 102.3C171.003 102.3 171.003 102.3 171.043 102.3C171.083 102.34 171.163 102.38 171.203 102.42C171.284 102.501 171.404 102.581 171.524 102.701C171.565 102.741 171.605 102.781 171.685 102.821C171.765 102.902 171.846 102.982 171.926 103.062C171.966 103.102 172.046 103.142 172.086 103.222C172.167 103.262 172.207 103.343 172.287 103.383C172.367 103.423 172.407 103.503 172.488 103.543C172.568 103.583 172.648 103.663 172.688 103.743C172.809 103.864 172.929 103.944 173.05 104.064C173.21 104.185 173.331 104.345 173.491 104.505C173.531 104.545 173.531 104.545 173.571 104.585C173.652 104.666 173.692 104.706 173.772 104.786C173.812 104.866 173.893 104.906 173.933 104.986C174.053 105.107 174.133 105.187 174.254 105.307C174.294 105.347 174.294 105.347 174.334 105.387C174.454 105.508 174.575 105.628 174.655 105.748C174.816 105.949 174.976 106.109 175.137 106.309C175.257 106.47 175.378 106.59 175.498 106.75C175.538 106.791 175.578 106.831 175.578 106.871C175.699 107.031 175.859 107.191 175.98 107.352C176.14 107.552 176.301 107.753 176.461 107.953C176.501 108.033 176.542 108.074 176.622 108.154C176.662 108.194 176.702 108.234 176.742 108.314L176.782 108.354C176.822 108.394 176.822 108.434 176.863 108.474C176.903 108.515 176.943 108.555 176.943 108.595C177.023 108.675 177.063 108.715 177.103 108.795C177.103 108.835 177.144 108.835 177.144 108.875C177.344 109.156 177.545 109.397 177.746 109.677C177.786 109.717 177.826 109.757 177.826 109.798C177.946 109.958 178.067 110.118 178.187 110.319C178.227 110.359 178.267 110.399 178.308 110.479C178.348 110.559 178.428 110.639 178.468 110.72C178.468 110.72 178.468 110.72 178.468 110.76L178.508 110.8C178.548 110.84 178.548 110.84 178.548 110.88C178.588 110.92 178.629 111 178.669 111.081C178.669 111.121 178.709 111.121 178.709 111.121C178.869 111.401 179.07 111.642 179.231 111.922C179.231 111.922 179.271 111.963 179.271 112.003C179.271 112.003 179.271 112.043 179.311 112.043C179.351 112.123 179.391 112.163 179.431 112.243C179.512 112.364 179.552 112.444 179.632 112.564C179.752 112.764 179.873 112.965 179.993 113.165C179.993 113.165 180.033 113.205 180.033 113.246C180.234 113.566 180.435 113.927 180.595 114.248C180.756 114.529 180.876 114.809 181.037 115.05C181.117 115.21 181.197 115.33 181.278 115.491C181.438 115.771 181.559 116.092 181.719 116.373C181.719 116.413 181.759 116.413 181.759 116.453C182 116.934 182.201 117.415 182.442 117.896C182.482 118.017 182.522 118.097 182.562 118.217C182.602 118.337 182.682 118.458 182.723 118.618C182.883 119.019 183.044 119.42 183.204 119.821C190.067 137.021 185.813 155.143 173.933 162.801Z" fill="white"/>
<path d="M155.752 84.7792C155.552 85.581 155.231 86.3428 154.789 86.9843L149.692 96.7269L144.233 98.5712C143.471 97.9698 141.395 98.6499 139.188 98.2891C120.966 95.6029 131.109 80.6095 131.109 80.6095C132.112 80.4892 133.156 80.5694 134.239 80.8901C135.042 81.1307 135.765 81.4514 136.447 81.8524C136.447 81.8524 136.447 81.8524 136.487 81.8524C136.527 81.8925 136.567 81.8925 136.567 81.9326C137.089 82.2533 138.975 83.1755 139.577 80.9302C139.618 80.7298 139.658 80.5293 139.698 80.3288C140.862 75.9186 145.397 73.3526 149.812 74.5955C154.267 75.7983 156.916 80.3689 155.752 84.7792Z" fill="#FAC04F"/>
<path d="M257.738 117.175C252.802 113.446 245.978 116.252 245.697 116.373C245.818 116.252 247.664 114.528 243.811 108.434C239.838 102.1 233.265 104.829 233.265 104.829C233.265 104.829 233.054 97.6493 223.462 91.0339C220.973 89.3099 218.405 88.6283 215.997 88.5882C209.013 88.3877 203.073 93.239 203.073 93.239C203.073 93.239 202.872 85.0199 194.684 83.4162C194.002 83.2959 193.279 83.1756 192.517 83.1756C191.072 83.0955 189.747 83.2558 188.624 83.4964C181.72 85.1402 180.315 92.0362 180.315 92.0362C180.235 91.9961 180.155 91.956 180.075 91.8758C178.911 91.1542 177.827 90.5528 176.743 90.0316C176.302 90.3924 175.9 90.7532 175.539 91.1141C175.499 91.1542 175.459 91.1943 175.379 91.2344C175.338 91.2745 175.298 91.3146 175.218 91.3546C175.138 91.4348 175.057 91.515 174.977 91.5952C174.937 91.6754 174.857 91.7155 174.817 91.7957C174.777 91.8358 174.777 91.8358 174.736 91.8758C174.656 91.956 174.576 92.0362 174.496 92.1565C174.455 92.1966 174.415 92.2367 174.375 92.3169C174.295 92.3971 174.215 92.5173 174.134 92.5975C174.014 92.7178 173.934 92.8381 173.813 92.9584C173.613 93.1989 173.452 93.3994 173.291 93.64C173.211 93.7602 173.091 93.9206 173.011 94.0409C172.93 94.1612 172.81 94.3215 172.73 94.4418C172.649 94.5621 172.569 94.7225 172.489 94.8427C172.449 94.9229 172.408 95.0031 172.368 95.0833C172.328 95.1234 172.328 95.1635 172.288 95.2036C172.248 95.2437 172.248 95.2838 172.208 95.3239C172.128 95.4441 172.087 95.5644 172.007 95.6847C171.927 95.805 171.887 95.9653 171.806 96.0856C171.766 96.1658 171.726 96.246 171.686 96.3262C171.646 96.4465 171.606 96.5267 171.525 96.6469C171.485 96.7672 171.445 96.8474 171.405 96.9677C171.365 97.088 171.325 97.2082 171.285 97.3285C171.245 97.4488 171.204 97.5691 171.124 97.7294C171.084 97.8096 171.044 97.9299 171.004 98.0502C170.964 98.1304 170.964 98.2106 170.923 98.2907C170.843 98.5313 170.803 98.7318 170.723 98.9723C170.683 99.0926 170.642 99.253 170.642 99.3733C170.602 99.5336 170.562 99.694 170.562 99.8544C170.522 99.9747 170.522 100.055 170.522 100.175C170.482 100.416 170.442 100.696 170.402 100.937C170.402 101.017 170.362 101.097 170.362 101.177C170.362 101.258 170.362 101.338 170.321 101.378C170.321 101.498 170.321 101.618 170.281 101.739C170.482 101.899 170.683 102.06 170.883 102.26C170.923 102.3 170.964 102.3 170.964 102.34C170.964 102.34 170.964 102.34 171.004 102.34C171.044 102.38 171.124 102.42 171.164 102.46C171.245 102.541 171.365 102.621 171.485 102.741C171.525 102.781 171.566 102.821 171.646 102.861C171.726 102.942 171.806 103.022 171.887 103.102C171.927 103.142 172.007 103.182 172.047 103.262C172.128 103.302 172.168 103.383 172.248 103.423C172.328 103.463 172.368 103.543 172.449 103.583C172.529 103.623 172.609 103.703 172.649 103.784C172.77 103.904 172.89 103.984 173.011 104.104C173.171 104.225 173.291 104.385 173.452 104.545C173.492 104.585 173.492 104.585 173.532 104.625C173.613 104.706 173.653 104.746 173.733 104.826C173.773 104.906 173.853 104.946 173.894 105.026C174.014 105.147 174.134 105.307 174.295 105.427C174.415 105.548 174.536 105.668 174.616 105.788C174.777 105.989 174.937 106.149 175.098 106.349C175.218 106.51 175.338 106.63 175.459 106.79C175.499 106.831 175.539 106.871 175.539 106.911C175.66 107.071 175.82 107.232 175.94 107.392C176.101 107.592 176.262 107.793 176.422 107.993C176.462 108.073 176.502 108.114 176.583 108.194C176.623 108.234 176.663 108.274 176.703 108.354C176.783 108.434 176.864 108.555 176.944 108.635C177.024 108.715 177.064 108.755 177.104 108.835C177.104 108.875 177.145 108.875 177.145 108.915C177.345 109.196 177.546 109.437 177.747 109.717C177.787 109.757 177.827 109.797 177.827 109.838C177.947 109.998 178.068 110.158 178.188 110.359C178.268 110.479 178.349 110.639 178.469 110.76C178.469 110.76 178.469 110.76 178.469 110.8C178.469 110.8 178.469 110.84 178.509 110.84C178.549 110.88 178.549 110.88 178.549 110.92C178.589 110.96 178.63 111.04 178.67 111.121C178.67 111.161 178.71 111.161 178.71 111.161C178.911 111.441 179.071 111.722 179.272 112.003C179.272 112.003 179.272 112.043 179.312 112.043C179.352 112.123 179.392 112.163 179.432 112.243C179.513 112.363 179.553 112.444 179.633 112.564C179.753 112.764 179.874 112.965 179.994 113.165C180.195 113.526 180.396 113.887 180.596 114.248C180.998 114.969 181.359 115.691 181.72 116.453C181.961 116.934 182.162 117.415 182.402 117.896C182.041 118.017 181.72 118.177 181.399 118.297C181.198 118.377 180.998 118.498 180.797 118.578C180.396 118.778 179.994 118.979 179.633 119.219C179.472 119.34 179.272 119.42 179.111 119.54C178.67 119.821 178.268 120.142 177.907 120.462C177.827 120.542 177.747 120.583 177.666 120.663C177.426 120.863 177.225 121.064 177.024 121.264C170.161 128.24 174.857 140.068 174.857 140.068C164.301 147.525 162.776 154.501 163.659 159.433C166.549 160.756 169.559 161.878 172.649 162.841C172.93 162.921 173.171 163.001 173.452 163.081C180.516 165.206 187.981 166.329 195.768 166.329C196.771 166.329 197.735 166.329 198.738 166.289C201.467 166.209 204.156 165.928 206.805 165.567C209.173 165.246 211.541 164.765 213.829 164.244C218.886 163.041 223.743 161.357 228.399 159.192C230.405 158.27 232.372 157.228 234.299 156.145C237.389 154.381 240.359 152.376 243.209 150.211C244.293 149.369 245.376 148.527 246.38 147.605C246.821 147.244 247.263 146.844 247.704 146.443C247.905 146.282 248.106 146.082 248.266 145.921C248.708 145.52 249.109 145.12 249.551 144.719C254.608 139.867 259.023 134.334 262.595 128.28C262.073 122.307 260.147 118.979 257.738 117.175Z" fill="#8AA6B2"/>
<path d="M144.273 98.6112L138.694 100.496L130.065 96.8471C125.61 95.6042 122.961 91.0336 124.125 86.6233C125.008 83.2555 127.857 80.9702 131.149 80.6094C131.149 80.6094 121.676 94.5217 139.938 97.248C142.106 97.5287 143.511 98.0098 144.273 98.6112Z" fill="#EBAE56"/>
<path d="M182.482 117.896C182.121 118.016 181.8 118.177 181.479 118.297C181.278 118.377 181.077 118.497 180.877 118.578C180.475 118.778 180.074 118.979 179.713 119.219C179.552 119.339 179.351 119.42 179.191 119.54C178.749 119.821 178.348 120.141 177.987 120.462C177.907 120.542 177.826 120.582 177.746 120.663C177.505 120.863 177.305 121.063 177.104 121.264C170.241 128.24 174.936 140.068 174.936 140.068C164.381 147.525 162.855 154.501 163.738 159.433C161.13 158.27 158.601 156.947 156.193 155.503C156.153 155.463 156.113 155.463 156.072 155.423C154.908 154.702 153.704 153.98 152.581 153.218C151.497 152.496 150.453 151.735 149.41 150.973C149.41 150.893 149.41 150.813 149.37 150.692C149.37 150.652 149.37 150.572 149.37 150.532C149.37 150.412 149.329 150.331 149.329 150.211C149.289 150.131 149.289 150.011 149.249 149.931C149.249 149.89 149.249 149.85 149.209 149.81C149.169 149.69 149.169 149.61 149.129 149.489C149.089 149.329 149.049 149.169 148.968 149.008C148.928 148.888 148.888 148.768 148.808 148.648C148.647 148.206 148.406 147.725 148.125 147.244C148.085 147.124 148.005 147.044 147.965 146.924C147.925 146.883 147.885 146.803 147.885 146.763C147.804 146.643 147.764 146.523 147.684 146.402C147.122 145.56 146.48 144.638 145.637 143.676C145.476 143.516 145.356 143.315 145.195 143.155C145.035 142.954 144.834 142.714 144.674 142.513C144.634 142.473 144.593 142.393 144.553 142.353C144.312 142.072 144.112 141.792 143.911 141.511C143.55 141.03 143.189 140.549 142.868 140.068C142.426 139.426 142.025 138.825 141.623 138.183C141.543 138.023 141.423 137.862 141.342 137.702C141.061 137.221 140.78 136.78 140.54 136.299C140.379 136.018 140.219 135.738 140.098 135.457C140.058 135.417 140.058 135.377 140.018 135.297C139.857 135.016 139.737 134.735 139.576 134.455C139.376 134.014 139.135 133.573 138.974 133.131C138.894 132.931 138.814 132.731 138.734 132.57C138.693 132.49 138.653 132.41 138.653 132.37C138.533 132.089 138.412 131.849 138.332 131.568C138.252 131.367 138.172 131.167 138.091 130.966C137.931 130.566 137.77 130.124 137.65 129.724V129.683C137.57 129.403 137.449 129.122 137.369 128.842C137.208 128.28 137.008 127.719 136.887 127.158C136.887 127.118 136.887 127.118 136.847 127.077C136.687 126.516 136.366 125.985 136.245 125.424C136.205 125.223 135.603 124.603 135.563 124.443C135.482 124.042 135.632 124.15 135.591 123.789C133.75 122.888 134.978 122.188 134.938 121.827C134.817 121.106 131.382 119.28 131.342 118.558C131.221 117.075 134.897 117.673 134.938 116.27C133.332 115.147 135.225 115.323 135.265 114.962C133.946 113.974 134.938 114.222 134.938 113.981C133.906 112.578 134.152 111.385 135.265 112.347C135.265 112.226 134.611 110.92 134.611 110.8C134.651 110.599 135.804 112.403 135.804 112.203C135.265 111.559 134.611 109.565 134.611 109.404C134.651 109.164 135.225 110.299 135.265 110.058C135.265 109.978 135.19 109.68 135.563 110.385C135.603 110.064 134.898 109.316 134.938 108.995C134.978 108.675 135.511 108.051 135.592 107.77C135.632 107.489 135.523 108.377 135.563 108.097C135.563 108.017 135.804 107.111 135.804 107.031C135.844 106.911 136.205 107.563 136.245 107.443C136.285 107.242 135.523 105.894 136.245 106.789C136.285 106.629 135.621 106.971 136.572 106.462C136.652 106.222 135.482 105.722 135.563 105.481C135.683 104.96 136.452 104.655 136.572 104.174C136.652 103.933 136.819 103.434 136.899 103.193C137.26 102.03 137.519 101.46 137.88 100.578C137.393 100.578 138.294 99.3457 138.534 99.5969C138.734 99.0757 139.175 99.1726 139.376 98.7717C139.416 98.6915 139.456 98.6113 139.496 98.5311C139.576 98.3708 139.617 98.2505 139.697 98.1302C139.737 98.05 139.737 98.0099 139.777 97.9698C139.978 97.5689 140.098 97.3283 140.138 97.2481H140.098C141.021 96.7269 141.944 96.2859 142.948 95.885C145.637 94.8426 148.406 94.3213 151.256 94.2812C152.139 94.2812 152.982 94.3213 153.865 94.4015C154.507 94.4416 155.189 94.5619 155.832 94.6421C156.715 94.8025 157.557 95.0029 158.44 95.2435C159.564 95.5642 160.648 95.9251 161.772 96.3661C161.852 96.4062 161.892 96.4062 161.972 96.4463C163.417 97.0477 164.862 97.7694 166.267 98.6113C167.752 99.4934 169.237 100.536 170.642 101.698C170.843 101.859 171.043 102.019 171.244 102.22C171.284 102.26 171.324 102.26 171.324 102.3C171.324 102.3 171.324 102.3 171.364 102.3C171.404 102.34 171.485 102.38 171.525 102.42C171.605 102.5 171.726 102.581 171.846 102.701C171.886 102.741 171.926 102.781 172.007 102.821C172.087 102.901 172.167 102.981 172.247 103.062C172.287 103.102 172.368 103.142 172.408 103.222C172.488 103.262 172.528 103.342 172.609 103.382C172.689 103.422 172.729 103.503 172.809 103.543C172.89 103.583 172.97 103.663 173.01 103.743C173.13 103.864 173.251 103.944 173.371 104.064C173.532 104.184 173.652 104.345 173.813 104.505C173.853 104.545 173.853 104.545 173.893 104.585C173.973 104.665 174.013 104.705 174.094 104.786C174.134 104.866 174.214 104.906 174.254 104.986C174.375 105.106 174.455 105.187 174.575 105.307C174.696 105.467 174.856 105.628 174.977 105.748C175.137 105.948 175.298 106.109 175.458 106.309C175.579 106.47 175.699 106.59 175.819 106.75C175.86 106.79 175.9 106.83 175.9 106.87C176.02 107.031 176.181 107.191 176.301 107.352C176.462 107.552 176.622 107.753 176.783 107.953C176.823 108.033 176.863 108.073 176.943 108.153C176.983 108.194 177.024 108.234 177.064 108.314L177.104 108.354C177.144 108.394 177.144 108.434 177.184 108.474C177.224 108.514 177.264 108.554 177.264 108.594C177.345 108.675 177.385 108.715 177.425 108.795C177.425 108.835 177.465 108.835 177.465 108.875C177.666 109.156 177.866 109.396 178.067 109.677C178.107 109.717 178.147 109.757 178.147 109.797C178.268 109.958 178.388 110.118 178.509 110.318C178.549 110.359 178.589 110.399 178.629 110.479C178.669 110.559 178.749 110.639 178.79 110.719C178.79 110.719 178.79 110.719 178.79 110.76C178.79 110.76 178.79 110.8 178.83 110.8C178.87 110.84 178.87 110.84 178.87 110.88C178.91 110.92 178.95 111 178.99 111.08C178.99 111.12 179.03 111.12 179.03 111.12C179.191 111.401 179.392 111.642 179.552 111.922C179.552 111.922 179.592 111.962 179.592 112.002C179.592 112.002 179.592 112.043 179.632 112.043C179.673 112.123 179.713 112.163 179.753 112.243C179.833 112.363 179.873 112.443 179.954 112.564C180.074 112.764 180.194 112.965 180.315 113.165C180.315 113.165 180.355 113.205 180.355 113.245C180.556 113.566 180.756 113.927 180.917 114.248C181.077 114.528 181.198 114.809 181.358 115.049C181.439 115.21 181.519 115.33 181.599 115.491C181.76 115.771 181.88 116.092 182.041 116.373C182.041 116.413 182.081 116.413 182.081 116.453C182.041 116.934 182.281 117.375 182.482 117.896Z" fill="#FAC04F"/>
<path d="M149.41 150.893C147.042 149.129 144.754 147.204 142.627 145.159C141.824 144.398 141.021 143.596 140.219 142.794C138.332 140.829 136.526 138.785 134.84 136.62C134.8 136.58 134.76 136.499 134.72 136.459C133.074 134.334 131.509 132.129 130.104 129.844C128.659 127.559 127.335 125.193 126.171 122.747C126.251 120.302 126.572 117.976 127.094 115.691C127.857 112.243 129.141 109.036 130.827 106.229C131.509 105.106 132.231 104.024 133.074 103.022C133.516 102.46 133.997 101.939 134.479 101.418C135.121 100.736 135.844 100.095 136.566 99.4934C137.65 98.6113 138.774 97.8496 139.978 97.168H140.018C139.978 97.2482 139.857 97.4887 139.657 97.8896C139.617 97.9297 139.617 98.0099 139.576 98.05C139.536 98.1703 139.456 98.3307 139.376 98.4509C139.336 98.5311 139.295 98.6113 139.255 98.6915C139.095 99.0924 138.894 99.5736 138.653 100.095C138.613 100.175 138.573 100.255 138.573 100.335C138.212 101.217 137.851 102.26 137.489 103.422C137.409 103.663 137.329 103.904 137.249 104.184C137.128 104.665 136.968 105.146 136.847 105.668C136.767 105.908 136.727 106.189 136.646 106.429C136.606 106.59 136.566 106.79 136.526 106.951C136.486 107.111 136.446 107.312 136.406 107.472C136.366 107.592 136.366 107.753 136.325 107.873C136.325 107.953 136.285 107.993 136.285 108.073C136.245 108.354 136.165 108.635 136.125 108.915C136.085 109.196 136.004 109.517 135.964 109.797C135.924 110.078 135.884 110.399 135.844 110.719C135.844 110.8 135.804 110.84 135.804 110.92C135.763 111.16 135.763 111.401 135.723 111.642C135.723 111.802 135.683 111.962 135.683 112.123C135.643 112.323 135.643 112.484 135.643 112.684C135.643 112.804 135.603 112.965 135.603 113.085C135.563 113.406 135.563 113.726 135.523 114.087C135.523 114.368 135.483 114.608 135.483 114.889C135.483 115.25 135.442 115.611 135.442 116.012C135.402 117.415 135.483 118.858 135.603 120.342C135.683 121.063 135.763 121.785 135.844 122.507C135.884 122.868 135.964 123.269 136.004 123.629C136.085 123.99 136.125 124.391 136.205 124.752C136.245 124.952 136.285 125.113 136.325 125.313C136.446 125.875 136.566 126.436 136.727 126.997C136.727 127.037 136.727 127.037 136.767 127.077C136.927 127.639 137.088 128.2 137.249 128.761C137.329 129.042 137.449 129.323 137.529 129.603V129.643C137.69 130.044 137.81 130.485 137.971 130.886C138.051 131.087 138.132 131.287 138.212 131.488C138.332 131.728 138.412 132.009 138.533 132.29C138.573 132.37 138.573 132.45 138.613 132.49C138.693 132.69 138.774 132.851 138.854 133.051C139.055 133.492 139.255 133.933 139.456 134.374C139.617 134.655 139.737 134.936 139.898 135.216C139.938 135.256 139.938 135.297 139.978 135.377C140.138 135.657 140.259 135.938 140.419 136.219C140.7 136.7 140.941 137.141 141.222 137.622C141.302 137.782 141.423 137.943 141.503 138.103C141.904 138.704 142.306 139.346 142.747 139.987C143.068 140.469 143.43 140.95 143.791 141.431C143.991 141.711 144.232 141.992 144.433 142.273C144.473 142.313 144.513 142.393 144.553 142.433C144.714 142.634 144.915 142.874 145.075 143.075C145.236 143.235 145.356 143.435 145.517 143.596C146.359 144.558 147.002 145.48 147.564 146.322C147.644 146.442 147.724 146.563 147.764 146.683C147.804 146.723 147.845 146.803 147.845 146.843C147.925 146.964 147.965 147.044 148.005 147.164C148.286 147.645 148.487 148.126 148.687 148.567C148.728 148.688 148.768 148.808 148.848 148.928C148.888 149.089 148.968 149.249 149.008 149.409C149.049 149.53 149.089 149.61 149.089 149.73C149.089 149.77 149.129 149.81 149.129 149.85C149.169 149.931 149.169 150.051 149.209 150.131C149.249 150.251 149.249 150.372 149.249 150.452C149.249 150.492 149.249 150.572 149.249 150.612C149.41 150.732 149.41 150.813 149.41 150.893Z" fill="#EBAE56"/>
<path d="M185.053 117.094C184.13 117.335 183.287 117.576 182.484 117.896C182.123 118.017 181.802 118.177 181.481 118.297C181.28 118.377 181.08 118.498 180.879 118.578C180.478 118.778 180.076 118.979 179.715 119.219C179.554 119.34 179.354 119.42 179.193 119.54C178.752 119.821 178.35 120.142 177.989 120.462C177.909 120.542 177.829 120.583 177.748 120.663C177.507 120.863 177.307 121.064 177.106 121.264C170.243 128.24 174.939 140.068 174.939 140.068C164.383 147.525 162.858 154.501 163.741 159.433C161.132 158.27 158.603 156.947 156.195 155.504C156.155 155.464 156.115 155.464 156.075 155.423C154.911 154.702 153.707 153.98 152.583 153.218C151.499 152.497 150.456 151.735 149.412 150.973C147.044 149.209 144.756 147.285 142.629 145.24C141.826 144.478 141.024 143.676 140.221 142.874C138.334 140.91 136.528 138.865 134.843 136.7C134.802 136.66 134.762 136.58 134.722 136.54C133.077 134.415 131.511 132.21 130.106 129.924C131.953 127.398 134.16 126.035 136.368 125.434C136.97 125.273 137.532 125.153 138.134 125.073C140.823 124.752 143.351 125.314 145.037 125.875C146.322 126.316 147.124 126.717 147.124 126.717C148.69 123.75 150.456 122.026 152.262 121.144C153.506 120.542 154.71 120.342 155.874 120.382C155.994 120.382 156.155 120.382 156.275 120.422C160.329 120.743 163.62 123.95 163.62 123.95C166.711 119.38 170.845 117.415 174.658 116.653C176.504 116.293 178.27 116.212 179.795 116.293C180.558 116.333 181.28 116.373 181.882 116.453C183.809 116.694 185.053 117.094 185.053 117.094Z" fill="#748D97"/>
<path d="M234.458 146.442L213.307 154.22C211.781 154.782 210.096 154.02 209.534 152.496L197.613 120.141C197.051 118.618 197.814 116.934 199.339 116.373L220.491 108.595C222.016 108.033 223.702 108.795 224.264 110.319L236.184 142.674C236.746 144.197 235.984 145.881 234.458 146.442Z" fill="white"/>
<path d="M221.187 113.033L201.409 120.297L211.022 146.413L230.8 139.149L221.187 113.033Z" fill="#868686"/>
<path d="M212.665 116.132L208.651 139.426L211.1 146.122L219.649 142.995L223.662 119.861L221.174 113.005L212.665 116.132Z" fill="#9C9C9C"/>
<path d="M225.589 145.24C225.589 145.2 225.549 145.159 225.549 145.119L225.509 144.999C225.349 144.558 225.028 144.197 224.666 143.957C224.145 143.596 223.422 143.516 222.78 143.756L220.211 144.718C219.93 144.799 219.73 144.959 219.529 145.119C219.288 145.36 219.087 145.641 218.967 145.921C218.806 146.402 218.766 146.924 218.967 147.405L219.007 147.525C219.408 148.607 220.653 149.169 221.736 148.768L224.345 147.806C224.666 147.685 224.907 147.525 225.108 147.284C225.589 146.803 225.83 146.001 225.589 145.24ZM224.064 147.244L221.455 148.206C220.773 148.447 220.01 148.166 219.689 147.565C219.649 147.485 219.609 147.445 219.609 147.365L219.569 147.244C219.288 146.482 219.689 145.641 220.452 145.36L223.061 144.398C223.823 144.117 224.666 144.518 224.947 145.28L224.987 145.4C225.028 145.48 225.028 145.56 225.028 145.6C225.108 146.282 224.747 147.004 224.064 147.244Z" fill="#566C78"/>
<path d="M208.21 116.213C208.564 116.213 208.852 115.925 208.852 115.571C208.852 115.216 208.564 114.929 208.21 114.929C207.855 114.929 207.567 115.216 207.567 115.571C207.567 115.925 207.855 116.213 208.21 116.213Z" fill="black"/>
<path d="M210.618 115.371C210.973 115.371 211.26 115.083 211.26 114.729C211.26 114.375 210.973 114.087 210.618 114.087C210.263 114.087 209.976 114.375 209.976 114.729C209.976 115.083 210.263 115.371 210.618 115.371Z" fill="black"/>
<path d="M213.026 114.528C213.381 114.528 213.668 114.241 213.668 113.887C213.668 113.532 213.381 113.245 213.026 113.245C212.671 113.245 212.384 113.532 212.384 113.887C212.384 114.241 212.671 114.528 213.026 114.528Z" fill="black"/>
<path d="M224.906 145.24L224.946 145.36C224.986 145.44 224.986 145.48 224.986 145.561C224.825 146.122 224.424 146.563 223.862 146.763L221.253 147.726C220.691 147.926 220.089 147.846 219.608 147.525C219.568 147.445 219.527 147.405 219.527 147.325L219.487 147.205C219.206 146.443 219.608 145.561 220.37 145.28L222.979 144.318C223.782 144.037 224.625 144.438 224.906 145.24Z" fill="#8EAABD"/>
<path d="M247.702 146.403C247.261 146.804 246.819 147.205 246.378 147.565C245.334 148.447 244.29 149.329 243.207 150.171C240.397 152.336 237.427 154.341 234.297 156.105C232.37 157.188 230.403 158.23 228.397 159.152L211.539 158.27L200.181 157.669L200.662 152.056L201.385 144.077L202.147 143.275L205.037 140.309L207.726 137.502L209.251 135.898L209.854 135.297L212.422 135.858L220.61 137.622L222.978 138.143L225.426 141.11L226.59 142.514L227.835 144.037L230.363 142.153L233.494 139.827L235.26 140.148L238.551 140.709L246.097 142.033L246.939 144.318L247.702 146.403Z" fill="#8AA6B2"/>
<path d="M247.863 142.829C247.663 143.029 246.925 143.668 246.765 143.829C246.323 144.23 246.86 144.204 246.418 144.565C245.375 145.447 244.331 146.329 243.248 147.171C243.248 147.131 243.208 147.091 243.208 147.011C243.167 146.81 243.127 146.57 243.047 146.369C242.485 144.044 241.602 141.237 239.595 140.155C239.074 139.874 238.311 139.674 237.749 139.633C237.227 139.593 236.746 139.593 236.224 139.633C235.782 139.674 235.341 139.674 234.899 139.714C233.856 139.794 233.735 139.674 233.174 140.235C232.612 140.796 232.17 141.718 231.849 142.52C231.568 143.202 231.367 143.963 231.207 144.685C231.207 144.725 231.167 144.765 231.167 144.805C231.086 145.527 230.966 146.289 230.765 147.051C229.922 149.937 225.666 149.515 225.265 146.829C225.265 146.829 225.725 146.609 225.765 146.329C225.805 146.048 225.225 145.609 225.265 145.329C225.305 145.008 225.106 144.805 225.146 144.445C225.146 144.445 225.146 144.405 225.146 144.364C225.146 143.883 225.186 143.402 225.146 142.921C225.146 142.801 225.146 142.64 225.106 142.52C225.106 142.52 225.106 142.52 225.106 142.48C225.066 142.159 224.986 141.879 224.905 141.558C224.865 141.357 224.785 141.157 224.705 140.957C224.424 140.155 224.063 139.473 223.461 138.791C223.38 138.711 223.3 138.631 223.22 138.551C222.377 137.669 221.373 137.027 220.33 136.506C219.808 136.266 219.286 136.065 218.724 135.865C216.958 135.263 215.072 134.862 213.226 134.862C211.66 134.862 210.135 135.183 208.771 135.945C208.65 136.025 208.53 136.105 208.409 136.145C208.249 136.266 208.088 136.346 207.928 136.466C207.085 137.108 206.362 137.95 205.72 138.952C205.64 139.072 205.56 139.192 205.52 139.313C204.717 140.676 204.516 141.197 204.075 142.56C204.035 142.681 203.994 142.841 203.954 142.961C203.713 143.803 203.513 144.645 203.352 145.527C203.312 145.688 203.312 145.808 203.272 145.968C203.272 146.008 203.272 146.088 203.272 146.129C203.152 147.732 201.988 148.654 200.743 148.935C199.017 149.296 197.051 148.374 197.251 146.129C197.452 143.482 198.175 140.916 199.218 138.471C199.459 137.869 199.74 137.308 200.061 136.747C200.944 135.143 202.028 133.7 203.352 132.497C204.235 131.695 205.198 130.973 206.282 130.412C206.483 130.332 206.684 130.212 206.884 130.131C207.847 129.69 208.891 129.37 209.935 129.129C210.376 129.049 210.818 128.969 211.259 128.929C214.631 128.528 218.163 129.169 221.373 130.412C221.975 130.653 222.578 130.893 223.18 131.174C225.507 132.296 227.474 134.02 228.879 136.105C229.361 135.664 229.842 135.263 230.404 134.943C231.448 134.341 232.692 133.94 234.097 133.74C234.257 133.7 234.458 133.7 234.618 133.66C236.706 133.459 238.873 133.459 240.84 134.101C241.522 134.301 242.164 134.582 242.806 134.983C245.255 136.426 246.82 138.791 247.863 141.398C247.984 141.919 248.064 142.628 247.863 142.829Z" fill="#748D97"/>
<path d="M248.306 145.881C248.105 146.081 247.904 146.242 247.744 146.402C247.302 146.803 246.861 147.204 246.419 147.565C245.376 148.447 244.332 149.329 243.248 150.171C243.248 150.131 243.208 150.091 243.208 150.011C243.168 149.81 243.128 149.57 243.048 149.369C242.486 147.044 241.603 144.237 239.596 143.155C239.074 142.874 238.312 142.674 237.75 142.633C237.228 142.593 236.746 142.593 236.225 142.633C235.783 142.674 235.342 142.674 234.9 142.714C233.856 142.794 233.736 142.674 233.174 143.235C232.612 143.796 232.171 144.718 231.85 145.52C231.569 146.202 231.368 146.963 231.207 147.685C231.207 147.725 231.167 147.765 231.167 147.805C231.087 148.527 230.967 149.289 230.766 150.051C229.923 152.937 225.267 152.737 224.866 150.051C224.826 149.81 224.826 149.529 224.866 149.249C224.906 148.968 224.946 148.728 224.986 148.447C225.026 148.126 225.107 147.805 225.147 147.445C225.147 147.445 225.147 147.405 225.147 147.364C225.147 146.883 225.187 146.402 225.147 145.921C225.147 145.801 225.147 145.64 225.107 145.52C225.107 145.52 225.107 145.52 225.107 145.48C225.067 145.159 224.986 144.879 224.906 144.558C224.866 144.357 224.786 144.157 224.705 143.957C224.424 143.155 224.063 142.473 223.461 141.791C223.381 141.711 223.301 141.631 223.22 141.551C222.378 140.669 221.374 140.027 220.331 139.506C219.809 139.266 219.287 139.065 218.725 138.865C216.959 138.263 215.073 137.862 213.226 137.862C211.661 137.862 210.136 138.183 208.771 138.945C208.651 139.025 208.53 139.105 208.41 139.145C208.25 139.266 208.089 139.346 207.928 139.466C207.086 140.108 206.363 140.95 205.721 141.952C205.641 142.072 205.56 142.192 205.52 142.313C204.718 143.676 204.517 144.197 204.075 145.56C204.035 145.681 203.995 145.841 203.955 145.961C203.714 146.803 203.513 147.645 203.353 148.527C203.313 148.688 203.313 148.808 203.273 148.968C203.273 149.008 203.273 149.088 203.273 149.129C203.152 150.732 201.988 151.654 200.744 151.935C199.018 152.296 197.565 151.374 197.766 149.129C198.016 146.329 198.175 143.916 199.219 141.471C199.46 140.869 199.741 140.308 200.062 139.747C200.945 138.143 202.028 136.7 203.353 135.497C204.236 134.695 205.199 133.973 206.283 133.412C206.484 133.332 206.684 133.212 206.885 133.131C207.848 132.69 208.892 132.37 209.935 132.129C210.377 132.049 210.818 131.969 211.26 131.929C214.631 131.528 218.163 132.169 221.374 133.412C221.976 133.653 222.578 133.893 223.18 134.174C225.508 135.296 227.475 137.02 228.88 139.105C229.361 138.664 229.843 138.263 230.405 137.943C231.448 137.341 232.693 136.94 234.097 136.74C234.258 136.7 234.459 136.7 234.619 136.66C236.706 136.459 238.874 136.459 240.84 137.101C241.523 137.301 242.165 137.582 242.807 137.983C245.255 139.426 246.821 141.791 247.864 144.398C247.984 144.919 248.145 145.4 248.306 145.881Z" fill="#8AA6B2"/>
<path d="M152.822 94.9226L135.283 101.378C134.239 101.738 133.115 101.217 132.754 100.215C132.393 99.1725 132.915 98.0499 133.918 97.689L151.458 91.234C152.501 90.8732 153.625 91.3944 153.986 92.3967C154.388 93.3991 153.866 94.5618 152.822 94.9226Z" fill="#E2A552"/>
<path d="M256.099 40.834H235.038L235.509 30.947C235.509 30.947 235.634 26.5527 239.432 26.5527H250.198C250.355 26.5527 250.418 26.5527 250.418 26.5527H255.503L256.099 40.834Z" fill="#786E7A"/>
<path d="M266.115 52.9495H256.636L256.103 40.834H265.55L266.115 52.9495Z" fill="#F3F1EB"/>
<path d="M265.551 40.834H256.103L255.476 26.5527H261.157C264.955 26.5527 265.08 30.947 265.08 30.947L265.551 40.834Z" fill="#6A6069"/>
</svg>
