<svg width="326" height="30" viewBox="0 0 326 30" fill="none" xmlns="http://www.w3.org/2000/svg">
<rect width="30" height="30" fill="white"/>
<path d="M92.704 16.118C92.704 18.582 92.022 20.5987 90.658 22.168C89.294 23.7227 87.49 24.5 85.246 24.5H79.856V7.714H85.004C87.3506 7.714 89.2206 8.49133 90.614 10.046C92.0073 11.6007 92.704 13.6247 92.704 16.118ZM85.004 10.112H82.518V22.102H85.246C86.698 22.102 87.864 21.5447 88.744 20.43C89.624 19.3153 90.064 17.8707 90.064 16.096C90.064 14.292 89.6093 12.8473 88.7 11.762C87.7906 10.662 86.5586 10.112 85.004 10.112ZM104.29 6.416L99.8239 10.288L98.5479 8.968L102.156 4.634L104.29 6.416ZM104.488 24.06C103.872 24.2947 103.271 24.4633 102.684 24.566C102.097 24.6833 101.511 24.742 100.924 24.742C99.0319 24.742 97.5506 24.2067 96.4799 23.136C95.4239 22.0507 94.8959 20.5327 94.8959 18.582C94.8959 16.6607 95.3946 15.128 96.3919 13.984C97.3892 12.84 98.7386 12.268 100.44 12.268C101.892 12.268 103.014 12.708 103.806 13.588C104.598 14.4533 104.994 15.6633 104.994 17.218C104.994 17.57 104.972 17.9367 104.928 18.318C104.884 18.6993 104.818 19.0807 104.73 19.462H97.2939C97.4406 20.5033 97.8146 21.2807 98.4159 21.794C99.0172 22.3073 99.8606 22.564 100.946 22.564C101.489 22.564 102.053 22.5053 102.64 22.388C103.241 22.256 103.857 22.0653 104.488 21.816V24.06ZM102.75 16.756C102.765 15.9933 102.545 15.3847 102.09 14.93C101.65 14.4607 101.034 14.226 100.242 14.226C99.3766 14.226 98.6872 14.512 98.1739 15.084C97.6606 15.656 97.3672 16.47 97.2939 17.526H102.684C102.699 17.4087 102.713 17.284 102.728 17.152C102.743 17.0053 102.75 16.8733 102.75 16.756ZM115.853 23.928C115.472 24.1773 114.98 24.3753 114.379 24.522C113.792 24.6687 113.198 24.742 112.597 24.742C110.925 24.742 109.605 24.1773 108.637 23.048C107.669 21.9187 107.185 20.408 107.185 18.516C107.185 16.624 107.669 15.1133 108.637 13.984C109.62 12.84 110.947 12.268 112.619 12.268C113.22 12.268 113.814 12.3413 114.401 12.488C114.988 12.62 115.45 12.796 115.787 13.016V15.392C115.523 15.128 115.105 14.9153 114.533 14.754C113.976 14.578 113.404 14.49 112.817 14.49C111.746 14.49 110.954 14.8127 110.441 15.458C109.928 16.1033 109.671 17.086 109.671 18.406C109.671 19.7847 109.928 20.8187 110.441 21.508C110.954 22.1827 111.732 22.52 112.773 22.52C113.316 22.52 113.88 22.432 114.467 22.256C115.068 22.08 115.53 21.8673 115.853 21.618V23.928ZM121.4 15.656V24.5H118.936V7.098H121.4V13.39L121.466 13.456C122.038 13.0453 122.617 12.7447 123.204 12.554C123.805 12.3633 124.421 12.268 125.052 12.268C126.225 12.268 127.113 12.5907 127.714 13.236C128.315 13.8813 128.616 14.8347 128.616 16.096V24.5H126.152V16.91C126.152 16.03 126.013 15.4067 125.734 15.04C125.47 14.6587 125.023 14.468 124.392 14.468C123.835 14.468 123.255 14.5853 122.654 14.82C122.053 15.0547 121.635 15.3333 121.4 15.656ZM141.291 24.06C140.675 24.2947 140.073 24.4633 139.487 24.566C138.9 24.6833 138.313 24.742 137.727 24.742C135.835 24.742 134.353 24.2067 133.283 23.136C132.227 22.0507 131.699 20.5327 131.699 18.582C131.699 16.6607 132.197 15.128 133.195 13.984C134.192 12.84 135.541 12.268 137.243 12.268C138.695 12.268 139.817 12.708 140.609 13.588C141.401 14.4533 141.797 15.6633 141.797 17.218C141.797 17.57 141.775 17.9367 141.731 18.318C141.687 18.6993 141.621 19.0807 141.533 19.462H134.097C134.243 20.5033 134.617 21.2807 135.219 21.794C135.82 22.3073 136.663 22.564 137.749 22.564C138.291 22.564 138.856 22.5053 139.443 22.388C140.044 22.256 140.66 22.0653 141.291 21.816V24.06ZM139.553 16.756C139.567 15.9933 139.347 15.3847 138.893 14.93C138.453 14.4607 137.837 14.226 137.045 14.226C136.179 14.226 135.49 14.512 134.977 15.084C134.463 15.656 134.17 16.47 134.097 17.526H139.487C139.501 17.4087 139.516 17.284 139.531 17.152C139.545 17.0053 139.553 16.8733 139.553 16.756ZM151.534 24.324C151.211 24.456 150.852 24.5587 150.456 24.632C150.06 24.7053 149.656 24.742 149.246 24.742C147.984 24.742 147.038 24.39 146.408 23.686C145.792 22.982 145.484 21.926 145.484 20.518V14.622H143.548V12.51H145.484V9.342H147.948V12.51H151.292V14.622H147.948V19.154C147.948 20.4593 148.072 21.3467 148.322 21.816C148.586 22.2853 149.07 22.52 149.774 22.52C150.052 22.52 150.346 22.4907 150.654 22.432C150.976 22.3733 151.27 22.3 151.534 22.212V24.324ZM162.041 21.178C162.041 22.2487 161.637 23.114 160.831 23.774C160.024 24.4193 158.946 24.742 157.597 24.742C156.922 24.742 156.247 24.6613 155.573 24.5C154.913 24.3387 154.377 24.126 153.967 23.862V21.508C154.157 21.684 154.385 21.8453 154.649 21.992C154.927 22.124 155.243 22.2487 155.595 22.366C155.888 22.454 156.189 22.5273 156.497 22.586C156.805 22.63 157.12 22.652 157.443 22.652C158.132 22.652 158.667 22.5493 159.049 22.344C159.43 22.124 159.621 21.816 159.621 21.42C159.621 21.0973 159.481 20.804 159.203 20.54C158.924 20.276 158.315 19.946 157.377 19.55C156.673 19.242 156.152 18.9927 155.815 18.802C155.492 18.6113 155.213 18.4133 154.979 18.208C154.597 17.8853 154.311 17.526 154.121 17.13C153.945 16.7193 153.857 16.2647 153.857 15.766C153.857 14.6953 154.245 13.8447 155.023 13.214C155.815 12.5833 156.893 12.268 158.257 12.268C158.902 12.268 159.525 12.3487 160.127 12.51C160.728 12.6567 161.219 12.8473 161.601 13.082V15.282C161.073 14.9887 160.508 14.7613 159.907 14.6C159.32 14.4387 158.748 14.358 158.191 14.358C157.575 14.358 157.098 14.468 156.761 14.688C156.438 14.908 156.277 15.2087 156.277 15.59C156.277 15.9127 156.416 16.206 156.695 16.47C156.973 16.7193 157.582 17.042 158.521 17.438C159.225 17.7313 159.738 17.9733 160.061 18.164C160.398 18.3547 160.684 18.5527 160.919 18.758C161.3 19.0807 161.579 19.44 161.755 19.836C161.945 20.232 162.041 20.6793 162.041 21.178ZM175.67 15.656V24.5H173.206V12.51H175.67V13.39L175.736 13.456C176.293 13.06 176.872 12.7667 177.474 12.576C178.075 12.3707 178.698 12.268 179.344 12.268C180.502 12.268 181.382 12.5907 181.984 13.236C182.585 13.8813 182.886 14.8347 182.886 16.096V24.5H180.422V16.91C180.422 16.0153 180.29 15.3847 180.026 15.018C179.762 14.6513 179.314 14.468 178.684 14.468C178.112 14.468 177.525 14.5853 176.924 14.82C176.337 15.0547 175.919 15.3333 175.67 15.656ZM193.998 23.554C193.441 23.95 192.861 24.2507 192.26 24.456C191.659 24.6467 191.035 24.742 190.39 24.742C189.231 24.742 188.351 24.4193 187.75 23.774C187.149 23.1287 186.848 22.1753 186.848 20.914V12.51H189.312V20.1C189.312 20.9947 189.444 21.6253 189.708 21.992C189.972 22.3587 190.419 22.542 191.05 22.542C191.607 22.542 192.187 22.4247 192.788 22.19C193.404 21.9553 193.829 21.6767 194.064 21.354V12.51H196.528V24.5H194.064V23.62L193.998 23.554ZM202.955 15.634V24.5H200.491V12.51H202.955V13.39L203.021 13.456C203.578 13.0453 204.143 12.7447 204.715 12.554C205.301 12.3633 205.91 12.268 206.541 12.268C207.245 12.268 207.839 12.3853 208.323 12.62C208.821 12.8547 209.188 13.1993 209.423 13.654C210.009 13.1993 210.647 12.8547 211.337 12.62C212.026 12.3853 212.737 12.268 213.471 12.268C214.659 12.268 215.539 12.5833 216.111 13.214C216.697 13.8447 216.991 14.8053 216.991 16.096V24.5H214.527V16.91C214.527 16.0447 214.387 15.4213 214.109 15.04C213.845 14.6587 213.397 14.468 212.767 14.468C212.224 14.468 211.681 14.5853 211.139 14.82C210.596 15.0547 210.207 15.3333 209.973 15.656V24.5H207.509V17.042C207.509 16.0887 207.377 15.4213 207.113 15.04C206.863 14.6587 206.416 14.468 205.771 14.468C205.213 14.468 204.663 14.578 204.121 14.798C203.578 15.018 203.189 15.2967 202.955 15.634ZM229.458 6.416L224.992 10.288L223.716 8.968L227.324 4.634L229.458 6.416ZM229.656 24.06C229.04 24.2947 228.439 24.4633 227.852 24.566C227.265 24.6833 226.679 24.742 226.092 24.742C224.2 24.742 222.719 24.2067 221.648 23.136C220.592 22.0507 220.064 20.5327 220.064 18.582C220.064 16.6607 220.563 15.128 221.56 13.984C222.557 12.84 223.907 12.268 225.608 12.268C227.06 12.268 228.182 12.708 228.974 13.588C229.766 14.4533 230.162 15.6633 230.162 17.218C230.162 17.57 230.14 17.9367 230.096 18.318C230.052 18.6993 229.986 19.0807 229.898 19.462H222.462C222.609 20.5033 222.983 21.2807 223.584 21.794C224.185 22.3073 225.029 22.564 226.114 22.564C226.657 22.564 227.221 22.5053 227.808 22.388C228.409 22.256 229.025 22.0653 229.656 21.816V24.06ZM227.918 16.756C227.933 15.9933 227.713 15.3847 227.258 14.93C226.818 14.4607 226.202 14.226 225.41 14.226C224.545 14.226 223.855 14.512 223.342 15.084C222.829 15.656 222.535 16.47 222.462 17.526H227.852C227.867 17.4087 227.881 17.284 227.896 17.152C227.911 17.0053 227.918 16.8733 227.918 16.756ZM235.697 16.58V24.5H233.233V12.51H235.697V13.94L235.785 14.006C236.196 13.4487 236.687 13.0233 237.259 12.73C237.846 12.422 238.491 12.268 239.195 12.268C239.327 12.268 239.452 12.2753 239.569 12.29C239.701 12.29 239.826 12.2973 239.943 12.312V14.996C239.87 14.9813 239.796 14.974 239.723 14.974C239.65 14.974 239.562 14.974 239.459 14.974C238.55 14.974 237.765 15.1207 237.105 15.414C236.46 15.6927 235.99 16.0813 235.697 16.58ZM245.527 7.978C245.527 8.462 245.358 8.87267 245.021 9.21C244.698 9.53267 244.295 9.694 243.811 9.694C243.327 9.694 242.916 9.53267 242.579 9.21C242.256 8.87267 242.095 8.462 242.095 7.978C242.095 7.494 242.256 7.09067 242.579 6.768C242.916 6.43067 243.327 6.262 243.811 6.262C244.295 6.262 244.698 6.43067 245.021 6.768C245.358 7.09067 245.527 7.494 245.527 7.978ZM245.043 12.51V24.5H242.579V12.51H245.043ZM255.734 23.576C255.353 23.9573 254.913 24.2507 254.414 24.456C253.93 24.6467 253.402 24.742 252.83 24.742C251.422 24.742 250.286 24.1773 249.42 23.048C248.555 21.904 248.122 20.4373 248.122 18.648C248.122 16.756 248.614 15.2233 249.596 14.05C250.594 12.862 251.914 12.268 253.556 12.268C253.996 12.268 254.407 12.3193 254.788 12.422C255.184 12.51 255.573 12.6567 255.954 12.862L258.286 12.334V29.428H255.8V23.642L255.734 23.576ZM255.8 15.084C255.551 14.908 255.236 14.7687 254.854 14.666C254.488 14.5487 254.114 14.49 253.732 14.49C252.764 14.49 252.002 14.8567 251.444 15.59C250.887 16.3233 250.608 17.3207 250.608 18.582C250.608 19.7993 250.872 20.7673 251.4 21.486C251.928 22.2047 252.647 22.564 253.556 22.564C254.07 22.564 254.524 22.4467 254.92 22.212C255.316 21.9773 255.61 21.662 255.8 21.266V15.084ZM269.387 23.554C268.83 23.95 268.25 24.2507 267.649 24.456C267.048 24.6467 266.424 24.742 265.779 24.742C264.62 24.742 263.74 24.4193 263.139 23.774C262.538 23.1287 262.237 22.1753 262.237 20.914V12.51H264.701V20.1C264.701 20.9947 264.833 21.6253 265.097 21.992C265.361 22.3587 265.808 22.542 266.439 22.542C266.996 22.542 267.576 22.4247 268.177 22.19C268.793 21.9553 269.218 21.6767 269.453 21.354V12.51H271.917V24.5H269.453V23.62L269.387 23.554ZM284.591 24.06C283.975 24.2947 283.374 24.4633 282.787 24.566C282.201 24.6833 281.614 24.742 281.027 24.742C279.135 24.742 277.654 24.2067 276.583 23.136C275.527 22.0507 274.999 20.5327 274.999 18.582C274.999 16.6607 275.498 15.128 276.495 13.984C277.493 12.84 278.842 12.268 280.543 12.268C281.995 12.268 283.117 12.708 283.909 13.588C284.701 14.4533 285.097 15.6633 285.097 17.218C285.097 17.57 285.075 17.9367 285.031 18.318C284.987 18.6993 284.921 19.0807 284.833 19.462H277.397C277.544 20.5033 277.918 21.2807 278.519 21.794C279.121 22.3073 279.964 22.564 281.049 22.564C281.592 22.564 282.157 22.5053 282.743 22.388C283.345 22.256 283.961 22.0653 284.591 21.816V24.06ZM282.853 16.756C282.868 15.9933 282.648 15.3847 282.193 14.93C281.753 14.4607 281.137 14.226 280.345 14.226C279.48 14.226 278.791 14.512 278.277 15.084C277.764 15.656 277.471 16.47 277.397 17.526H282.787C282.802 17.4087 282.817 17.284 282.831 17.152C282.846 17.0053 282.853 16.8733 282.853 16.756ZM295.802 21.178C295.802 22.2487 295.399 23.114 294.592 23.774C293.786 24.4193 292.708 24.742 291.358 24.742C290.684 24.742 290.009 24.6613 289.334 24.5C288.674 24.3387 288.139 24.126 287.728 23.862V21.508C287.919 21.684 288.146 21.8453 288.41 21.992C288.689 22.124 289.004 22.2487 289.356 22.366C289.65 22.454 289.95 22.5273 290.258 22.586C290.566 22.63 290.882 22.652 291.204 22.652C291.894 22.652 292.429 22.5493 292.81 22.344C293.192 22.124 293.382 21.816 293.382 21.42C293.382 21.0973 293.243 20.804 292.964 20.54C292.686 20.276 292.077 19.946 291.138 19.55C290.434 19.242 289.914 18.9927 289.576 18.802C289.254 18.6113 288.975 18.4133 288.74 18.208C288.359 17.8853 288.073 17.526 287.882 17.13C287.706 16.7193 287.618 16.2647 287.618 15.766C287.618 14.6953 288.007 13.8447 288.784 13.214C289.576 12.5833 290.654 12.268 292.018 12.268C292.664 12.268 293.287 12.3487 293.888 12.51C294.49 12.6567 294.981 12.8473 295.362 13.082V15.282C294.834 14.9887 294.27 14.7613 293.668 14.6C293.082 14.4387 292.51 14.358 291.952 14.358C291.336 14.358 290.86 14.468 290.522 14.688C290.2 14.908 290.038 15.2087 290.038 15.59C290.038 15.9127 290.178 16.206 290.456 16.47C290.735 16.7193 291.344 17.042 292.282 17.438C292.986 17.7313 293.5 17.9733 293.822 18.164C294.16 18.3547 294.446 18.5527 294.68 18.758C295.062 19.0807 295.34 19.44 295.516 19.836C295.707 20.232 295.802 20.6793 295.802 21.178Z" fill="#212121"/>
</svg>
