<svg width="547" height="242" viewBox="0 0 547 242" fill="none" xmlns="http://www.w3.org/2000/svg">
<rect x="1.5" y="1.5" width="544" height="238.686" rx="30.5" fill="white"/>
<rect x="1.5" y="1.5" width="544" height="238.686" rx="30.5" stroke="#212121" stroke-width="3"/>
<path d="M170.872 120.843C170.872 127.967 169.613 134.815 167.31 141.171C162.489 154.436 153.062 165.46 140.963 172.4C136.142 175.163 130.861 177.282 125.303 178.603C123.553 179.032 121.741 179.37 119.929 179.616C117.903 179.892 115.845 180.076 113.757 180.169C113.02 180.199 112.253 180.199 111.485 180.199C100.369 180.199 89.9595 177.129 81.0546 171.816C77.3391 169.605 73.8999 166.965 70.7679 164.017C59.3143 153.208 52.1289 137.855 52.1289 120.843C52.1289 120.137 52.1289 119.462 52.1596 118.755C53.2651 86.9431 79.3964 61.4873 111.454 61.4873C144.31 61.518 170.872 88.0793 170.872 120.843Z" fill="#C7C7C7"/>
<path fill-rule="evenodd" clip-rule="evenodd" d="M173.071 143.259L173.069 143.264C167.744 157.917 157.342 170.07 144.012 177.716L144.011 177.717C138.696 180.763 132.874 183.101 126.741 184.56C124.773 185.042 122.755 185.417 120.752 185.689C118.538 185.991 116.296 186.191 114.027 186.291L114.02 186.291L114.012 186.292C113.146 186.328 112.27 186.328 111.538 186.328H111.485C99.2256 186.328 87.7359 182.938 77.9145 177.079C73.7876 174.623 69.9964 171.707 66.5672 168.48L66.5613 168.474C53.9354 156.559 46 139.615 46 120.843L46 120.795C46 120.126 46 119.347 46.0353 118.516C47.2682 83.4311 76.0882 55.3584 111.454 55.3584H111.46C147.689 55.3923 177 84.687 177 120.843C177 128.694 175.612 136.247 173.071 143.259ZM52.1594 118.755C52.1287 119.461 52.1287 120.137 52.1287 120.843C52.1287 137.855 59.314 153.208 70.7676 164.017C73.8997 166.964 77.3388 169.605 81.0543 171.816C89.9593 177.128 100.369 180.199 111.485 180.199C112.252 180.199 113.02 180.199 113.757 180.168C115.845 180.076 117.902 179.892 119.929 179.616C121.741 179.37 123.552 179.032 125.303 178.602C130.861 177.282 136.142 175.163 140.963 172.4C153.061 165.46 162.488 154.436 167.309 141.171C169.612 134.815 170.871 127.967 170.871 120.843C170.871 88.079 144.31 61.5178 111.454 61.4871C79.3962 61.4871 53.2648 86.9429 52.1594 118.755Z" fill="#212121"/>
<mask id="mask0_275_12555" style="mask-type:alpha" maskUnits="userSpaceOnUse" x="52" y="61" width="119" height="120">
<path d="M170.872 120.842C170.872 127.966 169.613 134.814 167.31 141.17C162.489 154.435 153.062 165.459 140.963 172.399C136.142 175.162 130.861 177.281 125.303 178.602C123.553 179.031 121.741 179.369 119.929 179.615C117.903 179.891 115.845 180.075 113.757 180.168C113.02 180.198 112.253 180.198 111.485 180.198C100.369 180.198 89.9595 177.128 81.0546 171.815C77.3391 169.605 73.8999 166.964 70.7679 164.016C59.3143 153.207 52.1289 137.854 52.1289 120.842C52.1289 120.136 52.1289 119.461 52.1596 118.754C53.2651 86.9422 79.3964 61.4863 111.454 61.4863C144.31 61.517 170.872 88.0783 170.872 120.842Z" fill="#C7C7C7"/>
</mask>
<g mask="url(#mask0_275_12555)">
<path d="M106.114 137.676H59.9859C58.6153 137.676 57.4902 136.55 57.4902 135.179V75.4738C57.4902 74.1029 58.6153 72.9775 59.9859 72.9775H106.114C107.485 72.9775 108.61 74.1029 108.61 75.4738V135.2C108.61 136.571 107.485 137.676 106.114 137.676Z" fill="#CE7E48"/>
<path d="M103.668 134.48H62.4122C61.4574 134.48 60.6855 133.708 60.6855 132.754V78.6968C60.6855 77.7424 61.4574 76.9707 62.4122 76.9707H103.688C104.643 76.9707 105.415 77.7424 105.415 78.6968V132.754C105.395 133.708 104.623 134.48 103.668 134.48Z" fill="#B27247"/>
<path d="M103.489 78.7656H84.3828V104.47H103.489V78.7656Z" fill="#EAF7FF"/>
<path d="M96.7194 82.3943L88.9666 90.0995C88.578 90.4868 87.9643 90.4868 87.5756 90.0995L87.5552 90.0791C87.1665 89.6918 87.1665 89.0803 87.5552 88.693L95.308 80.9877C95.6966 80.6004 96.3103 80.6004 96.699 80.9877L96.7194 81.0081C97.1081 81.3954 97.1081 82.007 96.7194 82.3943Z" fill="white"/>
<path d="M90.4766 82.1097L87.6946 84.8819C87.4082 85.1673 86.9173 85.1673 86.6309 84.8819L86.2831 84.5354C85.9968 84.25 85.9968 83.7608 86.2831 83.4754L89.0856 80.6828C89.372 80.3974 89.8629 80.3974 90.1493 80.6828L90.4971 81.0293C90.7835 81.3351 90.7835 81.8039 90.4766 82.1097Z" fill="white"/>
<path d="M103.489 106.345H84.3828V132.049H103.489V106.345Z" fill="#EAF7FF"/>
<path d="M96.7194 109.973L88.9666 117.679C88.578 118.066 87.9643 118.066 87.5756 117.679L87.5552 117.658C87.1665 117.271 87.1665 116.659 87.5552 116.272L95.308 108.567C95.6966 108.18 96.3103 108.18 96.699 108.567L96.7194 108.587C97.1081 108.975 97.1081 109.586 96.7194 109.973Z" fill="white"/>
<path d="M90.4766 109.689L87.6946 112.461C87.4082 112.746 86.9173 112.746 86.6309 112.461L86.2831 112.115C85.9968 111.829 85.9968 111.34 86.2831 111.055L89.0856 108.262C89.372 107.977 89.8629 107.977 90.1493 108.262L90.4971 108.608C90.7835 108.914 90.7835 109.383 90.4766 109.689Z" fill="white"/>
<path d="M82.0375 106.345H62.9316V132.049H82.0375V106.345Z" fill="#EAF7FF"/>
<path d="M75.2683 109.973L67.5155 117.679C67.1268 118.066 66.5131 118.066 66.1245 117.679L66.104 117.658C65.7153 117.271 65.7153 116.659 66.104 116.272L73.8568 108.567C74.2455 108.18 74.8591 108.18 75.2478 108.567L75.2683 108.587C75.6569 108.975 75.6569 109.586 75.2683 109.973Z" fill="white"/>
<path d="M69.0254 109.689L66.2434 112.461C65.9571 112.746 65.4661 112.746 65.1797 112.461L64.832 112.115C64.5456 111.829 64.5456 111.34 64.832 111.055L67.6344 108.262C67.9208 107.977 68.4118 107.977 68.6981 108.262L69.0459 108.608C69.3323 108.914 69.3323 109.383 69.0254 109.689Z" fill="white"/>
<path d="M82.0375 78.7656H62.9316V104.47H82.0375V78.7656Z" fill="#EAF7FF"/>
<path d="M75.2683 82.3943L67.5155 90.0995C67.1268 90.4868 66.5131 90.4868 66.1245 90.0995L66.104 90.0791C65.7153 89.6918 65.7153 89.0803 66.104 88.693L73.8568 80.9877C74.2455 80.6004 74.8591 80.6004 75.2478 80.9877L75.2683 81.0081C75.6569 81.3954 75.6569 82.007 75.2683 82.3943Z" fill="white"/>
<path d="M69.0254 82.1097L66.2434 84.8819C65.9571 85.1673 65.4661 85.1673 65.1797 84.8819L64.832 84.5354C64.5456 84.25 64.5456 83.7608 64.832 83.4754L67.6344 80.6828C67.9208 80.3974 68.4118 80.3974 68.6981 80.6828L69.0459 81.0293C69.3323 81.3351 69.3323 81.8039 69.0254 82.1097Z" fill="white"/>
<path d="M101.159 73.7432H60.5566V177.93H101.159V73.7432Z" fill="#4B5A59"/>
<path d="M106.37 146.554H55.7495C54.1808 146.554 52.8945 145.284 52.8945 143.699V134.821C52.8945 133.252 54.1808 131.966 55.7495 131.966H106.37C107.955 131.966 109.225 133.252 109.225 134.821V143.699C109.241 145.284 107.955 146.554 106.37 146.554Z" fill="#617983"/>
<path d="M60.2046 141.126C61.2356 141.126 62.0713 140.29 62.0713 139.259C62.0713 138.228 61.2356 137.393 60.2046 137.393C59.1736 137.393 58.3379 138.228 58.3379 139.259C58.3379 140.29 59.1736 141.126 60.2046 141.126Z" fill="#E96B73"/>
<path d="M66.6831 141.126C67.7141 141.126 68.5498 140.29 68.5498 139.259C68.5498 138.228 67.7141 137.393 66.6831 137.393C65.6522 137.393 64.8164 138.228 64.8164 139.259C64.8164 140.29 65.6522 141.126 66.6831 141.126Z" fill="#FAC04F"/>
<path d="M73.146 141.126C74.177 141.126 75.0127 140.29 75.0127 139.259C75.0127 138.228 74.177 137.393 73.146 137.393C72.1151 137.393 71.2793 138.228 71.2793 139.259C71.2793 140.29 72.1151 141.126 73.146 141.126Z" fill="#A8EB6C"/>
<path d="M101.727 140.169H85.4602C85.021 140.169 84.6602 139.809 84.6602 139.369V139.134C84.6602 138.695 85.021 138.334 85.4602 138.334H101.727C102.166 138.334 102.527 138.695 102.527 139.134V139.369C102.512 139.824 102.166 140.169 101.727 140.169Z" fill="#4B5A59"/>
<path d="M106.37 125.87H55.7495C54.1808 125.87 52.8945 124.599 52.8945 123.015V114.136C52.8945 112.568 54.1808 111.281 55.7495 111.281H106.37C107.955 111.281 109.225 112.568 109.225 114.136V123.015C109.241 124.599 107.955 125.87 106.37 125.87Z" fill="#617983"/>
<path d="M60.2046 120.442C61.2356 120.442 62.0713 119.607 62.0713 118.576C62.0713 117.545 61.2356 116.709 60.2046 116.709C59.1736 116.709 58.3379 117.545 58.3379 118.576C58.3379 119.607 59.1736 120.442 60.2046 120.442Z" fill="#E96B73"/>
<path d="M66.6831 120.442C67.7141 120.442 68.5498 119.607 68.5498 118.576C68.5498 117.545 67.7141 116.709 66.6831 116.709C65.6522 116.709 64.8164 117.545 64.8164 118.576C64.8164 119.607 65.6522 120.442 66.6831 120.442Z" fill="#FAC04F"/>
<path d="M73.146 120.442C74.177 120.442 75.0127 119.607 75.0127 118.576C75.0127 117.545 74.177 116.709 73.146 116.709C72.1151 116.709 71.2793 117.545 71.2793 118.576C71.2793 119.607 72.1151 120.442 73.146 120.442Z" fill="#A8EB6C"/>
<path d="M101.727 119.486H85.4602C85.021 119.486 84.6602 119.125 84.6602 118.686V118.45C84.6602 118.011 85.021 117.65 85.4602 117.65H101.727C102.166 117.65 102.527 118.011 102.527 118.45V118.686C102.512 119.141 102.166 119.486 101.727 119.486Z" fill="#4B5A59"/>
<path d="M106.37 105.185H55.7495C54.1808 105.185 52.8945 103.915 52.8945 102.33V93.4516C52.8945 91.883 54.1808 90.5967 55.7495 90.5967H106.37C107.955 90.5967 109.225 91.883 109.225 93.4516V102.33C109.241 103.915 107.955 105.185 106.37 105.185Z" fill="#617983"/>
<path d="M60.2046 99.7578C61.2356 99.7578 62.0713 98.9221 62.0713 97.8911C62.0713 96.8602 61.2356 96.0244 60.2046 96.0244C59.1736 96.0244 58.3379 96.8602 58.3379 97.8911C58.3379 98.9221 59.1736 99.7578 60.2046 99.7578Z" fill="#E96B73"/>
<path d="M66.6831 99.7578C67.7141 99.7578 68.5498 98.9221 68.5498 97.8911C68.5498 96.8602 67.7141 96.0244 66.6831 96.0244C65.6522 96.0244 64.8164 96.8602 64.8164 97.8911C64.8164 98.9221 65.6522 99.7578 66.6831 99.7578Z" fill="#FAC04F"/>
<path d="M73.146 99.7578C74.177 99.7578 75.0127 98.9221 75.0127 97.8911C75.0127 96.8602 74.177 96.0244 73.146 96.0244C72.1151 96.0244 71.2793 96.8602 71.2793 97.8911C71.2793 98.9221 72.1151 99.7578 73.146 99.7578Z" fill="#A8EB6C"/>
<path d="M101.727 98.8012H85.4602C85.021 98.8012 84.6602 98.4404 84.6602 98.0011V97.7658C84.6602 97.3266 85.021 96.9658 85.4602 96.9658H101.727C102.166 96.9658 102.527 97.3266 102.527 97.7658V98.0011C102.512 98.4561 102.166 98.8012 101.727 98.8012Z" fill="#4B5A59"/>
<path d="M106.37 84.5017H55.7495C54.1808 84.5017 52.8945 83.231 52.8945 81.6467V72.7681C52.8945 71.1994 54.1808 69.9131 55.7495 69.9131H106.37C107.955 69.9131 109.225 71.1994 109.225 72.7681V81.6467C109.241 83.231 107.955 84.5017 106.37 84.5017Z" fill="#617983"/>
<path d="M60.2046 79.0742C61.2356 79.0742 62.0713 78.2385 62.0713 77.2075C62.0713 76.1766 61.2356 75.3408 60.2046 75.3408C59.1736 75.3408 58.3379 76.1766 58.3379 77.2075C58.3379 78.2385 59.1736 79.0742 60.2046 79.0742Z" fill="#E96B73"/>
<path d="M66.6831 79.0742C67.7141 79.0742 68.5498 78.2385 68.5498 77.2075C68.5498 76.1766 67.7141 75.3408 66.6831 75.3408C65.6522 75.3408 64.8164 76.1766 64.8164 77.2075C64.8164 78.2385 65.6522 79.0742 66.6831 79.0742Z" fill="#FAC04F"/>
<path d="M73.146 79.0742C74.177 79.0742 75.0127 78.2385 75.0127 77.2075C75.0127 76.1766 74.177 75.3408 73.146 75.3408C72.1151 75.3408 71.2793 76.1766 71.2793 77.2075C71.2793 78.2385 72.1151 79.0742 73.146 79.0742Z" fill="#A8EB6C"/>
<path d="M101.727 78.1176H85.4602C85.021 78.1176 84.6602 77.7568 84.6602 77.3175V77.0822C84.6602 76.643 85.021 76.2822 85.4602 76.2822H101.727C102.166 76.2822 102.527 76.643 102.527 77.0822V77.3175C102.512 77.7725 102.166 78.1176 101.727 78.1176Z" fill="#4B5A59"/>
<path d="M106.37 167.239H55.7495C54.1808 167.239 52.8945 165.968 52.8945 164.384V155.505C52.8945 153.921 54.1808 152.65 55.7495 152.65H106.37C107.955 152.65 109.225 153.937 109.225 155.505V164.384C109.241 165.968 107.955 167.239 106.37 167.239Z" fill="#617983"/>
<path d="M60.2046 161.812C61.2356 161.812 62.0713 160.976 62.0713 159.945C62.0713 158.914 61.2356 158.078 60.2046 158.078C59.1736 158.078 58.3379 158.914 58.3379 159.945C58.3379 160.976 59.1736 161.812 60.2046 161.812Z" fill="#E96B73"/>
<path d="M66.6831 161.812C67.7141 161.812 68.5498 160.976 68.5498 159.945C68.5498 158.914 67.7141 158.078 66.6831 158.078C65.6522 158.078 64.8164 158.914 64.8164 159.945C64.8164 160.976 65.6522 161.812 66.6831 161.812Z" fill="#FAC04F"/>
<path d="M73.146 161.812C74.177 161.812 75.0127 160.976 75.0127 159.945C75.0127 158.914 74.177 158.078 73.146 158.078C72.1151 158.078 71.2793 158.914 71.2793 159.945C71.2793 160.976 72.1151 161.812 73.146 161.812Z" fill="#A8EB6C"/>
<path d="M101.727 160.855H85.4602C85.021 160.855 84.6602 160.494 84.6602 160.055V159.82C84.6602 159.38 85.021 159.02 85.4602 159.02H101.727C102.166 159.02 102.527 159.38 102.527 159.82V160.055C102.512 160.51 102.166 160.855 101.727 160.855Z" fill="#4B5A59"/>
<path d="M106.37 187.923H55.7495C54.1808 187.923 52.8945 186.652 52.8945 185.068V176.189C52.8945 174.605 54.1808 173.334 55.7495 173.334H106.37C107.955 173.334 109.225 174.62 109.225 176.189V185.068C109.241 186.652 107.955 187.923 106.37 187.923Z" fill="#617983"/>
<path d="M60.2046 182.495C61.2356 182.495 62.0713 181.659 62.0713 180.628C62.0713 179.597 61.2356 178.762 60.2046 178.762C59.1736 178.762 58.3379 179.597 58.3379 180.628C58.3379 181.659 59.1736 182.495 60.2046 182.495Z" fill="#E96B73"/>
<path d="M66.6831 182.495C67.7141 182.495 68.5498 181.659 68.5498 180.628C68.5498 179.597 67.7141 178.762 66.6831 178.762C65.6522 178.762 64.8164 179.597 64.8164 180.628C64.8164 181.659 65.6522 182.495 66.6831 182.495Z" fill="#FAC04F"/>
<path d="M73.146 182.495C74.177 182.495 75.0127 181.659 75.0127 180.628C75.0127 179.597 74.177 178.762 73.146 178.762C72.1151 178.762 71.2793 179.597 71.2793 180.628C71.2793 181.659 72.1151 182.495 73.146 182.495Z" fill="#A8EB6C"/>
<path d="M101.727 181.538H85.4602C85.021 181.538 84.6602 181.178 84.6602 180.738V180.503C84.6602 180.064 85.021 179.703 85.4602 179.703H101.727C102.166 179.703 102.527 180.064 102.527 180.503V180.738C102.512 181.193 102.166 181.538 101.727 181.538Z" fill="#4B5A59"/>
<path d="M160.911 73.7432H120.309V177.93H160.911V73.7432Z" fill="#4B5A59"/>
<path d="M166.124 146.554H115.503C113.935 146.554 112.648 145.284 112.648 143.699V134.821C112.648 133.252 113.935 131.966 115.503 131.966H166.124C167.709 131.966 168.979 133.252 168.979 134.821V143.699C168.995 145.284 167.709 146.554 166.124 146.554Z" fill="#617983"/>
<path d="M119.96 141.127C120.991 141.127 121.827 140.291 121.827 139.26C121.827 138.229 120.991 137.394 119.96 137.394C118.93 137.394 118.094 138.229 118.094 139.26C118.094 140.291 118.93 141.127 119.96 141.127Z" fill="#E96B73"/>
<path d="M126.441 141.127C127.472 141.127 128.308 140.291 128.308 139.26C128.308 138.229 127.472 137.394 126.441 137.394C125.41 137.394 124.574 138.229 124.574 139.26C124.574 140.291 125.41 141.127 126.441 141.127Z" fill="#FAC04F"/>
<path d="M132.902 141.127C133.933 141.127 134.769 140.291 134.769 139.26C134.769 138.229 133.933 137.394 132.902 137.394C131.871 137.394 131.035 138.229 131.035 139.26C131.035 140.291 131.871 141.127 132.902 141.127Z" fill="#A8EB6C"/>
<path d="M161.481 140.17H145.214C144.775 140.17 144.414 139.81 144.414 139.37V139.135C144.414 138.696 144.775 138.335 145.214 138.335H161.481C161.92 138.335 162.281 138.696 162.281 139.135V139.37C162.265 139.825 161.92 140.17 161.481 140.17Z" fill="#4B5A59"/>
<path d="M166.124 125.871H115.503C113.935 125.871 112.648 124.6 112.648 123.016V114.137C112.648 112.569 113.935 111.282 115.503 111.282H166.124C167.709 111.282 168.979 112.569 168.979 114.137V123.016C168.995 124.6 167.709 125.871 166.124 125.871Z" fill="#617983"/>
<path d="M119.96 120.443C120.991 120.443 121.827 119.608 121.827 118.577C121.827 117.546 120.991 116.71 119.96 116.71C118.93 116.71 118.094 117.546 118.094 118.577C118.094 119.608 118.93 120.443 119.96 120.443Z" fill="#E96B73"/>
<path d="M126.441 120.443C127.472 120.443 128.308 119.608 128.308 118.577C128.308 117.546 127.472 116.71 126.441 116.71C125.41 116.71 124.574 117.546 124.574 118.577C124.574 119.608 125.41 120.443 126.441 120.443Z" fill="#FAC04F"/>
<path d="M132.902 120.443C133.933 120.443 134.769 119.608 134.769 118.577C134.769 117.546 133.933 116.71 132.902 116.71C131.871 116.71 131.035 117.546 131.035 118.577C131.035 119.608 131.871 120.443 132.902 120.443Z" fill="#A8EB6C"/>
<path d="M161.481 119.487H145.214C144.775 119.487 144.414 119.126 144.414 118.687V118.451C144.414 118.012 144.775 117.651 145.214 117.651H161.481C161.92 117.651 162.281 118.012 162.281 118.451V118.687C162.265 119.142 161.92 119.487 161.481 119.487Z" fill="#4B5A59"/>
<path d="M166.124 105.185H115.503C113.935 105.185 112.648 103.915 112.648 102.33V93.4516C112.648 91.883 113.935 90.5967 115.503 90.5967H166.124C167.709 90.5967 168.979 91.883 168.979 93.4516V102.33C168.995 103.915 167.709 105.185 166.124 105.185Z" fill="#617983"/>
<path d="M119.96 99.7578C120.991 99.7578 121.827 98.9221 121.827 97.8911C121.827 96.8602 120.991 96.0244 119.96 96.0244C118.93 96.0244 118.094 96.8602 118.094 97.8911C118.094 98.9221 118.93 99.7578 119.96 99.7578Z" fill="#E96B73"/>
<path d="M126.441 99.7578C127.472 99.7578 128.308 98.9221 128.308 97.8911C128.308 96.8602 127.472 96.0244 126.441 96.0244C125.41 96.0244 124.574 96.8602 124.574 97.8911C124.574 98.9221 125.41 99.7578 126.441 99.7578Z" fill="#FAC04F"/>
<path d="M132.902 99.7578C133.933 99.7578 134.769 98.9221 134.769 97.8911C134.769 96.8602 133.933 96.0244 132.902 96.0244C131.871 96.0244 131.035 96.8602 131.035 97.8911C131.035 98.9221 131.871 99.7578 132.902 99.7578Z" fill="#A8EB6C"/>
<path d="M161.481 98.8012H145.214C144.775 98.8012 144.414 98.4404 144.414 98.0011V97.7658C144.414 97.3266 144.775 96.9658 145.214 96.9658H161.481C161.92 96.9658 162.281 97.3266 162.281 97.7658V98.0011C162.265 98.4561 161.92 98.8012 161.481 98.8012Z" fill="#4B5A59"/>
<path d="M166.128 84.5017H115.507C113.939 84.5017 112.652 83.231 112.652 81.6467V72.7681C112.652 71.1994 113.939 69.9131 115.507 69.9131H166.128C167.712 69.9131 168.983 71.1994 168.983 72.7681V81.6467C168.999 83.231 167.712 84.5017 166.128 84.5017Z" fill="#617983"/>
<path d="M119.964 79.0742C120.995 79.0742 121.831 78.2385 121.831 77.2075C121.831 76.1766 120.995 75.3408 119.964 75.3408C118.933 75.3408 118.098 76.1766 118.098 77.2075C118.098 78.2385 118.933 79.0742 119.964 79.0742Z" fill="#E96B73"/>
<path d="M126.445 79.0742C127.476 79.0742 128.312 78.2385 128.312 77.2075C128.312 76.1766 127.476 75.3408 126.445 75.3408C125.414 75.3408 124.578 76.1766 124.578 77.2075C124.578 78.2385 125.414 79.0742 126.445 79.0742Z" fill="#FAC04F"/>
<path d="M132.906 79.0742C133.937 79.0742 134.772 78.2385 134.772 77.2075C134.772 76.1766 133.937 75.3408 132.906 75.3408C131.875 75.3408 131.039 76.1766 131.039 77.2075C131.039 78.2385 131.875 79.0742 132.906 79.0742Z" fill="#A8EB6C"/>
<path d="M161.485 78.1176H145.218C144.779 78.1176 144.418 77.7568 144.418 77.3175V77.0822C144.418 76.643 144.779 76.2822 145.218 76.2822H161.485C161.924 76.2822 162.285 76.643 162.285 77.0822V77.3175C162.269 77.7725 161.924 78.1176 161.485 78.1176Z" fill="#4B5A59"/>
<path d="M166.124 167.239H115.503C113.935 167.239 112.648 165.968 112.648 164.384V155.505C112.648 153.921 113.935 152.65 115.503 152.65H166.124C167.709 152.65 168.979 153.937 168.979 155.505V164.384C168.995 165.968 167.709 167.239 166.124 167.239Z" fill="#617983"/>
<path d="M119.96 161.812C120.991 161.812 121.827 160.976 121.827 159.945C121.827 158.914 120.991 158.078 119.96 158.078C118.93 158.078 118.094 158.914 118.094 159.945C118.094 160.976 118.93 161.812 119.96 161.812Z" fill="#E96B73"/>
<path d="M126.441 161.812C127.472 161.812 128.308 160.976 128.308 159.945C128.308 158.914 127.472 158.078 126.441 158.078C125.41 158.078 124.574 158.914 124.574 159.945C124.574 160.976 125.41 161.812 126.441 161.812Z" fill="#FAC04F"/>
<path d="M132.902 161.812C133.933 161.812 134.769 160.976 134.769 159.945C134.769 158.914 133.933 158.078 132.902 158.078C131.871 158.078 131.035 158.914 131.035 159.945C131.035 160.976 131.871 161.812 132.902 161.812Z" fill="#A8EB6C"/>
<path d="M161.481 160.855H145.214C144.775 160.855 144.414 160.494 144.414 160.055V159.82C144.414 159.38 144.775 159.02 145.214 159.02H161.481C161.92 159.02 162.281 159.38 162.281 159.82V160.055C162.265 160.51 161.92 160.855 161.481 160.855Z" fill="#4B5A59"/>
<path d="M166.124 187.923H115.503C113.935 187.923 112.648 186.652 112.648 185.068V176.189C112.648 174.605 113.935 173.334 115.503 173.334H166.124C167.709 173.334 168.979 174.62 168.979 176.189V185.068C168.995 186.652 167.709 187.923 166.124 187.923Z" fill="#617983"/>
<path d="M119.96 182.495C120.991 182.495 121.827 181.659 121.827 180.628C121.827 179.597 120.991 178.762 119.96 178.762C118.93 178.762 118.094 179.597 118.094 180.628C118.094 181.659 118.93 182.495 119.96 182.495Z" fill="#E96B73"/>
<path d="M126.441 182.495C127.472 182.495 128.308 181.659 128.308 180.628C128.308 179.597 127.472 178.762 126.441 178.762C125.41 178.762 124.574 179.597 124.574 180.628C124.574 181.659 125.41 182.495 126.441 182.495Z" fill="#FAC04F"/>
<path d="M132.902 182.495C133.933 182.495 134.769 181.659 134.769 180.628C134.769 179.597 133.933 178.762 132.902 178.762C131.871 178.762 131.035 179.597 131.035 180.628C131.035 181.659 131.871 182.495 132.902 182.495Z" fill="#A8EB6C"/>
<path d="M161.481 181.538H145.214C144.775 181.538 144.414 181.178 144.414 180.738V180.503C144.414 180.064 144.775 179.703 145.214 179.703H161.481C161.92 179.703 162.281 180.064 162.281 180.503V180.738C162.265 181.193 161.92 181.538 161.481 181.538Z" fill="#4B5A59"/>
<path d="M68.2051 162.657L76.1789 210.147H84.537L75.7946 161.792L68.2051 162.657Z" fill="#ECBA5A"/>
<path d="M68.8788 162.657L60.905 210.147H52.5469L61.2572 161.792L68.8788 162.657Z" fill="#ECBA5A"/>
<path d="M164.79 161.792H130.141V210.147H164.79V161.792Z" fill="#ECBA5A"/>
<path d="M164.724 166.437H130.074V170.407H141.539L143.716 173.802H151.338L153.291 170.407H164.724V166.437Z" fill="#DEA14E"/>
<path d="M167.094 163.906H54.3715C52.7063 163.906 51.3613 162.561 51.3613 160.896V159.199C51.3613 157.533 52.7063 156.188 54.3715 156.188H167.094C168.759 156.188 170.104 157.533 170.104 159.199V160.896C170.072 162.561 168.759 163.906 167.094 163.906Z" fill="#FAC04F"/>
<path d="M68.558 148.246H68.494C66.3484 148.246 64.6191 146.485 64.6191 144.371V135.821C64.6191 133.676 66.3804 131.946 68.494 131.946H68.558C70.7036 131.946 72.4328 133.708 72.4328 135.821V144.371C72.4328 146.485 70.7036 148.246 68.558 148.246Z" fill="#A8EC6C"/>
<path d="M71.8567 143.284L69.9353 156.222H62.9221L60.8086 143.284H71.8567Z" fill="#E96B73"/>
<path d="M76.2422 143.284L74.5129 156.222H69.9336L71.855 143.284H76.2422Z" fill="#DC4F58"/>
<path d="M162.035 114.206V153.755C162.035 155.1 160.914 156.221 159.569 156.221H143.333C141.988 156.221 140.867 155.1 140.867 153.755V114.206C140.867 112.861 141.988 111.74 143.333 111.74H159.569C160.946 111.74 162.035 112.829 162.035 114.206Z" fill="#E6E9ED"/>
<path d="M162.066 116.287H140.898V119.938H162.066V116.287Z" fill="#CCD1D8"/>
<path d="M151.466 134.028C152.828 134.028 153.932 132.924 153.932 131.562C153.932 130.201 152.828 129.097 151.466 129.097C150.104 129.097 149 130.201 149 131.562C149 132.924 150.104 134.028 151.466 134.028Z" fill="#A8EC6C"/>
<path d="M155.918 144.469H147.047C146.407 144.469 145.895 143.956 145.895 143.316V143.124C145.895 142.483 146.407 141.971 147.047 141.971H155.918C156.558 141.971 157.071 142.483 157.071 143.124V143.316C157.039 143.956 156.526 144.469 155.918 144.469Z" fill="#CCD1D8"/>
<path d="M155.918 147.958H147.047C146.407 147.958 145.895 147.445 145.895 146.805V146.613C145.895 145.972 146.407 145.46 147.047 145.46H155.918C156.558 145.46 157.071 145.972 157.071 146.613V146.805C157.039 147.445 156.526 147.958 155.918 147.958Z" fill="#CCD1D8"/>
<path d="M155.918 151.48H147.047C146.407 151.48 145.895 150.968 145.895 150.327V150.135C145.895 149.495 146.407 148.982 147.047 148.982H155.918C156.558 148.982 157.071 149.495 157.071 150.135V150.327C157.039 150.968 156.526 151.48 155.918 151.48Z" fill="#CCD1D8"/>
<path d="M102.372 148.468L100.867 153.656H118.768L117.199 148.468H102.372Z" fill="#CCD1D8"/>
<path d="M131.515 149.269H88.0272C85.9777 149.269 84.3125 147.604 84.3125 145.554V112.698C84.3125 110.649 85.9777 108.983 88.0272 108.983H131.515C133.564 108.983 135.23 110.649 135.23 112.698V145.554C135.23 147.604 133.564 149.269 131.515 149.269Z" fill="#E6E9ED"/>
<path d="M132.795 112.955V141.551C132.795 142.352 132.155 143.024 131.322 143.024H87.9946C87.194 143.024 86.5215 142.384 86.5215 141.551V112.955C86.5215 112.154 87.1619 111.481 87.9946 111.481H131.354C132.123 111.513 132.795 112.154 132.795 112.955Z" fill="#6EB7E6"/>
<path d="M109.963 147.348C110.635 147.348 111.18 146.803 111.18 146.131C111.18 145.459 110.635 144.914 109.963 144.914C109.291 144.914 108.746 145.459 108.746 146.131C108.746 146.803 109.291 147.348 109.963 147.348Z" fill="#CCD1D8"/>
<path d="M121.908 155.193V156.25H97.5703V155.193C97.5703 153.88 98.6591 152.791 99.9721 152.791H119.506C120.819 152.791 121.908 153.88 121.908 155.193Z" fill="#E6E9ED"/>
<path d="M132.799 112.955V124.035L125.273 143.025H108.621L121.142 111.514H131.358C132.126 111.514 132.799 112.154 132.799 112.955Z" fill="#93C7E9"/>
</g>
<path d="M109.549 121.242C112.558 121.278 114.909 122.098 116.945 123.787C117.333 124.107 117.693 124.458 118.049 124.814C118.571 125.327 118.585 126.044 118.107 126.517C117.63 126.989 116.927 126.971 116.423 126.453C115.774 125.791 115.08 125.188 114.279 124.719C110.946 122.769 106.59 123.319 103.852 126.039C103.613 126.278 103.379 126.521 103.131 126.751C102.654 127.197 101.96 127.197 101.51 126.755C101.055 126.309 101.032 125.625 101.482 125.134C103.172 123.287 105.194 121.976 107.685 121.485C108.419 121.341 109.167 121.292 109.549 121.242Z" fill="#F5F5F5"/>
<path d="M109.835 125.449C112.074 125.449 113.781 126.341 115.173 127.899C115.655 128.444 115.637 129.183 115.146 129.661C114.655 130.138 113.916 130.134 113.38 129.656C112.984 129.305 112.614 128.904 112.168 128.62C110.52 127.575 108.516 127.823 107.092 129.206C106.863 129.431 106.642 129.67 106.403 129.886C105.876 130.363 105.124 130.35 104.638 129.859C104.16 129.377 104.133 128.625 104.61 128.111C105.255 127.418 105.926 126.751 106.768 126.287C107.759 125.742 108.817 125.458 109.835 125.449Z" fill="#F5F5F5"/>
<path d="M109.895 134.263C108.823 134.313 107.868 133.434 107.818 132.349C107.769 131.25 108.616 130.282 109.679 130.227C110.854 130.169 111.809 131.016 111.859 132.169C111.913 133.277 111.034 134.209 109.895 134.263Z" fill="#F5F5F5"/>
<path d="M217.55 71.144H211.935V67.6021H217.55C218.418 67.6021 219.125 67.4608 219.669 67.1782C220.214 66.8856 220.613 66.4819 220.865 65.9673C221.118 65.4526 221.244 64.8724 221.244 64.2266C221.244 63.5706 221.118 62.9601 220.865 62.395C220.613 61.8299 220.214 61.3758 219.669 61.0327C219.125 60.6896 218.418 60.5181 217.55 60.5181H213.509V79H208.968V56.9609H217.55C219.276 56.9609 220.754 57.2738 221.985 57.8994C223.227 58.515 224.175 59.3677 224.831 60.4575C225.487 61.5474 225.815 62.7936 225.815 64.1963C225.815 65.6191 225.487 66.8503 224.831 67.8896C224.175 68.929 223.227 69.7313 221.985 70.2964C220.754 70.8615 219.276 71.144 217.55 71.144ZM227.768 70.9775V70.6597C227.768 69.4588 227.939 68.3538 228.282 67.3447C228.625 66.3255 229.125 65.4425 229.781 64.6958C230.437 63.9491 231.244 63.3688 232.203 62.9551C233.161 62.5312 234.261 62.3193 235.502 62.3193C236.744 62.3193 237.849 62.5312 238.817 62.9551C239.786 63.3688 240.598 63.9491 241.254 64.6958C241.92 65.4425 242.425 66.3255 242.768 67.3447C243.111 68.3538 243.283 69.4588 243.283 70.6597V70.9775C243.283 72.1683 243.111 73.2733 242.768 74.2925C242.425 75.3016 241.92 76.1846 241.254 76.9414C240.598 77.6882 239.791 78.2684 238.833 78.6821C237.874 79.0959 236.774 79.3027 235.533 79.3027C234.292 79.3027 233.187 79.0959 232.218 78.6821C231.259 78.2684 230.447 77.6882 229.781 76.9414C229.125 76.1846 228.625 75.3016 228.282 74.2925C227.939 73.2733 227.768 72.1683 227.768 70.9775ZM232.127 70.6597V70.9775C232.127 71.6637 232.188 72.3045 232.309 72.8999C232.43 73.4953 232.621 74.02 232.884 74.4741C233.156 74.9181 233.509 75.2663 233.943 75.5186C234.377 75.7708 234.907 75.897 235.533 75.897C236.138 75.897 236.658 75.7708 237.092 75.5186C237.526 75.2663 237.874 74.9181 238.136 74.4741C238.399 74.02 238.59 73.4953 238.711 72.8999C238.843 72.3045 238.908 71.6637 238.908 70.9775V70.6597C238.908 69.9937 238.843 69.368 238.711 68.7827C238.59 68.1873 238.394 67.6626 238.121 67.2085C237.859 66.7443 237.511 66.381 237.077 66.1187C236.643 65.8563 236.118 65.7251 235.502 65.7251C234.887 65.7251 234.362 65.8563 233.928 66.1187C233.504 66.381 233.156 66.7443 232.884 67.2085C232.621 67.6626 232.43 68.1873 232.309 68.7827C232.188 69.368 232.127 69.9937 232.127 70.6597ZM250.563 55.75V79H246.189V55.75H250.563ZM258.768 55.75V79H254.393V55.75H258.768ZM272.058 75.0796V62.6221H276.417V79H272.315L272.058 75.0796ZM272.542 71.7192L273.829 71.689C273.829 72.7788 273.702 73.793 273.45 74.7314C273.198 75.6598 272.819 76.4671 272.315 77.1533C271.81 77.8294 271.175 78.3592 270.408 78.7427C269.641 79.116 268.738 79.3027 267.698 79.3027C266.901 79.3027 266.164 79.1917 265.488 78.9697C264.822 78.7376 264.247 78.3794 263.763 77.895C263.288 77.4006 262.915 76.7699 262.643 76.0029C262.38 75.2259 262.249 74.2925 262.249 73.2026V62.6221H266.608V73.2329C266.608 73.7173 266.664 74.126 266.775 74.459C266.896 74.792 267.062 75.0645 267.274 75.2764C267.486 75.4883 267.734 75.6396 268.016 75.7305C268.309 75.8213 268.632 75.8667 268.985 75.8667C269.883 75.8667 270.589 75.6851 271.104 75.3218C271.629 74.9585 271.997 74.464 272.209 73.8384C272.431 73.2026 272.542 72.4963 272.542 71.7192ZM287.77 62.6221V65.71H278.233V62.6221H287.77ZM280.595 58.5806H284.954V74.0654C284.954 74.5397 285.015 74.903 285.136 75.1553C285.267 75.4076 285.459 75.5841 285.711 75.6851C285.963 75.7759 286.281 75.8213 286.665 75.8213C286.937 75.8213 287.179 75.8112 287.391 75.791C287.613 75.7607 287.8 75.7305 287.951 75.7002L287.966 78.9092C287.593 79.0303 287.189 79.1261 286.755 79.1968C286.321 79.2674 285.842 79.3027 285.317 79.3027C284.359 79.3027 283.521 79.1463 282.805 78.8335C282.098 78.5106 281.553 77.9959 281.17 77.2896C280.786 76.5832 280.595 75.6548 280.595 74.5044V58.5806ZM294.854 62.6221V79H290.479V62.6221H294.854ZM290.207 58.3535C290.207 57.7178 290.429 57.193 290.873 56.7793C291.317 56.3656 291.912 56.1587 292.659 56.1587C293.395 56.1587 293.986 56.3656 294.43 56.7793C294.884 57.193 295.111 57.7178 295.111 58.3535C295.111 58.9893 294.884 59.514 294.43 59.9277C293.986 60.3415 293.395 60.5483 292.659 60.5483C291.912 60.5483 291.317 60.3415 290.873 59.9277C290.429 59.514 290.207 58.9893 290.207 58.3535ZM297.76 70.9775V70.6597C297.76 69.4588 297.931 68.3538 298.274 67.3447C298.618 66.3255 299.117 65.4425 299.773 64.6958C300.429 63.9491 301.236 63.3688 302.195 62.9551C303.153 62.5312 304.253 62.3193 305.495 62.3193C306.736 62.3193 307.841 62.5312 308.81 62.9551C309.778 63.3688 310.591 63.9491 311.247 64.6958C311.913 65.4425 312.417 66.3255 312.76 67.3447C313.103 68.3538 313.275 69.4588 313.275 70.6597V70.9775C313.275 72.1683 313.103 73.2733 312.76 74.2925C312.417 75.3016 311.913 76.1846 311.247 76.9414C310.591 77.6882 309.783 78.2684 308.825 78.6821C307.866 79.0959 306.766 79.3027 305.525 79.3027C304.284 79.3027 303.179 79.0959 302.21 78.6821C301.251 78.2684 300.439 77.6882 299.773 76.9414C299.117 76.1846 298.618 75.3016 298.274 74.2925C297.931 73.2733 297.76 72.1683 297.76 70.9775ZM302.119 70.6597V70.9775C302.119 71.6637 302.18 72.3045 302.301 72.8999C302.422 73.4953 302.614 74.02 302.876 74.4741C303.148 74.9181 303.502 75.2663 303.936 75.5186C304.369 75.7708 304.899 75.897 305.525 75.897C306.13 75.897 306.65 75.7708 307.084 75.5186C307.518 75.2663 307.866 74.9181 308.128 74.4741C308.391 74.02 308.583 73.4953 308.704 72.8999C308.835 72.3045 308.9 71.6637 308.9 70.9775V70.6597C308.9 69.9937 308.835 69.368 308.704 68.7827C308.583 68.1873 308.386 67.6626 308.113 67.2085C307.851 66.7443 307.503 66.381 307.069 66.1187C306.635 65.8563 306.11 65.7251 305.495 65.7251C304.879 65.7251 304.354 65.8563 303.92 66.1187C303.497 66.381 303.148 66.7443 302.876 67.2085C302.614 67.6626 302.422 68.1873 302.301 68.7827C302.18 69.368 302.119 69.9937 302.119 70.6597ZM320.223 66.1187V79H315.863V62.6221H319.95L320.223 66.1187ZM319.587 70.2358H318.406C318.406 69.0249 318.563 67.9351 318.875 66.9663C319.188 65.9875 319.627 65.1549 320.192 64.4688C320.757 63.7725 321.429 63.2427 322.206 62.8794C322.993 62.506 323.871 62.3193 324.839 62.3193C325.606 62.3193 326.308 62.4303 326.943 62.6523C327.579 62.8743 328.124 63.2275 328.578 63.7119C329.042 64.1963 329.396 64.8371 329.638 65.6343C329.89 66.4315 330.016 67.4053 330.016 68.5557V79H325.626V68.5405C325.626 67.814 325.526 67.2489 325.324 66.8452C325.122 66.4416 324.824 66.159 324.431 65.9976C324.047 65.826 323.573 65.7402 323.008 65.7402C322.423 65.7402 321.913 65.8563 321.479 66.0884C321.055 66.3205 320.702 66.6434 320.419 67.0571C320.147 67.4608 319.94 67.9351 319.799 68.48C319.658 69.0249 319.587 69.6102 319.587 70.2358ZM212.964 102.119V115H208.604V98.6221H212.691L212.964 102.119ZM212.328 106.236H211.147C211.147 105.025 211.304 103.935 211.617 102.966C211.93 101.987 212.368 101.155 212.934 100.469C213.499 99.7725 214.17 99.2427 214.947 98.8794C215.734 98.506 216.612 98.3193 217.581 98.3193C218.347 98.3193 219.049 98.4303 219.685 98.6523C220.32 98.8743 220.865 99.2275 221.319 99.7119C221.784 100.196 222.137 100.837 222.379 101.634C222.631 102.431 222.757 103.405 222.757 104.556V115H218.368V104.541C218.368 103.814 218.267 103.249 218.065 102.845C217.863 102.442 217.565 102.159 217.172 101.998C216.788 101.826 216.314 101.74 215.749 101.74C215.164 101.74 214.654 101.856 214.22 102.088C213.796 102.32 213.443 102.643 213.161 103.057C212.888 103.461 212.681 103.935 212.54 104.48C212.399 105.025 212.328 105.61 212.328 106.236ZM235.76 111.08V98.6221H240.119V115H236.017L235.76 111.08ZM236.244 107.719L237.531 107.689C237.531 108.779 237.405 109.793 237.152 110.731C236.9 111.66 236.522 112.467 236.017 113.153C235.513 113.829 234.877 114.359 234.11 114.743C233.343 115.116 232.44 115.303 231.4 115.303C230.603 115.303 229.867 115.192 229.19 114.97C228.524 114.738 227.949 114.379 227.465 113.895C226.991 113.401 226.617 112.77 226.345 112.003C226.082 111.226 225.951 110.292 225.951 109.203V98.6221H230.311V109.233C230.311 109.717 230.366 110.126 230.477 110.459C230.598 110.792 230.765 111.064 230.977 111.276C231.188 111.488 231.436 111.64 231.718 111.73C232.011 111.821 232.334 111.867 232.687 111.867C233.585 111.867 234.292 111.685 234.806 111.322C235.331 110.958 235.699 110.464 235.911 109.838C236.133 109.203 236.244 108.496 236.244 107.719ZM247.809 102.013V115H243.434V98.6221H247.536L247.809 102.013ZM247.203 106.236H245.992C245.992 105.096 246.128 104.046 246.401 103.087C246.683 102.119 247.092 101.281 247.627 100.575C248.172 99.8582 248.843 99.3032 249.64 98.9097C250.437 98.5161 251.361 98.3193 252.41 98.3193C253.137 98.3193 253.803 98.4303 254.408 98.6523C255.014 98.8643 255.533 99.2023 255.967 99.6665C256.411 100.121 256.754 100.716 256.997 101.453C257.239 102.179 257.36 103.052 257.36 104.071V115H253V104.556C253 103.809 252.9 103.234 252.698 102.83C252.496 102.426 252.208 102.144 251.835 101.982C251.472 101.821 251.033 101.74 250.518 101.74C249.953 101.74 249.458 101.856 249.035 102.088C248.621 102.32 248.278 102.643 248.005 103.057C247.733 103.461 247.531 103.935 247.4 104.48C247.269 105.025 247.203 105.61 247.203 106.236ZM256.951 105.736L255.392 105.933C255.392 104.863 255.523 103.869 255.786 102.951C256.058 102.033 256.457 101.226 256.981 100.529C257.516 99.833 258.177 99.2931 258.964 98.9097C259.751 98.5161 260.66 98.3193 261.689 98.3193C262.476 98.3193 263.193 98.4354 263.838 98.6675C264.484 98.8895 265.034 99.2477 265.488 99.7422C265.952 100.227 266.306 100.862 266.548 101.649C266.8 102.437 266.926 103.4 266.926 104.541V115H262.552V104.541C262.552 103.784 262.451 103.208 262.249 102.815C262.057 102.411 261.775 102.134 261.401 101.982C261.038 101.821 260.604 101.74 260.1 101.74C259.575 101.74 259.116 101.846 258.722 102.058C258.329 102.26 258.001 102.542 257.738 102.906C257.476 103.269 257.279 103.693 257.148 104.177C257.017 104.652 256.951 105.171 256.951 105.736ZM277.84 115.303C276.568 115.303 275.428 115.101 274.419 114.697C273.41 114.284 272.552 113.713 271.846 112.987C271.149 112.26 270.615 111.418 270.241 110.459C269.868 109.49 269.681 108.461 269.681 107.371V106.766C269.681 105.524 269.858 104.389 270.211 103.36C270.564 102.331 271.069 101.438 271.725 100.681C272.391 99.9238 273.198 99.3436 274.146 98.9399C275.095 98.5262 276.165 98.3193 277.355 98.3193C278.516 98.3193 279.545 98.5111 280.443 98.8945C281.341 99.278 282.093 99.8229 282.699 100.529C283.314 101.236 283.778 102.083 284.091 103.072C284.404 104.051 284.561 105.141 284.561 106.342V108.158H271.543V105.252H280.277V104.919C280.277 104.313 280.166 103.774 279.944 103.299C279.732 102.815 279.409 102.431 278.975 102.149C278.541 101.866 277.986 101.725 277.31 101.725C276.735 101.725 276.24 101.851 275.827 102.104C275.413 102.356 275.075 102.709 274.812 103.163C274.56 103.617 274.368 104.152 274.237 104.768C274.116 105.373 274.056 106.039 274.056 106.766V107.371C274.056 108.027 274.146 108.632 274.328 109.188C274.52 109.743 274.787 110.222 275.13 110.625C275.484 111.029 275.907 111.342 276.402 111.564C276.906 111.786 277.477 111.897 278.112 111.897C278.899 111.897 279.631 111.746 280.307 111.443C280.993 111.13 281.584 110.661 282.078 110.035L284.197 112.336C283.854 112.83 283.385 113.305 282.79 113.759C282.204 114.213 281.498 114.586 280.67 114.879C279.843 115.161 278.899 115.303 277.84 115.303ZM274.767 96.397L277.734 91.7349H282.472L278.309 96.397H274.767ZM291.402 102.194V115H287.043V98.6221H291.145L291.402 102.194ZM296.337 98.5161L296.261 102.558C296.049 102.527 295.792 102.502 295.489 102.482C295.197 102.452 294.929 102.437 294.687 102.437C294.071 102.437 293.537 102.517 293.083 102.679C292.639 102.83 292.265 103.057 291.962 103.36C291.67 103.663 291.448 104.031 291.296 104.465C291.155 104.899 291.074 105.393 291.054 105.948L290.176 105.676C290.176 104.616 290.282 103.642 290.494 102.754C290.706 101.856 291.014 101.074 291.417 100.408C291.831 99.7422 292.336 99.2275 292.931 98.8643C293.527 98.501 294.208 98.3193 294.975 98.3193C295.217 98.3193 295.464 98.3395 295.716 98.3799C295.969 98.4102 296.175 98.4556 296.337 98.5161ZM302.997 98.6221V115H298.623V98.6221H302.997ZM298.35 94.3535C298.35 93.7178 298.572 93.193 299.016 92.7793C299.46 92.3656 300.056 92.1587 300.802 92.1587C301.539 92.1587 302.129 92.3656 302.573 92.7793C303.027 93.193 303.254 93.7178 303.254 94.3535C303.254 94.9893 303.027 95.514 302.573 95.9277C302.129 96.3415 301.539 96.5483 300.802 96.5483C300.056 96.5483 299.46 96.3415 299.016 95.9277C298.572 95.514 298.35 94.9893 298.35 94.3535ZM316.272 121.297V101.967L316.832 98.6221H320.662V121.297H316.272ZM305.918 106.978V106.66C305.918 105.408 306.055 104.273 306.327 103.254C306.61 102.225 307.023 101.347 307.568 100.62C308.113 99.8835 308.779 99.3184 309.566 98.9248C310.364 98.5212 311.282 98.3193 312.321 98.3193C313.32 98.3193 314.183 98.5212 314.91 98.9248C315.636 99.3285 316.247 99.8986 316.741 100.635C317.246 101.372 317.649 102.24 317.952 103.239C318.255 104.238 318.487 105.333 318.648 106.523V107.22C318.497 108.36 318.265 109.42 317.952 110.398C317.649 111.377 317.246 112.235 316.741 112.972C316.247 113.708 315.631 114.284 314.895 114.697C314.168 115.101 313.3 115.303 312.291 115.303C311.272 115.303 310.364 115.096 309.566 114.682C308.779 114.258 308.113 113.673 307.568 112.926C307.023 112.18 306.61 111.302 306.327 110.292C306.055 109.273 305.918 108.168 305.918 106.978ZM310.278 106.66V106.978C310.278 107.654 310.333 108.289 310.444 108.885C310.555 109.47 310.732 109.99 310.974 110.444C311.226 110.898 311.549 111.256 311.943 111.519C312.336 111.771 312.821 111.897 313.396 111.897C314.193 111.897 314.834 111.725 315.318 111.382C315.813 111.029 316.176 110.55 316.408 109.944C316.65 109.339 316.792 108.648 316.832 107.871V105.888C316.802 105.252 316.716 104.682 316.575 104.177C316.444 103.663 316.242 103.224 315.969 102.86C315.707 102.497 315.364 102.22 314.94 102.028C314.526 101.826 314.022 101.725 313.426 101.725C312.861 101.725 312.377 101.851 311.973 102.104C311.569 102.356 311.242 102.709 310.989 103.163C310.747 103.607 310.565 104.127 310.444 104.722C310.333 105.318 310.278 105.963 310.278 106.66ZM333.785 111.08V98.6221H338.145V115H334.042L333.785 111.08ZM334.27 107.719L335.556 107.689C335.556 108.779 335.43 109.793 335.178 110.731C334.925 111.66 334.547 112.467 334.042 113.153C333.538 113.829 332.902 114.359 332.135 114.743C331.368 115.116 330.465 115.303 329.426 115.303C328.629 115.303 327.892 115.192 327.216 114.97C326.55 114.738 325.975 114.379 325.49 113.895C325.016 113.401 324.643 112.77 324.37 112.003C324.108 111.226 323.977 110.292 323.977 109.203V98.6221H328.336V109.233C328.336 109.717 328.391 110.126 328.502 110.459C328.624 110.792 328.79 111.064 329.002 111.276C329.214 111.488 329.461 111.64 329.744 111.73C330.036 111.821 330.359 111.867 330.712 111.867C331.611 111.867 332.317 111.685 332.832 111.322C333.356 110.958 333.725 110.464 333.937 109.838C334.159 109.203 334.27 108.496 334.27 107.719ZM349.013 115.303C347.741 115.303 346.601 115.101 345.592 114.697C344.583 114.284 343.725 113.713 343.019 112.987C342.322 112.26 341.787 111.418 341.414 110.459C341.041 109.49 340.854 108.461 340.854 107.371V106.766C340.854 105.524 341.031 104.389 341.384 103.36C341.737 102.331 342.242 101.438 342.897 100.681C343.563 99.9238 344.371 99.3436 345.319 98.9399C346.268 98.5262 347.338 98.3193 348.528 98.3193C349.689 98.3193 350.718 98.5111 351.616 98.8945C352.514 99.278 353.266 99.8229 353.872 100.529C354.487 101.236 354.951 102.083 355.264 103.072C355.577 104.051 355.733 105.141 355.733 106.342V108.158H342.716V105.252H351.45V104.919C351.45 104.313 351.339 103.774 351.117 103.299C350.905 102.815 350.582 102.431 350.148 102.149C349.714 101.866 349.159 101.725 348.483 101.725C347.908 101.725 347.413 101.851 347 102.104C346.586 102.356 346.248 102.709 345.985 103.163C345.733 103.617 345.541 104.152 345.41 104.768C345.289 105.373 345.229 106.039 345.229 106.766V107.371C345.229 108.027 345.319 108.632 345.501 109.188C345.693 109.743 345.96 110.222 346.303 110.625C346.656 111.029 347.08 111.342 347.575 111.564C348.079 111.786 348.649 111.897 349.285 111.897C350.072 111.897 350.804 111.746 351.48 111.443C352.166 111.13 352.757 110.661 353.251 110.035L355.37 112.336C355.027 112.83 354.558 113.305 353.962 113.759C353.377 114.213 352.671 114.586 351.843 114.879C351.016 115.161 350.072 115.303 349.013 115.303Z" fill="#222222"/>
<mask id="mask1_275_12555" style="mask-type:alpha" maskUnits="userSpaceOnUse" x="207" y="153" width="294" height="25">
<rect x="207" y="153.386" width="294" height="24.5" rx="12.25" fill="#D9D9D9"/>
</mask>
<g mask="url(#mask1_275_12555)">
<rect x="207" y="153.386" width="26.95" height="24.5" fill="#A8EC6C"/>
<rect x="238.957" y="153.386" width="24.5" height="24.5" fill="#A8EC6C"/>
<rect x="268.355" y="153.386" width="24.5" height="24.5" fill="#A8EC6C"/>
<rect x="297.754" y="153.386" width="24.5" height="24.5" fill="#FAC04F"/>
<rect x="327.156" y="153.386" width="24.5" height="24.5" fill="#FAC04F"/>
<rect x="356.555" y="153.386" width="24.5" height="24.5" fill="#FAC04F"/>
<rect x="415.355" y="153.386" width="24.5" height="24.5" fill="#E96B73"/>
<rect x="385.957" y="153.386" width="24.5" height="24.5" fill="#FAC04F"/>
<rect x="444.754" y="153.386" width="24.5" height="24.5" fill="#E96B73"/>
<rect x="474.051" y="153.386" width="26.95" height="24.5" fill="#E96B73"/>
</g>
<mask id="path-116-outside-1_275_12555" maskUnits="userSpaceOnUse" x="473.727" y="160.426" width="25" height="35" fill="black">
<rect fill="white" x="473.727" y="160.426" width="25" height="35"/>
<path fill-rule="evenodd" clip-rule="evenodd" d="M493.652 178.734L486.302 166.426L478.951 178.734C475.543 184.441 479.654 191.686 486.302 191.686C492.949 191.686 497.061 184.441 493.652 178.734Z"/>
</mask>
<path fill-rule="evenodd" clip-rule="evenodd" d="M493.652 178.734L486.302 166.426L478.951 178.734C475.543 184.441 479.654 191.686 486.302 191.686C492.949 191.686 497.061 184.441 493.652 178.734Z" fill="#212121"/>
<path d="M486.302 166.426L488.877 164.888L486.302 160.575L483.726 164.888L486.302 166.426ZM493.652 178.734L491.077 180.272L491.077 180.272L493.652 178.734ZM478.951 178.734L481.526 180.272L481.526 180.272L478.951 178.734ZM483.726 167.964L491.077 180.272L496.228 177.196L488.877 164.888L483.726 167.964ZM481.526 180.272L488.877 167.964L483.726 164.888L476.375 177.196L481.526 180.272ZM486.302 188.686C481.983 188.686 479.312 183.979 481.526 180.272L476.375 177.196C471.773 184.902 477.325 194.686 486.302 194.686V188.686ZM491.077 180.272C493.291 183.979 490.62 188.686 486.302 188.686V194.686C495.278 194.686 500.83 184.902 496.228 177.196L491.077 180.272Z" fill="white" mask="url(#path-116-outside-1_275_12555)"/>
<circle cx="486.3" cy="183.575" r="3.675" fill="white"/>
</svg>
