<svg width="285" height="343" viewBox="0 0 285 343" fill="none" xmlns="http://www.w3.org/2000/svg">
<rect x="1.5" y="1.5" width="282" height="339.903" rx="30.5" stroke="#212121" stroke-width="3"/>
<path d="M154.877 105.35C154.877 112.46 153.617 119.293 151.313 125.637C151.221 125.882 151.128 126.158 151.036 126.403C149.838 129.59 148.363 132.624 146.643 135.504C143.908 140.131 140.528 144.36 136.657 148.068C136.35 148.375 136.012 148.681 135.674 148.988C135.52 149.141 135.366 149.263 135.244 149.386C134.906 149.692 134.568 149.999 134.23 150.275C133.431 150.949 132.632 151.623 131.802 152.266C129.652 153.921 127.378 155.454 124.981 156.802C123.507 157.629 122.001 158.426 120.465 159.131C116.932 160.755 113.214 162.073 109.312 162.992C107.56 163.421 105.748 163.758 103.935 164.003C101.907 164.279 99.8485 164.463 97.7592 164.555C97.0218 164.585 96.2537 164.586 95.4855 164.586C89.5556 164.586 83.8101 163.727 78.4025 162.103C78.1874 162.042 78.0031 161.981 77.788 161.919C75.4222 161.184 73.1485 160.326 70.9056 159.315C68.9085 158.426 66.9728 157.415 65.1293 156.312C65.0986 156.281 65.0679 156.281 65.0371 156.25C64.1461 155.699 63.2244 155.147 62.3641 154.565C61.5345 154.013 60.7357 153.431 59.9368 152.849C58.124 151.5 56.3727 150.029 54.7443 148.467C54.1298 147.884 53.5153 147.271 52.9008 146.659C51.4567 145.157 50.0741 143.594 48.7837 141.939C48.7529 141.909 48.7222 141.847 48.6915 141.817C47.4318 140.193 46.2335 138.507 45.1581 136.76C44.052 135.014 43.0381 133.206 42.1471 131.336C41.594 130.203 41.0717 129.038 40.5801 127.843C40.5187 127.72 40.4879 127.598 40.4265 127.475C39.6891 125.637 39.0439 123.767 38.4908 121.867C38.3679 121.408 38.2143 120.917 38.0914 120.458C38.0299 120.182 37.9378 119.906 37.8763 119.6C37.7534 119.079 37.6305 118.527 37.5076 118.006C36.5859 113.9 36.125 109.671 36.125 105.35C36.125 104.645 36.125 103.971 36.1557 103.266C37.2618 71.5188 63.4087 46.1147 95.5163 46.1147C121.54 46.1147 143.662 62.8159 151.681 86.0749C152.665 88.9248 153.433 91.8666 153.986 94.9004C154.17 95.8504 154.293 96.8004 154.416 97.781C154.723 100.263 154.877 102.776 154.877 105.35Z" fill="#74CBED"/>
<mask id="mask0_257_16952" style="mask-type:alpha" maskUnits="userSpaceOnUse" x="36" y="46" width="119" height="119">
<path d="M154.875 105.35C154.875 112.46 153.615 119.293 151.311 125.637C151.219 125.882 151.126 126.158 151.034 126.403C149.836 129.59 148.361 132.624 146.641 135.504C143.906 140.131 140.526 144.36 136.655 148.068C136.348 148.375 136.01 148.681 135.672 148.988C135.518 149.141 135.365 149.263 135.242 149.386C134.904 149.692 134.566 149.999 134.228 150.275C133.429 150.949 132.63 151.623 131.8 152.266C129.65 153.921 127.376 155.454 124.979 156.802C123.505 157.629 121.999 158.426 120.463 159.131C116.93 160.755 113.212 162.073 109.31 162.992C107.558 163.421 105.746 163.758 103.933 164.003C101.905 164.279 99.8465 164.463 97.7572 164.555C97.0198 164.585 96.2517 164.586 95.4836 164.586C89.5537 164.586 83.8081 163.727 78.4005 162.103C78.1855 162.042 78.0011 161.981 77.786 161.919C75.4202 161.184 73.1466 160.326 70.9036 159.315C68.9065 158.426 66.9709 157.415 65.1274 156.312C65.0966 156.281 65.0659 156.281 65.0352 156.25C64.1442 155.699 63.2224 155.147 62.3621 154.565C61.5325 154.013 60.7337 153.431 59.9349 152.849C58.1221 151.5 56.3708 150.029 54.7423 148.467C54.1278 147.884 53.5133 147.271 52.8988 146.659C51.4548 145.157 50.0722 143.594 48.7817 141.939C48.751 141.909 48.7203 141.847 48.6895 141.817C47.4298 140.193 46.2315 138.507 45.1562 136.76C44.0501 135.014 43.0362 133.206 42.1451 131.336C41.5921 130.203 41.0698 129.038 40.5782 127.843C40.5167 127.72 40.486 127.598 40.4245 127.475C39.6871 125.637 39.0419 123.767 38.4889 121.867C38.366 121.408 38.2123 120.917 38.0894 120.458C38.028 120.182 37.9358 119.906 37.8744 119.6C37.7515 119.079 37.6286 118.527 37.5057 118.006C36.5839 113.9 36.123 109.671 36.123 105.35C36.123 104.645 36.123 103.971 36.1538 103.266C37.2599 71.5188 63.4068 46.1147 95.5143 46.1147C121.538 46.1147 143.66 62.8159 151.679 86.0749C152.663 88.9248 153.431 91.8666 153.984 94.9004C154.168 95.8504 154.291 96.8004 154.414 97.781C154.721 100.263 154.875 102.776 154.875 105.35Z" fill="#6EB7E6"/>
</mask>
<g mask="url(#mask0_257_16952)">
<path opacity="0.5" d="M122.392 161.974C131.336 159.855 139.786 156.455 147.593 152.021C167.062 140.934 182.183 123.195 189.991 101.908C169.928 94.7636 165.679 114.67 165.679 114.67C157.723 113.784 151.942 115.607 147.692 118.366C146.753 118.957 145.913 119.647 145.122 120.337C143.245 121.963 141.812 123.786 140.725 125.511C138.204 129.404 137.414 132.804 137.414 132.804L133.065 125.511L128.618 118.07L126.246 114.128L125.011 112.059C124.121 106.639 121.255 104.52 118.439 103.83C114.98 102.992 111.471 104.323 111.471 104.323C111.471 104.323 112.064 86.6826 95.1151 79.7349C92.1008 78.503 88.543 77.6161 84.3428 77.2219C73.3234 76.1871 64.5771 78.7987 58.4497 81.8044C51.8282 85.0565 48.2704 88.8014 48.2704 88.8014C45.5032 86.5348 42.736 85.3522 40.117 84.9087C32.9519 83.6276 27.2198 87.6681 27.2198 87.6681C22.9208 72.6886 13.7298 67.3177 4.78576 65.9873C4.73635 67.1206 4.73633 68.2047 4.73633 69.338C4.73633 96.636 16.2499 121.273 34.6814 138.618C39.7217 143.348 45.2561 147.586 51.2846 151.134C65.6148 159.658 82.3168 164.586 100.254 164.586C101.49 164.586 102.676 164.536 103.911 164.536C107.271 164.438 110.582 164.093 113.843 163.649L122.392 161.974Z" fill="white"/>
<path d="M117.624 85.2642L115.101 138.211H62.1686C61.3277 138.211 60.6309 137.515 60.6309 136.675V85.2642H117.624Z" fill="#A8EC6C"/>
<path d="M129.056 85.2642V138.211H115.096L117.619 85.2642H129.056Z" fill="#9BDD61"/>
<path d="M141.648 68.4951H125.525L125.886 60.9382C125.886 60.9382 125.982 57.5796 128.889 57.5796H137.131C137.251 57.5796 137.299 57.5796 137.299 57.5796H141.191L141.648 68.4951Z" fill="#786E7A"/>
<path d="M144.68 138.427H122.238L125.098 77.7559H142.061L144.68 138.427Z" fill="#786E7A"/>
<path d="M142.057 77.7553H125.094L125.526 68.4951H141.649L142.057 77.7553Z" fill="white"/>
<path d="M148.883 68.4951H141.65L141.17 57.5796H145.519C148.426 57.5796 148.522 60.9382 148.522 60.9382L148.883 68.4951Z" fill="#6A6069"/>
<path d="M149.315 77.7553H142.059L141.65 68.4951H148.883L149.315 77.7553Z" fill="#F3F1EB"/>
<path d="M152.174 138.427H144.678L142.059 77.7559H149.315L152.174 138.427Z" fill="#6A6069"/>
<rect x="43.0117" y="137.834" width="105.641" height="26.7515" fill="#699C3B"/>
<path d="M76.0806 125.303H70.4822C69.1848 125.303 68.1035 124.248 68.1035 122.928V117.314C68.1035 116.019 69.1607 114.939 70.4822 114.939H76.1047C77.4021 114.939 78.4834 115.995 78.4834 117.314V122.928C78.4593 124.248 77.4021 125.303 76.0806 125.303Z" fill="white"/>
<path d="M73.5584 140.948C72.1244 139.502 70.705 138.055 69.2563 136.609C68.4222 135.762 68.071 134.754 68.2027 133.585C68.3052 132.737 68.7441 132.051 69.3148 131.452C69.3295 131.452 69.3587 131.452 69.3734 131.437C70.3245 132.401 71.2756 133.38 72.2414 134.344C73.5438 135.659 74.4803 135.791 76.0899 134.929C77.1581 136.142 78.358 137.223 79.4847 138.377C79.9823 138.888 80.4652 139.429 81.0212 139.882C81.1529 140.028 81.27 140.189 81.4163 140.32C82.104 140.875 82.3528 141.577 82.3235 142.482C82.2796 144.236 82.3089 146.003 82.3235 147.757C82.3089 148.721 82.3089 149.7 82.2943 150.664C80.553 150.679 78.797 150.679 77.0557 150.693C77.0557 148.75 77.0557 146.807 77.0557 144.864C77.0557 144.659 77.0996 144.44 76.9093 144.265C76.1923 143.578 75.4753 142.877 74.7583 142.19C74.4364 141.723 74.0266 141.314 73.5584 140.948Z" fill="#0A5179"/>
<path d="M95.4362 161.345C90.1537 161.345 85.8516 157.05 85.8516 151.775C85.8516 146.501 90.1537 142.206 95.4362 142.206C100.719 142.206 105.021 146.501 105.021 151.775C105.021 157.05 100.719 161.345 95.4362 161.345ZM95.4362 143.944C91.1194 143.944 87.5929 147.451 87.5929 151.775C87.5929 156.085 91.1048 159.606 95.4362 159.606C99.7529 159.606 103.279 156.1 103.279 151.775C103.265 147.465 99.7529 143.944 95.4362 143.944Z" fill="#FAB50D"/>
<path d="M91.6278 142.745C91.8034 143.315 92.0375 143.87 92.5058 144.265C92.5204 144.353 92.5058 144.455 92.535 144.528C93.3691 146.004 94.2178 147.479 95.0519 148.955C95.4031 149.598 95.7543 150.255 96.1201 150.898C96.3396 151.263 96.4274 151.629 96.2372 152.023C95.5494 152.637 95.0373 152.549 94.5837 151.76C94.2178 151.117 93.8374 150.474 93.4715 149.831C92.6082 148.297 91.7302 146.749 90.8669 145.215C90.5889 144.689 90.3694 144.119 89.9304 143.681C89.784 143.067 89.3743 142.599 89.067 141.986C88.1159 143.228 87.2086 144.382 86.316 145.551C85.0137 147.26 83.7114 148.969 82.409 150.664C82.3798 150.679 82.3505 150.664 82.3066 150.65C82.3212 149.685 82.3212 148.706 82.3359 147.728C82.4968 147.669 82.57 147.508 82.6724 147.377C84.165 145.434 85.6722 143.491 87.1647 141.533C87.472 141.124 87.9988 140.729 88.0281 140.306C88.0573 139.853 87.5745 139.385 87.355 138.918C87.2086 138.582 87.0184 138.538 86.6672 138.625C84.7942 139.049 82.9065 139.444 81.0189 139.853C80.4628 139.4 79.9799 138.859 79.4824 138.348C81.5018 137.997 83.4919 137.515 85.4819 137.091C85.6868 137.281 85.8917 137.457 86.0819 137.647C87.0184 138.582 87.6476 138.655 88.789 137.968C89.6084 139.414 90.4425 140.875 91.262 142.322C91.379 142.483 91.4229 142.672 91.6278 142.745Z" fill="#212121"/>
<path d="M79.7207 126.31C82.0327 128.633 84.3593 130.956 86.6713 133.279C86.803 133.425 86.9933 133.527 87.0372 133.732C86.1884 134.477 85.3983 135.281 84.6373 136.128C84.4325 136.07 84.3154 135.894 84.1837 135.763C82.8229 134.404 81.462 133.045 80.0865 131.686C79.9548 131.555 79.8524 131.35 79.6182 131.35C79.2085 130.62 78.55 130.138 77.9501 129.583C77.3648 128.984 76.8233 128.355 76.1941 127.8C75.4478 127.143 75.1552 126.398 75.4478 125.433C75.4771 125.404 75.4917 125.375 75.521 125.331C75.9161 124.805 76.399 124.425 77.0867 124.425C77.8184 124.411 78.272 124.893 78.7549 125.331C79.0475 125.696 79.3695 126.018 79.7207 126.31Z" fill="#FAB50D"/>
<path d="M65.6119 161.345C60.3294 161.345 56.0273 157.05 56.0273 151.775C56.0273 146.501 60.3294 142.206 65.6119 142.206C70.8944 142.206 75.1965 146.501 75.1965 151.775C75.1965 157.05 70.9091 161.345 65.6119 161.345ZM65.6119 143.944C61.2952 143.944 57.7833 147.465 57.7833 151.775C57.7833 156.085 61.2952 159.606 65.6266 159.606C69.9433 159.606 73.4699 156.1 73.4699 151.775C73.4552 147.465 69.9433 143.944 65.6119 143.944Z" fill="#FAB50D"/>
<path d="M70.0595 145.011C70.4546 144.573 70.9082 144.178 71.1716 143.637C71.9618 142.951 72.5471 142.06 73.2495 141.3C73.2495 141.534 73.4397 141.636 73.5714 141.767C73.8348 142.06 74.1713 142.279 74.3616 142.629C73.7616 143.36 73.1763 144.09 72.5763 144.821C72.1959 145.274 71.8008 145.727 71.4203 146.18C70.3229 147.465 69.2254 148.751 68.1279 150.037C68.0255 150.154 67.9084 150.3 67.967 150.46C68.0548 150.665 68.2596 150.68 68.4791 150.68C70.1473 150.665 71.8301 150.665 73.4982 150.665C74.0982 150.665 74.6981 150.665 75.2835 150.665C75.62 150.68 75.9566 150.68 76.3078 150.694C76.1614 151.264 76.1614 151.834 76.3078 152.404C75.9712 152.418 75.6346 152.433 75.3127 152.433C74.6981 152.433 74.0835 152.433 73.4836 152.433C71.713 152.433 69.9424 152.433 68.1865 152.433C67.4402 152.433 66.7085 152.404 65.9622 152.418C65.5525 152.433 65.216 152.331 64.9379 152.038C64.7184 151.556 64.8501 151.162 65.1867 150.753C65.6696 150.197 66.1964 149.672 66.5915 149.043C67.8206 147.787 68.9327 146.399 70.0595 145.011Z" fill="#212121"/>
<path d="M77.0835 120.977C76.3518 120.788 76.1177 120.437 76.2201 119.721C76.4103 118.45 77.4785 117.5 78.7809 117.471C79.7467 117.456 80.7124 117.442 81.6782 117.471C82.6001 117.5 83.3171 117.968 83.7415 118.771C83.9463 119.151 84.1658 119.253 84.5463 119.21C84.7072 119.195 84.8682 119.195 85.0438 119.21C85.512 119.268 85.8486 119.633 85.8486 120.086C85.8486 120.539 85.512 120.904 85.0292 120.948C84.7219 120.977 84.4146 120.963 84.1073 120.977C83.2293 120.977 82.3513 120.977 81.4733 120.977C81.1807 120.977 80.888 120.977 80.5954 120.977C80.3027 120.977 80.01 120.977 79.7174 120.977C78.8394 120.977 77.9614 120.977 77.0835 120.977Z" fill="#DC4F58"/>
<path d="M77.08 124.439C76.3923 124.439 75.9094 124.819 75.5143 125.345C75.485 125.374 75.4704 125.404 75.4411 125.447C74.7241 125.886 74.1681 126.485 73.6852 127.157C72.2511 128.589 70.8171 130.006 69.3831 131.438C69.3684 131.452 69.3392 131.452 69.3245 131.452C67.7588 130.006 68.2124 128.998 69.4416 127.844C70.9342 126.456 72.3389 124.98 73.7876 123.533C74.9143 122.408 75.7484 122.408 76.8752 123.504C76.9337 123.563 77.0068 123.621 77.08 123.68C77.0654 123.928 77.08 124.176 77.08 124.439Z" fill="#DC4F58"/>
<path d="M84.6348 136.129C85.3957 135.281 86.1859 134.492 87.0346 133.732C87.7662 134.302 88.4101 134.974 89.01 135.676C89.5514 136.304 89.4344 137.18 88.8052 137.969C87.6638 138.656 87.0346 138.583 86.0981 137.648C85.9078 137.458 85.703 137.283 85.4981 137.093C85.264 136.742 84.8543 136.523 84.6348 136.129Z" fill="#EFC8A0"/>
<path d="M84.0802 121.824C84.051 122.73 84.2412 123.636 83.9046 124.527C83.5242 125.535 82.5584 126.207 81.4609 126.193C81.4756 124.746 81.4756 123.285 81.4902 121.839C82.3535 121.824 83.2169 121.824 84.0802 121.824Z" fill="#EFC8A0"/>
<path d="M77.0869 124.439C77.0869 124.191 77.0723 123.928 77.0723 123.68C77.0869 123.066 77.1015 122.452 77.1015 121.824C77.9649 121.824 78.8282 121.824 79.6916 121.824C79.6916 122.642 79.7062 123.461 79.7062 124.264C79.7062 124.965 79.4721 125.214 78.7551 125.331C78.2722 124.907 77.8185 124.41 77.0869 124.439Z" fill="#0A5179"/>
<path d="M78.752 125.346C79.469 125.229 79.7031 124.966 79.7031 124.28C79.7031 123.462 79.6885 122.643 79.6885 121.84H79.7177C79.9958 121.84 80.2884 121.84 80.5664 121.84H80.5957C80.5957 123.286 80.5957 124.747 80.5811 126.194C80.2884 126.267 79.9665 126.091 79.7031 126.311C79.3665 126.018 79.0446 125.697 78.752 125.346Z" fill="#EFC8A0"/>
<path d="M80.5996 126.194C80.5996 124.747 80.5996 123.286 80.6142 121.84C80.8923 121.84 81.1703 121.84 81.4483 121.84H81.4922C81.4776 123.286 81.4776 124.747 81.463 126.194C81.1703 126.194 80.8923 126.194 80.5996 126.194Z" fill="#0A5179"/>
<path d="M84.0792 121.825C83.2159 121.825 82.3526 121.825 81.4892 121.825H81.4453C81.4453 121.533 81.4599 121.256 81.4599 120.963C82.3379 120.963 83.2159 120.963 84.0939 120.963C84.0939 121.256 84.0792 121.533 84.0792 121.825Z" fill="#D3AB82"/>
<path d="M79.7043 121.825C78.8409 121.825 77.9776 121.825 77.1142 121.825C77.1142 121.533 77.0996 121.256 77.0996 120.963C77.9776 120.963 78.8556 120.963 79.7335 120.963C79.7335 121.256 79.7482 121.533 79.7482 121.825C79.7335 121.825 79.7043 121.825 79.7043 121.825Z" fill="#193457"/>
<path d="M74.3641 142.63C74.1738 142.279 73.8226 142.06 73.5739 141.768C73.4422 141.622 73.252 141.52 73.252 141.3C73.3544 141.183 73.4568 141.067 73.5592 140.95C74.0275 141.315 74.4372 141.724 74.7884 142.177C74.6714 142.352 74.5543 142.528 74.3641 142.63Z" fill="black"/>
<path d="M69.3867 131.438C70.8208 130.006 72.2548 128.589 73.6888 127.157C73.762 127.317 73.8351 127.493 73.9083 127.653C74.6253 129.217 76.2788 130.006 77.9324 129.597C78.5323 130.152 79.1908 130.634 79.6005 131.365C78.4299 132.563 77.2593 133.746 76.0886 134.944C74.4644 135.806 73.5425 135.675 72.2401 134.36C71.289 133.381 70.3379 132.402 69.3867 131.438Z" fill="#FAB50D"/>
<path d="M82.3255 150.665C82.3548 150.68 82.384 150.68 82.4279 150.68C83.0718 150.767 83.5986 151.06 83.9059 151.659C84.2132 152.272 84.1546 152.944 84.0376 153.572C83.9644 153.982 83.6132 154.186 83.1888 154.186C82.7206 154.201 82.2523 154.201 81.7694 154.201C80.4232 154.201 79.077 154.186 77.7307 154.186C77.2479 153.952 77.043 153.572 77.0869 153.032C77.1015 152.827 77.0723 152.637 77.0723 152.433C77.0723 151.848 77.0869 151.264 77.0869 150.68V150.694C78.8429 150.68 80.5842 150.665 82.3255 150.665Z" fill="#DC4F58"/>
<path d="M95.055 148.956C97.1914 148.649 98.7572 150.812 97.8353 152.696C97.1914 154.04 95.5672 154.566 94.2502 153.88C92.8747 153.149 92.4504 151.571 93.2552 150.139C93.5771 151.089 94.177 151.893 94.6453 152.769C94.9233 153.266 95.377 153.427 95.8306 153.222C96.2842 153.003 96.4159 152.609 96.2257 152.024C96.4013 151.63 96.3135 151.264 96.1086 150.899C95.7574 150.271 95.4209 149.614 95.055 148.956Z" fill="#DC4F58"/>
<path d="M96.2517 152.039C96.442 152.609 96.3103 153.018 95.8567 153.237C95.403 153.456 94.9494 153.295 94.6714 152.784C94.2031 151.907 93.6032 151.104 93.2812 150.154C93.3544 150.052 93.4129 149.949 93.4861 149.847C93.8519 150.49 94.2324 151.133 94.5982 151.776C95.0518 152.565 95.564 152.652 96.2517 152.039Z" fill="#DC4F58"/>
<path d="M77.935 129.582C76.2814 130.006 74.6133 129.202 73.9109 127.639C73.8377 127.478 73.7646 127.317 73.6914 127.142C74.1743 126.47 74.7157 125.856 75.4474 125.433C75.1693 126.397 75.4474 127.142 76.1936 127.799C76.8082 128.355 77.3643 128.983 77.935 129.582Z" fill="#DC4F58"/>
<path d="M75.4473 125.434C75.4765 125.405 75.4912 125.375 75.5204 125.332C75.4912 125.361 75.4765 125.405 75.4473 125.434Z" fill="#DC4F58"/>
<path d="M67.5884 153.339C66.7251 154.289 65.3935 154.464 64.3106 153.792C63.2132 153.12 62.7742 151.79 63.2424 150.607C63.696 149.453 64.9545 148.751 66.1544 148.985C66.3007 149.014 66.4324 149.058 66.5787 149.088C66.1836 149.716 65.6569 150.242 65.174 150.797C64.8374 151.191 64.7057 151.586 64.9252 152.083C64.6618 152.755 64.9837 153.295 65.6861 153.325C66.33 153.339 66.9592 153.325 67.5884 153.339Z" fill="#DC4F58"/>
<path d="M67.5887 153.339C66.9595 153.339 66.3303 153.339 65.6864 153.31C64.9987 153.281 64.6621 152.74 64.9255 152.068C65.2035 152.361 65.5401 152.448 65.9498 152.448C66.6961 152.434 67.4277 152.448 68.174 152.463C68.0423 152.784 67.9106 153.12 67.5887 153.339Z" fill="#DC4F58"/>
<path d="M77.0689 152.434C76.8202 152.434 76.5714 152.419 76.3226 152.419C76.1763 151.849 76.1763 151.28 76.3226 150.71C76.5714 150.695 76.8348 150.695 77.0836 150.681C77.0836 151.265 77.0689 151.849 77.0689 152.434Z" fill="black"/>
<path d="M81.462 120.976C81.462 121.268 81.4473 121.546 81.4473 121.838C81.1693 121.838 80.8913 121.838 80.6132 121.838H80.584C80.584 121.546 80.5986 121.268 80.5986 120.976C80.8766 120.976 81.1693 120.976 81.462 120.976Z" fill="#193457"/>
<path d="M80.5928 120.976C80.5928 121.268 80.5782 121.546 80.5782 121.838C80.3002 121.838 80.0075 121.838 79.7295 121.838C79.7295 121.546 79.7148 121.268 79.7148 120.976C80.0075 120.976 80.3002 120.976 80.5928 120.976Z" fill="#D3AB82"/>
<path d="M81.7721 154.2C82.1819 154.463 82.4745 154.799 82.2989 155.325C82.1233 155.851 81.699 155.938 81.2015 155.938C80.2211 155.924 79.226 155.924 78.2456 155.938C77.7188 155.953 77.2798 155.821 77.1335 155.281C76.9872 154.755 77.3091 154.419 77.7334 154.185C79.0797 154.185 80.4259 154.2 81.7721 154.2Z" fill="#FAB50D"/>
<path d="M73.4672 152.974C73.4818 153.062 73.4818 153.135 73.394 153.194C73.3648 153.106 73.394 153.033 73.4672 152.974Z" fill="#12537B"/>
<path d="M54.7813 91.3252C55.0056 91.5027 55.289 91.4199 55.5251 91.5382C55.4424 91.5855 55.3716 91.6565 55.289 91.6802C53.1403 92.2718 51.4993 93.5615 50.3424 95.4547C49.4924 96.8509 49.0674 98.4128 49.1736 100.022C49.2209 100.838 48.9493 101.193 48.3236 101.525C47.0014 102.223 45.9035 103.193 45.1243 104.483C43.991 106.329 43.5778 108.305 43.9556 110.458C44.2979 112.411 45.2188 114.032 46.6708 115.321C47.1313 115.724 47.2257 116.09 47.0722 116.623C46.659 118.173 46.8007 119.711 47.6035 121.072C48.7841 123.072 50.5195 124.255 52.916 124.314C52.8452 125.604 52.7744 126.882 52.6917 128.171C51.3459 128.148 50 128.278 48.6542 127.994C44.8056 127.166 42.1493 124.917 40.6618 121.285C40.0951 119.9 39.8826 118.445 39.9889 116.954C40.0125 116.576 39.918 116.28 39.6583 115.972C34.9361 110.304 36.4354 101.56 42.7632 97.762C43.684 97.2059 44.6403 96.7681 45.6674 96.4723C45.9271 96.4013 46.0924 96.2593 46.2222 96.0227C47.2729 93.952 48.9139 92.5558 51.098 91.7748C51.5938 91.5618 52.1368 91.5618 52.6209 91.3252C53.341 91.3252 54.0612 91.3252 54.7813 91.3252Z" fill="#699C3B"/>
<path d="M52.9175 124.29C50.5209 124.243 48.7855 123.047 47.605 121.048C46.8022 119.675 46.6487 118.149 47.0737 116.599C47.2154 116.055 47.1209 115.7 46.6723 115.297C45.2084 114.008 44.2876 112.386 43.957 110.434C43.5792 108.281 44.0042 106.305 45.1258 104.459C45.9167 103.169 47.0029 102.199 48.3251 101.501C48.9508 101.169 49.2223 100.814 49.1751 99.998C49.0807 98.3888 49.4939 96.8269 50.3439 95.4307C51.5008 93.5375 53.1418 92.2478 55.2904 91.6561C55.3731 91.6325 55.4557 91.5615 55.5265 91.5142C57.6043 91.9756 59.2689 93.076 60.5203 94.7799C60.721 95.052 60.9217 95.1585 61.2523 95.1704C65.3606 95.3005 68.7724 98.1166 69.6224 102.14C70.1065 104.447 69.7287 106.648 68.4419 108.647C68.2294 108.991 68.2412 109.192 68.4773 109.511C73.1405 115.794 69.6106 124.917 61.937 126.408C59.989 126.787 58.0647 126.609 56.1994 125.97C56.1876 125.745 56.164 125.532 56.1522 125.307C56.1522 125.177 56.1758 125.059 56.164 124.929C56.0932 124.006 55.6682 123.722 54.7828 124.006C54.1925 124.219 53.5668 124.314 52.9175 124.29Z" fill="#82B654"/>
<path d="M52.9171 124.29C53.5664 124.314 54.1921 124.207 54.806 124.018C55.6914 123.734 56.1164 124.03 56.1872 124.941C56.199 125.059 56.1754 125.189 56.1754 125.319C55.8803 125.414 55.5733 125.509 55.29 125.615C54.6407 125.84 54.5108 126.029 54.5108 126.727C54.5108 130.538 54.5108 134.336 54.5108 138.146C53.7553 138.146 52.9997 138.146 52.2441 138.146C52.3976 134.986 52.5511 131.839 52.7046 128.68C52.7164 128.502 52.7046 128.337 52.7046 128.159C52.7754 126.869 52.8462 125.58 52.9171 124.29Z" fill="#975D52"/>
<path d="M54.498 138.134C54.498 134.324 54.498 130.526 54.498 126.716C54.498 126.018 54.6279 125.828 55.2772 125.603C55.5724 125.497 55.8675 125.402 56.1626 125.308C56.1744 125.532 56.1981 125.745 56.2099 125.97C56.3043 128.183 56.3988 130.396 56.505 132.608C56.5876 134.442 56.6821 136.276 56.7647 138.122C56.0092 138.134 55.2536 138.134 54.498 138.134Z" fill="#B0705C"/>
<path d="M93.6672 125.303H88.0447C86.7473 125.303 85.666 124.248 85.666 122.928V117.314C85.666 116.019 86.7232 114.939 88.0447 114.939H93.6672C94.9646 114.939 96.0459 115.995 96.0459 117.314V122.928C96.0459 124.248 94.9887 125.303 93.6672 125.303Z" fill="white"/>
</g>
<path fill-rule="evenodd" clip-rule="evenodd" d="M157.057 127.754L157.045 127.786C157.024 127.842 156.998 127.915 156.948 128.057L156.942 128.072C156.9 128.192 156.836 128.371 156.769 128.552C155.44 132.086 153.807 135.443 151.909 138.623C148.894 143.722 145.18 148.37 140.937 152.441C140.557 152.817 140.166 153.173 139.869 153.442C139.721 153.584 139.596 153.696 139.536 153.75L139.527 153.757L139.508 153.774L139.468 153.815L139.32 153.948C139.017 154.223 138.595 154.606 138.147 154.974L138.143 154.977C137.369 155.63 136.489 156.373 135.559 157.095L135.549 157.102L135.54 157.11C133.185 158.921 130.668 160.62 127.987 162.129L127.981 162.132C126.426 163.005 124.764 163.887 123.025 164.685M135.673 148.987C136.011 148.681 136.349 148.375 136.656 148.068C140.527 144.36 143.907 140.131 146.642 135.504C148.362 132.623 149.837 129.59 151.035 126.403C151.081 126.28 151.127 126.15 151.174 126.02C151.22 125.889 151.266 125.759 151.312 125.637C153.616 119.293 154.876 112.459 154.876 105.35C154.876 102.776 154.722 100.263 154.415 97.7809C154.292 96.8002 154.169 95.8503 153.985 94.9003C153.432 91.8665 152.664 88.9247 151.681 86.0747C143.661 62.8157 121.539 46.1146 95.5154 46.1146C63.4078 46.1146 37.2609 71.5187 36.1548 103.266C36.1241 103.971 36.1241 104.645 36.1241 105.35C36.1241 109.671 36.585 113.9 37.5067 118.006C37.5682 118.267 37.6296 118.535 37.6911 118.803C37.7525 119.071 37.814 119.339 37.8754 119.6C37.9098 119.771 37.9538 119.933 37.9967 120.091C38.0304 120.215 38.0634 120.336 38.0905 120.458C38.152 120.687 38.2211 120.925 38.2902 121.162C38.3593 121.4 38.4285 121.637 38.4899 121.867C39.043 123.767 39.6882 125.637 40.4256 127.475C40.4563 127.536 40.4794 127.598 40.5024 127.659C40.5255 127.72 40.5485 127.782 40.5792 127.843C41.0708 129.038 41.5931 130.203 42.1462 131.336C43.0372 133.206 44.0511 135.014 45.1572 136.76C46.2326 138.507 47.4309 140.193 48.6906 141.817C48.706 141.832 48.7213 141.855 48.7367 141.878C48.7521 141.901 48.7674 141.924 48.7828 141.939C50.0732 143.594 51.4558 145.157 52.8999 146.658C53.5144 147.271 54.1289 147.884 54.7434 148.466C56.3718 150.029 58.1231 151.5 59.9359 152.849C60.7346 153.431 61.5338 154.013 62.3632 154.565C63.0374 155.021 63.7494 155.458 64.4547 155.892C64.6494 156.012 64.8435 156.131 65.0363 156.25C65.0516 156.265 65.067 156.273 65.0823 156.281C65.0977 156.288 65.1131 156.296 65.1284 156.311C66.9719 157.415 68.9076 158.426 70.9047 159.315C73.1476 160.326 75.4213 161.184 77.7871 161.919C77.8946 161.95 77.9945 161.981 78.0943 162.011C78.1942 162.042 78.2941 162.073 78.4016 162.103C83.8092 163.727 89.5547 164.585 95.4846 164.585C96.2528 164.585 97.0209 164.585 97.7583 164.555C99.8476 164.463 101.906 164.279 103.934 164.003C105.747 163.758 107.56 163.421 109.311 162.992C113.213 162.073 116.931 160.755 120.464 159.131C122 158.426 123.506 157.629 124.981 156.802C127.377 155.453 129.651 153.921 131.801 152.266C132.631 151.623 133.43 150.949 134.229 150.274C134.567 149.999 134.905 149.692 135.243 149.386C135.301 149.328 135.366 149.27 135.434 149.209C135.511 149.141 135.592 149.068 135.673 148.987ZM123.024 164.685C119.159 166.462 115.064 167.917 110.744 168.937C108.777 169.418 106.761 169.791 104.761 170.062C102.544 170.363 100.299 170.563 98.0279 170.663L98.0204 170.664L98.013 170.664C97.1471 170.7 96.2708 170.7 95.5383 170.7H95.4846C88.9756 170.7 82.6482 169.76 76.6747 167.97C76.5247 167.927 76.3922 167.886 76.3067 167.86L76.295 167.856C76.1883 167.823 76.1455 167.81 76.1063 167.799L76.0362 167.779L75.9665 167.758C73.3741 166.952 70.8707 166.008 68.3977 164.893C66.1732 163.903 64.0237 162.779 61.9801 161.556L61.3336 161.169L61.294 161.13C60.5881 160.696 59.736 160.173 58.9486 159.641C58.0161 159.02 57.1345 158.377 56.3682 157.819L56.3011 157.77L56.2773 157.752C54.2765 156.264 52.3331 154.633 50.5136 152.888C49.8465 152.256 49.1901 151.601 48.5966 151.009L48.5267 150.939L48.4825 150.894C46.946 149.296 45.4424 147.601 44.0181 145.782C43.9291 145.673 43.8583 145.578 43.8086 145.51C43.8033 145.503 43.7981 145.496 43.793 145.489C42.4583 143.764 41.154 141.931 39.9605 139.996C38.7509 138.083 37.6267 136.081 36.6284 133.989C36.0406 132.783 35.4861 131.549 34.9645 130.288C34.9248 130.199 34.8917 130.12 34.865 130.054C34.8577 130.036 34.8506 130.019 34.8437 130.002L34.8351 129.984L34.7404 129.748C33.9286 127.724 33.2181 125.666 32.6092 123.574L32.5904 123.509L32.573 123.444C32.532 123.291 32.4823 123.119 32.4094 122.869L32.4026 122.845C32.3379 122.623 32.2526 122.33 32.1736 122.035L32.1404 121.911L32.1176 121.808C32.1171 121.806 32.1166 121.804 32.116 121.802C32.109 121.776 32.1033 121.755 32.0923 121.714C32.0868 121.694 32.0802 121.669 32.0714 121.637L32.071 121.636C32.0341 121.499 31.9629 121.237 31.8958 120.922C31.8363 120.669 31.7779 120.414 31.7236 120.177L31.7213 120.167C31.659 119.895 31.6019 119.646 31.5458 119.408L31.5381 119.376L31.5309 119.343C30.5076 114.785 30 110.107 30 105.35L30 105.302C30 104.634 30 103.856 30.0353 103.028C31.2692 68.0069 60.1104 40 95.5154 40C124.229 40 148.626 58.4301 157.471 84.0845C158.554 87.2227 159.397 90.4532 160.004 93.7724C160.228 94.9359 160.371 96.0612 160.492 97.0216L160.493 97.0309C160.832 99.7675 161 102.531 161 105.35C161 113.185 159.611 120.724 157.069 127.721L157.057 127.754M62.3177 161.737C62.3269 161.742 62.3353 161.746 62.3407 161.748L62.3346 161.745L62.3177 161.737Z" fill="#212121"/>
<path d="M60.6309 85.2646L77.6663 74.7569C78.8437 74.0132 80.3814 74.8768 80.3814 76.2682V85.2646L97.5851 74.7329C98.7624 74.0132 100.3 74.8528 100.3 76.2443V85.2646H60.6309Z" fill="#786E7A"/>
<path d="M111.282 125.304H105.66C104.362 125.304 103.281 124.249 103.281 122.929V117.315C103.281 116.02 104.338 114.94 105.66 114.94H111.282C112.58 114.94 113.661 115.996 113.661 117.315V122.929C113.637 124.249 112.58 125.304 111.282 125.304Z" fill="white"/>
<path d="M78.9464 102.334C78.9464 102.574 78.9464 102.79 78.9464 103.006C78.9464 103.102 78.9464 103.174 78.8503 103.197C78.7542 103.245 78.7062 103.174 78.6341 103.102C78.0574 102.478 77.4808 101.83 76.9041 101.206C76.808 101.086 76.808 101.038 76.9041 100.918C77.4808 100.295 78.0574 99.6469 78.6341 99.0232C78.6821 98.9752 78.7783 98.9272 78.8263 98.9512C78.8744 98.9752 78.9224 99.0712 78.9224 99.1431C78.9224 99.3591 78.9224 99.575 78.9224 99.7909C78.9705 99.7909 79.0185 99.7909 79.0666 99.7909C79.7153 99.7909 80.3881 99.7909 81.0368 99.7909C81.5895 99.7909 82.1421 99.7189 82.6707 99.527C82.7428 99.503 82.8149 99.479 82.8869 99.431C83.2954 99.2391 83.3915 99.0232 83.3194 98.5674C83.6318 99.0232 83.848 99.479 83.6558 100.055C83.6318 100.151 83.5837 100.247 83.5117 100.343C83.3194 100.679 83.1272 101.038 82.911 101.374C82.5506 101.998 82.022 102.286 81.3011 102.31C80.5563 102.31 79.8114 102.31 79.0666 102.31C79.0666 102.334 79.0185 102.334 78.9464 102.334Z" fill="#212121"/>
<path d="M73.6621 102.286C73.4218 102.262 73.1575 102.286 72.9172 102.238C72.5328 102.166 72.2445 101.951 72.0523 101.615C71.836 101.231 71.6198 100.871 71.4035 100.487C71.0671 99.9114 71.0912 99.3116 71.4035 98.7119C71.788 98.0402 72.1724 97.3924 72.5568 96.7207C72.5809 96.6727 72.6049 96.6487 72.6289 96.6007C72.4367 96.4808 72.2445 96.3848 72.0763 96.2649C72.0042 96.2169 71.9081 96.1929 71.9321 96.073C71.9561 95.977 72.0282 95.953 72.1243 95.929C72.9653 95.7371 73.7822 95.5692 74.6232 95.3772C74.7674 95.3533 74.8154 95.3772 74.8635 95.5212C75.1278 96.3369 75.3921 97.1525 75.6324 97.9682C75.6564 98.0402 75.6324 98.1361 75.6083 98.1841C75.5362 98.2561 75.4642 98.2081 75.3921 98.1601C75.1999 98.0642 75.0317 97.9442 74.8394 97.8242C74.8154 97.8722 74.7914 97.8962 74.7674 97.9442C74.431 98.52 74.0946 99.0957 73.7582 99.6955C73.4699 100.199 73.2536 100.727 73.1815 101.303C73.1575 101.471 73.1575 101.639 73.2056 101.783C73.2536 102.047 73.4459 102.19 73.7102 102.238C73.6621 102.262 73.6621 102.262 73.6621 102.286Z" fill="#212121"/>
<path d="M78.6095 95.256C78.0809 94.4164 77.6004 93.5767 77.0718 92.785C76.9036 92.5211 76.6393 92.3292 76.423 92.1133C76.375 92.0653 76.3269 92.0413 76.2789 92.0174C75.9905 91.8494 75.7022 91.7295 75.3418 92.0893C75.5821 91.5615 75.9185 91.1297 76.5191 91.0338C76.6153 91.0098 76.7354 91.0098 76.8315 91.0098C77.2159 91.0098 77.6004 91.0098 77.9848 91.0098C78.6576 91.0098 79.1862 91.2976 79.5226 91.8974C79.907 92.5691 80.2915 93.2409 80.6759 93.8886C80.6999 93.9366 80.7239 93.9606 80.748 94.0085C80.9402 93.8886 81.1324 93.7926 81.3006 93.6967C81.3727 93.6487 81.4448 93.6007 81.5409 93.6727C81.637 93.7447 81.5889 93.8166 81.5649 93.9126C81.3006 94.7283 81.0603 95.5199 80.796 96.3356C80.748 96.5035 80.6999 96.5275 80.5317 96.4795C79.6908 96.2876 78.8738 96.1197 78.0329 95.9278C77.9608 95.9038 77.8647 95.8558 77.8647 95.7838C77.8647 95.7358 77.9368 95.6399 77.9848 95.6159C78.2011 95.4959 78.3933 95.376 78.6095 95.256Z" fill="#212121"/>
<path d="M74.0938 94.2489C74.1178 94.1769 74.1418 94.1529 74.1658 94.1049C74.4782 93.5771 74.7665 93.0494 75.0789 92.5456C75.3672 92.0418 75.7276 91.9698 76.2082 92.2817C76.6887 92.6175 77.0251 93.0734 77.3375 93.5532C77.3615 93.5771 77.3375 93.6491 77.3375 93.6731C77.0251 94.2489 76.6887 94.8006 76.3523 95.3764C76.2802 95.4964 76.2082 95.5204 76.088 95.4484C75.4633 95.0885 74.8626 94.7287 74.2379 94.3688C74.1658 94.3448 74.1178 94.2729 74.0938 94.2489Z" fill="#212121"/>
<path d="M83.2477 98.5426C83.2477 98.8545 83.1036 99.0224 82.9113 99.1424C82.575 99.3583 82.2146 99.4302 81.8301 99.5022C81.5898 99.5502 81.3496 99.5502 81.1093 99.5742C81.0612 99.5742 80.9892 99.5502 80.9651 99.5022C80.6287 98.9264 80.2924 98.3747 79.98 97.7989C79.9079 97.7029 79.9319 97.607 80.0521 97.559C80.6768 97.1992 81.3015 96.8393 81.9262 96.4794C82.0223 96.4075 82.1184 96.4315 82.1665 96.5514C82.4789 97.1032 82.8152 97.655 83.1276 98.2307C83.1757 98.3267 83.2237 98.4706 83.2477 98.5426Z" fill="#212121"/>
<path d="M76.2318 101.015C76.2318 101.351 76.2318 101.71 76.2318 102.046C76.2318 102.214 76.1837 102.262 76.0155 102.262C75.3908 102.262 74.7661 102.262 74.1654 102.262C73.5887 102.262 73.3725 101.926 73.4205 101.422C73.4686 100.847 73.7089 100.319 73.9491 99.8151C73.9732 99.7911 74.0212 99.7432 74.0693 99.7432C74.718 99.7432 75.3908 99.7432 76.0395 99.7432C76.1597 99.7432 76.2077 99.7911 76.2077 99.9351C76.2318 100.295 76.2318 100.655 76.2318 101.015Z" fill="#212121"/>
<path d="M151.333 123.312L144.826 136.305L142.059 77.7559H149.315L151.333 123.312Z" fill="#6A6069"/>
<path d="M141.648 68.4947H125.525L125.886 60.9377C125.886 60.9377 125.982 57.5791 128.889 57.5791H137.131C137.251 57.5791 137.299 57.5791 137.299 57.5791H141.191L141.648 68.4947Z" fill="#786E7A"/>
<path d="M149.315 77.7549H142.059L141.65 68.4946H148.883L149.315 77.7549Z" fill="#F3F1EB"/>
<path d="M148.885 68.4947H141.652L141.172 57.5791H145.521C148.428 57.5791 148.524 60.9377 148.524 60.9377L148.885 68.4947Z" fill="#6A6069"/>
<path d="M38.7339 219.7H33.9355L33.9658 216.158H38.7339C39.9246 216.158 40.9287 215.891 41.7461 215.356C42.5635 214.811 43.179 214.019 43.5928 212.979C44.0166 211.94 44.2285 210.684 44.2285 209.21V208.136C44.2285 207.006 44.1074 206.012 43.8652 205.154C43.6331 204.296 43.285 203.575 42.8208 202.989C42.3566 202.404 41.7865 201.965 41.1104 201.672C40.4342 201.37 39.6572 201.218 38.7793 201.218H33.8447V197.661H38.7793C40.2526 197.661 41.5998 197.913 42.8208 198.418C44.0519 198.912 45.1165 199.624 46.0146 200.552C46.9128 201.481 47.604 202.591 48.0884 203.882C48.5828 205.164 48.8301 206.592 48.8301 208.166V209.21C48.8301 210.775 48.5828 212.202 48.0884 213.494C47.604 214.786 46.9128 215.896 46.0146 216.824C45.1266 217.743 44.062 218.454 42.8208 218.958C41.5897 219.453 40.2274 219.7 38.7339 219.7ZM36.5088 197.661V219.7H31.9678V197.661H36.5088ZM59.3955 220.003C58.124 220.003 56.9837 219.801 55.9746 219.397C54.9655 218.984 54.1077 218.414 53.4014 217.687C52.7051 216.96 52.1702 216.118 51.7969 215.159C51.4235 214.19 51.2368 213.161 51.2368 212.071V211.466C51.2368 210.225 51.4134 209.089 51.7666 208.06C52.1198 207.031 52.6243 206.138 53.2803 205.381C53.9463 204.624 54.7536 204.044 55.7021 203.64C56.6507 203.226 57.7204 203.02 58.9111 203.02C60.0716 203.02 61.1009 203.211 61.999 203.595C62.8971 203.978 63.6489 204.523 64.2544 205.229C64.87 205.936 65.3341 206.784 65.647 207.772C65.9598 208.751 66.1162 209.841 66.1162 211.042V212.858H53.0986V209.952H61.8325V209.619C61.8325 209.014 61.7215 208.474 61.4995 208C61.2876 207.515 60.9647 207.132 60.5308 206.849C60.0968 206.567 59.5418 206.425 58.8657 206.425C58.2905 206.425 57.7961 206.551 57.3823 206.804C56.9686 207.056 56.6305 207.409 56.3682 207.863C56.1159 208.317 55.9242 208.852 55.793 209.468C55.6719 210.073 55.6113 210.739 55.6113 211.466V212.071C55.6113 212.727 55.7021 213.333 55.8838 213.888C56.0755 214.443 56.3429 214.922 56.686 215.326C57.0392 215.729 57.4631 216.042 57.9575 216.264C58.4621 216.486 59.0322 216.597 59.668 216.597C60.4551 216.597 61.1867 216.446 61.8628 216.143C62.549 215.83 63.1393 215.361 63.6338 214.735L65.7529 217.036C65.4098 217.531 64.9406 218.005 64.3452 218.459C63.7599 218.913 63.0535 219.286 62.2261 219.579C61.3986 219.862 60.4551 220.003 59.3955 220.003ZM56.3228 201.097L59.2896 196.435H64.0273L59.8647 201.097H56.3228ZM75.3647 216.597C75.8996 216.597 76.3739 216.496 76.7876 216.294C77.2013 216.083 77.5243 215.79 77.7563 215.417C77.9985 215.033 78.1247 214.584 78.1348 214.069H82.2368C82.2267 215.22 81.9189 216.244 81.3135 217.142C80.708 218.03 79.8957 218.731 78.8765 219.246C77.8573 219.751 76.717 220.003 75.4556 220.003C74.1841 220.003 73.0741 219.791 72.1255 219.367C71.187 218.943 70.4049 218.358 69.7793 217.611C69.1536 216.854 68.6844 215.977 68.3716 214.978C68.0588 213.968 67.9023 212.889 67.9023 211.738V211.299C67.9023 210.139 68.0588 209.059 68.3716 208.06C68.6844 207.051 69.1536 206.173 69.7793 205.426C70.4049 204.669 71.187 204.079 72.1255 203.655C73.064 203.231 74.1639 203.02 75.4253 203.02C76.7674 203.02 77.943 203.277 78.9521 203.792C79.9714 204.306 80.7686 205.043 81.3438 206.001C81.929 206.95 82.2267 208.075 82.2368 209.377H78.1348C78.1247 208.832 78.0086 208.338 77.7866 207.894C77.5747 207.45 77.2619 207.096 76.8481 206.834C76.4445 206.562 75.945 206.425 75.3496 206.425C74.7139 206.425 74.1942 206.562 73.7905 206.834C73.3869 207.096 73.0741 207.46 72.8521 207.924C72.63 208.378 72.4736 208.898 72.3828 209.483C72.3021 210.058 72.2617 210.664 72.2617 211.299V211.738C72.2617 212.374 72.3021 212.985 72.3828 213.57C72.4635 214.155 72.6149 214.675 72.8369 215.129C73.069 215.583 73.3869 215.941 73.7905 216.204C74.1942 216.466 74.7189 216.597 75.3647 216.597ZM89.0181 196.45V219.7H84.6587V196.45H89.0181ZM88.3975 210.936H87.2017C87.2118 209.796 87.3631 208.746 87.6558 207.788C87.9484 206.819 88.3672 205.981 88.9121 205.275C89.457 204.558 90.1079 204.003 90.8647 203.61C91.6317 203.216 92.4793 203.02 93.4077 203.02C94.215 203.02 94.9466 203.136 95.6025 203.368C96.2686 203.59 96.8387 203.953 97.313 204.458C97.7974 204.952 98.1707 205.603 98.4331 206.41C98.6955 207.217 98.8267 208.196 98.8267 209.347V219.7H94.437V209.316C94.437 208.59 94.3311 208.02 94.1191 207.606C93.9173 207.182 93.6196 206.884 93.2261 206.713C92.8426 206.531 92.3683 206.44 91.8032 206.44C91.1776 206.44 90.6427 206.556 90.1987 206.789C89.7648 207.021 89.4167 207.344 89.1543 207.757C88.8919 208.161 88.7002 208.635 88.5791 209.18C88.458 209.725 88.3975 210.31 88.3975 210.936ZM109.68 220.003C108.408 220.003 107.268 219.801 106.259 219.397C105.25 218.984 104.392 218.414 103.686 217.687C102.989 216.96 102.454 216.118 102.081 215.159C101.708 214.19 101.521 213.161 101.521 212.071V211.466C101.521 210.225 101.698 209.089 102.051 208.06C102.404 207.031 102.909 206.138 103.564 205.381C104.23 204.624 105.038 204.044 105.986 203.64C106.935 203.226 108.005 203.02 109.195 203.02C110.356 203.02 111.385 203.211 112.283 203.595C113.181 203.978 113.933 204.523 114.539 205.229C115.154 205.936 115.618 206.784 115.931 207.772C116.244 208.751 116.4 209.841 116.4 211.042V212.858H103.383V209.952H112.117V209.619C112.117 209.014 112.006 208.474 111.784 208C111.572 207.515 111.249 207.132 110.815 206.849C110.381 206.567 109.826 206.425 109.15 206.425C108.575 206.425 108.08 206.551 107.667 206.804C107.253 207.056 106.915 207.409 106.652 207.863C106.4 208.317 106.208 208.852 106.077 209.468C105.956 210.073 105.896 210.739 105.896 211.466V212.071C105.896 212.727 105.986 213.333 106.168 213.888C106.36 214.443 106.627 214.922 106.97 215.326C107.323 215.729 107.747 216.042 108.242 216.264C108.746 216.486 109.316 216.597 109.952 216.597C110.739 216.597 111.471 216.446 112.147 216.143C112.833 215.83 113.424 215.361 113.918 214.735L116.037 217.036C115.694 217.531 115.225 218.005 114.629 218.459C114.044 218.913 113.338 219.286 112.51 219.579C111.683 219.862 110.739 220.003 109.68 220.003ZM126.905 203.322V206.41H117.369V203.322H126.905ZM119.73 199.281H124.09V214.766C124.09 215.24 124.15 215.603 124.271 215.855C124.403 216.108 124.594 216.284 124.847 216.385C125.099 216.476 125.417 216.521 125.8 216.521C126.073 216.521 126.315 216.511 126.527 216.491C126.749 216.461 126.936 216.431 127.087 216.4L127.102 219.609C126.729 219.73 126.325 219.826 125.891 219.897C125.457 219.968 124.978 220.003 124.453 220.003C123.494 220.003 122.657 219.847 121.94 219.534C121.234 219.211 120.689 218.696 120.306 217.99C119.922 217.283 119.73 216.355 119.73 215.205V199.281ZM138.243 215.174C138.243 214.861 138.152 214.579 137.97 214.327C137.789 214.074 137.451 213.842 136.956 213.63C136.472 213.408 135.77 213.207 134.852 213.025C134.025 212.843 133.253 212.616 132.536 212.344C131.83 212.061 131.214 211.723 130.689 211.33C130.175 210.936 129.771 210.472 129.479 209.937C129.186 209.392 129.04 208.771 129.04 208.075C129.04 207.389 129.186 206.743 129.479 206.138C129.781 205.532 130.21 204.997 130.765 204.533C131.33 204.059 132.016 203.691 132.824 203.428C133.641 203.156 134.559 203.02 135.579 203.02C137.001 203.02 138.222 203.247 139.242 203.701C140.271 204.155 141.058 204.78 141.603 205.578C142.158 206.365 142.436 207.263 142.436 208.272H138.076C138.076 207.848 137.985 207.47 137.804 207.137C137.632 206.794 137.36 206.526 136.986 206.334C136.623 206.133 136.149 206.032 135.563 206.032C135.079 206.032 134.66 206.118 134.307 206.289C133.954 206.451 133.681 206.673 133.49 206.955C133.308 207.228 133.217 207.53 133.217 207.863C133.217 208.116 133.268 208.343 133.369 208.544C133.48 208.736 133.656 208.913 133.898 209.074C134.141 209.236 134.453 209.387 134.837 209.528C135.23 209.66 135.715 209.781 136.29 209.892C137.471 210.134 138.525 210.452 139.454 210.845C140.382 211.229 141.119 211.753 141.664 212.419C142.208 213.075 142.481 213.938 142.481 215.008C142.481 215.734 142.319 216.4 141.997 217.006C141.674 217.611 141.209 218.141 140.604 218.595C139.999 219.039 139.272 219.387 138.424 219.64C137.587 219.882 136.643 220.003 135.594 220.003C134.07 220.003 132.778 219.73 131.719 219.186C130.669 218.641 129.872 217.949 129.327 217.112C128.792 216.264 128.525 215.396 128.525 214.508H132.657C132.677 215.104 132.829 215.583 133.111 215.946C133.404 216.31 133.772 216.572 134.216 216.733C134.67 216.895 135.16 216.976 135.685 216.976C136.25 216.976 136.719 216.9 137.092 216.749C137.466 216.587 137.748 216.375 137.94 216.113C138.142 215.84 138.243 215.528 138.243 215.174ZM35.9639 242.819V255.7H31.6045V239.322H35.6914L35.9639 242.819ZM35.3281 246.936H34.1475C34.1475 245.725 34.3039 244.635 34.6167 243.667C34.9295 242.688 35.3685 241.855 35.9336 241.169C36.4987 240.473 37.1698 239.943 37.9468 239.58C38.7339 239.206 39.6118 239.02 40.5806 239.02C41.3475 239.02 42.0488 239.131 42.6846 239.353C43.3203 239.575 43.8652 239.928 44.3193 240.412C44.7835 240.896 45.1367 241.537 45.3789 242.334C45.6312 243.132 45.7573 244.105 45.7573 245.256V255.7H41.3677V245.241C41.3677 244.514 41.2668 243.949 41.0649 243.545C40.8631 243.142 40.5654 242.859 40.1719 242.698C39.7884 242.526 39.3141 242.44 38.749 242.44C38.1637 242.44 37.6541 242.556 37.2202 242.789C36.7964 243.021 36.4432 243.344 36.1606 243.757C35.8882 244.161 35.6813 244.635 35.54 245.18C35.3988 245.725 35.3281 246.31 35.3281 246.936ZM58.7598 251.78V239.322H63.1191V255.7H59.0171L58.7598 251.78ZM59.2441 248.419L60.5308 248.389C60.5308 249.479 60.4046 250.493 60.1523 251.432C59.9001 252.36 59.5216 253.167 59.0171 253.854C58.5125 254.53 57.8768 255.059 57.1099 255.443C56.3429 255.816 55.4398 256.003 54.4004 256.003C53.6032 256.003 52.8665 255.892 52.1904 255.67C51.5244 255.438 50.9492 255.08 50.4648 254.595C49.9906 254.101 49.6172 253.47 49.3447 252.703C49.0824 251.926 48.9512 250.993 48.9512 249.903V239.322H53.3105V249.933C53.3105 250.417 53.366 250.826 53.4771 251.159C53.5981 251.492 53.7646 251.765 53.9766 251.977C54.1885 252.188 54.4357 252.34 54.7183 252.431C55.0109 252.521 55.3338 252.567 55.687 252.567C56.5851 252.567 57.2915 252.385 57.8062 252.022C58.3309 251.659 58.6992 251.164 58.9111 250.539C59.1331 249.903 59.2441 249.196 59.2441 248.419ZM70.8086 242.713V255.7H66.4341V239.322H70.5361L70.8086 242.713ZM70.2031 246.936H68.9922C68.9922 245.796 69.1284 244.746 69.4009 243.788C69.6834 242.819 70.0921 241.981 70.627 241.275C71.1719 240.558 71.8429 240.003 72.6401 239.61C73.4373 239.216 74.3607 239.02 75.4102 239.02C76.1367 239.02 76.8027 239.131 77.4082 239.353C78.0137 239.564 78.5334 239.903 78.9673 240.367C79.4113 240.821 79.7544 241.416 79.9966 242.153C80.2388 242.879 80.3599 243.752 80.3599 244.771V255.7H76.0005V245.256C76.0005 244.509 75.8996 243.934 75.6978 243.53C75.4959 243.127 75.2083 242.844 74.835 242.683C74.4717 242.521 74.0327 242.44 73.5181 242.44C72.953 242.44 72.4585 242.556 72.0347 242.789C71.6209 243.021 71.2778 243.344 71.0054 243.757C70.7329 244.161 70.5311 244.635 70.3999 245.18C70.2687 245.725 70.2031 246.31 70.2031 246.936ZM79.9512 246.437L78.3921 246.633C78.3921 245.564 78.5233 244.57 78.7856 243.651C79.0581 242.733 79.4567 241.926 79.9814 241.229C80.5163 240.533 81.1772 239.993 81.9644 239.61C82.7515 239.216 83.6597 239.02 84.689 239.02C85.4761 239.02 86.1925 239.136 86.8384 239.368C87.4842 239.59 88.0342 239.948 88.4883 240.442C88.9525 240.927 89.3057 241.562 89.5479 242.35C89.8001 243.137 89.9263 244.1 89.9263 245.241V255.7H85.5518V245.241C85.5518 244.484 85.4508 243.909 85.249 243.515C85.0573 243.111 84.7747 242.834 84.4014 242.683C84.0381 242.521 83.6042 242.44 83.0996 242.44C82.5749 242.44 82.1157 242.546 81.7222 242.758C81.3286 242.96 81.0007 243.243 80.7383 243.606C80.4759 243.969 80.2791 244.393 80.1479 244.877C80.0168 245.352 79.9512 245.871 79.9512 246.437ZM100.84 256.003C99.5684 256.003 98.4281 255.801 97.4189 255.397C96.4098 254.984 95.5521 254.414 94.8457 253.687C94.1494 252.96 93.6146 252.118 93.2412 251.159C92.8678 250.19 92.6812 249.161 92.6812 248.071V247.466C92.6812 246.225 92.8577 245.089 93.2109 244.06C93.5641 243.031 94.0687 242.138 94.7246 241.381C95.3906 240.624 96.1979 240.044 97.1465 239.64C98.0951 239.226 99.1647 239.02 100.355 239.02C101.516 239.02 102.545 239.211 103.443 239.595C104.341 239.978 105.093 240.523 105.699 241.229C106.314 241.936 106.778 242.784 107.091 243.772C107.404 244.751 107.561 245.841 107.561 247.042V248.858H94.543V245.952H103.277V245.619C103.277 245.014 103.166 244.474 102.944 244C102.732 243.515 102.409 243.132 101.975 242.849C101.541 242.567 100.986 242.425 100.31 242.425C99.7349 242.425 99.2404 242.551 98.8267 242.804C98.4129 243.056 98.0749 243.409 97.8125 243.863C97.5602 244.317 97.3685 244.852 97.2373 245.468C97.1162 246.073 97.0557 246.739 97.0557 247.466V248.071C97.0557 248.727 97.1465 249.333 97.3281 249.888C97.5199 250.443 97.7873 250.922 98.1304 251.326C98.4836 251.729 98.9074 252.042 99.4019 252.264C99.9064 252.486 100.477 252.597 101.112 252.597C101.899 252.597 102.631 252.446 103.307 252.143C103.993 251.83 104.584 251.361 105.078 250.735L107.197 253.036C106.854 253.531 106.385 254.005 105.79 254.459C105.204 254.913 104.498 255.286 103.67 255.579C102.843 255.862 101.899 256.003 100.84 256.003ZM97.7671 237.097L100.734 232.435H105.472L101.309 237.097H97.7671ZM114.402 242.895V255.7H110.043V239.322H114.145L114.402 242.895ZM119.337 239.216L119.261 243.258C119.049 243.228 118.792 243.202 118.489 243.182C118.197 243.152 117.929 243.137 117.687 243.137C117.071 243.137 116.537 243.217 116.083 243.379C115.639 243.53 115.265 243.757 114.962 244.06C114.67 244.363 114.448 244.731 114.296 245.165C114.155 245.599 114.074 246.093 114.054 246.648L113.176 246.376C113.176 245.316 113.282 244.343 113.494 243.455C113.706 242.556 114.014 241.774 114.417 241.108C114.831 240.442 115.336 239.928 115.931 239.564C116.527 239.201 117.208 239.02 117.975 239.02C118.217 239.02 118.464 239.04 118.716 239.08C118.969 239.11 119.175 239.156 119.337 239.216ZM125.997 239.322V255.7H121.623V239.322H125.997ZM121.35 235.054C121.35 234.418 121.572 233.893 122.016 233.479C122.46 233.066 123.056 232.859 123.802 232.859C124.539 232.859 125.129 233.066 125.573 233.479C126.027 233.893 126.254 234.418 126.254 235.054C126.254 235.689 126.027 236.214 125.573 236.628C125.129 237.042 124.539 237.249 123.802 237.249C123.056 237.249 122.46 237.042 122.016 236.628C121.572 236.214 121.35 235.689 121.35 235.054ZM139.272 261.997V242.667L139.832 239.322H143.662V261.997H139.272ZM128.918 247.678V247.36C128.918 246.109 129.055 244.973 129.327 243.954C129.61 242.925 130.023 242.047 130.568 241.32C131.113 240.584 131.779 240.019 132.566 239.625C133.364 239.221 134.282 239.02 135.321 239.02C136.32 239.02 137.183 239.221 137.91 239.625C138.636 240.029 139.247 240.599 139.741 241.335C140.246 242.072 140.649 242.94 140.952 243.939C141.255 244.938 141.487 246.033 141.648 247.224V247.92C141.497 249.06 141.265 250.12 140.952 251.099C140.649 252.077 140.246 252.935 139.741 253.672C139.247 254.409 138.631 254.984 137.895 255.397C137.168 255.801 136.3 256.003 135.291 256.003C134.272 256.003 133.364 255.796 132.566 255.382C131.779 254.958 131.113 254.373 130.568 253.626C130.023 252.88 129.61 252.002 129.327 250.993C129.055 249.973 128.918 248.868 128.918 247.678ZM133.278 247.36V247.678C133.278 248.354 133.333 248.99 133.444 249.585C133.555 250.17 133.732 250.69 133.974 251.144C134.226 251.598 134.549 251.956 134.943 252.219C135.336 252.471 135.821 252.597 136.396 252.597C137.193 252.597 137.834 252.426 138.318 252.083C138.813 251.729 139.176 251.25 139.408 250.645C139.65 250.039 139.792 249.348 139.832 248.571V246.588C139.802 245.952 139.716 245.382 139.575 244.877C139.444 244.363 139.242 243.924 138.969 243.561C138.707 243.197 138.364 242.92 137.94 242.728C137.526 242.526 137.022 242.425 136.426 242.425C135.861 242.425 135.377 242.551 134.973 242.804C134.569 243.056 134.242 243.409 133.989 243.863C133.747 244.307 133.565 244.827 133.444 245.422C133.333 246.018 133.278 246.664 133.278 247.36ZM156.785 251.78V239.322H161.145V255.7H157.042L156.785 251.78ZM157.27 248.419L158.556 248.389C158.556 249.479 158.43 250.493 158.178 251.432C157.925 252.36 157.547 253.167 157.042 253.854C156.538 254.53 155.902 255.059 155.135 255.443C154.368 255.816 153.465 256.003 152.426 256.003C151.629 256.003 150.892 255.892 150.216 255.67C149.55 255.438 148.975 255.08 148.49 254.595C148.016 254.101 147.643 253.47 147.37 252.703C147.108 251.926 146.977 250.993 146.977 249.903V239.322H151.336V249.933C151.336 250.417 151.391 250.826 151.502 251.159C151.624 251.492 151.79 251.765 152.002 251.977C152.214 252.188 152.461 252.34 152.744 252.431C153.036 252.521 153.359 252.567 153.712 252.567C154.611 252.567 155.317 252.385 155.832 252.022C156.356 251.659 156.725 251.164 156.937 250.539C157.159 249.903 157.27 249.196 157.27 248.419ZM172.013 256.003C170.741 256.003 169.601 255.801 168.592 255.397C167.583 254.984 166.725 254.414 166.019 253.687C165.322 252.96 164.787 252.118 164.414 251.159C164.041 250.19 163.854 249.161 163.854 248.071V247.466C163.854 246.225 164.031 245.089 164.384 244.06C164.737 243.031 165.242 242.138 165.897 241.381C166.563 240.624 167.371 240.044 168.319 239.64C169.268 239.226 170.338 239.02 171.528 239.02C172.689 239.02 173.718 239.211 174.616 239.595C175.514 239.978 176.266 240.523 176.872 241.229C177.487 241.936 177.951 242.784 178.264 243.772C178.577 244.751 178.733 245.841 178.733 247.042V248.858H165.716V245.952H174.45V245.619C174.45 245.014 174.339 244.474 174.117 244C173.905 243.515 173.582 243.132 173.148 242.849C172.714 242.567 172.159 242.425 171.483 242.425C170.908 242.425 170.413 242.551 170 242.804C169.586 243.056 169.248 243.409 168.985 243.863C168.733 244.317 168.541 244.852 168.41 245.468C168.289 246.073 168.229 246.739 168.229 247.466V248.071C168.229 248.727 168.319 249.333 168.501 249.888C168.693 250.443 168.96 250.922 169.303 251.326C169.656 251.729 170.08 252.042 170.575 252.264C171.079 252.486 171.649 252.597 172.285 252.597C173.072 252.597 173.804 252.446 174.48 252.143C175.166 251.83 175.757 251.361 176.251 250.735L178.37 253.036C178.027 253.531 177.558 254.005 176.962 254.459C176.377 254.913 175.671 255.286 174.843 255.579C174.016 255.862 173.072 256.003 172.013 256.003ZM190.071 251.174C190.071 250.861 189.98 250.579 189.798 250.327C189.617 250.074 189.279 249.842 188.784 249.63C188.3 249.408 187.598 249.207 186.68 249.025C185.853 248.843 185.081 248.616 184.364 248.344C183.658 248.061 183.042 247.723 182.518 247.33C182.003 246.936 181.599 246.472 181.307 245.937C181.014 245.392 180.868 244.771 180.868 244.075C180.868 243.389 181.014 242.743 181.307 242.138C181.609 241.532 182.038 240.997 182.593 240.533C183.158 240.059 183.845 239.691 184.652 239.428C185.469 239.156 186.388 239.02 187.407 239.02C188.83 239.02 190.051 239.247 191.07 239.701C192.099 240.155 192.886 240.78 193.431 241.578C193.986 242.365 194.264 243.263 194.264 244.272H189.904C189.904 243.848 189.813 243.47 189.632 243.137C189.46 242.794 189.188 242.526 188.814 242.334C188.451 242.133 187.977 242.032 187.392 242.032C186.907 242.032 186.488 242.118 186.135 242.289C185.782 242.451 185.51 242.673 185.318 242.955C185.136 243.228 185.045 243.53 185.045 243.863C185.045 244.116 185.096 244.343 185.197 244.544C185.308 244.736 185.484 244.913 185.727 245.074C185.969 245.236 186.282 245.387 186.665 245.528C187.059 245.66 187.543 245.781 188.118 245.892C189.299 246.134 190.353 246.452 191.282 246.845C192.21 247.229 192.947 247.753 193.492 248.419C194.037 249.075 194.309 249.938 194.309 251.008C194.309 251.734 194.148 252.4 193.825 253.006C193.502 253.611 193.038 254.141 192.432 254.595C191.827 255.039 191.1 255.387 190.252 255.64C189.415 255.882 188.471 256.003 187.422 256.003C185.898 256.003 184.606 255.73 183.547 255.186C182.497 254.641 181.7 253.949 181.155 253.112C180.62 252.264 180.353 251.396 180.353 250.508H184.485C184.506 251.104 184.657 251.583 184.939 251.946C185.232 252.31 185.6 252.572 186.044 252.733C186.499 252.895 186.988 252.976 187.513 252.976C188.078 252.976 188.547 252.9 188.92 252.749C189.294 252.587 189.576 252.375 189.768 252.113C189.97 251.84 190.071 251.528 190.071 251.174Z" fill="#222222"/>
<rect x="30" y="284.086" width="18" height="18.8169" fill="#A8EC6C"/>
<rect x="53" y="284.086" width="18" height="18.8169" fill="#A8EC6C"/>
<rect x="76" y="284.086" width="18" height="18.8169" fill="#A8EC6C"/>
<rect x="99" y="284.086" width="18" height="18.8169" fill="#A8EC6C"/>
<rect x="122" y="284.086" width="18" height="18.8169" fill="#A8EC6C"/>
<rect x="145" y="284.086" width="18" height="18.8169" fill="#A8EC6C"/>
<rect x="168" y="284.086" width="18" height="18.8169" fill="#A8EC6C"/>
<rect x="191" y="284.086" width="18" height="18.8169" fill="#A8EC6C"/>
<rect x="214" y="284.086" width="18" height="18.8169" fill="#A8EC6C"/>
<rect x="237" y="284.086" width="18" height="18.8169" fill="#A8EC6C"/>
</svg>
