<svg width="285" height="344" viewBox="0 0 285 344" fill="none" xmlns="http://www.w3.org/2000/svg">
<rect x="1.5" y="1.5" width="282" height="340.173" rx="30.5" stroke="#212121" stroke-width="3"/>
<path d="M154.877 105.485C154.877 112.609 153.617 119.457 151.313 125.813C151.221 126.059 151.128 126.335 151.036 126.581C149.838 129.774 148.363 132.814 146.643 135.701C143.908 140.338 140.528 144.575 136.657 148.291C136.35 148.598 136.012 148.905 135.674 149.212C135.52 149.366 135.366 149.489 135.244 149.611C134.906 149.919 134.568 150.226 134.23 150.502C133.431 151.178 132.632 151.853 131.802 152.498C129.652 154.156 127.378 155.692 124.981 157.043C123.507 157.872 122.001 158.67 120.465 159.376C116.932 161.004 113.214 162.324 109.312 163.246C107.56 163.676 105.748 164.013 103.935 164.259C101.907 164.535 99.8485 164.72 97.7592 164.812C97.0218 164.842 96.2537 164.842 95.4855 164.842C89.5556 164.842 83.8101 163.983 78.4025 162.355C78.1874 162.294 78.0031 162.232 77.788 162.171C75.4222 161.434 73.1485 160.574 70.9056 159.561C68.9085 158.67 66.9728 157.657 65.1293 156.551C65.0986 156.521 65.0679 156.521 65.0371 156.49C64.1461 155.937 63.2244 155.385 62.3641 154.801C61.5345 154.248 60.7357 153.665 59.9368 153.081C58.124 151.73 56.3727 150.256 54.7443 148.69C54.1298 148.107 53.5153 147.493 52.9008 146.879C51.4567 145.374 50.0741 143.808 48.7837 142.15C48.7529 142.119 48.7222 142.057 48.6915 142.027C47.4318 140.399 46.2335 138.71 45.1581 136.96C44.052 135.21 43.0381 133.398 42.1471 131.525C41.594 130.389 41.0717 129.222 40.5801 128.024C40.5187 127.901 40.4879 127.778 40.4265 127.656C39.6891 125.813 39.0439 123.94 38.4908 122.036C38.3679 121.575 38.2143 121.084 38.0914 120.624C38.0299 120.347 37.9378 120.071 37.8763 119.764C37.7534 119.242 37.6305 118.689 37.5076 118.167C36.5859 114.052 36.125 109.814 36.125 105.485C36.125 104.778 36.125 104.103 36.1557 103.397C37.2618 71.5835 63.4087 46.127 95.5163 46.127C121.54 46.127 143.662 62.8626 151.681 86.1696C152.665 89.0254 153.433 91.9734 153.986 95.0134C154.17 95.9654 154.293 96.9173 154.416 97.8999C154.723 100.387 154.877 102.905 154.877 105.485Z" fill="#C7C7C7"/>
<path fill-rule="evenodd" clip-rule="evenodd" d="M157.057 127.935L157.045 127.967C157.024 128.024 156.998 128.096 156.948 128.238L156.942 128.256C156.899 128.376 156.836 128.555 156.769 128.735C155.44 132.276 153.807 135.641 151.909 138.827C148.894 143.937 145.179 148.594 140.937 152.673C140.557 153.05 140.166 153.407 139.869 153.676C139.721 153.819 139.596 153.931 139.536 153.984L139.508 154.01L139.468 154.05L139.321 154.183C139.018 154.458 138.596 154.842 138.148 155.211L138.142 155.216C137.369 155.87 136.489 156.614 135.559 157.337L135.549 157.344L135.54 157.352C133.185 159.167 130.668 160.87 127.987 162.381L127.981 162.385C126.426 163.259 124.764 164.143 123.025 164.943M134.229 150.502C134.567 150.226 134.905 149.919 135.243 149.612C135.301 149.554 135.366 149.496 135.434 149.435C135.511 149.366 135.592 149.294 135.673 149.213C136.011 148.906 136.349 148.598 136.656 148.291C140.527 144.576 143.907 140.338 146.642 135.701C148.362 132.815 149.837 129.775 151.035 126.581C151.081 126.458 151.127 126.328 151.174 126.197C151.22 126.067 151.266 125.936 151.312 125.813C153.616 119.457 154.876 112.609 154.876 105.485C154.876 102.906 154.722 100.388 154.415 97.9002C154.292 96.9176 154.169 95.9657 153.985 95.0137C153.432 91.9737 152.664 89.0257 151.681 86.1699C143.661 62.8629 121.539 46.1273 95.5154 46.1273C63.4078 46.1273 37.2609 71.5838 36.1548 103.397C36.1241 104.103 36.1241 104.779 36.1241 105.485C36.1241 109.815 36.585 114.052 37.5067 118.167C37.5682 118.428 37.6296 118.697 37.6911 118.966C37.7525 119.234 37.814 119.503 37.8754 119.764C37.9098 119.936 37.9538 120.098 37.9967 120.256C38.0304 120.38 38.0634 120.502 38.0905 120.624C38.152 120.854 38.2211 121.092 38.2902 121.33C38.3593 121.568 38.4285 121.806 38.4899 122.036C39.043 123.94 39.6882 125.813 40.4256 127.656C40.4563 127.717 40.4794 127.779 40.5024 127.84C40.5255 127.902 40.5485 127.963 40.5792 128.024C41.0708 129.222 41.5931 130.389 42.1462 131.525C43.0372 133.398 44.0511 135.21 45.1572 136.96C46.2326 138.711 47.4309 140.4 48.6906 142.027C48.706 142.042 48.7213 142.065 48.7367 142.088C48.7521 142.111 48.7674 142.134 48.7828 142.15C50.0732 143.808 51.4558 145.374 52.8999 146.879C53.5144 147.493 54.1289 148.107 54.7434 148.691C56.3718 150.257 58.1231 151.731 59.9359 153.082C60.7348 153.665 61.5336 154.249 62.3632 154.801C63.0374 155.259 63.7493 155.697 64.4546 156.131C64.6493 156.251 64.8435 156.371 65.0363 156.49C65.0516 156.506 65.067 156.513 65.0823 156.521C65.0977 156.529 65.1131 156.536 65.1284 156.552C66.9719 157.657 68.9076 158.671 70.9047 159.561C73.1476 160.574 75.4213 161.434 77.7871 162.171C77.8946 162.202 77.9945 162.233 78.0943 162.263C78.1942 162.294 78.2941 162.325 78.4016 162.355C83.8092 163.983 89.5547 164.843 95.4846 164.843C96.2528 164.843 97.0209 164.843 97.7583 164.812C99.8476 164.72 101.906 164.536 103.934 164.259C105.747 164.014 107.56 163.676 109.311 163.246C113.213 162.325 116.931 161.004 120.464 159.377C122 158.671 123.506 157.872 124.981 157.043C127.377 155.692 129.651 154.157 131.801 152.498C132.631 151.853 133.43 151.178 134.229 150.502ZM123.024 164.943C119.159 166.723 115.064 168.181 110.744 169.203C108.775 169.685 106.758 170.06 104.756 170.331C102.541 170.633 100.298 170.833 98.0279 170.933L98.0204 170.934L98.013 170.934C97.1471 170.97 96.2708 170.97 95.5383 170.97H95.4846C88.9755 170.97 82.6482 170.028 76.6746 168.234C76.5177 168.189 76.3799 168.146 76.2951 168.12C76.1884 168.087 76.1456 168.074 76.1063 168.063L76.0362 168.043L75.9665 168.021C73.3742 167.214 70.8708 166.268 68.3979 165.151C66.1733 164.159 64.0238 163.033 61.9801 161.807L61.3336 161.42L61.294 161.38C60.588 160.946 59.7359 160.421 58.9485 159.888C58.0161 159.266 57.1345 158.622 56.3683 158.062L56.3011 158.013L56.2773 157.995C54.2766 156.504 52.3331 154.87 50.5137 153.122C49.847 152.488 49.191 151.833 48.5977 151.24L48.5267 151.169L48.4825 151.123C46.9459 149.522 45.4423 147.824 44.0181 146.001C43.929 145.891 43.8583 145.796 43.8087 145.728C43.8034 145.721 43.7982 145.714 43.7932 145.707C42.4583 143.978 41.1539 142.142 39.9604 140.202C38.7508 138.285 37.6266 136.279 36.6284 134.183C36.0406 132.974 35.4861 131.738 34.9645 130.474C34.9247 130.385 34.8917 130.306 34.865 130.241C34.8577 130.223 34.8506 130.205 34.8437 130.188L34.8351 130.17L34.7404 129.934C33.9286 127.905 33.2181 125.843 32.6092 123.746L32.5904 123.682L32.573 123.617C32.532 123.463 32.4823 123.291 32.4094 123.04L32.4026 123.017C32.3379 122.794 32.2526 122.5 32.1736 122.204L32.1404 122.08L32.1176 121.977C32.1171 121.975 32.1166 121.973 32.116 121.971C32.109 121.945 32.1033 121.924 32.0923 121.883C32.0869 121.863 32.0802 121.838 32.0714 121.806L32.071 121.804C32.0341 121.668 31.9629 121.404 31.8958 121.089C31.8363 120.835 31.7778 120.579 31.7234 120.342L31.7213 120.332C31.659 120.06 31.6019 119.811 31.5458 119.572L31.5381 119.54L31.5309 119.507C30.5076 114.939 30 110.252 30 105.485L30 105.437C30 104.768 30 103.988 30.0353 103.158C31.2692 68.0647 60.1104 40 95.5154 40C124.229 40 148.625 58.4676 157.471 84.1744C158.554 87.3196 159.397 90.5571 160.004 93.8835C160.228 95.0494 160.371 96.1771 160.492 97.1394L160.493 97.1487C160.832 99.891 161 102.66 161 105.485C161 113.336 159.611 120.89 157.069 127.903L157.057 127.935" fill="#212121"/>
<path d="M109.711 162.14H77.8184C75.4526 161.403 73.179 160.544 70.9361 159.53C68.9389 158.64 67.0033 157.626 65.1598 156.521C65.129 156.49 65.0983 156.49 65.0676 156.46C64.1766 155.907 63.2548 155.354 62.3945 154.771V134.934L63.8386 131.863L64.8832 129.652L65.1905 129.007L68.2323 122.528L68.5702 121.852L71.2126 116.202L71.274 116.048L72.6874 113.008L75.3912 107.205L77.4497 110.49L79.4776 113.745L83.1646 119.61L85.0388 122.62L98.7421 144.576L100.371 147.186L101.722 149.335L107.56 158.701L109.711 162.14Z" fill="#B06C6C"/>
<path d="M80.3692 127.288L64.6995 120.041C63.5626 119.519 63.071 118.198 63.5934 117.062L74.6851 93.0796C75.2074 91.9434 76.5285 91.4521 77.6654 91.9741L93.3351 99.2211C94.4719 99.7431 94.9635 101.064 94.4412 102.2L83.3495 126.182C82.7964 127.319 81.4753 127.81 80.3692 127.288Z" fill="#FBFEFF"/>
<path d="M91.2921 101.994L76.6504 95.2295L67.7032 114.574L82.3449 121.338L91.2921 101.994Z" fill="#868686"/>
<path d="M84.9795 99.0986L70.2009 109.508L67.8965 114.483L74.2258 117.4L88.943 107.052L91.2781 101.985L84.9795 99.0986Z" fill="#9C9C9C"/>
<path d="M75.4848 119.519L73.5798 118.628C73.3955 118.536 73.1804 118.475 72.996 118.475C72.7502 118.444 72.4737 118.505 72.2586 118.598C71.9207 118.751 71.6134 119.028 71.4291 119.396L71.3983 119.488C71.0296 120.317 71.3676 121.269 72.1972 121.638L74.01 122.497L74.1021 122.559C74.5937 122.774 75.1161 122.743 75.5462 122.497C75.8535 122.344 76.0993 122.068 76.2529 121.73L76.2836 121.668C76.6523 120.87 76.3143 119.887 75.4848 119.519ZM74.2865 122.098L72.3815 121.208C71.8899 120.962 71.6441 120.409 71.767 119.887C71.767 119.826 71.7978 119.765 71.8285 119.734L71.8592 119.642C72.105 119.089 72.781 118.843 73.334 119.089L75.239 119.979C75.792 120.225 76.0378 120.901 75.792 121.453L75.7613 121.515C75.7306 121.576 75.6998 121.607 75.6691 121.668C75.3926 122.16 74.8088 122.313 74.2865 122.098Z" fill="#566C78"/>
<path d="M82.8902 96.8569C83.1617 96.8569 83.3819 96.637 83.3819 96.3657C83.3819 96.0944 83.1617 95.8745 82.8902 95.8745C82.6186 95.8745 82.3984 96.0944 82.3984 96.3657C82.3984 96.637 82.6186 96.8569 82.8902 96.8569Z" fill="black"/>
<path d="M84.6402 97.6865C84.9117 97.6865 85.1319 97.4666 85.1319 97.1953C85.1319 96.924 84.9117 96.7041 84.6402 96.7041C84.3686 96.7041 84.1484 96.924 84.1484 97.1953C84.1484 97.4666 84.3686 97.6865 84.6402 97.6865Z" fill="black"/>
<path d="M86.3941 98.5766C86.6656 98.5766 86.8858 98.3567 86.8858 98.0854C86.8858 97.8142 86.6656 97.5942 86.3941 97.5942C86.1225 97.5942 85.9023 97.8142 85.9023 98.0854C85.9023 98.3567 86.1225 98.5766 86.3941 98.5766Z" fill="black"/>
<path d="M75.852 121.454L75.8213 121.546C75.7906 121.608 75.7599 121.638 75.7291 121.7C75.3604 121.915 74.8996 121.945 74.4694 121.761L72.5337 120.871C72.1036 120.686 71.8578 120.287 71.7656 119.888C71.7656 119.826 71.7963 119.796 71.8271 119.734L71.8578 119.642C72.1343 119.059 72.8103 118.813 73.3633 119.089L75.299 119.98C75.852 120.195 76.0978 120.901 75.852 121.454Z" fill="#8EAABD"/>
<path d="M63.9907 135.087L62.393 136.776L54.9269 144.699L52.899 146.848C51.455 145.344 50.0723 143.777 48.7819 142.119C48.7512 142.089 48.7205 142.027 48.6897 141.996C47.43 140.369 46.2317 138.68 45.1564 136.93C44.0503 135.179 43.0363 133.368 42.1453 131.494C41.5923 130.358 41.0699 129.191 40.5784 127.994C40.5169 127.871 40.4862 127.748 40.4247 127.625C39.6873 125.783 39.0421 123.91 38.4891 122.006C38.3662 121.545 38.2125 121.054 38.0896 120.593C38.0282 120.317 37.936 120.041 37.8746 119.733C37.7517 119.211 37.6288 118.659 37.5059 118.137L41.5001 113.899C42.3604 113.008 43.7737 112.947 44.6648 113.807L47.3993 116.386L50.1645 118.996L55.7872 124.278L62.0858 130.205L63.8064 131.832L63.8678 131.894C64.7896 132.753 64.8203 134.166 63.9907 135.087Z" fill="#667C8B"/>
<path d="M58.953 131.311L56.5872 133.829L51.7327 138.988L48.7831 142.12C48.7524 142.089 48.7216 142.028 48.6909 141.997C47.4312 140.369 46.2329 138.681 45.1575 136.93C44.0514 135.18 43.0375 133.368 42.1465 131.495C41.5935 130.359 41.0711 129.192 40.5795 127.994C40.5181 127.871 40.4874 127.749 40.4259 127.626C39.6885 125.783 39.0433 123.91 38.4902 122.006L38.7053 121.791L43.4677 116.725L45.7106 118.843L47.5234 120.532L49.5512 122.436L53.5762 126.213L58.953 131.311Z" fill="#C5DADD"/>
<path d="M57.4156 137.237L57.3542 137.176C56.7089 136.562 55.6643 136.592 55.0498 137.237L53.6057 138.773C53.4521 138.926 53.3599 139.111 53.2678 139.295C53.1756 139.54 53.1449 139.786 53.1756 140.062C53.2063 140.431 53.3907 140.799 53.6672 141.076L53.7286 141.137C54.3739 141.751 55.4185 141.721 56.033 141.076L57.4771 139.54C58.1223 138.865 58.0916 137.852 57.4156 137.237ZM57.1391 139.172L55.695 140.707C55.3263 141.107 54.7118 141.168 54.251 140.861C54.2202 140.83 54.1588 140.799 54.1281 140.738L54.0666 140.677C53.6057 140.247 53.6057 139.54 54.0359 139.111L55.48 137.575C55.9101 137.115 56.6168 137.115 57.0776 137.514L57.1391 137.575C57.1698 137.606 57.2313 137.667 57.262 137.698C57.5385 138.159 57.5078 138.773 57.1391 139.172Z" fill="#566C78"/>
<path d="M38.5184 120.44C38.3955 120.563 38.2418 120.624 38.0882 120.594C38.0267 120.317 37.9345 120.041 37.873 119.734C38.0574 119.581 38.334 119.581 38.5184 119.765C38.6721 119.949 38.6721 120.256 38.5184 120.44Z" fill="black"/>
<path d="M57.0174 137.513L57.0789 137.574C57.1096 137.605 57.1403 137.636 57.2018 137.697C57.2939 138.127 57.171 138.588 56.8638 138.895L55.389 140.461C55.0817 140.799 54.6209 140.921 54.1907 140.891C54.16 140.86 54.0986 140.829 54.0678 140.799L54.0064 140.737C53.5455 140.307 53.5148 139.57 53.9449 139.14L55.4197 137.574C55.8499 137.083 56.5565 137.083 57.0174 137.513Z" fill="#8EAABD"/>
<path d="M65.1599 122.528V156.522C65.1291 156.491 65.0984 156.491 65.0677 156.46C64.1767 155.907 63.2549 155.355 62.3946 154.771C61.565 154.218 60.7662 153.635 59.9673 153.052C58.1546 151.7 56.4033 150.227 54.7748 148.66C54.1603 148.077 53.5458 147.463 52.9313 146.849C51.4873 145.344 50.1047 143.778 48.8142 142.12C48.7835 142.089 48.7528 142.028 48.722 141.997C47.4623 140.369 46.264 138.68 45.1887 136.93C44.0826 135.18 43.0686 133.368 42.1776 131.495C41.6246 130.359 41.1023 129.192 40.6107 127.994C40.5492 127.871 40.5185 127.749 40.457 127.626L40.4878 127.595C41.133 127.012 41.9318 126.49 42.8843 126.09C44.4513 125.445 46.4484 125.138 49.0293 125.445C49.1215 125.445 49.2136 125.476 49.3365 125.476C50.5655 125.63 51.9174 125.937 53.3922 126.397L53.6073 126.213L55.8502 124.279L59.8137 120.839L61.1349 122.498H65.1599V122.528Z" fill="#4B5A59"/>
<path d="M77.5724 122.528H61.0731L59.752 120.87L62.4557 118.536L63.3468 111.903C63.3468 111.903 69.0923 100.879 80.8907 106.437C72.2877 113.53 77.5724 122.528 77.5724 122.528Z" fill="#4B5A59"/>
<path d="M78.7386 162.141C78.6464 162.202 78.5543 162.263 78.4314 162.325C78.2163 162.263 78.0319 162.202 77.8169 162.141C75.451 161.404 73.1774 160.544 70.9345 159.53C68.9374 158.64 67.0017 157.627 65.1582 156.521V122.528H77.5711C77.5711 122.528 77.5403 122.466 77.4789 122.344C77.4482 122.282 77.4174 122.251 77.3867 122.159C77.2945 121.975 77.1716 121.729 77.0487 121.422C76.9873 121.3 76.9258 121.146 76.8644 120.992C76.7415 120.685 76.6186 120.348 76.5264 119.979C76.4957 119.856 76.465 119.733 76.4035 119.58C76.3728 119.519 76.3728 119.457 76.3421 119.365C76.2806 119.089 76.2192 118.812 76.1577 118.505C76.127 118.413 76.127 118.321 76.127 118.229C76.127 118.137 76.0963 118.075 76.0963 117.983C76.0655 117.83 76.0655 117.645 76.0348 117.461C76.0348 117.369 76.0041 117.308 76.0041 117.215C75.9734 116.878 75.9426 116.54 75.9426 116.202V116.141C75.9426 115.987 75.9426 115.834 75.9426 115.68C75.9426 115.588 75.9426 115.496 75.9734 115.404C75.9734 115.373 75.9734 115.342 75.9734 115.342C76.127 115.465 76.2806 115.588 76.4342 115.741C76.465 115.772 76.4957 115.772 76.4957 115.803C76.4957 115.803 76.4957 115.803 76.5264 115.803C76.5571 115.834 76.6186 115.864 76.6493 115.895C76.7108 115.956 76.8029 116.018 76.8951 116.11C76.9258 116.141 76.9566 116.171 77.018 116.202C77.0795 116.264 77.1409 116.325 77.2024 116.386C77.2331 116.417 77.2945 116.448 77.3253 116.509C77.3867 116.54 77.4174 116.601 77.4789 116.632C77.5403 116.663 77.5711 116.724 77.6325 116.755C77.694 116.786 77.7554 116.847 77.7861 116.908C77.8783 117 77.9705 117.062 78.0627 117.154C78.1856 117.246 78.2777 117.369 78.4006 117.492C78.4314 117.523 78.4314 117.523 78.4621 117.553C78.5235 117.615 78.5543 117.645 78.6157 117.707C78.6464 117.768 78.7079 117.799 78.7386 117.86C78.8308 117.952 78.8922 118.014 78.9844 118.106C79.0151 118.137 79.0151 118.137 79.0459 118.167C79.138 118.26 79.2302 118.352 79.2917 118.444C79.4146 118.597 79.5375 118.72 79.6604 118.874C79.7525 118.996 79.8447 119.089 79.9369 119.211C79.9676 119.242 79.9983 119.273 79.9983 119.304C80.0905 119.426 80.2134 119.549 80.3056 119.672C80.4285 119.826 80.5514 119.979 80.6743 120.133C80.705 120.194 80.7357 120.225 80.7972 120.286C80.8279 120.317 80.8586 120.348 80.8894 120.409L80.9201 120.44C80.9508 120.47 80.9508 120.501 80.9815 120.532C81.0123 120.563 81.043 120.593 81.043 120.624C81.1044 120.685 81.1352 120.716 81.1659 120.778C81.1659 120.808 81.1966 120.808 81.1966 120.839C81.3502 121.054 81.5039 121.238 81.6575 121.453C81.6882 121.484 81.7189 121.515 81.7189 121.545C81.8111 121.668 81.9033 121.791 81.9955 121.944C82.0262 121.975 82.0569 122.006 82.0876 122.067C82.1184 122.129 82.1798 122.19 82.2105 122.251C82.2105 122.251 82.2105 122.251 82.2105 122.282L82.2413 122.313C82.272 122.344 82.272 122.344 82.272 122.374C82.3027 122.405 82.3334 122.466 82.3642 122.528C82.3642 122.559 82.3949 122.559 82.3949 122.559C82.5178 122.774 82.6714 122.958 82.7943 123.173C82.7943 123.173 82.825 123.203 82.825 123.234C82.825 123.234 82.825 123.265 82.8558 123.265C82.8865 123.326 82.9172 123.357 82.9479 123.418C83.0094 123.511 83.0401 123.572 83.1015 123.664C83.1937 123.818 83.2859 123.971 83.3781 124.125C83.3781 124.125 83.4088 124.155 83.4088 124.186C83.5624 124.432 83.716 124.708 83.8389 124.954C83.9618 125.169 84.054 125.384 84.1769 125.568C84.2384 125.691 84.2998 125.783 84.3613 125.906C84.4842 126.121 84.5763 126.366 84.6992 126.581C84.6992 126.612 84.73 126.612 84.73 126.643C84.9143 127.011 85.0679 127.38 85.2523 127.748C85.283 127.84 85.3137 127.902 85.3445 127.994C85.3752 128.086 85.4366 128.178 85.4674 128.301C85.5903 128.608 85.7132 128.915 85.8361 129.222C91.09 142.396 87.8332 156.275 78.7386 162.141Z" fill="white"/>
<path d="M64.8206 102.384C64.667 102.998 64.4212 103.582 64.0832 104.073L60.1812 111.535L56.0026 112.947C55.4188 112.487 53.83 113.008 52.1402 112.731C38.1911 110.674 45.9555 99.1903 45.9555 99.1903C46.7237 99.0982 47.5225 99.1596 48.3521 99.4053C48.9666 99.5895 49.5196 99.8352 50.042 100.142C50.042 100.142 50.042 100.142 50.0727 100.142C50.1034 100.173 50.1341 100.173 50.1341 100.204C50.5335 100.449 51.9776 101.156 52.4385 99.436C52.4692 99.2825 52.4999 99.1289 52.5307 98.9754C53.4217 95.5975 56.8936 93.6323 60.2733 94.5842C63.6838 95.5054 65.7117 99.0061 64.8206 102.384Z" fill="#EA556A"/>
<path d="M153.63 87.103H153.247L146.357 97.0598L147.506 98.9746L152.864 97.8257L155.544 93.2303L155.161 90.5496L153.63 87.103Z" fill="#EBAE56"/>
<path d="M150.852 99.5888L143.416 101.83L137.947 99.3124C138.838 98.9439 140.282 98.7596 142.341 98.7596C160.868 98.9132 153.279 86.7837 153.279 86.7837C155.061 87.7663 156.382 89.5167 156.689 91.6662C157.243 95.4432 154.631 98.9746 150.852 99.5888Z" fill="#EBAE56"/>
<path d="M142.34 98.7599C140.282 98.7291 138.868 98.9441 137.947 99.3126L134.628 97.7772L131.31 89.2712C131.033 88.6878 130.818 88.0429 130.726 87.3673C130.173 83.621 132.785 80.0896 136.533 79.4755C140.282 78.8613 143.815 81.3794 144.368 85.1257C144.399 85.2792 144.399 85.4635 144.43 85.617C144.737 87.5209 146.396 86.9067 146.826 86.7225C146.857 86.7225 146.888 86.6918 146.918 86.6918C146.949 86.6918 146.949 86.6611 146.949 86.6611C147.533 86.3847 148.178 86.1697 148.854 86.0469C150.452 85.7706 151.988 86.0776 153.278 86.7839C153.248 86.7839 160.837 98.9441 142.34 98.7599Z" fill="#FAC04F"/>
<path d="M139.852 110.08L141.765 100.124L143.679 100.506L145.593 102.804L147.889 116.208L147.124 127.696L143.296 130.76L139.469 128.845L139.852 110.08Z" fill="#EBAE56"/>
<path d="M151.776 121.576C151.653 123.234 151.407 124.892 151.038 126.581C149.84 129.774 148.365 132.815 146.644 135.701C143.91 140.338 140.53 144.576 136.659 148.291C136.198 148.23 135.737 148.168 135.307 148.107C135.092 148.076 134.877 148.045 134.662 148.015C131.159 147.462 128.578 146.602 128.24 145.251C128.056 144.514 128.547 143.593 129.961 142.518C130.668 141.965 131.62 141.382 132.818 140.737C138.349 137.82 141.391 132.815 142.957 127.195C145.446 118.228 144.156 107.726 143.019 101.738C143.019 101.708 142.988 101.646 142.988 101.616C142.773 100.479 142.558 99.5275 142.374 98.7905C143.449 99.5275 144.432 100.357 145.354 101.278C146.122 102.046 146.829 102.905 147.443 103.796C148.795 105.7 149.871 107.88 150.608 110.244C151.007 111.473 151.284 112.732 151.499 114.052C151.868 116.447 151.96 118.965 151.776 121.576Z" fill="#EBAE56"/>
<path d="M142.894 127.196C141.327 132.815 138.285 137.82 132.755 140.738C131.557 141.382 130.604 141.966 129.898 142.519C128.484 143.593 127.993 144.484 128.177 145.252C128.515 146.603 131.096 147.463 134.598 148.015C134.814 148.046 135.029 148.077 135.244 148.107C135.674 148.169 136.135 148.23 136.596 148.292C136.288 148.599 135.95 148.906 135.612 149.213C135.459 149.366 135.305 149.489 135.182 149.612C134.844 149.919 134.506 150.226 134.168 150.503C133.83 150.718 133.462 150.902 133.124 151.086C132.632 151.362 132.11 151.608 131.587 151.854C126.057 154.464 120.158 155.109 114.812 153.389C114.289 153.236 113.798 153.021 113.275 152.806C112.415 151.301 111.616 149.735 110.848 148.169C110.817 148.107 110.817 148.077 110.787 148.015C110.019 146.388 109.343 144.73 108.697 143.041C108.513 142.519 108.329 141.997 108.144 141.475C108.083 141.29 108.021 141.137 107.96 140.983L107.929 140.953L107.96 140.922C107.683 140.123 107.438 139.325 107.223 138.527C107.192 138.435 107.161 138.342 107.13 138.22C106.946 137.575 106.762 136.93 106.608 136.285C105.871 133.429 105.348 130.512 105.01 127.595C104.98 127.196 104.918 126.827 104.887 126.428C104.857 126.121 104.826 125.783 104.795 125.476C104.765 125.015 104.734 124.585 104.703 124.125C104.549 121.545 104.549 118.966 104.703 116.387C104.765 115.435 104.826 114.513 104.918 113.561C105.625 112.21 106.424 110.921 107.253 109.692C108.359 108.095 109.558 106.591 110.817 105.24C116.286 99.4052 123.2 95.8739 129.898 95.4747C131.188 95.3825 132.448 95.4133 133.707 95.5668C136.043 95.8432 138.285 96.5187 140.405 97.6242C141.051 97.962 141.665 98.3305 142.249 98.7297C142.433 99.4974 142.618 100.449 142.863 101.555C142.863 101.585 142.894 101.647 142.894 101.678C144.092 107.727 145.414 118.229 142.894 127.196Z" fill="#FAC04F"/>
<path d="M147.256 103.734L130.634 96.0574C129.835 95.6889 129.497 94.7369 129.866 93.9385C130.234 93.1401 131.187 92.8024 131.986 93.1709L148.608 100.848C149.407 101.216 149.745 102.168 149.376 102.967C148.977 103.734 148.055 104.103 147.256 103.734Z" fill="#E2A552"/>
<path d="M142.893 127.196C139.114 124.34 133.89 126.489 133.675 126.582C133.767 126.489 135.181 125.169 132.231 120.501C129.189 115.65 122.737 118.874 122.737 118.874C122.737 118.874 123.997 112.241 116.654 107.174C114.749 105.854 112.782 105.332 110.939 105.301C105.593 105.148 101.045 108.863 101.045 108.863C101.045 108.863 100.892 102.568 94.6239 101.34C94.1016 101.248 93.5486 101.156 92.9648 101.156C91.8587 101.094 90.8448 101.217 89.9845 101.401C84.6998 102.66 83.6244 107.942 83.6244 107.942C83.563 107.911 83.5015 107.881 83.4401 107.819C82.5491 107.266 81.7195 106.806 80.8899 106.407C80.5519 106.683 80.2447 106.959 79.9682 107.236C79.9374 107.266 79.9067 107.297 79.8453 107.328C79.8145 107.359 79.7838 107.389 79.7224 107.42C79.6609 107.481 79.5995 107.543 79.538 107.604C79.5073 107.666 79.4458 107.696 79.4151 107.758C79.3844 107.788 79.3844 107.788 79.3537 107.819C79.2922 107.881 79.2308 107.942 79.1693 108.034C79.1386 108.065 79.1079 108.096 79.0771 108.157C79.0157 108.218 78.9542 108.31 78.8928 108.372C78.8006 108.464 78.7392 108.556 78.647 108.648C78.4934 108.833 78.3705 108.986 78.2476 109.17C78.1861 109.262 78.0939 109.385 78.0325 109.477C77.971 109.57 77.8789 109.692 77.8174 109.784C77.756 109.877 77.6945 109.999 77.6331 110.092C77.6023 110.153 77.5716 110.214 77.5409 110.276C77.5102 110.306 77.5102 110.337 77.4794 110.368C77.4487 110.399 77.4487 110.429 77.418 110.46C77.3565 110.552 77.3258 110.644 77.2644 110.736C77.2029 110.829 77.1722 110.951 77.1107 111.043C77.08 111.105 77.0493 111.166 77.0186 111.228C76.9878 111.32 76.9571 111.381 76.8957 111.473C76.8649 111.565 76.8342 111.627 76.8035 111.719C76.7728 111.811 76.742 111.903 76.7113 111.995C76.6806 112.088 76.6499 112.18 76.5884 112.302C76.5577 112.364 76.527 112.456 76.4962 112.548C76.4655 112.61 76.4655 112.671 76.4348 112.732C76.3733 112.917 76.3426 113.07 76.2812 113.254C76.2504 113.347 76.2197 113.469 76.2197 113.561C76.189 113.684 76.1583 113.807 76.1583 113.93C76.1276 114.022 76.1275 114.084 76.1275 114.176C76.0968 114.36 76.0661 114.575 76.0354 114.759C76.0354 114.82 76.0047 114.882 76.0047 114.943C76.0047 115.005 76.0046 115.066 75.9739 115.097C75.9739 115.189 75.9739 115.281 75.9432 115.373C76.0968 115.496 76.2505 115.619 76.4041 115.772C76.4348 115.803 76.4655 115.803 76.4655 115.834C76.4655 115.834 76.4655 115.834 76.4962 115.834C76.527 115.865 76.5884 115.895 76.6191 115.926C76.6806 115.987 76.7728 116.049 76.8649 116.141C76.8957 116.172 76.9264 116.202 76.9878 116.233C77.0493 116.294 77.1107 116.356 77.1722 116.417C77.2029 116.448 77.2644 116.479 77.2951 116.54C77.3565 116.571 77.3873 116.632 77.4487 116.663C77.5102 116.694 77.5409 116.755 77.6023 116.786C77.6638 116.816 77.7252 116.878 77.756 116.939C77.8481 117.031 77.9403 117.093 78.0325 117.185C78.1554 117.277 78.2476 117.4 78.3705 117.523C78.4012 117.553 78.4012 117.553 78.4319 117.584C78.4934 117.646 78.5241 117.676 78.5855 117.738C78.6163 117.799 78.6777 117.83 78.7084 117.891C78.8006 117.983 78.8928 118.106 79.0157 118.198C79.1079 118.29 79.2 118.383 79.2615 118.475C79.3844 118.628 79.5073 118.751 79.6302 118.905C79.7224 119.027 79.8145 119.12 79.9067 119.242C79.9374 119.273 79.9682 119.304 79.9682 119.335C80.0603 119.457 80.1832 119.58 80.2754 119.703C80.3983 119.857 80.5212 120.01 80.6441 120.164C80.6748 120.225 80.7056 120.256 80.767 120.317C80.7977 120.348 80.8285 120.379 80.8592 120.44C80.9206 120.501 80.9821 120.594 81.0435 120.655C81.105 120.716 81.1357 120.747 81.1664 120.808C81.1664 120.839 81.1972 120.839 81.1972 120.87C81.3508 121.085 81.5044 121.269 81.658 121.484C81.6888 121.515 81.7195 121.545 81.7195 121.576C81.8117 121.699 81.9038 121.822 81.996 121.975C82.0575 122.067 82.1189 122.19 82.2111 122.282C82.2111 122.282 82.2111 122.282 82.2111 122.313C82.2111 122.313 82.2111 122.344 82.2418 122.344C82.2725 122.375 82.2725 122.375 82.2725 122.405C82.3033 122.436 82.334 122.497 82.3647 122.559C82.3647 122.59 82.3954 122.59 82.3954 122.59C82.5491 122.804 82.672 123.019 82.8256 123.234C82.8256 123.234 82.8256 123.265 82.8563 123.265C82.887 123.326 82.9178 123.357 82.9485 123.419C83.0099 123.511 83.0407 123.572 83.1021 123.664C83.1943 123.818 83.2865 123.971 83.3786 124.125C83.5323 124.401 83.6859 124.678 83.8395 124.954C84.1468 125.507 84.4233 126.059 84.6998 126.643C84.8842 127.011 85.0378 127.38 85.2221 127.748C84.9456 127.841 84.6998 127.963 84.454 128.055C84.3004 128.117 84.1468 128.209 83.9931 128.27C83.6859 128.424 83.3786 128.577 83.1021 128.762C82.9792 128.854 82.8256 128.915 82.7027 129.007C82.3647 129.222 82.0575 129.468 81.7809 129.714C81.7195 129.775 81.658 129.806 81.5966 129.867C81.4122 130.021 81.2586 130.174 81.105 130.328C75.851 135.671 79.4458 144.73 79.4458 144.73C71.3652 150.441 70.1976 155.784 70.8736 159.561C73.0858 160.575 75.3902 161.435 77.756 162.172C77.971 162.233 78.1554 162.294 78.3705 162.356C83.7781 163.983 89.4929 164.843 95.4535 164.843C96.2216 164.843 96.959 164.843 97.7272 164.812C99.8165 164.751 101.875 164.536 103.903 164.26C105.716 164.014 107.528 163.646 109.28 163.246C113.151 162.325 116.869 161.035 120.433 159.377C121.969 158.671 123.475 157.873 124.949 157.043C127.315 155.692 129.589 154.157 131.77 152.499C132.6 151.854 133.43 151.209 134.198 150.503C134.536 150.226 134.874 149.919 135.212 149.612C135.365 149.489 135.519 149.336 135.642 149.213C135.98 148.906 136.287 148.599 136.625 148.292C140.496 144.576 143.876 140.339 146.61 135.702C146.211 131.126 144.736 128.577 142.893 127.196Z" fill="#617983"/>
<path d="M56.0341 112.978L51.7634 114.421L45.1575 111.627C41.747 110.675 39.7192 107.174 40.6102 103.797C41.2862 101.217 43.4676 99.4668 45.9871 99.1904C45.9871 99.1904 38.736 109.846 52.7158 111.934C54.375 112.149 55.4503 112.518 56.0341 112.978Z" fill="#CB2C44"/>
<path d="M85.2837 127.748C85.0071 127.841 84.7613 127.963 84.5155 128.055C84.3619 128.117 84.2083 128.209 84.0547 128.27C83.7474 128.424 83.4402 128.577 83.1636 128.762C83.0407 128.854 82.8871 128.915 82.7642 129.007C82.4262 129.222 82.119 129.468 81.8425 129.714C81.781 129.775 81.7196 129.806 81.6581 129.867C81.4738 130.021 81.3201 130.174 81.1665 130.328C75.9126 135.671 79.5074 144.73 79.5074 144.73C71.4267 150.441 70.2592 155.784 70.9351 159.561C68.938 158.671 67.0023 157.658 65.1588 156.552C65.1281 156.521 65.0974 156.521 65.0667 156.491C64.1756 155.938 63.2539 155.385 62.3936 154.802C61.564 154.249 60.7652 153.666 59.9663 153.082C59.9663 153.021 59.9663 152.959 59.9356 152.867C59.9356 152.836 59.9356 152.775 59.9356 152.744C59.9356 152.652 59.9049 152.591 59.9049 152.499C59.8742 152.437 59.8742 152.345 59.8434 152.284C59.8434 152.253 59.8434 152.222 59.8127 152.192C59.782 152.099 59.782 152.038 59.7513 151.946C59.7205 151.823 59.6898 151.7 59.6284 151.577C59.5976 151.485 59.5669 151.393 59.5055 151.301C59.3826 150.963 59.1982 150.595 58.9831 150.226C58.9524 150.134 58.891 150.073 58.8602 149.981C58.8295 149.95 58.7988 149.889 58.7988 149.858C58.7373 149.766 58.7066 149.674 58.6452 149.581C58.215 148.937 57.7234 148.23 57.0782 147.493C56.9553 147.371 56.8631 147.217 56.7402 147.094C56.6173 146.941 56.4637 146.756 56.3408 146.603C56.3101 146.572 56.2793 146.511 56.2486 146.48C56.0643 146.265 55.9106 146.05 55.757 145.835C55.4805 145.467 55.204 145.098 54.9582 144.73C54.6202 144.238 54.3129 143.778 54.0057 143.286C53.9442 143.164 53.8521 143.041 53.7906 142.918C53.5756 142.549 53.3605 142.212 53.1761 141.843C53.0532 141.628 52.9303 141.413 52.8382 141.198C52.8074 141.168 52.8074 141.137 52.7767 141.075C52.6538 140.861 52.5616 140.646 52.4387 140.431C52.2851 140.093 52.1008 139.755 51.9779 139.417C51.9164 139.264 51.855 139.11 51.7935 138.987C51.7628 138.926 51.7321 138.865 51.7321 138.834C51.6399 138.619 51.5477 138.435 51.4863 138.22C51.4248 138.066 51.3634 137.913 51.3019 137.759C51.179 137.452 51.0561 137.114 50.9639 136.807V136.776C50.9025 136.561 50.8103 136.347 50.7489 136.132C50.626 135.702 50.4723 135.272 50.3802 134.842C50.3802 134.811 50.3802 134.811 50.3494 134.78C50.2265 134.351 49.9809 133.944 49.8887 133.514C49.858 133.36 49.397 132.885 49.3662 132.763C49.3048 132.455 49.4189 132.538 49.3882 132.262C47.9783 131.571 48.9185 131.036 48.8878 130.759C48.7956 130.207 46.1658 128.808 46.135 128.256C46.0429 127.119 48.8569 127.578 48.8876 126.503C47.6585 125.643 49.1074 125.778 49.1382 125.501C48.1286 124.745 48.8878 124.934 48.8878 124.75C48.0978 123.675 48.2867 122.761 49.1382 123.498C49.1382 123.406 48.6376 122.405 48.6376 122.313C48.6684 122.16 49.5506 123.541 49.5506 123.388C49.1382 122.895 48.6376 121.367 48.6376 121.245C48.6684 121.06 49.1074 121.93 49.1382 121.745C49.1382 121.684 49.0812 121.456 49.3662 121.996C49.397 121.75 48.8571 121.177 48.8878 120.931C48.9185 120.686 49.327 120.208 49.3884 119.993C49.4192 119.778 49.3355 120.458 49.3662 120.243C49.3662 120.182 49.5506 119.488 49.5506 119.427C49.5813 119.335 49.858 119.834 49.8887 119.742C49.9194 119.589 49.3356 118.556 49.8887 119.241C49.9194 119.119 49.4107 119.381 50.139 118.991C50.2004 118.807 49.3048 118.424 49.3662 118.24C49.4584 117.841 50.0468 117.607 50.139 117.238C50.2004 117.054 50.3278 116.671 50.3892 116.487C50.6657 115.597 50.8635 115.16 51.14 114.484C50.7675 114.484 51.4568 113.541 51.6405 113.733C51.7941 113.334 52.1315 113.408 52.2851 113.101C52.3158 113.039 52.3466 112.978 52.3773 112.917C52.4387 112.794 52.4695 112.702 52.5309 112.61C52.5616 112.548 52.5616 112.517 52.5924 112.487C52.746 112.18 52.8382 111.995 52.8689 111.934H52.8382C53.5448 111.535 54.2515 111.197 55.0196 110.89C57.0782 110.092 59.1982 109.692 61.3797 109.662C62.0556 109.662 62.7008 109.692 63.3768 109.754C63.8684 109.784 64.3907 109.877 64.8823 109.938C65.5583 110.061 66.2035 110.214 66.8794 110.399C67.7397 110.644 68.5693 110.921 69.4296 111.258C69.4911 111.289 69.5218 111.289 69.5832 111.32C70.6893 111.78 71.7954 112.333 72.8708 112.978C74.0076 113.654 75.1444 114.452 76.2198 115.343C76.3734 115.465 76.5271 115.588 76.6807 115.742C76.7114 115.772 76.7421 115.772 76.7421 115.803C76.7421 115.803 76.7421 115.803 76.7729 115.803C76.8036 115.834 76.865 115.865 76.8958 115.895C76.9572 115.957 77.0494 116.018 77.1416 116.11C77.1723 116.141 77.203 116.172 77.2645 116.202C77.3259 116.264 77.3874 116.325 77.4488 116.387C77.4795 116.417 77.541 116.448 77.5717 116.509C77.6332 116.54 77.6639 116.602 77.7253 116.632C77.7868 116.663 77.8175 116.724 77.879 116.755C77.9404 116.786 78.0019 116.847 78.0326 116.909C78.1248 117.001 78.2169 117.062 78.3091 117.154C78.432 117.246 78.5242 117.369 78.6471 117.492C78.6778 117.523 78.6778 117.523 78.7085 117.553C78.77 117.615 78.8007 117.646 78.8622 117.707C78.8929 117.768 78.9543 117.799 78.9851 117.861C79.0772 117.953 79.1387 118.014 79.2308 118.106C79.323 118.229 79.4459 118.352 79.5381 118.444C79.661 118.598 79.7839 118.72 79.9068 118.874C79.999 118.997 80.0911 119.089 80.1833 119.212C80.214 119.242 80.2448 119.273 80.2448 119.304C80.3369 119.427 80.4598 119.549 80.552 119.672C80.6749 119.826 80.7978 119.979 80.9207 120.133C80.9514 120.194 80.9822 120.225 81.0436 120.286C81.0743 120.317 81.1051 120.348 81.1358 120.409L81.1665 120.44C81.1972 120.471 81.1972 120.501 81.228 120.532C81.2587 120.563 81.2894 120.594 81.2894 120.624C81.3509 120.686 81.3816 120.716 81.4123 120.778C81.4123 120.808 81.443 120.808 81.443 120.839C81.5967 121.054 81.7503 121.238 81.9039 121.453C81.9346 121.484 81.9654 121.515 81.9654 121.545C82.0575 121.668 82.1497 121.791 82.2419 121.945C82.2726 121.975 82.3033 122.006 82.3341 122.067C82.3648 122.129 82.4262 122.19 82.457 122.252C82.457 122.252 82.457 122.252 82.457 122.282C82.457 122.282 82.457 122.313 82.4877 122.313C82.5184 122.344 82.5184 122.344 82.5184 122.375C82.5491 122.405 82.5799 122.467 82.6106 122.528C82.6106 122.559 82.6413 122.559 82.6413 122.559C82.7642 122.774 82.9178 122.958 83.0407 123.173C83.0407 123.173 83.0715 123.204 83.0715 123.234C83.0715 123.234 83.0715 123.265 83.1022 123.265C83.1329 123.326 83.1636 123.357 83.1944 123.419C83.2558 123.511 83.2865 123.572 83.348 123.664C83.4402 123.818 83.5323 123.971 83.6245 124.125C83.6245 124.125 83.6552 124.156 83.6552 124.186C83.8089 124.432 83.9625 124.708 84.0854 124.954C84.2083 125.169 84.3005 125.384 84.4234 125.568C84.4848 125.691 84.5463 125.783 84.6077 125.906C84.7306 126.121 84.8228 126.367 84.9457 126.581C84.9457 126.612 84.9764 126.612 84.9764 126.643C84.9457 127.011 85.13 127.349 85.2837 127.748Z" fill="#EA556A"/>
<path d="M59.9655 153.02C58.1527 151.669 56.4014 150.195 54.773 148.629C54.1585 148.046 53.544 147.431 52.9295 146.817C51.4854 145.313 50.1028 143.747 48.8124 142.088C48.7816 142.058 48.7509 141.996 48.7202 141.965C47.4605 140.338 46.2622 138.649 45.1868 136.899C44.0807 135.148 43.0668 133.337 42.1758 131.464C42.2372 129.59 42.483 127.809 42.8825 126.059C43.4662 123.418 44.4494 120.962 45.7399 118.812C46.2622 117.952 46.8152 117.123 47.4605 116.355C47.7984 115.925 48.1671 115.526 48.5358 115.127C49.0274 114.605 49.5805 114.114 50.1335 113.653C50.9631 112.978 51.8234 112.394 52.7451 111.872H52.7759C52.7452 111.933 52.653 112.118 52.4994 112.425C52.4686 112.456 52.4686 112.517 52.4379 112.548C52.4072 112.64 52.3457 112.763 52.2843 112.855C52.2536 112.916 52.2228 112.978 52.1921 113.039C52.0692 113.346 51.9156 113.715 51.7312 114.114C51.7005 114.175 51.6698 114.237 51.6698 114.298C51.3933 114.974 51.1167 115.772 50.8402 116.662C50.7788 116.847 50.7173 117.031 50.6559 117.246C50.5637 117.614 50.4408 117.983 50.3486 118.382C50.2872 118.566 50.2564 118.781 50.195 118.966C50.1643 119.088 50.1335 119.242 50.1028 119.365C50.0721 119.488 50.0414 119.641 50.0106 119.764C49.9799 119.856 49.9799 119.979 49.9492 120.071C49.9492 120.132 49.9185 120.163 49.9185 120.225C49.8877 120.439 49.8263 120.654 49.7956 120.869C49.7648 121.084 49.7034 121.33 49.6727 121.545C49.6419 121.76 49.6112 122.006 49.5805 122.251C49.5805 122.313 49.5498 122.343 49.5498 122.405C49.519 122.589 49.519 122.773 49.4883 122.958C49.4883 123.08 49.4576 123.203 49.4576 123.326C49.4269 123.48 49.4269 123.602 49.4269 123.756C49.4269 123.848 49.3961 123.971 49.3961 124.063C49.3654 124.309 49.3654 124.554 49.3347 124.831C49.3347 125.046 49.304 125.23 49.304 125.445C49.304 125.721 49.2732 125.998 49.2732 126.305C49.2425 127.379 49.304 128.485 49.3961 129.621C49.4576 130.174 49.519 130.727 49.5805 131.279C49.6112 131.556 49.6727 131.863 49.7034 132.139C49.7648 132.415 49.7956 132.723 49.857 132.999C49.8877 133.152 49.9185 133.275 49.9492 133.429C50.0414 133.859 50.1335 134.289 50.2564 134.719C50.2564 134.749 50.2564 134.749 50.2872 134.78C50.4101 135.21 50.533 135.64 50.6559 136.07C50.7173 136.285 50.8095 136.5 50.8709 136.714V136.745C50.9938 137.052 51.086 137.39 51.2089 137.697C51.2704 137.851 51.3318 138.004 51.3933 138.158C51.4854 138.342 51.5469 138.557 51.6391 138.772C51.6698 138.833 51.6698 138.895 51.7005 138.925C51.762 139.079 51.8234 139.202 51.8849 139.355C52.0385 139.693 52.1921 140.031 52.3457 140.369C52.4686 140.584 52.5608 140.799 52.6837 141.014C52.7144 141.044 52.7144 141.075 52.7451 141.136C52.868 141.351 52.9602 141.566 53.0831 141.781C53.2982 142.15 53.4825 142.488 53.6976 142.856C53.7591 142.979 53.8512 143.102 53.9127 143.225C54.2199 143.685 54.5272 144.176 54.8652 144.668C55.111 145.036 55.3875 145.405 55.664 145.773C55.8176 145.988 56.002 146.203 56.1556 146.418C56.1863 146.449 56.2171 146.51 56.2478 146.541C56.3707 146.694 56.5243 146.879 56.6472 147.032C56.7701 147.155 56.8623 147.309 56.9852 147.431C57.6304 148.168 58.122 148.875 58.5522 149.52C58.6136 149.612 58.6751 149.704 58.7058 149.796C58.7365 149.827 58.7672 149.888 58.7672 149.919C58.8287 150.011 58.8594 150.072 58.8901 150.164C59.1052 150.533 59.2588 150.901 59.4125 151.239C59.4432 151.331 59.4739 151.423 59.5354 151.516C59.5661 151.638 59.6275 151.761 59.6583 151.884C59.689 151.976 59.7197 152.038 59.7197 152.13C59.7197 152.16 59.7504 152.191 59.7504 152.222C59.7812 152.283 59.7812 152.375 59.8119 152.437C59.8426 152.529 59.8426 152.621 59.8426 152.682C59.8426 152.713 59.8426 152.775 59.8426 152.805C59.9655 152.897 59.9655 152.959 59.9655 153.02Z" fill="#CB2C44"/>
<path d="M87.2519 127.134C86.5452 127.319 85.9 127.503 85.2855 127.749C85.0089 127.841 84.7631 127.964 84.5173 128.056C84.3637 128.117 84.2101 128.209 84.0565 128.271C83.7492 128.424 83.442 128.578 83.1654 128.762C83.0425 128.854 82.8889 128.915 82.766 129.008C82.428 129.223 82.1208 129.468 81.8443 129.714C81.7828 129.775 81.7214 129.806 81.6599 129.867C81.4756 130.021 81.3219 130.175 81.1683 130.328C75.9144 135.671 79.5092 144.73 79.5092 144.73C71.4285 150.442 70.261 155.785 70.9369 159.562C68.9398 158.671 67.0041 157.658 65.1606 156.552C65.1299 156.522 65.0992 156.522 65.0685 156.491C64.1774 155.938 63.2557 155.385 62.3954 154.802C61.5658 154.249 60.767 153.666 59.9681 153.082C58.1554 151.731 56.404 150.257 54.7756 148.691C54.1611 148.108 53.5466 147.494 52.9321 146.879C51.4881 145.375 50.1054 143.809 48.815 142.15C48.7843 142.12 48.7535 142.058 48.7228 142.028C47.4631 140.4 46.2648 138.711 45.1895 136.961C46.6028 135.026 48.2927 133.982 49.9825 133.522C50.4434 133.399 50.8736 133.307 51.3344 133.245C53.393 133 55.3287 133.43 56.6191 133.859C57.6023 134.197 58.2168 134.504 58.2168 134.504C59.4151 132.232 60.767 130.911 62.1496 130.236C63.1021 129.775 64.0238 129.622 64.9148 129.652C65.007 129.652 65.1299 129.652 65.2221 129.683C68.3253 129.929 70.8448 132.385 70.8448 132.385C73.2106 128.885 76.3752 127.38 79.2941 126.797C80.7074 126.52 82.0593 126.459 83.2269 126.52C83.8107 126.551 84.3637 126.582 84.8246 126.643C86.2994 126.827 87.2519 127.134 87.2519 127.134Z" fill="#4B5A59"/>
<path d="M125.073 149.613L108.881 155.57C107.714 156 106.423 155.417 105.993 154.25L96.8678 129.469C96.4377 128.302 97.0215 127.012 98.189 126.582L114.381 120.625C115.549 120.195 116.839 120.779 117.269 121.946L126.394 146.727C126.825 147.893 126.241 149.183 125.073 149.613Z" fill="#74CBED"/>
<path d="M114.914 124.025L99.7734 129.588L107.132 149.591L122.272 144.027L114.914 124.025Z" fill="#868686"/>
<path d="M108.391 126.399L105.318 144.24L107.193 149.368L113.737 146.973L116.809 129.254L114.905 124.003L108.391 126.399Z" fill="#9C9C9C"/>
<path d="M118.283 148.692C118.283 148.661 118.252 148.631 118.252 148.6L118.222 148.508C118.099 148.17 117.853 147.894 117.576 147.71C117.177 147.433 116.624 147.372 116.132 147.556L114.166 148.293C113.951 148.354 113.797 148.477 113.644 148.6C113.459 148.784 113.306 148.999 113.213 149.214C113.09 149.583 113.06 149.982 113.213 150.35L113.244 150.443C113.551 151.272 114.504 151.702 115.333 151.394L117.331 150.657C117.576 150.565 117.761 150.443 117.914 150.258C118.283 149.89 118.467 149.276 118.283 148.692ZM117.115 150.228L115.118 150.965C114.596 151.149 114.012 150.934 113.766 150.473C113.736 150.412 113.705 150.381 113.705 150.32L113.674 150.228C113.459 149.644 113.766 148.999 114.35 148.784L116.347 148.047C116.931 147.832 117.576 148.139 117.791 148.723L117.822 148.815C117.853 148.876 117.853 148.938 117.853 148.969C117.914 149.491 117.638 150.043 117.115 150.228Z" fill="#566C78"/>
<path d="M104.98 126.46C105.252 126.46 105.472 126.241 105.472 125.969C105.472 125.698 105.252 125.478 104.98 125.478C104.708 125.478 104.488 125.698 104.488 125.969C104.488 126.241 104.708 126.46 104.98 126.46Z" fill="black"/>
<path d="M106.824 125.815C107.095 125.815 107.315 125.595 107.315 125.324C107.315 125.053 107.095 124.833 106.824 124.833C106.552 124.833 106.332 125.053 106.332 125.324C106.332 125.595 106.552 125.815 106.824 125.815Z" fill="black"/>
<path d="M108.668 125.169C108.939 125.169 109.159 124.949 109.159 124.678C109.159 124.407 108.939 124.187 108.668 124.187C108.396 124.187 108.176 124.407 108.176 124.678C108.176 124.949 108.396 125.169 108.668 125.169Z" fill="black"/>
<path d="M117.76 148.693L117.79 148.785C117.821 148.846 117.821 148.877 117.821 148.938C117.698 149.368 117.391 149.706 116.961 149.86L114.964 150.597C114.533 150.75 114.073 150.689 113.704 150.443C113.673 150.382 113.642 150.351 113.642 150.289L113.612 150.197C113.397 149.614 113.704 148.938 114.288 148.723L116.285 147.986C116.899 147.771 117.545 148.078 117.76 148.693Z" fill="#8EAABD"/>
<path d="M135.212 149.582C134.874 149.889 134.536 150.196 134.198 150.472C133.4 151.148 132.601 151.823 131.771 152.468C129.62 154.126 127.347 155.662 124.95 157.013C123.475 157.842 121.97 158.64 120.434 159.347L107.529 158.671L98.834 158.211L99.2027 153.911L99.7557 147.801L100.34 147.186L102.552 144.914L104.61 142.765L105.778 141.536L106.239 141.076L108.205 141.506L114.473 142.857L116.286 143.256L118.16 145.528L119.051 146.603L120.003 147.77L121.939 146.327L124.336 144.546L125.688 144.791L128.207 145.221L133.983 146.235L134.629 147.985L135.212 149.582Z" fill="#617983"/>
<path d="M135.335 146.845C135.181 146.998 134.617 147.488 134.494 147.611C134.156 147.918 134.567 147.898 134.229 148.175C133.43 148.85 132.631 149.526 131.802 150.171C131.802 150.14 131.771 150.109 131.771 150.048C131.74 149.894 131.71 149.71 131.648 149.556C131.218 147.775 130.542 145.626 129.006 144.797C128.606 144.582 128.023 144.428 127.592 144.397C127.193 144.367 126.824 144.367 126.425 144.397C126.087 144.428 125.749 144.428 125.411 144.459C124.612 144.52 124.52 144.428 124.09 144.858C123.66 145.288 123.322 145.994 123.076 146.608C122.861 147.13 122.707 147.714 122.584 148.267C122.584 148.297 122.553 148.328 122.553 148.359C122.492 148.912 122.4 149.495 122.246 150.078C121.601 152.289 118.343 151.966 118.035 149.908C118.035 149.908 118.387 149.74 118.418 149.525C118.449 149.31 118.005 148.974 118.035 148.759C118.066 148.514 117.914 148.359 117.945 148.082C117.945 148.082 117.945 148.052 117.945 148.021C117.945 147.652 117.975 147.284 117.945 146.916C117.945 146.823 117.945 146.701 117.914 146.608C117.914 146.608 117.914 146.608 117.914 146.578C117.883 146.332 117.822 146.117 117.76 145.871C117.73 145.718 117.668 145.564 117.607 145.411C117.392 144.797 117.115 144.275 116.654 143.753C116.593 143.691 116.531 143.63 116.47 143.568C115.825 142.893 115.057 142.402 114.258 142.002C113.858 141.818 113.459 141.665 113.029 141.511C111.677 141.05 110.233 140.743 108.819 140.743C107.621 140.743 106.454 140.989 105.409 141.572C105.317 141.634 105.225 141.695 105.132 141.726C105.01 141.818 104.887 141.879 104.764 141.972C104.119 142.463 103.565 143.108 103.074 143.875C103.012 143.968 102.951 144.06 102.92 144.152C102.306 145.196 102.152 145.595 101.814 146.639C101.783 146.731 101.753 146.854 101.722 146.946C101.538 147.591 101.384 148.236 101.261 148.912C101.23 149.034 101.23 149.126 101.2 149.249C101.2 149.28 101.2 149.341 101.2 149.372C101.107 150.6 100.216 151.307 99.264 151.522C97.9428 151.798 96.4373 151.092 96.5909 149.372C96.7446 147.345 97.2976 145.38 98.0965 143.507C98.2808 143.046 98.4959 142.616 98.7417 142.187C99.4176 140.958 100.247 139.853 101.261 138.932C101.937 138.317 102.674 137.765 103.504 137.335C103.658 137.273 103.811 137.181 103.965 137.12C104.702 136.782 105.501 136.536 106.3 136.352C106.638 136.291 106.976 136.229 107.314 136.199C109.895 135.891 112.599 136.383 115.057 137.335C115.517 137.519 115.978 137.703 116.439 137.918C118.221 138.778 119.727 140.098 120.802 141.695C121.171 141.357 121.54 141.05 121.97 140.805C122.769 140.344 123.721 140.037 124.796 139.883C124.919 139.853 125.073 139.853 125.196 139.822C126.794 139.669 128.453 139.669 129.958 140.16C130.481 140.313 130.972 140.528 131.464 140.835C133.338 141.941 134.536 143.753 135.335 145.749C135.427 146.148 135.489 146.691 135.335 146.845Z" fill="#4B5A59"/>
<path d="M135.674 149.183C135.52 149.336 135.367 149.459 135.244 149.582C134.906 149.889 134.568 150.196 134.23 150.472C133.431 151.148 132.632 151.824 131.803 152.468C131.803 152.438 131.772 152.407 131.772 152.346C131.741 152.192 131.71 152.008 131.649 151.854C131.219 150.073 130.543 147.924 129.007 147.095C128.607 146.88 128.023 146.726 127.593 146.695C127.194 146.665 126.825 146.665 126.426 146.695C126.088 146.726 125.75 146.726 125.412 146.757C124.613 146.818 124.521 146.726 124.091 147.156C123.66 147.586 123.323 148.292 123.077 148.906C122.862 149.428 122.708 150.012 122.585 150.564C122.585 150.595 122.554 150.626 122.554 150.657C122.493 151.209 122.401 151.793 122.247 152.376C121.602 154.587 118.038 154.434 117.731 152.376C117.7 152.192 117.7 151.977 117.731 151.762C117.761 151.547 117.792 151.363 117.823 151.148C117.853 150.902 117.915 150.657 117.946 150.38C117.946 150.38 117.946 150.35 117.946 150.319C117.946 149.95 117.976 149.582 117.946 149.213C117.946 149.121 117.946 148.998 117.915 148.906C117.915 148.906 117.915 148.906 117.915 148.876C117.884 148.63 117.823 148.415 117.761 148.169C117.731 148.016 117.669 147.862 117.608 147.709C117.393 147.095 117.116 146.573 116.655 146.05C116.594 145.989 116.532 145.928 116.471 145.866C115.826 145.191 115.058 144.699 114.259 144.3C113.859 144.116 113.46 143.962 113.03 143.809C111.678 143.348 110.234 143.041 108.82 143.041C107.622 143.041 106.455 143.287 105.41 143.87C105.318 143.932 105.226 143.993 105.133 144.024C105.01 144.116 104.888 144.177 104.765 144.269C104.119 144.761 103.566 145.406 103.075 146.173C103.013 146.265 102.952 146.358 102.921 146.45C102.307 147.494 102.153 147.893 101.815 148.937C101.784 149.029 101.754 149.152 101.723 149.244C101.539 149.889 101.385 150.534 101.262 151.209C101.231 151.332 101.231 151.424 101.201 151.547C101.201 151.578 101.201 151.639 101.201 151.67C101.108 152.898 100.217 153.605 99.2649 153.82C97.9437 154.096 96.8313 153.39 96.9849 151.67C97.1765 149.526 97.2985 147.678 98.0974 145.805C98.2817 145.344 98.4968 144.914 98.7426 144.484C99.4185 143.256 100.248 142.151 101.262 141.229C101.938 140.615 102.675 140.063 103.505 139.633C103.659 139.571 103.812 139.479 103.966 139.418C104.703 139.08 105.502 138.834 106.301 138.65C106.639 138.589 106.977 138.527 107.315 138.496C109.896 138.189 112.6 138.681 115.058 139.633C115.518 139.817 115.979 140.001 116.44 140.216C118.222 141.076 119.728 142.396 120.803 143.993C121.172 143.655 121.54 143.348 121.971 143.103C122.769 142.642 123.722 142.335 124.797 142.181C124.92 142.151 125.074 142.151 125.197 142.12C126.794 141.966 128.454 141.966 129.959 142.458C130.481 142.611 130.973 142.826 131.465 143.133C133.339 144.239 134.537 146.05 135.336 148.046C135.428 148.446 135.551 148.814 135.674 149.183Z" fill="#617983"/>
<path d="M62.579 110.152L49.1523 115.096C48.3534 115.373 47.4931 114.974 47.2166 114.206C46.9401 113.407 47.3395 112.548 48.1076 112.271L61.5344 107.327C62.3332 107.051 63.1935 107.45 63.4701 108.218C63.7773 108.986 63.3779 109.876 62.579 110.152Z" fill="#C42A41"/>
<path d="M89.1937 69.4038C88.8254 70.1408 88.3037 70.8163 87.6285 71.3998C84.7434 73.9792 80.2931 73.7336 77.715 70.847C75.1369 67.9605 75.3824 63.5079 78.2675 60.9285C79.5565 59.7923 81.1525 59.2089 82.7485 59.1475C81.4594 61.6655 81.7356 64.8284 83.7306 67.0393C85.2038 68.6668 87.1988 69.4652 89.1937 69.4038Z" fill="#4B5A59"/>
<path d="M88.2119 61.5119C90.2069 63.7535 90.5138 66.9164 89.1941 69.4037C87.1991 69.4651 85.2041 68.6667 83.7616 67.0699C81.7666 64.8283 81.4597 61.6654 82.7795 59.1781C84.7744 59.1167 86.7694 59.9151 88.2119 61.5119Z" fill="#617983"/>
<path d="M101.991 80.6125C101.715 81.1345 101.377 81.5951 100.917 81.9943C98.9216 83.7754 95.8524 83.5911 94.0723 81.5951C92.2921 79.5991 92.4763 76.5284 94.4712 74.7473C95.3613 73.9489 96.4662 73.5498 97.5711 73.519C96.6811 75.2387 96.8652 77.4496 98.2463 78.985C99.1978 80.1212 100.61 80.6739 101.991 80.6125Z" fill="#4B5A59"/>
<path d="M101.287 75.1458C102.668 76.6812 102.883 78.8614 101.962 80.6118C100.581 80.6425 99.1996 80.1204 98.2175 78.9843C96.8364 77.4489 96.6215 75.2686 97.5423 73.5183C98.9234 73.4876 100.305 74.0403 101.287 75.1458Z" fill="#617983"/>
<path d="M38.7339 219.97H33.9355L33.9658 216.428H38.7339C39.9246 216.428 40.9287 216.161 41.7461 215.626C42.5635 215.081 43.179 214.289 43.5928 213.25C44.0166 212.21 44.2285 210.954 44.2285 209.48V208.406C44.2285 207.276 44.1074 206.282 43.8652 205.424C43.6331 204.566 43.285 203.845 42.8208 203.259C42.3566 202.674 41.7865 202.235 41.1104 201.942C40.4342 201.64 39.6572 201.488 38.7793 201.488H33.8447V197.931H38.7793C40.2526 197.931 41.5998 198.183 42.8208 198.688C44.0519 199.182 45.1165 199.894 46.0146 200.822C46.9128 201.751 47.604 202.861 48.0884 204.152C48.5828 205.434 48.8301 206.862 48.8301 208.436V209.48C48.8301 211.045 48.5828 212.472 48.0884 213.764C47.604 215.056 46.9128 216.166 46.0146 217.094C45.1266 218.013 44.062 218.724 42.8208 219.229C41.5897 219.723 40.2274 219.97 38.7339 219.97ZM36.5088 197.931V219.97H31.9678V197.931H36.5088ZM59.3955 220.273C58.124 220.273 56.9837 220.071 55.9746 219.667C54.9655 219.254 54.1077 218.684 53.4014 217.957C52.7051 217.23 52.1702 216.388 51.7969 215.429C51.4235 214.46 51.2368 213.431 51.2368 212.341V211.736C51.2368 210.495 51.4134 209.359 51.7666 208.33C52.1198 207.301 52.6243 206.408 53.2803 205.651C53.9463 204.894 54.7536 204.314 55.7021 203.91C56.6507 203.496 57.7204 203.29 58.9111 203.29C60.0716 203.29 61.1009 203.481 61.999 203.865C62.8971 204.248 63.6489 204.793 64.2544 205.5C64.87 206.206 65.3341 207.054 65.647 208.042C65.9598 209.021 66.1162 210.111 66.1162 211.312V213.128H53.0986V210.222H61.8325V209.889C61.8325 209.284 61.7215 208.744 61.4995 208.27C61.2876 207.785 60.9647 207.402 60.5308 207.119C60.0968 206.837 59.5418 206.695 58.8657 206.695C58.2905 206.695 57.7961 206.821 57.3823 207.074C56.9686 207.326 56.6305 207.679 56.3682 208.133C56.1159 208.587 55.9242 209.122 55.793 209.738C55.6719 210.343 55.6113 211.009 55.6113 211.736V212.341C55.6113 212.997 55.7021 213.603 55.8838 214.158C56.0755 214.713 56.3429 215.192 56.686 215.596C57.0392 215.999 57.4631 216.312 57.9575 216.534C58.4621 216.756 59.0322 216.867 59.668 216.867C60.4551 216.867 61.1867 216.716 61.8628 216.413C62.549 216.1 63.1393 215.631 63.6338 215.005L65.7529 217.306C65.4098 217.801 64.9406 218.275 64.3452 218.729C63.7599 219.183 63.0535 219.556 62.2261 219.849C61.3986 220.132 60.4551 220.273 59.3955 220.273ZM56.3228 201.367L59.2896 196.705H64.0273L59.8647 201.367H56.3228ZM75.3647 216.867C75.8996 216.867 76.3739 216.766 76.7876 216.564C77.2013 216.353 77.5243 216.06 77.7563 215.687C77.9985 215.303 78.1247 214.854 78.1348 214.339H82.2368C82.2267 215.49 81.9189 216.514 81.3135 217.412C80.708 218.3 79.8957 219.001 78.8765 219.516C77.8573 220.021 76.717 220.273 75.4556 220.273C74.1841 220.273 73.0741 220.061 72.1255 219.637C71.187 219.213 70.4049 218.628 69.7793 217.881C69.1536 217.125 68.6844 216.247 68.3716 215.248C68.0588 214.238 67.9023 213.159 67.9023 212.008V211.569C67.9023 210.409 68.0588 209.329 68.3716 208.33C68.6844 207.321 69.1536 206.443 69.7793 205.696C70.4049 204.939 71.187 204.349 72.1255 203.925C73.064 203.501 74.1639 203.29 75.4253 203.29C76.7674 203.29 77.943 203.547 78.9521 204.062C79.9714 204.576 80.7686 205.313 81.3438 206.271C81.929 207.22 82.2267 208.345 82.2368 209.647H78.1348C78.1247 209.102 78.0086 208.608 77.7866 208.164C77.5747 207.72 77.2619 207.366 76.8481 207.104C76.4445 206.832 75.945 206.695 75.3496 206.695C74.7139 206.695 74.1942 206.832 73.7905 207.104C73.3869 207.366 73.0741 207.73 72.8521 208.194C72.63 208.648 72.4736 209.168 72.3828 209.753C72.3021 210.328 72.2617 210.934 72.2617 211.569V212.008C72.2617 212.644 72.3021 213.255 72.3828 213.84C72.4635 214.425 72.6149 214.945 72.8369 215.399C73.069 215.853 73.3869 216.211 73.7905 216.474C74.1942 216.736 74.7189 216.867 75.3647 216.867ZM89.0181 196.72V219.97H84.6587V196.72H89.0181ZM88.3975 211.206H87.2017C87.2118 210.066 87.3631 209.016 87.6558 208.058C87.9484 207.089 88.3672 206.251 88.9121 205.545C89.457 204.828 90.1079 204.273 90.8647 203.88C91.6317 203.486 92.4793 203.29 93.4077 203.29C94.215 203.29 94.9466 203.406 95.6025 203.638C96.2686 203.86 96.8387 204.223 97.313 204.728C97.7974 205.222 98.1707 205.873 98.4331 206.68C98.6955 207.487 98.8267 208.466 98.8267 209.617V219.97H94.437V209.586C94.437 208.86 94.3311 208.29 94.1191 207.876C93.9173 207.452 93.6196 207.154 93.2261 206.983C92.8426 206.801 92.3683 206.71 91.8032 206.71C91.1776 206.71 90.6427 206.826 90.1987 207.059C89.7648 207.291 89.4167 207.614 89.1543 208.027C88.8919 208.431 88.7002 208.905 88.5791 209.45C88.458 209.995 88.3975 210.58 88.3975 211.206ZM109.68 220.273C108.408 220.273 107.268 220.071 106.259 219.667C105.25 219.254 104.392 218.684 103.686 217.957C102.989 217.23 102.454 216.388 102.081 215.429C101.708 214.46 101.521 213.431 101.521 212.341V211.736C101.521 210.495 101.698 209.359 102.051 208.33C102.404 207.301 102.909 206.408 103.564 205.651C104.23 204.894 105.038 204.314 105.986 203.91C106.935 203.496 108.005 203.29 109.195 203.29C110.356 203.29 111.385 203.481 112.283 203.865C113.181 204.248 113.933 204.793 114.539 205.5C115.154 206.206 115.618 207.054 115.931 208.042C116.244 209.021 116.4 210.111 116.4 211.312V213.128H103.383V210.222H112.117V209.889C112.117 209.284 112.006 208.744 111.784 208.27C111.572 207.785 111.249 207.402 110.815 207.119C110.381 206.837 109.826 206.695 109.15 206.695C108.575 206.695 108.08 206.821 107.667 207.074C107.253 207.326 106.915 207.679 106.652 208.133C106.4 208.587 106.208 209.122 106.077 209.738C105.956 210.343 105.896 211.009 105.896 211.736V212.341C105.896 212.997 105.986 213.603 106.168 214.158C106.36 214.713 106.627 215.192 106.97 215.596C107.323 215.999 107.747 216.312 108.242 216.534C108.746 216.756 109.316 216.867 109.952 216.867C110.739 216.867 111.471 216.716 112.147 216.413C112.833 216.1 113.424 215.631 113.918 215.005L116.037 217.306C115.694 217.801 115.225 218.275 114.629 218.729C114.044 219.183 113.338 219.556 112.51 219.849C111.683 220.132 110.739 220.273 109.68 220.273ZM126.905 203.592V206.68H117.369V203.592H126.905ZM119.73 199.551H124.09V215.036C124.09 215.51 124.15 215.873 124.271 216.125C124.403 216.378 124.594 216.554 124.847 216.655C125.099 216.746 125.417 216.792 125.8 216.792C126.073 216.792 126.315 216.781 126.527 216.761C126.749 216.731 126.936 216.701 127.087 216.67L127.102 219.879C126.729 220 126.325 220.096 125.891 220.167C125.457 220.238 124.978 220.273 124.453 220.273C123.494 220.273 122.657 220.117 121.94 219.804C121.234 219.481 120.689 218.966 120.306 218.26C119.922 217.553 119.73 216.625 119.73 215.475V199.551ZM138.243 215.444C138.243 215.132 138.152 214.849 137.97 214.597C137.789 214.344 137.451 214.112 136.956 213.9C136.472 213.678 135.77 213.477 134.852 213.295C134.025 213.113 133.253 212.886 132.536 212.614C131.83 212.331 131.214 211.993 130.689 211.6C130.175 211.206 129.771 210.742 129.479 210.207C129.186 209.662 129.04 209.042 129.04 208.345C129.04 207.659 129.186 207.013 129.479 206.408C129.781 205.802 130.21 205.267 130.765 204.803C131.33 204.329 132.016 203.961 132.824 203.698C133.641 203.426 134.559 203.29 135.579 203.29C137.001 203.29 138.222 203.517 139.242 203.971C140.271 204.425 141.058 205.05 141.603 205.848C142.158 206.635 142.436 207.533 142.436 208.542H138.076C138.076 208.118 137.985 207.74 137.804 207.407C137.632 207.064 137.36 206.796 136.986 206.604C136.623 206.403 136.149 206.302 135.563 206.302C135.079 206.302 134.66 206.388 134.307 206.559C133.954 206.721 133.681 206.943 133.49 207.225C133.308 207.498 133.217 207.8 133.217 208.133C133.217 208.386 133.268 208.613 133.369 208.814C133.48 209.006 133.656 209.183 133.898 209.344C134.141 209.506 134.453 209.657 134.837 209.798C135.23 209.93 135.715 210.051 136.29 210.162C137.471 210.404 138.525 210.722 139.454 211.115C140.382 211.499 141.119 212.023 141.664 212.689C142.208 213.345 142.481 214.208 142.481 215.278C142.481 216.004 142.319 216.67 141.997 217.276C141.674 217.881 141.209 218.411 140.604 218.865C139.999 219.309 139.272 219.657 138.424 219.91C137.587 220.152 136.643 220.273 135.594 220.273C134.07 220.273 132.778 220 131.719 219.456C130.669 218.911 129.872 218.219 129.327 217.382C128.792 216.534 128.525 215.666 128.525 214.778H132.657C132.677 215.374 132.829 215.853 133.111 216.216C133.404 216.58 133.772 216.842 134.216 217.003C134.67 217.165 135.16 217.246 135.685 217.246C136.25 217.246 136.719 217.17 137.092 217.019C137.466 216.857 137.748 216.645 137.94 216.383C138.142 216.11 138.243 215.798 138.243 215.444ZM35.9639 243.089V255.97H31.6045V239.592H35.6914L35.9639 243.089ZM35.3281 247.206H34.1475C34.1475 245.995 34.3039 244.905 34.6167 243.937C34.9295 242.958 35.3685 242.125 35.9336 241.439C36.4987 240.743 37.1698 240.213 37.9468 239.85C38.7339 239.476 39.6118 239.29 40.5806 239.29C41.3475 239.29 42.0488 239.401 42.6846 239.623C43.3203 239.845 43.8652 240.198 44.3193 240.682C44.7835 241.167 45.1367 241.807 45.3789 242.604C45.6312 243.402 45.7573 244.375 45.7573 245.526V255.97H41.3677V245.511C41.3677 244.784 41.2668 244.219 41.0649 243.815C40.8631 243.412 40.5654 243.129 40.1719 242.968C39.7884 242.796 39.3141 242.71 38.749 242.71C38.1637 242.71 37.6541 242.826 37.2202 243.059C36.7964 243.291 36.4432 243.614 36.1606 244.027C35.8882 244.431 35.6813 244.905 35.54 245.45C35.3988 245.995 35.3281 246.58 35.3281 247.206ZM58.7598 252.05V239.592H63.1191V255.97H59.0171L58.7598 252.05ZM59.2441 248.689L60.5308 248.659C60.5308 249.749 60.4046 250.763 60.1523 251.702C59.9001 252.63 59.5216 253.437 59.0171 254.124C58.5125 254.8 57.8768 255.329 57.1099 255.713C56.3429 256.086 55.4398 256.273 54.4004 256.273C53.6032 256.273 52.8665 256.162 52.1904 255.94C51.5244 255.708 50.9492 255.35 50.4648 254.865C49.9906 254.371 49.6172 253.74 49.3447 252.973C49.0824 252.196 48.9512 251.263 48.9512 250.173V239.592H53.3105V250.203C53.3105 250.688 53.366 251.096 53.4771 251.429C53.5981 251.762 53.7646 252.035 53.9766 252.247C54.1885 252.458 54.4357 252.61 54.7183 252.701C55.0109 252.792 55.3338 252.837 55.687 252.837C56.5851 252.837 57.2915 252.655 57.8062 252.292C58.3309 251.929 58.6992 251.434 58.9111 250.809C59.1331 250.173 59.2441 249.466 59.2441 248.689ZM70.8086 242.983V255.97H66.4341V239.592H70.5361L70.8086 242.983ZM70.2031 247.206H68.9922C68.9922 246.066 69.1284 245.016 69.4009 244.058C69.6834 243.089 70.0921 242.251 70.627 241.545C71.1719 240.828 71.8429 240.273 72.6401 239.88C73.4373 239.486 74.3607 239.29 75.4102 239.29C76.1367 239.29 76.8027 239.401 77.4082 239.623C78.0137 239.834 78.5334 240.173 78.9673 240.637C79.4113 241.091 79.7544 241.686 79.9966 242.423C80.2388 243.149 80.3599 244.022 80.3599 245.042V255.97H76.0005V245.526C76.0005 244.779 75.8996 244.204 75.6978 243.8C75.4959 243.397 75.2083 243.114 74.835 242.953C74.4717 242.791 74.0327 242.71 73.5181 242.71C72.953 242.71 72.4585 242.826 72.0347 243.059C71.6209 243.291 71.2778 243.614 71.0054 244.027C70.7329 244.431 70.5311 244.905 70.3999 245.45C70.2687 245.995 70.2031 246.58 70.2031 247.206ZM79.9512 246.707L78.3921 246.903C78.3921 245.834 78.5233 244.84 78.7856 243.921C79.0581 243.003 79.4567 242.196 79.9814 241.5C80.5163 240.803 81.1772 240.263 81.9644 239.88C82.7515 239.486 83.6597 239.29 84.689 239.29C85.4761 239.29 86.1925 239.406 86.8384 239.638C87.4842 239.86 88.0342 240.218 88.4883 240.712C88.9525 241.197 89.3057 241.833 89.5479 242.62C89.8001 243.407 89.9263 244.37 89.9263 245.511V255.97H85.5518V245.511C85.5518 244.754 85.4508 244.179 85.249 243.785C85.0573 243.382 84.7747 243.104 84.4014 242.953C84.0381 242.791 83.6042 242.71 83.0996 242.71C82.5749 242.71 82.1157 242.816 81.7222 243.028C81.3286 243.23 81.0007 243.513 80.7383 243.876C80.4759 244.239 80.2791 244.663 80.1479 245.147C80.0168 245.622 79.9512 246.141 79.9512 246.707ZM100.84 256.273C99.5684 256.273 98.4281 256.071 97.4189 255.667C96.4098 255.254 95.5521 254.684 94.8457 253.957C94.1494 253.23 93.6146 252.388 93.2412 251.429C92.8678 250.46 92.6812 249.431 92.6812 248.341V247.736C92.6812 246.495 92.8577 245.359 93.2109 244.33C93.5641 243.301 94.0687 242.408 94.7246 241.651C95.3906 240.894 96.1979 240.314 97.1465 239.91C98.0951 239.496 99.1647 239.29 100.355 239.29C101.516 239.29 102.545 239.481 103.443 239.865C104.341 240.248 105.093 240.793 105.699 241.5C106.314 242.206 106.778 243.054 107.091 244.042C107.404 245.021 107.561 246.111 107.561 247.312V249.128H94.543V246.222H103.277V245.889C103.277 245.284 103.166 244.744 102.944 244.27C102.732 243.785 102.409 243.402 101.975 243.119C101.541 242.837 100.986 242.695 100.31 242.695C99.7349 242.695 99.2404 242.821 98.8267 243.074C98.4129 243.326 98.0749 243.679 97.8125 244.133C97.5602 244.587 97.3685 245.122 97.2373 245.738C97.1162 246.343 97.0557 247.009 97.0557 247.736V248.341C97.0557 248.997 97.1465 249.603 97.3281 250.158C97.5199 250.713 97.7873 251.192 98.1304 251.596C98.4836 251.999 98.9074 252.312 99.4019 252.534C99.9064 252.756 100.477 252.867 101.112 252.867C101.899 252.867 102.631 252.716 103.307 252.413C103.993 252.1 104.584 251.631 105.078 251.005L107.197 253.306C106.854 253.801 106.385 254.275 105.79 254.729C105.204 255.183 104.498 255.556 103.67 255.849C102.843 256.132 101.899 256.273 100.84 256.273ZM97.7671 237.367L100.734 232.705H105.472L101.309 237.367H97.7671ZM114.402 243.165V255.97H110.043V239.592H114.145L114.402 243.165ZM119.337 239.486L119.261 243.528C119.049 243.498 118.792 243.472 118.489 243.452C118.197 243.422 117.929 243.407 117.687 243.407C117.071 243.407 116.537 243.487 116.083 243.649C115.639 243.8 115.265 244.027 114.962 244.33C114.67 244.633 114.448 245.001 114.296 245.435C114.155 245.869 114.074 246.363 114.054 246.918L113.176 246.646C113.176 245.586 113.282 244.613 113.494 243.725C113.706 242.826 114.014 242.044 114.417 241.378C114.831 240.712 115.336 240.198 115.931 239.834C116.527 239.471 117.208 239.29 117.975 239.29C118.217 239.29 118.464 239.31 118.716 239.35C118.969 239.38 119.175 239.426 119.337 239.486ZM125.997 239.592V255.97H121.623V239.592H125.997ZM121.35 235.324C121.35 234.688 121.572 234.163 122.016 233.75C122.46 233.336 123.056 233.129 123.802 233.129C124.539 233.129 125.129 233.336 125.573 233.75C126.027 234.163 126.254 234.688 126.254 235.324C126.254 235.959 126.027 236.484 125.573 236.898C125.129 237.312 124.539 237.519 123.802 237.519C123.056 237.519 122.46 237.312 122.016 236.898C121.572 236.484 121.35 235.959 121.35 235.324ZM139.272 262.267V242.938L139.832 239.592H143.662V262.267H139.272ZM128.918 247.948V247.63C128.918 246.379 129.055 245.243 129.327 244.224C129.61 243.195 130.023 242.317 130.568 241.59C131.113 240.854 131.779 240.289 132.566 239.895C133.364 239.491 134.282 239.29 135.321 239.29C136.32 239.29 137.183 239.491 137.91 239.895C138.636 240.299 139.247 240.869 139.741 241.605C140.246 242.342 140.649 243.21 140.952 244.209C141.255 245.208 141.487 246.303 141.648 247.494V248.19C141.497 249.33 141.265 250.39 140.952 251.369C140.649 252.347 140.246 253.205 139.741 253.942C139.247 254.679 138.631 255.254 137.895 255.667C137.168 256.071 136.3 256.273 135.291 256.273C134.272 256.273 133.364 256.066 132.566 255.652C131.779 255.229 131.113 254.643 130.568 253.896C130.023 253.15 129.61 252.272 129.327 251.263C129.055 250.243 128.918 249.139 128.918 247.948ZM133.278 247.63V247.948C133.278 248.624 133.333 249.26 133.444 249.855C133.555 250.44 133.732 250.96 133.974 251.414C134.226 251.868 134.549 252.226 134.943 252.489C135.336 252.741 135.821 252.867 136.396 252.867C137.193 252.867 137.834 252.696 138.318 252.353C138.813 251.999 139.176 251.52 139.408 250.915C139.65 250.309 139.792 249.618 139.832 248.841V246.858C139.802 246.222 139.716 245.652 139.575 245.147C139.444 244.633 139.242 244.194 138.969 243.831C138.707 243.467 138.364 243.19 137.94 242.998C137.526 242.796 137.022 242.695 136.426 242.695C135.861 242.695 135.377 242.821 134.973 243.074C134.569 243.326 134.242 243.679 133.989 244.133C133.747 244.577 133.565 245.097 133.444 245.692C133.333 246.288 133.278 246.934 133.278 247.63ZM156.785 252.05V239.592H161.145V255.97H157.042L156.785 252.05ZM157.27 248.689L158.556 248.659C158.556 249.749 158.43 250.763 158.178 251.702C157.925 252.63 157.547 253.437 157.042 254.124C156.538 254.8 155.902 255.329 155.135 255.713C154.368 256.086 153.465 256.273 152.426 256.273C151.629 256.273 150.892 256.162 150.216 255.94C149.55 255.708 148.975 255.35 148.49 254.865C148.016 254.371 147.643 253.74 147.37 252.973C147.108 252.196 146.977 251.263 146.977 250.173V239.592H151.336V250.203C151.336 250.688 151.391 251.096 151.502 251.429C151.624 251.762 151.79 252.035 152.002 252.247C152.214 252.458 152.461 252.61 152.744 252.701C153.036 252.792 153.359 252.837 153.712 252.837C154.611 252.837 155.317 252.655 155.832 252.292C156.356 251.929 156.725 251.434 156.937 250.809C157.159 250.173 157.27 249.466 157.27 248.689ZM172.013 256.273C170.741 256.273 169.601 256.071 168.592 255.667C167.583 255.254 166.725 254.684 166.019 253.957C165.322 253.23 164.787 252.388 164.414 251.429C164.041 250.46 163.854 249.431 163.854 248.341V247.736C163.854 246.495 164.031 245.359 164.384 244.33C164.737 243.301 165.242 242.408 165.897 241.651C166.563 240.894 167.371 240.314 168.319 239.91C169.268 239.496 170.338 239.29 171.528 239.29C172.689 239.29 173.718 239.481 174.616 239.865C175.514 240.248 176.266 240.793 176.872 241.5C177.487 242.206 177.951 243.054 178.264 244.042C178.577 245.021 178.733 246.111 178.733 247.312V249.128H165.716V246.222H174.45V245.889C174.45 245.284 174.339 244.744 174.117 244.27C173.905 243.785 173.582 243.402 173.148 243.119C172.714 242.837 172.159 242.695 171.483 242.695C170.908 242.695 170.413 242.821 170 243.074C169.586 243.326 169.248 243.679 168.985 244.133C168.733 244.587 168.541 245.122 168.41 245.738C168.289 246.343 168.229 247.009 168.229 247.736V248.341C168.229 248.997 168.319 249.603 168.501 250.158C168.693 250.713 168.96 251.192 169.303 251.596C169.656 251.999 170.08 252.312 170.575 252.534C171.079 252.756 171.649 252.867 172.285 252.867C173.072 252.867 173.804 252.716 174.48 252.413C175.166 252.1 175.757 251.631 176.251 251.005L178.37 253.306C178.027 253.801 177.558 254.275 176.962 254.729C176.377 255.183 175.671 255.556 174.843 255.849C174.016 256.132 173.072 256.273 172.013 256.273ZM190.071 251.444C190.071 251.132 189.98 250.849 189.798 250.597C189.617 250.344 189.279 250.112 188.784 249.9C188.3 249.678 187.598 249.477 186.68 249.295C185.853 249.113 185.081 248.886 184.364 248.614C183.658 248.331 183.042 247.993 182.518 247.6C182.003 247.206 181.599 246.742 181.307 246.207C181.014 245.662 180.868 245.042 180.868 244.345C180.868 243.659 181.014 243.013 181.307 242.408C181.609 241.802 182.038 241.267 182.593 240.803C183.158 240.329 183.845 239.961 184.652 239.698C185.469 239.426 186.388 239.29 187.407 239.29C188.83 239.29 190.051 239.517 191.07 239.971C192.099 240.425 192.886 241.05 193.431 241.848C193.986 242.635 194.264 243.533 194.264 244.542H189.904C189.904 244.118 189.813 243.74 189.632 243.407C189.46 243.064 189.188 242.796 188.814 242.604C188.451 242.403 187.977 242.302 187.392 242.302C186.907 242.302 186.488 242.388 186.135 242.559C185.782 242.721 185.51 242.943 185.318 243.225C185.136 243.498 185.045 243.8 185.045 244.133C185.045 244.386 185.096 244.613 185.197 244.814C185.308 245.006 185.484 245.183 185.727 245.344C185.969 245.506 186.282 245.657 186.665 245.798C187.059 245.93 187.543 246.051 188.118 246.162C189.299 246.404 190.353 246.722 191.282 247.115C192.21 247.499 192.947 248.023 193.492 248.689C194.037 249.345 194.309 250.208 194.309 251.278C194.309 252.004 194.148 252.67 193.825 253.276C193.502 253.881 193.038 254.411 192.432 254.865C191.827 255.309 191.1 255.657 190.252 255.91C189.415 256.152 188.471 256.273 187.422 256.273C185.898 256.273 184.606 256 183.547 255.456C182.497 254.911 181.7 254.219 181.155 253.382C180.62 252.534 180.353 251.666 180.353 250.778H184.485C184.506 251.374 184.657 251.853 184.939 252.216C185.232 252.58 185.6 252.842 186.044 253.003C186.499 253.165 186.988 253.246 187.513 253.246C188.078 253.246 188.547 253.17 188.92 253.019C189.294 252.857 189.576 252.645 189.768 252.383C189.97 252.11 190.071 251.798 190.071 251.444Z" fill="#222222"/>
<rect x="30" y="284.356" width="18" height="18.8169" fill="#E96B73"/>
<rect x="53" y="284.356" width="18" height="18.8169" fill="#E96B73"/>
<rect x="76" y="284.356" width="18" height="18.8169" fill="#E96B73"/>
<rect x="99" y="284.356" width="18" height="18.8169" fill="#E4E4E4"/>
<rect x="122" y="284.356" width="18" height="18.8169" fill="#E4E4E4"/>
<rect x="145" y="284.356" width="18" height="18.8169" fill="#E4E4E4"/>
<rect x="168" y="284.356" width="18" height="18.8169" fill="#E4E4E4"/>
<rect x="191" y="284.356" width="18" height="18.8169" fill="#E4E4E4"/>
<rect x="214" y="284.356" width="18" height="18.8169" fill="#E4E4E4"/>
<rect x="237" y="284.356" width="18" height="18.8169" fill="#E4E4E4"/>
<rect x="217" y="18" width="50" height="47.0423" rx="16" fill="#E96B73"/>
<path d="M230.125 45.5L230.125 37.9997L253.876 37.9997L253.876 45.5L230.125 45.5Z" fill="#212121"/>
</svg>
