<svg width="282" height="175" viewBox="0 0 282 175" fill="none" xmlns="http://www.w3.org/2000/svg">
<path fill-rule="evenodd" clip-rule="evenodd" d="M40.2513 20.439V60.5169V60.5175V114.034H13.2109V60.5175V60.5169V20.439C13.2109 12.9641 19.2288 7 26.7713 7C30.5425 7 33.9125 8.51089 36.3197 10.8965C38.7268 13.3617 40.2513 16.7015 40.2513 20.439ZM40.2513 154.114V114.035H13.2109V154.114C13.2109 161.509 19.2288 167.553 26.691 167.553C34.2334 167.553 40.2513 161.509 40.2513 154.114Z" fill="#E96B73"/>
<path fill-rule="evenodd" clip-rule="evenodd" d="M40.2513 114.035H13.2109V154.114C13.2109 161.509 19.2288 167.553 26.691 167.553C34.2334 167.553 40.2513 161.509 40.2513 154.114V114.035ZM6.21094 20.439C6.21094 9.03889 15.4223 0 26.7712 0C32.4479 0 37.5721 2.2825 41.2471 5.92458L41.2878 5.96497L41.3279 6.00603C44.9125 9.67698 47.2513 14.7363 47.2513 20.439V154.114C47.2513 165.407 38.0671 174.553 26.691 174.553C15.368 174.553 6.21094 165.38 6.21094 154.114V20.439ZM13.2109 114.035V20.439C13.2109 12.9641 19.2288 7 26.7712 7C30.5425 7 33.9125 8.51089 36.3196 10.8965C38.7268 13.3617 40.2513 16.7015 40.2513 20.439V114.035H13.2109Z" fill="#212121"/>
<path d="M26.6603 167C19.2324 167 13.2109 160.978 13.2109 153.551L13.2109 20.0172C13.2109 12.5893 19.2324 6.56779 26.6603 6.56779V6.56779C34.0882 6.56779 40.1098 12.5893 40.1098 20.0172L40.1098 153.551C40.1098 160.978 34.0883 167 26.6603 167V167Z" fill="#212121"/>
<path d="M40.2513 60.5166H13.2109V114.034H40.2513V60.5166Z" fill="#FAC04F"/>
<path d="M40.2513 20.439V60.5175H13.2109V20.439C13.2109 12.9641 19.2288 7 26.7712 7C30.5425 7 33.9125 8.51089 36.3196 10.8965C38.7268 13.3617 40.2513 16.7015 40.2513 20.439Z" fill="#A8EB6C"/>
<path d="M40.2513 114.035V154.114C40.2513 161.509 34.2334 167.553 26.691 167.553C19.2288 167.553 13.2109 161.509 13.2109 154.114V114.035H40.2513Z" fill="#E96B73"/>
<path opacity="0.2" d="M40.3945 125.5C35.6732 169.9 13.8945 155 12.8945 146L11.8945 160.5L18.288 167L29.5994 170L41.8945 160.5L40.3945 125.5Z" fill="#212121"/>
<path d="M0 140C0 137.239 2.23858 135 5 135H23C25.7614 135 28 137.239 28 140C28 142.761 25.7614 145 23 145H5C2.23858 145 0 142.761 0 140Z" fill="#212121"/>
<path fill-rule="evenodd" clip-rule="evenodd" d="M0 147.484C1.4301 148.442 3.14985 149 5 149H23C27.9706 149 32 144.971 32 140C32 135.029 27.9706 131 23 131H5C3.14985 131 1.4301 131.558 0 132.516V140V147.484ZM0 140C0 142.761 2.23858 145 5 145H23C25.7614 145 28 142.761 28 140C28 137.239 25.7614 135 23 135H5C2.23858 135 0 137.239 0 140Z" fill="white"/>
<path d="M273.378 89.0527C273.378 98.3543 271.732 107.295 268.722 115.594C268.602 115.915 268.481 116.276 268.361 116.597C266.796 120.766 264.869 124.736 262.621 128.504C259.049 134.558 254.634 140.091 249.577 144.943C249.176 145.343 248.734 145.744 248.293 146.145C248.092 146.346 247.891 146.506 247.731 146.667C247.289 147.067 246.848 147.468 246.406 147.829C245.363 148.711 244.319 149.593 243.236 150.435C240.426 152.6 237.456 154.605 234.325 156.369C232.399 157.452 230.432 158.494 228.425 159.416C223.81 161.541 218.953 163.265 213.856 164.468C211.568 165.029 209.2 165.47 206.832 165.791C204.183 166.152 201.494 166.392 198.764 166.513C197.801 166.553 196.798 166.553 195.794 166.553C188.048 166.553 180.543 165.43 173.479 163.305C173.198 163.225 172.957 163.145 172.676 163.065C169.585 162.102 166.615 160.98 163.685 159.657C161.076 158.494 158.548 157.171 156.14 155.728C156.1 155.687 156.059 155.687 156.019 155.647C154.855 154.926 153.651 154.204 152.527 153.442C151.444 152.721 150.4 151.959 149.357 151.197C146.989 149.433 144.701 147.508 142.574 145.464C141.771 144.702 140.968 143.9 140.165 143.098C138.279 141.134 136.473 139.089 134.787 136.924C134.747 136.884 134.707 136.804 134.667 136.764C133.021 134.639 131.456 132.433 130.051 130.148C128.606 127.863 127.282 125.497 126.118 123.052C125.395 121.568 124.713 120.045 124.071 118.481C123.99 118.321 123.95 118.16 123.87 118C122.907 115.594 122.064 113.149 121.341 110.663C121.181 110.062 120.98 109.42 120.82 108.819C120.739 108.458 120.619 108.097 120.539 107.696C120.378 107.014 120.218 106.293 120.057 105.611C118.853 100.239 118.251 94.7059 118.251 89.0527C118.251 88.1306 118.251 87.2485 118.291 86.3264C119.736 44.7899 153.892 11.5527 195.835 11.5527C229.83 11.5527 258.728 33.4035 269.204 63.8342C270.488 67.5628 271.492 71.4118 272.214 75.381C272.455 76.6239 272.615 77.8668 272.776 79.1497C273.177 82.3973 273.378 85.6849 273.378 89.0527Z" fill="#C7C7C7"/>
<path fill-rule="evenodd" clip-rule="evenodd" d="M276.227 118.364L276.212 118.406C276.184 118.48 276.15 118.575 276.085 118.761L276.076 118.784C276.021 118.94 275.939 119.174 275.851 119.408C274.115 124.032 271.982 128.425 269.502 132.585C265.564 139.257 260.711 145.338 255.169 150.664C254.673 151.156 254.163 151.621 253.775 151.973C253.582 152.159 253.418 152.305 253.339 152.376L253.303 152.408L253.25 152.461L253.059 152.635C252.663 152.994 252.111 153.496 251.526 153.977L251.519 153.983C250.508 154.837 249.358 155.809 248.144 156.753L248.131 156.762L248.119 156.772C245.043 159.142 241.755 161.365 238.253 163.339L238.244 163.343C236.213 164.485 234.043 165.639 231.771 166.683M246.406 147.829C246.848 147.468 247.289 147.067 247.731 146.667C247.807 146.591 247.891 146.515 247.981 146.435C248.081 146.346 248.187 146.251 248.293 146.145C248.734 145.745 249.176 145.343 249.577 144.943C254.634 140.091 259.049 134.558 262.621 128.504C264.869 124.736 266.796 120.766 268.361 116.597C268.421 116.436 268.481 116.266 268.542 116.096C268.602 115.925 268.662 115.755 268.722 115.594C271.732 107.295 273.378 98.3543 273.378 89.0527C273.378 85.6849 273.177 82.3973 272.776 79.1497C272.615 77.8668 272.455 76.6239 272.214 75.381C271.492 71.4118 270.488 67.5628 269.204 63.8342C258.728 33.4035 229.83 11.5527 195.835 11.5527C153.892 11.5527 119.736 44.7899 118.291 86.3264C118.251 87.2485 118.251 88.1306 118.251 89.0527C118.251 94.7059 118.853 100.239 120.057 105.611C120.137 105.952 120.218 106.303 120.298 106.654C120.378 107.004 120.458 107.355 120.539 107.696C120.584 107.92 120.641 108.132 120.697 108.339C120.741 108.501 120.784 108.66 120.82 108.819C120.9 109.119 120.99 109.43 121.081 109.741C121.171 110.051 121.261 110.362 121.341 110.663C122.064 113.149 122.907 115.594 123.87 118C123.91 118.08 123.94 118.16 123.97 118.241C124.001 118.321 124.031 118.401 124.071 118.481C124.713 120.045 125.395 121.568 126.118 123.052C127.282 125.497 128.606 127.863 130.051 130.148C131.456 132.433 133.021 134.639 134.667 136.764C134.687 136.784 134.707 136.814 134.727 136.844C134.747 136.874 134.767 136.904 134.787 136.924C136.473 139.089 138.279 141.134 140.165 143.098C140.968 143.9 141.771 144.702 142.574 145.464C144.701 147.508 146.989 149.433 149.357 151.197C150.4 151.959 151.444 152.721 152.527 153.442C153.408 154.039 154.338 154.612 155.259 155.179C155.514 155.335 155.767 155.491 156.019 155.647C156.039 155.667 156.059 155.677 156.079 155.688C156.1 155.698 156.12 155.708 156.14 155.728C158.548 157.171 161.076 158.494 163.685 159.657C166.615 160.98 169.585 162.102 172.676 163.065C172.816 163.105 172.947 163.145 173.077 163.185C173.208 163.225 173.338 163.265 173.479 163.305C180.543 165.43 188.048 166.553 195.794 166.553C196.798 166.553 197.801 166.553 198.764 166.513C201.494 166.392 204.183 166.152 206.832 165.791C209.2 165.47 211.568 165.029 213.856 164.468C218.953 163.265 223.81 161.541 228.425 159.416C230.432 158.494 232.399 157.452 234.325 156.369C237.456 154.605 240.426 152.6 243.236 150.435C244.319 149.593 245.363 148.711 246.406 147.829ZM231.769 166.684C226.72 169.008 221.372 170.911 215.728 172.246C213.156 172.875 210.521 173.364 207.906 173.719C205.012 174.113 202.082 174.374 199.117 174.505L199.107 174.505L199.097 174.506C197.966 174.553 196.821 174.553 195.865 174.553H195.794C187.291 174.553 179.026 173.323 171.223 170.981C171.018 170.921 170.838 170.866 170.727 170.832C170.587 170.789 170.532 170.772 170.48 170.757L170.389 170.731L170.298 170.703C166.911 169.649 163.641 168.414 160.411 166.956C157.505 165.66 154.697 164.19 152.027 162.589L151.182 162.083L151.131 162.032C150.208 161.464 149.095 160.779 148.067 160.083C146.849 159.271 145.697 158.43 144.696 157.7L144.608 157.636L144.577 157.613C141.964 155.666 139.425 153.532 137.048 151.249C136.177 150.422 135.32 149.566 134.545 148.792L134.453 148.699L134.395 148.639C132.388 146.549 130.423 144.332 128.563 141.952C128.447 141.809 128.354 141.685 128.289 141.596C128.283 141.587 128.276 141.577 128.269 141.568C126.525 139.311 124.821 136.913 123.262 134.381C121.682 131.878 120.214 129.259 118.91 126.522C118.142 124.944 117.418 123.33 116.736 121.68C116.684 121.563 116.641 121.46 116.606 121.375C116.597 121.351 116.587 121.328 116.578 121.305L116.567 121.283L116.443 120.974C115.383 118.326 114.455 115.633 113.659 112.896L113.635 112.811L113.612 112.726C113.559 112.525 113.494 112.301 113.398 111.973L113.39 111.943C113.305 111.652 113.194 111.269 113.09 110.882L113.047 110.72L113.017 110.586C113.017 110.583 113.016 110.581 113.015 110.577C113.006 110.543 112.999 110.516 112.984 110.462C112.977 110.436 112.968 110.404 112.957 110.362L112.956 110.36C112.908 110.181 112.815 109.838 112.728 109.427C112.65 109.095 112.573 108.761 112.502 108.45L112.499 108.438C112.418 108.083 112.344 107.757 112.27 107.445L112.26 107.403L112.251 107.361C110.914 101.397 110.251 95.2765 110.251 89.0527L110.251 88.9897C110.251 88.1161 110.251 87.0984 110.297 86.0145C111.909 40.1952 149.585 3.55273 195.835 3.55273C233.343 3.55273 265.213 27.6648 276.768 61.2287C278.182 65.3352 279.284 69.5623 280.077 73.9054C280.37 75.4276 280.557 76.9 280.714 78.1564L280.715 78.1685C281.158 81.749 281.378 85.3644 281.378 89.0527C281.378 99.3038 279.563 109.167 276.243 118.322L276.227 118.364" fill="#212121"/>
<path d="M214.377 163.024H172.716C169.625 162.062 166.655 160.94 163.725 159.617C161.116 158.454 158.588 157.131 156.18 155.687C156.14 155.647 156.099 155.647 156.059 155.607C154.895 154.886 153.691 154.164 152.567 153.402V127.502L154.454 123.493L155.818 120.606L156.22 119.764L160.193 111.304L160.635 110.422L164.087 103.045L164.167 102.845L166.013 98.8755L169.545 91.2979L172.234 95.5878L174.883 99.8377L179.7 107.495L182.148 111.425L200.049 140.091L202.176 143.499L203.942 146.306L211.568 158.534L214.377 163.024Z" fill="#B06C6C"/>
<path d="M176.049 117.519L155.58 108.057C154.095 107.375 153.452 105.651 154.135 104.168L168.624 72.8552C169.306 71.3718 171.032 70.7303 172.517 71.4118L192.987 80.8738C194.472 81.5554 195.114 83.2794 194.432 84.7629L179.942 116.076C179.22 117.559 177.494 118.201 176.049 117.519Z" fill="#FBFEFF"/>
<path d="M190.316 84.4942L171.189 75.6621L159.502 100.919L178.628 109.751L190.316 84.4942Z" fill="#868686"/>
<path d="M182.071 80.7134L162.765 94.3049L159.755 100.8L168.023 104.609L187.248 91.0975L190.299 84.4821L182.071 80.7134Z" fill="#9C9C9C"/>
<path d="M169.668 107.376L167.179 106.213C166.938 106.093 166.657 106.012 166.417 106.012C166.096 105.972 165.734 106.052 165.453 106.173C165.012 106.373 164.61 106.734 164.37 107.215L164.33 107.335C163.848 108.418 164.289 109.661 165.373 110.142L167.741 111.265L167.862 111.345C168.504 111.625 169.186 111.585 169.748 111.265C170.149 111.064 170.47 110.703 170.671 110.262L170.711 110.182C171.193 109.14 170.751 107.857 169.668 107.376ZM168.102 110.743L165.614 109.581C164.972 109.26 164.651 108.538 164.811 107.857C164.811 107.776 164.851 107.696 164.891 107.656L164.932 107.536C165.253 106.814 166.136 106.494 166.858 106.814L169.347 107.977C170.069 108.298 170.39 109.18 170.069 109.901L170.029 109.982C169.989 110.062 169.949 110.102 169.908 110.182C169.547 110.824 168.785 111.024 168.102 110.743Z" fill="#566C78"/>
<path d="M179.341 77.7872C179.695 77.7872 179.983 77.4999 179.983 77.1456C179.983 76.7912 179.695 76.5039 179.341 76.5039C178.986 76.5039 178.698 76.7912 178.698 77.1456C178.698 77.4999 178.986 77.7872 179.341 77.7872Z" fill="black"/>
<path d="M181.629 78.8697C181.983 78.8697 182.271 78.5825 182.271 78.2281C182.271 77.8737 181.983 77.5864 181.629 77.5864C181.274 77.5864 180.986 77.8737 180.986 78.2281C180.986 78.5825 181.274 78.8697 181.629 78.8697Z" fill="black"/>
<path d="M183.916 80.0323C184.271 80.0323 184.558 79.7451 184.558 79.3907C184.558 79.0363 184.271 78.749 183.916 78.749C183.561 78.749 183.273 79.0363 183.273 79.3907C183.273 79.7451 183.561 80.0323 183.916 80.0323Z" fill="black"/>
<path d="M170.15 109.901L170.11 110.022C170.069 110.102 170.029 110.142 169.989 110.222C169.507 110.503 168.905 110.543 168.344 110.302L165.815 109.139C165.253 108.899 164.932 108.378 164.812 107.857C164.812 107.776 164.852 107.736 164.892 107.656L164.932 107.536C165.293 106.774 166.176 106.453 166.899 106.814L169.427 107.977C170.15 108.257 170.471 109.18 170.15 109.901Z" fill="#8EAABD"/>
<path d="M154.653 127.702L152.566 129.907L142.813 140.251L140.164 143.058C138.278 141.093 136.471 139.049 134.786 136.883C134.746 136.843 134.705 136.763 134.665 136.723C133.02 134.598 131.454 132.393 130.05 130.108C128.605 127.822 127.28 125.457 126.116 123.011C125.394 121.528 124.711 120.004 124.069 118.441C123.989 118.28 123.949 118.12 123.869 117.96C122.905 115.554 122.062 113.108 121.34 110.623C121.179 110.021 120.979 109.38 120.818 108.778C120.738 108.417 120.618 108.057 120.537 107.656C120.377 106.974 120.216 106.252 120.056 105.571L125.273 100.038C126.397 98.8752 128.243 98.795 129.407 99.9176L132.98 103.285L136.592 106.693L143.937 113.589L152.165 121.327L154.412 123.452L154.493 123.532C155.697 124.655 155.737 126.499 154.653 127.702Z" fill="#667C8B"/>
<path d="M148.072 122.771L144.981 126.058L138.64 132.794L134.786 136.884C134.746 136.843 134.706 136.763 134.666 136.723C133.02 134.598 131.455 132.393 130.05 130.108C128.605 127.823 127.281 125.457 126.117 123.011C125.395 121.528 124.712 120.004 124.07 118.441C123.99 118.28 123.95 118.12 123.869 117.96C122.906 115.554 122.063 113.108 121.341 110.623L121.622 110.342L127.843 103.727L130.773 106.493L133.141 108.698L135.79 111.184L141.048 116.115L148.072 122.771Z" fill="#C5DADD"/>
<path d="M146.065 130.509L145.984 130.429C145.141 129.627 143.777 129.667 142.974 130.509L141.088 132.514C140.887 132.714 140.767 132.955 140.646 133.195C140.526 133.516 140.486 133.837 140.526 134.197C140.566 134.679 140.807 135.16 141.168 135.521L141.248 135.601C142.091 136.403 143.456 136.363 144.258 135.521L146.145 133.516C146.988 132.634 146.948 131.311 146.065 130.509ZM145.703 133.035L143.817 135.039C143.335 135.561 142.533 135.641 141.931 135.24C141.89 135.2 141.81 135.16 141.77 135.08L141.69 134.999C141.088 134.438 141.088 133.516 141.65 132.955L143.536 130.95C144.098 130.349 145.021 130.349 145.623 130.87L145.703 130.95C145.744 130.99 145.824 131.07 145.864 131.11C146.225 131.712 146.185 132.514 145.703 133.035Z" fill="#566C78"/>
<path d="M121.379 108.578C121.219 108.738 121.018 108.818 120.817 108.778C120.737 108.417 120.616 108.057 120.536 107.655C120.777 107.455 121.138 107.455 121.379 107.696C121.58 107.936 121.58 108.337 121.379 108.578Z" fill="black"/>
<path d="M145.542 130.87L145.622 130.95C145.662 130.99 145.703 131.03 145.783 131.111C145.903 131.672 145.743 132.273 145.341 132.674L143.415 134.719C143.013 135.16 142.411 135.32 141.849 135.28C141.809 135.24 141.729 135.2 141.689 135.16L141.609 135.08C141.007 134.518 140.966 133.556 141.528 132.995L143.455 130.95C144.017 130.309 144.94 130.309 145.542 130.87Z" fill="#8EAABD"/>
<path d="M156.181 111.304V155.687C156.141 155.647 156.1 155.647 156.06 155.607C154.896 154.885 153.692 154.164 152.568 153.402C151.485 152.68 150.441 151.919 149.398 151.157C147.03 149.393 144.742 147.468 142.615 145.423C141.812 144.662 141.009 143.86 140.206 143.058C138.32 141.093 136.514 139.049 134.828 136.884C134.788 136.844 134.748 136.763 134.708 136.723C133.062 134.598 131.497 132.393 130.092 130.108C128.647 127.823 127.323 125.457 126.159 123.011C125.436 121.528 124.754 120.004 124.112 118.441C124.032 118.28 123.991 118.12 123.911 117.96L123.951 117.92C124.794 117.158 125.838 116.476 127.082 115.955C129.129 115.113 131.738 114.712 135.109 115.113C135.23 115.113 135.35 115.153 135.511 115.153C137.116 115.354 138.882 115.755 140.809 116.356L141.089 116.115L144.019 113.59L149.197 109.099L150.923 111.264H156.181V111.304Z" fill="#4B5A59"/>
<path d="M172.395 111.304H150.842L149.116 109.139L152.648 106.092L153.812 97.4321C153.812 97.4321 161.318 83.0386 176.73 90.2955C165.492 99.557 172.395 111.304 172.395 111.304Z" fill="#4B5A59"/>
<path d="M173.92 163.025C173.8 163.105 173.679 163.185 173.519 163.265C173.238 163.185 172.997 163.105 172.716 163.025C169.625 162.063 166.655 160.94 163.725 159.617C161.116 158.454 158.588 157.131 156.18 155.688V111.305H172.395C172.395 111.305 172.355 111.224 172.274 111.064C172.234 110.984 172.194 110.944 172.154 110.824C172.034 110.583 171.873 110.262 171.712 109.861C171.632 109.701 171.552 109.5 171.472 109.3C171.311 108.899 171.151 108.458 171.03 107.977C170.99 107.817 170.95 107.656 170.87 107.456C170.829 107.376 170.829 107.295 170.789 107.175C170.709 106.814 170.629 106.453 170.548 106.052C170.508 105.932 170.508 105.812 170.508 105.692C170.508 105.571 170.468 105.491 170.468 105.371C170.428 105.17 170.428 104.93 170.388 104.689C170.388 104.569 170.348 104.489 170.348 104.369C170.308 103.928 170.268 103.486 170.268 103.045V102.965C170.268 102.765 170.268 102.564 170.268 102.364C170.268 102.244 170.268 102.123 170.308 102.003C170.308 101.963 170.308 101.923 170.308 101.923C170.508 102.083 170.709 102.244 170.91 102.444C170.95 102.484 170.99 102.484 170.99 102.524C170.99 102.524 170.99 102.524 171.03 102.524C171.07 102.564 171.151 102.604 171.191 102.645C171.271 102.725 171.391 102.805 171.512 102.925C171.552 102.965 171.592 103.005 171.672 103.045C171.753 103.126 171.833 103.206 171.913 103.286C171.953 103.326 172.034 103.366 172.074 103.446C172.154 103.486 172.194 103.567 172.274 103.607C172.355 103.647 172.395 103.727 172.475 103.767C172.555 103.807 172.636 103.887 172.676 103.968C172.796 104.088 172.917 104.168 173.037 104.288C173.197 104.409 173.318 104.569 173.478 104.729C173.519 104.769 173.519 104.769 173.559 104.81C173.639 104.89 173.679 104.93 173.759 105.01C173.8 105.09 173.88 105.13 173.92 105.21C174.04 105.331 174.121 105.411 174.241 105.531C174.281 105.571 174.281 105.571 174.321 105.611C174.442 105.732 174.562 105.852 174.642 105.972C174.803 106.173 174.963 106.333 175.124 106.534C175.244 106.694 175.365 106.814 175.485 106.975C175.525 107.015 175.566 107.055 175.566 107.095C175.686 107.255 175.846 107.416 175.967 107.576C176.127 107.776 176.288 107.977 176.449 108.177C176.489 108.258 176.529 108.298 176.609 108.378C176.649 108.418 176.689 108.458 176.729 108.538L176.77 108.578C176.81 108.618 176.81 108.658 176.85 108.699C176.89 108.739 176.93 108.779 176.93 108.819C177.01 108.899 177.051 108.939 177.091 109.019C177.091 109.059 177.131 109.059 177.131 109.1C177.332 109.38 177.532 109.621 177.733 109.901C177.773 109.941 177.813 109.982 177.813 110.022C177.934 110.182 178.054 110.342 178.174 110.543C178.215 110.583 178.255 110.623 178.295 110.703C178.335 110.783 178.415 110.864 178.455 110.944C178.455 110.944 178.455 110.944 178.455 110.984L178.495 111.024C178.536 111.064 178.536 111.064 178.536 111.104C178.576 111.144 178.616 111.224 178.656 111.305C178.656 111.345 178.696 111.345 178.696 111.345C178.857 111.625 179.057 111.866 179.218 112.147C179.218 112.147 179.258 112.187 179.258 112.227C179.258 112.227 179.258 112.267 179.298 112.267C179.338 112.347 179.378 112.387 179.419 112.467C179.499 112.588 179.539 112.668 179.619 112.788C179.74 112.989 179.86 113.189 179.981 113.389C179.981 113.389 180.021 113.43 180.021 113.47C180.221 113.79 180.422 114.151 180.583 114.472C180.743 114.753 180.864 115.033 181.024 115.274C181.104 115.434 181.185 115.555 181.265 115.715C181.425 115.996 181.546 116.316 181.706 116.597C181.706 116.637 181.747 116.637 181.747 116.677C181.987 117.158 182.188 117.639 182.429 118.12C182.469 118.241 182.509 118.321 182.549 118.441C182.589 118.562 182.67 118.682 182.71 118.842C182.87 119.243 183.031 119.644 183.191 120.045C190.055 137.245 185.8 155.367 173.92 163.025Z" fill="white"/>
<path d="M155.738 85.0033C155.537 85.8052 155.216 86.5669 154.775 87.2084L149.677 96.9511L144.219 98.7953C143.456 98.1939 141.381 98.8741 139.173 98.5132C120.951 95.827 131.094 80.8336 131.094 80.8336C132.097 80.7133 133.141 80.7935 134.225 81.1143C135.027 81.3548 135.75 81.6756 136.432 82.0765C136.432 82.0765 136.432 82.0765 136.472 82.0765C136.512 82.1166 136.553 82.1166 136.553 82.1567C137.074 82.4774 138.961 83.3996 139.563 81.1544C139.603 80.9539 139.643 80.7534 139.683 80.553C140.847 76.1427 145.383 73.5768 149.798 74.8196C154.253 76.0224 156.902 80.5931 155.738 85.0033Z" fill="#EA556A"/>
<path d="M271.751 65.0527H271.251L262.251 78.0527L263.751 80.5527L270.751 79.0527L274.251 73.0527L273.751 69.5527L271.751 65.0527Z" fill="#EBAE56"/>
<path d="M268.122 81.3546L258.409 84.2814L251.265 80.9937C252.429 80.5126 254.315 80.2721 257.004 80.2721C281.206 80.4725 271.293 64.6357 271.293 64.6357C273.621 65.9187 275.346 68.204 275.748 71.0106C276.47 75.942 273.059 80.5527 268.122 81.3546Z" fill="#EBAE56"/>
<path d="M257.004 80.272C254.315 80.2319 252.469 80.5126 251.265 80.9937L246.93 78.989L242.595 67.8832C242.234 67.1215 241.953 66.2795 241.833 65.3975C241.11 60.5061 244.522 55.8954 249.419 55.0935C254.315 54.2917 258.931 57.5793 259.653 62.4707C259.694 62.6711 259.694 62.9117 259.734 63.1121C260.135 65.5979 262.302 64.7961 262.864 64.5555C262.904 64.5555 262.945 64.5154 262.985 64.5154C263.025 64.5154 263.025 64.4753 263.025 64.4753C263.787 64.1145 264.63 63.8338 265.513 63.6734C267.6 63.3126 269.607 63.7135 271.293 64.6357C271.253 64.6357 281.166 80.5126 257.004 80.272Z" fill="#FAC04F"/>
<path d="M253.751 95.0527L256.251 82.0527L258.751 82.5527L261.251 85.5527L264.251 103.053L263.251 118.053L258.251 122.053L253.251 119.553L253.751 95.0527Z" fill="#EBAE56"/>
<path d="M269.326 110.061C269.166 112.226 268.844 114.391 268.363 116.596C266.798 120.766 264.871 124.735 262.623 128.504C259.051 134.558 254.636 140.091 249.579 144.942C248.977 144.862 248.375 144.782 247.813 144.702C247.532 144.661 247.251 144.621 246.97 144.581C242.395 143.86 239.023 142.737 238.582 140.973C238.341 140.011 238.983 138.808 240.829 137.405C241.752 136.683 242.997 135.921 244.562 135.079C251.787 131.27 255.76 124.735 257.807 117.398C261.058 105.691 259.372 91.9791 257.887 84.161C257.887 84.1209 257.847 84.0407 257.847 84.0006C257.566 82.5171 257.285 81.2742 257.044 80.312C258.449 81.2742 259.734 82.3568 260.938 83.5596C261.941 84.5619 262.864 85.6845 263.667 86.8472C265.433 89.333 266.838 92.1796 267.801 95.2667C268.323 96.8705 268.684 98.5143 268.965 100.238C269.447 103.366 269.567 106.653 269.326 110.061Z" fill="#EBAE56"/>
<path d="M257.727 117.398C255.68 124.735 251.706 131.271 244.482 135.079C242.916 135.921 241.672 136.683 240.749 137.405C238.903 138.808 238.26 139.971 238.501 140.973C238.943 142.737 242.314 143.86 246.89 144.582C247.171 144.622 247.452 144.662 247.733 144.702C248.294 144.782 248.897 144.862 249.499 144.942C249.097 145.343 248.656 145.744 248.214 146.145C248.014 146.346 247.813 146.506 247.652 146.666C247.211 147.067 246.769 147.468 246.328 147.829C245.886 148.11 245.405 148.35 244.963 148.591C244.321 148.952 243.639 149.272 242.956 149.593C235.732 153.001 228.026 153.843 221.042 151.598C220.36 151.397 219.717 151.117 219.035 150.836C217.911 148.871 216.868 146.827 215.864 144.782C215.824 144.702 215.824 144.662 215.784 144.582C214.781 142.457 213.898 140.292 213.055 138.086C212.814 137.405 212.573 136.723 212.332 136.042C212.252 135.801 212.172 135.601 212.091 135.4L212.051 135.36L212.091 135.32C211.73 134.278 211.409 133.235 211.128 132.193C211.088 132.072 211.048 131.952 211.008 131.792C210.767 130.95 210.526 130.108 210.325 129.266C209.362 125.537 208.68 121.728 208.238 117.92C208.198 117.398 208.118 116.917 208.078 116.396C208.038 115.995 207.998 115.554 207.957 115.153C207.917 114.552 207.877 113.99 207.837 113.389C207.636 110.021 207.636 106.653 207.837 103.286C207.917 102.043 207.998 100.84 208.118 99.5971C209.041 97.833 210.085 96.149 211.168 94.5453C212.613 92.4605 214.179 90.4959 215.824 88.7318C222.968 81.1141 231.999 76.5034 240.749 75.9822C242.435 75.8619 244.08 75.902 245.726 76.1025C248.776 76.4633 251.706 77.3454 254.475 78.7887C255.318 79.2297 256.121 79.7109 256.884 80.2321C257.124 81.2344 257.365 82.4773 257.686 83.9206C257.686 83.9607 257.727 84.0409 257.727 84.081C259.292 91.9794 261.018 105.691 257.727 117.398Z" fill="#FAC04F"/>
<path d="M263.425 86.7667L241.712 76.7434C240.668 76.2623 240.227 75.0194 240.708 73.977C241.19 72.9346 242.434 72.4935 243.478 72.9747L265.191 82.9979C266.235 83.4791 266.676 84.7219 266.195 85.7644C265.673 86.7667 264.469 87.2478 263.425 86.7667Z" fill="#E2A552"/>
<path d="M257.725 117.399C252.788 113.67 245.965 116.477 245.684 116.597C245.804 116.477 247.65 114.753 243.797 108.658C239.824 102.324 231.395 106.533 231.395 106.533C231.395 106.533 233.041 97.8734 223.448 91.258C220.96 89.534 218.391 88.8524 215.983 88.8123C208.999 88.6119 203.059 93.4631 203.059 93.4631C203.059 93.4631 202.858 85.2441 194.67 83.6403C193.988 83.52 193.266 83.3998 192.503 83.3998C191.058 83.3196 189.734 83.48 188.61 83.7205C181.706 85.3643 180.302 92.2603 180.302 92.2603C180.221 92.2203 180.141 92.1802 180.061 92.1C178.897 91.3783 177.813 90.7769 176.73 90.2557C176.288 90.6165 175.887 90.9774 175.525 91.3382C175.485 91.3783 175.445 91.4184 175.365 91.4585C175.325 91.4986 175.285 91.5387 175.204 91.5788C175.124 91.659 175.044 91.7391 174.964 91.8193C174.923 91.8995 174.843 91.9396 174.803 92.0198C174.763 92.0599 174.763 92.0599 174.723 92.1C174.642 92.1802 174.562 92.2603 174.482 92.3806C174.442 92.4207 174.402 92.4608 174.361 92.541C174.281 92.6212 174.201 92.7415 174.121 92.8216C174 92.9419 173.92 93.0622 173.8 93.1825C173.599 93.423 173.438 93.6235 173.278 93.8641C173.198 93.9844 173.077 94.1447 172.997 94.265C172.917 94.3853 172.796 94.5457 172.716 94.6659C172.636 94.7862 172.555 94.9466 172.475 95.0669C172.435 95.1471 172.395 95.2272 172.355 95.3074C172.315 95.3475 172.315 95.3876 172.274 95.4277C172.234 95.4678 172.234 95.5079 172.194 95.548C172.114 95.6683 172.074 95.7885 171.993 95.9088C171.913 96.0291 171.873 96.1895 171.793 96.3097C171.753 96.3899 171.712 96.4701 171.672 96.5503C171.632 96.6706 171.592 96.7508 171.512 96.8711C171.472 96.9913 171.432 97.0715 171.391 97.1918C171.351 97.3121 171.311 97.4324 171.271 97.5526C171.231 97.6729 171.191 97.7932 171.11 97.9536C171.07 98.0338 171.03 98.154 170.99 98.2743C170.95 98.3545 170.95 98.4347 170.91 98.5149C170.829 98.7554 170.789 98.9559 170.709 99.1965C170.669 99.3167 170.629 99.4771 170.629 99.5974C170.589 99.7578 170.549 99.9181 170.549 100.079C170.508 100.199 170.508 100.279 170.508 100.399C170.468 100.64 170.428 100.92 170.388 101.161C170.388 101.241 170.348 101.321 170.348 101.402C170.348 101.482 170.348 101.562 170.308 101.602C170.308 101.722 170.308 101.843 170.268 101.963C170.468 102.123 170.669 102.284 170.87 102.484C170.91 102.524 170.95 102.524 170.95 102.564C170.95 102.564 170.95 102.564 170.99 102.564C171.03 102.604 171.11 102.644 171.151 102.685C171.231 102.765 171.351 102.845 171.472 102.965C171.512 103.005 171.552 103.045 171.632 103.085C171.712 103.166 171.793 103.246 171.873 103.326C171.913 103.366 171.993 103.406 172.034 103.486C172.114 103.527 172.154 103.607 172.234 103.647C172.315 103.687 172.355 103.767 172.435 103.807C172.515 103.847 172.595 103.927 172.636 104.008C172.756 104.128 172.876 104.208 172.997 104.328C173.157 104.449 173.278 104.609 173.438 104.769C173.478 104.809 173.478 104.809 173.519 104.85C173.599 104.93 173.639 104.97 173.719 105.05C173.759 105.13 173.84 105.17 173.88 105.251C174 105.371 174.121 105.531 174.281 105.651C174.402 105.772 174.522 105.892 174.602 106.012C174.763 106.213 174.923 106.373 175.084 106.574C175.204 106.734 175.325 106.854 175.445 107.015C175.485 107.055 175.525 107.095 175.525 107.135C175.646 107.295 175.806 107.456 175.927 107.616C176.087 107.816 176.248 108.017 176.408 108.217C176.449 108.298 176.489 108.338 176.569 108.418C176.609 108.458 176.649 108.498 176.689 108.578C176.77 108.658 176.85 108.779 176.93 108.859C177.01 108.939 177.051 108.979 177.091 109.059C177.091 109.099 177.131 109.099 177.131 109.14C177.332 109.42 177.532 109.661 177.733 109.941C177.773 109.982 177.813 110.022 177.813 110.062C177.934 110.222 178.054 110.382 178.174 110.583C178.255 110.703 178.335 110.864 178.455 110.984C178.455 110.984 178.455 110.984 178.455 111.024C178.455 111.024 178.455 111.064 178.496 111.064C178.536 111.104 178.536 111.104 178.536 111.144C178.576 111.184 178.616 111.264 178.656 111.345C178.656 111.385 178.696 111.385 178.696 111.385C178.897 111.665 179.057 111.946 179.258 112.227C179.258 112.227 179.258 112.267 179.298 112.267C179.338 112.347 179.379 112.387 179.419 112.467C179.499 112.588 179.539 112.668 179.619 112.788C179.74 112.988 179.86 113.189 179.981 113.389C180.181 113.75 180.382 114.111 180.583 114.472C180.984 115.194 181.345 115.915 181.706 116.677C181.947 117.158 182.148 117.639 182.389 118.12C182.028 118.241 181.706 118.401 181.385 118.521C181.185 118.602 180.984 118.722 180.783 118.802C180.382 119.002 179.981 119.203 179.619 119.443C179.459 119.564 179.258 119.644 179.098 119.764C178.656 120.045 178.255 120.366 177.893 120.686C177.813 120.767 177.733 120.807 177.653 120.887C177.412 121.087 177.211 121.288 177.01 121.488C170.147 128.464 174.843 140.292 174.843 140.292C164.287 147.749 162.762 154.725 163.645 159.657C166.535 160.98 169.545 162.103 172.636 163.065C172.917 163.145 173.157 163.225 173.438 163.305C180.502 165.43 187.968 166.553 195.754 166.553C196.758 166.553 197.721 166.553 198.724 166.513C201.454 166.433 204.143 166.152 206.792 165.791C209.16 165.47 211.528 164.989 213.816 164.468C218.873 163.265 223.729 161.581 228.385 159.416C230.392 158.494 232.358 157.452 234.285 156.369C237.376 154.605 240.346 152.6 243.195 150.435C244.279 149.594 245.363 148.752 246.366 147.829C246.808 147.469 247.249 147.068 247.691 146.667C247.891 146.506 248.092 146.306 248.252 146.146C248.694 145.745 249.095 145.344 249.537 144.943C254.594 140.091 259.009 134.559 262.581 128.505C262.059 122.531 260.133 119.203 257.725 117.399Z" fill="#617983"/>
<path d="M144.259 98.8353L138.68 100.72L130.051 97.0712C125.596 95.8283 122.947 91.2577 124.111 86.8475C124.994 83.4796 127.844 81.1943 131.135 80.8335C131.135 80.8335 121.663 94.7458 139.925 97.4721C142.092 97.7528 143.497 98.2339 144.259 98.8353Z" fill="#CB2C44"/>
<path d="M182.468 118.12C182.107 118.24 181.786 118.401 181.465 118.521C181.264 118.601 181.064 118.722 180.863 118.802C180.462 119.002 180.06 119.203 179.699 119.443C179.538 119.564 179.338 119.644 179.177 119.764C178.736 120.045 178.334 120.365 177.973 120.686C177.893 120.766 177.813 120.806 177.732 120.887C177.492 121.087 177.291 121.288 177.09 121.488C170.227 128.464 174.923 140.292 174.923 140.292C164.367 147.749 162.842 154.725 163.725 159.657C161.116 158.494 158.587 157.171 156.179 155.728C156.139 155.687 156.099 155.687 156.059 155.647C154.895 154.926 153.691 154.204 152.567 153.442C151.483 152.721 150.44 151.959 149.396 151.197C149.396 151.117 149.396 151.037 149.356 150.916C149.356 150.876 149.356 150.796 149.356 150.756C149.356 150.636 149.316 150.556 149.316 150.435C149.276 150.355 149.276 150.235 149.236 150.155C149.236 150.115 149.236 150.074 149.195 150.034C149.155 149.914 149.155 149.834 149.115 149.714C149.075 149.553 149.035 149.393 148.955 149.232C148.914 149.112 148.874 148.992 148.794 148.872C148.634 148.431 148.393 147.949 148.112 147.468C148.072 147.348 147.991 147.268 147.951 147.148C147.911 147.108 147.871 147.027 147.871 146.987C147.791 146.867 147.751 146.747 147.67 146.626C147.108 145.784 146.466 144.862 145.623 143.9C145.463 143.74 145.342 143.539 145.182 143.379C145.021 143.178 144.821 142.938 144.66 142.737C144.62 142.697 144.58 142.617 144.54 142.577C144.299 142.296 144.098 142.016 143.897 141.735C143.536 141.254 143.175 140.773 142.854 140.292C142.412 139.65 142.011 139.049 141.61 138.407C141.529 138.247 141.409 138.087 141.329 137.926C141.048 137.445 140.767 137.004 140.526 136.523C140.365 136.242 140.205 135.962 140.084 135.681C140.044 135.641 140.044 135.601 140.004 135.521C139.844 135.24 139.723 134.959 139.563 134.679C139.362 134.238 139.121 133.797 138.961 133.356C138.88 133.155 138.8 132.955 138.72 132.794C138.68 132.714 138.64 132.634 138.64 132.594C138.519 132.313 138.399 132.073 138.318 131.792C138.238 131.592 138.158 131.391 138.078 131.191C137.917 130.79 137.757 130.349 137.636 129.948V129.908C137.556 129.627 137.435 129.346 137.355 129.066C137.195 128.504 136.994 127.943 136.874 127.382C136.874 127.342 136.874 127.342 136.833 127.302C136.673 126.74 136.352 126.209 136.232 125.648C136.191 125.447 135.589 124.827 135.549 124.667C135.469 124.266 135.618 124.374 135.578 124.013C133.736 123.112 134.964 122.412 134.924 122.052C134.804 121.33 131.368 119.504 131.328 118.782C131.208 117.299 134.884 117.897 134.924 116.494C133.318 115.371 135.211 115.547 135.251 115.186C133.932 114.198 134.924 114.446 134.924 114.205C133.892 112.802 134.139 111.609 135.251 112.571C135.251 112.451 134.597 111.144 134.597 111.024C134.637 110.823 135.79 112.627 135.79 112.427C135.251 111.784 134.597 109.789 134.597 109.629C134.637 109.388 135.211 110.523 135.251 110.282C135.251 110.202 135.177 109.904 135.549 110.609C135.589 110.289 134.884 109.54 134.924 109.22C134.964 108.899 135.498 108.275 135.578 107.994C135.618 107.713 135.509 108.602 135.549 108.321C135.549 108.241 135.79 107.335 135.79 107.255C135.83 107.135 136.191 107.787 136.232 107.667C136.272 107.467 135.509 106.118 136.232 107.013C136.272 106.853 135.607 107.195 136.558 106.686C136.639 106.446 135.469 105.946 135.549 105.706C135.669 105.184 136.438 104.879 136.558 104.398C136.639 104.157 136.805 103.658 136.885 103.417C137.247 102.254 137.505 101.684 137.866 100.802C137.38 100.802 138.28 99.5699 138.52 99.821C138.721 99.2998 139.161 99.3967 139.362 98.9958C139.402 98.9156 139.442 98.8354 139.482 98.7552C139.563 98.5949 139.603 98.4746 139.683 98.3543C139.723 98.2741 139.723 98.234 139.763 98.1939C139.964 97.793 140.084 97.5525 140.125 97.4723H140.084C141.008 96.9511 141.931 96.51 142.934 96.1091C145.623 95.0667 148.393 94.5455 151.242 94.5054C152.125 94.5054 152.968 94.5455 153.851 94.6257C154.493 94.6657 155.176 94.786 155.818 94.8662C156.701 95.0266 157.544 95.2271 158.427 95.4676C159.551 95.7884 160.634 96.1492 161.758 96.5902C161.838 96.6303 161.878 96.6303 161.959 96.6704C163.404 97.2718 164.849 97.9935 166.253 98.8354C167.738 99.7175 169.223 100.76 170.628 101.923C170.829 102.083 171.03 102.243 171.23 102.444C171.27 102.484 171.311 102.484 171.311 102.524C171.311 102.524 171.311 102.524 171.351 102.524C171.391 102.564 171.471 102.604 171.511 102.644C171.591 102.724 171.712 102.805 171.832 102.925C171.872 102.965 171.913 103.005 171.993 103.045C172.073 103.125 172.153 103.206 172.234 103.286C172.274 103.326 172.354 103.366 172.394 103.446C172.474 103.486 172.515 103.566 172.595 103.607C172.675 103.647 172.715 103.727 172.796 103.767C172.876 103.807 172.956 103.887 172.996 103.967C173.117 104.088 173.237 104.168 173.357 104.288C173.518 104.408 173.638 104.569 173.799 104.729C173.839 104.769 173.839 104.769 173.879 104.809C173.96 104.889 174 104.93 174.08 105.01C174.12 105.09 174.2 105.13 174.24 105.21C174.361 105.331 174.441 105.411 174.562 105.531C174.682 105.691 174.843 105.852 174.963 105.972C175.123 106.172 175.284 106.333 175.445 106.533C175.565 106.694 175.685 106.814 175.806 106.974C175.846 107.014 175.886 107.055 175.886 107.095C176.006 107.255 176.167 107.415 176.287 107.576C176.448 107.776 176.609 107.977 176.769 108.177C176.809 108.257 176.849 108.297 176.93 108.378C176.97 108.418 177.01 108.458 177.05 108.538L177.09 108.578C177.13 108.618 177.13 108.658 177.17 108.698C177.211 108.738 177.251 108.779 177.251 108.819C177.331 108.899 177.371 108.939 177.411 109.019C177.411 109.059 177.451 109.059 177.451 109.099C177.652 109.38 177.853 109.62 178.053 109.901C178.094 109.941 178.134 109.981 178.134 110.021C178.254 110.182 178.375 110.342 178.495 110.543C178.535 110.583 178.575 110.623 178.615 110.703C178.655 110.783 178.736 110.863 178.776 110.944C178.776 110.944 178.776 110.944 178.776 110.984C178.776 110.984 178.776 111.024 178.816 111.024C178.856 111.064 178.856 111.064 178.856 111.104C178.896 111.144 178.936 111.224 178.977 111.304C178.977 111.344 179.017 111.344 179.017 111.344C179.177 111.625 179.378 111.866 179.538 112.146C179.538 112.146 179.579 112.186 179.579 112.227C179.579 112.227 179.579 112.267 179.619 112.267C179.659 112.347 179.699 112.387 179.739 112.467C179.819 112.587 179.86 112.668 179.94 112.788C180.06 112.988 180.181 113.189 180.301 113.389C180.301 113.389 180.341 113.429 180.341 113.469C180.542 113.79 180.743 114.151 180.903 114.472C181.064 114.752 181.184 115.033 181.345 115.274C181.425 115.434 181.505 115.554 181.585 115.715C181.746 115.995 181.866 116.316 182.027 116.597C182.027 116.637 182.067 116.637 182.067 116.677C182.027 117.158 182.268 117.599 182.468 118.12Z" fill="#EA556A"/>
<path d="M149.397 151.117C147.029 149.353 144.741 147.428 142.614 145.384C141.811 144.622 141.009 143.82 140.206 143.018C138.32 141.053 136.513 139.009 134.828 136.844C134.788 136.804 134.747 136.723 134.707 136.683C133.062 134.558 131.496 132.353 130.092 130.068C128.647 127.783 127.322 125.417 126.158 122.971C126.238 120.526 126.56 118.2 127.081 115.915C127.844 112.467 129.128 109.26 130.814 106.453C131.496 105.331 132.219 104.248 133.062 103.246C133.503 102.684 133.985 102.163 134.466 101.642C135.109 100.96 135.831 100.319 136.554 99.7175C137.637 98.8354 138.761 98.0737 139.965 97.3921H140.005C139.965 97.4723 139.845 97.7128 139.644 98.1138C139.604 98.1539 139.604 98.234 139.564 98.2741C139.524 98.3944 139.443 98.5548 139.363 98.6751C139.323 98.7553 139.283 98.8354 139.243 98.9156C139.082 99.3166 138.881 99.7977 138.641 100.319C138.6 100.399 138.56 100.479 138.56 100.559C138.199 101.441 137.838 102.484 137.477 103.647C137.396 103.887 137.316 104.128 137.236 104.408C137.115 104.89 136.955 105.371 136.834 105.892C136.754 106.132 136.714 106.413 136.634 106.654C136.594 106.814 136.554 107.014 136.513 107.175C136.473 107.335 136.433 107.536 136.393 107.696C136.353 107.816 136.353 107.977 136.313 108.097C136.313 108.177 136.273 108.217 136.273 108.297C136.232 108.578 136.152 108.859 136.112 109.139C136.072 109.42 135.992 109.741 135.951 110.021C135.911 110.302 135.871 110.623 135.831 110.944C135.831 111.024 135.791 111.064 135.791 111.144C135.751 111.385 135.751 111.625 135.711 111.866C135.711 112.026 135.671 112.186 135.671 112.347C135.63 112.547 135.63 112.708 135.63 112.908C135.63 113.028 135.59 113.189 135.59 113.309C135.55 113.63 135.55 113.951 135.51 114.311C135.51 114.592 135.47 114.833 135.47 115.113C135.47 115.474 135.43 115.835 135.43 116.236C135.39 117.639 135.47 119.082 135.59 120.566C135.671 121.288 135.751 122.009 135.831 122.731C135.871 123.092 135.951 123.493 135.992 123.854C136.072 124.214 136.112 124.615 136.192 124.976C136.232 125.177 136.273 125.337 136.313 125.537C136.433 126.099 136.554 126.66 136.714 127.221C136.714 127.261 136.714 127.261 136.754 127.302C136.915 127.863 137.075 128.424 137.236 128.985C137.316 129.266 137.437 129.547 137.517 129.827V129.868C137.677 130.268 137.798 130.709 137.958 131.11C138.039 131.311 138.119 131.511 138.199 131.712C138.32 131.952 138.4 132.233 138.52 132.514C138.56 132.594 138.56 132.674 138.6 132.714C138.681 132.915 138.761 133.075 138.841 133.275C139.042 133.716 139.243 134.157 139.443 134.598C139.604 134.879 139.724 135.16 139.885 135.44C139.925 135.481 139.925 135.521 139.965 135.601C140.126 135.881 140.246 136.162 140.407 136.443C140.688 136.924 140.928 137.365 141.209 137.846C141.29 138.006 141.41 138.167 141.49 138.327C141.892 138.929 142.293 139.57 142.735 140.212C143.056 140.693 143.417 141.174 143.778 141.655C143.979 141.936 144.22 142.216 144.42 142.497C144.46 142.537 144.501 142.617 144.541 142.657C144.701 142.858 144.902 143.098 145.062 143.299C145.223 143.459 145.343 143.66 145.504 143.82C146.347 144.782 146.989 145.704 147.551 146.546C147.631 146.667 147.711 146.787 147.752 146.907C147.792 146.947 147.832 147.027 147.832 147.067C147.912 147.188 147.952 147.268 147.992 147.388C148.273 147.869 148.474 148.35 148.675 148.791C148.715 148.912 148.755 149.032 148.835 149.152C148.875 149.313 148.956 149.473 148.996 149.633C149.036 149.754 149.076 149.834 149.076 149.954C149.076 149.994 149.116 150.034 149.116 150.074C149.156 150.155 149.156 150.275 149.196 150.355C149.237 150.475 149.237 150.596 149.237 150.676C149.237 150.716 149.237 150.796 149.237 150.836C149.397 150.956 149.397 151.037 149.397 151.117Z" fill="#CB2C44"/>
<path d="M185.038 117.319C184.115 117.559 183.272 117.8 182.47 118.12C182.108 118.241 181.787 118.401 181.466 118.521C181.266 118.602 181.065 118.722 180.864 118.802C180.463 119.002 180.062 119.203 179.7 119.443C179.54 119.564 179.339 119.644 179.179 119.764C178.737 120.045 178.336 120.366 177.974 120.686C177.894 120.767 177.814 120.807 177.734 120.887C177.493 121.087 177.292 121.288 177.091 121.488C170.228 128.464 174.924 140.292 174.924 140.292C164.368 147.749 162.843 154.725 163.726 159.657C161.117 158.494 158.589 157.171 156.18 155.728C156.14 155.688 156.1 155.688 156.06 155.648C154.896 154.926 153.692 154.204 152.568 153.442C151.484 152.721 150.441 151.959 149.397 151.197C147.029 149.433 144.742 147.509 142.614 145.464C141.812 144.702 141.009 143.9 140.206 143.098C138.32 141.134 136.514 139.089 134.828 136.924C134.788 136.884 134.748 136.804 134.707 136.764C133.062 134.639 131.497 132.434 130.092 130.148C131.938 127.622 134.146 126.259 136.353 125.658C136.955 125.498 137.517 125.377 138.119 125.297C140.808 124.976 143.337 125.538 145.023 126.099C146.307 126.54 147.11 126.941 147.11 126.941C148.675 123.974 150.441 122.25 152.247 121.368C153.491 120.767 154.695 120.566 155.859 120.606C155.98 120.606 156.14 120.606 156.261 120.646C160.314 120.967 163.606 124.174 163.606 124.174C166.696 119.604 170.83 117.639 174.643 116.878C176.489 116.517 178.255 116.437 179.781 116.517C180.543 116.557 181.266 116.597 181.868 116.677C183.794 116.918 185.038 117.319 185.038 117.319Z" fill="#4B5A59"/>
<path d="M234.446 146.667L213.294 154.445C211.769 155.006 210.083 154.244 209.521 152.721L197.601 120.365C197.039 118.842 197.801 117.158 199.326 116.597L220.478 108.819C222.003 108.257 223.689 109.019 224.251 110.543L236.172 142.898C236.733 144.421 235.971 146.105 234.446 146.667Z" fill="#74CBED"/>
<path d="M221.174 113.257L201.396 120.521L211.009 146.637L230.787 139.373L221.174 113.257Z" fill="#868686"/>
<path d="M212.652 116.356L208.639 139.65L211.087 146.346L219.636 143.219L223.65 120.085L221.161 113.229L212.652 116.356Z" fill="#9C9C9C"/>
<path d="M225.577 145.464C225.577 145.424 225.537 145.384 225.537 145.343L225.496 145.223C225.336 144.782 225.015 144.421 224.654 144.181C224.132 143.82 223.409 143.74 222.767 143.98L220.198 144.943C219.918 145.023 219.717 145.183 219.516 145.343C219.275 145.584 219.075 145.865 218.954 146.145C218.794 146.626 218.754 147.148 218.954 147.629L218.994 147.749C219.396 148.832 220.64 149.393 221.724 148.992L224.333 148.03C224.654 147.909 224.894 147.749 225.095 147.508C225.577 147.027 225.818 146.225 225.577 145.464ZM224.052 147.468L221.443 148.431C220.76 148.671 219.998 148.391 219.677 147.789C219.637 147.709 219.596 147.669 219.596 147.589L219.556 147.468C219.275 146.707 219.677 145.865 220.439 145.584L223.048 144.622C223.811 144.341 224.654 144.742 224.935 145.504L224.975 145.624C225.015 145.704 225.015 145.784 225.015 145.825C225.095 146.506 224.734 147.228 224.052 147.468Z" fill="#566C78"/>
<path d="M208.197 116.437C208.552 116.437 208.839 116.149 208.839 115.795C208.839 115.441 208.552 115.153 208.197 115.153C207.842 115.153 207.555 115.441 207.555 115.795C207.555 116.149 207.842 116.437 208.197 116.437Z" fill="black"/>
<path d="M210.605 115.595C210.96 115.595 211.248 115.308 211.248 114.953C211.248 114.599 210.96 114.312 210.605 114.312C210.25 114.312 209.963 114.599 209.963 114.953C209.963 115.308 210.25 115.595 210.605 115.595Z" fill="black"/>
<path d="M213.014 114.753C213.369 114.753 213.657 114.465 213.657 114.111C213.657 113.757 213.369 113.469 213.014 113.469C212.66 113.469 212.372 113.757 212.372 114.111C212.372 114.465 212.66 114.753 213.014 114.753Z" fill="black"/>
<path d="M224.894 145.464L224.934 145.584C224.974 145.665 224.974 145.705 224.974 145.785C224.814 146.346 224.412 146.787 223.85 146.988L221.242 147.95C220.68 148.15 220.078 148.07 219.596 147.749C219.556 147.669 219.516 147.629 219.516 147.549L219.476 147.429C219.195 146.667 219.596 145.785 220.359 145.504L222.967 144.542C223.77 144.261 224.613 144.662 224.894 145.464Z" fill="#8EAABD"/>
<path d="M247.689 146.627C247.248 147.028 246.806 147.429 246.365 147.789C245.321 148.672 244.278 149.554 243.194 150.396C240.385 152.561 237.414 154.565 234.284 156.329C232.357 157.412 230.391 158.454 228.384 159.376L211.527 158.494L200.168 157.893L200.65 152.28L201.372 144.301L202.135 143.5L205.024 140.533L207.714 137.726L209.239 136.122L209.841 135.521L212.41 136.082L220.597 137.846L222.965 138.368L225.414 141.334L226.578 142.738L227.822 144.261L230.35 142.377L233.481 140.052L235.247 140.372L238.538 140.934L246.084 142.257L246.927 144.542L247.689 146.627Z" fill="#617983"/>
<path d="M247.851 143.053C247.65 143.253 246.912 143.892 246.752 144.053C246.31 144.454 246.847 144.428 246.406 144.789C245.362 145.671 244.319 146.553 243.235 147.395C243.235 147.355 243.195 147.315 243.195 147.235C243.155 147.034 243.115 146.794 243.034 146.593C242.472 144.268 241.589 141.461 239.583 140.379C239.061 140.098 238.298 139.898 237.736 139.858C237.215 139.817 236.733 139.817 236.211 139.858C235.77 139.898 235.328 139.898 234.887 139.938C233.843 140.018 233.723 139.898 233.161 140.459C232.599 141.02 232.157 141.942 231.836 142.744C231.555 143.426 231.355 144.188 231.194 144.909C231.194 144.949 231.154 144.989 231.154 145.03C231.074 145.751 230.953 146.513 230.753 147.275C229.91 150.161 225.653 149.739 225.252 147.053C225.252 147.053 225.712 146.833 225.752 146.553C225.792 146.272 225.212 145.833 225.252 145.553C225.292 145.232 225.093 145.03 225.134 144.669C225.134 144.669 225.134 144.629 225.134 144.589C225.134 144.107 225.174 143.626 225.134 143.145C225.134 143.025 225.134 142.865 225.093 142.744C225.093 142.744 225.093 142.744 225.093 142.704C225.053 142.383 224.973 142.103 224.893 141.782C224.853 141.582 224.772 141.381 224.692 141.181C224.411 140.379 224.05 139.697 223.448 139.016C223.368 138.935 223.287 138.855 223.207 138.775C222.364 137.893 221.361 137.252 220.317 136.73C219.795 136.49 219.274 136.289 218.712 136.089C216.946 135.487 215.059 135.086 213.213 135.086C211.648 135.086 210.123 135.407 208.758 136.169C208.638 136.249 208.517 136.329 208.397 136.369C208.236 136.49 208.076 136.57 207.915 136.69C207.072 137.332 206.35 138.174 205.708 139.176C205.627 139.296 205.547 139.417 205.507 139.537C204.704 140.9 204.503 141.421 204.062 142.784C204.022 142.905 203.982 143.065 203.942 143.185C203.701 144.027 203.5 144.869 203.34 145.751C203.299 145.912 203.299 146.032 203.259 146.192C203.259 146.232 203.259 146.313 203.259 146.353C203.139 147.956 201.975 148.879 200.731 149.159C199.005 149.52 197.038 148.598 197.239 146.353C197.439 143.707 198.162 141.141 199.205 138.695C199.446 138.093 199.727 137.532 200.048 136.971C200.931 135.367 202.015 133.924 203.34 132.721C204.223 131.919 205.186 131.197 206.269 130.636C206.47 130.556 206.671 130.436 206.872 130.355C207.835 129.914 208.878 129.594 209.922 129.353C210.363 129.273 210.805 129.193 211.246 129.153C214.618 128.752 218.15 129.393 221.361 130.636C221.963 130.877 222.565 131.117 223.167 131.398C225.495 132.521 227.461 134.245 228.866 136.329C229.348 135.888 229.829 135.487 230.391 135.167C231.435 134.565 232.679 134.164 234.084 133.964C234.244 133.924 234.445 133.924 234.606 133.884C236.693 133.683 238.86 133.683 240.827 134.325C241.509 134.525 242.151 134.806 242.794 135.207C245.242 136.65 246.807 139.016 247.851 141.622C247.971 142.143 248.051 142.852 247.851 143.053Z" fill="#4B5A59"/>
<path d="M248.292 146.105C248.091 146.306 247.891 146.466 247.73 146.626C247.288 147.027 246.847 147.428 246.405 147.789C245.362 148.671 244.318 149.553 243.235 150.395C243.235 150.355 243.195 150.315 243.195 150.235C243.154 150.034 243.114 149.794 243.034 149.593C242.472 147.268 241.589 144.461 239.582 143.379C239.061 143.098 238.298 142.898 237.736 142.858C237.214 142.817 236.733 142.817 236.211 142.858C235.769 142.898 235.328 142.898 234.886 142.938C233.843 143.018 233.722 142.898 233.16 143.459C232.599 144.02 232.157 144.942 231.836 145.744C231.555 146.426 231.354 147.188 231.194 147.909C231.194 147.949 231.154 147.989 231.154 148.03C231.073 148.751 230.953 149.513 230.752 150.275C229.909 153.161 225.254 152.961 224.852 150.275C224.812 150.034 224.812 149.754 224.852 149.473C224.892 149.192 224.933 148.952 224.973 148.671C225.013 148.35 225.093 148.03 225.133 147.669C225.133 147.669 225.133 147.629 225.133 147.589C225.133 147.107 225.173 146.626 225.133 146.145C225.133 146.025 225.133 145.865 225.093 145.744C225.093 145.744 225.093 145.744 225.093 145.704C225.053 145.383 224.973 145.103 224.892 144.782C224.852 144.582 224.772 144.381 224.692 144.181C224.411 143.379 224.05 142.697 223.448 142.016C223.367 141.935 223.287 141.855 223.207 141.775C222.364 140.893 221.36 140.252 220.317 139.73C219.795 139.49 219.273 139.289 218.711 139.089C216.945 138.487 215.059 138.086 213.213 138.086C211.647 138.086 210.122 138.407 208.758 139.169C208.637 139.249 208.517 139.329 208.396 139.369C208.236 139.49 208.075 139.57 207.915 139.69C207.072 140.332 206.349 141.174 205.707 142.176C205.627 142.296 205.547 142.417 205.507 142.537C204.704 143.9 204.503 144.421 204.062 145.784C204.022 145.905 203.981 146.065 203.941 146.185C203.7 147.027 203.5 147.869 203.339 148.751C203.299 148.912 203.299 149.032 203.259 149.192C203.259 149.232 203.259 149.313 203.259 149.353C203.139 150.956 201.975 151.879 200.73 152.159C199.004 152.52 197.551 151.598 197.752 149.353C198.002 146.553 198.162 144.141 199.205 141.695C199.446 141.093 199.727 140.532 200.048 139.971C200.931 138.367 202.015 136.924 203.339 135.721C204.222 134.919 205.185 134.197 206.269 133.636C206.47 133.556 206.671 133.436 206.871 133.355C207.834 132.914 208.878 132.594 209.922 132.353C210.363 132.273 210.805 132.193 211.246 132.153C214.618 131.752 218.15 132.393 221.36 133.636C221.962 133.877 222.565 134.117 223.167 134.398C225.494 135.521 227.461 137.245 228.866 139.329C229.348 138.888 229.829 138.487 230.391 138.167C231.435 137.565 232.679 137.164 234.084 136.964C234.244 136.924 234.445 136.924 234.605 136.884C236.692 136.683 238.86 136.683 240.827 137.325C241.509 137.525 242.151 137.806 242.793 138.207C245.242 139.65 246.807 142.016 247.85 144.622C247.971 145.143 248.131 145.624 248.292 146.105Z" fill="#617983"/>
<path d="M152.808 95.1467L135.268 101.602C134.225 101.963 133.101 101.441 132.74 100.439C132.378 99.3966 132.9 98.274 133.903 97.9131L151.443 91.4582C152.487 91.0973 153.61 91.6185 153.972 92.6209C154.373 93.6232 153.851 94.7859 152.808 95.1467Z" fill="#C42A41"/>
<path d="M187.575 41.9438C187.094 42.9061 186.413 43.7881 185.531 44.5499C181.762 47.9177 175.948 47.597 172.581 43.8282C169.213 40.0595 169.534 34.246 173.302 30.8781C174.986 29.3947 177.071 28.6329 179.156 28.5527C177.472 31.8404 177.833 35.97 180.439 38.8567C182.363 40.9816 184.969 42.024 187.575 41.9438Z" fill="#4B5A59"/>
<path d="M186.294 31.6402C188.9 34.567 189.301 38.6966 187.577 41.9442C184.97 42.0244 182.364 40.9819 180.48 38.8971C177.874 35.9703 177.473 31.8407 179.197 28.5932C181.803 28.513 184.409 29.5554 186.294 31.6402Z" fill="#617983"/>
<path d="M204.294 56.5779C203.933 57.2595 203.492 57.8609 202.891 58.3821C200.285 60.7075 196.276 60.4669 193.95 57.8609C191.625 55.2548 191.865 51.2455 194.472 48.9201C195.634 47.8777 197.078 47.3565 198.521 47.3164C197.358 49.5616 197.599 52.4483 199.403 54.453C200.646 55.9364 202.49 56.6581 204.294 56.5779Z" fill="#4B5A59"/>
<path d="M203.373 49.4415C205.177 51.4461 205.458 54.2927 204.255 56.578C202.451 56.6181 200.647 55.9365 199.364 54.4531C197.56 52.4484 197.279 49.6018 198.482 47.3165C200.286 47.2764 202.09 47.9981 203.373 49.4415Z" fill="#617983"/>
</svg>
