<svg width="547" height="242" viewBox="0 0 547 242" fill="none" xmlns="http://www.w3.org/2000/svg">
<rect x="1.5" y="1.5" width="544" height="238.686" rx="30.5" fill="white"/>
<rect x="1.5" y="1.5" width="544" height="238.686" rx="30.5" stroke="#212121" stroke-width="3"/>
<path d="M170.872 120.843C170.872 127.967 169.613 134.815 167.31 141.171C162.489 154.436 153.062 165.46 140.963 172.4C136.142 175.163 130.861 177.282 125.303 178.603C123.553 179.032 121.741 179.37 119.929 179.616C117.903 179.892 115.845 180.076 113.757 180.169C113.02 180.199 112.253 180.199 111.485 180.199C100.369 180.199 89.9595 177.129 81.0546 171.816C77.3391 169.605 73.8999 166.965 70.7679 164.017C59.3143 153.208 52.1289 137.855 52.1289 120.843C52.1289 120.137 52.1289 119.462 52.1596 118.755C53.2651 86.9431 79.3964 61.4873 111.454 61.4873C144.31 61.518 170.872 88.0793 170.872 120.843Z" fill="#74CBED"/>
<path fill-rule="evenodd" clip-rule="evenodd" d="M173.071 143.259L173.069 143.264C167.744 157.917 157.342 170.07 144.012 177.716L144.011 177.717C138.696 180.763 132.874 183.101 126.741 184.56C124.773 185.042 122.755 185.417 120.752 185.689C118.538 185.991 116.296 186.191 114.027 186.291L114.02 186.291L114.012 186.292C113.146 186.328 112.27 186.328 111.538 186.328H111.485C99.2256 186.328 87.7359 182.938 77.9145 177.079C73.7876 174.623 69.9964 171.707 66.5672 168.48L66.5613 168.474C53.9354 156.559 46 139.615 46 120.843L46 120.795C46 120.126 46 119.347 46.0353 118.516C47.2682 83.4311 76.0882 55.3584 111.454 55.3584H111.46C147.689 55.3923 177 84.687 177 120.843C177 128.694 175.612 136.247 173.071 143.259ZM52.1594 118.755C52.1287 119.461 52.1287 120.137 52.1287 120.843C52.1287 137.855 59.314 153.208 70.7676 164.017C73.8997 166.964 77.3388 169.605 81.0543 171.816C89.9593 177.128 100.369 180.199 111.485 180.199C112.252 180.199 113.02 180.199 113.757 180.168C115.845 180.076 117.902 179.892 119.929 179.616C121.741 179.37 123.552 179.032 125.303 178.602C130.861 177.282 136.142 175.163 140.963 172.4C153.061 165.46 162.488 154.436 167.309 141.171C169.612 134.815 170.871 127.967 170.871 120.843C170.871 88.079 144.31 61.5178 111.454 61.4871C79.3962 61.4871 53.2648 86.9429 52.1594 118.755Z" fill="#212121"/>
<mask id="mask0_275_12944" style="mask-type:alpha" maskUnits="userSpaceOnUse" x="52" y="61" width="119" height="120">
<path d="M170.872 120.843C170.872 127.967 169.613 134.815 167.31 141.171C162.489 154.436 153.062 165.46 140.963 172.4C136.142 175.163 130.861 177.282 125.303 178.603C123.553 179.032 121.741 179.37 119.929 179.616C117.903 179.892 115.845 180.076 113.757 180.169C113.02 180.199 112.253 180.199 111.485 180.199C100.369 180.199 89.9595 177.129 81.0546 171.816C77.3391 169.605 73.8999 166.965 70.7679 164.017C59.3143 153.208 52.1289 137.855 52.1289 120.843C52.1289 120.137 52.1289 119.462 52.1596 118.755C53.2651 86.9431 79.3964 61.4873 111.454 61.4873C144.31 61.518 170.872 88.0793 170.872 120.843Z" fill="#B9E2F3"/>
</mask>
<g mask="url(#mask0_275_12944)">
<path d="M106.116 137.677H59.9878C58.6173 137.677 57.4922 136.551 57.4922 135.18V75.4748C57.4922 74.1039 58.6173 72.9785 59.9878 72.9785H106.116C107.487 72.9785 108.612 74.1039 108.612 75.4748V135.201C108.612 136.572 107.487 137.677 106.116 137.677Z" fill="#CE7E48"/>
<path d="M103.67 134.481H62.4141C61.4594 134.481 60.6875 133.709 60.6875 132.755V78.6978C60.6875 77.7433 61.4594 76.9717 62.4141 76.9717H103.69C104.645 76.9717 105.417 77.7433 105.417 78.6978V132.755C105.397 133.709 104.625 134.481 103.67 134.481Z" fill="#B27247"/>
<path d="M103.491 78.7666H84.3848V104.471H103.491V78.7666Z" fill="#EAF7FF"/>
<path d="M96.7194 82.3952L88.9666 90.1005C88.578 90.4878 87.9643 90.4878 87.5756 90.1005L87.5552 90.0801C87.1665 89.6928 87.1665 89.0813 87.5552 88.694L95.308 80.9887C95.6966 80.6014 96.3103 80.6014 96.699 80.9887L96.7194 81.0091C97.1081 81.3964 97.1081 82.0079 96.7194 82.3952Z" fill="white"/>
<path d="M90.4805 82.1097L87.6985 84.8819C87.4121 85.1673 86.9212 85.1673 86.6348 84.8819L86.2871 84.5354C86.0007 84.25 86.0007 83.7608 86.2871 83.4754L89.0895 80.6828C89.3759 80.3974 89.8668 80.3974 90.1532 80.6828L90.501 81.0293C90.7874 81.3351 90.7874 81.8039 90.4805 82.1097Z" fill="white"/>
<path d="M103.491 106.346H84.3848V132.05H103.491V106.346Z" fill="#EAF7FF"/>
<path d="M96.7194 109.974L88.9666 117.68C88.578 118.067 87.9643 118.067 87.5756 117.68L87.5552 117.659C87.1665 117.272 87.1665 116.66 87.5552 116.273L95.308 108.568C95.6966 108.181 96.3103 108.181 96.699 108.568L96.7194 108.588C97.1081 108.976 97.1081 109.587 96.7194 109.974Z" fill="white"/>
<path d="M90.4805 109.689L87.6985 112.461C87.4121 112.746 86.9212 112.746 86.6348 112.461L86.2871 112.115C86.0007 111.829 86.0007 111.34 86.2871 111.055L89.0895 108.262C89.3759 107.977 89.8668 107.977 90.1532 108.262L90.501 108.608C90.7874 108.914 90.7874 109.383 90.4805 109.689Z" fill="white"/>
<path d="M82.0395 106.346H62.9336V132.05H82.0395V106.346Z" fill="#EAF7FF"/>
<path d="M75.2683 109.974L67.5155 117.68C67.1268 118.067 66.5131 118.067 66.1245 117.68L66.104 117.659C65.7153 117.272 65.7153 116.66 66.104 116.273L73.8568 108.568C74.2455 108.181 74.8591 108.181 75.2478 108.568L75.2683 108.588C75.6569 108.976 75.6569 109.587 75.2683 109.974Z" fill="white"/>
<path d="M69.0294 109.689L66.2473 112.461C65.961 112.746 65.47 112.746 65.1836 112.461L64.8359 112.115C64.5495 111.829 64.5495 111.34 64.8359 111.055L67.6383 108.262C67.9247 107.977 68.4157 107.977 68.7021 108.262L69.0498 108.608C69.3362 108.914 69.3362 109.383 69.0294 109.689Z" fill="white"/>
<path d="M82.0395 78.7666H62.9336V104.471H82.0395V78.7666Z" fill="#EAF7FF"/>
<path d="M75.2683 82.3952L67.5155 90.1005C67.1268 90.4878 66.5131 90.4878 66.1245 90.1005L66.104 90.0801C65.7153 89.6928 65.7153 89.0813 66.104 88.694L73.8568 80.9887C74.2455 80.6014 74.8591 80.6014 75.2478 80.9887L75.2683 81.0091C75.6569 81.3964 75.6569 82.0079 75.2683 82.3952Z" fill="white"/>
<path d="M69.0294 82.1097L66.2473 84.8819C65.961 85.1673 65.47 85.1673 65.1836 84.8819L64.8359 84.5354C64.5495 84.25 64.5495 83.7608 64.8359 83.4754L67.6383 80.6828C67.9247 80.3974 68.4157 80.3974 68.7021 80.6828L69.0498 81.0293C69.3362 81.3351 69.3362 81.8039 69.0294 82.1097Z" fill="white"/>
<path d="M68.207 162.658L76.1809 210.148H84.539L75.7966 161.793L68.207 162.658Z" fill="#ECBA5A"/>
<path d="M68.8788 162.658L60.905 210.148H52.5469L61.2572 161.793L68.8788 162.658Z" fill="#ECBA5A"/>
<path d="M164.79 161.793H130.141V210.148H164.79V161.793Z" fill="#ECBA5A"/>
<path d="M164.725 166.437H130.076V170.407H141.541L143.718 173.802H151.34L153.293 170.407H164.725V166.437Z" fill="#DEA14E"/>
<path d="M167.096 163.907H54.3735C52.7083 163.907 51.3633 162.562 51.3633 160.897V159.2C51.3633 157.534 52.7083 156.189 54.3735 156.189H167.096C168.761 156.189 170.106 157.534 170.106 159.2V160.897C170.074 162.562 168.761 163.907 167.096 163.907Z" fill="#FAC04F"/>
<path d="M68.56 148.247H68.4959C66.3504 148.247 64.6211 146.486 64.6211 144.372V135.822C64.6211 133.677 66.3824 131.947 68.4959 131.947H68.56C70.7055 131.947 72.4348 133.709 72.4348 135.822V144.372C72.4348 146.486 70.7055 148.247 68.56 148.247Z" fill="#A8EC6C"/>
<path d="M71.8586 143.284L69.9372 156.222H62.9241L60.8105 143.284H71.8586Z" fill="#E96B73"/>
<path d="M76.2461 143.284L74.5168 156.222H69.9375L71.8589 143.284H76.2461Z" fill="#DC4F58"/>
<path d="M162.035 114.207V153.756C162.035 155.101 160.914 156.222 159.569 156.222H143.333C141.988 156.222 140.867 155.101 140.867 153.756V114.207C140.867 112.862 141.988 111.741 143.333 111.741H159.569C160.946 111.741 162.035 112.83 162.035 114.207Z" fill="#E6E9ED"/>
<path d="M162.066 116.288H140.898V119.939H162.066V116.288Z" fill="#CCD1D8"/>
<path d="M151.466 134.029C152.828 134.029 153.932 132.925 153.932 131.563C153.932 130.202 152.828 129.098 151.466 129.098C150.104 129.098 149 130.202 149 131.563C149 132.925 150.104 134.029 151.466 134.029Z" fill="#A8EC6C"/>
<path d="M155.918 144.469H147.047C146.407 144.469 145.895 143.956 145.895 143.316V143.124C145.895 142.483 146.407 141.971 147.047 141.971H155.918C156.558 141.971 157.071 142.483 157.071 143.124V143.316C157.039 143.956 156.526 144.469 155.918 144.469Z" fill="#CCD1D8"/>
<path d="M155.918 147.96H147.047C146.407 147.96 145.895 147.447 145.895 146.807V146.615C145.895 145.974 146.407 145.462 147.047 145.462H155.918C156.558 145.462 157.071 145.974 157.071 146.615V146.807C157.039 147.447 156.526 147.96 155.918 147.96Z" fill="#CCD1D8"/>
<path d="M155.918 151.482H147.047C146.407 151.482 145.895 150.97 145.895 150.329V150.137C145.895 149.497 146.407 148.984 147.047 148.984H155.918C156.558 148.984 157.071 149.497 157.071 150.137V150.329C157.039 150.97 156.526 151.482 155.918 151.482Z" fill="#CCD1D8"/>
<path d="M102.366 148.47L100.861 153.658H118.762L117.193 148.47H102.366Z" fill="#CCD1D8"/>
<path d="M131.507 149.27H88.0194C85.9699 149.27 84.3047 147.605 84.3047 145.555V112.699C84.3047 110.65 85.9699 108.984 88.0194 108.984H131.507C133.557 108.984 135.222 110.65 135.222 112.699V145.555C135.222 147.605 133.557 149.27 131.507 149.27Z" fill="#E6E9ED"/>
<path d="M132.877 112.955V141.552C132.877 142.353 132.237 143.025 131.404 143.025H88.0766C87.276 143.025 86.6035 142.385 86.6035 141.552V112.955C86.6035 112.155 87.244 111.482 88.0766 111.482H131.436C132.205 111.514 132.877 112.155 132.877 112.955Z" fill="#6EB7E6"/>
<path d="M109.955 147.349C110.627 147.349 111.172 146.804 111.172 146.132C111.172 145.46 110.627 144.915 109.955 144.915C109.283 144.915 108.738 145.46 108.738 146.132C108.738 146.804 109.283 147.349 109.955 147.349Z" fill="#CCD1D8"/>
<path d="M121.9 155.194V156.251H97.5625V155.194C97.5625 153.881 98.6513 152.792 99.9643 152.792H119.499C120.811 152.792 121.9 153.881 121.9 155.194Z" fill="#E6E9ED"/>
<path d="M132.789 112.956V124.036L125.263 143.026H108.611L121.132 111.515H131.348C132.116 111.515 132.789 112.155 132.789 112.956Z" fill="#93C7E9"/>
</g>
<path d="M129.504 92.8595C129.504 92.6342 129.504 92.409 129.504 92.1837C129.588 91.874 129.582 91.553 129.638 91.2377C130.181 88.2194 131.682 85.7924 134.207 84.0749C137.029 82.1603 140.125 81.676 143.372 82.684C146.743 83.7314 149.044 85.9894 150.304 89.3062C150.746 90.4606 150.947 91.6657 150.942 92.9101C150.931 92.9327 150.914 92.9608 150.908 92.9833C150.869 93.7267 150.735 94.4475 150.533 95.1626C150.197 96.3452 149.682 97.4432 148.971 98.4399C148.506 99.0932 147.98 99.6957 147.375 100.236C146.743 100.799 146.06 101.289 145.321 101.695C143.971 102.438 142.521 102.866 140.993 102.967C139.957 103.035 138.921 102.984 137.902 102.742C136.693 102.455 135.556 101.999 134.504 101.329C133.468 100.676 132.572 99.8646 131.811 98.9073C131.251 98.2034 130.797 97.4376 130.433 96.6154C129.991 95.6131 129.694 94.5713 129.565 93.4789C129.554 93.2705 129.599 93.0566 129.504 92.8595ZM140.231 83.996C135.45 83.9679 131.329 87.8252 131.279 92.8989C131.234 97.9669 135.254 101.976 140.22 101.982C145.169 101.988 149.212 97.9895 149.167 92.9045C149.133 87.8308 145.007 83.9679 140.231 83.996Z" fill="#EB5A78"/>
<path d="M139.391 103.773C139.139 103.677 138.876 103.694 138.619 103.654C136.463 103.316 134.576 102.41 132.975 100.923C131.172 99.2507 130.069 97.1841 129.644 94.7514C129.588 94.4417 129.588 94.132 129.504 93.8279C129.504 93.507 129.504 93.1804 129.504 92.8594C129.599 93.0565 129.554 93.2704 129.577 93.4732C129.705 94.5656 130.002 95.6074 130.445 96.6097C130.808 97.4319 131.262 98.1977 131.822 98.9016C132.583 99.8589 133.479 100.67 134.515 101.323C135.567 101.987 136.704 102.449 137.913 102.736C138.932 102.979 139.968 103.029 141.004 102.962C142.532 102.86 143.982 102.432 145.332 101.689C146.071 101.284 146.754 100.794 147.387 100.231C147.991 99.6956 148.517 99.0874 148.982 98.4342C149.693 97.4375 150.208 96.3394 150.544 95.1569C150.746 94.4417 150.88 93.7209 150.919 92.9776C150.919 92.9495 150.942 92.9269 150.953 92.9044C150.981 94.8078 150.533 96.5928 149.598 98.2371C147.952 101.126 145.489 102.905 142.241 103.581C141.894 103.654 141.536 103.677 141.183 103.728C141.133 103.733 141.071 103.705 141.032 103.767C140.478 103.773 139.934 103.773 139.391 103.773Z" fill="#DC4F58"/>
<path d="M140.232 83.9962C145.003 83.9681 149.129 87.8311 149.174 92.9104C149.213 97.9897 145.171 101.993 140.227 101.988C135.261 101.977 131.241 97.9672 131.286 92.8991C131.33 87.8311 135.451 83.9681 140.232 83.9962ZM140.854 93.9184C140.921 93.9803 140.977 94.0479 141.05 94.1098C141.526 94.5096 142.002 94.9094 142.478 95.3092C143.183 95.9005 143.883 96.4974 144.588 97.0887C144.767 97.2407 144.93 97.2295 145.07 97.0831C145.193 96.9535 145.176 96.7396 145.019 96.5988C144.801 96.4017 144.577 96.2159 144.353 96.0244C143.693 95.4669 143.032 94.9038 142.371 94.352C142.002 94.0422 141.649 93.7156 141.257 93.4397C141.319 93.2764 141.341 93.1075 141.358 92.9385C142.058 92.2234 142.752 91.5082 143.457 90.7931C143.648 90.596 143.732 90.3707 143.653 90.1061C143.508 89.6161 142.925 89.4866 142.545 89.8639C141.873 90.5397 141.212 91.221 140.546 91.8968C140.316 91.863 140.087 91.863 139.857 91.9249C139.639 91.7278 139.421 91.5307 139.202 91.3336C138.105 90.3482 137.002 89.3684 135.905 88.3829C135.731 88.2309 135.541 88.1464 135.311 88.1971C135.048 88.2534 134.874 88.4167 134.807 88.6757C134.74 88.946 134.83 89.1713 135.037 89.3515C136.403 90.5734 137.763 91.7954 139.124 93.023C139.141 93.1131 139.146 93.2032 139.169 93.2933C139.325 93.9015 140.07 94.3745 140.854 93.9184ZM139.902 85.6293C139.902 85.7982 139.897 85.9672 139.902 86.1361C139.913 86.3332 140.036 86.4571 140.216 86.4627C140.406 86.4683 140.546 86.3444 140.552 86.1361C140.563 85.8038 140.563 85.4772 140.552 85.145C140.546 84.9367 140.412 84.8071 140.227 84.8071C140.042 84.8071 139.913 84.9367 139.902 85.145C139.897 85.3083 139.902 85.4716 139.902 85.6293ZM132.92 92.657C132.769 92.657 132.612 92.6513 132.461 92.657C132.237 92.6626 132.103 92.7865 132.097 92.9779C132.097 93.175 132.226 93.3046 132.45 93.3102C132.764 93.3158 133.077 93.3158 133.391 93.3102C133.615 93.3046 133.743 93.175 133.743 92.9779C133.743 92.7809 133.609 92.6626 133.385 92.657C133.228 92.6513 133.077 92.657 132.92 92.657ZM147.556 92.657C147.393 92.657 147.237 92.6513 147.074 92.657C146.85 92.6626 146.716 92.7865 146.716 92.9836C146.716 93.1807 146.845 93.3102 147.069 93.3158C147.382 93.3214 147.696 93.3214 148.009 93.3158C148.228 93.3102 148.362 93.175 148.362 92.9836C148.356 92.7921 148.222 92.6682 147.998 92.6626C147.852 92.6513 147.707 92.657 147.556 92.657ZM139.902 100.349C139.902 100.501 139.897 100.659 139.902 100.811C139.913 101.036 140.042 101.166 140.232 101.166C140.417 101.166 140.552 101.036 140.557 100.822C140.563 100.501 140.563 100.175 140.557 99.8536C140.552 99.6396 140.423 99.5157 140.238 99.5101C140.042 99.5045 139.913 99.6396 139.902 99.8592C139.897 100.023 139.902 100.186 139.902 100.349Z" fill="white"/>
<path d="M139.118 93.0281C137.757 91.8062 136.391 90.5786 135.031 89.3566C134.824 89.1708 134.734 88.9512 134.801 88.6809C134.868 88.4218 135.042 88.2585 135.305 88.2022C135.535 88.1516 135.725 88.236 135.899 88.3881C136.996 89.3735 138.093 90.3533 139.196 91.3388C139.415 91.5359 139.633 91.733 139.851 91.9301C139.577 92.0765 139.325 92.2454 139.224 92.5664C139.124 92.7015 139.152 92.8705 139.118 93.0281Z" fill="#617983"/>
<path d="M140.533 91.9021C141.199 91.2264 141.866 90.545 142.532 89.8693C142.907 89.492 143.495 89.6215 143.641 90.1114C143.719 90.3761 143.641 90.6013 143.445 90.7984C142.745 91.5136 142.045 92.2287 141.345 92.9439C141.295 92.82 141.323 92.6792 141.233 92.5666C141.121 92.2118 140.841 92.0373 140.533 91.9021Z" fill="#617983"/>
<path d="M141.245 93.4395C141.637 93.7154 141.99 94.0476 142.359 94.3517C143.025 94.9036 143.68 95.4667 144.341 96.0242C144.565 96.2156 144.789 96.4014 145.007 96.5985C145.164 96.7393 145.181 96.9477 145.058 97.0828C144.918 97.2349 144.761 97.2405 144.576 97.0884C143.871 96.4972 143.171 95.9003 142.465 95.309C141.99 94.9092 141.514 94.5094 141.038 94.1096C140.971 94.0532 140.909 93.9857 140.842 93.9181C141.015 93.7886 141.15 93.6309 141.245 93.4395Z" fill="#74CBED"/>
<path d="M140.533 91.9017C140.841 92.0425 141.126 92.2115 141.238 92.5662C141.171 92.9379 140.846 93.2251 140.365 93.3152C139.883 93.4053 139.256 92.9942 139.223 92.5662C139.323 92.2452 139.575 92.0763 139.85 91.9299C140.074 91.8623 140.298 91.8623 140.533 91.9017Z" fill="#EB5A78"/>
<path d="M139.218 92.5605C139.252 92.9885 139.879 93.3996 140.36 93.3095C140.842 93.2194 141.166 92.9322 141.234 92.5605C141.323 92.6732 141.29 92.8139 141.346 92.9378C141.329 93.1068 141.306 93.2813 141.245 93.439C141.15 93.6305 141.015 93.7825 140.847 93.9177C140.069 94.3738 139.319 93.9008 139.162 93.2926C139.14 93.2025 139.128 93.1124 139.117 93.0223C139.151 92.8703 139.123 92.7013 139.218 92.5605Z" fill="#DC4F58"/>
<path d="M139.901 85.6288C139.901 85.4655 139.895 85.3078 139.901 85.1445C139.912 84.9362 140.041 84.8066 140.226 84.8066C140.41 84.8066 140.545 84.9362 140.55 85.1445C140.556 85.4767 140.562 85.8034 140.55 86.1356C140.545 86.3439 140.405 86.4678 140.214 86.4622C140.035 86.4566 139.912 86.3327 139.901 86.1356C139.895 85.9667 139.901 85.7977 139.901 85.6288Z" fill="#617983"/>
<path d="M132.918 92.6568C133.07 92.6568 133.226 92.6512 133.378 92.6568C133.607 92.6624 133.736 92.7863 133.736 92.9778C133.736 93.1749 133.607 93.3044 133.383 93.31C133.07 93.3156 132.756 93.3156 132.443 93.31C132.219 93.3044 132.09 93.1749 132.09 92.9778C132.09 92.7863 132.224 92.6624 132.454 92.6568C132.611 92.6512 132.767 92.6568 132.918 92.6568Z" fill="#617983"/>
<path d="M147.555 92.656C147.7 92.656 147.846 92.6504 147.997 92.656C148.221 92.6617 148.355 92.7855 148.361 92.977C148.366 93.1741 148.232 93.3092 148.008 93.3092C147.695 93.3149 147.381 93.3149 147.068 93.3092C146.844 93.3036 146.715 93.1741 146.715 92.977C146.715 92.7799 146.849 92.6617 147.073 92.6504C147.236 92.6504 147.398 92.656 147.555 92.656Z" fill="#617983"/>
<path d="M139.901 100.349C139.901 100.186 139.895 100.028 139.901 99.8649C139.912 99.6397 140.035 99.5102 140.237 99.5158C140.422 99.5214 140.55 99.6453 140.556 99.8593C140.562 100.18 140.562 100.507 140.556 100.828C140.55 101.036 140.416 101.166 140.231 101.171C140.035 101.171 139.907 101.042 139.901 100.817C139.895 100.653 139.901 100.501 139.901 100.349Z" fill="#617983"/>
<path d="M109.551 121.242C112.56 121.278 114.911 122.098 116.947 123.787C117.334 124.107 117.695 124.458 118.051 124.814C118.573 125.327 118.587 126.044 118.109 126.517C117.632 126.989 116.929 126.971 116.425 126.453C115.776 125.791 115.082 125.188 114.281 124.719C110.948 122.769 106.592 123.319 103.854 126.039C103.615 126.278 103.381 126.521 103.133 126.751C102.656 127.197 101.962 127.197 101.511 126.755C101.057 126.309 101.034 125.625 101.484 125.134C103.173 123.287 105.196 121.976 107.687 121.485C108.421 121.341 109.168 121.292 109.551 121.242Z" fill="#F5F5F5"/>
<path d="M109.835 125.449C112.074 125.449 113.781 126.341 115.173 127.899C115.655 128.444 115.637 129.183 115.146 129.661C114.655 130.138 113.916 130.134 113.38 129.656C112.984 129.305 112.614 128.904 112.168 128.62C110.52 127.575 108.516 127.823 107.092 129.206C106.863 129.431 106.642 129.67 106.403 129.886C105.876 130.363 105.124 130.35 104.638 129.859C104.16 129.377 104.133 128.625 104.61 128.111C105.255 127.418 105.926 126.751 106.768 126.287C107.759 125.742 108.817 125.458 109.835 125.449Z" fill="#F5F5F5"/>
<path d="M109.899 134.263C108.827 134.313 107.872 133.434 107.822 132.349C107.773 131.25 108.62 130.282 109.683 130.227C110.858 130.169 111.813 131.016 111.863 132.169C111.917 133.277 111.038 134.209 109.899 134.263Z" fill="#F5F5F5"/>
<path d="M217.55 71.144H211.935V67.6021H217.55C218.418 67.6021 219.125 67.4608 219.669 67.1782C220.214 66.8856 220.613 66.4819 220.865 65.9673C221.118 65.4526 221.244 64.8724 221.244 64.2266C221.244 63.5706 221.118 62.9601 220.865 62.395C220.613 61.8299 220.214 61.3758 219.669 61.0327C219.125 60.6896 218.418 60.5181 217.55 60.5181H213.509V79H208.968V56.9609H217.55C219.276 56.9609 220.754 57.2738 221.985 57.8994C223.227 58.515 224.175 59.3677 224.831 60.4575C225.487 61.5474 225.815 62.7936 225.815 64.1963C225.815 65.6191 225.487 66.8503 224.831 67.8896C224.175 68.929 223.227 69.7313 221.985 70.2964C220.754 70.8615 219.276 71.144 217.55 71.144ZM227.768 70.9775V70.6597C227.768 69.4588 227.939 68.3538 228.282 67.3447C228.625 66.3255 229.125 65.4425 229.781 64.6958C230.437 63.9491 231.244 63.3688 232.203 62.9551C233.161 62.5312 234.261 62.3193 235.502 62.3193C236.744 62.3193 237.849 62.5312 238.817 62.9551C239.786 63.3688 240.598 63.9491 241.254 64.6958C241.92 65.4425 242.425 66.3255 242.768 67.3447C243.111 68.3538 243.283 69.4588 243.283 70.6597V70.9775C243.283 72.1683 243.111 73.2733 242.768 74.2925C242.425 75.3016 241.92 76.1846 241.254 76.9414C240.598 77.6882 239.791 78.2684 238.833 78.6821C237.874 79.0959 236.774 79.3027 235.533 79.3027C234.292 79.3027 233.187 79.0959 232.218 78.6821C231.259 78.2684 230.447 77.6882 229.781 76.9414C229.125 76.1846 228.625 75.3016 228.282 74.2925C227.939 73.2733 227.768 72.1683 227.768 70.9775ZM232.127 70.6597V70.9775C232.127 71.6637 232.188 72.3045 232.309 72.8999C232.43 73.4953 232.621 74.02 232.884 74.4741C233.156 74.9181 233.509 75.2663 233.943 75.5186C234.377 75.7708 234.907 75.897 235.533 75.897C236.138 75.897 236.658 75.7708 237.092 75.5186C237.526 75.2663 237.874 74.9181 238.136 74.4741C238.399 74.02 238.59 73.4953 238.711 72.8999C238.843 72.3045 238.908 71.6637 238.908 70.9775V70.6597C238.908 69.9937 238.843 69.368 238.711 68.7827C238.59 68.1873 238.394 67.6626 238.121 67.2085C237.859 66.7443 237.511 66.381 237.077 66.1187C236.643 65.8563 236.118 65.7251 235.502 65.7251C234.887 65.7251 234.362 65.8563 233.928 66.1187C233.504 66.381 233.156 66.7443 232.884 67.2085C232.621 67.6626 232.43 68.1873 232.309 68.7827C232.188 69.368 232.127 69.9937 232.127 70.6597ZM250.563 55.75V79H246.189V55.75H250.563ZM258.768 55.75V79H254.393V55.75H258.768ZM272.058 75.0796V62.6221H276.417V79H272.315L272.058 75.0796ZM272.542 71.7192L273.829 71.689C273.829 72.7788 273.702 73.793 273.45 74.7314C273.198 75.6598 272.819 76.4671 272.315 77.1533C271.81 77.8294 271.175 78.3592 270.408 78.7427C269.641 79.116 268.738 79.3027 267.698 79.3027C266.901 79.3027 266.164 79.1917 265.488 78.9697C264.822 78.7376 264.247 78.3794 263.763 77.895C263.288 77.4006 262.915 76.7699 262.643 76.0029C262.38 75.2259 262.249 74.2925 262.249 73.2026V62.6221H266.608V73.2329C266.608 73.7173 266.664 74.126 266.775 74.459C266.896 74.792 267.062 75.0645 267.274 75.2764C267.486 75.4883 267.734 75.6396 268.016 75.7305C268.309 75.8213 268.632 75.8667 268.985 75.8667C269.883 75.8667 270.589 75.6851 271.104 75.3218C271.629 74.9585 271.997 74.464 272.209 73.8384C272.431 73.2026 272.542 72.4963 272.542 71.7192ZM287.77 62.6221V65.71H278.233V62.6221H287.77ZM280.595 58.5806H284.954V74.0654C284.954 74.5397 285.015 74.903 285.136 75.1553C285.267 75.4076 285.459 75.5841 285.711 75.6851C285.963 75.7759 286.281 75.8213 286.665 75.8213C286.937 75.8213 287.179 75.8112 287.391 75.791C287.613 75.7607 287.8 75.7305 287.951 75.7002L287.966 78.9092C287.593 79.0303 287.189 79.1261 286.755 79.1968C286.321 79.2674 285.842 79.3027 285.317 79.3027C284.359 79.3027 283.521 79.1463 282.805 78.8335C282.098 78.5106 281.553 77.9959 281.17 77.2896C280.786 76.5832 280.595 75.6548 280.595 74.5044V58.5806ZM294.854 62.6221V79H290.479V62.6221H294.854ZM290.207 58.3535C290.207 57.7178 290.429 57.193 290.873 56.7793C291.317 56.3656 291.912 56.1587 292.659 56.1587C293.395 56.1587 293.986 56.3656 294.43 56.7793C294.884 57.193 295.111 57.7178 295.111 58.3535C295.111 58.9893 294.884 59.514 294.43 59.9277C293.986 60.3415 293.395 60.5483 292.659 60.5483C291.912 60.5483 291.317 60.3415 290.873 59.9277C290.429 59.514 290.207 58.9893 290.207 58.3535ZM297.76 70.9775V70.6597C297.76 69.4588 297.931 68.3538 298.274 67.3447C298.618 66.3255 299.117 65.4425 299.773 64.6958C300.429 63.9491 301.236 63.3688 302.195 62.9551C303.153 62.5312 304.253 62.3193 305.495 62.3193C306.736 62.3193 307.841 62.5312 308.81 62.9551C309.778 63.3688 310.591 63.9491 311.247 64.6958C311.913 65.4425 312.417 66.3255 312.76 67.3447C313.103 68.3538 313.275 69.4588 313.275 70.6597V70.9775C313.275 72.1683 313.103 73.2733 312.76 74.2925C312.417 75.3016 311.913 76.1846 311.247 76.9414C310.591 77.6882 309.783 78.2684 308.825 78.6821C307.866 79.0959 306.766 79.3027 305.525 79.3027C304.284 79.3027 303.179 79.0959 302.21 78.6821C301.251 78.2684 300.439 77.6882 299.773 76.9414C299.117 76.1846 298.618 75.3016 298.274 74.2925C297.931 73.2733 297.76 72.1683 297.76 70.9775ZM302.119 70.6597V70.9775C302.119 71.6637 302.18 72.3045 302.301 72.8999C302.422 73.4953 302.614 74.02 302.876 74.4741C303.148 74.9181 303.502 75.2663 303.936 75.5186C304.369 75.7708 304.899 75.897 305.525 75.897C306.13 75.897 306.65 75.7708 307.084 75.5186C307.518 75.2663 307.866 74.9181 308.128 74.4741C308.391 74.02 308.583 73.4953 308.704 72.8999C308.835 72.3045 308.9 71.6637 308.9 70.9775V70.6597C308.9 69.9937 308.835 69.368 308.704 68.7827C308.583 68.1873 308.386 67.6626 308.113 67.2085C307.851 66.7443 307.503 66.381 307.069 66.1187C306.635 65.8563 306.11 65.7251 305.495 65.7251C304.879 65.7251 304.354 65.8563 303.92 66.1187C303.497 66.381 303.148 66.7443 302.876 67.2085C302.614 67.6626 302.422 68.1873 302.301 68.7827C302.18 69.368 302.119 69.9937 302.119 70.6597ZM320.223 66.1187V79H315.863V62.6221H319.95L320.223 66.1187ZM319.587 70.2358H318.406C318.406 69.0249 318.563 67.9351 318.875 66.9663C319.188 65.9875 319.627 65.1549 320.192 64.4688C320.757 63.7725 321.429 63.2427 322.206 62.8794C322.993 62.506 323.871 62.3193 324.839 62.3193C325.606 62.3193 326.308 62.4303 326.943 62.6523C327.579 62.8743 328.124 63.2275 328.578 63.7119C329.042 64.1963 329.396 64.8371 329.638 65.6343C329.89 66.4315 330.016 67.4053 330.016 68.5557V79H325.626V68.5405C325.626 67.814 325.526 67.2489 325.324 66.8452C325.122 66.4416 324.824 66.159 324.431 65.9976C324.047 65.826 323.573 65.7402 323.008 65.7402C322.423 65.7402 321.913 65.8563 321.479 66.0884C321.055 66.3205 320.702 66.6434 320.419 67.0571C320.147 67.4608 319.94 67.9351 319.799 68.48C319.658 69.0249 319.587 69.6102 319.587 70.2358ZM212.964 102.119V115H208.604V98.6221H212.691L212.964 102.119ZM212.328 106.236H211.147C211.147 105.025 211.304 103.935 211.617 102.966C211.93 101.987 212.368 101.155 212.934 100.469C213.499 99.7725 214.17 99.2427 214.947 98.8794C215.734 98.506 216.612 98.3193 217.581 98.3193C218.347 98.3193 219.049 98.4303 219.685 98.6523C220.32 98.8743 220.865 99.2275 221.319 99.7119C221.784 100.196 222.137 100.837 222.379 101.634C222.631 102.431 222.757 103.405 222.757 104.556V115H218.368V104.541C218.368 103.814 218.267 103.249 218.065 102.845C217.863 102.442 217.565 102.159 217.172 101.998C216.788 101.826 216.314 101.74 215.749 101.74C215.164 101.74 214.654 101.856 214.22 102.088C213.796 102.32 213.443 102.643 213.161 103.057C212.888 103.461 212.681 103.935 212.54 104.48C212.399 105.025 212.328 105.61 212.328 106.236ZM235.76 111.08V98.6221H240.119V115H236.017L235.76 111.08ZM236.244 107.719L237.531 107.689C237.531 108.779 237.405 109.793 237.152 110.731C236.9 111.66 236.522 112.467 236.017 113.153C235.513 113.829 234.877 114.359 234.11 114.743C233.343 115.116 232.44 115.303 231.4 115.303C230.603 115.303 229.867 115.192 229.19 114.97C228.524 114.738 227.949 114.379 227.465 113.895C226.991 113.401 226.617 112.77 226.345 112.003C226.082 111.226 225.951 110.292 225.951 109.203V98.6221H230.311V109.233C230.311 109.717 230.366 110.126 230.477 110.459C230.598 110.792 230.765 111.064 230.977 111.276C231.188 111.488 231.436 111.64 231.718 111.73C232.011 111.821 232.334 111.867 232.687 111.867C233.585 111.867 234.292 111.685 234.806 111.322C235.331 110.958 235.699 110.464 235.911 109.838C236.133 109.203 236.244 108.496 236.244 107.719ZM247.809 102.013V115H243.434V98.6221H247.536L247.809 102.013ZM247.203 106.236H245.992C245.992 105.096 246.128 104.046 246.401 103.087C246.683 102.119 247.092 101.281 247.627 100.575C248.172 99.8582 248.843 99.3032 249.64 98.9097C250.437 98.5161 251.361 98.3193 252.41 98.3193C253.137 98.3193 253.803 98.4303 254.408 98.6523C255.014 98.8643 255.533 99.2023 255.967 99.6665C256.411 100.121 256.754 100.716 256.997 101.453C257.239 102.179 257.36 103.052 257.36 104.071V115H253V104.556C253 103.809 252.9 103.234 252.698 102.83C252.496 102.426 252.208 102.144 251.835 101.982C251.472 101.821 251.033 101.74 250.518 101.74C249.953 101.74 249.458 101.856 249.035 102.088C248.621 102.32 248.278 102.643 248.005 103.057C247.733 103.461 247.531 103.935 247.4 104.48C247.269 105.025 247.203 105.61 247.203 106.236ZM256.951 105.736L255.392 105.933C255.392 104.863 255.523 103.869 255.786 102.951C256.058 102.033 256.457 101.226 256.981 100.529C257.516 99.833 258.177 99.2931 258.964 98.9097C259.751 98.5161 260.66 98.3193 261.689 98.3193C262.476 98.3193 263.193 98.4354 263.838 98.6675C264.484 98.8895 265.034 99.2477 265.488 99.7422C265.952 100.227 266.306 100.862 266.548 101.649C266.8 102.437 266.926 103.4 266.926 104.541V115H262.552V104.541C262.552 103.784 262.451 103.208 262.249 102.815C262.057 102.411 261.775 102.134 261.401 101.982C261.038 101.821 260.604 101.74 260.1 101.74C259.575 101.74 259.116 101.846 258.722 102.058C258.329 102.26 258.001 102.542 257.738 102.906C257.476 103.269 257.279 103.693 257.148 104.177C257.017 104.652 256.951 105.171 256.951 105.736ZM277.84 115.303C276.568 115.303 275.428 115.101 274.419 114.697C273.41 114.284 272.552 113.713 271.846 112.987C271.149 112.26 270.615 111.418 270.241 110.459C269.868 109.49 269.681 108.461 269.681 107.371V106.766C269.681 105.524 269.858 104.389 270.211 103.36C270.564 102.331 271.069 101.438 271.725 100.681C272.391 99.9238 273.198 99.3436 274.146 98.9399C275.095 98.5262 276.165 98.3193 277.355 98.3193C278.516 98.3193 279.545 98.5111 280.443 98.8945C281.341 99.278 282.093 99.8229 282.699 100.529C283.314 101.236 283.778 102.083 284.091 103.072C284.404 104.051 284.561 105.141 284.561 106.342V108.158H271.543V105.252H280.277V104.919C280.277 104.313 280.166 103.774 279.944 103.299C279.732 102.815 279.409 102.431 278.975 102.149C278.541 101.866 277.986 101.725 277.31 101.725C276.735 101.725 276.24 101.851 275.827 102.104C275.413 102.356 275.075 102.709 274.812 103.163C274.56 103.617 274.368 104.152 274.237 104.768C274.116 105.373 274.056 106.039 274.056 106.766V107.371C274.056 108.027 274.146 108.632 274.328 109.188C274.52 109.743 274.787 110.222 275.13 110.625C275.484 111.029 275.907 111.342 276.402 111.564C276.906 111.786 277.477 111.897 278.112 111.897C278.899 111.897 279.631 111.746 280.307 111.443C280.993 111.13 281.584 110.661 282.078 110.035L284.197 112.336C283.854 112.83 283.385 113.305 282.79 113.759C282.204 114.213 281.498 114.586 280.67 114.879C279.843 115.161 278.899 115.303 277.84 115.303ZM274.767 96.397L277.734 91.7349H282.472L278.309 96.397H274.767ZM291.402 102.194V115H287.043V98.6221H291.145L291.402 102.194ZM296.337 98.5161L296.261 102.558C296.049 102.527 295.792 102.502 295.489 102.482C295.197 102.452 294.929 102.437 294.687 102.437C294.071 102.437 293.537 102.517 293.083 102.679C292.639 102.83 292.265 103.057 291.962 103.36C291.67 103.663 291.448 104.031 291.296 104.465C291.155 104.899 291.074 105.393 291.054 105.948L290.176 105.676C290.176 104.616 290.282 103.642 290.494 102.754C290.706 101.856 291.014 101.074 291.417 100.408C291.831 99.7422 292.336 99.2275 292.931 98.8643C293.527 98.501 294.208 98.3193 294.975 98.3193C295.217 98.3193 295.464 98.3395 295.716 98.3799C295.969 98.4102 296.175 98.4556 296.337 98.5161ZM302.997 98.6221V115H298.623V98.6221H302.997ZM298.35 94.3535C298.35 93.7178 298.572 93.193 299.016 92.7793C299.46 92.3656 300.056 92.1587 300.802 92.1587C301.539 92.1587 302.129 92.3656 302.573 92.7793C303.027 93.193 303.254 93.7178 303.254 94.3535C303.254 94.9893 303.027 95.514 302.573 95.9277C302.129 96.3415 301.539 96.5483 300.802 96.5483C300.056 96.5483 299.46 96.3415 299.016 95.9277C298.572 95.514 298.35 94.9893 298.35 94.3535ZM316.272 121.297V101.967L316.832 98.6221H320.662V121.297H316.272ZM305.918 106.978V106.66C305.918 105.408 306.055 104.273 306.327 103.254C306.61 102.225 307.023 101.347 307.568 100.62C308.113 99.8835 308.779 99.3184 309.566 98.9248C310.364 98.5212 311.282 98.3193 312.321 98.3193C313.32 98.3193 314.183 98.5212 314.91 98.9248C315.636 99.3285 316.247 99.8986 316.741 100.635C317.246 101.372 317.649 102.24 317.952 103.239C318.255 104.238 318.487 105.333 318.648 106.523V107.22C318.497 108.36 318.265 109.42 317.952 110.398C317.649 111.377 317.246 112.235 316.741 112.972C316.247 113.708 315.631 114.284 314.895 114.697C314.168 115.101 313.3 115.303 312.291 115.303C311.272 115.303 310.364 115.096 309.566 114.682C308.779 114.258 308.113 113.673 307.568 112.926C307.023 112.18 306.61 111.302 306.327 110.292C306.055 109.273 305.918 108.168 305.918 106.978ZM310.278 106.66V106.978C310.278 107.654 310.333 108.289 310.444 108.885C310.555 109.47 310.732 109.99 310.974 110.444C311.226 110.898 311.549 111.256 311.943 111.519C312.336 111.771 312.821 111.897 313.396 111.897C314.193 111.897 314.834 111.725 315.318 111.382C315.813 111.029 316.176 110.55 316.408 109.944C316.65 109.339 316.792 108.648 316.832 107.871V105.888C316.802 105.252 316.716 104.682 316.575 104.177C316.444 103.663 316.242 103.224 315.969 102.86C315.707 102.497 315.364 102.22 314.94 102.028C314.526 101.826 314.022 101.725 313.426 101.725C312.861 101.725 312.377 101.851 311.973 102.104C311.569 102.356 311.242 102.709 310.989 103.163C310.747 103.607 310.565 104.127 310.444 104.722C310.333 105.318 310.278 105.963 310.278 106.66ZM333.785 111.08V98.6221H338.145V115H334.042L333.785 111.08ZM334.27 107.719L335.556 107.689C335.556 108.779 335.43 109.793 335.178 110.731C334.925 111.66 334.547 112.467 334.042 113.153C333.538 113.829 332.902 114.359 332.135 114.743C331.368 115.116 330.465 115.303 329.426 115.303C328.629 115.303 327.892 115.192 327.216 114.97C326.55 114.738 325.975 114.379 325.49 113.895C325.016 113.401 324.643 112.77 324.37 112.003C324.108 111.226 323.977 110.292 323.977 109.203V98.6221H328.336V109.233C328.336 109.717 328.391 110.126 328.502 110.459C328.624 110.792 328.79 111.064 329.002 111.276C329.214 111.488 329.461 111.64 329.744 111.73C330.036 111.821 330.359 111.867 330.712 111.867C331.611 111.867 332.317 111.685 332.832 111.322C333.356 110.958 333.725 110.464 333.937 109.838C334.159 109.203 334.27 108.496 334.27 107.719ZM349.013 115.303C347.741 115.303 346.601 115.101 345.592 114.697C344.583 114.284 343.725 113.713 343.019 112.987C342.322 112.26 341.787 111.418 341.414 110.459C341.041 109.49 340.854 108.461 340.854 107.371V106.766C340.854 105.524 341.031 104.389 341.384 103.36C341.737 102.331 342.242 101.438 342.897 100.681C343.563 99.9238 344.371 99.3436 345.319 98.9399C346.268 98.5262 347.338 98.3193 348.528 98.3193C349.689 98.3193 350.718 98.5111 351.616 98.8945C352.514 99.278 353.266 99.8229 353.872 100.529C354.487 101.236 354.951 102.083 355.264 103.072C355.577 104.051 355.733 105.141 355.733 106.342V108.158H342.716V105.252H351.45V104.919C351.45 104.313 351.339 103.774 351.117 103.299C350.905 102.815 350.582 102.431 350.148 102.149C349.714 101.866 349.159 101.725 348.483 101.725C347.908 101.725 347.413 101.851 347 102.104C346.586 102.356 346.248 102.709 345.985 103.163C345.733 103.617 345.541 104.152 345.41 104.768C345.289 105.373 345.229 106.039 345.229 106.766V107.371C345.229 108.027 345.319 108.632 345.501 109.188C345.693 109.743 345.96 110.222 346.303 110.625C346.656 111.029 347.08 111.342 347.575 111.564C348.079 111.786 348.649 111.897 349.285 111.897C350.072 111.897 350.804 111.746 351.48 111.443C352.166 111.13 352.757 110.661 353.251 110.035L355.37 112.336C355.027 112.83 354.558 113.305 353.962 113.759C353.377 114.213 352.671 114.586 351.843 114.879C351.016 115.161 350.072 115.303 349.013 115.303Z" fill="#222222"/>
<mask id="mask1_275_12944" style="mask-type:alpha" maskUnits="userSpaceOnUse" x="207" y="153" width="294" height="25">
<rect x="207" y="153.386" width="294" height="24.5" rx="12.25" fill="#D9D9D9"/>
</mask>
<g mask="url(#mask1_275_12944)">
<rect x="207" y="153.386" width="26.95" height="24.5" fill="#A8EC6C"/>
<rect x="238.955" y="153.386" width="24.5" height="24.5" fill="#A8EC6C"/>
<rect x="268.355" y="153.386" width="24.5" height="24.5" fill="#A8EC6C"/>
<rect x="297.756" y="153.386" width="24.5" height="24.5" fill="#FAC04F"/>
<rect x="327.154" y="153.386" width="24.5" height="24.5" fill="#FAC04F"/>
<rect x="356.555" y="153.386" width="24.5" height="24.5" fill="#FAC04F"/>
<rect x="415.355" y="153.386" width="24.5" height="24.5" fill="#E96B73"/>
<rect x="385.955" y="153.386" width="24.5" height="24.5" fill="#FAC04F"/>
<rect x="444.754" y="153.386" width="24.5" height="24.5" fill="#E96B73"/>
<rect x="474.051" y="153.386" width="26.95" height="24.5" fill="#E96B73"/>
</g>
<mask id="path-66-outside-1_275_12944" maskUnits="userSpaceOnUse" x="267.924" y="160.426" width="25" height="35" fill="black">
<rect fill="white" x="267.924" y="160.426" width="25" height="35"/>
<path fill-rule="evenodd" clip-rule="evenodd" d="M287.85 178.734L280.499 166.426L273.148 178.734C269.74 184.441 273.852 191.686 280.499 191.686C287.146 191.686 291.258 184.441 287.85 178.734Z"/>
</mask>
<path fill-rule="evenodd" clip-rule="evenodd" d="M287.85 178.734L280.499 166.426L273.148 178.734C269.74 184.441 273.852 191.686 280.499 191.686C287.146 191.686 291.258 184.441 287.85 178.734Z" fill="#212121"/>
<path d="M280.499 166.426L283.074 164.888L280.499 160.575L277.923 164.888L280.499 166.426ZM287.85 178.734L285.274 180.272L285.274 180.272L287.85 178.734ZM273.148 178.734L275.724 180.272L275.724 180.272L273.148 178.734ZM277.923 167.964L285.274 180.272L290.425 177.196L283.074 164.888L277.923 167.964ZM275.724 180.272L283.074 167.964L277.923 164.888L270.572 177.196L275.724 180.272ZM280.499 188.686C276.181 188.686 273.51 183.979 275.724 180.272L270.572 177.196C265.97 184.902 271.522 194.686 280.499 194.686V188.686ZM285.274 180.272C287.488 183.979 284.817 188.686 280.499 188.686V194.686C289.475 194.686 295.028 184.902 290.425 177.196L285.274 180.272Z" fill="white" mask="url(#path-66-outside-1_275_12944)"/>
<circle cx="280.499" cy="183.575" r="3.675" fill="white"/>
</svg>
