<svg width="282" height="175" viewBox="0 0 282 175" fill="none" xmlns="http://www.w3.org/2000/svg">
<path fill-rule="evenodd" clip-rule="evenodd" d="M40.2513 20.439V60.5169V60.5175V114.034H13.2109V60.5175V60.5169V20.439C13.2109 12.9641 19.2288 7 26.7713 7C30.5425 7 33.9125 8.51089 36.3197 10.8965C38.7268 13.3617 40.2513 16.7015 40.2513 20.439ZM40.2513 154.114V114.035H13.2109V154.114C13.2109 161.509 19.2288 167.553 26.691 167.553C34.2334 167.553 40.2513 161.509 40.2513 154.114Z" fill="#E96B73"/>
<path fill-rule="evenodd" clip-rule="evenodd" d="M40.2513 114.035H13.2109V154.114C13.2109 161.509 19.2288 167.553 26.691 167.553C34.2334 167.553 40.2513 161.509 40.2513 154.114V114.035ZM6.21094 20.439C6.21094 9.03889 15.4223 0 26.7712 0C32.4479 0 37.5721 2.2825 41.2471 5.92458L41.2878 5.96497L41.3279 6.00603C44.9125 9.67698 47.2513 14.7363 47.2513 20.439V154.114C47.2513 165.407 38.0671 174.553 26.691 174.553C15.368 174.553 6.21094 165.38 6.21094 154.114V20.439ZM13.2109 114.035V20.439C13.2109 12.9641 19.2288 7 26.7712 7C30.5425 7 33.9125 8.51089 36.3196 10.8965C38.7268 13.3617 40.2513 16.7015 40.2513 20.439V114.035H13.2109Z" fill="#212121"/>
<path d="M26.6603 167C19.2324 167 13.2109 160.978 13.2109 153.551L13.2109 20.0172C13.2109 12.5893 19.2324 6.56779 26.6603 6.56779V6.56779C34.0882 6.56779 40.1098 12.5893 40.1098 20.0172L40.1098 153.551C40.1098 160.978 34.0883 167 26.6603 167V167Z" fill="#212121"/>
<path d="M40.2513 60.5166H13.2109V114.034H40.2513V60.5166Z" fill="#FAC04F"/>
<path d="M40.2513 20.439V60.5175H13.2109V20.439C13.2109 12.9641 19.2288 7 26.7712 7C30.5425 7 33.9125 8.51089 36.3196 10.8965C38.7268 13.3617 40.2513 16.7015 40.2513 20.439Z" fill="#A8EB6C"/>
<path d="M40.2513 114.035V154.114C40.2513 161.509 34.2334 167.553 26.691 167.553C19.2288 167.553 13.2109 161.509 13.2109 154.114V114.035H40.2513Z" fill="#E96B73"/>
<path d="M0 37C0 34.2386 2.23858 32 5 32H23C25.7614 32 28 34.2386 28 37V37C28 39.7614 25.7614 42 23 42H5C2.23858 42 0 39.7614 0 37V37Z" fill="#212121"/>
<path fill-rule="evenodd" clip-rule="evenodd" d="M0 44.4845C1.4301 45.4417 3.14985 46 5 46H23C27.9706 46 32 41.9706 32 37C32 32.0294 27.9706 28 23 28H5C3.14985 28 1.4301 28.5583 0 29.5155V37V44.4845ZM0 37C0 39.7614 2.23858 42 5 42H23C25.7614 42 28 39.7614 28 37C28 34.2386 25.7614 32 23 32H5C2.23858 32 0 34.2386 0 37Z" fill="white"/>
<path opacity="0.2" d="M40.3945 125.5C35.6732 169.9 13.8945 155 12.8945 146L11.8945 160.5L18.288 167L29.5994 170L41.8945 160.5L40.3945 125.5Z" fill="#212121"/>
<path d="M273.378 89.0527C273.378 98.3543 271.732 107.295 268.722 115.594C268.602 115.915 268.481 116.276 268.361 116.597C266.796 120.766 264.869 124.736 262.621 128.504C259.049 134.558 254.634 140.091 249.577 144.943C249.176 145.343 248.734 145.744 248.293 146.145C248.092 146.346 247.891 146.506 247.731 146.667C247.289 147.067 246.848 147.468 246.406 147.829C245.363 148.711 244.319 149.593 243.236 150.435C240.426 152.6 237.456 154.605 234.325 156.369C232.399 157.452 230.432 158.494 228.425 159.416C223.81 161.541 218.953 163.265 213.856 164.468C211.568 165.029 209.2 165.47 206.832 165.791C204.183 166.152 201.494 166.392 198.764 166.513C197.801 166.553 196.798 166.553 195.794 166.553C188.048 166.553 180.543 165.43 173.479 163.305C173.198 163.225 172.957 163.145 172.676 163.065C169.585 162.102 166.615 160.98 163.685 159.657C161.076 158.494 158.548 157.171 156.14 155.728C156.1 155.687 156.059 155.687 156.019 155.647C154.855 154.926 153.651 154.204 152.527 153.442C151.444 152.721 150.4 151.959 149.357 151.197C146.989 149.433 144.701 147.508 142.574 145.464C141.771 144.702 140.968 143.9 140.165 143.098C138.279 141.134 136.473 139.089 134.787 136.924C134.747 136.884 134.707 136.804 134.667 136.764C133.021 134.639 131.456 132.433 130.051 130.148C128.606 127.863 127.282 125.497 126.118 123.052C125.395 121.568 124.713 120.045 124.071 118.481C123.99 118.321 123.95 118.16 123.87 118C122.907 115.594 122.064 113.149 121.341 110.663C121.181 110.062 120.98 109.42 120.82 108.819C120.739 108.458 120.619 108.097 120.539 107.696C120.378 107.014 120.218 106.293 120.057 105.611C118.853 100.239 118.251 94.7059 118.251 89.0527C118.251 88.1306 118.251 87.2485 118.291 86.3264C119.736 44.7899 153.892 11.5527 195.835 11.5527C229.83 11.5527 258.728 33.4035 269.204 63.8342C270.488 67.5628 271.492 71.4118 272.214 75.381C272.455 76.6239 272.615 77.8668 272.776 79.1497C273.177 82.3973 273.378 85.6849 273.378 89.0527Z" fill="#74CBED"/>
<mask id="mask0_186_3328" style="mask-type:alpha" maskUnits="userSpaceOnUse" x="118" y="11" width="156" height="156">
<path d="M273.378 89.0527C273.378 98.3543 271.732 107.295 268.722 115.594C268.602 115.915 268.481 116.276 268.361 116.597C266.796 120.766 264.869 124.736 262.621 128.504C259.049 134.558 254.634 140.091 249.577 144.943C249.176 145.343 248.734 145.744 248.293 146.145C248.092 146.346 247.891 146.506 247.731 146.667C247.289 147.067 246.848 147.468 246.406 147.829C245.363 148.711 244.319 149.593 243.236 150.435C240.426 152.6 237.456 154.605 234.325 156.369C232.399 157.452 230.432 158.494 228.425 159.416C223.81 161.541 218.953 163.265 213.856 164.468C211.568 165.029 209.2 165.47 206.832 165.791C204.183 166.152 201.494 166.392 198.764 166.513C197.801 166.553 196.798 166.553 195.794 166.553C188.048 166.553 180.543 165.43 173.479 163.305C173.198 163.225 172.957 163.145 172.676 163.065C169.585 162.102 166.615 160.98 163.685 159.657C161.076 158.494 158.548 157.171 156.14 155.728C156.1 155.687 156.059 155.687 156.019 155.647C154.855 154.926 153.651 154.204 152.527 153.442C151.444 152.721 150.4 151.959 149.357 151.197C146.989 149.433 144.701 147.508 142.574 145.464C141.771 144.702 140.968 143.9 140.165 143.098C138.279 141.134 136.473 139.089 134.787 136.924C134.747 136.884 134.707 136.804 134.667 136.764C133.021 134.639 131.456 132.433 130.051 130.148C128.606 127.863 127.282 125.497 126.118 123.052C125.395 121.568 124.713 120.045 124.071 118.481C123.99 118.321 123.95 118.16 123.87 118C122.907 115.594 122.064 113.149 121.341 110.663C121.181 110.062 120.98 109.42 120.82 108.819C120.739 108.458 120.619 108.097 120.539 107.696C120.378 107.014 120.218 106.293 120.057 105.611C118.853 100.239 118.251 94.7059 118.251 89.0527C118.251 88.1306 118.251 87.2485 118.291 86.3264C119.736 44.7899 153.892 11.5527 195.835 11.5527C229.83 11.5527 258.728 33.4035 269.204 63.8342C270.488 67.5628 271.492 71.4118 272.214 75.381C272.455 76.6239 272.615 77.8668 272.776 79.1497C273.177 82.3973 273.378 85.6849 273.378 89.0527Z" fill="#6EB7E6"/>
</mask>
<g mask="url(#mask0_186_3328)">
<path opacity="0.5" d="M230.946 163.136C242.629 160.364 253.668 155.916 263.867 150.113C289.3 135.608 309.052 112.4 319.251 84.5497C293.043 75.2019 287.492 101.247 287.492 101.247C277.1 100.086 269.547 102.472 263.996 106.082C262.769 106.856 261.672 107.758 260.639 108.661C258.186 110.788 256.314 113.173 254.894 115.43C251.602 120.523 250.569 124.971 250.569 124.971L244.889 115.43L239.079 105.695L235.981 100.538L234.367 97.8301C233.205 90.7386 229.461 87.9665 225.782 87.064C221.263 85.968 216.68 87.7086 216.68 87.7086C216.68 87.7086 217.455 64.6292 195.314 55.5392C191.376 53.9275 186.729 52.7671 181.242 52.2514C166.847 50.8976 155.422 54.3143 147.417 58.2469C138.768 62.5018 134.12 67.4013 134.12 67.4013C130.505 64.4358 126.89 62.8886 123.469 62.3084C114.109 60.6322 106.621 65.9186 106.621 65.9186C101.006 46.3204 88.9992 39.2934 77.3156 37.5527C77.251 39.0355 77.251 40.4538 77.251 41.9365C77.251 77.6517 92.2913 109.886 116.369 132.578C122.953 138.767 130.182 144.311 138.058 148.953C156.777 160.106 178.595 166.553 202.027 166.553C203.641 166.553 205.19 166.488 206.804 166.488C211.193 166.359 215.518 165.908 219.779 165.328L230.946 163.136Z" fill="white"/>
<path d="M224.715 62.7739L221.42 132.046H152.273C151.175 132.046 150.265 131.136 150.265 130.037V62.7739H224.715Z" fill="#A8EC6C"/>
<path d="M239.651 62.7739V132.046H221.415L224.711 62.7739H239.651Z" fill="#9BDD61"/>
<path d="M256.099 40.834H235.038L235.509 30.947C235.509 30.947 235.634 26.5527 239.432 26.5527H250.198C250.355 26.5527 250.418 26.5527 250.418 26.5527H255.503L256.099 40.834Z" fill="#786E7A"/>
<path d="M260.059 132.329H230.743L234.478 52.9502H256.638L260.059 132.329Z" fill="#786E7A"/>
<path d="M256.635 52.9495H234.476L235.041 40.834H256.101L256.635 52.9495Z" fill="white"/>
<path d="M265.551 40.834H256.103L255.476 26.5527H261.157C264.955 26.5527 265.08 30.947 265.08 30.947L265.551 40.834Z" fill="#6A6069"/>
<path d="M266.115 52.9495H256.636L256.103 40.834H265.55L266.115 52.9495Z" fill="#F3F1EB"/>
<path d="M269.85 132.329H260.057L256.636 52.9502H266.115L269.85 132.329Z" fill="#6A6069"/>
<rect x="127.251" y="131.553" width="138" height="35" fill="#699C3B"/>
<path d="M170.447 115.159H163.134C161.439 115.159 160.026 113.778 160.026 112.052V104.707C160.026 103.012 161.407 101.6 163.134 101.6H170.478C172.173 101.6 173.586 102.981 173.586 104.707V112.052C173.554 113.778 172.173 115.159 170.447 115.159Z" fill="white"/>
<path d="M167.151 135.627C165.277 133.735 163.423 131.842 161.531 129.95C160.441 128.841 159.982 127.522 160.154 125.993C160.288 124.884 160.862 123.986 161.607 123.202C161.626 123.202 161.664 123.202 161.684 123.183C162.926 124.445 164.169 125.725 165.43 126.987C167.131 128.707 168.355 128.879 170.457 127.752C171.853 129.338 173.42 130.753 174.892 132.263C175.542 132.932 176.173 133.639 176.899 134.232C177.071 134.423 177.224 134.633 177.415 134.805C178.314 135.532 178.639 136.449 178.601 137.634C178.543 139.928 178.581 142.241 178.601 144.535C178.581 145.796 178.581 147.077 178.562 148.339C176.288 148.358 173.994 148.358 171.719 148.377C171.719 145.835 171.719 143.292 171.719 140.75C171.719 140.482 171.776 140.196 171.528 139.966C170.591 139.068 169.655 138.15 168.718 137.252C168.297 136.64 167.762 136.105 167.151 135.627Z" fill="#0A5179"/>
<path d="M195.731 162.313C188.831 162.313 183.211 156.693 183.211 149.792C183.211 142.892 188.831 137.272 195.731 137.272C202.632 137.272 208.252 142.892 208.252 149.792C208.252 156.693 202.632 162.313 195.731 162.313ZM195.731 139.547C190.092 139.547 185.486 144.134 185.486 149.792C185.486 155.431 190.073 160.038 195.731 160.038C201.37 160.038 205.977 155.451 205.977 149.792C205.958 144.153 201.37 139.547 195.731 139.547Z" fill="#FAB50D"/>
<path d="M190.758 137.98C190.988 138.725 191.293 139.452 191.905 139.968C191.924 140.082 191.905 140.216 191.943 140.312C193.033 142.242 194.142 144.173 195.231 146.104C195.69 146.945 196.149 147.805 196.627 148.646C196.913 149.124 197.028 149.602 196.78 150.118C195.881 150.921 195.212 150.806 194.62 149.774C194.142 148.933 193.645 148.092 193.167 147.251C192.039 145.243 190.892 143.217 189.764 141.21C189.401 140.522 189.114 139.776 188.541 139.203C188.35 138.4 187.814 137.788 187.413 136.986C186.171 138.61 184.985 140.121 183.819 141.65C182.118 143.886 180.417 146.123 178.716 148.34C178.677 148.359 178.639 148.34 178.582 148.321C178.601 147.059 178.601 145.779 178.62 144.498C178.83 144.421 178.926 144.211 179.06 144.039C181.009 141.497 182.978 138.955 184.928 136.393C185.33 135.858 186.018 135.342 186.056 134.787C186.094 134.195 185.463 133.583 185.177 132.971C184.985 132.532 184.737 132.474 184.278 132.589C181.831 133.143 179.366 133.66 176.9 134.195C176.173 133.602 175.542 132.895 174.893 132.226C177.53 131.767 180.13 131.136 182.73 130.582C182.997 130.831 183.265 131.06 183.514 131.308C184.737 132.532 185.559 132.627 187.05 131.729C188.12 133.621 189.21 135.533 190.28 137.425C190.433 137.636 190.491 137.884 190.758 137.98Z" fill="#212121"/>
<path d="M175.201 116.475C178.222 119.514 181.261 122.554 184.281 125.593C184.453 125.784 184.702 125.918 184.759 126.186C183.65 127.16 182.618 128.212 181.624 129.321C181.357 129.244 181.204 129.015 181.032 128.843C179.254 127.065 177.476 125.287 175.679 123.509C175.507 123.337 175.373 123.07 175.068 123.07C174.532 122.114 173.672 121.483 172.889 120.757C172.124 119.973 171.417 119.151 170.595 118.425C169.62 117.565 169.238 116.59 169.62 115.328C169.658 115.29 169.677 115.252 169.715 115.194C170.231 114.506 170.862 114.009 171.761 114.009C172.716 113.99 173.309 114.621 173.94 115.194C174.322 115.672 174.743 116.093 175.201 116.475Z" fill="#FAB50D"/>
<path d="M156.771 162.313C149.871 162.313 144.251 156.693 144.251 149.792C144.251 142.892 149.871 137.272 156.771 137.272C163.672 137.272 169.292 142.892 169.292 149.792C169.292 156.693 163.691 162.313 156.771 162.313ZM156.771 139.547C151.132 139.547 146.545 144.153 146.545 149.792C146.545 155.431 151.132 160.038 156.791 160.038C162.43 160.038 167.036 155.451 167.036 149.792C167.017 144.153 162.43 139.547 156.771 139.547Z" fill="#FAB50D"/>
<path d="M162.582 140.943C163.098 140.37 163.691 139.854 164.035 139.146C165.067 138.248 165.832 137.082 166.749 136.088C166.749 136.394 166.998 136.528 167.17 136.7C167.514 137.082 167.954 137.369 168.202 137.827C167.418 138.783 166.654 139.739 165.87 140.695C165.373 141.287 164.857 141.88 164.36 142.472C162.926 144.155 161.493 145.837 160.059 147.519C159.925 147.672 159.772 147.863 159.849 148.073C159.963 148.341 160.231 148.36 160.518 148.36C162.697 148.341 164.895 148.341 167.074 148.341C167.858 148.341 168.642 148.341 169.406 148.341C169.846 148.36 170.286 148.36 170.744 148.379C170.553 149.124 170.553 149.87 170.744 150.615C170.305 150.635 169.865 150.654 169.445 150.654C168.642 150.654 167.839 150.654 167.055 150.654C164.742 150.654 162.429 150.654 160.135 150.654C159.161 150.654 158.205 150.615 157.23 150.635C156.695 150.654 156.255 150.52 155.892 150.138C155.605 149.507 155.777 148.991 156.217 148.455C156.848 147.729 157.536 147.041 158.052 146.219C159.658 144.575 161.11 142.759 162.582 140.943Z" fill="#212121"/>
<path d="M171.756 109.498C170.801 109.25 170.495 108.791 170.628 107.854C170.877 106.191 172.272 104.949 173.974 104.911C175.235 104.892 176.497 104.873 177.758 104.911C178.963 104.949 179.899 105.561 180.454 106.612C180.721 107.109 181.008 107.243 181.505 107.185C181.715 107.166 181.926 107.166 182.155 107.185C182.767 107.262 183.206 107.74 183.206 108.332C183.206 108.925 182.767 109.403 182.136 109.46C181.734 109.498 181.333 109.479 180.932 109.498C179.785 109.498 178.638 109.498 177.491 109.498C177.109 109.498 176.726 109.498 176.344 109.498C175.962 109.498 175.579 109.498 175.197 109.498C174.05 109.498 172.903 109.498 171.756 109.498Z" fill="#DC4F58"/>
<path d="M171.753 114.028C170.855 114.028 170.224 114.525 169.708 115.213C169.67 115.252 169.651 115.29 169.612 115.347C168.676 115.921 167.949 116.704 167.319 117.584C165.445 119.457 163.572 121.311 161.699 123.184C161.68 123.204 161.641 123.204 161.622 123.204C159.577 121.311 160.169 119.992 161.775 118.482C163.725 116.666 165.56 114.736 167.452 112.843C168.924 111.371 170.014 111.371 171.486 112.805C171.562 112.881 171.658 112.958 171.753 113.034C171.734 113.359 171.753 113.684 171.753 114.028Z" fill="#DC4F58"/>
<path d="M181.621 129.321C182.615 128.213 183.647 127.181 184.756 126.187C185.712 126.932 186.553 127.811 187.337 128.729C188.044 129.551 187.891 130.698 187.069 131.73C185.578 132.628 184.756 132.533 183.533 131.309C183.284 131.061 183.017 130.832 182.749 130.583C182.443 130.124 181.908 129.838 181.621 129.321Z" fill="#EFC8A0"/>
<path d="M180.897 110.606C180.859 111.792 181.107 112.977 180.668 114.143C180.171 115.462 178.909 116.341 177.476 116.322C177.495 114.429 177.495 112.518 177.514 110.626C178.642 110.606 179.769 110.606 180.897 110.606Z" fill="#EFC8A0"/>
<path d="M171.761 114.028C171.761 113.703 171.742 113.359 171.742 113.034C171.761 112.231 171.78 111.428 171.78 110.606C172.908 110.606 174.036 110.606 175.164 110.606C175.164 111.677 175.183 112.747 175.183 113.799C175.183 114.716 174.877 115.041 173.94 115.194C173.31 114.64 172.717 113.99 171.761 114.028Z" fill="#0A5179"/>
<path d="M173.936 115.215C174.872 115.062 175.178 114.718 175.178 113.819C175.178 112.749 175.159 111.678 175.159 110.627H175.197C175.56 110.627 175.943 110.627 176.306 110.627H176.344C176.344 112.519 176.344 114.431 176.325 116.323C175.943 116.419 175.522 116.189 175.178 116.476C174.738 116.094 174.318 115.673 173.936 115.215Z" fill="#EFC8A0"/>
<path d="M176.349 116.323C176.349 114.431 176.349 112.519 176.368 110.627C176.731 110.627 177.094 110.627 177.457 110.627H177.515C177.496 112.519 177.496 114.431 177.476 116.323C177.094 116.323 176.731 116.323 176.349 116.323Z" fill="#0A5179"/>
<path d="M180.896 110.608C179.768 110.608 178.64 110.608 177.512 110.608H177.455C177.455 110.226 177.474 109.863 177.474 109.48C178.621 109.48 179.768 109.48 180.915 109.48C180.915 109.863 180.896 110.226 180.896 110.608Z" fill="#D3AB82"/>
<path d="M175.18 110.608C174.052 110.608 172.924 110.608 171.796 110.608C171.796 110.226 171.777 109.863 171.777 109.48C172.924 109.48 174.071 109.48 175.218 109.48C175.218 109.863 175.237 110.226 175.237 110.608C175.218 110.608 175.18 110.608 175.18 110.608Z" fill="#193457"/>
<path d="M168.204 137.828C167.955 137.369 167.496 137.082 167.172 136.7C166.999 136.509 166.751 136.375 166.751 136.088C166.885 135.935 167.019 135.782 167.152 135.629C167.764 136.107 168.299 136.643 168.758 137.235C168.605 137.464 168.452 137.694 168.204 137.828Z" fill="black"/>
<path d="M161.703 123.184C163.576 121.311 165.45 119.457 167.323 117.583C167.419 117.794 167.514 118.023 167.61 118.233C168.546 120.279 170.706 121.311 172.866 120.776C173.65 121.502 174.51 122.133 175.046 123.089C173.516 124.656 171.987 126.204 170.458 127.772C168.336 128.9 167.132 128.728 165.431 127.007C164.188 125.727 162.946 124.446 161.703 123.184Z" fill="#FAB50D"/>
<path d="M178.605 148.34C178.643 148.359 178.681 148.359 178.738 148.359C179.579 148.474 180.268 148.856 180.669 149.64C181.07 150.443 180.994 151.322 180.841 152.144C180.745 152.679 180.287 152.947 179.732 152.947C179.121 152.966 178.509 152.966 177.878 152.966C176.12 152.966 174.361 152.947 172.602 152.947C171.972 152.641 171.704 152.144 171.761 151.437C171.78 151.169 171.742 150.921 171.742 150.653C171.742 149.889 171.761 149.124 171.761 148.359V148.379C174.055 148.359 176.33 148.34 178.605 148.34Z" fill="#DC4F58"/>
<path d="M195.234 146.105C198.024 145.703 200.07 148.532 198.865 150.998C198.024 152.757 195.903 153.445 194.182 152.547C192.385 151.591 191.831 149.526 192.882 147.653C193.303 148.896 194.087 149.947 194.698 151.094C195.061 151.744 195.654 151.954 196.247 151.686C196.839 151.4 197.011 150.884 196.763 150.119C196.992 149.603 196.877 149.125 196.61 148.647C196.151 147.825 195.711 146.965 195.234 146.105Z" fill="#DC4F58"/>
<path d="M196.797 150.138C197.046 150.883 196.874 151.419 196.281 151.705C195.689 151.992 195.096 151.782 194.733 151.113C194.121 149.966 193.338 148.914 192.917 147.672C193.013 147.538 193.089 147.404 193.185 147.271C193.662 148.112 194.159 148.953 194.637 149.794C195.23 150.826 195.899 150.941 196.797 150.138Z" fill="#DC4F58"/>
<path d="M172.869 120.757C170.709 121.311 168.529 120.26 167.612 118.215C167.516 118.004 167.421 117.794 167.325 117.565C167.956 116.685 168.663 115.882 169.619 115.328C169.256 116.59 169.619 117.565 170.594 118.425C171.397 119.151 172.123 119.973 172.869 120.757Z" fill="#DC4F58"/>
<path d="M169.617 115.329C169.655 115.291 169.675 115.253 169.713 115.195C169.675 115.234 169.655 115.291 169.617 115.329Z" fill="#DC4F58"/>
<path d="M159.352 151.839C158.224 153.081 156.484 153.311 155.07 152.432C153.636 151.552 153.063 149.813 153.674 148.264C154.267 146.754 155.911 145.837 157.478 146.143C157.669 146.181 157.841 146.238 158.033 146.276C157.516 147.098 156.828 147.787 156.198 148.513C155.758 149.029 155.586 149.545 155.873 150.195C155.529 151.074 155.949 151.782 156.867 151.82C157.708 151.839 158.53 151.82 159.352 151.839Z" fill="#DC4F58"/>
<path d="M159.355 151.839C158.533 151.839 157.711 151.839 156.87 151.801C155.971 151.762 155.532 151.055 155.876 150.176C156.239 150.558 156.679 150.673 157.214 150.673C158.189 150.654 159.144 150.673 160.119 150.692C159.947 151.112 159.775 151.552 159.355 151.839Z" fill="#DC4F58"/>
<path d="M171.737 150.654C171.412 150.654 171.087 150.635 170.763 150.635C170.571 149.89 170.571 149.144 170.763 148.399C171.087 148.379 171.432 148.379 171.756 148.36C171.756 149.125 171.737 149.89 171.737 150.654Z" fill="black"/>
<path d="M177.477 109.498C177.477 109.88 177.458 110.243 177.458 110.625C177.095 110.625 176.731 110.625 176.368 110.625H176.33C176.33 110.243 176.349 109.88 176.349 109.498C176.712 109.498 177.095 109.498 177.477 109.498Z" fill="#193457"/>
<path d="M176.341 109.498C176.341 109.88 176.322 110.243 176.322 110.625C175.959 110.625 175.577 110.625 175.213 110.625C175.213 110.243 175.194 109.88 175.194 109.498C175.577 109.498 175.959 109.498 176.341 109.498Z" fill="#D3AB82"/>
<path d="M177.88 152.965C178.415 153.309 178.797 153.749 178.568 154.437C178.339 155.125 177.784 155.24 177.134 155.24C175.854 155.221 174.554 155.221 173.273 155.24C172.585 155.259 172.011 155.087 171.82 154.38C171.629 153.692 172.05 153.252 172.604 152.946C174.363 152.946 176.121 152.965 177.88 152.965Z" fill="#FAB50D"/>
<path d="M167.034 151.361C167.053 151.476 167.053 151.571 166.938 151.648C166.9 151.533 166.938 151.437 167.034 151.361Z" fill="#12537B"/>
<path d="M142.624 70.7026C142.917 70.9348 143.287 70.8265 143.596 70.9813C143.488 71.0432 143.395 71.1361 143.287 71.1671C140.481 71.9411 138.337 73.6285 136.826 76.1054C135.715 77.9322 135.16 79.9756 135.299 82.081C135.361 83.1492 135.006 83.6136 134.189 84.0471C132.461 84.9604 131.027 86.2299 130.009 87.9173C128.529 90.3323 127.989 92.9176 128.483 95.7351C128.93 98.2894 130.133 100.41 132.03 102.098C132.631 102.624 132.754 103.104 132.554 103.801C132.014 105.829 132.199 107.841 133.248 109.621C134.79 112.238 137.057 113.786 140.188 113.863C140.095 115.55 140.003 117.222 139.895 118.91C138.137 118.879 136.379 119.049 134.62 118.678C129.593 117.594 126.123 114.653 124.18 109.9C123.44 108.089 123.162 106.185 123.301 104.234C123.332 103.739 123.208 103.352 122.869 102.949C116.7 95.5338 118.659 84.0935 126.925 79.1242C128.128 78.3966 129.377 77.8238 130.719 77.4368C131.058 77.3439 131.274 77.1581 131.444 76.8485C132.816 74.1394 134.96 72.3126 137.813 71.2909C138.46 71.0123 139.17 71.0123 139.802 70.7026C140.743 70.7026 141.684 70.7026 142.624 70.7026Z" fill="#699C3B"/>
<path d="M140.189 113.832C137.058 113.771 134.791 112.207 133.249 109.591C132.2 107.795 132 105.798 132.555 103.77C132.74 103.058 132.617 102.593 132.031 102.067C130.118 100.38 128.915 98.2588 128.484 95.7045C127.99 92.887 128.545 90.3017 130.01 87.8867C131.044 86.1993 132.462 84.9298 134.19 84.0165C135.007 83.583 135.362 83.1186 135.3 82.0504C135.177 79.945 135.716 77.9016 136.827 76.0748C138.338 73.5979 140.482 71.9105 143.289 71.1365C143.397 71.1055 143.505 71.0126 143.597 70.9507C146.311 71.5544 148.486 72.9941 150.12 75.2234C150.383 75.5794 150.645 75.7188 151.077 75.7342C156.443 75.9045 160.9 79.589 162.011 84.8524C162.643 87.8712 162.15 90.7506 160.469 93.3669C160.191 93.8158 160.206 94.079 160.515 94.497C166.606 102.717 161.995 114.653 151.971 116.604C149.426 117.099 146.913 116.867 144.476 116.031C144.461 115.737 144.43 115.458 144.414 115.164C144.414 114.994 144.445 114.839 144.43 114.668C144.337 113.461 143.782 113.089 142.625 113.461C141.854 113.74 141.037 113.863 140.189 113.832Z" fill="#82B654"/>
<path d="M140.189 113.832C141.037 113.863 141.854 113.724 142.656 113.476C143.813 113.105 144.368 113.492 144.46 114.684C144.476 114.838 144.445 115.009 144.445 115.179C144.059 115.303 143.659 115.427 143.288 115.566C142.44 115.86 142.271 116.108 142.271 117.021C142.271 122.006 142.271 126.975 142.271 131.96C141.284 131.96 140.297 131.96 139.31 131.96C139.51 127.827 139.711 123.709 139.911 119.576C139.926 119.343 139.911 119.127 139.911 118.894C140.004 117.207 140.096 115.52 140.189 113.832Z" fill="#975D52"/>
<path d="M142.255 131.945C142.255 126.96 142.255 121.991 142.255 117.006C142.255 116.092 142.425 115.845 143.273 115.551C143.658 115.411 144.044 115.287 144.429 115.164C144.445 115.458 144.476 115.736 144.491 116.03C144.614 118.925 144.738 121.82 144.877 124.715C144.985 127.115 145.108 129.514 145.216 131.929C144.229 131.945 143.242 131.945 142.255 131.945Z" fill="#B0705C"/>
<path d="M193.422 115.159H186.077C184.382 115.159 182.97 113.778 182.97 112.052V104.707C182.97 103.012 184.351 101.6 186.077 101.6H193.422C195.117 101.6 196.529 102.981 196.529 104.707V112.052C196.529 113.778 195.148 115.159 193.422 115.159Z" fill="white"/>
</g>
<path fill-rule="evenodd" clip-rule="evenodd" d="M276.227 118.364L276.212 118.406C276.184 118.48 276.15 118.575 276.085 118.761L276.077 118.781C276.022 118.937 275.939 119.173 275.851 119.408C274.115 124.032 271.982 128.425 269.502 132.585C265.564 139.257 260.711 145.338 255.169 150.664C254.674 151.155 254.163 151.621 253.775 151.973C253.581 152.159 253.417 152.306 253.339 152.376L253.328 152.386L253.303 152.408L253.25 152.461L253.057 152.636C252.662 152.995 252.11 153.496 251.525 153.977L251.519 153.982C250.509 154.837 249.359 155.809 248.144 156.753L248.131 156.762L248.119 156.772C245.043 159.142 241.755 161.365 238.253 163.339L238.244 163.343C236.213 164.485 234.043 165.639 231.771 166.683M248.293 146.145C248.734 145.744 249.176 145.343 249.577 144.943C254.634 140.091 259.049 134.558 262.621 128.504C264.869 124.736 266.796 120.766 268.361 116.597C268.421 116.436 268.481 116.266 268.542 116.096C268.602 115.925 268.662 115.755 268.722 115.594C271.732 107.295 273.378 98.3543 273.378 89.0527C273.378 85.6849 273.177 82.3973 272.776 79.1497C272.615 77.8668 272.455 76.6239 272.214 75.381C271.492 71.4118 270.488 67.5628 269.204 63.8342C258.728 33.4035 229.83 11.5527 195.835 11.5527C153.892 11.5527 119.736 44.7899 118.291 86.3264C118.251 87.2485 118.251 88.1306 118.251 89.0527C118.251 94.7059 118.853 100.239 120.057 105.611C120.137 105.952 120.218 106.303 120.298 106.654C120.378 107.004 120.458 107.355 120.539 107.696C120.584 107.92 120.641 108.132 120.697 108.339C120.741 108.501 120.784 108.66 120.82 108.819C120.9 109.119 120.99 109.43 121.081 109.741C121.171 110.051 121.261 110.362 121.341 110.663C122.064 113.149 122.907 115.594 123.87 118C123.91 118.08 123.94 118.16 123.97 118.241C124.001 118.321 124.031 118.401 124.071 118.481C124.713 120.045 125.395 121.568 126.118 123.052C127.282 125.497 128.606 127.863 130.051 130.148C131.456 132.433 133.021 134.639 134.667 136.764C134.687 136.784 134.707 136.814 134.727 136.844C134.747 136.874 134.767 136.904 134.787 136.924C136.473 139.089 138.279 141.134 140.165 143.098C140.968 143.9 141.771 144.702 142.574 145.464C144.701 147.508 146.989 149.433 149.357 151.197C150.4 151.959 151.444 152.721 152.527 153.442C153.408 154.039 154.338 154.612 155.26 155.179C155.514 155.335 155.768 155.491 156.019 155.647C156.039 155.667 156.059 155.677 156.079 155.688C156.1 155.698 156.12 155.708 156.14 155.728C158.548 157.171 161.076 158.494 163.685 159.657C166.615 160.98 169.585 162.102 172.676 163.065C172.816 163.105 172.947 163.145 173.077 163.185C173.208 163.225 173.338 163.265 173.479 163.305C180.543 165.43 188.048 166.553 195.794 166.553C196.798 166.553 197.801 166.553 198.764 166.513C201.494 166.392 204.183 166.152 206.832 165.791C209.2 165.47 211.568 165.029 213.856 164.468C218.953 163.265 223.81 161.541 228.425 159.416C230.432 158.494 232.399 157.452 234.325 156.369C237.456 154.605 240.426 152.6 243.236 150.435C244.319 149.593 245.363 148.711 246.406 147.829C246.848 147.468 247.289 147.067 247.731 146.667C247.807 146.591 247.891 146.515 247.981 146.435C248.081 146.346 248.187 146.251 248.293 146.145ZM231.769 166.684C226.72 169.008 221.371 170.912 215.727 172.246C213.158 172.875 210.525 173.364 207.912 173.718C205.016 174.112 202.084 174.374 199.117 174.505L199.107 174.505L199.097 174.506C197.966 174.553 196.821 174.553 195.865 174.553H195.794C187.292 174.553 179.026 173.323 171.223 170.981C171.027 170.924 170.854 170.871 170.742 170.837L170.727 170.832C170.587 170.789 170.531 170.772 170.48 170.757L170.389 170.731L170.298 170.703C166.911 169.649 163.641 168.414 160.41 166.956C157.504 165.66 154.697 164.19 152.027 162.589L151.182 162.083L151.131 162.032C150.209 161.464 149.096 160.779 148.067 160.083C146.849 159.271 145.697 158.43 144.696 157.7L144.608 157.636L144.577 157.613C141.964 155.665 139.425 153.532 137.048 151.249C136.177 150.421 135.319 149.565 134.544 148.79L134.453 148.699L134.395 148.639C132.388 146.549 130.424 144.332 128.563 141.952C128.447 141.809 128.354 141.685 128.289 141.596C128.282 141.586 128.276 141.577 128.269 141.568C126.525 139.311 124.822 136.913 123.263 134.381C121.682 131.879 120.214 129.259 118.91 126.522C118.142 124.944 117.418 123.33 116.736 121.68C116.684 121.563 116.641 121.46 116.606 121.375C116.597 121.351 116.587 121.328 116.578 121.305L116.567 121.283L116.443 120.974C115.383 118.326 114.455 115.633 113.659 112.896L113.635 112.811L113.612 112.726C113.559 112.525 113.494 112.301 113.398 111.973L113.39 111.943C113.305 111.652 113.194 111.269 113.09 110.882L113.047 110.72L113.017 110.586C113.017 110.583 113.016 110.581 113.015 110.577C113.006 110.543 112.999 110.516 112.984 110.462C112.977 110.436 112.968 110.404 112.957 110.362L112.956 110.36C112.908 110.181 112.815 109.838 112.727 109.426C112.65 109.095 112.573 108.761 112.503 108.451L112.499 108.438C112.418 108.083 112.344 107.757 112.27 107.445L112.26 107.403L112.251 107.361C110.914 101.397 110.251 95.2765 110.251 89.0527L110.251 88.9897C110.251 88.1161 110.251 87.0984 110.297 86.0145C111.909 40.1952 149.585 3.55273 195.835 3.55273C233.344 3.55273 265.214 27.6655 276.768 61.2302C278.182 65.3361 279.284 69.5627 280.077 73.9053C280.37 75.4275 280.557 76.8999 280.714 78.1564L280.715 78.1685C281.158 81.749 281.378 85.3645 281.378 89.0527C281.378 99.3038 279.563 109.167 276.243 118.322L276.227 118.364M152.468 162.826C152.48 162.832 152.491 162.838 152.498 162.841L152.49 162.837L152.468 162.826Z" fill="#212121"/>
<path d="M150.265 62.7742L172.518 49.0266C174.056 48.0535 176.065 49.1835 176.065 51.004V62.7742L198.538 48.9952C200.076 48.0535 202.085 49.1521 202.085 50.9726V62.7742H150.265Z" fill="#786E7A"/>
<path d="M216.431 115.159H209.087C207.392 115.159 205.979 113.778 205.979 112.052V104.707C205.979 103.012 207.361 101.6 209.087 101.6H216.431C218.126 101.6 219.539 102.981 219.539 104.707V112.052C219.507 113.778 218.126 115.159 216.431 115.159Z" fill="white"/>
<path d="M174.191 85.106C174.191 85.4199 174.191 85.7024 174.191 85.9849C174.191 86.1104 174.191 86.2046 174.065 86.236C173.94 86.2988 173.877 86.2046 173.783 86.1104C173.029 85.2944 172.276 84.4469 171.523 83.6308C171.397 83.4739 171.397 83.4111 171.523 83.2542C172.276 82.4381 173.029 81.5907 173.783 80.7746C173.846 80.7118 173.971 80.649 174.034 80.6804C174.097 80.7118 174.159 80.8374 174.159 80.9315C174.159 81.214 174.159 81.4965 174.159 81.779C174.222 81.779 174.285 81.779 174.348 81.779C175.195 81.779 176.074 81.779 176.922 81.779C177.643 81.779 178.365 81.6848 179.056 81.4337C179.15 81.4023 179.244 81.3709 179.338 81.3082C179.872 81.0571 179.997 80.7746 179.903 80.1782C180.311 80.7746 180.594 81.3709 180.343 82.1242C180.311 82.2498 180.249 82.3753 180.154 82.5009C179.903 82.9403 179.652 83.4111 179.37 83.8505C178.899 84.6666 178.208 85.0433 177.267 85.0747C176.294 85.0747 175.321 85.0747 174.348 85.0747C174.348 85.106 174.285 85.106 174.191 85.106Z" fill="#212121"/>
<path d="M167.287 85.0438C166.973 85.0124 166.628 85.0438 166.314 84.981C165.812 84.8869 165.435 84.6044 165.184 84.165C164.901 83.6628 164.619 83.192 164.336 82.6898C163.897 81.9365 163.928 81.1518 164.336 80.3671C164.839 79.4883 165.341 78.6408 165.843 77.762C165.874 77.6992 165.906 77.6678 165.937 77.605C165.686 77.4481 165.435 77.3225 165.215 77.1656C165.121 77.1028 164.996 77.0714 165.027 76.9145C165.058 76.7889 165.153 76.7576 165.278 76.7262C166.377 76.4751 167.444 76.2554 168.542 76.0043C168.731 75.9729 168.793 76.0043 168.856 76.1926C169.202 77.2598 169.547 78.3269 169.861 79.3941C169.892 79.4883 169.861 79.6138 169.829 79.6766C169.735 79.7707 169.641 79.708 169.547 79.6452C169.296 79.5196 169.076 79.3627 168.825 79.2058C168.793 79.2685 168.762 79.2999 168.731 79.3627C168.291 80.116 167.852 80.8693 167.412 81.654C167.036 82.3131 166.753 83.0036 166.659 83.7569C166.628 83.9766 166.628 84.1964 166.691 84.3847C166.753 84.7299 167.004 84.9183 167.35 84.981C167.287 85.0124 167.287 85.0124 167.287 85.0438Z" fill="#212121"/>
<path d="M173.75 75.8461C173.06 74.7475 172.432 73.649 171.741 72.6132C171.522 72.2679 171.176 72.0168 170.894 71.7343C170.831 71.6716 170.768 71.6402 170.706 71.6088C170.329 71.3891 169.952 71.2321 169.481 71.703C169.795 71.0124 170.235 70.4475 171.019 70.3219C171.145 70.2905 171.302 70.2905 171.427 70.2905C171.93 70.2905 172.432 70.2905 172.934 70.2905C173.813 70.2905 174.503 70.6672 174.943 71.4519C175.445 72.3307 175.947 73.2096 176.449 74.057C176.481 74.1198 176.512 74.1512 176.544 74.2139C176.795 74.057 177.046 73.9315 177.266 73.8059C177.36 73.7431 177.454 73.6804 177.579 73.7745C177.705 73.8687 177.642 73.9629 177.611 74.0884C177.266 75.1556 176.952 76.1914 176.606 77.2585C176.544 77.4782 176.481 77.5096 176.261 77.4468C175.163 77.1957 174.095 76.976 172.997 76.7249C172.903 76.6936 172.777 76.6308 172.777 76.5366C172.777 76.4738 172.871 76.3483 172.934 76.3169C173.217 76.16 173.468 76.003 173.75 75.8461Z" fill="#212121"/>
<path d="M167.851 74.5283C167.882 74.4342 167.913 74.4028 167.945 74.34C168.353 73.6495 168.729 72.9589 169.137 72.2998C169.514 71.6407 169.985 71.5465 170.613 71.9546C171.24 72.394 171.68 72.9903 172.088 73.6181C172.119 73.6495 172.088 73.7436 172.088 73.775C171.68 74.5283 171.24 75.2502 170.801 76.0035C170.707 76.1605 170.613 76.1918 170.456 76.0977C169.64 75.6269 168.855 75.1561 168.039 74.6853C167.945 74.6539 167.882 74.5597 167.851 74.5283Z" fill="#212121"/>
<path d="M179.809 80.1458C179.809 80.5539 179.621 80.7736 179.37 80.9305C178.93 81.213 178.459 81.3072 177.957 81.4013C177.643 81.4641 177.329 81.4641 177.015 81.4955C176.953 81.4955 176.859 81.4641 176.827 81.4013C176.388 80.648 175.948 79.9261 175.54 79.1728C175.446 79.0473 175.477 78.9217 175.634 78.859C176.451 78.3881 177.267 77.9173 178.083 77.4465C178.208 77.3524 178.334 77.3837 178.397 77.5407C178.805 78.2626 179.244 78.9845 179.652 79.7378C179.715 79.8633 179.778 80.0517 179.809 80.1458Z" fill="#212121"/>
<path d="M170.645 83.3794C170.645 83.8188 170.645 84.2896 170.645 84.729C170.645 84.9487 170.582 85.0115 170.362 85.0115C169.546 85.0115 168.73 85.0115 167.945 85.0115C167.192 85.0115 166.91 84.5721 166.972 83.9129C167.035 83.1596 167.349 82.4691 167.663 81.81C167.694 81.7786 167.757 81.7158 167.82 81.7158C168.667 81.7158 169.546 81.7158 170.394 81.7158C170.55 81.7158 170.613 81.7786 170.613 81.9669C170.645 82.4377 170.645 82.9085 170.645 83.3794Z" fill="#212121"/>
<path d="M268.751 112.553L260.251 129.553L256.636 52.9502H266.115L268.751 112.553Z" fill="#6A6069"/>
<path d="M256.099 40.834H235.038L235.509 30.947C235.509 30.947 235.634 26.5527 239.432 26.5527H250.198C250.355 26.5527 250.418 26.5527 250.418 26.5527H255.503L256.099 40.834Z" fill="#786E7A"/>
<path d="M266.115 52.9495H256.636L256.103 40.834H265.55L266.115 52.9495Z" fill="#F3F1EB"/>
<path d="M265.551 40.834H256.103L255.476 26.5527H261.157C264.955 26.5527 265.08 30.947 265.08 30.947L265.551 40.834Z" fill="#6A6069"/>
</svg>
