<svg width="285" height="344" viewBox="0 0 285 344" fill="none" xmlns="http://www.w3.org/2000/svg">
<rect x="1.5" y="1.5" width="282" height="340.173" rx="30.5" stroke="#212121" stroke-width="3"/>
<path d="M154.877 105.485C154.877 112.609 153.617 119.457 151.313 125.813C151.221 126.059 151.128 126.335 151.036 126.581C149.838 129.774 148.363 132.814 146.643 135.701C143.908 140.338 140.528 144.575 136.657 148.291C136.35 148.598 136.012 148.905 135.674 149.212C135.52 149.366 135.366 149.489 135.244 149.611C134.906 149.919 134.568 150.226 134.23 150.502C133.431 151.178 132.632 151.853 131.802 152.498C129.652 154.156 127.378 155.692 124.981 157.043C123.507 157.872 122.001 158.67 120.465 159.376C116.932 161.004 113.214 162.324 109.312 163.246C107.56 163.676 105.748 164.013 103.935 164.259C101.907 164.535 99.8485 164.72 97.7592 164.812C97.0218 164.842 96.2537 164.842 95.4855 164.842C89.5556 164.842 83.8101 163.983 78.4025 162.355C78.1874 162.294 78.0031 162.232 77.788 162.171C75.4222 161.434 73.1485 160.574 70.9056 159.561C68.9085 158.67 66.9728 157.657 65.1293 156.551C65.0986 156.521 65.0679 156.521 65.0371 156.49C64.1461 155.937 63.2244 155.385 62.3641 154.801C61.5345 154.248 60.7357 153.665 59.9368 153.081C58.124 151.73 56.3727 150.256 54.7443 148.69C54.1298 148.107 53.5153 147.493 52.9008 146.879C51.4567 145.374 50.0741 143.808 48.7837 142.15C48.7529 142.119 48.7222 142.057 48.6915 142.027C47.4318 140.399 46.2335 138.71 45.1581 136.96C44.052 135.21 43.0381 133.398 42.1471 131.525C41.594 130.389 41.0717 129.222 40.5801 128.024C40.5187 127.901 40.4879 127.778 40.4265 127.656C39.6891 125.813 39.0439 123.94 38.4908 122.036C38.3679 121.575 38.2143 121.084 38.0914 120.624C38.0299 120.347 37.9378 120.071 37.8763 119.764C37.7534 119.242 37.6305 118.689 37.5076 118.167C36.5859 114.052 36.125 109.814 36.125 105.485C36.125 104.778 36.125 104.103 36.1557 103.397C37.2618 71.5835 63.4087 46.127 95.5163 46.127C121.54 46.127 143.662 62.8626 151.681 86.1696C152.665 89.0254 153.433 91.9734 153.986 95.0134C154.17 95.9654 154.293 96.9173 154.416 97.8999C154.723 100.387 154.877 102.905 154.877 105.485Z" fill="#B9E2F3"/>
<path fill-rule="evenodd" clip-rule="evenodd" d="M157.057 127.935L157.045 127.967C157.024 128.024 156.998 128.096 156.948 128.238L156.942 128.254C156.9 128.374 156.836 128.554 156.769 128.735C155.44 132.276 153.807 135.641 151.909 138.827C148.894 143.937 145.18 148.594 140.937 152.673C140.557 153.05 140.166 153.406 139.869 153.676C139.721 153.819 139.596 153.931 139.536 153.985L139.527 153.992L139.508 154.009L139.468 154.05L139.32 154.184C139.017 154.459 138.595 154.843 138.147 155.211L138.143 155.215C137.369 155.869 136.489 156.614 135.559 157.337L135.549 157.344L135.54 157.352C133.185 159.167 130.668 160.87 127.987 162.381L127.981 162.385C126.426 163.259 124.764 164.143 123.025 164.943M135.673 149.213C136.011 148.906 136.349 148.598 136.656 148.291C140.527 144.576 143.907 140.338 146.642 135.701C148.362 132.815 149.837 129.775 151.035 126.581C151.081 126.458 151.127 126.328 151.174 126.197C151.22 126.067 151.266 125.936 151.312 125.813C153.616 119.457 154.876 112.609 154.876 105.485C154.876 102.906 154.722 100.388 154.415 97.9002C154.292 96.9176 154.169 95.9657 153.985 95.0137C153.432 91.9737 152.664 89.0257 151.681 86.1699C143.661 62.8629 121.539 46.1273 95.5154 46.1273C63.4078 46.1273 37.2609 71.5838 36.1548 103.397C36.1241 104.103 36.1241 104.779 36.1241 105.485C36.1241 109.815 36.585 114.052 37.5067 118.167C37.5682 118.428 37.6296 118.697 37.6911 118.966C37.7525 119.234 37.814 119.503 37.8754 119.764C37.9098 119.936 37.9538 120.098 37.9967 120.256C38.0304 120.38 38.0634 120.502 38.0905 120.624C38.152 120.854 38.2211 121.092 38.2902 121.33C38.3593 121.568 38.4285 121.806 38.4899 122.036C39.043 123.94 39.6882 125.813 40.4256 127.656C40.4563 127.717 40.4794 127.779 40.5024 127.84C40.5255 127.902 40.5485 127.963 40.5792 128.024C41.0708 129.222 41.5931 130.389 42.1462 131.525C43.0372 133.398 44.0511 135.21 45.1572 136.96C46.2326 138.711 47.4309 140.4 48.6906 142.027C48.706 142.042 48.7213 142.065 48.7367 142.088C48.7521 142.111 48.7674 142.134 48.7828 142.15C50.0732 143.808 51.4558 145.374 52.8999 146.879C53.5144 147.493 54.1289 148.107 54.7434 148.691C56.3718 150.257 58.1231 151.731 59.9359 153.082C60.7346 153.665 61.5338 154.249 62.3632 154.801C63.0374 155.259 63.7494 155.697 64.4547 156.131C64.6494 156.251 64.8435 156.371 65.0363 156.49C65.0516 156.506 65.067 156.513 65.0823 156.521C65.0977 156.529 65.1131 156.536 65.1284 156.552C66.9719 157.657 68.9076 158.671 70.9047 159.561C73.1476 160.574 75.4213 161.434 77.7871 162.171C77.8946 162.202 77.9945 162.233 78.0943 162.263C78.1942 162.294 78.2941 162.325 78.4016 162.355C83.8092 163.983 89.5547 164.843 95.4846 164.843C96.2528 164.843 97.0209 164.843 97.7583 164.812C99.8476 164.72 101.906 164.536 103.934 164.259C105.747 164.014 107.56 163.676 109.311 163.246C113.213 162.325 116.931 161.004 120.464 159.377C122 158.671 123.506 157.872 124.981 157.043C127.377 155.692 129.651 154.157 131.801 152.498C132.631 151.853 133.43 151.178 134.229 150.502C134.567 150.226 134.905 149.919 135.243 149.612C135.301 149.554 135.366 149.496 135.434 149.435C135.511 149.366 135.592 149.294 135.673 149.213ZM123.024 164.943C119.159 166.723 115.064 168.181 110.744 169.203C108.777 169.685 106.761 170.059 104.761 170.331C102.544 170.633 100.299 170.833 98.0279 170.933L98.0204 170.934L98.013 170.934C97.1471 170.97 96.2708 170.97 95.5383 170.97H95.4846C88.9756 170.97 82.6482 170.028 76.6747 168.234C76.5247 168.191 76.3922 168.15 76.3067 168.124L76.295 168.12C76.1883 168.087 76.1455 168.074 76.1063 168.063L76.0362 168.043L75.9665 168.021C73.3741 167.214 70.8707 166.268 68.3977 165.151C66.1732 164.159 64.0237 163.033 61.9801 161.807L61.3336 161.42L61.294 161.38C60.5881 160.946 59.736 160.421 58.9486 159.888C58.0161 159.266 57.1345 158.622 56.3682 158.062L56.3011 158.013L56.2773 157.995C54.2765 156.504 52.3331 154.87 50.5136 153.122C49.8465 152.488 49.1901 151.832 48.5966 151.239L48.5267 151.169L48.4825 151.123C46.946 149.522 45.4424 147.824 44.0181 146.001C43.9291 145.891 43.8583 145.796 43.8086 145.728C43.8033 145.721 43.7981 145.714 43.793 145.707C42.4583 143.978 41.154 142.142 39.9605 140.202C38.7509 138.286 37.6267 136.279 36.6284 134.183C36.0406 132.974 35.4861 131.738 34.9645 130.474C34.9248 130.385 34.8917 130.306 34.865 130.241C34.8577 130.222 34.8506 130.205 34.8437 130.188L34.8351 130.17L34.7404 129.934C33.9286 127.905 33.2181 125.843 32.6092 123.746L32.5904 123.682L32.573 123.617C32.532 123.463 32.4823 123.291 32.4094 123.04L32.4026 123.017C32.3379 122.794 32.2526 122.5 32.1736 122.204L32.1404 122.08L32.1176 121.977C32.1171 121.975 32.1166 121.973 32.116 121.971C32.109 121.945 32.1033 121.924 32.0923 121.883C32.0868 121.863 32.0802 121.838 32.0714 121.806L32.071 121.804C32.0341 121.668 31.9629 121.404 31.8958 121.089C31.8363 120.836 31.7779 120.58 31.7236 120.342L31.7213 120.332C31.659 120.06 31.6019 119.811 31.5458 119.572L31.5381 119.54L31.5309 119.507C30.5076 114.939 30 110.252 30 105.485L30 105.437C30 104.768 30 103.988 30.0353 103.158C31.2692 68.0647 60.1104 40 95.5154 40C124.229 40 148.626 58.4681 157.471 84.1755C158.554 87.3203 159.397 90.5575 160.004 93.8835C160.228 95.0494 160.371 96.1771 160.492 97.1394L160.493 97.1487C160.832 99.891 161 102.66 161 105.485C161 113.336 159.611 120.89 157.069 127.903L157.057 127.935M62.3177 161.988C62.3269 161.993 62.3353 161.997 62.3407 162L62.3346 161.997L62.3177 161.988Z" fill="#212121"/>
<path d="M117.624 85.3574L115.101 138.413H62.1686C61.3277 138.413 60.6309 137.716 60.6309 136.875V85.3574H117.624Z" fill="#A8EC6C"/>
<path d="M60.6309 85.3572L77.6663 74.8278C78.8437 74.0825 80.3814 74.948 80.3814 76.3423V85.3572L97.5851 74.8037C98.7624 74.0825 100.3 74.9239 100.3 76.3182V85.3572H60.6309Z" fill="#786E7A"/>
<path d="M93.6691 125.479H88.0467C86.7492 125.479 85.668 124.422 85.668 123.099V117.474C85.668 116.176 86.7252 115.094 88.0467 115.094H93.6691C94.9666 115.094 96.0478 116.152 96.0478 117.474V123.099C96.0478 124.422 94.9906 125.479 93.6691 125.479Z" fill="#786E7A"/>
<path d="M111.282 125.479H105.66C104.362 125.479 103.281 124.422 103.281 123.099V117.474C103.281 116.176 104.338 115.094 105.66 115.094H111.282C112.58 115.094 113.661 116.152 113.661 117.474V123.099C113.637 124.422 112.58 125.479 111.282 125.479Z" fill="#786E7A"/>
<path d="M129.058 85.3574V138.413H115.098L117.621 85.3574H129.058Z" fill="#9BDD61"/>
<mask id="mask0_257_11276" style="mask-type:alpha" maskUnits="userSpaceOnUse" x="36" y="46" width="119" height="119">
<path d="M154.875 105.485C154.875 112.609 153.615 119.457 151.311 125.813C151.219 126.059 151.126 126.335 151.034 126.581C149.836 129.774 148.361 132.814 146.641 135.701C143.906 140.338 140.526 144.575 136.655 148.291C136.348 148.598 136.01 148.905 135.672 149.212C135.518 149.366 135.365 149.489 135.242 149.611C134.904 149.919 134.566 150.226 134.228 150.502C133.429 151.178 132.63 151.853 131.8 152.498C129.65 154.156 127.376 155.692 124.979 157.043C123.505 157.872 121.999 158.67 120.463 159.376C116.93 161.004 113.212 162.324 109.31 163.246C107.558 163.676 105.746 164.013 103.933 164.259C101.905 164.535 99.8465 164.72 97.7572 164.812C97.0198 164.842 96.2517 164.842 95.4836 164.842C89.5537 164.842 83.8081 163.983 78.4005 162.355C78.1855 162.294 78.0011 162.232 77.786 162.171C75.4202 161.434 73.1466 160.574 70.9036 159.561C68.9065 158.67 66.9709 157.657 65.1274 156.551C65.0966 156.521 65.0659 156.521 65.0352 156.49C64.1442 155.937 63.2224 155.385 62.3621 154.801C61.5325 154.248 60.7337 153.665 59.9349 153.081C58.1221 151.73 56.3708 150.256 54.7423 148.69C54.1278 148.107 53.5133 147.493 52.8988 146.879C51.4548 145.374 50.0722 143.808 48.7817 142.15C48.751 142.119 48.7203 142.057 48.6895 142.027C47.4298 140.399 46.2315 138.71 45.1562 136.96C44.0501 135.21 43.0362 133.398 42.1451 131.525C41.5921 130.389 41.0698 129.222 40.5782 128.024C40.5167 127.901 40.486 127.778 40.4245 127.656C39.6871 125.813 39.0419 123.94 38.4889 122.036C38.366 121.575 38.2123 121.084 38.0894 120.624C38.028 120.347 37.9358 120.071 37.8744 119.764C37.7515 119.242 37.6286 118.689 37.5057 118.167C36.5839 114.052 36.123 109.814 36.123 105.485C36.123 104.778 36.123 104.103 36.1538 103.397C37.2599 71.5835 63.4068 46.127 95.5143 46.127C121.538 46.127 143.66 62.8626 151.679 86.1696C152.663 89.0254 153.431 91.9734 153.984 95.0134C154.168 95.9654 154.291 96.9173 154.414 97.8999C154.721 100.387 154.875 102.905 154.875 105.485Z" fill="#6EB7E6"/>
</mask>
<g mask="url(#mask0_257_11276)">
<rect x="38.4199" y="128.08" width="109.468" height="39.0612" fill="#8AA6B2"/>
<path d="M141.648 68.5538H125.525L125.886 60.9813C125.886 60.9813 125.982 57.6157 128.889 57.6157H137.131C137.251 57.6157 137.299 57.6157 137.299 57.6157H141.191L141.648 68.5538Z" fill="#786E7A"/>
<path d="M144.68 138.631H122.238L125.098 77.834H142.061L144.68 138.631Z" fill="#786E7A"/>
<path d="M142.057 77.8331H125.094L125.526 68.5537H141.649L142.057 77.8331Z" fill="white"/>
<path d="M148.883 68.5538H141.65L141.17 57.6157H145.519C148.426 57.6157 148.522 60.9813 148.522 60.9813L148.883 68.5538Z" fill="#6A6069"/>
<path d="M149.315 77.8331H142.059L141.65 68.5537H148.883L149.315 77.8331Z" fill="#F3F1EB"/>
<path d="M152.174 138.631H144.678L142.059 77.834H149.315L152.174 138.631Z" fill="#6A6069"/>
</g>
<path d="M151.716 124.25L144.678 138.631L142.059 77.834H149.315L151.716 124.25Z" fill="#6A6069"/>
<path d="M78.9464 102.463C78.9464 102.703 78.9464 102.919 78.9464 103.136C78.9464 103.232 78.9464 103.304 78.8503 103.328C78.7542 103.376 78.7062 103.304 78.6341 103.232C78.0574 102.607 77.4808 101.958 76.9041 101.333C76.808 101.213 76.808 101.165 76.9041 101.044C77.4808 100.419 78.0574 99.7703 78.6341 99.1452C78.6821 99.0972 78.7783 99.0491 78.8263 99.0731C78.8744 99.0972 78.9224 99.1933 78.9224 99.2654C78.9224 99.4818 78.9224 99.6981 78.9224 99.9145C78.9705 99.9145 79.0185 99.9145 79.0666 99.9145C79.7153 99.9145 80.3881 99.9145 81.0368 99.9145C81.5895 99.9145 82.1421 99.8424 82.6707 99.6501C82.7428 99.626 82.8149 99.602 82.8869 99.5539C83.2954 99.3616 83.3915 99.1452 83.3194 98.6885C83.6318 99.1452 83.848 99.602 83.6558 100.179C83.6318 100.275 83.5837 100.371 83.5117 100.467C83.3194 100.804 83.1272 101.165 82.911 101.501C82.5506 102.126 82.022 102.415 81.3011 102.439C80.5563 102.439 79.8114 102.439 79.0666 102.439C79.0666 102.463 79.0185 102.463 78.9464 102.463Z" fill="#212121"/>
<path d="M73.6621 102.415C73.4218 102.391 73.1575 102.415 72.9172 102.367C72.5328 102.295 72.2445 102.078 72.0523 101.742C71.836 101.357 71.6198 100.997 71.4035 100.612C71.0671 100.035 71.0912 99.434 71.4035 98.8331C71.788 98.1599 72.1724 97.5109 72.5568 96.8377C72.5809 96.7897 72.6049 96.7656 72.6289 96.7176C72.4367 96.5974 72.2445 96.5012 72.0763 96.381C72.0042 96.3329 71.9081 96.3089 71.9321 96.1887C71.9561 96.0925 72.0282 96.0685 72.1243 96.0444C72.9653 95.8521 73.7822 95.6838 74.6232 95.4915C74.7674 95.4675 74.8154 95.4915 74.8635 95.6358C75.1278 96.4531 75.3921 97.2705 75.6324 98.0878C75.6564 98.1599 75.6324 98.2561 75.6083 98.3042C75.5362 98.3763 75.4642 98.3282 75.3921 98.2801C75.1999 98.184 75.0317 98.0638 74.8394 97.9436C74.8154 97.9917 74.7914 98.0157 74.7674 98.0638C74.431 98.6407 74.0946 99.2177 73.7582 99.8187C73.4699 100.324 73.2536 100.852 73.1815 101.429C73.1575 101.598 73.1575 101.766 73.2056 101.91C73.2536 102.175 73.4459 102.319 73.7102 102.367C73.6621 102.391 73.6621 102.391 73.6621 102.415Z" fill="#212121"/>
<path d="M78.6095 95.3703C78.0809 94.5289 77.6004 93.6875 77.0718 92.8942C76.9036 92.6297 76.6393 92.4374 76.423 92.2211C76.375 92.173 76.3269 92.1489 76.2789 92.1249C75.9905 91.9566 75.7022 91.8364 75.3418 92.197C75.5821 91.6681 75.9185 91.2354 76.5191 91.1393C76.6153 91.1152 76.7354 91.1152 76.8315 91.1152C77.2159 91.1152 77.6004 91.1152 77.9848 91.1152C78.6576 91.1152 79.1862 91.4037 79.5226 92.0047C79.907 92.6778 80.2915 93.3509 80.6759 94C80.6999 94.0481 80.7239 94.0721 80.748 94.1202C80.9402 94 81.1324 93.9038 81.3006 93.8077C81.3727 93.7596 81.4448 93.7115 81.5409 93.7837C81.637 93.8558 81.5889 93.9279 81.5649 94.0241C81.3006 94.8414 81.0603 95.6347 80.796 96.4521C80.748 96.6203 80.6999 96.6444 80.5317 96.5963C79.6908 96.404 78.8738 96.2357 78.0329 96.0434C77.9608 96.0194 77.8647 95.9713 77.8647 95.8992C77.8647 95.8511 77.9368 95.7549 77.9848 95.7309C78.2011 95.6107 78.3933 95.4905 78.6095 95.3703Z" fill="#212121"/>
<path d="M74.0938 94.3603C74.1178 94.2881 74.1418 94.2641 74.1658 94.216C74.4782 93.6871 74.7665 93.1583 75.0789 92.6534C75.3672 92.1486 75.7276 92.0765 76.2082 92.389C76.6887 92.7256 77.0251 93.1823 77.3375 93.6631C77.3615 93.6871 77.3375 93.7593 77.3375 93.7833C77.0251 94.3603 76.6887 94.9132 76.3523 95.4901C76.2802 95.6103 76.2082 95.6344 76.088 95.5622C75.4633 95.2016 74.8626 94.8411 74.2379 94.4805C74.1658 94.4564 74.1178 94.3843 74.0938 94.3603Z" fill="#212121"/>
<path d="M83.2477 98.6632C83.2477 98.9757 83.1036 99.144 82.9113 99.2642C82.575 99.4805 82.2146 99.5526 81.8301 99.6248C81.5898 99.6728 81.3496 99.6728 81.1093 99.6969C81.0612 99.6969 80.9892 99.6728 80.9651 99.6248C80.6287 99.0478 80.2924 98.4949 79.98 97.9179C79.9079 97.8218 79.9319 97.7256 80.0521 97.6775C80.6768 97.3169 81.3015 96.9563 81.9262 96.5957C82.0223 96.5236 82.1184 96.5477 82.1665 96.6679C82.4789 97.2208 82.8152 97.7737 83.1276 98.3506C83.1757 98.4468 83.2237 98.591 83.2477 98.6632Z" fill="#212121"/>
<path d="M76.2318 101.14C76.2318 101.476 76.2318 101.837 76.2318 102.174C76.2318 102.342 76.1837 102.39 76.0155 102.39C75.3908 102.39 74.7661 102.39 74.1654 102.39C73.5887 102.39 73.3725 102.053 73.4205 101.549C73.4686 100.972 73.7089 100.443 73.9491 99.9378C73.9732 99.9138 74.0212 99.8657 74.0693 99.8657C74.718 99.8657 75.3908 99.8657 76.0395 99.8657C76.1597 99.8657 76.2077 99.9138 76.2077 100.058C76.2318 100.419 76.2318 100.779 76.2318 101.14Z" fill="#212121"/>
<path d="M76.0806 125.479H70.4822C69.1848 125.479 68.1035 124.422 68.1035 123.099V117.474C68.1035 116.176 69.1607 115.094 70.4822 115.094H76.1047C77.4021 115.094 78.4834 116.152 78.4834 117.474V123.099C78.4593 124.422 77.4021 125.479 76.0806 125.479Z" fill="#786E7A"/>
<path d="M109.721 161.969H77.8282C75.4624 161.232 73.1887 160.372 70.9458 159.359C68.9487 158.468 67.013 157.455 65.1695 156.35C65.1388 156.319 65.1081 156.319 65.0774 156.288C64.1863 155.735 63.2646 155.183 62.4043 154.599V134.762L63.8484 131.691L64.893 129.48L65.2003 128.836L68.242 122.356L68.58 121.681L71.2223 116.031L71.2838 115.877L72.6971 112.837L75.4009 107.033L77.4595 110.319L79.4873 113.574L83.1743 119.439L85.0486 122.448L98.7519 144.404L100.38 147.014L101.732 149.164L107.57 158.53L109.721 161.969Z" fill="#B06C6C"/>
<path d="M65.1696 122.355V156.349C65.1389 156.318 65.1082 156.318 65.0774 156.287C64.1864 155.735 63.2647 155.182 62.4044 154.598C61.5748 154.046 60.776 153.462 59.9771 152.879C58.1643 151.528 56.413 150.054 54.7846 148.488C54.1701 147.904 53.5556 147.29 52.9411 146.676C51.497 145.171 50.1144 143.605 48.824 141.947C48.7932 141.916 48.7625 141.855 48.7318 141.824C47.4721 140.197 46.2738 138.508 45.1984 136.757C44.0923 135.007 43.0784 133.195 42.1874 131.322C41.6343 130.186 41.112 129.019 40.6204 127.821C40.559 127.699 40.5282 127.576 40.4668 127.453L40.4975 127.422C41.1427 126.839 41.9416 126.317 42.8941 125.917C44.461 125.273 46.4582 124.966 49.039 125.273C49.1312 125.273 49.2234 125.303 49.3463 125.303C50.5753 125.457 51.9272 125.764 53.402 126.225L53.6171 126.04L55.86 124.106L59.8235 120.667L61.1447 122.325H65.1696V122.355Z" fill="#748D97"/>
<path d="M77.5822 122.356H61.0829L59.7617 120.698L62.4655 118.364L63.3565 111.731C63.3565 111.731 69.1021 100.707 80.9005 106.265C72.2975 113.359 77.5822 122.356 77.5822 122.356Z" fill="#748D97"/>
<path d="M78.7484 161.969C78.6562 162.03 78.564 162.092 78.4411 162.153C78.2261 162.092 78.0417 162.03 77.8266 161.969C75.4608 161.232 73.1872 160.372 70.9443 159.359C68.9471 158.468 67.0115 157.455 65.168 156.349V122.356H77.5808C77.5808 122.356 77.5501 122.295 77.4887 122.172C77.4579 122.11 77.4272 122.08 77.3965 121.987C77.3043 121.803 77.1814 121.558 77.0585 121.251C76.9971 121.128 76.9356 120.974 76.8742 120.821C76.7513 120.514 76.6284 120.176 76.5362 119.807C76.5055 119.684 76.4747 119.562 76.4133 119.408C76.3826 119.347 76.3826 119.285 76.3518 119.193C76.2904 118.917 76.2289 118.64 76.1675 118.333C76.1368 118.241 76.1368 118.149 76.1368 118.057C76.1368 117.965 76.106 117.903 76.106 117.811C76.0753 117.658 76.0753 117.473 76.0446 117.289C76.0446 117.197 76.0139 117.136 76.0139 117.044C75.9831 116.706 75.9524 116.368 75.9524 116.03V115.969C75.9524 115.815 75.9524 115.662 75.9524 115.508C75.9524 115.416 75.9524 115.324 75.9831 115.232C75.9831 115.201 75.9831 115.17 75.9831 115.17C76.1368 115.293 76.2904 115.416 76.444 115.57C76.4747 115.6 76.5055 115.6 76.5055 115.631C76.5055 115.631 76.5055 115.631 76.5362 115.631C76.5669 115.662 76.6284 115.692 76.6591 115.723C76.7205 115.785 76.8127 115.846 76.9049 115.938C76.9356 115.969 76.9663 116 77.0278 116.03C77.0892 116.092 77.1507 116.153 77.2121 116.214C77.2429 116.245 77.3043 116.276 77.335 116.337C77.3965 116.368 77.4272 116.429 77.4887 116.46C77.5501 116.491 77.5808 116.552 77.6423 116.583C77.7037 116.614 77.7652 116.675 77.7959 116.736C77.8881 116.829 77.9803 116.89 78.0724 116.982C78.1953 117.074 78.2875 117.197 78.4104 117.32C78.4411 117.351 78.4411 117.351 78.4719 117.381C78.5333 117.443 78.564 117.473 78.6255 117.535C78.6562 117.596 78.7177 117.627 78.7484 117.688C78.8406 117.781 78.902 117.842 78.9942 117.934C79.0249 117.965 79.0249 117.965 79.0556 117.996C79.1478 118.088 79.24 118.18 79.3014 118.272C79.4243 118.425 79.5472 118.548 79.6701 118.702C79.7623 118.825 79.8545 118.917 79.9467 119.04C79.9774 119.07 80.0081 119.101 80.0081 119.132C80.1003 119.255 80.2232 119.377 80.3154 119.5C80.4383 119.654 80.5611 119.807 80.684 119.961C80.7148 120.022 80.7455 120.053 80.8069 120.114C80.8377 120.145 80.8684 120.176 80.8991 120.237L80.9298 120.268C80.9606 120.299 80.9606 120.329 80.9913 120.36C81.022 120.391 81.0527 120.421 81.0527 120.452C81.1142 120.514 81.1449 120.544 81.1756 120.606C81.1756 120.636 81.2064 120.636 81.2064 120.667C81.36 120.882 81.5136 121.066 81.6672 121.281C81.698 121.312 81.7287 121.343 81.7287 121.373C81.8209 121.496 81.913 121.619 82.0052 121.773C82.0359 121.803 82.0667 121.834 82.0974 121.895C82.1281 121.957 82.1896 122.018 82.2203 122.08C82.2203 122.08 82.2203 122.08 82.2203 122.11L82.251 122.141C82.2817 122.172 82.2817 122.172 82.2817 122.202C82.3125 122.233 82.3432 122.295 82.3739 122.356C82.3739 122.387 82.4046 122.387 82.4046 122.387C82.5275 122.602 82.6812 122.786 82.8041 123.001C82.8041 123.001 82.8348 123.032 82.8348 123.062C82.8348 123.062 82.8348 123.093 82.8655 123.093C82.8962 123.154 82.927 123.185 82.9577 123.247C83.0191 123.339 83.0499 123.4 83.1113 123.492C83.2035 123.646 83.2957 123.799 83.3878 123.953C83.3878 123.953 83.4186 123.983 83.4186 124.014C83.5722 124.26 83.7258 124.536 83.8487 124.782C83.9716 124.997 84.0638 125.212 84.1867 125.396C84.2481 125.519 84.3096 125.611 84.371 125.734C84.4939 125.949 84.5861 126.194 84.709 126.409C84.709 126.44 84.7397 126.44 84.7397 126.471C84.9241 126.839 85.0777 127.208 85.2621 127.576C85.2928 127.668 85.3235 127.73 85.3542 127.822C85.385 127.914 85.4464 128.006 85.4771 128.129C85.6 128.436 85.7229 128.743 85.8458 129.05C91.0998 142.224 87.843 156.104 78.7484 161.969Z" fill="white"/>
<path d="M64.8324 102.212C64.6787 102.826 64.4329 103.41 64.095 103.901L60.1929 111.363L56.0143 112.775C55.4305 112.315 53.8418 112.836 52.1519 112.559C38.2028 110.502 45.9673 99.0185 45.9673 99.0185C46.7354 98.9263 47.5342 98.9878 48.3638 99.2334C48.9783 99.4177 49.5313 99.6633 50.0537 99.9704C50.0537 99.9704 50.0537 99.9704 50.0844 99.9704C50.1151 100.001 50.1458 100.001 50.1458 100.032C50.5453 100.277 51.9893 100.984 52.4502 99.2641C52.4809 99.1106 52.5117 98.957 52.5424 98.8035C53.4334 95.4257 56.9053 93.4604 60.2851 94.4123C63.6955 95.3336 65.7234 98.8342 64.8324 102.212Z" fill="#FAC04F"/>
<path d="M142.903 127.023C139.123 124.167 133.9 126.317 133.685 126.409C133.777 126.317 135.191 124.996 132.241 120.329C129.199 115.477 124.168 117.567 124.168 117.567C124.168 117.567 124.007 112.068 116.663 107.001C114.759 105.681 112.792 105.159 110.949 105.128C105.603 104.975 101.055 108.69 101.055 108.69C101.055 108.69 100.902 102.395 94.6337 101.167C94.1114 101.075 93.5583 100.983 92.9746 100.983C91.8685 100.921 90.8545 101.044 89.9942 101.228C84.7096 102.487 83.6342 107.769 83.6342 107.769C83.5727 107.738 83.5113 107.708 83.4498 107.646C82.5588 107.094 81.7292 106.633 80.8997 106.234C80.5617 106.51 80.2545 106.787 79.9779 107.063C79.9472 107.094 79.9165 107.124 79.855 107.155C79.8243 107.186 79.7936 107.216 79.7321 107.247C79.6707 107.309 79.6092 107.37 79.5478 107.431C79.5171 107.493 79.4556 107.523 79.4249 107.585C79.3942 107.616 79.3942 107.616 79.3634 107.646C79.302 107.708 79.2405 107.769 79.1791 107.861C79.1484 107.892 79.1176 107.923 79.0869 107.984C79.0255 108.046 78.964 108.138 78.9026 108.199C78.8104 108.291 78.7489 108.383 78.6568 108.475C78.5031 108.66 78.3802 108.813 78.2573 108.997C78.1959 109.09 78.1037 109.212 78.0423 109.305C77.9808 109.397 77.8886 109.519 77.8272 109.612C77.7657 109.704 77.7043 109.827 77.6428 109.919C77.6121 109.98 77.5814 110.042 77.5507 110.103C77.5199 110.134 77.5199 110.164 77.4892 110.195C77.4585 110.226 77.4585 110.256 77.4278 110.287C77.3663 110.379 77.3356 110.471 77.2741 110.564C77.2127 110.656 77.182 110.778 77.1205 110.871C77.0898 110.932 77.0591 110.993 77.0283 111.055C76.9976 111.147 76.9669 111.208 76.9054 111.301C76.8747 111.393 76.844 111.454 76.8133 111.546C76.7825 111.638 76.7518 111.73 76.7211 111.823C76.6904 111.915 76.6596 112.007 76.5982 112.13C76.5675 112.191 76.5367 112.283 76.506 112.375C76.4753 112.437 76.4753 112.498 76.4446 112.56C76.3831 112.744 76.3524 112.897 76.2909 113.082C76.2602 113.174 76.2295 113.297 76.2295 113.389C76.1988 113.511 76.168 113.634 76.168 113.757C76.1373 113.849 76.1373 113.911 76.1373 114.003C76.1066 114.187 76.0759 114.402 76.0451 114.586C76.0451 114.648 76.0144 114.709 76.0144 114.77C76.0144 114.832 76.0144 114.893 75.9837 114.924C75.9837 115.016 75.9837 115.108 75.953 115.2C76.1066 115.323 76.2602 115.446 76.4138 115.6C76.4446 115.63 76.4753 115.63 76.4753 115.661C76.4753 115.661 76.4753 115.661 76.506 115.661C76.5367 115.692 76.5982 115.722 76.6289 115.753C76.6904 115.815 76.7825 115.876 76.8747 115.968C76.9054 115.999 76.9362 116.029 76.9976 116.06C77.0591 116.122 77.1205 116.183 77.182 116.244C77.2127 116.275 77.2741 116.306 77.3049 116.367C77.3663 116.398 77.397 116.459 77.4585 116.49C77.5199 116.521 77.5507 116.582 77.6121 116.613C77.6736 116.644 77.735 116.705 77.7657 116.766C77.8579 116.859 77.9501 116.92 78.0423 117.012C78.1652 117.104 78.2573 117.227 78.3802 117.35C78.411 117.381 78.411 117.381 78.4417 117.411C78.5031 117.473 78.5339 117.503 78.5953 117.565C78.626 117.626 78.6875 117.657 78.7182 117.718C78.8104 117.811 78.9026 117.933 79.0255 118.025C79.1176 118.118 79.2098 118.21 79.2713 118.302C79.3942 118.455 79.5171 118.578 79.64 118.732C79.7321 118.855 79.8243 118.947 79.9165 119.07C79.9472 119.1 79.9779 119.131 79.9779 119.162C80.0701 119.284 80.193 119.407 80.2852 119.53C80.4081 119.684 80.531 119.837 80.6539 119.991C80.6846 120.052 80.7153 120.083 80.7768 120.144C80.8075 120.175 80.8382 120.206 80.869 120.267C80.9304 120.329 80.9919 120.421 81.0533 120.482C81.1147 120.544 81.1455 120.574 81.1762 120.636C81.1762 120.666 81.2069 120.666 81.2069 120.697C81.3605 120.912 81.5142 121.096 81.6678 121.311C81.6985 121.342 81.7292 121.373 81.7292 121.403C81.8214 121.526 81.9136 121.649 82.0058 121.803C82.0672 121.895 82.1287 122.017 82.2208 122.11C82.2208 122.11 82.2208 122.11 82.2208 122.14C82.2208 122.14 82.2208 122.171 82.2516 122.171C82.2823 122.202 82.2823 122.202 82.2823 122.232C82.313 122.263 82.3437 122.325 82.3745 122.386C82.3745 122.417 82.4052 122.417 82.4052 122.417C82.5588 122.632 82.6817 122.847 82.8353 123.062C82.8353 123.062 82.8353 123.092 82.8661 123.092C82.8968 123.154 82.9275 123.184 82.9582 123.246C83.0197 123.338 83.0504 123.399 83.1119 123.491C83.204 123.645 83.2962 123.799 83.3884 123.952C83.542 124.228 83.6956 124.505 83.8493 124.781C84.1565 125.334 84.433 125.887 84.7096 126.47C84.8939 126.839 85.0475 127.207 85.2319 127.576C84.9554 127.668 84.7096 127.79 84.4638 127.883C84.3101 127.944 84.1565 128.036 84.0029 128.098C83.6956 128.251 83.3884 128.405 83.1119 128.589C82.989 128.681 82.8353 128.742 82.7124 128.835C82.3745 129.05 82.0672 129.295 81.7907 129.541C81.7293 129.602 81.6678 129.633 81.6063 129.694C81.422 129.848 81.2684 130.001 81.1147 130.155C75.8608 135.498 79.4556 144.557 79.4556 144.557C71.375 150.268 70.2074 155.612 70.8834 159.389C73.0955 160.402 75.3999 161.262 77.7657 161.999C77.9808 162.06 78.1652 162.122 78.3802 162.183C83.7878 163.81 89.5027 164.67 95.4633 164.67C96.2314 164.67 96.9688 164.67 97.7369 164.64C99.8262 164.578 101.885 164.363 103.913 164.087C105.725 163.841 107.538 163.473 109.289 163.073C113.161 162.152 116.879 160.863 120.443 159.204C121.979 158.498 123.484 157.7 124.959 156.871C127.325 155.519 129.599 153.984 131.78 152.326C132.61 151.681 133.439 151.036 134.207 150.33C134.545 150.053 134.883 149.746 135.221 149.439C135.375 149.317 135.529 149.163 135.651 149.04C135.989 148.733 136.297 148.426 136.635 148.119C140.506 144.403 143.886 140.166 146.62 135.529C146.221 130.953 144.746 128.405 142.903 127.023Z" fill="#8AA6B2"/>
<path d="M56.0439 112.805L51.7731 114.249L45.1673 111.454C41.7568 110.502 39.729 107.002 40.62 103.624C41.2959 101.044 43.4774 99.2939 45.9968 99.0176C45.9968 99.0176 38.7458 109.673 52.7256 111.761C54.3847 111.976 55.4601 112.345 56.0439 112.805Z" fill="#EBAE56"/>
<path d="M85.2934 127.577C85.0169 127.669 84.7711 127.791 84.5253 127.884C84.3717 127.945 84.2181 128.037 84.0644 128.099C83.7572 128.252 83.4499 128.406 83.1734 128.59C83.0505 128.682 82.8969 128.743 82.774 128.836C82.436 129.05 82.1288 129.296 81.8522 129.542C81.7908 129.603 81.7293 129.634 81.6679 129.695C81.4835 129.849 81.3299 130.002 81.1763 130.156C75.9223 135.499 79.5171 144.558 79.5171 144.558C71.4365 150.269 70.2689 155.613 70.9449 159.39C68.9478 158.499 67.0121 157.486 65.1686 156.38C65.1379 156.35 65.1072 156.35 65.0764 156.319C64.1854 155.766 63.2637 155.213 62.4034 154.63C61.5738 154.077 60.7749 153.494 59.9761 152.91C59.9761 152.849 59.9761 152.787 59.9454 152.695C59.9454 152.665 59.9454 152.603 59.9454 152.572C59.9454 152.48 59.9146 152.419 59.9146 152.327C59.8839 152.265 59.8839 152.173 59.8532 152.112C59.8532 152.081 59.8532 152.05 59.8225 152.02C59.7917 151.928 59.7917 151.866 59.761 151.774C59.7303 151.651 59.6996 151.528 59.6381 151.406C59.6074 151.313 59.5767 151.221 59.5152 151.129C59.3923 150.791 59.208 150.423 58.9929 150.054C58.9622 149.962 58.9007 149.901 58.87 149.809C58.8393 149.778 58.8086 149.717 58.8086 149.686C58.7471 149.594 58.7164 149.502 58.6549 149.41C58.2248 148.765 57.7332 148.058 57.088 147.321C56.9651 147.199 56.8729 147.045 56.75 146.922C56.6271 146.769 56.4735 146.585 56.3506 146.431C56.3198 146.4 56.2891 146.339 56.2584 146.308C56.074 146.093 55.9204 145.878 55.7668 145.663C55.4903 145.295 55.2137 144.926 54.9679 144.558C54.63 144.066 54.3227 143.606 54.0155 143.115C53.954 142.992 53.8618 142.869 53.8004 142.746C53.5853 142.378 53.3702 142.04 53.1859 141.671C53.063 141.456 52.9401 141.241 52.8479 141.026C52.8172 140.996 52.8172 140.965 52.7865 140.904C52.6636 140.689 52.5714 140.474 52.4485 140.259C52.2949 139.921 52.1105 139.583 51.9876 139.245C51.9262 139.092 51.8647 138.938 51.8033 138.815C51.7725 138.754 51.7418 138.693 51.7418 138.662C51.6496 138.447 51.5575 138.263 51.496 138.048C51.4346 137.894 51.3731 137.741 51.3117 137.587C51.1888 137.28 51.0659 136.942 50.9737 136.635V136.605C50.9122 136.39 50.8201 136.175 50.7586 135.96C50.6357 135.53 50.4821 135.1 50.3899 134.67C50.3899 134.639 50.3899 134.639 50.3592 134.609C50.2363 134.179 49.9906 133.772 49.8985 133.342C49.8677 133.188 49.4067 132.713 49.376 132.591C49.3146 132.284 49.4287 132.366 49.3979 132.09C47.9881 131.399 48.9283 130.864 48.8976 130.588C48.8054 130.035 46.1755 128.636 46.1448 128.084C46.0526 126.947 48.8667 127.406 48.8974 126.331C47.6683 125.471 49.1172 125.606 49.1479 125.329C48.1383 124.573 48.8976 124.762 48.8976 124.578C48.1075 123.503 48.2964 122.589 49.1479 123.326C49.1479 123.234 48.6474 122.233 48.6474 122.141C48.6781 121.988 49.5604 123.37 49.5604 123.216C49.1479 122.723 48.6474 121.196 48.6474 121.073C48.6781 120.888 49.1172 121.758 49.1479 121.574C49.1479 121.512 49.0909 121.284 49.376 121.824C49.4067 121.578 48.8668 121.005 48.8976 120.759C48.9283 120.514 49.3367 120.036 49.3982 119.821C49.4289 119.606 49.3453 120.286 49.376 120.071C49.376 120.01 49.5604 119.316 49.5604 119.255C49.5911 119.163 49.8677 119.663 49.8985 119.57C49.9292 119.417 49.3454 118.384 49.8985 119.07C49.9292 118.947 49.4205 119.209 50.1487 118.819C50.2102 118.635 49.3146 118.252 49.376 118.068C49.4682 117.669 50.0565 117.435 50.1487 117.066C50.2102 116.882 50.3375 116.5 50.399 116.315C50.6755 115.425 50.8732 114.988 51.1498 114.312C50.7772 114.312 51.4666 113.369 51.6503 113.561C51.8039 113.162 52.1412 113.236 52.2949 112.929C52.3256 112.868 52.3563 112.806 52.387 112.745C52.4485 112.622 52.4792 112.53 52.5407 112.438C52.5714 112.376 52.5714 112.346 52.6021 112.315C52.7557 112.008 52.8479 111.824 52.8786 111.762H52.8479C53.5546 111.363 54.2613 111.025 55.0294 110.718C57.088 109.92 59.208 109.52 61.3894 109.49C62.0654 109.49 62.7106 109.52 63.3866 109.582C63.8782 109.613 64.4005 109.705 64.8921 109.766C65.568 109.889 66.2133 110.042 66.8892 110.227C67.7495 110.472 68.5791 110.749 69.4394 111.087C69.5008 111.117 69.5315 111.117 69.593 111.148C70.6991 111.609 71.8052 112.161 72.8806 112.806C74.0174 113.482 75.1542 114.28 76.2296 115.171C76.3832 115.293 76.5368 115.416 76.6904 115.57C76.7212 115.601 76.7519 115.601 76.7519 115.631C76.7519 115.631 76.7519 115.631 76.7826 115.631C76.8133 115.662 76.8748 115.693 76.9055 115.723C76.967 115.785 77.0591 115.846 77.1513 115.938C77.182 115.969 77.2128 116 77.2742 116.03C77.3357 116.092 77.3971 116.153 77.4586 116.215C77.4893 116.245 77.5507 116.276 77.5815 116.338C77.6429 116.368 77.6736 116.43 77.7351 116.46C77.7965 116.491 77.8273 116.552 77.8887 116.583C77.9502 116.614 78.0116 116.675 78.0423 116.737C78.1345 116.829 78.2267 116.89 78.3189 116.982C78.4418 117.075 78.5339 117.197 78.6568 117.32C78.6876 117.351 78.6876 117.351 78.7183 117.382C78.7797 117.443 78.8105 117.474 78.8719 117.535C78.9026 117.597 78.9641 117.627 78.9948 117.689C79.087 117.781 79.1484 117.842 79.2406 117.934C79.3328 118.057 79.4557 118.18 79.5479 118.272C79.6708 118.426 79.7937 118.548 79.9166 118.702C80.0087 118.825 80.1009 118.917 80.1931 119.04C80.2238 119.071 80.2545 119.101 80.2545 119.132C80.3467 119.255 80.4696 119.378 80.5618 119.5C80.6847 119.654 80.8076 119.807 80.9305 119.961C80.9612 120.022 80.9919 120.053 81.0534 120.115C81.0841 120.145 81.1148 120.176 81.1456 120.237L81.1763 120.268C81.207 120.299 81.207 120.33 81.2377 120.36C81.2685 120.391 81.2992 120.422 81.2992 120.452C81.3606 120.514 81.3914 120.544 81.4221 120.606C81.4221 120.637 81.4528 120.637 81.4528 120.667C81.6064 120.882 81.7601 121.067 81.9137 121.281C81.9444 121.312 81.9751 121.343 81.9751 121.374C82.0673 121.496 82.1595 121.619 82.2517 121.773C82.2824 121.803 82.3131 121.834 82.3438 121.896C82.3746 121.957 82.436 122.018 82.4667 122.08C82.4667 122.08 82.4667 122.08 82.4667 122.111C82.4667 122.111 82.4667 122.141 82.4975 122.141C82.5282 122.172 82.5282 122.172 82.5282 122.203C82.5589 122.233 82.5896 122.295 82.6204 122.356C82.6204 122.387 82.6511 122.387 82.6511 122.387C82.774 122.602 82.9276 122.786 83.0505 123.001C83.0505 123.001 83.0812 123.032 83.0812 123.062C83.0812 123.062 83.0812 123.093 83.112 123.093C83.1427 123.155 83.1734 123.185 83.2041 123.247C83.2656 123.339 83.2963 123.4 83.3578 123.492C83.4499 123.646 83.5421 123.799 83.6343 123.953C83.6343 123.953 83.665 123.984 83.665 124.014C83.8186 124.26 83.9723 124.536 84.0952 124.782C84.2181 124.997 84.3102 125.212 84.4331 125.396C84.4946 125.519 84.556 125.611 84.6175 125.734C84.7404 125.949 84.8325 126.195 84.9554 126.41C84.9554 126.44 84.9862 126.44 84.9862 126.471C84.9555 126.84 85.1398 127.177 85.2934 127.577Z" fill="#FAC04F"/>
<path d="M59.9772 152.848C58.1645 151.497 56.4131 150.023 54.7847 148.457C54.1702 147.873 53.5557 147.259 52.9412 146.645C51.4971 145.14 50.1145 143.574 48.8241 141.916C48.7934 141.885 48.7626 141.824 48.7319 141.793C47.4722 140.166 46.2739 138.477 45.1985 136.726C44.0924 134.976 43.0785 133.164 42.1875 131.291C42.2489 129.418 42.4947 127.637 42.8942 125.887C43.4779 123.246 44.4611 120.789 45.7516 118.64C46.2739 117.78 46.827 116.951 47.4722 116.183C47.8102 115.753 48.1789 115.354 48.5476 114.955C49.0392 114.433 49.5922 113.941 50.1453 113.481C50.9748 112.805 51.8351 112.222 52.7569 111.7H52.7876C52.7569 111.761 52.6647 111.945 52.5111 112.252C52.4803 112.283 52.4803 112.345 52.4496 112.375C52.4189 112.467 52.3574 112.59 52.296 112.682C52.2653 112.744 52.2345 112.805 52.2038 112.867C52.0809 113.174 51.9273 113.542 51.7429 113.941C51.7122 114.003 51.6815 114.064 51.6815 114.126C51.405 114.801 51.1284 115.6 50.8519 116.49C50.7905 116.674 50.729 116.859 50.6676 117.074C50.5754 117.442 50.4525 117.811 50.3603 118.21C50.2989 118.394 50.2682 118.609 50.2067 118.793C50.176 118.916 50.1453 119.07 50.1145 119.192C50.0838 119.315 50.0531 119.469 50.0224 119.592C49.9916 119.684 49.9916 119.807 49.9609 119.899C49.9609 119.96 49.9302 119.991 49.9302 120.052C49.8995 120.267 49.838 120.482 49.8073 120.697C49.7766 120.912 49.7151 121.158 49.6844 121.373C49.6537 121.588 49.6229 121.833 49.5922 122.079C49.5922 122.14 49.5615 122.171 49.5615 122.232C49.5308 122.417 49.5308 122.601 49.5 122.785C49.5 122.908 49.4693 123.031 49.4693 123.154C49.4386 123.307 49.4386 123.43 49.4386 123.584C49.4386 123.676 49.4079 123.798 49.4079 123.891C49.3771 124.136 49.3771 124.382 49.3464 124.658C49.3464 124.873 49.3157 125.057 49.3157 125.272C49.3157 125.549 49.285 125.825 49.285 126.132C49.2542 127.207 49.3157 128.313 49.4079 129.449C49.4693 130.001 49.5308 130.554 49.5922 131.107C49.6229 131.383 49.6844 131.69 49.7151 131.967C49.7766 132.243 49.8073 132.55 49.8687 132.827C49.8995 132.98 49.9302 133.103 49.9609 133.256C50.0531 133.686 50.1453 134.116 50.2682 134.546C50.2682 134.577 50.2682 134.577 50.2989 134.608C50.4218 135.037 50.5447 135.467 50.6676 135.897C50.729 136.112 50.8212 136.327 50.8826 136.542V136.573C51.0055 136.88 51.0977 137.218 51.2206 137.525C51.2821 137.678 51.3435 137.832 51.405 137.985C51.4971 138.17 51.5586 138.385 51.6508 138.6C51.6815 138.661 51.6815 138.722 51.7122 138.753C51.7737 138.907 51.8351 139.029 51.8966 139.183C52.0502 139.521 52.2038 139.859 52.3574 140.196C52.4803 140.411 52.5725 140.626 52.6954 140.841C52.7261 140.872 52.7261 140.903 52.7569 140.964C52.8798 141.179 52.9719 141.394 53.0948 141.609C53.3099 141.977 53.4943 142.315 53.7093 142.684C53.7708 142.806 53.863 142.929 53.9244 143.052C54.2317 143.513 54.5389 144.004 54.8769 144.495C55.1227 144.864 55.3992 145.232 55.6757 145.601C55.8294 145.816 56.0137 146.031 56.1673 146.246C56.1981 146.276 56.2288 146.338 56.2595 146.369C56.3824 146.522 56.536 146.706 56.6589 146.86C56.7818 146.983 56.874 147.136 56.9969 147.259C57.6421 147.996 58.1337 148.702 58.5639 149.347C58.6253 149.439 58.6868 149.531 58.7175 149.624C58.7482 149.654 58.779 149.716 58.779 149.746C58.8404 149.839 58.8711 149.9 58.9018 149.992C59.1169 150.361 59.2706 150.729 59.4242 151.067C59.4549 151.159 59.4856 151.251 59.5471 151.343C59.5778 151.466 59.6392 151.589 59.67 151.712C59.7007 151.804 59.7314 151.865 59.7314 151.957C59.7314 151.988 59.7621 152.019 59.7621 152.049C59.7929 152.111 59.7929 152.203 59.8236 152.264C59.8543 152.357 59.8543 152.449 59.8543 152.51C59.8543 152.541 59.8543 152.602 59.8543 152.633C59.9772 152.725 59.9772 152.786 59.9772 152.848Z" fill="#EBAE56"/>
<path d="M87.2616 126.962C86.5549 127.146 85.9097 127.33 85.2952 127.576C85.0187 127.668 84.7729 127.791 84.5271 127.883C84.3735 127.944 84.2199 128.036 84.0662 128.098C83.759 128.251 83.4517 128.405 83.1752 128.589C83.0523 128.681 82.8987 128.743 82.7758 128.835C82.4378 129.05 82.1306 129.295 81.854 129.541C81.7926 129.602 81.7311 129.633 81.6697 129.695C81.4853 129.848 81.3317 130.002 81.1781 130.155C75.9241 135.498 79.5189 144.557 79.5189 144.557C71.4383 150.269 70.2707 155.612 70.9467 159.389C68.9496 158.498 67.0139 157.485 65.1704 156.379C65.1397 156.349 65.109 156.349 65.0782 156.318C64.1872 155.765 63.2655 155.213 62.4052 154.629C61.5756 154.076 60.7767 153.493 59.9779 152.909C58.1651 151.558 56.4138 150.084 54.7854 148.518C54.1709 147.935 53.5564 147.321 52.9419 146.707C51.4978 145.202 50.1152 143.636 48.8248 141.978C48.794 141.947 48.7633 141.885 48.7326 141.855C47.4729 140.227 46.2746 138.538 45.1992 136.788C46.6126 134.853 48.3024 133.809 49.9923 133.349C50.4532 133.226 50.8833 133.134 51.3442 133.072C53.4028 132.827 55.3384 133.257 56.6289 133.687C57.6121 134.024 58.2266 134.331 58.2266 134.331C59.4249 132.059 60.7767 130.739 62.1594 130.063C63.1118 129.602 64.0336 129.449 64.9246 129.48C65.0168 129.48 65.1397 129.48 65.2319 129.51C68.3351 129.756 70.8545 132.213 70.8545 132.213C73.2203 128.712 76.385 127.207 79.3039 126.624C80.7172 126.347 82.0691 126.286 83.2367 126.347C83.8204 126.378 84.3735 126.409 84.8344 126.47C86.3091 126.655 87.2616 126.962 87.2616 126.962Z" fill="#748D97"/>
<path d="M125.081 149.44L108.889 155.397C107.722 155.827 106.431 155.243 106.001 154.077L96.8757 129.296C96.4455 128.129 97.0293 126.839 98.1968 126.409L114.389 120.452C115.556 120.022 116.847 120.605 117.277 121.772L126.402 146.553C126.832 147.72 126.249 149.01 125.081 149.44Z" fill="white"/>
<path d="M114.921 123.852L99.7812 129.415L107.14 149.418L122.28 143.854L114.921 123.852Z" fill="#868686"/>
<path d="M108.399 126.225L105.326 144.066L107.2 149.195L113.745 146.799L116.817 129.081L114.912 123.83L108.399 126.225Z" fill="#9C9C9C"/>
<path d="M118.291 148.519C118.291 148.489 118.26 148.458 118.26 148.427L118.229 148.335C118.106 147.997 117.861 147.721 117.584 147.537C117.185 147.26 116.632 147.199 116.14 147.383L114.174 148.12C113.959 148.182 113.805 148.304 113.651 148.427C113.467 148.611 113.313 148.826 113.221 149.041C113.098 149.41 113.068 149.809 113.221 150.178L113.252 150.27C113.559 151.099 114.512 151.529 115.341 151.222L117.338 150.485C117.584 150.392 117.768 150.27 117.922 150.085C118.291 149.717 118.475 149.103 118.291 148.519ZM117.123 150.055L115.126 150.792C114.604 150.976 114.02 150.761 113.774 150.3C113.744 150.239 113.713 150.208 113.713 150.147L113.682 150.055C113.467 149.471 113.774 148.826 114.358 148.611L116.355 147.874C116.939 147.66 117.584 147.967 117.799 148.55L117.83 148.642C117.861 148.704 117.861 148.765 117.861 148.796C117.922 149.318 117.646 149.87 117.123 150.055Z" fill="#566C78"/>
<path d="M104.988 126.287C105.259 126.287 105.48 126.067 105.48 125.796C105.48 125.525 105.259 125.305 104.988 125.305C104.716 125.305 104.496 125.525 104.496 125.796C104.496 126.067 104.716 126.287 104.988 126.287Z" fill="black"/>
<path d="M106.832 125.641C107.103 125.641 107.323 125.421 107.323 125.15C107.323 124.879 107.103 124.659 106.832 124.659C106.56 124.659 106.34 124.879 106.34 125.15C106.34 125.421 106.56 125.641 106.832 125.641Z" fill="black"/>
<path d="M108.675 124.996C108.947 124.996 109.167 124.776 109.167 124.505C109.167 124.234 108.947 124.014 108.675 124.014C108.404 124.014 108.184 124.234 108.184 124.505C108.184 124.776 108.404 124.996 108.675 124.996Z" fill="black"/>
<path d="M117.767 148.519L117.798 148.611C117.829 148.673 117.829 148.704 117.829 148.765C117.706 149.195 117.399 149.533 116.969 149.686L114.971 150.423C114.541 150.577 114.08 150.515 113.712 150.27C113.681 150.208 113.65 150.178 113.65 150.116L113.62 150.024C113.404 149.441 113.712 148.765 114.295 148.55L116.293 147.813C116.907 147.598 117.552 147.905 117.767 148.519Z" fill="#8EAABD"/>
<path d="M135.22 149.41C134.882 149.717 134.544 150.024 134.206 150.3C133.407 150.976 132.608 151.651 131.779 152.296C129.628 153.955 127.355 155.49 124.958 156.841C123.483 157.67 121.978 158.469 120.441 159.175L107.537 158.499L98.8418 158.039L99.2105 153.74L99.7635 147.629L100.347 147.015L102.56 144.742L104.618 142.593L105.786 141.364L106.246 140.904L108.213 141.334L114.481 142.685L116.294 143.084L118.168 145.356L119.059 146.431L120.011 147.598L121.947 146.155L124.343 144.374L125.695 144.619L128.215 145.049L133.991 146.063L134.636 147.813L135.22 149.41Z" fill="#8AA6B2"/>
<path d="M135.343 146.673C135.189 146.826 134.625 147.316 134.502 147.439C134.164 147.746 134.575 147.726 134.237 148.003C133.438 148.678 132.639 149.354 131.809 149.999C131.809 149.968 131.779 149.937 131.779 149.876C131.748 149.722 131.717 149.538 131.656 149.384C131.226 147.603 130.55 145.454 129.014 144.625C128.614 144.41 128.03 144.256 127.6 144.226C127.201 144.195 126.832 144.195 126.433 144.226C126.095 144.256 125.757 144.256 125.419 144.287C124.62 144.348 124.528 144.256 124.098 144.686C123.667 145.116 123.329 145.822 123.084 146.437C122.869 146.959 122.715 147.542 122.592 148.095C122.592 148.125 122.561 148.156 122.561 148.187C122.5 148.74 122.408 149.323 122.254 149.907C121.609 152.117 118.35 151.794 118.043 149.736C118.043 149.736 118.395 149.568 118.426 149.353C118.457 149.139 118.012 148.803 118.043 148.588C118.074 148.342 117.922 148.187 117.953 147.911C117.953 147.911 117.953 147.88 117.953 147.849C117.953 147.481 117.983 147.112 117.953 146.744C117.953 146.652 117.953 146.529 117.922 146.437C117.922 146.437 117.922 146.437 117.922 146.406C117.891 146.16 117.83 145.945 117.768 145.7C117.737 145.546 117.676 145.393 117.615 145.239C117.4 144.625 117.123 144.103 116.662 143.581C116.601 143.519 116.539 143.458 116.478 143.397C115.833 142.721 115.064 142.23 114.266 141.83C113.866 141.646 113.467 141.493 113.037 141.339C111.685 140.878 110.241 140.571 108.827 140.571C107.629 140.571 106.461 140.817 105.417 141.401C105.325 141.462 105.232 141.523 105.14 141.554C105.017 141.646 104.894 141.708 104.772 141.8C104.126 142.291 103.573 142.936 103.082 143.704C103.02 143.796 102.959 143.888 102.928 143.98C102.314 145.024 102.16 145.423 101.822 146.467C101.791 146.559 101.761 146.682 101.73 146.774C101.545 147.419 101.392 148.064 101.269 148.74C101.238 148.862 101.238 148.955 101.207 149.077C101.207 149.108 101.207 149.17 101.207 149.2C101.115 150.429 100.224 151.135 99.2718 151.35C97.9506 151.626 96.4451 150.92 96.5987 149.2C96.7524 147.174 97.3054 145.208 98.1043 143.335C98.2886 142.874 98.5037 142.445 98.7495 142.015C99.4254 140.786 100.255 139.681 101.269 138.76C101.945 138.146 102.682 137.593 103.512 137.163C103.665 137.101 103.819 137.009 103.973 136.948C104.71 136.61 105.509 136.364 106.308 136.18C106.646 136.119 106.984 136.057 107.322 136.027C109.903 135.72 112.606 136.211 115.064 137.163C115.525 137.347 115.986 137.531 116.447 137.746C118.229 138.606 119.735 139.927 120.81 141.523C121.179 141.186 121.547 140.878 121.978 140.633C122.776 140.172 123.729 139.865 124.804 139.712C124.927 139.681 125.081 139.681 125.204 139.65C126.801 139.497 128.46 139.497 129.966 139.988C130.488 140.142 130.98 140.356 131.472 140.664C133.346 141.769 134.544 143.581 135.343 145.577C135.435 145.976 135.496 146.519 135.343 146.673Z" fill="#748D97"/>
<path d="M135.682 149.011C135.528 149.164 135.374 149.287 135.252 149.41C134.914 149.717 134.576 150.024 134.238 150.3C133.439 150.976 132.64 151.652 131.81 152.296C131.81 152.266 131.78 152.235 131.78 152.174C131.749 152.02 131.718 151.836 131.657 151.682C131.227 149.901 130.551 147.752 129.014 146.923C128.615 146.708 128.031 146.554 127.601 146.523C127.202 146.493 126.833 146.493 126.434 146.523C126.096 146.554 125.758 146.554 125.42 146.585C124.621 146.646 124.529 146.554 124.098 146.984C123.668 147.414 123.33 148.12 123.085 148.734C122.869 149.256 122.716 149.84 122.593 150.393C122.593 150.423 122.562 150.454 122.562 150.485C122.501 151.037 122.409 151.621 122.255 152.204C121.61 154.415 118.046 154.262 117.738 152.204C117.708 152.02 117.708 151.805 117.738 151.59C117.769 151.375 117.8 151.191 117.831 150.976C117.861 150.73 117.923 150.485 117.953 150.208C117.953 150.208 117.953 150.178 117.953 150.147C117.953 149.778 117.984 149.41 117.953 149.041C117.953 148.949 117.953 148.827 117.923 148.734C117.923 148.734 117.923 148.734 117.923 148.704C117.892 148.458 117.831 148.243 117.769 147.997C117.738 147.844 117.677 147.69 117.615 147.537C117.4 146.923 117.124 146.401 116.663 145.879C116.602 145.817 116.54 145.756 116.479 145.694C115.833 145.019 115.065 144.527 114.266 144.128C113.867 143.944 113.468 143.79 113.037 143.637C111.686 143.176 110.242 142.869 108.828 142.869C107.63 142.869 106.462 143.115 105.418 143.698C105.326 143.76 105.233 143.821 105.141 143.852C105.018 143.944 104.895 144.005 104.772 144.098C104.127 144.589 103.574 145.234 103.083 146.001C103.021 146.094 102.96 146.186 102.929 146.278C102.314 147.322 102.161 147.721 101.823 148.765C101.792 148.857 101.761 148.98 101.731 149.072C101.546 149.717 101.393 150.362 101.27 151.037C101.239 151.16 101.239 151.252 101.208 151.375C101.208 151.406 101.208 151.467 101.208 151.498C101.116 152.726 100.225 153.433 99.2727 153.648C97.9515 153.924 96.8391 153.218 96.9927 151.498C97.1843 149.354 97.3063 147.506 98.1052 145.633C98.2895 145.172 98.5046 144.742 98.7504 144.313C99.4263 143.084 100.256 141.979 101.27 141.058C101.946 140.443 102.683 139.891 103.513 139.461C103.666 139.399 103.82 139.307 103.974 139.246C104.711 138.908 105.51 138.662 106.309 138.478C106.647 138.417 106.985 138.355 107.323 138.325C109.904 138.017 112.607 138.509 115.065 139.461C115.526 139.645 115.987 139.829 116.448 140.044C118.23 140.904 119.736 142.224 120.811 143.821C121.18 143.483 121.548 143.176 121.978 142.931C122.777 142.47 123.73 142.163 124.805 142.009C124.928 141.979 125.082 141.979 125.205 141.948C126.802 141.795 128.461 141.795 129.967 142.286C130.489 142.439 130.981 142.654 131.472 142.961C133.347 144.067 134.545 145.879 135.344 147.875C135.436 148.274 135.559 148.642 135.682 149.011Z" fill="#8AA6B2"/>
<path d="M62.5888 109.98L49.162 114.924C48.3632 115.2 47.5029 114.801 47.2263 114.034C46.9498 113.235 47.3492 112.375 48.1174 112.099L61.5442 107.155C62.343 106.879 63.2033 107.278 63.4798 108.046C63.7871 108.813 63.3877 109.704 62.5888 109.98Z" fill="#E2A552"/>
<path d="M141.648 68.5538H125.525L125.886 60.9813C125.886 60.9813 125.982 57.6157 128.889 57.6157H137.131C137.251 57.6157 137.299 57.6157 137.299 57.6157H141.191L141.648 68.5538Z" fill="#786E7A"/>
<path d="M149.315 77.8331H142.059L141.65 68.5537H148.883L149.315 77.8331Z" fill="#F3F1EB"/>
<path d="M148.885 68.5538H141.652L141.172 57.6157H145.521C148.428 57.6157 148.524 60.9813 148.524 60.9813L148.885 68.5538Z" fill="#6A6069"/>
<path d="M38.7339 219.97H33.9355L33.9658 216.428H38.7339C39.9246 216.428 40.9287 216.161 41.7461 215.626C42.5635 215.081 43.179 214.289 43.5928 213.25C44.0166 212.21 44.2285 210.954 44.2285 209.48V208.406C44.2285 207.276 44.1074 206.282 43.8652 205.424C43.6331 204.566 43.285 203.845 42.8208 203.259C42.3566 202.674 41.7865 202.235 41.1104 201.942C40.4342 201.64 39.6572 201.488 38.7793 201.488H33.8447V197.931H38.7793C40.2526 197.931 41.5998 198.183 42.8208 198.688C44.0519 199.182 45.1165 199.894 46.0146 200.822C46.9128 201.751 47.604 202.861 48.0884 204.152C48.5828 205.434 48.8301 206.862 48.8301 208.436V209.48C48.8301 211.045 48.5828 212.472 48.0884 213.764C47.604 215.056 46.9128 216.166 46.0146 217.094C45.1266 218.013 44.062 218.724 42.8208 219.229C41.5897 219.723 40.2274 219.97 38.7339 219.97ZM36.5088 197.931V219.97H31.9678V197.931H36.5088ZM59.3955 220.273C58.124 220.273 56.9837 220.071 55.9746 219.667C54.9655 219.254 54.1077 218.684 53.4014 217.957C52.7051 217.23 52.1702 216.388 51.7969 215.429C51.4235 214.46 51.2368 213.431 51.2368 212.341V211.736C51.2368 210.495 51.4134 209.359 51.7666 208.33C52.1198 207.301 52.6243 206.408 53.2803 205.651C53.9463 204.894 54.7536 204.314 55.7021 203.91C56.6507 203.496 57.7204 203.29 58.9111 203.29C60.0716 203.29 61.1009 203.481 61.999 203.865C62.8971 204.248 63.6489 204.793 64.2544 205.5C64.87 206.206 65.3341 207.054 65.647 208.042C65.9598 209.021 66.1162 210.111 66.1162 211.312V213.128H53.0986V210.222H61.8325V209.889C61.8325 209.284 61.7215 208.744 61.4995 208.27C61.2876 207.785 60.9647 207.402 60.5308 207.119C60.0968 206.837 59.5418 206.695 58.8657 206.695C58.2905 206.695 57.7961 206.821 57.3823 207.074C56.9686 207.326 56.6305 207.679 56.3682 208.133C56.1159 208.587 55.9242 209.122 55.793 209.738C55.6719 210.343 55.6113 211.009 55.6113 211.736V212.341C55.6113 212.997 55.7021 213.603 55.8838 214.158C56.0755 214.713 56.3429 215.192 56.686 215.596C57.0392 215.999 57.4631 216.312 57.9575 216.534C58.4621 216.756 59.0322 216.867 59.668 216.867C60.4551 216.867 61.1867 216.716 61.8628 216.413C62.549 216.1 63.1393 215.631 63.6338 215.005L65.7529 217.306C65.4098 217.801 64.9406 218.275 64.3452 218.729C63.7599 219.183 63.0535 219.556 62.2261 219.849C61.3986 220.132 60.4551 220.273 59.3955 220.273ZM56.3228 201.367L59.2896 196.705H64.0273L59.8647 201.367H56.3228ZM75.3647 216.867C75.8996 216.867 76.3739 216.766 76.7876 216.564C77.2013 216.353 77.5243 216.06 77.7563 215.687C77.9985 215.303 78.1247 214.854 78.1348 214.339H82.2368C82.2267 215.49 81.9189 216.514 81.3135 217.412C80.708 218.3 79.8957 219.001 78.8765 219.516C77.8573 220.021 76.717 220.273 75.4556 220.273C74.1841 220.273 73.0741 220.061 72.1255 219.637C71.187 219.213 70.4049 218.628 69.7793 217.881C69.1536 217.125 68.6844 216.247 68.3716 215.248C68.0588 214.238 67.9023 213.159 67.9023 212.008V211.569C67.9023 210.409 68.0588 209.329 68.3716 208.33C68.6844 207.321 69.1536 206.443 69.7793 205.696C70.4049 204.939 71.187 204.349 72.1255 203.925C73.064 203.501 74.1639 203.29 75.4253 203.29C76.7674 203.29 77.943 203.547 78.9521 204.062C79.9714 204.576 80.7686 205.313 81.3438 206.271C81.929 207.22 82.2267 208.345 82.2368 209.647H78.1348C78.1247 209.102 78.0086 208.608 77.7866 208.164C77.5747 207.72 77.2619 207.366 76.8481 207.104C76.4445 206.832 75.945 206.695 75.3496 206.695C74.7139 206.695 74.1942 206.832 73.7905 207.104C73.3869 207.366 73.0741 207.73 72.8521 208.194C72.63 208.648 72.4736 209.168 72.3828 209.753C72.3021 210.328 72.2617 210.934 72.2617 211.569V212.008C72.2617 212.644 72.3021 213.255 72.3828 213.84C72.4635 214.425 72.6149 214.945 72.8369 215.399C73.069 215.853 73.3869 216.211 73.7905 216.474C74.1942 216.736 74.7189 216.867 75.3647 216.867ZM89.0181 196.72V219.97H84.6587V196.72H89.0181ZM88.3975 211.206H87.2017C87.2118 210.066 87.3631 209.016 87.6558 208.058C87.9484 207.089 88.3672 206.251 88.9121 205.545C89.457 204.828 90.1079 204.273 90.8647 203.88C91.6317 203.486 92.4793 203.29 93.4077 203.29C94.215 203.29 94.9466 203.406 95.6025 203.638C96.2686 203.86 96.8387 204.223 97.313 204.728C97.7974 205.222 98.1707 205.873 98.4331 206.68C98.6955 207.487 98.8267 208.466 98.8267 209.617V219.97H94.437V209.586C94.437 208.86 94.3311 208.29 94.1191 207.876C93.9173 207.452 93.6196 207.154 93.2261 206.983C92.8426 206.801 92.3683 206.71 91.8032 206.71C91.1776 206.71 90.6427 206.826 90.1987 207.059C89.7648 207.291 89.4167 207.614 89.1543 208.027C88.8919 208.431 88.7002 208.905 88.5791 209.45C88.458 209.995 88.3975 210.58 88.3975 211.206ZM109.68 220.273C108.408 220.273 107.268 220.071 106.259 219.667C105.25 219.254 104.392 218.684 103.686 217.957C102.989 217.23 102.454 216.388 102.081 215.429C101.708 214.46 101.521 213.431 101.521 212.341V211.736C101.521 210.495 101.698 209.359 102.051 208.33C102.404 207.301 102.909 206.408 103.564 205.651C104.23 204.894 105.038 204.314 105.986 203.91C106.935 203.496 108.005 203.29 109.195 203.29C110.356 203.29 111.385 203.481 112.283 203.865C113.181 204.248 113.933 204.793 114.539 205.5C115.154 206.206 115.618 207.054 115.931 208.042C116.244 209.021 116.4 210.111 116.4 211.312V213.128H103.383V210.222H112.117V209.889C112.117 209.284 112.006 208.744 111.784 208.27C111.572 207.785 111.249 207.402 110.815 207.119C110.381 206.837 109.826 206.695 109.15 206.695C108.575 206.695 108.08 206.821 107.667 207.074C107.253 207.326 106.915 207.679 106.652 208.133C106.4 208.587 106.208 209.122 106.077 209.738C105.956 210.343 105.896 211.009 105.896 211.736V212.341C105.896 212.997 105.986 213.603 106.168 214.158C106.36 214.713 106.627 215.192 106.97 215.596C107.323 215.999 107.747 216.312 108.242 216.534C108.746 216.756 109.316 216.867 109.952 216.867C110.739 216.867 111.471 216.716 112.147 216.413C112.833 216.1 113.424 215.631 113.918 215.005L116.037 217.306C115.694 217.801 115.225 218.275 114.629 218.729C114.044 219.183 113.338 219.556 112.51 219.849C111.683 220.132 110.739 220.273 109.68 220.273ZM126.905 203.592V206.68H117.369V203.592H126.905ZM119.73 199.551H124.09V215.036C124.09 215.51 124.15 215.873 124.271 216.125C124.403 216.378 124.594 216.554 124.847 216.655C125.099 216.746 125.417 216.792 125.8 216.792C126.073 216.792 126.315 216.781 126.527 216.761C126.749 216.731 126.936 216.701 127.087 216.67L127.102 219.879C126.729 220 126.325 220.096 125.891 220.167C125.457 220.238 124.978 220.273 124.453 220.273C123.494 220.273 122.657 220.117 121.94 219.804C121.234 219.481 120.689 218.966 120.306 218.26C119.922 217.553 119.73 216.625 119.73 215.475V199.551ZM138.243 215.444C138.243 215.132 138.152 214.849 137.97 214.597C137.789 214.344 137.451 214.112 136.956 213.9C136.472 213.678 135.77 213.477 134.852 213.295C134.025 213.113 133.253 212.886 132.536 212.614C131.83 212.331 131.214 211.993 130.689 211.6C130.175 211.206 129.771 210.742 129.479 210.207C129.186 209.662 129.04 209.042 129.04 208.345C129.04 207.659 129.186 207.013 129.479 206.408C129.781 205.802 130.21 205.267 130.765 204.803C131.33 204.329 132.016 203.961 132.824 203.698C133.641 203.426 134.559 203.29 135.579 203.29C137.001 203.29 138.222 203.517 139.242 203.971C140.271 204.425 141.058 205.05 141.603 205.848C142.158 206.635 142.436 207.533 142.436 208.542H138.076C138.076 208.118 137.985 207.74 137.804 207.407C137.632 207.064 137.36 206.796 136.986 206.604C136.623 206.403 136.149 206.302 135.563 206.302C135.079 206.302 134.66 206.388 134.307 206.559C133.954 206.721 133.681 206.943 133.49 207.225C133.308 207.498 133.217 207.8 133.217 208.133C133.217 208.386 133.268 208.613 133.369 208.814C133.48 209.006 133.656 209.183 133.898 209.344C134.141 209.506 134.453 209.657 134.837 209.798C135.23 209.93 135.715 210.051 136.29 210.162C137.471 210.404 138.525 210.722 139.454 211.115C140.382 211.499 141.119 212.023 141.664 212.689C142.208 213.345 142.481 214.208 142.481 215.278C142.481 216.004 142.319 216.67 141.997 217.276C141.674 217.881 141.209 218.411 140.604 218.865C139.999 219.309 139.272 219.657 138.424 219.91C137.587 220.152 136.643 220.273 135.594 220.273C134.07 220.273 132.778 220 131.719 219.456C130.669 218.911 129.872 218.219 129.327 217.382C128.792 216.534 128.525 215.666 128.525 214.778H132.657C132.677 215.374 132.829 215.853 133.111 216.216C133.404 216.58 133.772 216.842 134.216 217.003C134.67 217.165 135.16 217.246 135.685 217.246C136.25 217.246 136.719 217.17 137.092 217.019C137.466 216.857 137.748 216.645 137.94 216.383C138.142 216.11 138.243 215.798 138.243 215.444ZM35.9639 243.089V255.97H31.6045V239.592H35.6914L35.9639 243.089ZM35.3281 247.206H34.1475C34.1475 245.995 34.3039 244.905 34.6167 243.937C34.9295 242.958 35.3685 242.125 35.9336 241.439C36.4987 240.743 37.1698 240.213 37.9468 239.85C38.7339 239.476 39.6118 239.29 40.5806 239.29C41.3475 239.29 42.0488 239.401 42.6846 239.623C43.3203 239.845 43.8652 240.198 44.3193 240.682C44.7835 241.167 45.1367 241.807 45.3789 242.604C45.6312 243.402 45.7573 244.375 45.7573 245.526V255.97H41.3677V245.511C41.3677 244.784 41.2668 244.219 41.0649 243.815C40.8631 243.412 40.5654 243.129 40.1719 242.968C39.7884 242.796 39.3141 242.71 38.749 242.71C38.1637 242.71 37.6541 242.826 37.2202 243.059C36.7964 243.291 36.4432 243.614 36.1606 244.027C35.8882 244.431 35.6813 244.905 35.54 245.45C35.3988 245.995 35.3281 246.58 35.3281 247.206ZM58.7598 252.05V239.592H63.1191V255.97H59.0171L58.7598 252.05ZM59.2441 248.689L60.5308 248.659C60.5308 249.749 60.4046 250.763 60.1523 251.702C59.9001 252.63 59.5216 253.437 59.0171 254.124C58.5125 254.8 57.8768 255.329 57.1099 255.713C56.3429 256.086 55.4398 256.273 54.4004 256.273C53.6032 256.273 52.8665 256.162 52.1904 255.94C51.5244 255.708 50.9492 255.35 50.4648 254.865C49.9906 254.371 49.6172 253.74 49.3447 252.973C49.0824 252.196 48.9512 251.263 48.9512 250.173V239.592H53.3105V250.203C53.3105 250.688 53.366 251.096 53.4771 251.429C53.5981 251.762 53.7646 252.035 53.9766 252.247C54.1885 252.458 54.4357 252.61 54.7183 252.701C55.0109 252.792 55.3338 252.837 55.687 252.837C56.5851 252.837 57.2915 252.655 57.8062 252.292C58.3309 251.929 58.6992 251.434 58.9111 250.809C59.1331 250.173 59.2441 249.466 59.2441 248.689ZM70.8086 242.983V255.97H66.4341V239.592H70.5361L70.8086 242.983ZM70.2031 247.206H68.9922C68.9922 246.066 69.1284 245.016 69.4009 244.058C69.6834 243.089 70.0921 242.251 70.627 241.545C71.1719 240.828 71.8429 240.273 72.6401 239.88C73.4373 239.486 74.3607 239.29 75.4102 239.29C76.1367 239.29 76.8027 239.401 77.4082 239.623C78.0137 239.834 78.5334 240.173 78.9673 240.637C79.4113 241.091 79.7544 241.686 79.9966 242.423C80.2388 243.149 80.3599 244.022 80.3599 245.042V255.97H76.0005V245.526C76.0005 244.779 75.8996 244.204 75.6978 243.8C75.4959 243.397 75.2083 243.114 74.835 242.953C74.4717 242.791 74.0327 242.71 73.5181 242.71C72.953 242.71 72.4585 242.826 72.0347 243.059C71.6209 243.291 71.2778 243.614 71.0054 244.027C70.7329 244.431 70.5311 244.905 70.3999 245.45C70.2687 245.995 70.2031 246.58 70.2031 247.206ZM79.9512 246.707L78.3921 246.903C78.3921 245.834 78.5233 244.84 78.7856 243.921C79.0581 243.003 79.4567 242.196 79.9814 241.5C80.5163 240.803 81.1772 240.263 81.9644 239.88C82.7515 239.486 83.6597 239.29 84.689 239.29C85.4761 239.29 86.1925 239.406 86.8384 239.638C87.4842 239.86 88.0342 240.218 88.4883 240.712C88.9525 241.197 89.3057 241.833 89.5479 242.62C89.8001 243.407 89.9263 244.37 89.9263 245.511V255.97H85.5518V245.511C85.5518 244.754 85.4508 244.179 85.249 243.785C85.0573 243.382 84.7747 243.104 84.4014 242.953C84.0381 242.791 83.6042 242.71 83.0996 242.71C82.5749 242.71 82.1157 242.816 81.7222 243.028C81.3286 243.23 81.0007 243.513 80.7383 243.876C80.4759 244.239 80.2791 244.663 80.1479 245.147C80.0168 245.622 79.9512 246.141 79.9512 246.707ZM100.84 256.273C99.5684 256.273 98.4281 256.071 97.4189 255.667C96.4098 255.254 95.5521 254.684 94.8457 253.957C94.1494 253.23 93.6146 252.388 93.2412 251.429C92.8678 250.46 92.6812 249.431 92.6812 248.341V247.736C92.6812 246.495 92.8577 245.359 93.2109 244.33C93.5641 243.301 94.0687 242.408 94.7246 241.651C95.3906 240.894 96.1979 240.314 97.1465 239.91C98.0951 239.496 99.1647 239.29 100.355 239.29C101.516 239.29 102.545 239.481 103.443 239.865C104.341 240.248 105.093 240.793 105.699 241.5C106.314 242.206 106.778 243.054 107.091 244.042C107.404 245.021 107.561 246.111 107.561 247.312V249.128H94.543V246.222H103.277V245.889C103.277 245.284 103.166 244.744 102.944 244.27C102.732 243.785 102.409 243.402 101.975 243.119C101.541 242.837 100.986 242.695 100.31 242.695C99.7349 242.695 99.2404 242.821 98.8267 243.074C98.4129 243.326 98.0749 243.679 97.8125 244.133C97.5602 244.587 97.3685 245.122 97.2373 245.738C97.1162 246.343 97.0557 247.009 97.0557 247.736V248.341C97.0557 248.997 97.1465 249.603 97.3281 250.158C97.5199 250.713 97.7873 251.192 98.1304 251.596C98.4836 251.999 98.9074 252.312 99.4019 252.534C99.9064 252.756 100.477 252.867 101.112 252.867C101.899 252.867 102.631 252.716 103.307 252.413C103.993 252.1 104.584 251.631 105.078 251.005L107.197 253.306C106.854 253.801 106.385 254.275 105.79 254.729C105.204 255.183 104.498 255.556 103.67 255.849C102.843 256.132 101.899 256.273 100.84 256.273ZM97.7671 237.367L100.734 232.705H105.472L101.309 237.367H97.7671ZM114.402 243.165V255.97H110.043V239.592H114.145L114.402 243.165ZM119.337 239.486L119.261 243.528C119.049 243.498 118.792 243.472 118.489 243.452C118.197 243.422 117.929 243.407 117.687 243.407C117.071 243.407 116.537 243.487 116.083 243.649C115.639 243.8 115.265 244.027 114.962 244.33C114.67 244.633 114.448 245.001 114.296 245.435C114.155 245.869 114.074 246.363 114.054 246.918L113.176 246.646C113.176 245.586 113.282 244.613 113.494 243.725C113.706 242.826 114.014 242.044 114.417 241.378C114.831 240.712 115.336 240.198 115.931 239.834C116.527 239.471 117.208 239.29 117.975 239.29C118.217 239.29 118.464 239.31 118.716 239.35C118.969 239.38 119.175 239.426 119.337 239.486ZM125.997 239.592V255.97H121.623V239.592H125.997ZM121.35 235.324C121.35 234.688 121.572 234.163 122.016 233.75C122.46 233.336 123.056 233.129 123.802 233.129C124.539 233.129 125.129 233.336 125.573 233.75C126.027 234.163 126.254 234.688 126.254 235.324C126.254 235.959 126.027 236.484 125.573 236.898C125.129 237.312 124.539 237.519 123.802 237.519C123.056 237.519 122.46 237.312 122.016 236.898C121.572 236.484 121.35 235.959 121.35 235.324ZM139.272 262.267V242.938L139.832 239.592H143.662V262.267H139.272ZM128.918 247.948V247.63C128.918 246.379 129.055 245.243 129.327 244.224C129.61 243.195 130.023 242.317 130.568 241.59C131.113 240.854 131.779 240.289 132.566 239.895C133.364 239.491 134.282 239.29 135.321 239.29C136.32 239.29 137.183 239.491 137.91 239.895C138.636 240.299 139.247 240.869 139.741 241.605C140.246 242.342 140.649 243.21 140.952 244.209C141.255 245.208 141.487 246.303 141.648 247.494V248.19C141.497 249.33 141.265 250.39 140.952 251.369C140.649 252.347 140.246 253.205 139.741 253.942C139.247 254.679 138.631 255.254 137.895 255.667C137.168 256.071 136.3 256.273 135.291 256.273C134.272 256.273 133.364 256.066 132.566 255.652C131.779 255.229 131.113 254.643 130.568 253.896C130.023 253.15 129.61 252.272 129.327 251.263C129.055 250.243 128.918 249.139 128.918 247.948ZM133.278 247.63V247.948C133.278 248.624 133.333 249.26 133.444 249.855C133.555 250.44 133.732 250.96 133.974 251.414C134.226 251.868 134.549 252.226 134.943 252.489C135.336 252.741 135.821 252.867 136.396 252.867C137.193 252.867 137.834 252.696 138.318 252.353C138.813 251.999 139.176 251.52 139.408 250.915C139.65 250.309 139.792 249.618 139.832 248.841V246.858C139.802 246.222 139.716 245.652 139.575 245.147C139.444 244.633 139.242 244.194 138.969 243.831C138.707 243.467 138.364 243.19 137.94 242.998C137.526 242.796 137.022 242.695 136.426 242.695C135.861 242.695 135.377 242.821 134.973 243.074C134.569 243.326 134.242 243.679 133.989 244.133C133.747 244.577 133.565 245.097 133.444 245.692C133.333 246.288 133.278 246.934 133.278 247.63ZM156.785 252.05V239.592H161.145V255.97H157.042L156.785 252.05ZM157.27 248.689L158.556 248.659C158.556 249.749 158.43 250.763 158.178 251.702C157.925 252.63 157.547 253.437 157.042 254.124C156.538 254.8 155.902 255.329 155.135 255.713C154.368 256.086 153.465 256.273 152.426 256.273C151.629 256.273 150.892 256.162 150.216 255.94C149.55 255.708 148.975 255.35 148.49 254.865C148.016 254.371 147.643 253.74 147.37 252.973C147.108 252.196 146.977 251.263 146.977 250.173V239.592H151.336V250.203C151.336 250.688 151.391 251.096 151.502 251.429C151.624 251.762 151.79 252.035 152.002 252.247C152.214 252.458 152.461 252.61 152.744 252.701C153.036 252.792 153.359 252.837 153.712 252.837C154.611 252.837 155.317 252.655 155.832 252.292C156.356 251.929 156.725 251.434 156.937 250.809C157.159 250.173 157.27 249.466 157.27 248.689ZM172.013 256.273C170.741 256.273 169.601 256.071 168.592 255.667C167.583 255.254 166.725 254.684 166.019 253.957C165.322 253.23 164.787 252.388 164.414 251.429C164.041 250.46 163.854 249.431 163.854 248.341V247.736C163.854 246.495 164.031 245.359 164.384 244.33C164.737 243.301 165.242 242.408 165.897 241.651C166.563 240.894 167.371 240.314 168.319 239.91C169.268 239.496 170.338 239.29 171.528 239.29C172.689 239.29 173.718 239.481 174.616 239.865C175.514 240.248 176.266 240.793 176.872 241.5C177.487 242.206 177.951 243.054 178.264 244.042C178.577 245.021 178.733 246.111 178.733 247.312V249.128H165.716V246.222H174.45V245.889C174.45 245.284 174.339 244.744 174.117 244.27C173.905 243.785 173.582 243.402 173.148 243.119C172.714 242.837 172.159 242.695 171.483 242.695C170.908 242.695 170.413 242.821 170 243.074C169.586 243.326 169.248 243.679 168.985 244.133C168.733 244.587 168.541 245.122 168.41 245.738C168.289 246.343 168.229 247.009 168.229 247.736V248.341C168.229 248.997 168.319 249.603 168.501 250.158C168.693 250.713 168.96 251.192 169.303 251.596C169.656 251.999 170.08 252.312 170.575 252.534C171.079 252.756 171.649 252.867 172.285 252.867C173.072 252.867 173.804 252.716 174.48 252.413C175.166 252.1 175.757 251.631 176.251 251.005L178.37 253.306C178.027 253.801 177.558 254.275 176.962 254.729C176.377 255.183 175.671 255.556 174.843 255.849C174.016 256.132 173.072 256.273 172.013 256.273ZM190.071 251.444C190.071 251.132 189.98 250.849 189.798 250.597C189.617 250.344 189.279 250.112 188.784 249.9C188.3 249.678 187.598 249.477 186.68 249.295C185.853 249.113 185.081 248.886 184.364 248.614C183.658 248.331 183.042 247.993 182.518 247.6C182.003 247.206 181.599 246.742 181.307 246.207C181.014 245.662 180.868 245.042 180.868 244.345C180.868 243.659 181.014 243.013 181.307 242.408C181.609 241.802 182.038 241.267 182.593 240.803C183.158 240.329 183.845 239.961 184.652 239.698C185.469 239.426 186.388 239.29 187.407 239.29C188.83 239.29 190.051 239.517 191.07 239.971C192.099 240.425 192.886 241.05 193.431 241.848C193.986 242.635 194.264 243.533 194.264 244.542H189.904C189.904 244.118 189.813 243.74 189.632 243.407C189.46 243.064 189.188 242.796 188.814 242.604C188.451 242.403 187.977 242.302 187.392 242.302C186.907 242.302 186.488 242.388 186.135 242.559C185.782 242.721 185.51 242.943 185.318 243.225C185.136 243.498 185.045 243.8 185.045 244.133C185.045 244.386 185.096 244.613 185.197 244.814C185.308 245.006 185.484 245.183 185.727 245.344C185.969 245.506 186.282 245.657 186.665 245.798C187.059 245.93 187.543 246.051 188.118 246.162C189.299 246.404 190.353 246.722 191.282 247.115C192.21 247.499 192.947 248.023 193.492 248.689C194.037 249.345 194.309 250.208 194.309 251.278C194.309 252.004 194.148 252.67 193.825 253.276C193.502 253.881 193.038 254.411 192.432 254.865C191.827 255.309 191.1 255.657 190.252 255.91C189.415 256.152 188.471 256.273 187.422 256.273C185.898 256.273 184.606 256 183.547 255.456C182.497 254.911 181.7 254.219 181.155 253.382C180.62 252.534 180.353 251.666 180.353 250.778H184.485C184.506 251.374 184.657 251.853 184.939 252.216C185.232 252.58 185.6 252.842 186.044 253.003C186.499 253.165 186.988 253.246 187.513 253.246C188.078 253.246 188.547 253.17 188.92 253.019C189.294 252.857 189.576 252.645 189.768 252.383C189.97 252.11 190.071 251.798 190.071 251.444Z" fill="#222222"/>
<rect x="30" y="284.356" width="18" height="18.8169" fill="#FAC04F"/>
<rect x="53" y="284.356" width="18" height="18.8169" fill="#FAC04F"/>
<rect x="76" y="284.356" width="18" height="18.8169" fill="#FAC04F"/>
<rect x="99" y="284.356" width="18" height="18.8169" fill="#FAC04F"/>
<rect x="122" y="284.356" width="18" height="18.8169" fill="#FAC04F"/>
<rect x="145" y="284.356" width="18" height="18.8169" fill="#FAC04F"/>
<rect x="168" y="284.356" width="18" height="18.8169" fill="#FAC04F"/>
<rect x="191" y="284.356" width="18" height="18.8169" fill="#E4E4E4"/>
<rect x="214" y="284.356" width="18" height="18.8169" fill="#E4E4E4"/>
<rect x="237" y="284.356" width="18" height="18.8169" fill="#E4E4E4"/>
<rect x="217" y="18" width="50" height="47.0423" rx="16" fill="#A8EC6C"/>
<path fill-rule="evenodd" clip-rule="evenodd" d="M245.75 29.875H238.25V37.9996H230.125L230.125 45.4999H238.25V53.626H245.75V45.4999H253.876V37.9996H245.75V29.875Z" fill="#212121"/>
</svg>
