<svg width="547" height="242" viewBox="0 0 547 242" fill="none" xmlns="http://www.w3.org/2000/svg">
<rect x="1.5" y="1.5" width="544" height="238.686" rx="30.5" fill="white"/>
<rect x="1.5" y="1.5" width="544" height="238.686" rx="30.5" stroke="#212121" stroke-width="3"/>
<path d="M170.877 120.843C170.877 127.967 169.617 134.815 167.313 141.172C167.221 141.417 167.128 141.694 167.036 141.939C165.838 145.133 164.363 148.173 162.643 151.059C159.908 155.696 156.528 159.934 152.657 163.649C152.35 163.957 152.012 164.264 151.674 164.571C151.52 164.724 151.366 164.847 151.244 164.97C150.906 165.277 150.568 165.584 150.23 165.86C149.431 166.536 148.632 167.212 147.802 167.856C145.652 169.515 143.378 171.05 140.981 172.401C139.507 173.23 138.001 174.029 136.465 174.735C132.932 176.362 129.214 177.683 125.312 178.604C123.56 179.034 121.748 179.372 119.935 179.617C117.907 179.894 115.848 180.078 113.759 180.17C113.022 180.201 112.254 180.201 111.486 180.201C105.556 180.201 99.8101 179.341 94.4025 177.714C94.1874 177.652 94.0031 177.591 93.788 177.529C91.4222 176.792 89.1485 175.932 86.9056 174.919C84.9085 174.029 82.9728 173.015 81.1293 171.91C81.0986 171.879 81.0679 171.879 81.0371 171.848C80.1461 171.296 79.2244 170.743 78.3641 170.159C77.5345 169.607 76.7357 169.023 75.9368 168.44C74.124 167.089 72.3727 165.615 70.7443 164.049C70.1298 163.465 69.5153 162.851 68.9008 162.237C67.4567 160.732 66.0741 159.166 64.7837 157.508C64.7529 157.477 64.7222 157.416 64.6915 157.385C63.4318 155.758 62.2335 154.069 61.1581 152.318C60.052 150.568 59.0381 148.756 58.1471 146.883C57.594 145.747 57.0717 144.58 56.5801 143.382C56.5187 143.26 56.4879 143.137 56.4265 143.014C55.6891 141.172 55.0439 139.298 54.4908 137.394C54.3679 136.934 54.2143 136.443 54.0914 135.982C54.0299 135.706 53.9378 135.429 53.8763 135.122C53.7534 134.6 53.6305 134.047 53.5076 133.525C52.5859 129.411 52.125 125.173 52.125 120.843C52.125 120.137 52.125 119.461 52.1557 118.755C53.2618 86.9419 79.4087 61.4854 111.516 61.4854C137.54 61.4854 159.662 78.221 167.681 101.528C168.665 104.384 169.433 107.332 169.986 110.372C170.17 111.324 170.293 112.276 170.416 113.258C170.723 115.746 170.877 118.264 170.877 120.843Z" fill="#C7C7C7"/>
<path fill-rule="evenodd" clip-rule="evenodd" d="M173.057 143.293L173.045 143.325C173.024 143.382 172.998 143.455 172.948 143.597L172.942 143.615C172.899 143.734 172.836 143.913 172.769 144.093C171.44 147.634 169.807 150.999 167.909 154.185C164.894 159.295 161.179 163.953 156.937 168.032C156.557 168.408 156.166 168.765 155.869 169.035C155.721 169.177 155.596 169.289 155.536 169.343L155.508 169.368L155.468 169.408L155.321 169.541C155.018 169.817 154.596 170.201 154.148 170.569L154.142 170.574C153.369 171.228 152.489 171.972 151.559 172.695L151.549 172.703L151.54 172.71C149.185 174.525 146.668 176.228 143.987 177.74L143.981 177.743C142.426 178.617 140.764 179.501 139.025 180.301M150.229 165.861C150.567 165.584 150.905 165.277 151.243 164.97C151.301 164.912 151.366 164.854 151.434 164.793C151.511 164.725 151.592 164.652 151.673 164.571C152.011 164.264 152.349 163.957 152.656 163.65C156.527 159.934 159.907 155.697 162.642 151.06C164.362 148.173 165.837 145.133 167.035 141.94C167.081 141.817 167.127 141.686 167.174 141.556C167.22 141.425 167.266 141.295 167.312 141.172C169.616 134.815 170.876 127.968 170.876 120.843C170.876 118.264 170.722 115.746 170.415 113.259C170.292 112.276 170.169 111.324 169.985 110.372C169.432 107.332 168.664 104.384 167.681 101.528C159.661 78.2213 137.539 61.4857 111.515 61.4857C79.4078 61.4857 53.2609 86.9422 52.1548 118.755C52.1241 119.462 52.1241 120.137 52.1241 120.843C52.1241 125.173 52.585 129.411 53.5067 133.526C53.5682 133.787 53.6296 134.055 53.6911 134.324C53.7525 134.593 53.814 134.861 53.8754 135.122C53.9098 135.294 53.9538 135.457 53.9967 135.615C54.0304 135.739 54.0634 135.861 54.0905 135.982C54.152 136.213 54.2211 136.451 54.2902 136.689C54.3593 136.926 54.4285 137.164 54.4899 137.395C55.043 139.299 55.6882 141.172 56.4256 143.014C56.4563 143.076 56.4794 143.137 56.5024 143.199C56.5255 143.26 56.5485 143.321 56.5792 143.383C57.0708 144.58 57.5931 145.747 58.1462 146.883C59.0372 148.757 60.0511 150.568 61.1572 152.319C62.2326 154.069 63.4309 155.758 64.6906 157.385C64.706 157.401 64.7213 157.424 64.7367 157.447C64.7521 157.47 64.7674 157.493 64.7828 157.508C66.0732 159.166 67.4558 160.733 68.8999 162.237C69.5144 162.851 70.1289 163.466 70.7434 164.049C72.3718 165.615 74.1231 167.089 75.9359 168.44C76.7348 169.024 77.5336 169.607 78.3632 170.16C79.0374 170.617 79.7493 171.055 80.4546 171.49C80.6493 171.61 80.8435 171.729 81.0363 171.849C81.0516 171.864 81.067 171.872 81.0823 171.879C81.0977 171.887 81.1131 171.895 81.1284 171.91C82.9719 173.016 84.9076 174.029 86.9047 174.919C89.1476 175.933 91.4213 176.793 93.7871 177.53C93.8946 177.56 93.9945 177.591 94.0943 177.622C94.1942 177.652 94.2941 177.683 94.4016 177.714C99.8092 179.341 105.555 180.201 111.485 180.201C112.253 180.201 113.021 180.201 113.758 180.17C115.848 180.078 117.906 179.894 119.934 179.618C121.747 179.372 123.56 179.034 125.311 178.604C129.213 177.683 132.931 176.363 136.464 174.735C138 174.029 139.506 173.231 140.981 172.401C143.377 171.05 145.651 169.515 147.801 167.857C148.631 167.212 149.43 166.536 150.229 165.861ZM139.024 180.301C135.159 182.082 131.064 183.54 126.744 184.562C124.775 185.044 122.758 185.418 120.756 185.69C118.541 185.991 116.298 186.192 114.028 186.292L114.02 186.292L114.013 186.292C113.147 186.328 112.271 186.328 111.538 186.328H111.485C104.976 186.328 98.6482 185.386 92.6746 183.593C92.5177 183.547 92.3799 183.505 92.2951 183.479C92.1884 183.446 92.1456 183.433 92.1063 183.422L92.0362 183.402L91.9665 183.38C89.3742 182.572 86.8708 181.626 84.3979 180.51C82.1733 179.517 80.0238 178.391 77.9801 177.166L77.3336 176.778L77.294 176.738C76.588 176.304 75.7359 175.779 74.9485 175.246C74.0161 174.624 73.1345 173.98 72.3683 173.421L72.3011 173.372L72.2773 173.354C70.2766 171.863 68.3331 170.229 66.5137 168.48C65.847 167.847 65.191 167.191 64.5977 166.598L64.5267 166.527L64.4825 166.481C62.9459 164.88 61.4423 163.182 60.0181 161.359C59.929 161.249 59.8583 161.155 59.8087 161.087C59.8034 161.079 59.7982 161.072 59.7932 161.065C58.4583 159.337 57.1539 157.5 55.9604 155.561C54.7508 153.644 53.6266 151.637 52.6284 149.542C52.0406 148.333 51.4861 147.096 50.9645 145.833C50.9247 145.743 50.8917 145.665 50.865 145.599C50.8577 145.581 50.8506 145.563 50.8437 145.546L50.8351 145.529L50.7404 145.292C49.9286 143.264 49.2181 141.201 48.6092 139.105L48.5904 139.04L48.573 138.975C48.532 138.821 48.4823 138.649 48.4094 138.399L48.4026 138.375C48.3379 138.152 48.2526 137.859 48.1736 137.563L48.1404 137.438L48.1176 137.336C48.1171 137.334 48.1166 137.332 48.116 137.329C48.109 137.303 48.1033 137.282 48.0923 137.241C48.0869 137.221 48.0802 137.196 48.0714 137.164L48.071 137.163C48.0341 137.026 47.9629 136.763 47.8958 136.448C47.8363 136.194 47.7778 135.938 47.7234 135.7L47.7213 135.691C47.659 135.418 47.6019 135.169 47.5458 134.93L47.5381 134.898L47.5309 134.866C46.5076 130.298 46 125.61 46 120.843L46 120.795C46 120.126 46 119.347 46.0353 118.516C47.2692 83.4231 76.1104 55.3584 111.515 55.3584C140.229 55.3584 164.625 73.826 173.471 99.5328C174.554 102.678 175.397 105.916 176.004 109.242C176.228 110.408 176.371 111.536 176.492 112.498L176.493 112.507C176.832 115.249 177 118.019 177 120.843C177 128.695 175.611 136.249 173.069 143.261L173.057 143.293" fill="#212121"/>
<path d="M125.711 177.498H93.8184C91.4526 176.761 89.179 175.902 86.9361 174.888C84.9389 173.998 83.0033 172.984 81.1598 171.879C81.129 171.848 81.0983 171.848 81.0676 171.817C80.1766 171.265 79.2548 170.712 78.3945 170.129V150.291L79.8386 147.221L80.8832 145.01L81.1905 144.365L84.2323 137.886L84.5702 137.21L87.2126 131.56L87.274 131.406L88.6874 128.366L91.3912 122.562L93.4497 125.848L95.4776 129.103L99.1646 134.968L101.039 137.978L114.742 159.934L116.371 162.544L117.722 164.693L123.56 174.059L125.711 177.498Z" fill="#B06C6C"/>
<path d="M96.3692 142.646L80.6995 135.399C79.5626 134.877 79.071 133.557 79.5934 132.421L90.6851 108.438C91.2074 107.302 92.5285 106.81 93.6654 107.333L109.335 114.579C110.472 115.102 110.963 116.422 110.441 117.558L99.3495 141.541C98.7964 142.677 97.4753 143.168 96.3692 142.646Z" fill="#FBFEFF"/>
<path d="M107.292 117.352L92.6504 110.588L83.7032 129.932L98.3449 136.697L107.292 117.352Z" fill="#868686"/>
<path d="M100.98 114.457L86.2009 124.867L83.8965 129.842L90.2258 132.759L104.943 122.41L107.278 117.344L100.98 114.457Z" fill="#9C9C9C"/>
<path d="M91.4848 134.877L89.5798 133.987C89.3955 133.895 89.1804 133.833 88.996 133.833C88.7502 133.802 88.4737 133.864 88.2586 133.956C87.9207 134.11 87.6134 134.386 87.4291 134.754L87.3983 134.847C87.0296 135.676 87.3676 136.628 88.1972 136.996L90.01 137.856L90.1021 137.917C90.5937 138.132 91.1161 138.102 91.5462 137.856C91.8535 137.702 92.0993 137.426 92.2529 137.088L92.2836 137.027C92.6523 136.228 92.3143 135.246 91.4848 134.877ZM90.2865 137.457L88.3815 136.566C87.8899 136.32 87.6441 135.768 87.767 135.246C87.767 135.184 87.7978 135.123 87.8285 135.092L87.8592 135C88.105 134.447 88.781 134.202 89.334 134.447L91.239 135.338C91.792 135.584 92.0378 136.259 91.792 136.812L91.7613 136.873C91.7306 136.935 91.6998 136.965 91.6691 137.027C91.3926 137.518 90.8088 137.672 90.2865 137.457Z" fill="#566C78"/>
<path d="M98.8902 112.216C99.1617 112.216 99.3819 111.996 99.3819 111.725C99.3819 111.453 99.1617 111.233 98.8902 111.233C98.6186 111.233 98.3984 111.453 98.3984 111.725C98.3984 111.996 98.6186 112.216 98.8902 112.216Z" fill="black"/>
<path d="M100.64 113.045C100.912 113.045 101.132 112.825 101.132 112.554C101.132 112.282 100.912 112.062 100.64 112.062C100.369 112.062 100.148 112.282 100.148 112.554C100.148 112.825 100.369 113.045 100.64 113.045Z" fill="black"/>
<path d="M102.394 113.936C102.666 113.936 102.886 113.716 102.886 113.444C102.886 113.173 102.666 112.953 102.394 112.953C102.122 112.953 101.902 113.173 101.902 113.444C101.902 113.716 102.122 113.936 102.394 113.936Z" fill="black"/>
<path d="M91.852 136.812L91.8213 136.904C91.7906 136.965 91.7599 136.996 91.7291 137.058C91.3604 137.272 90.8996 137.303 90.4694 137.119L88.5337 136.228C88.1036 136.044 87.8578 135.645 87.7656 135.246C87.7656 135.184 87.7963 135.154 87.8271 135.092L87.8578 135C88.1343 134.417 88.8103 134.171 89.3633 134.447L91.299 135.338C91.852 135.553 92.0978 136.259 91.852 136.812Z" fill="#8EAABD"/>
<path d="M79.9907 150.446L78.393 152.135L70.9269 160.057L68.899 162.207C67.455 160.702 66.0723 159.136 64.7819 157.478C64.7512 157.447 64.7205 157.386 64.6897 157.355C63.43 155.727 62.2317 154.038 61.1564 152.288C60.0503 150.538 59.0363 148.726 58.1453 146.853C57.5923 145.717 57.0699 144.55 56.5784 143.352C56.5169 143.229 56.4862 143.107 56.4247 142.984C55.6873 141.141 55.0421 139.268 54.4891 137.364C54.3662 136.904 54.2125 136.412 54.0896 135.952C54.0282 135.675 53.936 135.399 53.8746 135.092C53.7517 134.57 53.6288 134.017 53.5059 133.495L57.5001 129.257C58.3604 128.367 59.7737 128.305 60.6648 129.165L63.3993 131.745L66.1645 134.355L71.7872 139.637L78.0858 145.563L79.8064 147.191L79.8678 147.252C80.7896 148.112 80.8203 149.524 79.9907 150.446Z" fill="#667C8B"/>
<path d="M74.953 146.669L72.5872 149.187L67.7327 154.346L64.7831 157.478C64.7524 157.447 64.7216 157.386 64.6909 157.355C63.4312 155.728 62.2329 154.039 61.1575 152.289C60.0514 150.538 59.0375 148.727 58.1465 146.853C57.5935 145.717 57.0711 144.55 56.5795 143.353C56.5181 143.23 56.4874 143.107 56.4259 142.984C55.6885 141.142 55.0433 139.269 54.4902 137.365L54.7053 137.15L59.4677 132.083L61.7106 134.202L63.5234 135.891L65.5512 137.795L69.5762 141.572L74.953 146.669Z" fill="#C5DADD"/>
<path d="M73.4156 152.595L73.3542 152.534C72.7089 151.92 71.6643 151.95 71.0498 152.595L69.6057 154.131C69.4521 154.284 69.3599 154.468 69.2678 154.653C69.1756 154.898 69.1449 155.144 69.1756 155.42C69.2063 155.789 69.3907 156.157 69.6672 156.434L69.7286 156.495C70.3739 157.109 71.4185 157.079 72.033 156.434L73.4771 154.898C74.1223 154.223 74.0916 153.209 73.4156 152.595ZM73.1391 154.53L71.695 156.065C71.3263 156.464 70.7118 156.526 70.251 156.219C70.2202 156.188 70.1588 156.157 70.1281 156.096L70.0666 156.035C69.6057 155.605 69.6057 154.898 70.0359 154.468L71.48 152.933C71.9101 152.472 72.6168 152.472 73.0776 152.872L73.1391 152.933C73.1698 152.964 73.2313 153.025 73.262 153.056C73.5385 153.516 73.5078 154.131 73.1391 154.53Z" fill="#566C78"/>
<path d="M54.5184 135.798C54.3955 135.921 54.2418 135.982 54.0882 135.952C54.0267 135.675 53.9345 135.399 53.873 135.092C54.0574 134.939 54.334 134.939 54.5184 135.123C54.6721 135.307 54.6721 135.614 54.5184 135.798Z" fill="black"/>
<path d="M73.0174 152.872L73.0789 152.933C73.1096 152.964 73.1403 152.995 73.2018 153.056C73.2939 153.486 73.171 153.947 72.8638 154.254L71.389 155.82C71.0817 156.157 70.6209 156.28 70.1907 156.25C70.16 156.219 70.0986 156.188 70.0678 156.157L70.0064 156.096C69.5455 155.666 69.5148 154.929 69.9449 154.499L71.4197 152.933C71.8499 152.442 72.5565 152.442 73.0174 152.872Z" fill="#8EAABD"/>
<path d="M81.1599 137.886V171.879C81.1291 171.849 81.0984 171.849 81.0677 171.818C80.1767 171.265 79.2549 170.713 78.3946 170.129C77.565 169.576 76.7662 168.993 75.9673 168.41C74.1546 167.058 72.4033 165.584 70.7748 164.018C70.1603 163.435 69.5458 162.821 68.9313 162.207C67.4873 160.702 66.1047 159.136 64.8142 157.478C64.7835 157.447 64.7528 157.385 64.722 157.355C63.4623 155.727 62.264 154.038 61.1887 152.288C60.0826 150.538 59.0686 148.726 58.1776 146.853C57.6246 145.717 57.1023 144.55 56.6107 143.352C56.5492 143.229 56.5185 143.106 56.457 142.984L56.4878 142.953C57.133 142.369 57.9318 141.847 58.8843 141.448C60.4513 140.803 62.4484 140.496 65.0293 140.803C65.1215 140.803 65.2136 140.834 65.3365 140.834C66.5655 140.988 67.9174 141.295 69.3922 141.755L69.6073 141.571L71.8502 139.637L75.8137 136.197L77.1349 137.855H81.1599V137.886Z" fill="#4B5A59"/>
<path d="M93.5724 137.886H77.0731L75.752 136.228L78.4557 133.894L79.3468 127.261C79.3468 127.261 85.0923 116.237 96.8907 121.795C88.2877 128.889 93.5724 137.886 93.5724 137.886Z" fill="#4B5A59"/>
<path d="M94.7386 177.5C94.6464 177.561 94.5543 177.622 94.4314 177.684C94.2163 177.622 94.0319 177.561 93.8169 177.5C91.451 176.763 89.1774 175.903 86.9345 174.889C84.9374 173.999 83.0017 172.986 81.1582 171.88V137.887H93.5711C93.5711 137.887 93.5403 137.825 93.4789 137.703C93.4482 137.641 93.4174 137.61 93.3867 137.518C93.2945 137.334 93.1716 137.088 93.0487 136.781C92.9873 136.658 92.9258 136.505 92.8644 136.351C92.7415 136.044 92.6186 135.707 92.5264 135.338C92.4957 135.215 92.465 135.092 92.4035 134.939C92.3728 134.877 92.3728 134.816 92.3421 134.724C92.2806 134.447 92.2192 134.171 92.1577 133.864C92.127 133.772 92.127 133.68 92.127 133.588C92.127 133.496 92.0963 133.434 92.0963 133.342C92.0655 133.188 92.0655 133.004 92.0348 132.82C92.0348 132.728 92.0041 132.666 92.0041 132.574C91.9734 132.237 91.9426 131.899 91.9426 131.561V131.5C91.9426 131.346 91.9426 131.192 91.9426 131.039C91.9426 130.947 91.9426 130.855 91.9734 130.763C91.9734 130.732 91.9734 130.701 91.9734 130.701C92.127 130.824 92.2806 130.947 92.4342 131.1C92.465 131.131 92.4957 131.131 92.4957 131.162C92.4957 131.162 92.4957 131.162 92.5264 131.162C92.5571 131.192 92.6186 131.223 92.6493 131.254C92.7108 131.315 92.8029 131.377 92.8951 131.469C92.9258 131.5 92.9566 131.53 93.018 131.561C93.0795 131.622 93.1409 131.684 93.2024 131.745C93.2331 131.776 93.2945 131.807 93.3253 131.868C93.3867 131.899 93.4174 131.96 93.4789 131.991C93.5403 132.022 93.5711 132.083 93.6325 132.114C93.694 132.144 93.7554 132.206 93.7861 132.267C93.8783 132.359 93.9705 132.421 94.0627 132.513C94.1856 132.605 94.2777 132.728 94.4006 132.851C94.4314 132.881 94.4314 132.881 94.4621 132.912C94.5235 132.974 94.5543 133.004 94.6157 133.066C94.6464 133.127 94.7079 133.158 94.7386 133.219C94.8308 133.311 94.8922 133.373 94.9844 133.465C95.0151 133.496 95.0151 133.496 95.0459 133.526C95.138 133.618 95.2302 133.711 95.2917 133.803C95.4146 133.956 95.5375 134.079 95.6604 134.233C95.7525 134.355 95.8447 134.447 95.9369 134.57C95.9676 134.601 95.9983 134.632 95.9983 134.662C96.0905 134.785 96.2134 134.908 96.3056 135.031C96.4285 135.184 96.5514 135.338 96.6743 135.492C96.705 135.553 96.7357 135.584 96.7972 135.645C96.8279 135.676 96.8586 135.707 96.8894 135.768L96.9201 135.799C96.9508 135.829 96.9508 135.86 96.9815 135.891C97.0123 135.921 97.043 135.952 97.043 135.983C97.1044 136.044 97.1352 136.075 97.1659 136.136C97.1659 136.167 97.1966 136.167 97.1966 136.198C97.3502 136.413 97.5039 136.597 97.6575 136.812C97.6882 136.843 97.7189 136.873 97.7189 136.904C97.8111 137.027 97.9033 137.15 97.9955 137.303C98.0262 137.334 98.0569 137.365 98.0876 137.426C98.1184 137.488 98.1798 137.549 98.2105 137.61C98.2105 137.61 98.2105 137.61 98.2105 137.641L98.2413 137.672C98.272 137.703 98.272 137.703 98.272 137.733C98.3027 137.764 98.3334 137.825 98.3642 137.887C98.3642 137.917 98.3949 137.917 98.3949 137.917C98.5178 138.132 98.6714 138.317 98.7943 138.532C98.7943 138.532 98.825 138.562 98.825 138.593C98.825 138.593 98.825 138.624 98.8558 138.624C98.8865 138.685 98.9172 138.716 98.9479 138.777C99.0094 138.869 99.0401 138.931 99.1015 139.023C99.1937 139.176 99.2859 139.33 99.3781 139.484C99.3781 139.484 99.4088 139.514 99.4088 139.545C99.5624 139.791 99.716 140.067 99.8389 140.313C99.9618 140.528 100.054 140.743 100.177 140.927C100.238 141.05 100.3 141.142 100.361 141.265C100.484 141.48 100.576 141.725 100.699 141.94C100.699 141.971 100.73 141.971 100.73 142.002C100.914 142.37 101.068 142.739 101.252 143.107C101.283 143.199 101.314 143.261 101.344 143.353C101.375 143.445 101.437 143.537 101.467 143.66C101.59 143.967 101.713 144.274 101.836 144.581C107.09 157.755 103.833 171.634 94.7386 177.5Z" fill="white"/>
<path d="M80.8206 117.743C80.667 118.357 80.4212 118.94 80.0832 119.432L76.1812 126.894L72.0026 128.306C71.4188 127.846 69.83 128.367 68.1402 128.09C54.1911 126.033 61.9555 114.549 61.9555 114.549C62.7237 114.457 63.5225 114.519 64.3521 114.764C64.9666 114.948 65.5196 115.194 66.042 115.501C66.042 115.501 66.042 115.501 66.0727 115.501C66.1034 115.532 66.1341 115.532 66.1341 115.563C66.5335 115.808 67.9776 116.515 68.4385 114.795C68.4692 114.641 68.4999 114.488 68.5307 114.334C69.4217 110.956 72.8936 108.991 76.2733 109.943C79.6838 110.864 81.7117 114.365 80.8206 117.743Z" fill="#EA556A"/>
<path d="M169.63 102.461H169.247L162.357 112.418L163.506 114.332L168.864 113.184L171.544 108.588L171.161 105.908L169.63 102.461Z" fill="#EBAE56"/>
<path d="M166.852 114.947L159.416 117.188L153.947 114.67C154.838 114.302 156.282 114.118 158.341 114.118C176.868 114.271 169.279 102.142 169.279 102.142C171.061 103.124 172.382 104.875 172.689 107.024C173.243 110.801 170.631 114.333 166.852 114.947Z" fill="#EBAE56"/>
<path d="M158.34 114.118C156.282 114.087 154.868 114.302 153.947 114.671L150.628 113.135L147.31 104.629C147.033 104.046 146.818 103.401 146.726 102.725C146.173 98.9789 148.785 95.4476 152.533 94.8334C156.282 94.2193 159.815 96.7373 160.368 100.484C160.399 100.637 160.399 100.821 160.43 100.975C160.737 102.879 162.396 102.265 162.826 102.08C162.857 102.08 162.888 102.05 162.918 102.05C162.949 102.05 162.949 102.019 162.949 102.019C163.533 101.743 164.178 101.528 164.854 101.405C166.452 101.128 167.988 101.436 169.278 102.142C169.248 102.142 176.837 114.302 158.34 114.118Z" fill="#FAC04F"/>
<path d="M155.852 125.438L157.765 115.481L159.679 115.864L161.593 118.162L163.889 131.565L163.124 143.054L159.296 146.118L155.469 144.203L155.852 125.438Z" fill="#EBAE56"/>
<path d="M167.776 136.933C167.653 138.592 167.407 140.25 167.038 141.939C165.84 145.132 164.365 148.172 162.644 151.059C159.91 155.696 156.53 159.933 152.659 163.649C152.198 163.588 151.737 163.526 151.307 163.465C151.092 163.434 150.877 163.403 150.662 163.373C147.159 162.82 144.578 161.96 144.24 160.609C144.056 159.872 144.547 158.951 145.961 157.876C146.668 157.323 147.62 156.74 148.818 156.095C154.349 153.178 157.391 148.172 158.957 142.553C161.446 133.586 160.156 123.084 159.019 117.096C159.019 117.066 158.988 117.004 158.988 116.974C158.773 115.837 158.558 114.885 158.374 114.148C159.449 114.885 160.432 115.715 161.354 116.636C162.122 117.403 162.829 118.263 163.443 119.154C164.795 121.058 165.871 123.238 166.608 125.602C167.007 126.831 167.284 128.09 167.499 129.41C167.868 131.805 167.96 134.323 167.776 136.933Z" fill="#EBAE56"/>
<path d="M158.894 142.553C157.327 148.173 154.285 153.178 148.755 156.095C147.557 156.74 146.604 157.323 145.898 157.876C144.484 158.951 143.993 159.841 144.177 160.609C144.515 161.96 147.096 162.82 150.598 163.373C150.814 163.403 151.029 163.434 151.244 163.465C151.674 163.526 152.135 163.588 152.596 163.649C152.288 163.956 151.95 164.263 151.612 164.57C151.459 164.724 151.305 164.847 151.182 164.97C150.844 165.277 150.506 165.584 150.168 165.86C149.83 166.075 149.462 166.259 149.124 166.444C148.632 166.72 148.11 166.966 147.587 167.211C142.057 169.821 136.158 170.466 130.812 168.747C130.289 168.593 129.798 168.378 129.275 168.163C128.415 166.658 127.616 165.092 126.848 163.526C126.817 163.465 126.817 163.434 126.787 163.373C126.019 161.745 125.343 160.087 124.697 158.398C124.513 157.876 124.329 157.354 124.144 156.832C124.083 156.648 124.021 156.494 123.96 156.341L123.929 156.31L123.96 156.279C123.683 155.481 123.438 154.683 123.223 153.884C123.192 153.792 123.161 153.7 123.13 153.577C122.946 152.932 122.762 152.287 122.608 151.642C121.871 148.787 121.348 145.869 121.01 142.952C120.98 142.553 120.918 142.185 120.887 141.785C120.857 141.478 120.826 141.14 120.795 140.833C120.765 140.373 120.734 139.943 120.703 139.482C120.549 136.903 120.549 134.323 120.703 131.744C120.765 130.792 120.826 129.871 120.918 128.919C121.625 127.568 122.424 126.278 123.253 125.05C124.359 123.453 125.558 121.948 126.817 120.597C132.286 114.763 139.2 111.231 145.898 110.832C147.188 110.74 148.448 110.771 149.707 110.924C152.043 111.201 154.285 111.876 156.405 112.982C157.051 113.319 157.665 113.688 158.249 114.087C158.433 114.855 158.618 115.807 158.863 116.912C158.863 116.943 158.894 117.004 158.894 117.035C160.092 123.084 161.414 133.586 158.894 142.553Z" fill="#FAC04F"/>
<path d="M163.256 119.092L146.634 111.415C145.835 111.047 145.497 110.095 145.866 109.296C146.234 108.498 147.187 108.16 147.986 108.529L164.608 116.206C165.407 116.574 165.745 117.526 165.376 118.324C164.977 119.092 164.055 119.461 163.256 119.092Z" fill="#E2A552"/>
<path d="M158.893 142.554C155.114 139.698 149.89 141.848 149.675 141.94C149.767 141.848 151.181 140.527 148.231 135.86C145.189 131.008 138.737 134.232 138.737 134.232C138.737 134.232 139.997 127.599 132.654 122.533C130.749 121.212 128.782 120.69 126.939 120.66C121.593 120.506 117.045 124.222 117.045 124.222C117.045 124.222 116.892 117.927 110.624 116.698C110.102 116.606 109.549 116.514 108.965 116.514C107.859 116.453 106.845 116.575 105.984 116.76C100.7 118.019 99.6244 123.3 99.6244 123.3C99.563 123.27 99.5015 123.239 99.4401 123.178C98.5491 122.625 97.7195 122.164 96.8899 121.765C96.5519 122.041 96.2447 122.318 95.9682 122.594C95.9374 122.625 95.9067 122.656 95.8453 122.686C95.8145 122.717 95.7838 122.748 95.7224 122.778C95.6609 122.84 95.5995 122.901 95.538 122.963C95.5073 123.024 95.4458 123.055 95.4151 123.116C95.3844 123.147 95.3844 123.147 95.3537 123.178C95.2922 123.239 95.2308 123.3 95.1693 123.393C95.1386 123.423 95.1079 123.454 95.0771 123.515C95.0157 123.577 94.9542 123.669 94.8928 123.73C94.8006 123.822 94.7392 123.915 94.647 124.007C94.4934 124.191 94.3705 124.344 94.2476 124.529C94.1861 124.621 94.0939 124.744 94.0325 124.836C93.971 124.928 93.8789 125.051 93.8174 125.143C93.756 125.235 93.6945 125.358 93.6331 125.45C93.6023 125.511 93.5716 125.573 93.5409 125.634C93.5102 125.665 93.5102 125.696 93.4794 125.726C93.4487 125.757 93.4487 125.788 93.418 125.818C93.3565 125.911 93.3258 126.003 93.2644 126.095C93.2029 126.187 93.1722 126.31 93.1107 126.402C93.08 126.463 93.0493 126.525 93.0186 126.586C92.9878 126.678 92.9571 126.74 92.8957 126.832C92.8649 126.924 92.8342 126.985 92.8035 127.077C92.7728 127.17 92.742 127.262 92.7113 127.354C92.6806 127.446 92.6499 127.538 92.5884 127.661C92.5577 127.722 92.527 127.814 92.4962 127.907C92.4655 127.968 92.4655 128.029 92.4348 128.091C92.3733 128.275 92.3426 128.429 92.2812 128.613C92.2504 128.705 92.2197 128.828 92.2197 128.92C92.189 129.043 92.1583 129.166 92.1583 129.288C92.1276 129.381 92.1275 129.442 92.1275 129.534C92.0968 129.718 92.0661 129.933 92.0354 130.117C92.0354 130.179 92.0047 130.24 92.0047 130.302C92.0047 130.363 92.0046 130.425 91.9739 130.455C91.9739 130.547 91.9739 130.64 91.9432 130.732C92.0968 130.854 92.2505 130.977 92.4041 131.131C92.4348 131.162 92.4655 131.162 92.4655 131.192C92.4655 131.192 92.4655 131.192 92.4962 131.192C92.527 131.223 92.5884 131.254 92.6191 131.284C92.6806 131.346 92.7728 131.407 92.8649 131.499C92.8957 131.53 92.9264 131.561 92.9878 131.591C93.0493 131.653 93.1107 131.714 93.1722 131.776C93.2029 131.806 93.2644 131.837 93.2951 131.899C93.3565 131.929 93.3873 131.991 93.4487 132.021C93.5102 132.052 93.5409 132.113 93.6023 132.144C93.6638 132.175 93.7252 132.236 93.756 132.298C93.8481 132.39 93.9403 132.451 94.0325 132.543C94.1554 132.636 94.2476 132.758 94.3705 132.881C94.4012 132.912 94.4012 132.912 94.4319 132.943C94.4934 133.004 94.5241 133.035 94.5855 133.096C94.6163 133.158 94.6777 133.188 94.7084 133.25C94.8006 133.342 94.8928 133.465 95.0157 133.557C95.1079 133.649 95.2 133.741 95.2615 133.833C95.3844 133.987 95.5073 134.109 95.6302 134.263C95.7224 134.386 95.8145 134.478 95.9067 134.601C95.9374 134.631 95.9682 134.662 95.9682 134.693C96.0603 134.816 96.1832 134.939 96.2754 135.061C96.3983 135.215 96.5212 135.368 96.6441 135.522C96.6748 135.583 96.7056 135.614 96.767 135.676C96.7977 135.706 96.8285 135.737 96.8592 135.798C96.9206 135.86 96.9821 135.952 97.0435 136.013C97.105 136.075 97.1357 136.105 97.1664 136.167C97.1664 136.198 97.1972 136.198 97.1972 136.228C97.3508 136.443 97.5044 136.627 97.658 136.842C97.6888 136.873 97.7195 136.904 97.7195 136.935C97.8117 137.057 97.9038 137.18 97.996 137.334C98.0575 137.426 98.1189 137.549 98.2111 137.641C98.2111 137.641 98.2111 137.641 98.2111 137.672C98.2111 137.672 98.2111 137.702 98.2418 137.702C98.2725 137.733 98.2725 137.733 98.2725 137.764C98.3033 137.794 98.334 137.856 98.3647 137.917C98.3647 137.948 98.3954 137.948 98.3954 137.948C98.5491 138.163 98.672 138.378 98.8256 138.593C98.8256 138.593 98.8256 138.623 98.8563 138.623C98.887 138.685 98.9178 138.716 98.9485 138.777C99.0099 138.869 99.0407 138.931 99.1021 139.023C99.1943 139.176 99.2865 139.33 99.3786 139.483C99.5323 139.76 99.6859 140.036 99.8395 140.312C100.147 140.865 100.423 141.418 100.7 142.001C100.884 142.37 101.038 142.738 101.222 143.107C100.946 143.199 100.7 143.322 100.454 143.414C100.3 143.475 100.147 143.567 99.9931 143.629C99.6859 143.782 99.3786 143.936 99.1021 144.12C98.9792 144.212 98.8256 144.274 98.7027 144.366C98.3647 144.581 98.0575 144.826 97.7809 145.072C97.7195 145.133 97.658 145.164 97.5966 145.226C97.4122 145.379 97.2586 145.533 97.105 145.686C91.851 151.029 95.4458 160.088 95.4458 160.088C87.3652 165.8 86.1976 171.143 86.8736 174.92C89.0858 175.933 91.3902 176.793 93.756 177.53C93.971 177.591 94.1554 177.653 94.3705 177.714C99.7781 179.342 105.493 180.202 111.454 180.202C112.222 180.202 112.959 180.202 113.727 180.171C115.816 180.109 117.875 179.894 119.903 179.618C121.716 179.372 123.528 179.004 125.28 178.605C129.151 177.684 132.869 176.394 136.433 174.736C137.969 174.029 139.475 173.231 140.949 172.402C143.315 171.051 145.589 169.515 147.77 167.857C148.6 167.212 149.43 166.567 150.198 165.861C150.536 165.585 150.874 165.278 151.212 164.971C151.365 164.848 151.519 164.694 151.642 164.571C151.98 164.264 152.287 163.957 152.625 163.65C156.496 159.935 159.876 155.697 162.61 151.06C162.211 146.485 160.736 143.936 158.893 142.554Z" fill="#617983"/>
<path d="M72.0341 128.337L67.7634 129.78L61.1575 126.985C57.747 126.033 55.7192 122.533 56.6102 119.155C57.2862 116.576 59.4676 114.825 61.9871 114.549C61.9871 114.549 54.736 125.204 68.7158 127.292C70.375 127.507 71.4503 127.876 72.0341 128.337Z" fill="#CB2C44"/>
<path d="M101.284 143.107C101.007 143.199 100.761 143.322 100.516 143.414C100.362 143.476 100.208 143.568 100.055 143.629C99.7474 143.783 99.4402 143.936 99.1636 144.121C99.0407 144.213 98.8871 144.274 98.7642 144.366C98.4262 144.581 98.119 144.827 97.8425 145.073C97.781 145.134 97.7196 145.165 97.6581 145.226C97.4738 145.38 97.3201 145.533 97.1665 145.687C91.9126 151.03 95.5074 160.089 95.5074 160.089C87.4267 165.8 86.2592 171.143 86.9351 174.92C84.938 174.03 83.0023 173.016 81.1588 171.911C81.1281 171.88 81.0974 171.88 81.0667 171.85C80.1756 171.297 79.2539 170.744 78.3936 170.161C77.564 169.608 76.7652 169.024 75.9663 168.441C75.9663 168.38 75.9663 168.318 75.9356 168.226C75.9356 168.195 75.9356 168.134 75.9356 168.103C75.9356 168.011 75.9049 167.95 75.9049 167.858C75.8742 167.796 75.8742 167.704 75.8434 167.643C75.8434 167.612 75.8434 167.581 75.8127 167.551C75.782 167.458 75.782 167.397 75.7513 167.305C75.7205 167.182 75.6898 167.059 75.6284 166.936C75.5976 166.844 75.5669 166.752 75.5055 166.66C75.3826 166.322 75.1982 165.954 74.9831 165.585C74.9524 165.493 74.891 165.432 74.8602 165.34C74.8295 165.309 74.7988 165.247 74.7988 165.217C74.7373 165.125 74.7066 165.032 74.6452 164.94C74.215 164.295 73.7234 163.589 73.0782 162.852C72.9553 162.729 72.8631 162.576 72.7402 162.453C72.6173 162.3 72.4637 162.115 72.3408 161.962C72.3101 161.931 72.2793 161.87 72.2486 161.839C72.0643 161.624 71.9106 161.409 71.757 161.194C71.4805 160.826 71.204 160.457 70.9582 160.089C70.6202 159.597 70.3129 159.137 70.0057 158.645C69.9442 158.522 69.8521 158.4 69.7906 158.277C69.5756 157.908 69.3605 157.571 69.1761 157.202C69.0532 156.987 68.9303 156.772 68.8382 156.557C68.8074 156.526 68.8074 156.496 68.7767 156.434C68.6538 156.219 68.5616 156.004 68.4387 155.79C68.2851 155.452 68.1008 155.114 67.9779 154.776C67.9164 154.623 67.855 154.469 67.7935 154.346C67.7628 154.285 67.7321 154.223 67.7321 154.193C67.6399 153.978 67.5477 153.794 67.4863 153.579C67.4248 153.425 67.3634 153.271 67.3019 153.118C67.179 152.811 67.0561 152.473 66.9639 152.166V152.135C66.9025 151.92 66.8103 151.705 66.7489 151.49C66.626 151.061 66.4723 150.631 66.3802 150.201C66.3802 150.17 66.3802 150.17 66.3494 150.139C66.2265 149.709 65.9809 149.302 65.8887 148.873C65.858 148.719 65.397 148.244 65.3662 148.121C65.3048 147.814 65.4189 147.897 65.3882 147.621C63.9783 146.93 64.9185 146.395 64.8878 146.118C64.7956 145.566 62.1658 144.167 62.135 143.614C62.0429 142.478 64.8569 142.936 64.8876 141.862C63.6585 141.002 65.1074 141.136 65.1382 140.86C64.1286 140.103 64.8878 140.293 64.8878 140.109C64.0978 139.034 64.2867 138.12 65.1382 138.857C65.1382 138.765 64.6376 137.764 64.6376 137.672C64.6684 137.518 65.5506 138.9 65.5506 138.747C65.1382 138.254 64.6376 136.726 64.6376 136.603C64.6684 136.419 65.1074 137.289 65.1382 137.104C65.1382 137.043 65.0812 136.815 65.3662 137.355C65.397 137.109 64.8571 136.536 64.8878 136.29C64.9185 136.045 65.327 135.566 65.3884 135.352C65.4192 135.137 65.3355 135.817 65.3662 135.602C65.3662 135.541 65.5506 134.847 65.5506 134.786C65.5813 134.693 65.858 135.193 65.8887 135.101C65.9194 134.948 65.3356 133.914 65.8887 134.6C65.9194 134.478 65.4107 134.74 66.139 134.35C66.2004 134.166 65.3048 133.783 65.3662 133.599C65.4584 133.2 66.0468 132.966 66.139 132.597C66.2004 132.413 66.3278 132.03 66.3892 131.846C66.6657 130.956 66.8635 130.519 67.14 129.843C66.7675 129.843 67.4568 128.899 67.6405 129.092C67.7941 128.693 68.1315 128.767 68.2851 128.46C68.3158 128.398 68.3466 128.337 68.3773 128.276C68.4387 128.153 68.4695 128.061 68.5309 127.968C68.5616 127.907 68.5616 127.876 68.5924 127.846C68.746 127.539 68.8382 127.354 68.8689 127.293H68.8382C69.5448 126.894 70.2515 126.556 71.0196 126.249C73.0782 125.45 75.1982 125.051 77.3797 125.021C78.0556 125.021 78.7008 125.051 79.3768 125.113C79.8684 125.143 80.3907 125.235 80.8823 125.297C81.5583 125.42 82.2035 125.573 82.8794 125.757C83.7397 126.003 84.5693 126.28 85.4296 126.617C85.4911 126.648 85.5218 126.648 85.5832 126.679C86.6893 127.139 87.7954 127.692 88.8708 128.337C90.0076 129.012 91.1444 129.811 92.2198 130.701C92.3734 130.824 92.5271 130.947 92.6807 131.101C92.7114 131.131 92.7421 131.131 92.7421 131.162C92.7421 131.162 92.7421 131.162 92.7729 131.162C92.8036 131.193 92.865 131.223 92.8958 131.254C92.9572 131.316 93.0494 131.377 93.1416 131.469C93.1723 131.5 93.203 131.531 93.2645 131.561C93.3259 131.623 93.3874 131.684 93.4488 131.745C93.4795 131.776 93.541 131.807 93.5717 131.868C93.6332 131.899 93.6639 131.96 93.7253 131.991C93.7868 132.022 93.8175 132.083 93.879 132.114C93.9404 132.145 94.0019 132.206 94.0326 132.267C94.1248 132.36 94.2169 132.421 94.3091 132.513C94.432 132.605 94.5242 132.728 94.6471 132.851C94.6778 132.882 94.6778 132.882 94.7085 132.912C94.77 132.974 94.8007 133.004 94.8622 133.066C94.8929 133.127 94.9543 133.158 94.9851 133.219C95.0772 133.312 95.1387 133.373 95.2308 133.465C95.323 133.588 95.4459 133.711 95.5381 133.803C95.661 133.956 95.7839 134.079 95.9068 134.233C95.999 134.356 96.0911 134.448 96.1833 134.571C96.214 134.601 96.2448 134.632 96.2448 134.663C96.3369 134.786 96.4598 134.908 96.552 135.031C96.6749 135.185 96.7978 135.338 96.9207 135.492C96.9514 135.553 96.9822 135.584 97.0436 135.645C97.0743 135.676 97.1051 135.707 97.1358 135.768L97.1665 135.799C97.1972 135.83 97.1972 135.86 97.228 135.891C97.2587 135.922 97.2894 135.952 97.2894 135.983C97.3509 136.045 97.3816 136.075 97.4123 136.137C97.4123 136.167 97.443 136.167 97.443 136.198C97.5967 136.413 97.7503 136.597 97.9039 136.812C97.9346 136.843 97.9654 136.874 97.9654 136.904C98.0575 137.027 98.1497 137.15 98.2419 137.304C98.2726 137.334 98.3033 137.365 98.3341 137.426C98.3648 137.488 98.4262 137.549 98.457 137.611C98.457 137.611 98.457 137.611 98.457 137.641C98.457 137.641 98.457 137.672 98.4877 137.672C98.5184 137.703 98.5184 137.703 98.5184 137.733C98.5491 137.764 98.5799 137.826 98.6106 137.887C98.6106 137.918 98.6413 137.918 98.6413 137.918C98.7642 138.133 98.9178 138.317 99.0407 138.532C99.0407 138.532 99.0715 138.563 99.0715 138.593C99.0715 138.593 99.0715 138.624 99.1022 138.624C99.1329 138.685 99.1636 138.716 99.1944 138.778C99.2558 138.87 99.2865 138.931 99.348 139.023C99.4402 139.177 99.5323 139.33 99.6245 139.484C99.6245 139.484 99.6552 139.514 99.6552 139.545C99.8089 139.791 99.9625 140.067 100.085 140.313C100.208 140.528 100.3 140.743 100.423 140.927C100.485 141.05 100.546 141.142 100.608 141.265C100.731 141.48 100.823 141.725 100.946 141.94C100.946 141.971 100.976 141.971 100.976 142.002C100.946 142.37 101.13 142.708 101.284 143.107Z" fill="#EA556A"/>
<path d="M75.9655 168.379C74.1527 167.027 72.4014 165.554 70.773 163.987C70.1585 163.404 69.544 162.79 68.9295 162.176C67.4854 160.671 66.1028 159.105 64.8124 157.447C64.7816 157.416 64.7509 157.355 64.7202 157.324C63.4605 155.696 62.2622 154.007 61.1868 152.257C60.0807 150.507 59.0668 148.695 58.1758 146.822C58.2372 144.949 58.483 143.168 58.8825 141.417C59.4662 138.777 60.4494 136.32 61.7399 134.17C62.2622 133.311 62.8152 132.481 63.4605 131.714C63.7984 131.284 64.1671 130.885 64.5358 130.485C65.0274 129.963 65.5805 129.472 66.1335 129.012C66.9631 128.336 67.8234 127.752 68.7451 127.23H68.7759C68.7452 127.292 68.653 127.476 68.4994 127.783C68.4686 127.814 68.4686 127.875 68.4379 127.906C68.4072 127.998 68.3457 128.121 68.2843 128.213C68.2536 128.275 68.2228 128.336 68.1921 128.397C68.0692 128.704 67.9156 129.073 67.7312 129.472C67.7005 129.534 67.6698 129.595 67.6698 129.656C67.3933 130.332 67.1167 131.13 66.8402 132.021C66.7788 132.205 66.7173 132.389 66.6559 132.604C66.5637 132.973 66.4408 133.341 66.3486 133.74C66.2872 133.925 66.2564 134.14 66.195 134.324C66.1643 134.447 66.1335 134.6 66.1028 134.723C66.0721 134.846 66.0414 134.999 66.0106 135.122C65.9799 135.214 65.9799 135.337 65.9492 135.429C65.9492 135.491 65.9185 135.522 65.9185 135.583C65.8877 135.798 65.8263 136.013 65.7956 136.228C65.7648 136.443 65.7034 136.688 65.6727 136.903C65.6419 137.118 65.6112 137.364 65.5805 137.61C65.5805 137.671 65.5498 137.702 65.5498 137.763C65.519 137.947 65.519 138.132 65.4883 138.316C65.4883 138.439 65.4576 138.562 65.4576 138.684C65.4269 138.838 65.4269 138.961 65.4269 139.114C65.4269 139.206 65.3961 139.329 65.3961 139.421C65.3654 139.667 65.3654 139.913 65.3347 140.189C65.3347 140.404 65.304 140.588 65.304 140.803C65.304 141.08 65.2732 141.356 65.2732 141.663C65.2425 142.738 65.304 143.843 65.3961 144.979C65.4576 145.532 65.519 146.085 65.5805 146.638C65.6112 146.914 65.6727 147.221 65.7034 147.497C65.7648 147.774 65.7956 148.081 65.857 148.357C65.8877 148.511 65.9185 148.634 65.9492 148.787C66.0414 149.217 66.1335 149.647 66.2564 150.077C66.2564 150.108 66.2564 150.108 66.2872 150.138C66.4101 150.568 66.533 150.998 66.6559 151.428C66.7173 151.643 66.8095 151.858 66.8709 152.073V152.104C66.9938 152.411 67.086 152.748 67.2089 153.056C67.2704 153.209 67.3318 153.363 67.3933 153.516C67.4854 153.7 67.5469 153.915 67.6391 154.13C67.6698 154.192 67.6698 154.253 67.7005 154.284C67.762 154.437 67.8234 154.56 67.8849 154.714C68.0385 155.052 68.1921 155.389 68.3457 155.727C68.4686 155.942 68.5608 156.157 68.6837 156.372C68.7144 156.403 68.7144 156.433 68.7451 156.495C68.868 156.71 68.9602 156.925 69.0831 157.14C69.2982 157.508 69.4825 157.846 69.6976 158.214C69.7591 158.337 69.8512 158.46 69.9127 158.583C70.2199 159.044 70.5272 159.535 70.8652 160.026C71.111 160.395 71.3875 160.763 71.664 161.132C71.8176 161.347 72.002 161.562 72.1556 161.776C72.1863 161.807 72.2171 161.869 72.2478 161.899C72.3707 162.053 72.5243 162.237 72.6472 162.391C72.7701 162.513 72.8623 162.667 72.9852 162.79C73.6304 163.527 74.122 164.233 74.5522 164.878C74.6136 164.97 74.6751 165.062 74.7058 165.154C74.7365 165.185 74.7672 165.246 74.7672 165.277C74.8287 165.369 74.8594 165.431 74.8901 165.523C75.1052 165.891 75.2588 166.26 75.4125 166.598C75.4432 166.69 75.4739 166.782 75.5354 166.874C75.5661 166.997 75.6275 167.12 75.6583 167.242C75.689 167.335 75.7197 167.396 75.7197 167.488C75.7197 167.519 75.7504 167.55 75.7504 167.58C75.7812 167.642 75.7812 167.734 75.8119 167.795C75.8426 167.887 75.8426 167.979 75.8426 168.041C75.8426 168.072 75.8426 168.133 75.8426 168.164C75.9655 168.256 75.9655 168.317 75.9655 168.379Z" fill="#CB2C44"/>
<path d="M103.252 142.492C102.545 142.677 101.9 142.861 101.285 143.107C101.009 143.199 100.763 143.321 100.517 143.414C100.364 143.475 100.21 143.567 100.056 143.629C99.7492 143.782 99.442 143.936 99.1654 144.12C99.0425 144.212 98.8889 144.273 98.766 144.366C98.428 144.58 98.1208 144.826 97.8443 145.072C97.7828 145.133 97.7214 145.164 97.6599 145.225C97.4756 145.379 97.3219 145.532 97.1683 145.686C91.9144 151.029 95.5092 160.088 95.5092 160.088C87.4285 165.799 86.261 171.143 86.9369 174.92C84.9398 174.029 83.0041 173.016 81.1606 171.91C81.1299 171.88 81.0992 171.88 81.0685 171.849C80.1774 171.296 79.2557 170.743 78.3954 170.16C77.5658 169.607 76.767 169.024 75.9681 168.44C74.1554 167.089 72.404 165.615 70.7756 164.049C70.1611 163.466 69.5466 162.851 68.9321 162.237C67.4881 160.733 66.1054 159.167 64.815 157.508C64.7843 157.478 64.7535 157.416 64.7228 157.386C63.4631 155.758 62.2648 154.069 61.1895 152.319C62.6028 150.384 64.2927 149.34 65.9825 148.88C66.4434 148.757 66.8736 148.665 67.3344 148.603C69.393 148.358 71.3287 148.787 72.6191 149.217C73.6023 149.555 74.2168 149.862 74.2168 149.862C75.4151 147.59 76.767 146.269 78.1496 145.594C79.1021 145.133 80.0238 144.98 80.9148 145.01C81.007 145.01 81.1299 145.01 81.2221 145.041C84.3253 145.287 86.8448 147.743 86.8448 147.743C89.2106 144.243 92.3752 142.738 95.2941 142.155C96.7074 141.878 98.0593 141.817 99.2269 141.878C99.8107 141.909 100.364 141.94 100.825 142.001C102.299 142.185 103.252 142.492 103.252 142.492Z" fill="#4B5A59"/>
<path d="M141.073 164.972L124.881 170.929C123.714 171.359 122.423 170.776 121.993 169.609L112.868 144.828C112.438 143.661 113.021 142.371 114.189 141.941L130.381 135.984C131.549 135.554 132.839 136.138 133.269 137.304L142.394 162.085C142.825 163.252 142.241 164.542 141.073 164.972Z" fill="#74CBED"/>
<path d="M130.914 139.384L115.773 144.947L123.132 164.95L138.272 159.386L130.914 139.384Z" fill="#868686"/>
<path d="M124.391 141.757L121.318 159.599L123.193 164.727L129.737 162.332L132.809 144.613L130.905 139.362L124.391 141.757Z" fill="#9C9C9C"/>
<path d="M134.283 164.051C134.283 164.02 134.252 163.99 134.252 163.959L134.222 163.867C134.099 163.529 133.853 163.253 133.576 163.068C133.177 162.792 132.624 162.731 132.132 162.915L130.166 163.652C129.951 163.713 129.797 163.836 129.644 163.959C129.459 164.143 129.306 164.358 129.213 164.573C129.09 164.942 129.06 165.341 129.213 165.709L129.244 165.801C129.551 166.631 130.504 167.06 131.333 166.753L133.331 166.016C133.576 165.924 133.761 165.801 133.914 165.617C134.283 165.249 134.467 164.635 134.283 164.051ZM133.115 165.586L131.118 166.323C130.596 166.508 130.012 166.293 129.766 165.832C129.736 165.771 129.705 165.74 129.705 165.679L129.674 165.586C129.459 165.003 129.766 164.358 130.35 164.143L132.347 163.406C132.931 163.191 133.576 163.498 133.791 164.082L133.822 164.174C133.853 164.235 133.853 164.297 133.853 164.327C133.914 164.849 133.638 165.402 133.115 165.586Z" fill="#566C78"/>
<path d="M120.98 141.819C121.252 141.819 121.472 141.599 121.472 141.328C121.472 141.057 121.252 140.837 120.98 140.837C120.708 140.837 120.488 141.057 120.488 141.328C120.488 141.599 120.708 141.819 120.98 141.819Z" fill="black"/>
<path d="M122.824 141.175C123.095 141.175 123.315 140.955 123.315 140.684C123.315 140.412 123.095 140.192 122.824 140.192C122.552 140.192 122.332 140.412 122.332 140.684C122.332 140.955 122.552 141.175 122.824 141.175Z" fill="black"/>
<path d="M124.668 140.528C124.939 140.528 125.159 140.308 125.159 140.037C125.159 139.766 124.939 139.546 124.668 139.546C124.396 139.546 124.176 139.766 124.176 140.037C124.176 140.308 124.396 140.528 124.668 140.528Z" fill="black"/>
<path d="M133.76 164.051L133.79 164.143C133.821 164.205 133.821 164.235 133.821 164.297C133.698 164.727 133.391 165.064 132.961 165.218L130.964 165.955C130.533 166.108 130.073 166.047 129.704 165.801C129.673 165.74 129.642 165.709 129.642 165.648L129.612 165.556C129.397 164.972 129.704 164.297 130.288 164.082L132.285 163.345C132.899 163.13 133.545 163.437 133.76 164.051Z" fill="#8EAABD"/>
<path d="M151.212 164.941C150.874 165.248 150.536 165.555 150.198 165.831C149.4 166.507 148.601 167.182 147.771 167.827C145.62 169.485 143.347 171.021 140.95 172.372C139.475 173.201 137.97 173.999 136.434 174.706L123.529 174.03L114.834 173.569L115.203 169.27L115.756 163.16L116.34 162.545L118.552 160.273L120.61 158.123L121.778 156.895L122.239 156.435L124.205 156.864L130.473 158.216L132.286 158.615L134.16 160.887L135.051 161.962L136.003 163.129L137.939 161.686L140.336 159.905L141.688 160.15L144.207 160.58L149.983 161.593L150.629 163.344L151.212 164.941Z" fill="#617983"/>
<path d="M151.335 162.203C151.181 162.357 150.617 162.846 150.494 162.969C150.156 163.276 150.567 163.257 150.229 163.533C149.43 164.208 148.631 164.884 147.802 165.529C147.802 165.498 147.771 165.467 147.771 165.406C147.74 165.253 147.71 165.068 147.648 164.915C147.218 163.134 146.542 160.984 145.006 160.155C144.606 159.94 144.023 159.787 143.592 159.756C143.193 159.725 142.824 159.725 142.425 159.756C142.087 159.787 141.749 159.787 141.411 159.817C140.612 159.879 140.52 159.787 140.09 160.217C139.66 160.646 139.322 161.353 139.076 161.967C138.861 162.489 138.707 163.072 138.584 163.625C138.584 163.656 138.553 163.686 138.553 163.717C138.492 164.27 138.4 164.853 138.246 165.437C137.601 167.648 134.343 167.324 134.035 165.267C134.035 165.267 134.387 165.099 134.418 164.884C134.449 164.669 134.005 164.333 134.035 164.118C134.066 163.872 133.914 163.717 133.945 163.441C133.945 163.441 133.945 163.41 133.945 163.379C133.945 163.011 133.975 162.642 133.945 162.274C133.945 162.182 133.945 162.059 133.914 161.967C133.914 161.967 133.914 161.967 133.914 161.936C133.883 161.69 133.822 161.476 133.76 161.23C133.73 161.076 133.668 160.923 133.607 160.769C133.392 160.155 133.115 159.633 132.654 159.111C132.593 159.05 132.531 158.988 132.47 158.927C131.825 158.251 131.057 157.76 130.258 157.361C129.858 157.176 129.459 157.023 129.029 156.869C127.677 156.409 126.233 156.102 124.819 156.102C123.621 156.102 122.454 156.347 121.409 156.931C121.317 156.992 121.225 157.054 121.132 157.084C121.01 157.176 120.887 157.238 120.764 157.33C120.119 157.821 119.565 158.466 119.074 159.234C119.012 159.326 118.951 159.418 118.92 159.51C118.306 160.554 118.152 160.953 117.814 161.998C117.783 162.09 117.753 162.212 117.722 162.305C117.538 162.949 117.384 163.594 117.261 164.27C117.23 164.393 117.23 164.485 117.2 164.608C117.2 164.638 117.2 164.7 117.2 164.731C117.107 165.959 116.216 166.665 115.264 166.88C113.943 167.156 112.437 166.45 112.591 164.731C112.745 162.704 113.298 160.739 114.096 158.865C114.281 158.405 114.496 157.975 114.742 157.545C115.418 156.317 116.247 155.211 117.261 154.29C117.937 153.676 118.674 153.123 119.504 152.693C119.658 152.632 119.811 152.54 119.965 152.478C120.702 152.14 121.501 151.895 122.3 151.71C122.638 151.649 122.976 151.588 123.314 151.557C125.895 151.25 128.599 151.741 131.057 152.693C131.517 152.877 131.978 153.062 132.439 153.277C134.221 154.136 135.727 155.457 136.802 157.054C137.171 156.716 137.54 156.409 137.97 156.163C138.769 155.702 139.721 155.395 140.796 155.242C140.919 155.211 141.073 155.211 141.196 155.18C142.794 155.027 144.453 155.027 145.958 155.518C146.481 155.672 146.972 155.887 147.464 156.194C149.338 157.299 150.536 159.111 151.335 161.107C151.427 161.506 151.489 162.05 151.335 162.203Z" fill="#4B5A59"/>
<path d="M151.674 164.541C151.52 164.695 151.367 164.817 151.244 164.94C150.906 165.247 150.568 165.554 150.23 165.831C149.431 166.506 148.632 167.182 147.803 167.827C147.803 167.796 147.772 167.765 147.772 167.704C147.741 167.55 147.71 167.366 147.649 167.213C147.219 165.432 146.543 163.282 145.007 162.453C144.607 162.238 144.023 162.084 143.593 162.054C143.194 162.023 142.825 162.023 142.426 162.054C142.088 162.084 141.75 162.084 141.412 162.115C140.613 162.177 140.521 162.084 140.091 162.514C139.66 162.944 139.323 163.651 139.077 164.265C138.862 164.787 138.708 165.37 138.585 165.923C138.585 165.954 138.554 165.984 138.554 166.015C138.493 166.568 138.401 167.151 138.247 167.735C137.602 169.946 134.038 169.792 133.731 167.735C133.7 167.55 133.7 167.335 133.731 167.12C133.761 166.906 133.792 166.721 133.823 166.506C133.853 166.261 133.915 166.015 133.946 165.739C133.946 165.739 133.946 165.708 133.946 165.677C133.946 165.309 133.976 164.94 133.946 164.572C133.946 164.48 133.946 164.357 133.915 164.265C133.915 164.265 133.915 164.265 133.915 164.234C133.884 163.988 133.823 163.773 133.761 163.528C133.731 163.374 133.669 163.221 133.608 163.067C133.393 162.453 133.116 161.931 132.655 161.409C132.594 161.347 132.532 161.286 132.471 161.225C131.826 160.549 131.058 160.058 130.259 159.659C129.859 159.474 129.46 159.321 129.03 159.167C127.678 158.707 126.234 158.4 124.82 158.4C123.622 158.4 122.455 158.645 121.41 159.229C121.318 159.29 121.226 159.351 121.133 159.382C121.01 159.474 120.888 159.536 120.765 159.628C120.119 160.119 119.566 160.764 119.075 161.532C119.013 161.624 118.952 161.716 118.921 161.808C118.307 162.852 118.153 163.251 117.815 164.295C117.784 164.388 117.754 164.51 117.723 164.602C117.539 165.247 117.385 165.892 117.262 166.568C117.231 166.691 117.231 166.783 117.201 166.906C117.201 166.936 117.201 166.998 117.201 167.028C117.108 168.257 116.217 168.963 115.265 169.178C113.944 169.454 112.831 168.748 112.985 167.028C113.177 164.884 113.299 163.036 114.097 161.163C114.282 160.703 114.497 160.273 114.743 159.843C115.419 158.614 116.248 157.509 117.262 156.588C117.938 155.974 118.675 155.421 119.505 154.991C119.659 154.93 119.812 154.837 119.966 154.776C120.703 154.438 121.502 154.193 122.301 154.008C122.639 153.947 122.977 153.886 123.315 153.855C125.896 153.548 128.6 154.039 131.058 154.991C131.518 155.175 131.979 155.359 132.44 155.574C134.222 156.434 135.728 157.755 136.803 159.351C137.172 159.014 137.54 158.707 137.971 158.461C138.769 158 139.722 157.693 140.797 157.54C140.92 157.509 141.074 157.509 141.197 157.478C142.794 157.325 144.454 157.325 145.959 157.816C146.481 157.97 146.973 158.185 147.465 158.492C149.339 159.597 150.537 161.409 151.336 163.405C151.428 163.804 151.551 164.173 151.674 164.541Z" fill="#617983"/>
<path d="M78.579 125.51L65.1523 130.454C64.3534 130.731 63.4931 130.331 63.2166 129.564C62.9401 128.765 63.3395 127.906 64.1076 127.629L77.5344 122.685C78.3332 122.409 79.1935 122.808 79.4701 123.576C79.7773 124.343 79.3779 125.234 78.579 125.51Z" fill="#C42A41"/>
<path d="M105.194 84.7622C104.825 85.4992 104.304 86.1747 103.628 86.7582C100.743 89.3376 96.2931 89.092 93.715 86.2054C91.1369 83.3189 91.3824 78.8663 94.2675 76.2869C95.5565 75.1507 97.1525 74.5673 98.7485 74.5059C97.4594 77.0239 97.7356 80.1868 99.7306 82.3977C101.204 84.0252 103.199 84.8236 105.194 84.7622Z" fill="#4B5A59"/>
<path d="M104.212 76.8703C106.207 79.1119 106.514 82.2748 105.194 84.7621C103.199 84.8235 101.204 84.0251 99.7616 82.4283C97.7666 80.1867 97.4597 77.0238 98.7795 74.5365C100.774 74.4751 102.769 75.2735 104.212 76.8703Z" fill="#617983"/>
<path d="M117.991 95.9714C117.715 96.4934 117.377 96.954 116.917 97.3532C114.922 99.1343 111.852 98.95 110.072 96.954C108.292 94.958 108.476 91.8873 110.471 90.1062C111.361 89.3078 112.466 88.9086 113.571 88.8779C112.681 90.5976 112.865 92.8085 114.246 94.3439C115.198 95.4801 116.61 96.0328 117.991 95.9714Z" fill="#4B5A59"/>
<path d="M117.287 90.5047C118.668 92.0401 118.883 94.2203 117.962 95.9706C116.581 96.0013 115.2 95.4793 114.217 94.3431C112.836 92.8078 112.622 90.6275 113.542 88.8772C114.923 88.8465 116.305 89.3992 117.287 90.5047Z" fill="#617983"/>
<path d="M215.734 79H210.936L210.966 75.458H215.734C216.925 75.458 217.929 75.1906 218.746 74.6558C219.563 74.1108 220.179 73.3187 220.593 72.2793C221.017 71.2399 221.229 69.9836 221.229 68.5103V67.4355C221.229 66.3053 221.107 65.3114 220.865 64.4536C220.633 63.5959 220.285 62.8743 219.821 62.2891C219.357 61.7038 218.786 61.2648 218.11 60.9722C217.434 60.6694 216.657 60.5181 215.779 60.5181H210.845V56.9609H215.779C217.253 56.9609 218.6 57.2132 219.821 57.7178C221.052 58.2122 222.117 58.9237 223.015 59.8521C223.913 60.7804 224.604 61.8905 225.088 63.1821C225.583 64.4637 225.83 65.8916 225.83 67.4658V68.5103C225.83 70.0744 225.583 71.5023 225.088 72.7939C224.604 74.0856 223.913 75.1956 223.015 76.124C222.127 77.0423 221.062 77.7537 219.821 78.2583C218.59 78.7528 217.227 79 215.734 79ZM213.509 56.9609V79H208.968V56.9609H213.509ZM236.396 79.3027C235.124 79.3027 233.984 79.1009 232.975 78.6973C231.965 78.2835 231.108 77.7134 230.401 76.9868C229.705 76.2603 229.17 75.4176 228.797 74.459C228.424 73.4902 228.237 72.4609 228.237 71.3711V70.7656C228.237 69.5244 228.413 68.3892 228.767 67.3599C229.12 66.3306 229.624 65.4375 230.28 64.6807C230.946 63.9238 231.754 63.3436 232.702 62.9399C233.651 62.5262 234.72 62.3193 235.911 62.3193C237.072 62.3193 238.101 62.5111 238.999 62.8945C239.897 63.278 240.649 63.8229 241.254 64.5293C241.87 65.2357 242.334 66.0833 242.647 67.0723C242.96 68.0511 243.116 69.141 243.116 70.3418V72.1582H230.099V69.252H238.833V68.9189C238.833 68.3135 238.722 67.7736 238.5 67.2993C238.288 66.8149 237.965 66.4315 237.531 66.1489C237.097 65.8664 236.542 65.7251 235.866 65.7251C235.291 65.7251 234.796 65.8512 234.382 66.1035C233.969 66.3558 233.631 66.709 233.368 67.1631C233.116 67.6172 232.924 68.152 232.793 68.7676C232.672 69.373 232.611 70.0391 232.611 70.7656V71.3711C232.611 72.027 232.702 72.6325 232.884 73.1875C233.076 73.7425 233.343 74.2218 233.686 74.6255C234.039 75.0291 234.463 75.342 234.958 75.564C235.462 75.786 236.032 75.897 236.668 75.897C237.455 75.897 238.187 75.7456 238.863 75.4429C239.549 75.13 240.139 74.6608 240.634 74.0352L242.753 76.3359C242.41 76.8304 241.941 77.3047 241.345 77.7588C240.76 78.2129 240.054 78.5863 239.226 78.8789C238.399 79.1615 237.455 79.3027 236.396 79.3027ZM233.323 60.397L236.29 55.7349H241.027L236.865 60.397H233.323ZM252.365 75.897C252.9 75.897 253.374 75.7961 253.788 75.5942C254.201 75.3823 254.524 75.0897 254.756 74.7163C254.999 74.3328 255.125 73.8838 255.135 73.3691H259.237C259.227 74.5195 258.919 75.5438 258.313 76.4419C257.708 77.3299 256.896 78.0312 255.876 78.5459C254.857 79.0505 253.717 79.3027 252.456 79.3027C251.184 79.3027 250.074 79.0908 249.125 78.667C248.187 78.2432 247.405 77.6579 246.779 76.9111C246.154 76.1543 245.684 75.2764 245.372 74.2773C245.059 73.2682 244.902 72.1885 244.902 71.0381V70.5991C244.902 69.4386 245.059 68.3589 245.372 67.3599C245.684 66.3507 246.154 65.4728 246.779 64.7261C247.405 63.9692 248.187 63.3789 249.125 62.9551C250.064 62.5312 251.164 62.3193 252.425 62.3193C253.767 62.3193 254.943 62.5767 255.952 63.0913C256.971 63.606 257.769 64.3426 258.344 65.3013C258.929 66.2498 259.227 67.375 259.237 68.6768H255.135C255.125 68.1318 255.009 67.6374 254.787 67.1934C254.575 66.7493 254.262 66.3962 253.848 66.1338C253.444 65.8613 252.945 65.7251 252.35 65.7251C251.714 65.7251 251.194 65.8613 250.791 66.1338C250.387 66.3962 250.074 66.7594 249.852 67.2236C249.63 67.6777 249.474 68.1974 249.383 68.7827C249.302 69.3579 249.262 69.9634 249.262 70.5991V71.0381C249.262 71.6738 249.302 72.2843 249.383 72.8696C249.464 73.4549 249.615 73.9746 249.837 74.4287C250.069 74.8828 250.387 75.241 250.791 75.5034C251.194 75.7658 251.719 75.897 252.365 75.897ZM266.018 55.75V79H261.659V55.75H266.018ZM265.397 70.2358H264.202C264.212 69.0955 264.363 68.0461 264.656 67.0874C264.948 66.1187 265.367 65.2811 265.912 64.5747C266.457 63.8582 267.108 63.3032 267.865 62.9097C268.632 62.5161 269.479 62.3193 270.408 62.3193C271.215 62.3193 271.947 62.4354 272.603 62.6675C273.269 62.8895 273.839 63.2528 274.313 63.7573C274.797 64.2518 275.171 64.9027 275.433 65.71C275.695 66.5173 275.827 67.4961 275.827 68.6465V79H271.437V68.6162C271.437 67.8896 271.331 67.3195 271.119 66.9058C270.917 66.4819 270.62 66.1842 270.226 66.0127C269.843 65.8311 269.368 65.7402 268.803 65.7402C268.178 65.7402 267.643 65.8563 267.199 66.0884C266.765 66.3205 266.417 66.6434 266.154 67.0571C265.892 67.4608 265.7 67.9351 265.579 68.48C265.458 69.0249 265.397 69.6102 265.397 70.2358ZM286.68 79.3027C285.408 79.3027 284.268 79.1009 283.259 78.6973C282.25 78.2835 281.392 77.7134 280.686 76.9868C279.989 76.2603 279.454 75.4176 279.081 74.459C278.708 73.4902 278.521 72.4609 278.521 71.3711V70.7656C278.521 69.5244 278.698 68.3892 279.051 67.3599C279.404 66.3306 279.909 65.4375 280.564 64.6807C281.23 63.9238 282.038 63.3436 282.986 62.9399C283.935 62.5262 285.005 62.3193 286.195 62.3193C287.356 62.3193 288.385 62.5111 289.283 62.8945C290.181 63.278 290.933 63.8229 291.539 64.5293C292.154 65.2357 292.618 66.0833 292.931 67.0723C293.244 68.0511 293.4 69.141 293.4 70.3418V72.1582H280.383V69.252H289.117V68.9189C289.117 68.3135 289.006 67.7736 288.784 67.2993C288.572 66.8149 288.249 66.4315 287.815 66.1489C287.381 65.8664 286.826 65.7251 286.15 65.7251C285.575 65.7251 285.08 65.8512 284.667 66.1035C284.253 66.3558 283.915 66.709 283.652 67.1631C283.4 67.6172 283.208 68.152 283.077 68.7676C282.956 69.373 282.896 70.0391 282.896 70.7656V71.3711C282.896 72.027 282.986 72.6325 283.168 73.1875C283.36 73.7425 283.627 74.2218 283.97 74.6255C284.323 75.0291 284.747 75.342 285.242 75.564C285.746 75.786 286.316 75.897 286.952 75.897C287.739 75.897 288.471 75.7456 289.147 75.4429C289.833 75.13 290.424 74.6608 290.918 74.0352L293.037 76.3359C292.694 76.8304 292.225 77.3047 291.629 77.7588C291.044 78.2129 290.338 78.5863 289.51 78.8789C288.683 79.1615 287.739 79.3027 286.68 79.3027ZM303.905 62.6221V65.71H294.369V62.6221H303.905ZM296.73 58.5806H301.09V74.0654C301.09 74.5397 301.15 74.903 301.271 75.1553C301.403 75.4076 301.594 75.5841 301.847 75.6851C302.099 75.7759 302.417 75.8213 302.8 75.8213C303.073 75.8213 303.315 75.8112 303.527 75.791C303.749 75.7607 303.936 75.7305 304.087 75.7002L304.102 78.9092C303.729 79.0303 303.325 79.1261 302.891 79.1968C302.457 79.2674 301.978 79.3027 301.453 79.3027C300.494 79.3027 299.657 79.1463 298.94 78.8335C298.234 78.5106 297.689 77.9959 297.306 77.2896C296.922 76.5832 296.73 75.6548 296.73 74.5044V58.5806ZM315.243 74.4741C315.243 74.1613 315.152 73.8787 314.97 73.6265C314.789 73.3742 314.451 73.1421 313.956 72.9302C313.472 72.7082 312.77 72.5063 311.852 72.3247C311.025 72.1431 310.253 71.916 309.536 71.6436C308.83 71.361 308.214 71.0229 307.689 70.6294C307.175 70.2358 306.771 69.7716 306.479 69.2368C306.186 68.6919 306.04 68.0713 306.04 67.375C306.04 66.6888 306.186 66.043 306.479 65.4375C306.781 64.832 307.21 64.2972 307.765 63.833C308.33 63.3587 309.016 62.9904 309.824 62.728C310.641 62.4556 311.559 62.3193 312.579 62.3193C314.001 62.3193 315.222 62.5464 316.242 63.0005C317.271 63.4546 318.058 64.0802 318.603 64.8774C319.158 65.6646 319.436 66.5627 319.436 67.5718H315.076C315.076 67.1479 314.985 66.7695 314.804 66.4365C314.632 66.0934 314.36 65.826 313.986 65.6343C313.623 65.4325 313.149 65.3315 312.563 65.3315C312.079 65.3315 311.66 65.4173 311.307 65.5889C310.954 65.7503 310.681 65.9723 310.49 66.2549C310.308 66.5273 310.217 66.8301 310.217 67.1631C310.217 67.4154 310.268 67.6424 310.369 67.8442C310.48 68.036 310.656 68.2126 310.898 68.374C311.141 68.5355 311.453 68.6868 311.837 68.8281C312.23 68.9593 312.715 69.0804 313.29 69.1914C314.471 69.4336 315.525 69.7515 316.454 70.145C317.382 70.5285 318.119 71.0532 318.664 71.7192C319.208 72.3752 319.481 73.238 319.481 74.3076C319.481 75.0342 319.319 75.7002 318.997 76.3057C318.674 76.9111 318.209 77.4409 317.604 77.895C316.999 78.339 316.272 78.6872 315.424 78.9395C314.587 79.1816 313.643 79.3027 312.594 79.3027C311.07 79.3027 309.778 79.0303 308.719 78.4854C307.669 77.9404 306.872 77.2492 306.327 76.4116C305.792 75.564 305.525 74.6961 305.525 73.8081H309.657C309.677 74.4035 309.829 74.8828 310.111 75.2461C310.404 75.6094 310.772 75.8717 311.216 76.0332C311.67 76.1947 312.16 76.2754 312.685 76.2754C313.25 76.2754 313.719 76.1997 314.092 76.0483C314.466 75.8869 314.748 75.675 314.94 75.4126C315.142 75.1401 315.243 74.8273 315.243 74.4741ZM212.964 102.119V115H208.604V98.6221H212.691L212.964 102.119ZM212.328 106.236H211.147C211.147 105.025 211.304 103.935 211.617 102.966C211.93 101.987 212.368 101.155 212.934 100.469C213.499 99.7725 214.17 99.2427 214.947 98.8794C215.734 98.506 216.612 98.3193 217.581 98.3193C218.347 98.3193 219.049 98.4303 219.685 98.6523C220.32 98.8743 220.865 99.2275 221.319 99.7119C221.784 100.196 222.137 100.837 222.379 101.634C222.631 102.431 222.757 103.405 222.757 104.556V115H218.368V104.541C218.368 103.814 218.267 103.249 218.065 102.845C217.863 102.442 217.565 102.159 217.172 101.998C216.788 101.826 216.314 101.74 215.749 101.74C215.164 101.74 214.654 101.856 214.22 102.088C213.796 102.32 213.443 102.643 213.161 103.057C212.888 103.461 212.681 103.935 212.54 104.48C212.399 105.025 212.328 105.61 212.328 106.236ZM235.76 111.08V98.6221H240.119V115H236.017L235.76 111.08ZM236.244 107.719L237.531 107.689C237.531 108.779 237.405 109.793 237.152 110.731C236.9 111.66 236.522 112.467 236.017 113.153C235.513 113.829 234.877 114.359 234.11 114.743C233.343 115.116 232.44 115.303 231.4 115.303C230.603 115.303 229.867 115.192 229.19 114.97C228.524 114.738 227.949 114.379 227.465 113.895C226.991 113.401 226.617 112.77 226.345 112.003C226.082 111.226 225.951 110.292 225.951 109.203V98.6221H230.311V109.233C230.311 109.717 230.366 110.126 230.477 110.459C230.598 110.792 230.765 111.064 230.977 111.276C231.188 111.488 231.436 111.64 231.718 111.73C232.011 111.821 232.334 111.867 232.687 111.867C233.585 111.867 234.292 111.685 234.806 111.322C235.331 110.958 235.699 110.464 235.911 109.838C236.133 109.203 236.244 108.496 236.244 107.719ZM247.809 102.013V115H243.434V98.6221H247.536L247.809 102.013ZM247.203 106.236H245.992C245.992 105.096 246.128 104.046 246.401 103.087C246.683 102.119 247.092 101.281 247.627 100.575C248.172 99.8582 248.843 99.3032 249.64 98.9097C250.437 98.5161 251.361 98.3193 252.41 98.3193C253.137 98.3193 253.803 98.4303 254.408 98.6523C255.014 98.8643 255.533 99.2023 255.967 99.6665C256.411 100.121 256.754 100.716 256.997 101.453C257.239 102.179 257.36 103.052 257.36 104.071V115H253V104.556C253 103.809 252.9 103.234 252.698 102.83C252.496 102.426 252.208 102.144 251.835 101.982C251.472 101.821 251.033 101.74 250.518 101.74C249.953 101.74 249.458 101.856 249.035 102.088C248.621 102.32 248.278 102.643 248.005 103.057C247.733 103.461 247.531 103.935 247.4 104.48C247.269 105.025 247.203 105.61 247.203 106.236ZM256.951 105.736L255.392 105.933C255.392 104.863 255.523 103.869 255.786 102.951C256.058 102.033 256.457 101.226 256.981 100.529C257.516 99.833 258.177 99.2931 258.964 98.9097C259.751 98.5161 260.66 98.3193 261.689 98.3193C262.476 98.3193 263.193 98.4354 263.838 98.6675C264.484 98.8895 265.034 99.2477 265.488 99.7422C265.952 100.227 266.306 100.862 266.548 101.649C266.8 102.437 266.926 103.4 266.926 104.541V115H262.552V104.541C262.552 103.784 262.451 103.208 262.249 102.815C262.057 102.411 261.775 102.134 261.401 101.982C261.038 101.821 260.604 101.74 260.1 101.74C259.575 101.74 259.116 101.846 258.722 102.058C258.329 102.26 258.001 102.542 257.738 102.906C257.476 103.269 257.279 103.693 257.148 104.177C257.017 104.652 256.951 105.171 256.951 105.736ZM277.84 115.303C276.568 115.303 275.428 115.101 274.419 114.697C273.41 114.284 272.552 113.713 271.846 112.987C271.149 112.26 270.615 111.418 270.241 110.459C269.868 109.49 269.681 108.461 269.681 107.371V106.766C269.681 105.524 269.858 104.389 270.211 103.36C270.564 102.331 271.069 101.438 271.725 100.681C272.391 99.9238 273.198 99.3436 274.146 98.9399C275.095 98.5262 276.165 98.3193 277.355 98.3193C278.516 98.3193 279.545 98.5111 280.443 98.8945C281.341 99.278 282.093 99.8229 282.699 100.529C283.314 101.236 283.778 102.083 284.091 103.072C284.404 104.051 284.561 105.141 284.561 106.342V108.158H271.543V105.252H280.277V104.919C280.277 104.313 280.166 103.774 279.944 103.299C279.732 102.815 279.409 102.431 278.975 102.149C278.541 101.866 277.986 101.725 277.31 101.725C276.735 101.725 276.24 101.851 275.827 102.104C275.413 102.356 275.075 102.709 274.812 103.163C274.56 103.617 274.368 104.152 274.237 104.768C274.116 105.373 274.056 106.039 274.056 106.766V107.371C274.056 108.027 274.146 108.632 274.328 109.188C274.52 109.743 274.787 110.222 275.13 110.625C275.484 111.029 275.907 111.342 276.402 111.564C276.906 111.786 277.477 111.897 278.112 111.897C278.899 111.897 279.631 111.746 280.307 111.443C280.993 111.13 281.584 110.661 282.078 110.035L284.197 112.336C283.854 112.83 283.385 113.305 282.79 113.759C282.204 114.213 281.498 114.586 280.67 114.879C279.843 115.161 278.899 115.303 277.84 115.303ZM274.767 96.397L277.734 91.7349H282.472L278.309 96.397H274.767ZM291.402 102.194V115H287.043V98.6221H291.145L291.402 102.194ZM296.337 98.5161L296.261 102.558C296.049 102.527 295.792 102.502 295.489 102.482C295.197 102.452 294.929 102.437 294.687 102.437C294.071 102.437 293.537 102.517 293.083 102.679C292.639 102.83 292.265 103.057 291.962 103.36C291.67 103.663 291.448 104.031 291.296 104.465C291.155 104.899 291.074 105.393 291.054 105.948L290.176 105.676C290.176 104.616 290.282 103.642 290.494 102.754C290.706 101.856 291.014 101.074 291.417 100.408C291.831 99.7422 292.336 99.2275 292.931 98.8643C293.527 98.501 294.208 98.3193 294.975 98.3193C295.217 98.3193 295.464 98.3395 295.716 98.3799C295.969 98.4102 296.175 98.4556 296.337 98.5161ZM302.997 98.6221V115H298.623V98.6221H302.997ZM298.35 94.3535C298.35 93.7178 298.572 93.193 299.016 92.7793C299.46 92.3656 300.056 92.1587 300.802 92.1587C301.539 92.1587 302.129 92.3656 302.573 92.7793C303.027 93.193 303.254 93.7178 303.254 94.3535C303.254 94.9893 303.027 95.514 302.573 95.9277C302.129 96.3415 301.539 96.5483 300.802 96.5483C300.056 96.5483 299.46 96.3415 299.016 95.9277C298.572 95.514 298.35 94.9893 298.35 94.3535ZM316.272 121.297V101.967L316.832 98.6221H320.662V121.297H316.272ZM305.918 106.978V106.66C305.918 105.408 306.055 104.273 306.327 103.254C306.61 102.225 307.023 101.347 307.568 100.62C308.113 99.8835 308.779 99.3184 309.566 98.9248C310.364 98.5212 311.282 98.3193 312.321 98.3193C313.32 98.3193 314.183 98.5212 314.91 98.9248C315.636 99.3285 316.247 99.8986 316.741 100.635C317.246 101.372 317.649 102.24 317.952 103.239C318.255 104.238 318.487 105.333 318.648 106.523V107.22C318.497 108.36 318.265 109.42 317.952 110.398C317.649 111.377 317.246 112.235 316.741 112.972C316.247 113.708 315.631 114.284 314.895 114.697C314.168 115.101 313.3 115.303 312.291 115.303C311.272 115.303 310.364 115.096 309.566 114.682C308.779 114.258 308.113 113.673 307.568 112.926C307.023 112.18 306.61 111.302 306.327 110.292C306.055 109.273 305.918 108.168 305.918 106.978ZM310.278 106.66V106.978C310.278 107.654 310.333 108.289 310.444 108.885C310.555 109.47 310.732 109.99 310.974 110.444C311.226 110.898 311.549 111.256 311.943 111.519C312.336 111.771 312.821 111.897 313.396 111.897C314.193 111.897 314.834 111.725 315.318 111.382C315.813 111.029 316.176 110.55 316.408 109.944C316.65 109.339 316.792 108.648 316.832 107.871V105.888C316.802 105.252 316.716 104.682 316.575 104.177C316.444 103.663 316.242 103.224 315.969 102.86C315.707 102.497 315.364 102.22 314.94 102.028C314.526 101.826 314.022 101.725 313.426 101.725C312.861 101.725 312.377 101.851 311.973 102.104C311.569 102.356 311.242 102.709 310.989 103.163C310.747 103.607 310.565 104.127 310.444 104.722C310.333 105.318 310.278 105.963 310.278 106.66ZM333.785 111.08V98.6221H338.145V115H334.042L333.785 111.08ZM334.27 107.719L335.556 107.689C335.556 108.779 335.43 109.793 335.178 110.731C334.925 111.66 334.547 112.467 334.042 113.153C333.538 113.829 332.902 114.359 332.135 114.743C331.368 115.116 330.465 115.303 329.426 115.303C328.629 115.303 327.892 115.192 327.216 114.97C326.55 114.738 325.975 114.379 325.49 113.895C325.016 113.401 324.643 112.77 324.37 112.003C324.108 111.226 323.977 110.292 323.977 109.203V98.6221H328.336V109.233C328.336 109.717 328.391 110.126 328.502 110.459C328.624 110.792 328.79 111.064 329.002 111.276C329.214 111.488 329.461 111.64 329.744 111.73C330.036 111.821 330.359 111.867 330.712 111.867C331.611 111.867 332.317 111.685 332.832 111.322C333.356 110.958 333.725 110.464 333.937 109.838C334.159 109.203 334.27 108.496 334.27 107.719ZM349.013 115.303C347.741 115.303 346.601 115.101 345.592 114.697C344.583 114.284 343.725 113.713 343.019 112.987C342.322 112.26 341.787 111.418 341.414 110.459C341.041 109.49 340.854 108.461 340.854 107.371V106.766C340.854 105.524 341.031 104.389 341.384 103.36C341.737 102.331 342.242 101.438 342.897 100.681C343.563 99.9238 344.371 99.3436 345.319 98.9399C346.268 98.5262 347.338 98.3193 348.528 98.3193C349.689 98.3193 350.718 98.5111 351.616 98.8945C352.514 99.278 353.266 99.8229 353.872 100.529C354.487 101.236 354.951 102.083 355.264 103.072C355.577 104.051 355.733 105.141 355.733 106.342V108.158H342.716V105.252H351.45V104.919C351.45 104.313 351.339 103.774 351.117 103.299C350.905 102.815 350.582 102.431 350.148 102.149C349.714 101.866 349.159 101.725 348.483 101.725C347.908 101.725 347.413 101.851 347 102.104C346.586 102.356 346.248 102.709 345.985 103.163C345.733 103.617 345.541 104.152 345.41 104.768C345.289 105.373 345.229 106.039 345.229 106.766V107.371C345.229 108.027 345.319 108.632 345.501 109.188C345.693 109.743 345.96 110.222 346.303 110.625C346.656 111.029 347.08 111.342 347.575 111.564C348.079 111.786 348.649 111.897 349.285 111.897C350.072 111.897 350.804 111.746 351.48 111.443C352.166 111.13 352.757 110.661 353.251 110.035L355.37 112.336C355.027 112.83 354.558 113.305 353.962 113.759C353.377 114.213 352.671 114.586 351.843 114.879C351.016 115.161 350.072 115.303 349.013 115.303ZM367.071 110.474C367.071 110.161 366.98 109.879 366.798 109.626C366.617 109.374 366.279 109.142 365.784 108.93C365.3 108.708 364.598 108.506 363.68 108.325C362.853 108.143 362.081 107.916 361.364 107.644C360.658 107.361 360.042 107.023 359.518 106.629C359.003 106.236 358.599 105.772 358.307 105.237C358.014 104.692 357.868 104.071 357.868 103.375C357.868 102.689 358.014 102.043 358.307 101.438C358.609 100.832 359.038 100.297 359.593 99.833C360.158 99.3587 360.845 98.9904 361.652 98.728C362.469 98.4556 363.388 98.3193 364.407 98.3193C365.83 98.3193 367.051 98.5464 368.07 99.0005C369.099 99.4546 369.886 100.08 370.431 100.877C370.986 101.665 371.264 102.563 371.264 103.572H366.904C366.904 103.148 366.813 102.77 366.632 102.437C366.46 102.093 366.188 101.826 365.814 101.634C365.451 101.432 364.977 101.332 364.392 101.332C363.907 101.332 363.488 101.417 363.135 101.589C362.782 101.75 362.51 101.972 362.318 102.255C362.136 102.527 362.045 102.83 362.045 103.163C362.045 103.415 362.096 103.642 362.197 103.844C362.308 104.036 362.484 104.213 362.727 104.374C362.969 104.535 363.282 104.687 363.665 104.828C364.059 104.959 364.543 105.08 365.118 105.191C366.299 105.434 367.353 105.751 368.282 106.145C369.21 106.528 369.947 107.053 370.492 107.719C371.037 108.375 371.309 109.238 371.309 110.308C371.309 111.034 371.148 111.7 370.825 112.306C370.502 112.911 370.038 113.441 369.432 113.895C368.827 114.339 368.1 114.687 367.252 114.939C366.415 115.182 365.471 115.303 364.422 115.303C362.898 115.303 361.606 115.03 360.547 114.485C359.497 113.94 358.7 113.249 358.155 112.412C357.62 111.564 357.353 110.696 357.353 109.808H361.485C361.506 110.403 361.657 110.883 361.939 111.246C362.232 111.609 362.6 111.872 363.044 112.033C363.499 112.195 363.988 112.275 364.513 112.275C365.078 112.275 365.547 112.2 365.92 112.048C366.294 111.887 366.576 111.675 366.768 111.413C366.97 111.14 367.071 110.827 367.071 110.474Z" fill="#222222"/>
<mask id="mask0_275_12293" style="mask-type:alpha" maskUnits="userSpaceOnUse" x="207" y="153" width="294" height="25">
<rect x="207" y="153.386" width="294" height="24.5" rx="12.25" fill="#D9D9D9"/>
</mask>
<g mask="url(#mask0_275_12293)">
<rect x="207" y="153.386" width="26.95" height="24.5" fill="#A8EC6C"/>
<rect x="238.955" y="153.386" width="24.5" height="24.5" fill="#A8EC6C"/>
<rect x="268.355" y="153.386" width="24.5" height="24.5" fill="#A8EC6C"/>
<rect x="297.756" y="153.386" width="24.5" height="24.5" fill="#FAC04F"/>
<rect x="327.154" y="153.386" width="24.5" height="24.5" fill="#FAC04F"/>
<rect x="356.555" y="153.386" width="24.5" height="24.5" fill="#FAC04F"/>
<rect x="415.355" y="153.386" width="24.5" height="24.5" fill="#E96B73"/>
<rect x="385.955" y="153.386" width="24.5" height="24.5" fill="#FAC04F"/>
<rect x="444.754" y="153.386" width="24.5" height="24.5" fill="#E96B73"/>
<rect x="474.051" y="153.386" width="26.95" height="24.5" fill="#E96B73"/>
</g>
<mask id="path-62-outside-1_275_12293" maskUnits="userSpaceOnUse" x="414.924" y="160.426" width="25" height="35" fill="black">
<rect fill="white" x="414.924" y="160.426" width="25" height="35"/>
<path fill-rule="evenodd" clip-rule="evenodd" d="M434.85 178.734L427.499 166.426L420.148 178.734C416.74 184.441 420.852 191.686 427.499 191.686C434.146 191.686 438.258 184.441 434.85 178.734Z"/>
</mask>
<path fill-rule="evenodd" clip-rule="evenodd" d="M434.85 178.734L427.499 166.426L420.148 178.734C416.74 184.441 420.852 191.686 427.499 191.686C434.146 191.686 438.258 184.441 434.85 178.734Z" fill="#212121"/>
<path d="M427.499 166.426L430.074 164.888L427.499 160.575L424.923 164.888L427.499 166.426ZM434.85 178.734L437.425 177.196L434.85 178.734ZM420.148 178.734L422.724 180.272L422.724 180.272L420.148 178.734ZM424.923 167.964L432.274 180.272L437.425 177.196L430.074 164.888L424.923 167.964ZM422.724 180.272L430.074 167.964L424.923 164.888L417.572 177.196L422.724 180.272ZM427.499 188.686C423.181 188.686 420.51 183.979 422.724 180.272L417.572 177.196C412.97 184.902 418.522 194.686 427.499 194.686V188.686ZM432.274 180.272C434.488 183.979 431.817 188.686 427.499 188.686V194.686C436.475 194.686 442.028 184.902 437.425 177.196L432.274 180.272Z" fill="white" mask="url(#path-62-outside-1_275_12293)"/>
<circle cx="427.497" cy="183.575" r="3.675" fill="white"/>
</svg>
