<svg width="547" height="242" viewBox="0 0 547 242" fill="none" xmlns="http://www.w3.org/2000/svg">
<rect x="1.5" y="1.5" width="544" height="238.686" rx="30.5" fill="white"/>
<rect x="1.5" y="1.5" width="544" height="238.686" rx="30.5" stroke="#212121" stroke-width="3"/>
<path d="M170.877 120.843C170.877 127.952 169.617 134.786 167.313 141.129C167.221 141.374 167.128 141.65 167.036 141.895C165.838 145.082 164.363 148.116 162.643 150.997C159.908 155.624 156.528 159.853 152.657 163.561C152.35 163.867 152.012 164.174 151.674 164.48C151.52 164.633 151.366 164.756 151.244 164.879C150.906 165.185 150.568 165.491 150.23 165.767C149.431 166.441 148.632 167.116 147.802 167.759C145.652 169.414 143.378 170.946 140.981 172.295C139.507 173.122 138.001 173.919 136.465 174.623C132.932 176.248 129.214 177.565 125.312 178.485C123.56 178.914 121.748 179.251 119.935 179.496C117.907 179.772 115.848 179.956 113.759 180.048C113.022 180.078 112.254 180.078 111.486 180.078C105.556 180.078 99.8101 179.22 94.4025 177.596C94.1874 177.535 94.0031 177.473 93.788 177.412C91.4222 176.677 89.1485 175.819 86.9056 174.807C84.9085 173.919 82.9728 172.907 81.1293 171.804C81.0986 171.774 81.0679 171.774 81.0371 171.743C80.1461 171.191 79.2244 170.64 78.3641 170.057C77.5345 169.506 76.7357 168.924 75.9368 168.341C74.124 166.993 72.3727 165.522 70.7443 163.959C70.1298 163.377 69.5153 162.764 68.9008 162.151C67.4567 160.65 66.0741 159.087 64.7837 157.432C64.7529 157.401 64.7222 157.34 64.6915 157.309C63.4318 155.685 62.2335 154 61.1581 152.253C60.052 150.506 59.0381 148.698 58.1471 146.829C57.594 145.695 57.0717 144.531 56.5801 143.336C56.5187 143.213 56.4879 143.091 56.4265 142.968C55.6891 141.129 55.0439 139.26 54.4908 137.36C54.3679 136.9 54.2143 136.41 54.0914 135.95C54.0299 135.675 53.9378 135.399 53.8763 135.092C53.7534 134.571 53.6305 134.02 53.5076 133.499C52.5859 129.393 52.125 125.164 52.125 120.843C52.125 120.138 52.125 119.464 52.1557 118.759C53.2618 87.0115 79.4087 61.6074 111.516 61.6074C137.54 61.6074 159.662 78.3085 167.681 101.568C168.665 104.417 169.433 107.359 169.986 110.393C170.17 111.343 170.293 112.293 170.416 113.274C170.723 115.756 170.877 118.269 170.877 120.843Z" fill="#74CBED"/>
<mask id="mask0_275_12944" style="mask-type:alpha" maskUnits="userSpaceOnUse" x="52" y="61" width="119" height="120">
<path d="M170.875 120.844C170.875 127.953 169.615 134.787 167.311 141.13C167.219 141.375 167.126 141.651 167.034 141.896C165.836 145.083 164.361 148.117 162.641 150.998C159.906 155.625 156.526 159.854 152.655 163.562C152.348 163.868 152.01 164.175 151.672 164.481C151.518 164.634 151.365 164.757 151.242 164.88C150.904 165.186 150.566 165.492 150.228 165.768C149.429 166.442 148.63 167.117 147.8 167.76C145.65 169.415 143.376 170.947 140.979 172.296C139.505 173.123 137.999 173.92 136.463 174.624C132.93 176.249 129.212 177.566 125.31 178.486C123.558 178.915 121.746 179.252 119.933 179.497C117.905 179.773 115.847 179.957 113.757 180.049C113.02 180.079 112.252 180.079 111.484 180.079C105.554 180.079 99.8081 179.221 94.4005 177.597C94.1855 177.536 94.0011 177.474 93.786 177.413C91.4202 176.678 89.1466 175.82 86.9036 174.808C84.9065 173.92 82.9709 172.908 81.1274 171.805C81.0966 171.775 81.0659 171.775 81.0352 171.744C80.1442 171.192 79.2224 170.641 78.3621 170.058C77.5325 169.507 76.7337 168.925 75.9349 168.342C74.1221 166.994 72.3708 165.523 70.7423 163.96C70.1278 163.378 69.5133 162.765 68.8988 162.152C67.4548 160.651 66.0722 159.088 64.7817 157.433C64.751 157.402 64.7203 157.341 64.6895 157.31C63.4298 155.686 62.2315 154.001 61.1562 152.254C60.0501 150.507 59.0362 148.699 58.1451 146.83C57.5921 145.696 57.0698 144.532 56.5782 143.337C56.5167 143.214 56.486 143.092 56.4245 142.969C55.6871 141.13 55.0419 139.261 54.4889 137.361C54.366 136.901 54.2123 136.411 54.0894 135.951C54.028 135.676 53.9358 135.4 53.8744 135.093C53.7515 134.572 53.6286 134.021 53.5057 133.5C52.5839 129.394 52.123 125.165 52.123 120.844C52.123 120.139 52.123 119.465 52.1538 118.76C53.2599 87.0125 79.4068 61.6084 111.514 61.6084C137.538 61.6084 159.66 78.3095 167.679 101.569C168.663 104.418 169.431 107.36 169.984 110.394C170.168 111.344 170.291 112.294 170.414 113.275C170.721 115.757 170.875 118.27 170.875 120.844Z" fill="#6EB7E6"/>
</mask>
<g mask="url(#mask0_275_12944)">
<path opacity="0.5" d="M138.392 177.467C147.336 175.348 155.786 171.948 163.593 167.514C183.062 156.427 198.183 138.688 205.991 117.402C185.928 110.257 181.679 130.164 181.679 130.164C173.723 129.277 167.942 131.1 163.692 133.859C162.753 134.451 161.913 135.14 161.122 135.83C159.245 137.456 157.812 139.279 156.725 141.004C154.204 144.897 153.414 148.297 153.414 148.297L149.065 141.004L144.618 133.564L142.246 129.622L141.011 127.552C140.121 122.132 137.255 120.013 134.439 119.323C130.98 118.486 127.471 119.816 127.471 119.816C127.471 119.816 128.064 102.176 111.115 95.228C108.101 93.9962 104.543 93.1092 100.343 92.715C89.3234 91.6803 80.5771 94.2918 74.4497 97.2976C67.8282 100.55 64.2704 104.295 64.2704 104.295C61.5032 102.028 58.736 100.845 56.117 100.402C48.9519 99.1207 43.2198 103.161 43.2198 103.161C38.9208 88.1818 29.7298 82.8109 20.7858 81.4805C20.7363 82.6138 20.7363 83.6978 20.7363 84.8311C20.7363 112.129 32.2499 136.766 50.6814 154.111C55.7217 158.841 61.2561 163.079 67.2846 166.627C81.6148 175.151 98.3168 180.079 116.254 180.079C117.49 180.079 118.676 180.029 119.911 180.029C123.271 179.931 126.582 179.586 129.843 179.142L138.392 177.467Z" fill="white"/>
<path d="M133.624 100.758L131.101 153.704H78.1686C77.3277 153.704 76.6309 153.009 76.6309 152.169V100.758H133.624Z" fill="#A8EC6C"/>
<path d="M145.056 100.758V153.704H131.096L133.619 100.758H145.056Z" fill="#9BDD61"/>
<path d="M157.648 83.9888H141.525L141.886 76.4319C141.886 76.4319 141.982 73.0732 144.889 73.0732H153.131C153.251 73.0732 153.299 73.0732 153.299 73.0732H157.191L157.648 83.9888Z" fill="#786E7A"/>
<path d="M160.68 153.921H138.238L141.098 93.25H158.061L160.68 153.921Z" fill="#786E7A"/>
<path d="M158.057 93.2485H141.094L141.526 83.9883H157.649L158.057 93.2485Z" fill="white"/>
<path d="M164.883 83.9888H157.65L157.17 73.0732H161.519C164.426 73.0732 164.522 76.4319 164.522 76.4319L164.883 83.9888Z" fill="#6A6069"/>
<path d="M165.315 93.2485H158.059L157.65 83.9883H164.883L165.315 93.2485Z" fill="#F3F1EB"/>
<path d="M168.174 153.921H160.678L158.059 93.25H165.315L168.174 153.921Z" fill="#6A6069"/>
<rect x="59.0117" y="153.327" width="105.641" height="26.7515" fill="#699C3B"/>
<path d="M92.0806 140.797H86.4822C85.1848 140.797 84.1035 139.742 84.1035 138.422V132.809C84.1035 131.513 85.1607 130.434 86.4822 130.434H92.1047C93.4021 130.434 94.4834 131.489 94.4834 132.809V138.422C94.4593 139.742 93.4021 140.797 92.0806 140.797Z" fill="white"/>
<path d="M89.5584 156.443C88.1244 154.997 86.705 153.55 85.2563 152.104C84.4222 151.256 84.071 150.248 84.2027 149.079C84.3052 148.232 84.7441 147.545 85.3148 146.946C85.3295 146.946 85.3587 146.946 85.3734 146.932C86.3245 147.896 87.2756 148.875 88.2414 149.839C89.5438 151.154 90.4803 151.286 92.0899 150.424C93.1581 151.636 94.358 152.717 95.4847 153.872C95.9823 154.383 96.4652 154.923 97.0212 155.376C97.1529 155.522 97.27 155.683 97.4163 155.815C98.104 156.37 98.3528 157.071 98.3235 157.977C98.2796 159.73 98.3089 161.498 98.3235 163.251C98.3089 164.216 98.3089 165.195 98.2943 166.159C96.553 166.173 94.797 166.173 93.0557 166.188C93.0557 164.245 93.0557 162.302 93.0557 160.359C93.0557 160.154 93.0996 159.935 92.9093 159.759C92.1923 159.073 91.4753 158.372 90.7583 157.685C90.4364 157.217 90.0266 156.808 89.5584 156.443Z" fill="#0A5179"/>
<path d="M111.436 176.84C106.154 176.84 101.852 172.544 101.852 167.27C101.852 161.996 106.154 157.7 111.436 157.7C116.719 157.7 121.021 161.996 121.021 167.27C121.021 172.544 116.719 176.84 111.436 176.84ZM111.436 159.439C107.119 159.439 103.593 162.945 103.593 167.27C103.593 171.58 107.105 175.101 111.436 175.101C115.753 175.101 119.279 171.595 119.279 167.27C119.265 162.96 115.753 159.439 111.436 159.439Z" fill="#FAB50D"/>
<path d="M107.628 158.24C107.803 158.81 108.038 159.365 108.506 159.76C108.52 159.847 108.506 159.95 108.535 160.023C109.369 161.498 110.218 162.974 111.052 164.45C111.403 165.092 111.754 165.75 112.12 166.393C112.34 166.758 112.427 167.123 112.237 167.518C111.549 168.131 111.037 168.044 110.584 167.255C110.218 166.612 109.837 165.969 109.472 165.326C108.608 163.792 107.73 162.243 106.867 160.709C106.589 160.183 106.369 159.613 105.93 159.175C105.784 158.562 105.374 158.094 105.067 157.48C104.116 158.722 103.209 159.876 102.316 161.045C101.014 162.755 99.7114 164.464 98.409 166.159C98.3798 166.174 98.3505 166.159 98.3066 166.144C98.3212 165.18 98.3212 164.201 98.3359 163.222C98.4968 163.164 98.57 163.003 98.6724 162.872C100.165 160.928 101.672 158.985 103.165 157.027C103.472 156.618 103.999 156.224 104.028 155.8C104.057 155.347 103.574 154.88 103.355 154.412C103.209 154.076 103.018 154.032 102.667 154.12C100.794 154.544 98.9065 154.938 97.0189 155.347C96.4628 154.894 95.9799 154.354 95.4824 153.842C97.5018 153.492 99.4919 153.01 101.482 152.586C101.687 152.776 101.892 152.951 102.082 153.141C103.018 154.076 103.648 154.149 104.789 153.463C105.608 154.909 106.443 156.37 107.262 157.816C107.379 157.977 107.423 158.167 107.628 158.24Z" fill="#212121"/>
<path d="M95.7207 141.804C98.0327 144.127 100.359 146.45 102.671 148.773C102.803 148.919 102.993 149.021 103.037 149.226C102.188 149.971 101.398 150.775 100.637 151.622C100.432 151.564 100.315 151.388 100.184 151.257C98.8229 149.898 97.462 148.539 96.0865 147.181C95.9548 147.049 95.8524 146.845 95.6182 146.845C95.2085 146.114 94.55 145.632 93.9501 145.077C93.3648 144.478 92.8233 143.849 92.1941 143.294C91.4478 142.637 91.1552 141.892 91.4478 140.927C91.4771 140.898 91.4917 140.869 91.521 140.825C91.9161 140.299 92.399 139.919 93.0867 139.919C93.8184 139.905 94.272 140.387 94.7549 140.825C95.0475 141.19 95.3695 141.512 95.7207 141.804Z" fill="#FAB50D"/>
<path d="M81.6119 176.84C76.3294 176.84 72.0273 172.544 72.0273 167.27C72.0273 161.996 76.3294 157.7 81.6119 157.7C86.8944 157.7 91.1965 161.996 91.1965 167.27C91.1965 172.544 86.9091 176.84 81.6119 176.84ZM81.6119 159.439C77.2952 159.439 73.7833 162.96 73.7833 167.27C73.7833 171.58 77.2952 175.101 81.6266 175.101C85.9433 175.101 89.4699 171.595 89.4699 167.27C89.4552 162.96 85.9433 159.439 81.6119 159.439Z" fill="#FAB50D"/>
<path d="M86.0595 160.505C86.4546 160.067 86.9082 159.672 87.1716 159.132C87.9618 158.445 88.5471 157.554 89.2495 156.794C89.2495 157.028 89.4397 157.13 89.5714 157.261C89.8348 157.554 90.1713 157.773 90.3616 158.123C89.7616 158.854 89.1763 159.585 88.5763 160.315C88.1959 160.768 87.8008 161.221 87.4203 161.674C86.3229 162.959 85.2254 164.245 84.1279 165.531C84.0255 165.648 83.9084 165.794 83.967 165.955C84.0548 166.159 84.2596 166.174 84.4791 166.174C86.1473 166.159 87.8301 166.159 89.4982 166.159C90.0982 166.159 90.6981 166.159 91.2835 166.159C91.62 166.174 91.9566 166.174 92.3078 166.188C92.1614 166.758 92.1614 167.328 92.3078 167.898C91.9712 167.912 91.6346 167.927 91.3127 167.927C90.6981 167.927 90.0835 167.927 89.4836 167.927C87.713 167.927 85.9424 167.927 84.1865 167.927C83.4402 167.927 82.7085 167.898 81.9622 167.912C81.5525 167.927 81.216 167.825 80.9379 167.533C80.7184 167.05 80.8501 166.656 81.1867 166.247C81.6696 165.692 82.1964 165.166 82.5915 164.537C83.8206 163.281 84.9327 161.893 86.0595 160.505Z" fill="#212121"/>
<path d="M93.0835 136.472C92.3518 136.282 92.1177 135.931 92.2201 135.215C92.4103 133.944 93.4785 132.994 94.7809 132.965C95.7467 132.951 96.7124 132.936 97.6782 132.965C98.6001 132.994 99.3171 133.462 99.7415 134.265C99.9463 134.645 100.166 134.748 100.546 134.704C100.707 134.689 100.868 134.689 101.044 134.704C101.512 134.762 101.849 135.127 101.849 135.58C101.849 136.033 101.512 136.399 101.029 136.442C100.722 136.472 100.415 136.457 100.107 136.472C99.2293 136.472 98.3513 136.472 97.4733 136.472C97.1807 136.472 96.888 136.472 96.5954 136.472C96.3027 136.472 96.01 136.472 95.7174 136.472C94.8394 136.472 93.9614 136.472 93.0835 136.472Z" fill="#DC4F58"/>
<path d="M93.08 139.934C92.3923 139.934 91.9094 140.314 91.5143 140.84C91.485 140.869 91.4704 140.898 91.4411 140.942C90.7241 141.38 90.1681 141.979 89.6852 142.651C88.2511 144.083 86.8171 145.5 85.3831 146.932C85.3684 146.947 85.3392 146.947 85.3245 146.947C83.7588 145.5 84.2124 144.492 85.4416 143.338C86.9342 141.95 88.3389 140.475 89.7876 139.028C90.9143 137.903 91.7484 137.903 92.8752 138.999C92.9337 139.057 93.0068 139.116 93.08 139.174C93.0654 139.423 93.08 139.671 93.08 139.934Z" fill="#DC4F58"/>
<path d="M100.635 151.623C101.396 150.775 102.186 149.986 103.035 149.227C103.766 149.796 104.41 150.468 105.01 151.17C105.551 151.798 105.434 152.675 104.805 153.464C103.664 154.15 103.035 154.077 102.098 153.142C101.908 152.952 101.703 152.777 101.498 152.587C101.264 152.236 100.854 152.017 100.635 151.623Z" fill="#EFC8A0"/>
<path d="M100.08 137.318C100.051 138.224 100.241 139.13 99.9046 140.021C99.5242 141.029 98.5584 141.701 97.4609 141.687C97.4756 140.24 97.4756 138.779 97.4902 137.333C98.3535 137.318 99.2169 137.318 100.08 137.318Z" fill="#EFC8A0"/>
<path d="M93.0869 139.934C93.0869 139.685 93.0723 139.422 93.0723 139.174C93.0869 138.56 93.1015 137.947 93.1015 137.318C93.9649 137.318 94.8282 137.318 95.6916 137.318C95.6916 138.137 95.7062 138.955 95.7062 139.758C95.7062 140.46 95.4721 140.708 94.7551 140.825C94.2722 140.401 93.8185 139.904 93.0869 139.934Z" fill="#0A5179"/>
<path d="M94.752 140.84C95.469 140.724 95.7031 140.461 95.7031 139.774C95.7031 138.956 95.6885 138.138 95.6885 137.334H95.7177C95.9958 137.334 96.2884 137.334 96.5664 137.334H96.5957C96.5957 138.78 96.5957 140.241 96.5811 141.688C96.2884 141.761 95.9665 141.586 95.7031 141.805C95.3665 141.513 95.0446 141.191 94.752 140.84Z" fill="#EFC8A0"/>
<path d="M96.5996 141.688C96.5996 140.241 96.5996 138.78 96.6142 137.334C96.8923 137.334 97.1703 137.334 97.4483 137.334H97.4922C97.4776 138.78 97.4776 140.241 97.463 141.688C97.1703 141.688 96.8923 141.688 96.5996 141.688Z" fill="#0A5179"/>
<path d="M100.079 137.319C99.2159 137.319 98.3526 137.319 97.4892 137.319H97.4453C97.4453 137.027 97.4599 136.749 97.4599 136.457C98.3379 136.457 99.2159 136.457 100.094 136.457C100.094 136.749 100.079 137.027 100.079 137.319Z" fill="#D3AB82"/>
<path d="M95.7043 137.319C94.8409 137.319 93.9776 137.319 93.1142 137.319C93.1142 137.027 93.0996 136.749 93.0996 136.457C93.9776 136.457 94.8556 136.457 95.7335 136.457C95.7335 136.749 95.7482 137.027 95.7482 137.319C95.7335 137.319 95.7043 137.319 95.7043 137.319Z" fill="#193457"/>
<path d="M90.3641 158.125C90.1738 157.774 89.8226 157.555 89.5739 157.263C89.4422 157.116 89.252 157.014 89.252 156.795C89.3544 156.678 89.4568 156.561 89.5592 156.444C90.0275 156.81 90.4372 157.219 90.7884 157.672C90.6714 157.847 90.5543 158.022 90.3641 158.125Z" fill="black"/>
<path d="M85.3867 146.932C86.8208 145.5 88.2548 144.083 89.6888 142.651C89.762 142.812 89.8351 142.987 89.9083 143.148C90.6253 144.711 92.2788 145.5 93.9324 145.091C94.5323 145.646 95.1908 146.129 95.6005 146.859C94.4299 148.057 93.2593 149.241 92.0886 150.439C90.4644 151.301 89.5425 151.169 88.2401 149.854C87.289 148.875 86.3379 147.896 85.3867 146.932Z" fill="#FAB50D"/>
<path d="M98.3255 166.159C98.3548 166.174 98.384 166.174 98.4279 166.174C99.0718 166.261 99.5986 166.554 99.9059 167.153C100.213 167.766 100.155 168.438 100.038 169.067C99.9644 169.476 99.6132 169.68 99.1888 169.68C98.7206 169.695 98.2523 169.695 97.7694 169.695C96.4232 169.695 95.077 169.68 93.7307 169.68C93.2479 169.446 93.043 169.067 93.0869 168.526C93.1015 168.322 93.0723 168.132 93.0723 167.927C93.0723 167.343 93.0869 166.758 93.0869 166.174V166.188C94.8429 166.174 96.5842 166.159 98.3255 166.159Z" fill="#DC4F58"/>
<path d="M111.055 164.45C113.191 164.143 114.757 166.306 113.835 168.19C113.191 169.535 111.567 170.061 110.25 169.374C108.875 168.643 108.45 167.065 109.255 165.634C109.577 166.583 110.177 167.387 110.645 168.263C110.923 168.76 111.377 168.921 111.831 168.716C112.284 168.497 112.416 168.103 112.226 167.518C112.401 167.124 112.313 166.759 112.109 166.393C111.757 165.765 111.421 165.108 111.055 164.45Z" fill="#DC4F58"/>
<path d="M112.252 167.532C112.442 168.102 112.31 168.511 111.857 168.73C111.403 168.95 110.949 168.789 110.671 168.277C110.203 167.401 109.603 166.597 109.281 165.648C109.354 165.545 109.413 165.443 109.486 165.341C109.852 165.984 110.232 166.627 110.598 167.269C111.052 168.058 111.564 168.146 112.252 167.532Z" fill="#DC4F58"/>
<path d="M93.935 145.076C92.2814 145.5 90.6133 144.696 89.9109 143.133C89.8377 142.972 89.7646 142.811 89.6914 142.636C90.1743 141.964 90.7157 141.35 91.4474 140.927C91.1693 141.891 91.4474 142.636 92.1936 143.294C92.8082 143.849 93.3643 144.477 93.935 145.076Z" fill="#DC4F58"/>
<path d="M91.4473 140.928C91.4765 140.898 91.4912 140.869 91.5204 140.825C91.4912 140.854 91.4765 140.898 91.4473 140.928Z" fill="#DC4F58"/>
<path d="M83.5884 168.833C82.7251 169.783 81.3935 169.958 80.3106 169.286C79.2132 168.614 78.7742 167.285 79.2424 166.101C79.696 164.947 80.9545 164.246 82.1544 164.479C82.3007 164.509 82.4324 164.552 82.5787 164.582C82.1836 165.21 81.6569 165.736 81.174 166.291C80.8374 166.686 80.7057 167.08 80.9252 167.577C80.6618 168.249 80.9837 168.789 81.6861 168.819C82.33 168.833 82.9592 168.819 83.5884 168.833Z" fill="#DC4F58"/>
<path d="M83.5887 168.834C82.9595 168.834 82.3303 168.834 81.6864 168.804C80.9987 168.775 80.6621 168.235 80.9255 167.562C81.2035 167.855 81.5401 167.942 81.9498 167.942C82.6961 167.928 83.4277 167.942 84.174 167.957C84.0423 168.278 83.9106 168.614 83.5887 168.834Z" fill="#DC4F58"/>
<path d="M93.0689 167.928C92.8202 167.928 92.5714 167.913 92.3226 167.913C92.1763 167.344 92.1763 166.774 92.3226 166.204C92.5714 166.189 92.8348 166.189 93.0836 166.175C93.0836 166.759 93.0689 167.344 93.0689 167.928Z" fill="black"/>
<path d="M97.462 136.47C97.462 136.762 97.4473 137.04 97.4473 137.332C97.1693 137.332 96.8913 137.332 96.6132 137.332H96.584C96.584 137.04 96.5986 136.762 96.5986 136.47C96.8766 136.47 97.1693 136.47 97.462 136.47Z" fill="#193457"/>
<path d="M96.5928 136.47C96.5928 136.762 96.5782 137.04 96.5782 137.332C96.3002 137.332 96.0075 137.332 95.7295 137.332C95.7295 137.04 95.7148 136.762 95.7148 136.47C96.0075 136.47 96.3002 136.47 96.5928 136.47Z" fill="#D3AB82"/>
<path d="M97.7721 169.694C98.1819 169.957 98.4745 170.293 98.2989 170.819C98.1233 171.345 97.699 171.433 97.2015 171.433C96.2211 171.418 95.226 171.418 94.2456 171.433C93.7188 171.448 93.2798 171.316 93.1335 170.775C92.9872 170.249 93.3091 169.913 93.7334 169.68C95.0797 169.68 96.4259 169.694 97.7721 169.694Z" fill="#FAB50D"/>
<path d="M89.4672 168.468C89.4818 168.556 89.4818 168.629 89.394 168.687C89.3648 168.599 89.394 168.526 89.4672 168.468Z" fill="#12537B"/>
<path d="M70.7813 106.819C71.0056 106.997 71.289 106.914 71.5251 107.032C71.4424 107.08 71.3716 107.151 71.289 107.174C69.1403 107.766 67.4993 109.056 66.3424 110.949C65.4924 112.345 65.0674 113.907 65.1736 115.516C65.2209 116.333 64.9493 116.688 64.3236 117.019C63.0014 117.717 61.9035 118.687 61.1243 119.977C59.991 121.823 59.5778 123.799 59.9556 125.952C60.2979 127.905 61.2188 129.526 62.6708 130.815C63.1313 131.218 63.2257 131.585 63.0722 132.117C62.659 133.667 62.8007 135.205 63.6035 136.566C64.7841 138.566 66.5195 139.749 68.916 139.808C68.8452 141.098 68.7744 142.376 68.6917 143.665C67.3459 143.642 66 143.772 64.6542 143.488C60.8056 142.66 58.1493 140.411 56.6618 136.779C56.0951 135.395 55.8826 133.939 55.9889 132.448C56.0125 132.07 55.918 131.774 55.6583 131.466C50.9361 125.798 52.4354 117.054 58.7632 113.256C59.684 112.7 60.6403 112.262 61.6674 111.966C61.9271 111.895 62.0924 111.753 62.2222 111.517C63.2729 109.446 64.9139 108.05 67.098 107.269C67.5938 107.056 68.1368 107.056 68.6209 106.819C69.341 106.819 70.0612 106.819 70.7813 106.819Z" fill="#699C3B"/>
<path d="M68.9175 139.785C66.5209 139.737 64.7855 138.542 63.605 136.542C62.8022 135.17 62.6487 133.644 63.0737 132.093C63.2154 131.549 63.1209 131.194 62.6723 130.792C61.2084 129.502 60.2876 127.881 59.957 125.929C59.5792 123.775 60.0042 121.799 61.1258 119.953C61.9167 118.664 63.0029 117.693 64.3251 116.995C64.9508 116.664 65.2223 116.309 65.1751 115.493C65.0807 113.883 65.4939 112.322 66.3439 110.925C67.5008 109.032 69.1418 107.742 71.2904 107.151C71.3731 107.127 71.4557 107.056 71.5265 107.009C73.6043 107.47 75.2689 108.571 76.5203 110.275C76.721 110.547 76.9217 110.653 77.2523 110.665C81.3606 110.795 84.7724 113.611 85.6224 117.634C86.1065 119.942 85.7287 122.142 84.4419 124.142C84.2294 124.485 84.2412 124.686 84.4773 125.006C89.1405 131.289 85.6106 140.412 77.937 141.903C75.989 142.281 74.0647 142.104 72.1994 141.465C72.1876 141.24 72.164 141.027 72.1522 140.802C72.1522 140.672 72.1758 140.554 72.164 140.423C72.0932 139.501 71.6682 139.217 70.7828 139.501C70.1925 139.714 69.5668 139.808 68.9175 139.785Z" fill="#82B654"/>
<path d="M68.9171 139.784C69.5664 139.808 70.1921 139.701 70.806 139.512C71.6914 139.228 72.1164 139.524 72.1872 140.435C72.199 140.553 72.1754 140.683 72.1754 140.814C71.8803 140.908 71.5733 141.003 71.29 141.109C70.6407 141.334 70.5108 141.524 70.5108 142.222C70.5108 146.032 70.5108 149.83 70.5108 153.64C69.7553 153.64 68.9997 153.64 68.2441 153.64C68.3976 150.481 68.5511 147.333 68.7046 144.174C68.7164 143.996 68.7046 143.831 68.7046 143.653C68.7754 142.364 68.8462 141.074 68.9171 139.784Z" fill="#975D52"/>
<path d="M70.498 153.628C70.498 149.818 70.498 146.02 70.498 142.21C70.498 141.512 70.6279 141.322 71.2772 141.098C71.5724 140.991 71.8675 140.896 72.1626 140.802C72.1744 141.027 72.1981 141.24 72.2099 141.464C72.3043 143.677 72.3988 145.89 72.505 148.102C72.5876 149.936 72.6821 151.77 72.7647 153.616C72.0092 153.628 71.2536 153.628 70.498 153.628Z" fill="#B0705C"/>
<path d="M109.667 140.797H104.045C102.747 140.797 101.666 139.742 101.666 138.422V132.809C101.666 131.513 102.723 130.434 104.045 130.434H109.667C110.965 130.434 112.046 131.489 112.046 132.809V138.422C112.046 139.742 110.989 140.797 109.667 140.797Z" fill="white"/>
</g>
<path fill-rule="evenodd" clip-rule="evenodd" d="M173.057 143.247L173.045 143.279C173.024 143.335 172.998 143.408 172.948 143.55L172.942 143.566C172.9 143.685 172.836 143.865 172.769 144.045C171.44 147.579 169.807 150.937 167.909 154.116C164.894 159.216 161.18 163.864 156.937 167.934C156.557 168.31 156.166 168.666 155.869 168.935C155.721 169.077 155.596 169.189 155.536 169.243L155.527 169.25L155.508 169.268L155.468 169.308L155.32 169.441C155.017 169.716 154.595 170.099 154.147 170.467L154.143 170.471C153.369 171.124 152.489 171.867 151.559 172.588L151.549 172.596L151.54 172.603C149.185 174.415 146.668 176.114 143.987 177.622L143.981 177.626C142.426 178.498 140.764 179.38 139.025 180.178M151.673 164.481C152.011 164.174 152.349 163.868 152.656 163.561C156.527 159.853 159.907 155.624 162.642 150.997C164.362 148.117 165.837 145.083 167.035 141.896C167.081 141.773 167.127 141.643 167.174 141.513C167.22 141.382 167.266 141.252 167.312 141.13C169.616 134.786 170.876 127.953 170.876 120.843C170.876 118.269 170.722 115.756 170.415 113.274C170.292 112.293 170.169 111.343 169.985 110.393C169.432 107.36 168.664 104.418 167.681 101.568C159.661 78.3089 137.539 61.6078 111.515 61.6078C79.4078 61.6078 53.2609 87.0119 52.1548 118.759C52.1241 119.464 52.1241 120.138 52.1241 120.843C52.1241 125.164 52.585 129.393 53.5067 133.499C53.5682 133.76 53.6296 134.028 53.6911 134.296C53.7525 134.564 53.814 134.832 53.8754 135.093C53.9098 135.264 53.9538 135.426 53.9967 135.584C54.0304 135.708 54.0634 135.829 54.0905 135.951C54.152 136.181 54.2211 136.418 54.2902 136.656C54.3593 136.893 54.4285 137.131 54.4899 137.36C55.043 139.26 55.6882 141.13 56.4256 142.968C56.4563 143.03 56.4794 143.091 56.5024 143.152C56.5255 143.213 56.5485 143.275 56.5792 143.336C57.0708 144.531 57.5931 145.696 58.1462 146.83C59.0372 148.699 60.0511 150.507 61.1572 152.254C62.2326 154 63.4309 155.686 64.6906 157.31C64.706 157.325 64.7213 157.348 64.7367 157.371C64.7521 157.394 64.7674 157.417 64.7828 157.432C66.0732 159.087 67.4558 160.65 68.8999 162.152C69.5144 162.765 70.1289 163.377 70.7434 163.96C72.3718 165.523 74.1231 166.993 75.9359 168.342C76.7346 168.924 77.5338 169.506 78.3632 170.058C79.0374 170.514 79.7494 170.952 80.4547 171.385C80.6494 171.505 80.8435 171.624 81.0363 171.743C81.0516 171.759 81.067 171.766 81.0823 171.774C81.0977 171.782 81.1131 171.789 81.1284 171.805C82.9719 172.908 84.9076 173.919 86.9047 174.808C89.1476 175.819 91.4213 176.677 93.7871 177.412C93.8946 177.443 93.9945 177.474 94.0943 177.504C94.1942 177.535 94.2941 177.566 94.4016 177.596C99.8092 179.221 105.555 180.079 111.485 180.079C112.253 180.079 113.021 180.079 113.758 180.048C115.848 179.956 117.906 179.772 119.934 179.496C121.747 179.251 123.56 178.914 125.311 178.485C129.213 177.566 132.931 176.248 136.464 174.624C138 173.919 139.506 173.122 140.981 172.295C143.377 170.947 145.651 169.414 147.801 167.76C148.631 167.116 149.43 166.442 150.229 165.768C150.567 165.492 150.905 165.185 151.243 164.879C151.301 164.821 151.366 164.763 151.434 164.702C151.511 164.634 151.592 164.562 151.673 164.481ZM139.024 180.179C135.159 181.955 131.064 183.41 126.744 184.43C124.777 184.911 122.761 185.284 120.761 185.555C118.544 185.856 116.299 186.057 114.028 186.157L114.02 186.157L114.013 186.157C113.147 186.193 112.271 186.193 111.538 186.193H111.485C104.976 186.193 98.6482 185.253 92.6747 183.463C92.5247 183.42 92.3922 183.379 92.3067 183.353L92.295 183.349C92.1883 183.316 92.1455 183.303 92.1063 183.292L92.0362 183.272L91.9665 183.251C89.3741 182.445 86.8707 181.501 84.3977 180.387C82.1732 179.396 80.0237 178.272 77.9801 177.049L77.3336 176.662L77.294 176.623C76.5881 176.189 75.736 175.666 74.9486 175.134C74.0161 174.513 73.1345 173.87 72.3682 173.312L72.3011 173.263L72.2773 173.245C70.2765 171.757 68.3331 170.127 66.5136 168.381C65.8465 167.749 65.1901 167.094 64.5966 166.502L64.5267 166.433L64.4825 166.387C62.946 164.789 61.4424 163.094 60.0181 161.275C59.9291 161.166 59.8583 161.071 59.8086 161.003C59.8033 160.996 59.7981 160.989 59.793 160.982C58.4583 159.257 57.154 157.424 55.9605 155.489C54.7509 153.576 53.6267 151.574 52.6284 149.482C52.0406 148.276 51.4861 147.042 50.9645 145.781C50.9248 145.692 50.8917 145.613 50.865 145.548C50.8577 145.53 50.8506 145.512 50.8437 145.495L50.8351 145.478L50.7404 145.241C49.9286 143.217 49.2181 141.159 48.6092 139.067L48.5904 139.002L48.573 138.938C48.532 138.784 48.4823 138.612 48.4094 138.362L48.4026 138.339C48.3379 138.116 48.2526 137.824 48.1736 137.528L48.1404 137.404L48.1176 137.301C48.1171 137.3 48.1166 137.297 48.116 137.295C48.109 137.269 48.1033 137.248 48.0923 137.207C48.0868 137.187 48.0802 137.162 48.0714 137.13L48.071 137.129C48.0341 136.992 47.9629 136.73 47.8958 136.415C47.8363 136.162 47.7779 135.907 47.7236 135.67L47.7213 135.66C47.659 135.388 47.6019 135.139 47.5458 134.901L47.5381 134.869L47.5309 134.836C46.5076 130.278 46 125.6 46 120.843L46 120.795C46 120.127 46 119.349 46.0353 118.521C47.2692 83.5 76.1104 55.4932 111.515 55.4932C140.229 55.4932 164.626 73.9232 173.471 99.5776C174.554 102.716 175.397 105.946 176.004 109.266C176.228 110.429 176.371 111.554 176.492 112.515L176.493 112.524C176.832 115.261 177 118.024 177 120.843C177 128.678 175.611 136.217 173.069 143.215L173.057 143.247M78.3177 177.23C78.3269 177.235 78.3353 177.239 78.3407 177.242L78.3346 177.239L78.3177 177.23Z" fill="#212121"/>
<path d="M76.6309 100.758L93.6663 90.25C94.8437 89.5063 96.3814 90.37 96.3814 91.7614V100.758L113.585 90.226C114.762 89.5063 116.3 90.346 116.3 91.7374V100.758H76.6309Z" fill="#786E7A"/>
<path d="M127.282 140.797H121.66C120.362 140.797 119.281 139.742 119.281 138.422V132.809C119.281 131.513 120.338 130.434 121.66 130.434H127.282C128.58 130.434 129.661 131.489 129.661 132.809V138.422C129.637 139.742 128.58 140.797 127.282 140.797Z" fill="white"/>
<path d="M94.9464 117.827C94.9464 118.067 94.9464 118.283 94.9464 118.499C94.9464 118.595 94.9464 118.667 94.8503 118.691C94.7542 118.739 94.7062 118.667 94.6341 118.595C94.0574 117.971 93.4808 117.323 92.9041 116.699C92.808 116.58 92.808 116.532 92.9041 116.412C93.4808 115.788 94.0574 115.14 94.6341 114.516C94.6821 114.468 94.7783 114.42 94.8263 114.444C94.8744 114.468 94.9224 114.564 94.9224 114.636C94.9224 114.852 94.9224 115.068 94.9224 115.284C94.9705 115.284 95.0185 115.284 95.0666 115.284C95.7153 115.284 96.3881 115.284 97.0368 115.284C97.5895 115.284 98.1421 115.212 98.6707 115.02C98.7428 114.996 98.8149 114.972 98.8869 114.924C99.2954 114.732 99.3915 114.516 99.3194 114.061C99.6318 114.516 99.848 114.972 99.6558 115.548C99.6318 115.644 99.5837 115.74 99.5117 115.836C99.3194 116.172 99.1272 116.532 98.911 116.867C98.5506 117.491 98.022 117.779 97.3011 117.803C96.5563 117.803 95.8114 117.803 95.0666 117.803C95.0666 117.827 95.0185 117.827 94.9464 117.827Z" fill="#212121"/>
<path d="M89.6621 117.78C89.4218 117.756 89.1575 117.78 88.9172 117.732C88.5328 117.66 88.2445 117.444 88.0523 117.108C87.836 116.724 87.6198 116.364 87.4035 115.98C87.0671 115.405 87.0912 114.805 87.4035 114.205C87.788 113.533 88.1724 112.886 88.5568 112.214C88.5809 112.166 88.6049 112.142 88.6289 112.094C88.4367 111.974 88.2445 111.878 88.0763 111.758C88.0042 111.71 87.9081 111.686 87.9321 111.566C87.9561 111.47 88.0282 111.446 88.1243 111.422C88.9653 111.23 89.7822 111.062 90.6232 110.87C90.7674 110.846 90.8154 110.87 90.8635 111.014C91.1278 111.83 91.3921 112.646 91.6324 113.461C91.6564 113.533 91.6324 113.629 91.6083 113.677C91.5362 113.749 91.4642 113.701 91.3921 113.653C91.1999 113.557 91.0317 113.437 90.8394 113.317C90.8154 113.365 90.7914 113.389 90.7674 113.437C90.431 114.013 90.0946 114.589 89.7582 115.189C89.4699 115.692 89.2536 116.22 89.1815 116.796C89.1575 116.964 89.1575 117.132 89.2056 117.276C89.2536 117.54 89.4459 117.684 89.7102 117.732C89.6621 117.756 89.6621 117.756 89.6621 117.78Z" fill="#212121"/>
<path d="M94.6095 110.749C94.0809 109.91 93.6004 109.07 93.0718 108.278C92.9036 108.014 92.6393 107.822 92.423 107.606C92.375 107.559 92.3269 107.535 92.2789 107.511C91.9905 107.343 91.7022 107.223 91.3418 107.582C91.5821 107.055 91.9185 106.623 92.5191 106.527C92.6153 106.503 92.7354 106.503 92.8315 106.503C93.2159 106.503 93.6004 106.503 93.9848 106.503C94.6576 106.503 95.1862 106.791 95.5226 107.391C95.907 108.062 96.2915 108.734 96.6759 109.382C96.6999 109.43 96.7239 109.454 96.748 109.502C96.9402 109.382 97.1324 109.286 97.3006 109.19C97.3727 109.142 97.4448 109.094 97.5409 109.166C97.637 109.238 97.5889 109.31 97.5649 109.406C97.3006 110.221 97.0603 111.013 96.796 111.829C96.748 111.997 96.6999 112.021 96.5317 111.973C95.6908 111.781 94.8738 111.613 94.0329 111.421C93.9608 111.397 93.8647 111.349 93.8647 111.277C93.8647 111.229 93.9368 111.133 93.9848 111.109C94.2011 110.989 94.3933 110.869 94.6095 110.749Z" fill="#212121"/>
<path d="M90.0938 109.742C90.1178 109.67 90.1418 109.646 90.1658 109.598C90.4782 109.07 90.7665 108.543 91.0789 108.039C91.3672 107.535 91.7276 107.463 92.2082 107.775C92.6887 108.111 93.0251 108.567 93.3375 109.046C93.3615 109.07 93.3375 109.142 93.3375 109.166C93.0251 109.742 92.6887 110.294 92.3523 110.87C92.2802 110.99 92.2082 111.014 92.088 110.942C91.4633 110.582 90.8626 110.222 90.2379 109.862C90.1658 109.838 90.1178 109.766 90.0938 109.742Z" fill="#212121"/>
<path d="M99.2477 114.035C99.2477 114.347 99.1036 114.515 98.9113 114.635C98.575 114.851 98.2146 114.923 97.8301 114.995C97.5898 115.043 97.3496 115.043 97.1093 115.067C97.0612 115.067 96.9892 115.043 96.9651 114.995C96.6287 114.419 96.2924 113.867 95.98 113.292C95.9079 113.196 95.9319 113.1 96.0521 113.052C96.6768 112.692 97.3015 112.332 97.9262 111.972C98.0223 111.9 98.1184 111.924 98.1665 112.044C98.4789 112.596 98.8152 113.148 99.1276 113.723C99.1757 113.819 99.2237 113.963 99.2477 114.035Z" fill="#212121"/>
<path d="M92.2318 116.508C92.2318 116.844 92.2318 117.204 92.2318 117.539C92.2318 117.707 92.1837 117.755 92.0155 117.755C91.3908 117.755 90.7661 117.755 90.1654 117.755C89.5887 117.755 89.3725 117.419 89.4205 116.916C89.4686 116.34 89.7089 115.812 89.9491 115.308C89.9732 115.284 90.0212 115.236 90.0693 115.236C90.718 115.236 91.3908 115.236 92.0395 115.236C92.1597 115.236 92.2077 115.284 92.2077 115.428C92.2318 115.788 92.2318 116.148 92.2318 116.508Z" fill="#212121"/>
<path d="M167.333 138.805L160.826 151.798L158.059 93.249H165.315L167.333 138.805Z" fill="#6A6069"/>
<path d="M157.648 83.9878H141.525L141.886 76.4309C141.886 76.4309 141.982 73.0723 144.889 73.0723H153.131C153.251 73.0723 153.299 73.0723 153.299 73.0723H157.191L157.648 83.9878Z" fill="#786E7A"/>
<path d="M165.315 93.2485H158.059L157.65 83.9883H164.883L165.315 93.2485Z" fill="#F3F1EB"/>
<path d="M164.885 83.9878H157.652L157.172 73.0723H161.521C164.428 73.0723 164.524 76.4309 164.524 76.4309L164.885 83.9878Z" fill="#6A6069"/>
<path d="M215.734 79H210.936L210.966 75.458H215.734C216.925 75.458 217.929 75.1906 218.746 74.6558C219.563 74.1108 220.179 73.3187 220.593 72.2793C221.017 71.2399 221.229 69.9836 221.229 68.5103V67.4355C221.229 66.3053 221.107 65.3114 220.865 64.4536C220.633 63.5959 220.285 62.8743 219.821 62.2891C219.357 61.7038 218.786 61.2648 218.11 60.9722C217.434 60.6694 216.657 60.5181 215.779 60.5181H210.845V56.9609H215.779C217.253 56.9609 218.6 57.2132 219.821 57.7178C221.052 58.2122 222.117 58.9237 223.015 59.8521C223.913 60.7804 224.604 61.8905 225.088 63.1821C225.583 64.4637 225.83 65.8916 225.83 67.4658V68.5103C225.83 70.0744 225.583 71.5023 225.088 72.7939C224.604 74.0856 223.913 75.1956 223.015 76.124C222.127 77.0423 221.062 77.7537 219.821 78.2583C218.59 78.7528 217.227 79 215.734 79ZM213.509 56.9609V79H208.968V56.9609H213.509ZM236.396 79.3027C235.124 79.3027 233.984 79.1009 232.975 78.6973C231.965 78.2835 231.108 77.7134 230.401 76.9868C229.705 76.2603 229.17 75.4176 228.797 74.459C228.424 73.4902 228.237 72.4609 228.237 71.3711V70.7656C228.237 69.5244 228.413 68.3892 228.767 67.3599C229.12 66.3306 229.624 65.4375 230.28 64.6807C230.946 63.9238 231.754 63.3436 232.702 62.9399C233.651 62.5262 234.72 62.3193 235.911 62.3193C237.072 62.3193 238.101 62.5111 238.999 62.8945C239.897 63.278 240.649 63.8229 241.254 64.5293C241.87 65.2357 242.334 66.0833 242.647 67.0723C242.96 68.0511 243.116 69.141 243.116 70.3418V72.1582H230.099V69.252H238.833V68.9189C238.833 68.3135 238.722 67.7736 238.5 67.2993C238.288 66.8149 237.965 66.4315 237.531 66.1489C237.097 65.8664 236.542 65.7251 235.866 65.7251C235.291 65.7251 234.796 65.8512 234.382 66.1035C233.969 66.3558 233.631 66.709 233.368 67.1631C233.116 67.6172 232.924 68.152 232.793 68.7676C232.672 69.373 232.611 70.0391 232.611 70.7656V71.3711C232.611 72.027 232.702 72.6325 232.884 73.1875C233.076 73.7425 233.343 74.2218 233.686 74.6255C234.039 75.0291 234.463 75.342 234.958 75.564C235.462 75.786 236.032 75.897 236.668 75.897C237.455 75.897 238.187 75.7456 238.863 75.4429C239.549 75.13 240.139 74.6608 240.634 74.0352L242.753 76.3359C242.41 76.8304 241.941 77.3047 241.345 77.7588C240.76 78.2129 240.054 78.5863 239.226 78.8789C238.399 79.1615 237.455 79.3027 236.396 79.3027ZM233.323 60.397L236.29 55.7349H241.027L236.865 60.397H233.323ZM252.365 75.897C252.9 75.897 253.374 75.7961 253.788 75.5942C254.201 75.3823 254.524 75.0897 254.756 74.7163C254.999 74.3328 255.125 73.8838 255.135 73.3691H259.237C259.227 74.5195 258.919 75.5438 258.313 76.4419C257.708 77.3299 256.896 78.0312 255.876 78.5459C254.857 79.0505 253.717 79.3027 252.456 79.3027C251.184 79.3027 250.074 79.0908 249.125 78.667C248.187 78.2432 247.405 77.6579 246.779 76.9111C246.154 76.1543 245.684 75.2764 245.372 74.2773C245.059 73.2682 244.902 72.1885 244.902 71.0381V70.5991C244.902 69.4386 245.059 68.3589 245.372 67.3599C245.684 66.3507 246.154 65.4728 246.779 64.7261C247.405 63.9692 248.187 63.3789 249.125 62.9551C250.064 62.5312 251.164 62.3193 252.425 62.3193C253.767 62.3193 254.943 62.5767 255.952 63.0913C256.971 63.606 257.769 64.3426 258.344 65.3013C258.929 66.2498 259.227 67.375 259.237 68.6768H255.135C255.125 68.1318 255.009 67.6374 254.787 67.1934C254.575 66.7493 254.262 66.3962 253.848 66.1338C253.444 65.8613 252.945 65.7251 252.35 65.7251C251.714 65.7251 251.194 65.8613 250.791 66.1338C250.387 66.3962 250.074 66.7594 249.852 67.2236C249.63 67.6777 249.474 68.1974 249.383 68.7827C249.302 69.3579 249.262 69.9634 249.262 70.5991V71.0381C249.262 71.6738 249.302 72.2843 249.383 72.8696C249.464 73.4549 249.615 73.9746 249.837 74.4287C250.069 74.8828 250.387 75.241 250.791 75.5034C251.194 75.7658 251.719 75.897 252.365 75.897ZM266.018 55.75V79H261.659V55.75H266.018ZM265.397 70.2358H264.202C264.212 69.0955 264.363 68.0461 264.656 67.0874C264.948 66.1187 265.367 65.2811 265.912 64.5747C266.457 63.8582 267.108 63.3032 267.865 62.9097C268.632 62.5161 269.479 62.3193 270.408 62.3193C271.215 62.3193 271.947 62.4354 272.603 62.6675C273.269 62.8895 273.839 63.2528 274.313 63.7573C274.797 64.2518 275.171 64.9027 275.433 65.71C275.695 66.5173 275.827 67.4961 275.827 68.6465V79H271.437V68.6162C271.437 67.8896 271.331 67.3195 271.119 66.9058C270.917 66.4819 270.62 66.1842 270.226 66.0127C269.843 65.8311 269.368 65.7402 268.803 65.7402C268.178 65.7402 267.643 65.8563 267.199 66.0884C266.765 66.3205 266.417 66.6434 266.154 67.0571C265.892 67.4608 265.7 67.9351 265.579 68.48C265.458 69.0249 265.397 69.6102 265.397 70.2358ZM286.68 79.3027C285.408 79.3027 284.268 79.1009 283.259 78.6973C282.25 78.2835 281.392 77.7134 280.686 76.9868C279.989 76.2603 279.454 75.4176 279.081 74.459C278.708 73.4902 278.521 72.4609 278.521 71.3711V70.7656C278.521 69.5244 278.698 68.3892 279.051 67.3599C279.404 66.3306 279.909 65.4375 280.564 64.6807C281.23 63.9238 282.038 63.3436 282.986 62.9399C283.935 62.5262 285.005 62.3193 286.195 62.3193C287.356 62.3193 288.385 62.5111 289.283 62.8945C290.181 63.278 290.933 63.8229 291.539 64.5293C292.154 65.2357 292.618 66.0833 292.931 67.0723C293.244 68.0511 293.4 69.141 293.4 70.3418V72.1582H280.383V69.252H289.117V68.9189C289.117 68.3135 289.006 67.7736 288.784 67.2993C288.572 66.8149 288.249 66.4315 287.815 66.1489C287.381 65.8664 286.826 65.7251 286.15 65.7251C285.575 65.7251 285.08 65.8512 284.667 66.1035C284.253 66.3558 283.915 66.709 283.652 67.1631C283.4 67.6172 283.208 68.152 283.077 68.7676C282.956 69.373 282.896 70.0391 282.896 70.7656V71.3711C282.896 72.027 282.986 72.6325 283.168 73.1875C283.36 73.7425 283.627 74.2218 283.97 74.6255C284.323 75.0291 284.747 75.342 285.242 75.564C285.746 75.786 286.316 75.897 286.952 75.897C287.739 75.897 288.471 75.7456 289.147 75.4429C289.833 75.13 290.424 74.6608 290.918 74.0352L293.037 76.3359C292.694 76.8304 292.225 77.3047 291.629 77.7588C291.044 78.2129 290.338 78.5863 289.51 78.8789C288.683 79.1615 287.739 79.3027 286.68 79.3027ZM303.905 62.6221V65.71H294.369V62.6221H303.905ZM296.73 58.5806H301.09V74.0654C301.09 74.5397 301.15 74.903 301.271 75.1553C301.403 75.4076 301.594 75.5841 301.847 75.6851C302.099 75.7759 302.417 75.8213 302.8 75.8213C303.073 75.8213 303.315 75.8112 303.527 75.791C303.749 75.7607 303.936 75.7305 304.087 75.7002L304.102 78.9092C303.729 79.0303 303.325 79.1261 302.891 79.1968C302.457 79.2674 301.978 79.3027 301.453 79.3027C300.494 79.3027 299.657 79.1463 298.94 78.8335C298.234 78.5106 297.689 77.9959 297.306 77.2896C296.922 76.5832 296.73 75.6548 296.73 74.5044V58.5806ZM315.243 74.4741C315.243 74.1613 315.152 73.8787 314.97 73.6265C314.789 73.3742 314.451 73.1421 313.956 72.9302C313.472 72.7082 312.77 72.5063 311.852 72.3247C311.025 72.1431 310.253 71.916 309.536 71.6436C308.83 71.361 308.214 71.0229 307.689 70.6294C307.175 70.2358 306.771 69.7716 306.479 69.2368C306.186 68.6919 306.04 68.0713 306.04 67.375C306.04 66.6888 306.186 66.043 306.479 65.4375C306.781 64.832 307.21 64.2972 307.765 63.833C308.33 63.3587 309.016 62.9904 309.824 62.728C310.641 62.4556 311.559 62.3193 312.579 62.3193C314.001 62.3193 315.222 62.5464 316.242 63.0005C317.271 63.4546 318.058 64.0802 318.603 64.8774C319.158 65.6646 319.436 66.5627 319.436 67.5718H315.076C315.076 67.1479 314.985 66.7695 314.804 66.4365C314.632 66.0934 314.36 65.826 313.986 65.6343C313.623 65.4325 313.149 65.3315 312.563 65.3315C312.079 65.3315 311.66 65.4173 311.307 65.5889C310.954 65.7503 310.681 65.9723 310.49 66.2549C310.308 66.5273 310.217 66.8301 310.217 67.1631C310.217 67.4154 310.268 67.6424 310.369 67.8442C310.48 68.036 310.656 68.2126 310.898 68.374C311.141 68.5355 311.453 68.6868 311.837 68.8281C312.23 68.9593 312.715 69.0804 313.29 69.1914C314.471 69.4336 315.525 69.7515 316.454 70.145C317.382 70.5285 318.119 71.0532 318.664 71.7192C319.208 72.3752 319.481 73.238 319.481 74.3076C319.481 75.0342 319.319 75.7002 318.997 76.3057C318.674 76.9111 318.209 77.4409 317.604 77.895C316.999 78.339 316.272 78.6872 315.424 78.9395C314.587 79.1816 313.643 79.3027 312.594 79.3027C311.07 79.3027 309.778 79.0303 308.719 78.4854C307.669 77.9404 306.872 77.2492 306.327 76.4116C305.792 75.564 305.525 74.6961 305.525 73.8081H309.657C309.677 74.4035 309.829 74.8828 310.111 75.2461C310.404 75.6094 310.772 75.8717 311.216 76.0332C311.67 76.1947 312.16 76.2754 312.685 76.2754C313.25 76.2754 313.719 76.1997 314.092 76.0483C314.466 75.8869 314.748 75.675 314.94 75.4126C315.142 75.1401 315.243 74.8273 315.243 74.4741ZM212.964 102.119V115H208.604V98.6221H212.691L212.964 102.119ZM212.328 106.236H211.147C211.147 105.025 211.304 103.935 211.617 102.966C211.93 101.987 212.368 101.155 212.934 100.469C213.499 99.7725 214.17 99.2427 214.947 98.8794C215.734 98.506 216.612 98.3193 217.581 98.3193C218.347 98.3193 219.049 98.4303 219.685 98.6523C220.32 98.8743 220.865 99.2275 221.319 99.7119C221.784 100.196 222.137 100.837 222.379 101.634C222.631 102.431 222.757 103.405 222.757 104.556V115H218.368V104.541C218.368 103.814 218.267 103.249 218.065 102.845C217.863 102.442 217.565 102.159 217.172 101.998C216.788 101.826 216.314 101.74 215.749 101.74C215.164 101.74 214.654 101.856 214.22 102.088C213.796 102.32 213.443 102.643 213.161 103.057C212.888 103.461 212.681 103.935 212.54 104.48C212.399 105.025 212.328 105.61 212.328 106.236ZM235.76 111.08V98.6221H240.119V115H236.017L235.76 111.08ZM236.244 107.719L237.531 107.689C237.531 108.779 237.405 109.793 237.152 110.731C236.9 111.66 236.522 112.467 236.017 113.153C235.513 113.829 234.877 114.359 234.11 114.743C233.343 115.116 232.44 115.303 231.4 115.303C230.603 115.303 229.867 115.192 229.19 114.97C228.524 114.738 227.949 114.379 227.465 113.895C226.991 113.401 226.617 112.77 226.345 112.003C226.082 111.226 225.951 110.292 225.951 109.203V98.6221H230.311V109.233C230.311 109.717 230.366 110.126 230.477 110.459C230.598 110.792 230.765 111.064 230.977 111.276C231.188 111.488 231.436 111.64 231.718 111.73C232.011 111.821 232.334 111.867 232.687 111.867C233.585 111.867 234.292 111.685 234.806 111.322C235.331 110.958 235.699 110.464 235.911 109.838C236.133 109.203 236.244 108.496 236.244 107.719ZM247.809 102.013V115H243.434V98.6221H247.536L247.809 102.013ZM247.203 106.236H245.992C245.992 105.096 246.128 104.046 246.401 103.087C246.683 102.119 247.092 101.281 247.627 100.575C248.172 99.8582 248.843 99.3032 249.64 98.9097C250.437 98.5161 251.361 98.3193 252.41 98.3193C253.137 98.3193 253.803 98.4303 254.408 98.6523C255.014 98.8643 255.533 99.2023 255.967 99.6665C256.411 100.121 256.754 100.716 256.997 101.453C257.239 102.179 257.36 103.052 257.36 104.071V115H253V104.556C253 103.809 252.9 103.234 252.698 102.83C252.496 102.426 252.208 102.144 251.835 101.982C251.472 101.821 251.033 101.74 250.518 101.74C249.953 101.74 249.458 101.856 249.035 102.088C248.621 102.32 248.278 102.643 248.005 103.057C247.733 103.461 247.531 103.935 247.4 104.48C247.269 105.025 247.203 105.61 247.203 106.236ZM256.951 105.736L255.392 105.933C255.392 104.863 255.523 103.869 255.786 102.951C256.058 102.033 256.457 101.226 256.981 100.529C257.516 99.833 258.177 99.2931 258.964 98.9097C259.751 98.5161 260.66 98.3193 261.689 98.3193C262.476 98.3193 263.193 98.4354 263.838 98.6675C264.484 98.8895 265.034 99.2477 265.488 99.7422C265.952 100.227 266.306 100.862 266.548 101.649C266.8 102.437 266.926 103.4 266.926 104.541V115H262.552V104.541C262.552 103.784 262.451 103.208 262.249 102.815C262.057 102.411 261.775 102.134 261.401 101.982C261.038 101.821 260.604 101.74 260.1 101.74C259.575 101.74 259.116 101.846 258.722 102.058C258.329 102.26 258.001 102.542 257.738 102.906C257.476 103.269 257.279 103.693 257.148 104.177C257.017 104.652 256.951 105.171 256.951 105.736ZM277.84 115.303C276.568 115.303 275.428 115.101 274.419 114.697C273.41 114.284 272.552 113.713 271.846 112.987C271.149 112.26 270.615 111.418 270.241 110.459C269.868 109.49 269.681 108.461 269.681 107.371V106.766C269.681 105.524 269.858 104.389 270.211 103.36C270.564 102.331 271.069 101.438 271.725 100.681C272.391 99.9238 273.198 99.3436 274.146 98.9399C275.095 98.5262 276.165 98.3193 277.355 98.3193C278.516 98.3193 279.545 98.5111 280.443 98.8945C281.341 99.278 282.093 99.8229 282.699 100.529C283.314 101.236 283.778 102.083 284.091 103.072C284.404 104.051 284.561 105.141 284.561 106.342V108.158H271.543V105.252H280.277V104.919C280.277 104.313 280.166 103.774 279.944 103.299C279.732 102.815 279.409 102.431 278.975 102.149C278.541 101.866 277.986 101.725 277.31 101.725C276.735 101.725 276.24 101.851 275.827 102.104C275.413 102.356 275.075 102.709 274.812 103.163C274.56 103.617 274.368 104.152 274.237 104.768C274.116 105.373 274.056 106.039 274.056 106.766V107.371C274.056 108.027 274.146 108.632 274.328 109.188C274.52 109.743 274.787 110.222 275.13 110.625C275.484 111.029 275.907 111.342 276.402 111.564C276.906 111.786 277.477 111.897 278.112 111.897C278.899 111.897 279.631 111.746 280.307 111.443C280.993 111.13 281.584 110.661 282.078 110.035L284.197 112.336C283.854 112.83 283.385 113.305 282.79 113.759C282.204 114.213 281.498 114.586 280.67 114.879C279.843 115.161 278.899 115.303 277.84 115.303ZM274.767 96.397L277.734 91.7349H282.472L278.309 96.397H274.767ZM291.402 102.194V115H287.043V98.6221H291.145L291.402 102.194ZM296.337 98.5161L296.261 102.558C296.049 102.527 295.792 102.502 295.489 102.482C295.197 102.452 294.929 102.437 294.687 102.437C294.071 102.437 293.537 102.517 293.083 102.679C292.639 102.83 292.265 103.057 291.962 103.36C291.67 103.663 291.448 104.031 291.296 104.465C291.155 104.899 291.074 105.393 291.054 105.948L290.176 105.676C290.176 104.616 290.282 103.642 290.494 102.754C290.706 101.856 291.014 101.074 291.417 100.408C291.831 99.7422 292.336 99.2275 292.931 98.8643C293.527 98.501 294.208 98.3193 294.975 98.3193C295.217 98.3193 295.464 98.3395 295.716 98.3799C295.969 98.4102 296.175 98.4556 296.337 98.5161ZM302.997 98.6221V115H298.623V98.6221H302.997ZM298.35 94.3535C298.35 93.7178 298.572 93.193 299.016 92.7793C299.46 92.3656 300.056 92.1587 300.802 92.1587C301.539 92.1587 302.129 92.3656 302.573 92.7793C303.027 93.193 303.254 93.7178 303.254 94.3535C303.254 94.9893 303.027 95.514 302.573 95.9277C302.129 96.3415 301.539 96.5483 300.802 96.5483C300.056 96.5483 299.46 96.3415 299.016 95.9277C298.572 95.514 298.35 94.9893 298.35 94.3535ZM316.272 121.297V101.967L316.832 98.6221H320.662V121.297H316.272ZM305.918 106.978V106.66C305.918 105.408 306.055 104.273 306.327 103.254C306.61 102.225 307.023 101.347 307.568 100.62C308.113 99.8835 308.779 99.3184 309.566 98.9248C310.364 98.5212 311.282 98.3193 312.321 98.3193C313.32 98.3193 314.183 98.5212 314.91 98.9248C315.636 99.3285 316.247 99.8986 316.741 100.635C317.246 101.372 317.649 102.24 317.952 103.239C318.255 104.238 318.487 105.333 318.648 106.523V107.22C318.497 108.36 318.265 109.42 317.952 110.398C317.649 111.377 317.246 112.235 316.741 112.972C316.247 113.708 315.631 114.284 314.895 114.697C314.168 115.101 313.3 115.303 312.291 115.303C311.272 115.303 310.364 115.096 309.566 114.682C308.779 114.258 308.113 113.673 307.568 112.926C307.023 112.18 306.61 111.302 306.327 110.292C306.055 109.273 305.918 108.168 305.918 106.978ZM310.278 106.66V106.978C310.278 107.654 310.333 108.289 310.444 108.885C310.555 109.47 310.732 109.99 310.974 110.444C311.226 110.898 311.549 111.256 311.943 111.519C312.336 111.771 312.821 111.897 313.396 111.897C314.193 111.897 314.834 111.725 315.318 111.382C315.813 111.029 316.176 110.55 316.408 109.944C316.65 109.339 316.792 108.648 316.832 107.871V105.888C316.802 105.252 316.716 104.682 316.575 104.177C316.444 103.663 316.242 103.224 315.969 102.86C315.707 102.497 315.364 102.22 314.94 102.028C314.526 101.826 314.022 101.725 313.426 101.725C312.861 101.725 312.377 101.851 311.973 102.104C311.569 102.356 311.242 102.709 310.989 103.163C310.747 103.607 310.565 104.127 310.444 104.722C310.333 105.318 310.278 105.963 310.278 106.66ZM333.785 111.08V98.6221H338.145V115H334.042L333.785 111.08ZM334.27 107.719L335.556 107.689C335.556 108.779 335.43 109.793 335.178 110.731C334.925 111.66 334.547 112.467 334.042 113.153C333.538 113.829 332.902 114.359 332.135 114.743C331.368 115.116 330.465 115.303 329.426 115.303C328.629 115.303 327.892 115.192 327.216 114.97C326.55 114.738 325.975 114.379 325.49 113.895C325.016 113.401 324.643 112.77 324.37 112.003C324.108 111.226 323.977 110.292 323.977 109.203V98.6221H328.336V109.233C328.336 109.717 328.391 110.126 328.502 110.459C328.624 110.792 328.79 111.064 329.002 111.276C329.214 111.488 329.461 111.64 329.744 111.73C330.036 111.821 330.359 111.867 330.712 111.867C331.611 111.867 332.317 111.685 332.832 111.322C333.356 110.958 333.725 110.464 333.937 109.838C334.159 109.203 334.27 108.496 334.27 107.719ZM349.013 115.303C347.741 115.303 346.601 115.101 345.592 114.697C344.583 114.284 343.725 113.713 343.019 112.987C342.322 112.26 341.787 111.418 341.414 110.459C341.041 109.49 340.854 108.461 340.854 107.371V106.766C340.854 105.524 341.031 104.389 341.384 103.36C341.737 102.331 342.242 101.438 342.897 100.681C343.563 99.9238 344.371 99.3436 345.319 98.9399C346.268 98.5262 347.338 98.3193 348.528 98.3193C349.689 98.3193 350.718 98.5111 351.616 98.8945C352.514 99.278 353.266 99.8229 353.872 100.529C354.487 101.236 354.951 102.083 355.264 103.072C355.577 104.051 355.733 105.141 355.733 106.342V108.158H342.716V105.252H351.45V104.919C351.45 104.313 351.339 103.774 351.117 103.299C350.905 102.815 350.582 102.431 350.148 102.149C349.714 101.866 349.159 101.725 348.483 101.725C347.908 101.725 347.413 101.851 347 102.104C346.586 102.356 346.248 102.709 345.985 103.163C345.733 103.617 345.541 104.152 345.41 104.768C345.289 105.373 345.229 106.039 345.229 106.766V107.371C345.229 108.027 345.319 108.632 345.501 109.188C345.693 109.743 345.96 110.222 346.303 110.625C346.656 111.029 347.08 111.342 347.575 111.564C348.079 111.786 348.649 111.897 349.285 111.897C350.072 111.897 350.804 111.746 351.48 111.443C352.166 111.13 352.757 110.661 353.251 110.035L355.37 112.336C355.027 112.83 354.558 113.305 353.962 113.759C353.377 114.213 352.671 114.586 351.843 114.879C351.016 115.161 350.072 115.303 349.013 115.303ZM367.071 110.474C367.071 110.161 366.98 109.879 366.798 109.626C366.617 109.374 366.279 109.142 365.784 108.93C365.3 108.708 364.598 108.506 363.68 108.325C362.853 108.143 362.081 107.916 361.364 107.644C360.658 107.361 360.042 107.023 359.518 106.629C359.003 106.236 358.599 105.772 358.307 105.237C358.014 104.692 357.868 104.071 357.868 103.375C357.868 102.689 358.014 102.043 358.307 101.438C358.609 100.832 359.038 100.297 359.593 99.833C360.158 99.3587 360.845 98.9904 361.652 98.728C362.469 98.4556 363.388 98.3193 364.407 98.3193C365.83 98.3193 367.051 98.5464 368.07 99.0005C369.099 99.4546 369.886 100.08 370.431 100.877C370.986 101.665 371.264 102.563 371.264 103.572H366.904C366.904 103.148 366.813 102.77 366.632 102.437C366.46 102.093 366.188 101.826 365.814 101.634C365.451 101.432 364.977 101.332 364.392 101.332C363.907 101.332 363.488 101.417 363.135 101.589C362.782 101.75 362.51 101.972 362.318 102.255C362.136 102.527 362.045 102.83 362.045 103.163C362.045 103.415 362.096 103.642 362.197 103.844C362.308 104.036 362.484 104.213 362.727 104.374C362.969 104.535 363.282 104.687 363.665 104.828C364.059 104.959 364.543 105.08 365.118 105.191C366.299 105.434 367.353 105.751 368.282 106.145C369.21 106.528 369.947 107.053 370.492 107.719C371.037 108.375 371.309 109.238 371.309 110.308C371.309 111.034 371.148 111.7 370.825 112.306C370.502 112.911 370.038 113.441 369.432 113.895C368.827 114.339 368.1 114.687 367.252 114.939C366.415 115.182 365.471 115.303 364.422 115.303C362.898 115.303 361.606 115.03 360.547 114.485C359.497 113.94 358.7 113.249 358.155 112.412C357.62 111.564 357.353 110.696 357.353 109.808H361.485C361.506 110.403 361.657 110.883 361.939 111.246C362.232 111.609 362.6 111.872 363.044 112.033C363.499 112.195 363.988 112.275 364.513 112.275C365.078 112.275 365.547 112.2 365.92 112.048C366.294 111.887 366.576 111.675 366.768 111.413C366.97 111.14 367.071 110.827 367.071 110.474Z" fill="#222222"/>
<mask id="mask1_275_12944" style="mask-type:alpha" maskUnits="userSpaceOnUse" x="207" y="153" width="294" height="25">
<rect x="207" y="153.386" width="294" height="24.5" rx="12.25" fill="#D9D9D9"/>
</mask>
<g mask="url(#mask1_275_12944)">
<rect x="207" y="153.386" width="26.95" height="24.5" fill="#A8EC6C"/>
<rect x="238.955" y="153.386" width="24.5" height="24.5" fill="#A8EC6C"/>
<rect x="268.355" y="153.386" width="24.5" height="24.5" fill="#A8EC6C"/>
<rect x="297.756" y="153.386" width="24.5" height="24.5" fill="#FAC04F"/>
<rect x="327.154" y="153.386" width="24.5" height="24.5" fill="#FAC04F"/>
<rect x="356.555" y="153.386" width="24.5" height="24.5" fill="#FAC04F"/>
<rect x="415.355" y="153.386" width="24.5" height="24.5" fill="#E96B73"/>
<rect x="385.955" y="153.386" width="24.5" height="24.5" fill="#FAC04F"/>
<rect x="444.754" y="153.386" width="24.5" height="24.5" fill="#E96B73"/>
<rect x="474.051" y="153.386" width="26.95" height="24.5" fill="#E96B73"/>
</g>
<mask id="path-74-outside-1_275_12944" maskUnits="userSpaceOnUse" x="267.924" y="160.426" width="25" height="35" fill="black">
<rect fill="white" x="267.924" y="160.426" width="25" height="35"/>
<path fill-rule="evenodd" clip-rule="evenodd" d="M287.85 178.734L280.499 166.426L273.148 178.734C269.74 184.441 273.852 191.686 280.499 191.686C287.146 191.686 291.258 184.441 287.85 178.734Z"/>
</mask>
<path fill-rule="evenodd" clip-rule="evenodd" d="M287.85 178.734L280.499 166.426L273.148 178.734C269.74 184.441 273.852 191.686 280.499 191.686C287.146 191.686 291.258 184.441 287.85 178.734Z" fill="#212121"/>
<path d="M280.499 166.426L283.074 164.888L280.499 160.575L277.923 164.888L280.499 166.426ZM287.85 178.734L285.274 180.272L285.274 180.272L287.85 178.734ZM273.148 178.734L275.724 180.272L275.724 180.272L273.148 178.734ZM277.923 167.964L285.274 180.272L290.425 177.196L283.074 164.888L277.923 167.964ZM275.724 180.272L283.074 167.964L277.923 164.888L270.572 177.196L275.724 180.272ZM280.499 188.686C276.181 188.686 273.51 183.979 275.724 180.272L270.572 177.196C265.97 184.902 271.522 194.686 280.499 194.686V188.686ZM285.274 180.272C287.488 183.979 284.817 188.686 280.499 188.686V194.686C289.475 194.686 295.028 184.902 290.425 177.196L285.274 180.272Z" fill="white" mask="url(#path-74-outside-1_275_12944)"/>
<circle cx="280.499" cy="183.575" r="3.675" fill="white"/>
</svg>
