<svg width="326" height="30" viewBox="0 0 326 30" fill="none" xmlns="http://www.w3.org/2000/svg">
<rect x="30" width="30" height="30" rx="8" transform="rotate(90 30 0)" fill="#E3E3E3"/>
<rect x="9" y="13" width="12" height="4" fill="#212121"/>
<path d="M83.7434 16.096C83.7434 18.0173 84.1688 19.5353 85.0194 20.65C85.8848 21.7647 87.0434 22.322 88.4954 22.322C89.1848 22.322 89.9108 22.1973 90.6734 21.948C91.4508 21.6987 92.1328 21.3613 92.7194 20.936V23.51C92.1474 23.8767 91.4508 24.1773 90.6294 24.412C89.8081 24.632 88.9941 24.742 88.1874 24.742C86.0608 24.742 84.3448 23.9353 83.0394 22.322C81.7341 20.7087 81.0814 18.6407 81.0814 16.118C81.0814 13.5807 81.7488 11.5053 83.0834 9.892C84.4328 8.27867 86.2001 7.472 88.3854 7.472C89.1774 7.472 89.9621 7.57467 90.7394 7.78C91.5168 7.98533 92.1401 8.264 92.6094 8.616V11.19C91.9934 10.7647 91.3408 10.442 90.6514 10.222C89.9621 9.98733 89.2874 9.87 88.6274 9.87C87.1314 9.87 85.9434 10.4273 85.0634 11.542C84.1834 12.642 83.7434 14.16 83.7434 16.096ZM105.763 18.516C105.763 20.3787 105.272 21.882 104.289 23.026C103.307 24.17 101.987 24.742 100.329 24.742C98.6867 24.742 97.374 24.17 96.3914 23.026C95.4087 21.882 94.9174 20.3787 94.9174 18.516C94.9174 16.6533 95.4087 15.15 96.3914 14.006C97.374 12.8473 98.6867 12.268 100.329 12.268C101.972 12.268 103.285 12.8473 104.267 14.006C105.265 15.15 105.763 16.6533 105.763 18.516ZM103.277 18.516C103.277 17.284 103.013 16.3013 102.485 15.568C101.957 14.8347 101.239 14.468 100.329 14.468C99.4054 14.468 98.6867 14.8347 98.1734 15.568C97.66 16.2867 97.4034 17.2693 97.4034 18.516C97.4034 19.7627 97.66 20.7453 98.1734 21.464C98.6867 22.1827 99.4054 22.542 100.329 22.542C101.239 22.542 101.957 22.1827 102.485 21.464C103.013 20.7307 103.277 19.748 103.277 18.516ZM111.302 7.098V24.5H108.838V7.098H111.302ZM117.726 7.098V24.5H115.262V7.098H117.726ZM130.398 24.06C129.782 24.2947 129.181 24.4633 128.594 24.566C128.007 24.6833 127.421 24.742 126.834 24.742C124.942 24.742 123.461 24.2067 122.39 23.136C121.334 22.0507 120.806 20.5327 120.806 18.582C120.806 16.6607 121.305 15.128 122.302 13.984C123.299 12.84 124.649 12.268 126.35 12.268C127.802 12.268 128.924 12.708 129.716 13.588C130.508 14.4533 130.904 15.6633 130.904 17.218C130.904 17.57 130.882 17.9367 130.838 18.318C130.794 18.6993 130.728 19.0807 130.64 19.462H123.204C123.351 20.5033 123.725 21.2807 124.326 21.794C124.927 22.3073 125.771 22.564 126.856 22.564C127.399 22.564 127.963 22.5053 128.55 22.388C129.151 22.256 129.767 22.0653 130.398 21.816V24.06ZM128.66 16.756C128.675 15.9933 128.455 15.3847 128 14.93C127.56 14.4607 126.944 14.226 126.152 14.226C125.287 14.226 124.597 14.512 124.084 15.084C123.571 15.656 123.277 16.47 123.204 17.526H128.594C128.609 17.4087 128.623 17.284 128.638 17.152C128.653 17.0053 128.66 16.8733 128.66 16.756ZM141.763 23.928C141.382 24.1773 140.89 24.3753 140.289 24.522C139.702 24.6687 139.108 24.742 138.507 24.742C136.835 24.742 135.515 24.1773 134.547 23.048C133.579 21.9187 133.095 20.408 133.095 18.516C133.095 16.624 133.579 15.1133 134.547 13.984C135.53 12.84 136.857 12.268 138.529 12.268C139.13 12.268 139.724 12.3413 140.311 12.488C140.898 12.62 141.36 12.796 141.697 13.016V15.392C141.433 15.128 141.015 14.9153 140.443 14.754C139.886 14.578 139.314 14.49 138.727 14.49C137.656 14.49 136.864 14.8127 136.351 15.458C135.838 16.1033 135.581 17.086 135.581 18.406C135.581 19.7847 135.838 20.8187 136.351 21.508C136.864 22.1827 137.642 22.52 138.683 22.52C139.226 22.52 139.79 22.432 140.377 22.256C140.978 22.08 141.44 21.8673 141.763 21.618V23.928ZM151.512 24.324C151.19 24.456 150.83 24.5587 150.434 24.632C150.038 24.7053 149.635 24.742 149.224 24.742C147.963 24.742 147.017 24.39 146.386 23.686C145.77 22.982 145.462 21.926 145.462 20.518V14.622H143.526V12.51H145.462V9.342H147.926V12.51H151.27V14.622H147.926V19.154C147.926 20.4593 148.051 21.3467 148.3 21.816C148.564 22.2853 149.048 22.52 149.752 22.52C150.031 22.52 150.324 22.4907 150.632 22.432C150.955 22.3733 151.248 22.3 151.512 22.212V24.324ZM163.097 24.06C162.481 24.2947 161.88 24.4633 161.293 24.566C160.707 24.6833 160.12 24.742 159.533 24.742C157.641 24.742 156.16 24.2067 155.089 23.136C154.033 22.0507 153.505 20.5327 153.505 18.582C153.505 16.6607 154.004 15.128 155.001 13.984C155.999 12.84 157.348 12.268 159.049 12.268C160.501 12.268 161.623 12.708 162.415 13.588C163.207 14.4533 163.603 15.6633 163.603 17.218C163.603 17.57 163.581 17.9367 163.537 18.318C163.493 18.6993 163.427 19.0807 163.339 19.462H155.903C156.05 20.5033 156.424 21.2807 157.025 21.794C157.627 22.3073 158.47 22.564 159.555 22.564C160.098 22.564 160.663 22.5053 161.249 22.388C161.851 22.256 162.467 22.0653 163.097 21.816V24.06ZM161.359 16.756C161.374 15.9933 161.154 15.3847 160.699 14.93C160.259 14.4607 159.643 14.226 158.851 14.226C157.986 14.226 157.297 14.512 156.783 15.084C156.27 15.656 155.977 16.47 155.903 17.526H161.293C161.308 17.4087 161.323 17.284 161.337 17.152C161.352 17.0053 161.359 16.8733 161.359 16.756ZM181.27 23.576C180.918 23.9427 180.478 24.2287 179.95 24.434C179.436 24.6393 178.894 24.742 178.322 24.742C176.943 24.742 175.821 24.17 174.956 23.026C174.09 21.882 173.658 20.4153 173.658 18.626C173.658 16.734 174.142 15.2013 175.11 14.028C176.092 12.8547 177.398 12.268 179.026 12.268C179.539 12.268 179.979 12.312 180.346 12.4C180.727 12.488 181.035 12.6273 181.27 12.818L181.336 12.752V7.098H183.822V24.5H181.336V23.642L181.27 23.576ZM181.336 15.062C181.116 14.886 180.83 14.7467 180.478 14.644C180.126 14.5413 179.759 14.49 179.378 14.49C178.366 14.49 177.574 14.8493 177.002 15.568C176.43 16.272 176.144 17.262 176.144 18.538C176.144 19.77 176.4 20.7527 176.914 21.486C177.427 22.2047 178.124 22.564 179.004 22.564C179.502 22.564 179.964 22.4467 180.39 22.212C180.815 21.9773 181.13 21.6767 181.336 21.31V15.062ZM196.484 24.06C195.868 24.2947 195.267 24.4633 194.68 24.566C194.093 24.6833 193.507 24.742 192.92 24.742C191.028 24.742 189.547 24.2067 188.476 23.136C187.42 22.0507 186.892 20.5327 186.892 18.582C186.892 16.6607 187.391 15.128 188.388 13.984C189.385 12.84 190.735 12.268 192.436 12.268C193.888 12.268 195.01 12.708 195.802 13.588C196.594 14.4533 196.99 15.6633 196.99 17.218C196.99 17.57 196.968 17.9367 196.924 18.318C196.88 18.6993 196.814 19.0807 196.726 19.462H189.29C189.437 20.5033 189.811 21.2807 190.412 21.794C191.013 22.3073 191.857 22.564 192.942 22.564C193.485 22.564 194.049 22.5053 194.636 22.388C195.237 22.256 195.853 22.0653 196.484 21.816V24.06ZM194.746 16.756C194.761 15.9933 194.541 15.3847 194.086 14.93C193.646 14.4607 193.03 14.226 192.238 14.226C191.373 14.226 190.683 14.512 190.17 15.084C189.657 15.656 189.363 16.47 189.29 17.526H194.68C194.695 17.4087 194.709 17.284 194.724 17.152C194.739 17.0053 194.746 16.8733 194.746 16.756ZM214.656 23.576C214.304 23.9427 213.864 24.2287 213.336 24.434C212.823 24.6393 212.28 24.742 211.708 24.742C210.33 24.742 209.208 24.17 208.342 23.026C207.477 21.882 207.044 20.4153 207.044 18.626C207.044 16.734 207.528 15.2013 208.496 14.028C209.479 12.8547 210.784 12.268 212.412 12.268C212.926 12.268 213.366 12.312 213.732 12.4C214.114 12.488 214.422 12.6273 214.656 12.818L214.722 12.752V7.098H217.208V24.5H214.722V23.642L214.656 23.576ZM214.722 15.062C214.502 14.886 214.216 14.7467 213.864 14.644C213.512 14.5413 213.146 14.49 212.764 14.49C211.752 14.49 210.96 14.8493 210.388 15.568C209.816 16.272 209.53 17.262 209.53 18.538C209.53 19.77 209.787 20.7527 210.3 21.486C210.814 22.2047 211.51 22.564 212.39 22.564C212.889 22.564 213.351 22.4467 213.776 22.212C214.202 21.9773 214.517 21.6767 214.722 21.31V15.062ZM231.125 18.516C231.125 20.3787 230.633 21.882 229.651 23.026C228.668 24.17 227.348 24.742 225.691 24.742C224.048 24.742 222.735 24.17 221.753 23.026C220.77 21.882 220.279 20.3787 220.279 18.516C220.279 16.6533 220.77 15.15 221.753 14.006C222.735 12.8473 224.048 12.268 225.691 12.268C227.333 12.268 228.646 12.8473 229.629 14.006C230.626 15.15 231.125 16.6533 231.125 18.516ZM228.639 18.516C228.639 17.284 228.375 16.3013 227.847 15.568C227.319 14.8347 226.6 14.468 225.691 14.468C224.767 14.468 224.048 14.8347 223.535 15.568C223.021 16.2867 222.765 17.2693 222.765 18.516C222.765 19.7627 223.021 20.7453 223.535 21.464C224.048 22.1827 224.767 22.542 225.691 22.542C226.6 22.542 227.319 22.1827 227.847 21.464C228.375 20.7307 228.639 19.748 228.639 18.516ZM236.664 15.656V24.5H234.2V12.51H236.664V13.39L236.73 13.456C237.287 13.06 237.866 12.7667 238.468 12.576C239.069 12.3707 239.692 12.268 240.338 12.268C241.496 12.268 242.376 12.5907 242.978 13.236C243.579 13.8813 243.88 14.8347 243.88 16.096V24.5H241.416V16.91C241.416 16.0153 241.284 15.3847 241.02 15.018C240.756 14.6513 240.308 14.468 239.678 14.468C239.106 14.468 238.519 14.5853 237.918 14.82C237.331 15.0547 236.913 15.3333 236.664 15.656ZM250.306 15.656V24.5H247.842V12.51H250.306V13.39L250.372 13.456C250.93 13.06 251.509 12.7667 252.11 12.576C252.712 12.3707 253.335 12.268 253.98 12.268C255.139 12.268 256.019 12.5907 256.62 13.236C257.222 13.8813 257.522 14.8347 257.522 16.096V24.5H255.058V16.91C255.058 16.0153 254.926 15.3847 254.662 15.018C254.398 14.6513 253.951 14.468 253.32 14.468C252.748 14.468 252.162 14.5853 251.56 14.82C250.974 15.0547 250.556 15.3333 250.306 15.656ZM269.999 6.416L265.533 10.288L264.257 8.968L267.865 4.634L269.999 6.416ZM270.197 24.06C269.581 24.2947 268.98 24.4633 268.393 24.566C267.806 24.6833 267.22 24.742 266.633 24.742C264.741 24.742 263.26 24.2067 262.189 23.136C261.133 22.0507 260.605 20.5327 260.605 18.582C260.605 16.6607 261.104 15.128 262.101 13.984C263.098 12.84 264.448 12.268 266.149 12.268C267.601 12.268 268.723 12.708 269.515 13.588C270.307 14.4533 270.703 15.6633 270.703 17.218C270.703 17.57 270.681 17.9367 270.637 18.318C270.593 18.6993 270.527 19.0807 270.439 19.462H263.003C263.15 20.5033 263.524 21.2807 264.125 21.794C264.726 22.3073 265.57 22.564 266.655 22.564C267.198 22.564 267.762 22.5053 268.349 22.388C268.95 22.256 269.566 22.0653 270.197 21.816V24.06ZM268.459 16.756C268.474 15.9933 268.254 15.3847 267.799 14.93C267.359 14.4607 266.743 14.226 265.951 14.226C265.086 14.226 264.396 14.512 263.883 15.084C263.37 15.656 263.076 16.47 263.003 17.526H268.393C268.408 17.4087 268.422 17.284 268.437 17.152C268.452 17.0053 268.459 16.8733 268.459 16.756ZM282.486 24.06C281.87 24.2947 281.269 24.4633 280.682 24.566C280.095 24.6833 279.509 24.742 278.922 24.742C277.03 24.742 275.549 24.2067 274.478 23.136C273.422 22.0507 272.894 20.5327 272.894 18.582C272.894 16.6607 273.393 15.128 274.39 13.984C275.387 12.84 276.737 12.268 278.438 12.268C279.89 12.268 281.012 12.708 281.804 13.588C282.596 14.4533 282.992 15.6633 282.992 17.218C282.992 17.57 282.97 17.9367 282.926 18.318C282.882 18.6993 282.816 19.0807 282.728 19.462H275.292C275.439 20.5033 275.813 21.2807 276.414 21.794C277.015 22.3073 277.859 22.564 278.944 22.564C279.487 22.564 280.051 22.5053 280.638 22.388C281.239 22.256 281.855 22.0653 282.486 21.816V24.06ZM280.748 16.756C280.763 15.9933 280.543 15.3847 280.088 14.93C279.648 14.4607 279.032 14.226 278.24 14.226C277.375 14.226 276.685 14.512 276.172 15.084C275.659 15.656 275.365 16.47 275.292 17.526H280.682C280.697 17.4087 280.711 17.284 280.726 17.152C280.741 17.0053 280.748 16.8733 280.748 16.756ZM293.697 21.178C293.697 22.2487 293.294 23.114 292.487 23.774C291.68 24.4193 290.602 24.742 289.253 24.742C288.578 24.742 287.904 24.6613 287.229 24.5C286.569 24.3387 286.034 24.126 285.623 23.862V21.508C285.814 21.684 286.041 21.8453 286.305 21.992C286.584 22.124 286.899 22.2487 287.251 22.366C287.544 22.454 287.845 22.5273 288.153 22.586C288.461 22.63 288.776 22.652 289.099 22.652C289.788 22.652 290.324 22.5493 290.705 22.344C291.086 22.124 291.277 21.816 291.277 21.42C291.277 21.0973 291.138 20.804 290.859 20.54C290.58 20.276 289.972 19.946 289.033 19.55C288.329 19.242 287.808 18.9927 287.471 18.802C287.148 18.6113 286.87 18.4133 286.635 18.208C286.254 17.8853 285.968 17.526 285.777 17.13C285.601 16.7193 285.513 16.2647 285.513 15.766C285.513 14.6953 285.902 13.8447 286.679 13.214C287.471 12.5833 288.549 12.268 289.913 12.268C290.558 12.268 291.182 12.3487 291.783 12.51C292.384 12.6567 292.876 12.8473 293.257 13.082V15.282C292.729 14.9887 292.164 14.7613 291.563 14.6C290.976 14.4387 290.404 14.358 289.847 14.358C289.231 14.358 288.754 14.468 288.417 14.688C288.094 14.908 287.933 15.2087 287.933 15.59C287.933 15.9127 288.072 16.206 288.351 16.47C288.63 16.7193 289.238 17.042 290.177 17.438C290.881 17.7313 291.394 17.9733 291.717 18.164C292.054 18.3547 292.34 18.5527 292.575 18.758C292.956 19.0807 293.235 19.44 293.411 19.836C293.602 20.232 293.697 20.6793 293.697 21.178Z" fill="#212121"/>
</svg>
