<svg width="282" height="175" viewBox="0 0 282 175" fill="none" xmlns="http://www.w3.org/2000/svg">
<path fill-rule="evenodd" clip-rule="evenodd" d="M40.2513 20.439V60.5169V60.5175V114.034H13.2109V60.5175V60.5169V20.439C13.2109 12.9641 19.2288 7 26.7713 7C30.5425 7 33.9125 8.51089 36.3197 10.8965C38.7268 13.3617 40.2513 16.7015 40.2513 20.439ZM40.2513 154.114V114.035H13.2109V154.114C13.2109 161.509 19.2288 167.553 26.691 167.553C34.2334 167.553 40.2513 161.509 40.2513 154.114Z" fill="#E96B73"/>
<path fill-rule="evenodd" clip-rule="evenodd" d="M40.2513 114.035H13.2109V154.114C13.2109 161.509 19.2288 167.553 26.691 167.553C34.2334 167.553 40.2513 161.509 40.2513 154.114V114.035ZM6.21094 20.439C6.21094 9.03889 15.4223 0 26.7712 0C32.4479 0 37.5721 2.2825 41.2471 5.92458L41.2878 5.96497L41.3279 6.00603C44.9125 9.67698 47.2513 14.7363 47.2513 20.439V154.114C47.2513 165.407 38.0671 174.553 26.691 174.553C15.368 174.553 6.21094 165.38 6.21094 154.114V20.439ZM13.2109 114.035V20.439C13.2109 12.9641 19.2288 7 26.7712 7C30.5425 7 33.9125 8.51089 36.3196 10.8965C38.7268 13.3617 40.2513 16.7015 40.2513 20.439V114.035H13.2109Z" fill="#212121"/>
<path d="M26.6603 167C19.2324 167 13.2109 160.978 13.2109 153.551L13.2109 20.0172C13.2109 12.5893 19.2324 6.56779 26.6603 6.56779V6.56779C34.0882 6.56779 40.1098 12.5893 40.1098 20.0172L40.1098 153.551C40.1098 160.978 34.0883 167 26.6603 167V167Z" fill="#212121"/>
<path d="M40.2513 60.5166H13.2109V114.034H40.2513V60.5166Z" fill="#FAC04F"/>
<path d="M40.2513 20.439V60.5175H13.2109V20.439C13.2109 12.9641 19.2288 7 26.7712 7C30.5425 7 33.9125 8.51089 36.3196 10.8965C38.7268 13.3617 40.2513 16.7015 40.2513 20.439Z" fill="#A8EB6C"/>
<path d="M40.2513 114.035V154.114C40.2513 161.509 34.2334 167.553 26.691 167.553C19.2288 167.553 13.2109 161.509 13.2109 154.114V114.035H40.2513Z" fill="#E96B73"/>
<path d="M0 88C0 85.2386 2.23858 83 5 83H23C25.7614 83 28 85.2386 28 88V88C28 90.7614 25.7614 93 23 93H5C2.23858 93 0 90.7614 0 88V88Z" fill="#212121"/>
<path fill-rule="evenodd" clip-rule="evenodd" d="M0 95.4845C1.4301 96.4417 3.14985 97 5 97H23C27.9706 97 32 92.9706 32 88C32 83.0294 27.9706 79 23 79H5C3.14985 79 1.4301 79.5583 0 80.5155V88V95.4845ZM0 88C0 90.7614 2.23858 93 5 93H23C25.7614 93 28 90.7614 28 88C28 85.2386 25.7614 83 23 83H5C2.23858 83 0 85.2386 0 88Z" fill="white"/>
<path opacity="0.2" d="M40.3945 125.5C35.6732 169.9 13.8945 155 12.8945 146L11.8945 160.5L18.288 167L29.5994 170L41.8945 160.5L40.3945 125.5Z" fill="#212121"/>
<path d="M181.195 93.618C180.834 94.2995 180.393 94.9009 179.791 95.4221C177.185 97.7475 173.176 97.507 170.851 94.9009C168.525 92.2949 168.766 88.2856 171.372 85.9602C172.535 84.9177 173.978 84.3965 175.421 84.3564C174.259 86.6017 174.499 89.4884 176.303 91.493C177.546 92.9765 179.391 93.6981 181.195 93.618Z" fill="#E1ECF1"/>
<path d="M174.871 86.4815C176.675 88.4862 176.956 91.3328 175.753 93.6181C173.949 93.6582 172.145 92.9766 170.862 91.4931C169.058 89.4885 168.777 86.6419 169.98 84.3566C171.784 84.3165 173.588 85.0381 174.871 86.4815Z" fill="#FEF5F5"/>
<path d="M273.251 89.0727C273.251 98.3719 271.608 107.31 268.601 115.607C262.308 132.923 250.003 147.313 234.21 156.372C227.917 159.979 221.023 162.745 213.768 164.468C211.483 165.03 209.119 165.47 206.754 165.791C204.108 166.152 201.423 166.392 198.697 166.513C197.735 166.553 196.733 166.553 195.731 166.553C181.221 166.553 167.633 162.544 156.009 155.61C151.159 152.724 146.67 149.277 142.581 145.429C127.63 131.32 118.251 111.279 118.251 89.0727C118.251 88.1508 118.251 87.269 118.291 86.3471C119.734 44.8214 153.844 11.5928 195.691 11.5928C238.579 11.6329 273.251 46.3044 273.251 89.0727Z" fill="#B9E2F3"/>
<path fill-rule="evenodd" clip-rule="evenodd" d="M276.123 118.333L276.12 118.34C269.169 137.467 255.591 153.331 238.191 163.311L238.189 163.312C231.251 167.289 223.651 170.34 215.646 172.245C213.076 172.875 210.443 173.364 207.829 173.719C204.938 174.113 202.012 174.374 199.05 174.505L199.04 174.505L199.03 174.506C197.9 174.553 196.756 174.553 195.801 174.553H195.731C179.729 174.553 164.731 170.128 151.91 162.48C146.523 159.274 141.574 155.468 137.098 151.255L137.091 151.247C120.609 135.694 110.251 113.577 110.251 89.0727L110.251 89.0105C110.251 88.1368 110.251 87.1193 110.297 86.0355C111.906 40.2373 149.526 3.59277 195.691 3.59277H195.698C242.99 3.63697 281.251 41.8766 281.251 89.0727C281.251 99.3203 279.439 109.18 276.123 118.333ZM118.291 86.3471C118.251 87.269 118.251 88.1508 118.251 89.0727C118.251 111.279 127.63 131.32 142.581 145.429C146.67 149.277 151.159 152.724 156.009 155.61C167.633 162.544 181.221 166.553 195.731 166.553C196.733 166.553 197.735 166.553 198.697 166.513C201.423 166.392 204.108 166.152 206.754 165.791C209.119 165.47 211.483 165.03 213.768 164.468C221.023 162.745 227.917 159.979 234.21 156.372C250.003 147.313 262.308 132.923 268.601 115.607C271.608 107.31 273.251 98.3719 273.251 89.0727C273.251 46.3044 238.579 11.6329 195.691 11.5928C153.844 11.5928 119.734 44.8214 118.291 86.3471Z" fill="#212121"/>
<mask id="mask0_186_3256" style="mask-type:alpha" maskUnits="userSpaceOnUse" x="118" y="11" width="156" height="156">
<path d="M273.251 89.0727C273.251 98.3719 271.608 107.31 268.601 115.607C262.308 132.923 250.003 147.313 234.21 156.372C227.917 159.979 221.023 162.745 213.768 164.468C211.483 165.03 209.119 165.47 206.754 165.791C204.108 166.152 201.423 166.392 198.697 166.513C197.735 166.553 196.733 166.553 195.731 166.553C181.221 166.553 167.633 162.544 156.009 155.61C151.159 152.724 146.67 149.277 142.581 145.429C127.63 131.32 118.251 111.279 118.251 89.0727C118.251 88.1508 118.251 87.269 118.291 86.3471C119.734 44.8214 153.844 11.5928 195.691 11.5928C238.579 11.6329 273.251 46.3044 273.251 89.0727Z" fill="#B9E2F3"/>
</mask>
<g mask="url(#mask0_186_3256)">
<path d="M188.722 111.046H128.509C126.72 111.046 125.251 109.577 125.251 107.787V29.8512C125.251 28.0618 126.72 26.5928 128.509 26.5928H188.722C190.511 26.5928 191.979 28.0618 191.979 29.8512V107.814C191.979 109.604 190.511 111.046 188.722 111.046Z" fill="#CE7E48"/>
<path d="M185.529 106.876H131.676C130.429 106.876 129.422 105.868 129.422 104.622V34.0593C129.422 32.8134 130.429 31.8062 131.676 31.8062H185.555C186.802 31.8062 187.809 32.8134 187.809 34.0593V104.622C187.783 105.868 186.775 106.876 185.529 106.876Z" fill="#B27247"/>
<path d="M185.294 34.1479H160.354V67.7012H185.294V34.1479Z" fill="#EAF7FF"/>
<path d="M176.456 38.8841L166.336 48.9421C165.829 49.4476 165.028 49.4476 164.52 48.9421L164.494 48.9155C163.986 48.4099 163.986 47.6117 164.494 47.1061L174.614 37.0481C175.121 36.5426 175.922 36.5426 176.43 37.0481L176.456 37.0747C176.964 37.5803 176.964 38.3785 176.456 38.8841Z" fill="white"/>
<path d="M168.311 38.5121L164.679 42.1308C164.306 42.5034 163.665 42.5034 163.291 42.1308L162.837 41.6785C162.463 41.306 162.463 40.6674 162.837 40.2949L166.495 36.6495C166.869 36.277 167.51 36.277 167.884 36.6495L168.338 37.1018C168.711 37.501 168.711 38.113 168.311 38.5121Z" fill="white"/>
<path d="M185.294 70.1479H160.354V103.701H185.294V70.1479Z" fill="#EAF7FF"/>
<path d="M176.456 74.8841L166.336 84.9421C165.829 85.4476 165.028 85.4476 164.52 84.9421L164.494 84.9155C163.986 84.4099 163.986 83.6117 164.494 83.1061L174.614 73.0481C175.121 72.5426 175.922 72.5426 176.43 73.0481L176.456 73.0747C176.964 73.5803 176.964 74.3785 176.456 74.8841Z" fill="white"/>
<path d="M168.311 74.5121L164.679 78.1308C164.306 78.5034 163.665 78.5034 163.291 78.1308L162.837 77.6785C162.463 77.306 162.463 76.6674 162.837 76.2949L166.495 72.6495C166.869 72.277 167.51 72.277 167.884 72.6495L168.338 73.1018C168.711 73.501 168.711 74.113 168.311 74.5121Z" fill="white"/>
<path d="M157.294 70.1479H132.354V103.701H157.294V70.1479Z" fill="#EAF7FF"/>
<path d="M148.456 74.8841L138.336 84.9421C137.829 85.4476 137.028 85.4476 136.52 84.9421L136.494 84.9155C135.986 84.4099 135.986 83.6117 136.494 83.1061L146.614 73.0481C147.121 72.5426 147.922 72.5426 148.43 73.0481L148.456 73.0747C148.964 73.5803 148.964 74.3785 148.456 74.8841Z" fill="white"/>
<path d="M140.311 74.5121L136.679 78.1308C136.306 78.5034 135.665 78.5034 135.291 78.1308L134.837 77.6785C134.463 77.306 134.463 76.6674 134.837 76.2949L138.495 72.6495C138.869 72.277 139.51 72.277 139.884 72.6495L140.338 73.1018C140.711 73.501 140.711 74.113 140.311 74.5121Z" fill="white"/>
<path d="M157.294 34.1479H132.354V67.7012H157.294V34.1479Z" fill="#EAF7FF"/>
<path d="M148.456 38.8841L138.336 48.9421C137.829 49.4476 137.028 49.4476 136.52 48.9421L136.494 48.9155C135.986 48.4099 135.986 47.6117 136.494 47.1061L146.614 37.0481C147.121 36.5426 147.922 36.5426 148.43 37.0481L148.456 37.0747C148.964 37.5803 148.964 38.3785 148.456 38.8841Z" fill="white"/>
<path d="M140.311 38.5121L136.679 42.1308C136.306 42.5034 135.665 42.5034 135.291 42.1308L134.837 41.6785C134.463 41.306 134.463 40.6674 134.837 40.2949L138.495 36.6495C138.869 36.277 139.51 36.277 139.884 36.6495L140.338 37.1018C140.711 37.501 140.711 38.113 140.311 38.5121Z" fill="white"/>
<path d="M182.251 58.5928H129.251V163.593H182.251V58.5928Z" fill="#4B5A59"/>
<path d="M189.055 122.636H122.978C120.93 122.636 119.251 120.977 119.251 118.909V107.319C119.251 105.272 120.93 103.593 122.978 103.593H189.055C191.123 103.593 192.782 105.272 192.782 107.319V118.909C192.802 120.977 191.123 122.636 189.055 122.636Z" fill="#617983"/>
<path d="M128.793 115.551C130.139 115.551 131.23 114.46 131.23 113.114C131.23 111.769 130.139 110.678 128.793 110.678C127.447 110.678 126.356 111.769 126.356 113.114C126.356 114.46 127.447 115.551 128.793 115.551Z" fill="#E96B73"/>
<path d="M137.25 115.551C138.596 115.551 139.687 114.46 139.687 113.114C139.687 111.769 138.596 110.678 137.25 110.678C135.904 110.678 134.813 111.769 134.813 113.114C134.813 114.46 135.904 115.551 137.25 115.551Z" fill="#FAC04F"/>
<path d="M145.687 115.551C147.032 115.551 148.123 114.46 148.123 113.114C148.123 111.769 147.032 110.678 145.687 110.678C144.341 110.678 143.25 111.769 143.25 113.114C143.25 114.46 144.341 115.551 145.687 115.551Z" fill="#A8EB6C"/>
<path d="M182.994 114.302H161.76C161.187 114.302 160.716 113.831 160.716 113.258V112.951C160.716 112.377 161.187 111.906 161.76 111.906H182.994C183.568 111.906 184.038 112.377 184.038 112.951V113.258C184.018 113.852 183.568 114.302 182.994 114.302Z" fill="#4B5A59"/>
<path d="M189.055 95.6359H122.978C120.93 95.6359 119.251 93.9773 119.251 91.9092V80.3195C119.251 78.2718 120.93 76.5928 122.978 76.5928H189.055C191.123 76.5928 192.782 78.2718 192.782 80.3195V91.9092C192.802 93.9773 191.123 95.6359 189.055 95.6359Z" fill="#617983"/>
<path d="M128.793 88.5511C130.139 88.5511 131.23 87.4602 131.23 86.1144C131.23 84.7687 130.139 83.6777 128.793 83.6777C127.447 83.6777 126.356 84.7687 126.356 86.1144C126.356 87.4602 127.447 88.5511 128.793 88.5511Z" fill="#E96B73"/>
<path d="M137.25 88.5511C138.596 88.5511 139.687 87.4602 139.687 86.1144C139.687 84.7687 138.596 83.6777 137.25 83.6777C135.904 83.6777 134.813 84.7687 134.813 86.1144C134.813 87.4602 135.904 88.5511 137.25 88.5511Z" fill="#FAC04F"/>
<path d="M145.687 88.5511C147.032 88.5511 148.123 87.4602 148.123 86.1144C148.123 84.7687 147.032 83.6777 145.687 83.6777C144.341 83.6777 143.25 84.7687 143.25 86.1144C143.25 87.4602 144.341 88.5511 145.687 88.5511Z" fill="#A8EB6C"/>
<path d="M182.994 87.302H161.76C161.187 87.302 160.716 86.831 160.716 86.2577V85.9505C160.716 85.3772 161.187 84.9062 161.76 84.9062H182.994C183.568 84.9062 184.038 85.3772 184.038 85.9505V86.2577C184.018 86.8515 183.568 87.302 182.994 87.302Z" fill="#4B5A59"/>
<path d="M189.055 68.6359H122.978C120.93 68.6359 119.251 66.9773 119.251 64.9092V53.3195C119.251 51.2718 120.93 49.5928 122.978 49.5928H189.055C191.123 49.5928 192.782 51.2718 192.782 53.3195V64.9092C192.802 66.9773 191.123 68.6359 189.055 68.6359Z" fill="#617983"/>
<path d="M128.793 61.5511C130.139 61.5511 131.23 60.4602 131.23 59.1144C131.23 57.7687 130.139 56.6777 128.793 56.6777C127.447 56.6777 126.356 57.7687 126.356 59.1144C126.356 60.4602 127.447 61.5511 128.793 61.5511Z" fill="#E96B73"/>
<path d="M137.25 61.5511C138.596 61.5511 139.687 60.4602 139.687 59.1144C139.687 57.7687 138.596 56.6777 137.25 56.6777C135.904 56.6777 134.813 57.7687 134.813 59.1144C134.813 60.4602 135.904 61.5511 137.25 61.5511Z" fill="#FAC04F"/>
<path d="M145.687 61.5511C147.032 61.5511 148.123 60.4602 148.123 59.1144C148.123 57.7687 147.032 56.6777 145.687 56.6777C144.341 56.6777 143.25 57.7687 143.25 59.1144C143.25 60.4602 144.341 61.5511 145.687 61.5511Z" fill="#A8EB6C"/>
<path d="M182.994 60.302H161.76C161.187 60.302 160.716 59.831 160.716 59.2577V58.9505C160.716 58.3772 161.187 57.9062 161.76 57.9062H182.994C183.568 57.9062 184.038 58.3772 184.038 58.9505V59.2577C184.018 59.8515 183.568 60.302 182.994 60.302Z" fill="#4B5A59"/>
<path d="M189.055 149.636H122.978C120.93 149.636 119.251 147.977 119.251 145.909V134.319C119.251 132.251 120.93 130.593 122.978 130.593H189.055C191.123 130.593 192.782 132.272 192.782 134.319V145.909C192.802 147.977 191.123 149.636 189.055 149.636Z" fill="#617983"/>
<path d="M128.793 142.551C130.139 142.551 131.23 141.46 131.23 140.114C131.23 138.769 130.139 137.678 128.793 137.678C127.447 137.678 126.356 138.769 126.356 140.114C126.356 141.46 127.447 142.551 128.793 142.551Z" fill="#E96B73"/>
<path d="M137.25 142.551C138.596 142.551 139.687 141.46 139.687 140.114C139.687 138.769 138.596 137.678 137.25 137.678C135.904 137.678 134.813 138.769 134.813 140.114C134.813 141.46 135.904 142.551 137.25 142.551Z" fill="#FAC04F"/>
<path d="M145.687 142.551C147.032 142.551 148.123 141.46 148.123 140.114C148.123 138.769 147.032 137.678 145.687 137.678C144.341 137.678 143.25 138.769 143.25 140.114C143.25 141.46 144.341 142.551 145.687 142.551Z" fill="#A8EB6C"/>
<path d="M182.994 141.302H161.76C161.187 141.302 160.716 140.831 160.716 140.258V139.951C160.716 139.377 161.187 138.906 161.76 138.906H182.994C183.568 138.906 184.038 139.377 184.038 139.951V140.258C184.018 140.852 183.568 141.302 182.994 141.302Z" fill="#4B5A59"/>
<path d="M189.055 176.636H122.978C120.93 176.636 119.251 174.977 119.251 172.909V161.319C119.251 159.251 120.93 157.593 122.978 157.593H189.055C191.123 157.593 192.782 159.272 192.782 161.319V172.909C192.802 174.977 191.123 176.636 189.055 176.636Z" fill="#617983"/>
<path d="M128.793 169.551C130.139 169.551 131.23 168.46 131.23 167.114C131.23 165.769 130.139 164.678 128.793 164.678C127.447 164.678 126.356 165.769 126.356 167.114C126.356 168.46 127.447 169.551 128.793 169.551Z" fill="#E96B73"/>
<path d="M137.25 169.551C138.596 169.551 139.687 168.46 139.687 167.114C139.687 165.769 138.596 164.678 137.25 164.678C135.904 164.678 134.813 165.769 134.813 167.114C134.813 168.46 135.904 169.551 137.25 169.551Z" fill="#FAC04F"/>
<path d="M145.687 169.551C147.032 169.551 148.123 168.46 148.123 167.114C148.123 165.769 147.032 164.678 145.687 164.678C144.341 164.678 143.25 165.769 143.25 167.114C143.25 168.46 144.341 169.551 145.687 169.551Z" fill="#A8EB6C"/>
<path d="M182.994 168.302H161.76C161.187 168.302 160.716 167.831 160.716 167.258V166.951C160.716 166.377 161.187 165.906 161.76 165.906H182.994C183.568 165.906 184.038 166.377 184.038 166.951V167.258C184.018 167.852 183.568 168.302 182.994 168.302Z" fill="#4B5A59"/>
<path d="M260.251 113.593H207.251V163.593H260.251V113.593Z" fill="#4B5A59"/>
<path d="M267.055 122.636H200.978C198.93 122.636 197.251 120.977 197.251 118.909V107.319C197.251 105.272 198.93 103.593 200.978 103.593H267.055C269.123 103.593 270.782 105.272 270.782 107.319V118.909C270.802 120.977 269.123 122.636 267.055 122.636Z" fill="#617983"/>
<path d="M206.793 115.551C208.139 115.551 209.23 114.46 209.23 113.114C209.23 111.769 208.139 110.678 206.793 110.678C205.447 110.678 204.356 111.769 204.356 113.114C204.356 114.46 205.447 115.551 206.793 115.551Z" fill="#E96B73"/>
<path d="M215.25 115.551C216.596 115.551 217.687 114.46 217.687 113.114C217.687 111.769 216.596 110.678 215.25 110.678C213.904 110.678 212.813 111.769 212.813 113.114C212.813 114.46 213.904 115.551 215.25 115.551Z" fill="#FAC04F"/>
<path d="M223.687 115.551C225.032 115.551 226.123 114.46 226.123 113.114C226.123 111.769 225.032 110.678 223.687 110.678C222.341 110.678 221.25 111.769 221.25 113.114C221.25 114.46 222.341 115.551 223.687 115.551Z" fill="#A8EB6C"/>
<path d="M260.994 114.302H239.76C239.187 114.302 238.716 113.831 238.716 113.258V112.951C238.716 112.377 239.187 111.906 239.76 111.906H260.994C261.568 111.906 262.038 112.377 262.038 112.951V113.258C262.018 113.852 261.568 114.302 260.994 114.302Z" fill="#4B5A59"/>
<path d="M267.055 149.636H200.978C198.93 149.636 197.251 147.977 197.251 145.909V134.319C197.251 132.251 198.93 130.593 200.978 130.593H267.055C269.123 130.593 270.782 132.272 270.782 134.319V145.909C270.802 147.977 269.123 149.636 267.055 149.636Z" fill="#617983"/>
<path d="M206.793 142.551C208.139 142.551 209.23 141.46 209.23 140.114C209.23 138.769 208.139 137.678 206.793 137.678C205.447 137.678 204.356 138.769 204.356 140.114C204.356 141.46 205.447 142.551 206.793 142.551Z" fill="#E96B73"/>
<path d="M215.25 142.551C216.596 142.551 217.687 141.46 217.687 140.114C217.687 138.769 216.596 137.678 215.25 137.678C213.904 137.678 212.813 138.769 212.813 140.114C212.813 141.46 213.904 142.551 215.25 142.551Z" fill="#FAC04F"/>
<path d="M223.687 142.551C225.032 142.551 226.123 141.46 226.123 140.114C226.123 138.769 225.032 137.678 223.687 137.678C222.341 137.678 221.25 138.769 221.25 140.114C221.25 141.46 222.341 142.551 223.687 142.551Z" fill="#A8EB6C"/>
<path d="M260.994 141.302H239.76C239.187 141.302 238.716 140.831 238.716 140.258V139.951C238.716 139.377 239.187 138.906 239.76 138.906H260.994C261.568 138.906 262.038 139.377 262.038 139.951V140.258C262.018 140.852 261.568 141.302 260.994 141.302Z" fill="#4B5A59"/>
<path d="M267.055 176.636H200.978C198.93 176.636 197.251 174.977 197.251 172.909V161.319C197.251 159.251 198.93 157.593 200.978 157.593H267.055C269.123 157.593 270.782 159.272 270.782 161.319V172.909C270.802 174.977 269.123 176.636 267.055 176.636Z" fill="#617983"/>
<path d="M206.793 169.551C208.139 169.551 209.23 168.46 209.23 167.114C209.23 165.769 208.139 164.678 206.793 164.678C205.447 164.678 204.356 165.769 204.356 167.114C204.356 168.46 205.447 169.551 206.793 169.551Z" fill="#E96B73"/>
<path d="M215.25 169.551C216.596 169.551 217.687 168.46 217.687 167.114C217.687 165.769 216.596 164.678 215.25 164.678C213.904 164.678 212.813 165.769 212.813 167.114C212.813 168.46 213.904 169.551 215.25 169.551Z" fill="#FAC04F"/>
<path d="M223.687 169.551C225.032 169.551 226.123 168.46 226.123 167.114C226.123 165.769 225.032 164.678 223.687 164.678C222.341 164.678 221.25 165.769 221.25 167.114C221.25 168.46 222.341 169.551 223.687 169.551Z" fill="#A8EB6C"/>
<path d="M260.994 168.302H239.76C239.187 168.302 238.716 167.831 238.716 167.258V166.951C238.716 166.377 239.187 165.906 239.76 165.906H260.994C261.568 165.906 262.038 166.377 262.038 166.951V167.258C262.018 167.852 261.568 168.302 260.994 168.302Z" fill="#4B5A59"/>
<path d="M139.238 143.655L149.647 205.647H160.557L149.145 142.526L139.238 143.655Z" fill="#ECBA5A"/>
<path d="M140.116 143.655L129.707 205.647H118.797L130.167 142.526L140.116 143.655Z" fill="#ECBA5A"/>
<path d="M265.312 142.526H220.083V205.647H265.312V142.526Z" fill="#ECBA5A"/>
<path d="M265.228 148.587H219.999V153.771H234.964L237.806 158.202H247.755L250.305 153.771H265.228V148.587Z" fill="#DEA14E"/>
<path d="M268.322 145.286H121.18C119.007 145.286 117.251 143.53 117.251 141.357V139.141C117.251 136.968 119.007 135.212 121.18 135.212H268.322C270.495 135.212 272.251 136.968 272.251 139.141V141.357C272.209 143.53 270.495 145.286 268.322 145.286Z" fill="#FAC04F"/>
<path d="M139.699 124.844H139.616C136.815 124.844 134.558 122.545 134.558 119.786V108.625C134.558 105.825 136.857 103.567 139.616 103.567H139.699C142.5 103.567 144.757 105.866 144.757 108.625V119.786C144.757 122.545 142.5 124.844 139.699 124.844Z" fill="#A8EC6C"/>
<path d="M144.005 118.366L141.496 135.254H132.342L129.583 118.366H144.005Z" fill="#E96B73"/>
<path d="M149.731 118.366L147.474 135.254H141.496L144.004 118.366H149.731Z" fill="#DC4F58"/>
<path d="M261.717 80.4101V132.035C261.717 133.791 260.254 135.254 258.498 135.254H237.305C235.549 135.254 234.086 133.791 234.086 132.035V80.4101C234.086 78.6545 235.549 77.1914 237.305 77.1914H258.498C260.295 77.1914 261.717 78.6127 261.717 80.4101Z" fill="#E6E9ED"/>
<path d="M261.759 83.127H234.128V87.8923H261.759V83.127Z" fill="#CCD1D8"/>
<path d="M247.922 106.285C249.699 106.285 251.141 104.844 251.141 103.066C251.141 101.289 249.699 99.8477 247.922 99.8477C246.144 99.8477 244.703 101.289 244.703 103.066C244.703 104.844 246.144 106.285 247.922 106.285Z" fill="#A8EC6C"/>
<path d="M253.733 119.912H242.154C241.318 119.912 240.649 119.244 240.649 118.408V118.157C240.649 117.321 241.318 116.652 242.154 116.652H253.733C254.569 116.652 255.238 117.321 255.238 118.157V118.408C255.196 119.244 254.528 119.912 253.733 119.912Z" fill="#CCD1D8"/>
<path d="M253.733 124.469H242.154C241.318 124.469 240.649 123.8 240.649 122.964V122.713C240.649 121.877 241.318 121.208 242.154 121.208H253.733C254.569 121.208 255.238 121.877 255.238 122.713V122.964C255.196 123.8 254.528 124.469 253.733 124.469Z" fill="#CCD1D8"/>
<path d="M253.733 129.067H242.154C241.318 129.067 240.649 128.398 240.649 127.562V127.311C240.649 126.475 241.318 125.806 242.154 125.806H253.733C254.569 125.806 255.238 126.475 255.238 127.311V127.562C255.196 128.398 254.528 129.067 253.733 129.067Z" fill="#CCD1D8"/>
<path d="M183.838 125.134L181.873 131.906H205.24L203.192 125.134H183.838Z" fill="#CCD1D8"/>
<path d="M221.877 126.179H165.111C162.435 126.179 160.262 124.005 160.262 121.33V78.4418C160.262 75.7665 162.435 73.5928 165.111 73.5928H221.877C224.552 73.5928 226.726 75.7665 226.726 78.4418V121.33C226.726 124.005 224.552 126.179 221.877 126.179Z" fill="#E6E9ED"/>
<path d="M223.549 78.7764V116.105C223.549 117.15 222.713 118.028 221.626 118.028H165.068C164.023 118.028 163.146 117.192 163.146 116.105V78.7764C163.146 77.7313 163.982 76.8535 165.068 76.8535H221.668C222.671 76.8953 223.549 77.7313 223.549 78.7764Z" fill="#6EB7E6"/>
<path d="M193.745 123.671C194.622 123.671 195.333 122.96 195.333 122.083C195.333 121.205 194.622 120.494 193.745 120.494C192.867 120.494 192.156 121.205 192.156 122.083C192.156 122.96 192.867 123.671 193.745 123.671Z" fill="#CCD1D8"/>
<path d="M209.337 133.912V135.291H177.567V133.912C177.567 132.198 178.989 130.777 180.702 130.777H206.201C207.915 130.777 209.337 132.198 209.337 133.912Z" fill="#E6E9ED"/>
<path d="M223.55 78.7761V93.2394L213.727 118.028H191.99L208.335 76.895H221.669C222.673 76.895 223.55 77.731 223.55 78.7761Z" fill="#93C7E9"/>
</g>
<path d="M219.251 52.545C219.251 52.251 219.251 51.957 219.251 51.6629C219.361 51.2587 219.353 50.8397 219.426 50.428C220.135 46.4881 222.094 43.32 225.39 41.0781C229.073 38.5789 233.115 37.9467 237.354 39.2625C241.753 40.6297 244.757 43.5773 246.402 47.9068C246.979 49.4137 247.242 50.9867 247.235 52.6112C247.22 52.6406 247.198 52.6773 247.191 52.7067C247.14 53.677 246.964 54.6179 246.701 55.5514C246.263 57.095 245.59 58.5284 244.662 59.8295C244.056 60.6821 243.369 61.4686 242.579 62.1743C241.753 62.9094 240.862 63.5489 239.897 64.0781C238.136 65.0484 236.243 65.607 234.248 65.7393C232.896 65.8276 231.544 65.7614 230.214 65.4453C228.635 65.0704 227.151 64.475 225.777 63.6003C224.425 62.7477 223.256 61.6892 222.262 60.4396C221.531 59.5207 220.939 58.5211 220.464 57.4479C219.887 56.1395 219.499 54.7796 219.331 53.3536C219.317 53.0816 219.375 52.8023 219.251 52.545ZM233.254 40.9752C227.012 40.9384 221.634 45.9736 221.568 52.5965C221.509 59.212 226.757 64.4456 233.239 64.453C239.7 64.4603 244.976 59.2414 244.918 52.6038C244.874 45.9809 239.488 40.9384 233.254 40.9752Z" fill="#EB5A78"/>
<path d="M232.158 66.7909C231.829 66.6659 231.485 66.688 231.149 66.6365C228.335 66.1955 225.872 65.012 223.782 63.0715C221.429 60.8883 219.989 58.1907 219.434 55.0152C219.361 54.6109 219.361 54.2066 219.251 53.8097C219.251 53.3907 219.251 52.9644 219.251 52.5454C219.375 52.8027 219.317 53.082 219.346 53.3466C219.514 54.7726 219.901 56.1325 220.479 57.4409C220.954 58.5141 221.546 59.5138 222.277 60.4326C223.271 61.6822 224.44 62.7407 225.792 63.5934C227.166 64.4607 228.65 65.0635 230.228 65.4384C231.558 65.7544 232.91 65.8206 234.262 65.7324C236.258 65.6001 238.15 65.0414 239.912 64.0711C240.876 63.5419 241.768 62.9024 242.594 62.1673C243.383 61.469 244.07 60.6752 244.677 59.8225C245.605 58.5214 246.277 57.0881 246.716 55.5445C246.979 54.6109 247.154 53.6701 247.206 52.6998C247.206 52.663 247.235 52.6336 247.249 52.6042C247.286 55.0887 246.701 57.4189 245.481 59.5652C243.332 63.3361 240.116 65.6589 235.878 66.541C235.424 66.6365 234.957 66.6659 234.496 66.7321C234.43 66.7394 234.35 66.7027 234.299 66.7835C233.575 66.7909 232.866 66.7909 232.158 66.7909Z" fill="#DC4F58"/>
<path d="M233.254 40.9753C239.481 40.9385 244.867 45.9811 244.926 52.6113C244.977 59.2415 239.7 64.4678 233.247 64.4605C226.765 64.4458 221.517 59.2121 221.576 52.5966C221.634 45.9811 227.013 40.9385 233.254 40.9753ZM234.066 53.9271C234.153 54.0079 234.226 54.0961 234.321 54.177C234.943 54.6989 235.564 55.2208 236.185 55.7426C237.106 56.5145 238.02 57.2936 238.94 58.0654C239.174 58.2639 239.386 58.2492 239.569 58.0581C239.73 57.889 239.708 57.6097 239.503 57.4259C239.218 57.1687 238.926 56.9261 238.633 56.6762C237.771 55.9485 236.909 55.2134 236.046 54.493C235.564 54.0888 235.103 53.6624 234.592 53.3023C234.672 53.0891 234.702 52.8686 234.723 52.648C235.637 51.7145 236.543 50.781 237.464 49.8475C237.713 49.5902 237.822 49.2962 237.72 48.9507C237.53 48.3112 236.77 48.1421 236.273 48.6346C235.396 49.5167 234.533 50.4061 233.664 51.2882C233.364 51.2441 233.064 51.2441 232.765 51.3249C232.48 51.0677 232.195 50.8104 231.91 50.5531C230.477 49.2668 229.038 47.9878 227.605 46.7014C227.379 46.5029 227.13 46.3927 226.83 46.4588C226.487 46.5323 226.26 46.7455 226.173 47.0836C226.085 47.4365 226.202 47.7305 226.472 47.9657C228.256 49.5608 230.031 51.1559 231.807 52.7583C231.829 52.8759 231.837 52.9935 231.866 53.1111C232.071 53.905 233.043 54.5224 234.066 53.9271ZM232.823 43.107C232.823 43.3275 232.816 43.548 232.823 43.7685C232.838 44.0258 232.999 44.1875 233.233 44.1949C233.481 44.2022 233.664 44.0405 233.671 43.7685C233.686 43.3348 233.686 42.9085 233.671 42.4748C233.664 42.2028 233.488 42.0338 233.247 42.0338C233.006 42.0338 232.838 42.2028 232.823 42.4748C232.816 42.688 232.823 42.9012 232.823 43.107ZM223.71 52.2805C223.512 52.2805 223.308 52.2732 223.11 52.2805C222.818 52.2879 222.643 52.4496 222.635 52.6995C222.635 52.9568 222.803 53.1258 223.096 53.1332C223.505 53.1405 223.914 53.1405 224.324 53.1332C224.616 53.1258 224.784 52.9568 224.784 52.6995C224.784 52.4422 224.609 52.2879 224.316 52.2805C224.112 52.2732 223.914 52.2805 223.71 52.2805ZM242.814 52.2805C242.602 52.2805 242.397 52.2732 242.185 52.2805C241.893 52.2879 241.718 52.4496 241.718 52.7069C241.718 52.9641 241.886 53.1332 242.178 53.1405C242.587 53.1479 242.997 53.1479 243.406 53.1405C243.691 53.1332 243.866 52.9568 243.866 52.7069C243.859 52.4569 243.684 52.2952 243.391 52.2879C243.201 52.2732 243.011 52.2805 242.814 52.2805ZM232.823 62.3214C232.823 62.5199 232.816 62.7257 232.823 62.9242C232.838 63.2182 233.006 63.3873 233.254 63.3873C233.496 63.3873 233.671 63.2182 233.678 62.9389C233.686 62.5199 233.686 62.0936 233.678 61.6746C233.671 61.3953 233.503 61.2335 233.262 61.2262C233.006 61.2188 232.838 61.3953 232.823 61.6819C232.816 61.8951 232.823 62.1083 232.823 62.3214Z" fill="white"/>
<path d="M231.8 52.7655C230.024 51.1704 228.241 49.568 226.465 47.9729C226.195 47.7303 226.078 47.4436 226.165 47.0908C226.253 46.7527 226.48 46.5395 226.823 46.466C227.123 46.3999 227.371 46.5101 227.598 46.7086C229.03 47.9949 230.463 49.2739 231.903 50.5603C232.188 50.8176 232.473 51.0748 232.758 51.3321C232.399 51.5232 232.071 51.7437 231.939 52.1627C231.807 52.3391 231.844 52.5597 231.8 52.7655Z" fill="#617983"/>
<path d="M233.648 51.2952C234.518 50.4132 235.388 49.5238 236.258 48.6417C236.747 48.1492 237.515 48.3183 237.705 48.9578C237.807 49.3032 237.705 49.5973 237.449 49.8545C236.535 50.7881 235.622 51.7216 234.708 52.6551C234.642 52.4934 234.679 52.3096 234.562 52.1626C234.416 51.6995 234.05 51.4717 233.648 51.2952Z" fill="#617983"/>
<path d="M234.577 53.3022C235.089 53.6624 235.549 54.0961 236.031 54.493C236.901 55.2134 237.756 55.9485 238.619 56.6762C238.911 56.9261 239.203 57.1687 239.488 57.4259C239.693 57.6097 239.715 57.8817 239.554 58.0581C239.371 58.2565 239.167 58.2639 238.925 58.0654C238.005 57.2936 237.091 56.5145 236.17 55.7426C235.549 55.2208 234.928 54.6989 234.307 54.177C234.219 54.1035 234.138 54.0153 234.051 53.927C234.277 53.758 234.453 53.5522 234.577 53.3022Z" fill="#74CBED"/>
<path d="M233.649 51.2952C234.051 51.4789 234.423 51.6995 234.569 52.1625C234.482 52.6477 234.058 53.0226 233.429 53.1402C232.801 53.2578 231.982 52.7212 231.938 52.1625C232.07 51.7436 232.399 51.523 232.757 51.3319C233.049 51.2437 233.342 51.2437 233.649 51.2952Z" fill="#EB5A78"/>
<path d="M231.93 52.1553C231.974 52.7139 232.793 53.2505 233.421 53.1329C234.05 53.0153 234.474 52.6404 234.561 52.1553C234.678 52.3023 234.634 52.4861 234.708 52.6478C234.686 52.8683 234.656 53.0962 234.576 53.302C234.452 53.5519 234.276 53.7504 234.057 53.9268C233.041 54.5222 232.062 53.9047 231.857 53.1109C231.828 52.9932 231.813 52.8756 231.799 52.758C231.843 52.5596 231.806 52.339 231.93 52.1553Z" fill="#DC4F58"/>
<path d="M232.824 43.1064C232.824 42.8932 232.816 42.6874 232.824 42.4742C232.838 42.2023 233.006 42.0332 233.247 42.0332C233.489 42.0332 233.664 42.2023 233.671 42.4742C233.679 42.9079 233.686 43.3343 233.671 43.7679C233.664 44.0399 233.481 44.2016 233.233 44.1943C232.999 44.1869 232.838 44.0252 232.824 43.7679C232.816 43.5474 232.824 43.3269 232.824 43.1064Z" fill="#617983"/>
<path d="M223.709 52.2806C223.906 52.2806 224.111 52.2733 224.308 52.2806C224.608 52.288 224.776 52.4497 224.776 52.6996C224.776 52.9569 224.608 53.1259 224.315 53.1333C223.906 53.1406 223.497 53.1406 223.087 53.1333C222.795 53.1259 222.627 52.9569 222.627 52.6996C222.627 52.4497 222.802 52.288 223.102 52.2806C223.307 52.2733 223.511 52.2806 223.709 52.2806Z" fill="#617983"/>
<path d="M242.814 52.2798C243.004 52.2798 243.194 52.2725 243.391 52.2798C243.684 52.2872 243.859 52.4489 243.866 52.6988C243.874 52.9561 243.698 53.1325 243.406 53.1325C242.997 53.1398 242.587 53.1398 242.178 53.1325C241.886 53.1251 241.718 52.9561 241.718 52.6988C241.718 52.4415 241.893 52.2872 242.186 52.2725C242.397 52.2725 242.609 52.2798 242.814 52.2798Z" fill="#617983"/>
<path d="M232.824 62.3215C232.824 62.1083 232.816 61.9025 232.824 61.6894C232.838 61.3953 232.999 61.2263 233.262 61.2336C233.503 61.241 233.671 61.4027 233.679 61.682C233.686 62.101 233.686 62.5273 233.679 62.9463C233.671 63.2183 233.496 63.3874 233.255 63.3947C232.999 63.3947 232.831 63.2256 232.824 62.9316C232.816 62.7184 232.824 62.52 232.824 62.3215Z" fill="#617983"/>
<path d="M193.207 89.5928C197.134 89.6398 200.203 90.7099 202.861 92.9147C203.367 93.3321 203.837 93.7907 204.301 94.2552C204.983 94.9254 205.001 95.8602 204.378 96.4776C203.755 97.0949 202.837 97.0714 202.179 96.3953C201.332 95.531 200.427 94.7432 199.38 94.1317C195.03 91.5859 189.344 92.3032 185.769 95.8544C185.458 96.166 185.152 96.4835 184.829 96.7833C184.205 97.3654 183.3 97.3654 182.712 96.7892C182.118 96.2071 182.089 95.3135 182.677 94.6726C184.882 92.262 187.521 90.5511 190.773 89.9103C191.731 89.7221 192.707 89.6574 193.207 89.5928Z" fill="#F5F5F5"/>
<path d="M193.578 95.084C196.5 95.084 198.728 96.2481 200.545 98.2824C201.174 98.9938 201.151 99.958 200.51 100.581C199.869 101.204 198.905 101.199 198.205 100.575C197.688 100.117 197.206 99.5935 196.623 99.2231C194.472 97.8591 191.855 98.1824 189.997 99.9874C189.697 100.281 189.409 100.593 189.098 100.875C188.41 101.498 187.428 101.481 186.793 100.84C186.17 100.211 186.135 99.229 186.758 98.5587C187.599 97.6533 188.475 96.7831 189.574 96.1776C190.867 95.4661 192.249 95.0957 193.578 95.084Z" fill="#F5F5F5"/>
<path d="M193.659 106.59C192.26 106.655 191.014 105.508 190.949 104.091C190.884 102.657 191.99 101.393 193.377 101.322C194.912 101.246 196.158 102.351 196.223 103.856C196.293 105.302 195.147 106.52 193.659 106.59Z" fill="#F5F5F5"/>
</svg>
