<svg width="282" height="175" viewBox="0 0 282 175" fill="none" xmlns="http://www.w3.org/2000/svg">
<path fill-rule="evenodd" clip-rule="evenodd" d="M40.2513 20.439V60.5169V60.5175V114.034H13.2109V60.5175V60.5169V20.439C13.2109 12.9641 19.2288 7 26.7713 7C30.5425 7 33.9125 8.51089 36.3197 10.8965C38.7268 13.3617 40.2513 16.7015 40.2513 20.439ZM40.2513 154.114V114.035H13.2109V154.114C13.2109 161.509 19.2288 167.553 26.691 167.553C34.2334 167.553 40.2513 161.509 40.2513 154.114Z" fill="#E96B73"/>
<path fill-rule="evenodd" clip-rule="evenodd" d="M40.2513 114.035H13.2109V154.114C13.2109 161.509 19.2288 167.553 26.691 167.553C34.2334 167.553 40.2513 161.509 40.2513 154.114V114.035ZM6.21094 20.439C6.21094 9.03889 15.4223 0 26.7712 0C32.4479 0 37.5721 2.2825 41.2471 5.92458L41.2878 5.96497L41.3279 6.00603C44.9125 9.67698 47.2513 14.7363 47.2513 20.439V154.114C47.2513 165.407 38.0671 174.553 26.691 174.553C15.368 174.553 6.21094 165.38 6.21094 154.114V20.439ZM13.2109 114.035V20.439C13.2109 12.9641 19.2288 7 26.7712 7C30.5425 7 33.9125 8.51089 36.3196 10.8965C38.7268 13.3617 40.2513 16.7015 40.2513 20.439V114.035H13.2109Z" fill="#212121"/>
<path d="M26.6603 167C19.2324 167 13.2109 160.978 13.2109 153.551L13.2109 20.0172C13.2109 12.5893 19.2324 6.56779 26.6603 6.56779V6.56779C34.0882 6.56779 40.1098 12.5893 40.1098 20.0172L40.1098 153.551C40.1098 160.978 34.0883 167 26.6603 167V167Z" fill="#212121"/>
<path d="M40.2513 60.5166H13.2109V114.034H40.2513V60.5166Z" fill="#FAC04F"/>
<path d="M40.2513 20.439V60.5175H13.2109V20.439C13.2109 12.9641 19.2288 7 26.7712 7C30.5425 7 33.9125 8.51089 36.3196 10.8965C38.7268 13.3617 40.2513 16.7015 40.2513 20.439Z" fill="#A8EB6C"/>
<path d="M40.2513 114.035V154.114C40.2513 161.509 34.2334 167.553 26.691 167.553C19.2288 167.553 13.2109 161.509 13.2109 154.114V114.035H40.2513Z" fill="#E96B73"/>
<path opacity="0.2" d="M40.3945 125.5C35.6732 169.9 13.8945 155 12.8945 146L11.8945 160.5L18.288 167L29.5994 170L41.8945 160.5L40.3945 125.5Z" fill="#212121"/>
<path d="M0 140C0 137.239 2.23858 135 5 135H23C25.7614 135 28 137.239 28 140C28 142.761 25.7614 145 23 145H5C2.23858 145 0 142.761 0 140Z" fill="#212121"/>
<path fill-rule="evenodd" clip-rule="evenodd" d="M0 147.484C1.4301 148.442 3.14985 149 5 149H23C27.9706 149 32 144.971 32 140C32 135.029 27.9706 131 23 131H5C3.14985 131 1.4301 131.558 0 132.516V140V147.484ZM0 140C0 142.761 2.23858 145 5 145H23C25.7614 145 28 142.761 28 140C28 137.239 25.7614 135 23 135H5C2.23858 135 0 137.239 0 140Z" fill="white"/>
<path d="M273.251 89.0727C273.251 98.3719 271.608 107.31 268.601 115.607C262.308 132.923 250.003 147.313 234.21 156.372C227.917 159.979 221.023 162.745 213.768 164.468C211.483 165.03 209.119 165.47 206.754 165.791C204.108 166.152 201.423 166.392 198.697 166.513C197.735 166.553 196.733 166.553 195.731 166.553C181.221 166.553 167.633 162.544 156.009 155.61C151.159 152.724 146.67 149.277 142.581 145.429C127.63 131.32 118.251 111.279 118.251 89.0727C118.251 88.1508 118.251 87.269 118.291 86.3471C119.734 44.8214 153.844 11.5928 195.691 11.5928C238.579 11.6329 273.251 46.3044 273.251 89.0727Z" fill="#C7C7C7"/>
<path fill-rule="evenodd" clip-rule="evenodd" d="M276.123 118.333L276.12 118.34C269.169 137.467 255.591 153.331 238.191 163.311L238.189 163.312C231.251 167.289 223.651 170.34 215.646 172.245C213.076 172.875 210.443 173.364 207.829 173.719C204.938 174.113 202.012 174.374 199.05 174.505L199.04 174.505L199.03 174.506C197.9 174.553 196.756 174.553 195.801 174.553H195.731C179.729 174.553 164.731 170.128 151.91 162.48C146.523 159.274 141.574 155.468 137.098 151.255L137.091 151.247C120.609 135.694 110.251 113.577 110.251 89.0727L110.251 89.0105C110.251 88.1368 110.251 87.1193 110.297 86.0355C111.906 40.2373 149.526 3.59277 195.691 3.59277H195.698C242.99 3.63697 281.251 41.8766 281.251 89.0727C281.251 99.3203 279.439 109.18 276.123 118.333ZM118.291 86.3471C118.251 87.269 118.251 88.1508 118.251 89.0727C118.251 111.279 127.63 131.32 142.581 145.429C146.67 149.277 151.159 152.724 156.009 155.61C167.633 162.544 181.221 166.553 195.731 166.553C196.733 166.553 197.735 166.553 198.697 166.513C201.423 166.392 204.108 166.152 206.754 165.791C209.119 165.47 211.483 165.03 213.768 164.468C221.023 162.745 227.917 159.979 234.21 156.372C250.003 147.313 262.308 132.923 268.601 115.607C271.608 107.31 273.251 98.3719 273.251 89.0727C273.251 46.3044 238.579 11.6329 195.691 11.5928C153.844 11.5928 119.734 44.8214 118.291 86.3471Z" fill="#212121"/>
<mask id="mask0_176_3007" style="mask-type:alpha" maskUnits="userSpaceOnUse" x="118" y="11" width="156" height="156">
<path d="M273.251 89.0727C273.251 98.3719 271.608 107.31 268.601 115.607C262.308 132.923 250.003 147.313 234.21 156.372C227.917 159.979 221.023 162.745 213.768 164.468C211.483 165.03 209.119 165.47 206.754 165.791C204.108 166.152 201.423 166.392 198.697 166.513C197.735 166.553 196.733 166.553 195.731 166.553C181.221 166.553 167.633 162.544 156.009 155.61C151.159 152.724 146.67 149.277 142.581 145.429C127.63 131.32 118.251 111.279 118.251 89.0727C118.251 88.1508 118.251 87.269 118.291 86.3471C119.734 44.8214 153.844 11.5928 195.691 11.5928C238.579 11.6329 273.251 46.3044 273.251 89.0727Z" fill="#C7C7C7"/>
</mask>
<g mask="url(#mask0_176_3007)">
<path d="M188.722 111.046H128.509C126.72 111.046 125.251 109.577 125.251 107.787V29.8512C125.251 28.0618 126.72 26.5928 128.509 26.5928H188.722C190.511 26.5928 191.979 28.0618 191.979 29.8512V107.814C191.979 109.604 190.511 111.046 188.722 111.046Z" fill="#CE7E48"/>
<path d="M185.529 106.876H131.676C130.429 106.876 129.422 105.868 129.422 104.622V34.0593C129.422 32.8134 130.429 31.8062 131.676 31.8062H185.555C186.802 31.8062 187.809 32.8134 187.809 34.0593V104.622C187.783 105.868 186.775 106.876 185.529 106.876Z" fill="#B27247"/>
<path d="M185.294 34.1479H160.354V67.7012H185.294V34.1479Z" fill="#EAF7FF"/>
<path d="M176.456 38.8841L166.336 48.9421C165.829 49.4476 165.028 49.4476 164.52 48.9421L164.494 48.9155C163.986 48.4099 163.986 47.6117 164.494 47.1061L174.614 37.0481C175.121 36.5426 175.922 36.5426 176.43 37.0481L176.456 37.0747C176.964 37.5803 176.964 38.3785 176.456 38.8841Z" fill="white"/>
<path d="M168.311 38.5121L164.679 42.1308C164.306 42.5034 163.665 42.5034 163.291 42.1308L162.837 41.6785C162.463 41.306 162.463 40.6674 162.837 40.2949L166.495 36.6495C166.869 36.277 167.51 36.277 167.884 36.6495L168.338 37.1018C168.711 37.501 168.711 38.113 168.311 38.5121Z" fill="white"/>
<path d="M185.294 70.1479H160.354V103.701H185.294V70.1479Z" fill="#EAF7FF"/>
<path d="M176.456 74.8841L166.336 84.9421C165.829 85.4476 165.028 85.4476 164.52 84.9421L164.494 84.9155C163.986 84.4099 163.986 83.6117 164.494 83.1061L174.614 73.0481C175.121 72.5426 175.922 72.5426 176.43 73.0481L176.456 73.0747C176.964 73.5803 176.964 74.3785 176.456 74.8841Z" fill="white"/>
<path d="M168.311 74.5121L164.679 78.1308C164.306 78.5034 163.665 78.5034 163.291 78.1308L162.837 77.6785C162.463 77.306 162.463 76.6674 162.837 76.2949L166.495 72.6495C166.869 72.277 167.51 72.277 167.884 72.6495L168.338 73.1018C168.711 73.501 168.711 74.113 168.311 74.5121Z" fill="white"/>
<path d="M157.294 70.1479H132.354V103.701H157.294V70.1479Z" fill="#EAF7FF"/>
<path d="M148.456 74.8841L138.336 84.9421C137.829 85.4476 137.028 85.4476 136.52 84.9421L136.494 84.9155C135.986 84.4099 135.986 83.6117 136.494 83.1061L146.614 73.0481C147.121 72.5426 147.922 72.5426 148.43 73.0481L148.456 73.0747C148.964 73.5803 148.964 74.3785 148.456 74.8841Z" fill="white"/>
<path d="M140.311 74.5121L136.679 78.1308C136.306 78.5034 135.665 78.5034 135.291 78.1308L134.837 77.6785C134.463 77.306 134.463 76.6674 134.837 76.2949L138.495 72.6495C138.869 72.277 139.51 72.277 139.884 72.6495L140.338 73.1018C140.711 73.501 140.711 74.113 140.311 74.5121Z" fill="white"/>
<path d="M157.294 34.1479H132.354V67.7012H157.294V34.1479Z" fill="#EAF7FF"/>
<path d="M148.456 38.8841L138.336 48.9421C137.829 49.4476 137.028 49.4476 136.52 48.9421L136.494 48.9155C135.986 48.4099 135.986 47.6117 136.494 47.1061L146.614 37.0481C147.121 36.5426 147.922 36.5426 148.43 37.0481L148.456 37.0747C148.964 37.5803 148.964 38.3785 148.456 38.8841Z" fill="white"/>
<path d="M140.311 38.5121L136.679 42.1308C136.306 42.5034 135.665 42.5034 135.291 42.1308L134.837 41.6785C134.463 41.306 134.463 40.6674 134.837 40.2949L138.495 36.6495C138.869 36.277 139.51 36.277 139.884 36.6495L140.338 37.1018C140.711 37.501 140.711 38.113 140.311 38.5121Z" fill="white"/>
<path d="M182.251 27.5928H129.251V163.593H182.251V27.5928Z" fill="#4B5A59"/>
<path d="M189.055 122.636H122.978C120.93 122.636 119.251 120.977 119.251 118.909V107.319C119.251 105.272 120.93 103.593 122.978 103.593H189.055C191.123 103.593 192.782 105.272 192.782 107.319V118.909C192.802 120.977 191.123 122.636 189.055 122.636Z" fill="#617983"/>
<path d="M128.793 115.551C130.139 115.551 131.23 114.46 131.23 113.114C131.23 111.769 130.139 110.678 128.793 110.678C127.447 110.678 126.356 111.769 126.356 113.114C126.356 114.46 127.447 115.551 128.793 115.551Z" fill="#E96B73"/>
<path d="M137.25 115.551C138.596 115.551 139.687 114.46 139.687 113.114C139.687 111.769 138.596 110.678 137.25 110.678C135.904 110.678 134.813 111.769 134.813 113.114C134.813 114.46 135.904 115.551 137.25 115.551Z" fill="#FAC04F"/>
<path d="M145.687 115.551C147.032 115.551 148.123 114.46 148.123 113.114C148.123 111.769 147.032 110.678 145.687 110.678C144.341 110.678 143.25 111.769 143.25 113.114C143.25 114.46 144.341 115.551 145.687 115.551Z" fill="#A8EB6C"/>
<path d="M182.994 114.302H161.76C161.187 114.302 160.716 113.831 160.716 113.258V112.951C160.716 112.377 161.187 111.906 161.76 111.906H182.994C183.568 111.906 184.038 112.377 184.038 112.951V113.258C184.018 113.852 183.568 114.302 182.994 114.302Z" fill="#4B5A59"/>
<path d="M189.055 95.6359H122.978C120.93 95.6359 119.251 93.9773 119.251 91.9092V80.3195C119.251 78.2718 120.93 76.5928 122.978 76.5928H189.055C191.123 76.5928 192.782 78.2718 192.782 80.3195V91.9092C192.802 93.9773 191.123 95.6359 189.055 95.6359Z" fill="#617983"/>
<path d="M128.793 88.5511C130.139 88.5511 131.23 87.4602 131.23 86.1144C131.23 84.7687 130.139 83.6777 128.793 83.6777C127.447 83.6777 126.356 84.7687 126.356 86.1144C126.356 87.4602 127.447 88.5511 128.793 88.5511Z" fill="#E96B73"/>
<path d="M137.25 88.5511C138.596 88.5511 139.687 87.4602 139.687 86.1144C139.687 84.7687 138.596 83.6777 137.25 83.6777C135.904 83.6777 134.813 84.7687 134.813 86.1144C134.813 87.4602 135.904 88.5511 137.25 88.5511Z" fill="#FAC04F"/>
<path d="M145.687 88.5511C147.032 88.5511 148.123 87.4602 148.123 86.1144C148.123 84.7687 147.032 83.6777 145.687 83.6777C144.341 83.6777 143.25 84.7687 143.25 86.1144C143.25 87.4602 144.341 88.5511 145.687 88.5511Z" fill="#A8EB6C"/>
<path d="M182.994 87.302H161.76C161.187 87.302 160.716 86.831 160.716 86.2577V85.9505C160.716 85.3772 161.187 84.9062 161.76 84.9062H182.994C183.568 84.9062 184.038 85.3772 184.038 85.9505V86.2577C184.018 86.8515 183.568 87.302 182.994 87.302Z" fill="#4B5A59"/>
<path d="M189.055 68.6359H122.978C120.93 68.6359 119.251 66.9773 119.251 64.9092V53.3195C119.251 51.2718 120.93 49.5928 122.978 49.5928H189.055C191.123 49.5928 192.782 51.2718 192.782 53.3195V64.9092C192.802 66.9773 191.123 68.6359 189.055 68.6359Z" fill="#617983"/>
<path d="M128.793 61.5511C130.139 61.5511 131.23 60.4602 131.23 59.1144C131.23 57.7687 130.139 56.6777 128.793 56.6777C127.447 56.6777 126.356 57.7687 126.356 59.1144C126.356 60.4602 127.447 61.5511 128.793 61.5511Z" fill="#E96B73"/>
<path d="M137.25 61.5511C138.596 61.5511 139.687 60.4602 139.687 59.1144C139.687 57.7687 138.596 56.6777 137.25 56.6777C135.904 56.6777 134.813 57.7687 134.813 59.1144C134.813 60.4602 135.904 61.5511 137.25 61.5511Z" fill="#FAC04F"/>
<path d="M145.687 61.5511C147.032 61.5511 148.123 60.4602 148.123 59.1144C148.123 57.7687 147.032 56.6777 145.687 56.6777C144.341 56.6777 143.25 57.7687 143.25 59.1144C143.25 60.4602 144.341 61.5511 145.687 61.5511Z" fill="#A8EB6C"/>
<path d="M182.994 60.302H161.76C161.187 60.302 160.716 59.831 160.716 59.2577V58.9505C160.716 58.3772 161.187 57.9062 161.76 57.9062H182.994C183.568 57.9062 184.038 58.3772 184.038 58.9505V59.2577C184.018 59.8515 183.568 60.302 182.994 60.302Z" fill="#4B5A59"/>
<path d="M189.055 41.6359H122.978C120.93 41.6359 119.251 39.9773 119.251 37.9092V26.3195C119.251 24.2718 120.93 22.5928 122.978 22.5928H189.055C191.123 22.5928 192.782 24.2718 192.782 26.3195V37.9092C192.802 39.9773 191.123 41.6359 189.055 41.6359Z" fill="#617983"/>
<path d="M128.793 34.5511C130.139 34.5511 131.23 33.4602 131.23 32.1144C131.23 30.7687 130.139 29.6777 128.793 29.6777C127.447 29.6777 126.356 30.7687 126.356 32.1144C126.356 33.4602 127.447 34.5511 128.793 34.5511Z" fill="#E96B73"/>
<path d="M137.25 34.5511C138.596 34.5511 139.687 33.4602 139.687 32.1144C139.687 30.7687 138.596 29.6777 137.25 29.6777C135.904 29.6777 134.813 30.7687 134.813 32.1144C134.813 33.4602 135.904 34.5511 137.25 34.5511Z" fill="#FAC04F"/>
<path d="M145.687 34.5511C147.032 34.5511 148.123 33.4602 148.123 32.1144C148.123 30.7687 147.032 29.6777 145.687 29.6777C144.341 29.6777 143.25 30.7687 143.25 32.1144C143.25 33.4602 144.341 34.5511 145.687 34.5511Z" fill="#A8EB6C"/>
<path d="M182.994 33.302H161.76C161.187 33.302 160.716 32.831 160.716 32.2577V31.9505C160.716 31.3772 161.187 30.9062 161.76 30.9062H182.994C183.568 30.9062 184.038 31.3772 184.038 31.9505V32.2577C184.018 32.8515 183.568 33.302 182.994 33.302Z" fill="#4B5A59"/>
<path d="M189.055 149.636H122.978C120.93 149.636 119.251 147.977 119.251 145.909V134.319C119.251 132.251 120.93 130.593 122.978 130.593H189.055C191.123 130.593 192.782 132.272 192.782 134.319V145.909C192.802 147.977 191.123 149.636 189.055 149.636Z" fill="#617983"/>
<path d="M128.793 142.551C130.139 142.551 131.23 141.46 131.23 140.114C131.23 138.769 130.139 137.678 128.793 137.678C127.447 137.678 126.356 138.769 126.356 140.114C126.356 141.46 127.447 142.551 128.793 142.551Z" fill="#E96B73"/>
<path d="M137.25 142.551C138.596 142.551 139.687 141.46 139.687 140.114C139.687 138.769 138.596 137.678 137.25 137.678C135.904 137.678 134.813 138.769 134.813 140.114C134.813 141.46 135.904 142.551 137.25 142.551Z" fill="#FAC04F"/>
<path d="M145.687 142.551C147.032 142.551 148.123 141.46 148.123 140.114C148.123 138.769 147.032 137.678 145.687 137.678C144.341 137.678 143.25 138.769 143.25 140.114C143.25 141.46 144.341 142.551 145.687 142.551Z" fill="#A8EB6C"/>
<path d="M182.994 141.302H161.76C161.187 141.302 160.716 140.831 160.716 140.258V139.951C160.716 139.377 161.187 138.906 161.76 138.906H182.994C183.568 138.906 184.038 139.377 184.038 139.951V140.258C184.018 140.852 183.568 141.302 182.994 141.302Z" fill="#4B5A59"/>
<path d="M189.055 176.636H122.978C120.93 176.636 119.251 174.977 119.251 172.909V161.319C119.251 159.251 120.93 157.593 122.978 157.593H189.055C191.123 157.593 192.782 159.272 192.782 161.319V172.909C192.802 174.977 191.123 176.636 189.055 176.636Z" fill="#617983"/>
<path d="M128.793 169.551C130.139 169.551 131.23 168.46 131.23 167.114C131.23 165.769 130.139 164.678 128.793 164.678C127.447 164.678 126.356 165.769 126.356 167.114C126.356 168.46 127.447 169.551 128.793 169.551Z" fill="#E96B73"/>
<path d="M137.25 169.551C138.596 169.551 139.687 168.46 139.687 167.114C139.687 165.769 138.596 164.678 137.25 164.678C135.904 164.678 134.813 165.769 134.813 167.114C134.813 168.46 135.904 169.551 137.25 169.551Z" fill="#FAC04F"/>
<path d="M145.687 169.551C147.032 169.551 148.123 168.46 148.123 167.114C148.123 165.769 147.032 164.678 145.687 164.678C144.341 164.678 143.25 165.769 143.25 167.114C143.25 168.46 144.341 169.551 145.687 169.551Z" fill="#A8EB6C"/>
<path d="M182.994 168.302H161.76C161.187 168.302 160.716 167.831 160.716 167.258V166.951C160.716 166.377 161.187 165.906 161.76 165.906H182.994C183.568 165.906 184.038 166.377 184.038 166.951V167.258C184.018 167.852 183.568 168.302 182.994 168.302Z" fill="#4B5A59"/>
<path d="M260.251 27.5928H207.251V163.593H260.251V27.5928Z" fill="#4B5A59"/>
<path d="M267.055 122.636H200.978C198.93 122.636 197.251 120.977 197.251 118.909V107.319C197.251 105.272 198.93 103.593 200.978 103.593H267.055C269.123 103.593 270.782 105.272 270.782 107.319V118.909C270.802 120.977 269.123 122.636 267.055 122.636Z" fill="#617983"/>
<path d="M206.793 115.551C208.139 115.551 209.23 114.46 209.23 113.114C209.23 111.769 208.139 110.678 206.793 110.678C205.447 110.678 204.356 111.769 204.356 113.114C204.356 114.46 205.447 115.551 206.793 115.551Z" fill="#E96B73"/>
<path d="M215.25 115.551C216.596 115.551 217.687 114.46 217.687 113.114C217.687 111.769 216.596 110.678 215.25 110.678C213.904 110.678 212.813 111.769 212.813 113.114C212.813 114.46 213.904 115.551 215.25 115.551Z" fill="#FAC04F"/>
<path d="M223.687 115.551C225.032 115.551 226.123 114.46 226.123 113.114C226.123 111.769 225.032 110.678 223.687 110.678C222.341 110.678 221.25 111.769 221.25 113.114C221.25 114.46 222.341 115.551 223.687 115.551Z" fill="#A8EB6C"/>
<path d="M260.994 114.302H239.76C239.187 114.302 238.716 113.831 238.716 113.258V112.951C238.716 112.377 239.187 111.906 239.76 111.906H260.994C261.568 111.906 262.038 112.377 262.038 112.951V113.258C262.018 113.852 261.568 114.302 260.994 114.302Z" fill="#4B5A59"/>
<path d="M267.055 95.6359H200.978C198.93 95.6359 197.251 93.9773 197.251 91.9092V80.3195C197.251 78.2718 198.93 76.5928 200.978 76.5928H267.055C269.123 76.5928 270.782 78.2718 270.782 80.3195V91.9092C270.802 93.9773 269.123 95.6359 267.055 95.6359Z" fill="#617983"/>
<path d="M206.793 88.5511C208.139 88.5511 209.23 87.4602 209.23 86.1144C209.23 84.7687 208.139 83.6777 206.793 83.6777C205.447 83.6777 204.356 84.7687 204.356 86.1144C204.356 87.4602 205.447 88.5511 206.793 88.5511Z" fill="#E96B73"/>
<path d="M215.25 88.5511C216.596 88.5511 217.687 87.4602 217.687 86.1144C217.687 84.7687 216.596 83.6777 215.25 83.6777C213.904 83.6777 212.813 84.7687 212.813 86.1144C212.813 87.4602 213.904 88.5511 215.25 88.5511Z" fill="#FAC04F"/>
<path d="M223.687 88.5511C225.032 88.5511 226.123 87.4602 226.123 86.1144C226.123 84.7687 225.032 83.6777 223.687 83.6777C222.341 83.6777 221.25 84.7687 221.25 86.1144C221.25 87.4602 222.341 88.5511 223.687 88.5511Z" fill="#A8EB6C"/>
<path d="M260.994 87.302H239.76C239.187 87.302 238.716 86.831 238.716 86.2577V85.9505C238.716 85.3772 239.187 84.9062 239.76 84.9062H260.994C261.568 84.9062 262.038 85.3772 262.038 85.9505V86.2577C262.018 86.8515 261.568 87.302 260.994 87.302Z" fill="#4B5A59"/>
<path d="M267.055 68.6359H200.978C198.93 68.6359 197.251 66.9773 197.251 64.9092V53.3195C197.251 51.2718 198.93 49.5928 200.978 49.5928H267.055C269.123 49.5928 270.782 51.2718 270.782 53.3195V64.9092C270.802 66.9773 269.123 68.6359 267.055 68.6359Z" fill="#617983"/>
<path d="M206.793 61.5511C208.139 61.5511 209.23 60.4602 209.23 59.1144C209.23 57.7687 208.139 56.6777 206.793 56.6777C205.447 56.6777 204.356 57.7687 204.356 59.1144C204.356 60.4602 205.447 61.5511 206.793 61.5511Z" fill="#E96B73"/>
<path d="M215.25 61.5511C216.596 61.5511 217.687 60.4602 217.687 59.1144C217.687 57.7687 216.596 56.6777 215.25 56.6777C213.904 56.6777 212.813 57.7687 212.813 59.1144C212.813 60.4602 213.904 61.5511 215.25 61.5511Z" fill="#FAC04F"/>
<path d="M223.687 61.5511C225.032 61.5511 226.123 60.4602 226.123 59.1144C226.123 57.7687 225.032 56.6777 223.687 56.6777C222.341 56.6777 221.25 57.7687 221.25 59.1144C221.25 60.4602 222.341 61.5511 223.687 61.5511Z" fill="#A8EB6C"/>
<path d="M260.994 60.302H239.76C239.187 60.302 238.716 59.831 238.716 59.2577V58.9505C238.716 58.3772 239.187 57.9062 239.76 57.9062H260.994C261.568 57.9062 262.038 58.3772 262.038 58.9505V59.2577C262.018 59.8515 261.568 60.302 260.994 60.302Z" fill="#4B5A59"/>
<path d="M267.055 41.6359H200.978C198.93 41.6359 197.251 39.9773 197.251 37.9092V26.3195C197.251 24.2718 198.93 22.5928 200.978 22.5928H267.055C269.123 22.5928 270.782 24.2718 270.782 26.3195V37.9092C270.802 39.9773 269.123 41.6359 267.055 41.6359Z" fill="#617983"/>
<path d="M206.793 34.5511C208.139 34.5511 209.23 33.4602 209.23 32.1144C209.23 30.7687 208.139 29.6777 206.793 29.6777C205.447 29.6777 204.356 30.7687 204.356 32.1144C204.356 33.4602 205.447 34.5511 206.793 34.5511Z" fill="#E96B73"/>
<path d="M215.25 34.5511C216.596 34.5511 217.687 33.4602 217.687 32.1144C217.687 30.7687 216.596 29.6777 215.25 29.6777C213.904 29.6777 212.813 30.7687 212.813 32.1144C212.813 33.4602 213.904 34.5511 215.25 34.5511Z" fill="#FAC04F"/>
<path d="M223.687 34.5511C225.032 34.5511 226.123 33.4602 226.123 32.1144C226.123 30.7687 225.032 29.6777 223.687 29.6777C222.341 29.6777 221.25 30.7687 221.25 32.1144C221.25 33.4602 222.341 34.5511 223.687 34.5511Z" fill="#A8EB6C"/>
<path d="M260.994 33.302H239.76C239.187 33.302 238.716 32.831 238.716 32.2577V31.9505C238.716 31.3772 239.187 30.9062 239.76 30.9062H260.994C261.568 30.9062 262.038 31.3772 262.038 31.9505V32.2577C262.018 32.8515 261.568 33.302 260.994 33.302Z" fill="#4B5A59"/>
<path d="M267.055 149.636H200.978C198.93 149.636 197.251 147.977 197.251 145.909V134.319C197.251 132.251 198.93 130.593 200.978 130.593H267.055C269.123 130.593 270.782 132.272 270.782 134.319V145.909C270.802 147.977 269.123 149.636 267.055 149.636Z" fill="#617983"/>
<path d="M206.793 142.551C208.139 142.551 209.23 141.46 209.23 140.114C209.23 138.769 208.139 137.678 206.793 137.678C205.447 137.678 204.356 138.769 204.356 140.114C204.356 141.46 205.447 142.551 206.793 142.551Z" fill="#E96B73"/>
<path d="M215.25 142.551C216.596 142.551 217.687 141.46 217.687 140.114C217.687 138.769 216.596 137.678 215.25 137.678C213.904 137.678 212.813 138.769 212.813 140.114C212.813 141.46 213.904 142.551 215.25 142.551Z" fill="#FAC04F"/>
<path d="M223.687 142.551C225.032 142.551 226.123 141.46 226.123 140.114C226.123 138.769 225.032 137.678 223.687 137.678C222.341 137.678 221.25 138.769 221.25 140.114C221.25 141.46 222.341 142.551 223.687 142.551Z" fill="#A8EB6C"/>
<path d="M260.994 141.302H239.76C239.187 141.302 238.716 140.831 238.716 140.258V139.951C238.716 139.377 239.187 138.906 239.76 138.906H260.994C261.568 138.906 262.038 139.377 262.038 139.951V140.258C262.018 140.852 261.568 141.302 260.994 141.302Z" fill="#4B5A59"/>
<path d="M267.055 176.636H200.978C198.93 176.636 197.251 174.977 197.251 172.909V161.319C197.251 159.251 198.93 157.593 200.978 157.593H267.055C269.123 157.593 270.782 159.272 270.782 161.319V172.909C270.802 174.977 269.123 176.636 267.055 176.636Z" fill="#617983"/>
<path d="M206.793 169.551C208.139 169.551 209.23 168.46 209.23 167.114C209.23 165.769 208.139 164.678 206.793 164.678C205.447 164.678 204.356 165.769 204.356 167.114C204.356 168.46 205.447 169.551 206.793 169.551Z" fill="#E96B73"/>
<path d="M215.25 169.551C216.596 169.551 217.687 168.46 217.687 167.114C217.687 165.769 216.596 164.678 215.25 164.678C213.904 164.678 212.813 165.769 212.813 167.114C212.813 168.46 213.904 169.551 215.25 169.551Z" fill="#FAC04F"/>
<path d="M223.687 169.551C225.032 169.551 226.123 168.46 226.123 167.114C226.123 165.769 225.032 164.678 223.687 164.678C222.341 164.678 221.25 165.769 221.25 167.114C221.25 168.46 222.341 169.551 223.687 169.551Z" fill="#A8EB6C"/>
<path d="M260.994 168.302H239.76C239.187 168.302 238.716 167.831 238.716 167.258V166.951C238.716 166.377 239.187 165.906 239.76 165.906H260.994C261.568 165.906 262.038 166.377 262.038 166.951V167.258C262.018 167.852 261.568 168.302 260.994 168.302Z" fill="#4B5A59"/>
<path d="M139.238 143.655L149.647 205.647H160.557L149.145 142.526L139.238 143.655Z" fill="#ECBA5A"/>
<path d="M140.116 143.655L129.707 205.647H118.797L130.167 142.526L140.116 143.655Z" fill="#ECBA5A"/>
<path d="M265.312 142.526H220.083V205.647H265.312V142.526Z" fill="#ECBA5A"/>
<path d="M265.228 148.587H219.999V153.771H234.964L237.806 158.202H247.755L250.305 153.771H265.228V148.587Z" fill="#DEA14E"/>
<path d="M268.322 145.286H121.18C119.007 145.286 117.251 143.53 117.251 141.357V139.141C117.251 136.968 119.007 135.212 121.18 135.212H268.322C270.495 135.212 272.251 136.968 272.251 139.141V141.357C272.209 143.53 270.495 145.286 268.322 145.286Z" fill="#FAC04F"/>
<path d="M139.699 124.844H139.616C136.815 124.844 134.558 122.545 134.558 119.786V108.625C134.558 105.825 136.857 103.567 139.616 103.567H139.699C142.5 103.567 144.757 105.866 144.757 108.625V119.786C144.757 122.545 142.5 124.844 139.699 124.844Z" fill="#A8EC6C"/>
<path d="M144.005 118.366L141.496 135.254H132.342L129.583 118.366H144.005Z" fill="#E96B73"/>
<path d="M149.731 118.366L147.474 135.254H141.496L144.004 118.366H149.731Z" fill="#DC4F58"/>
<path d="M261.717 80.4101V132.035C261.717 133.791 260.254 135.254 258.498 135.254H237.305C235.549 135.254 234.086 133.791 234.086 132.035V80.4101C234.086 78.6545 235.549 77.1914 237.305 77.1914H258.498C260.295 77.1914 261.717 78.6127 261.717 80.4101Z" fill="#E6E9ED"/>
<path d="M261.759 83.127H234.128V87.8923H261.759V83.127Z" fill="#CCD1D8"/>
<path d="M247.922 106.285C249.699 106.285 251.141 104.844 251.141 103.066C251.141 101.289 249.699 99.8477 247.922 99.8477C246.144 99.8477 244.703 101.289 244.703 103.066C244.703 104.844 246.144 106.285 247.922 106.285Z" fill="#A8EC6C"/>
<path d="M253.733 119.912H242.154C241.318 119.912 240.649 119.244 240.649 118.408V118.157C240.649 117.321 241.318 116.652 242.154 116.652H253.733C254.569 116.652 255.238 117.321 255.238 118.157V118.408C255.196 119.244 254.528 119.912 253.733 119.912Z" fill="#CCD1D8"/>
<path d="M253.733 124.469H242.154C241.318 124.469 240.649 123.8 240.649 122.964V122.713C240.649 121.877 241.318 121.208 242.154 121.208H253.733C254.569 121.208 255.238 121.877 255.238 122.713V122.964C255.196 123.8 254.528 124.469 253.733 124.469Z" fill="#CCD1D8"/>
<path d="M253.733 129.067H242.154C241.318 129.067 240.649 128.398 240.649 127.562V127.311C240.649 126.475 241.318 125.806 242.154 125.806H253.733C254.569 125.806 255.238 126.475 255.238 127.311V127.562C255.196 128.398 254.528 129.067 253.733 129.067Z" fill="#CCD1D8"/>
<path d="M183.838 125.134L181.873 131.906H205.24L203.192 125.134H183.838Z" fill="#CCD1D8"/>
<path d="M221.877 126.179H165.111C162.435 126.179 160.262 124.005 160.262 121.33V78.4418C160.262 75.7665 162.435 73.5928 165.111 73.5928H221.877C224.552 73.5928 226.726 75.7665 226.726 78.4418V121.33C226.726 124.005 224.552 126.179 221.877 126.179Z" fill="#E6E9ED"/>
<path d="M223.549 78.7764V116.105C223.549 117.15 222.713 118.028 221.626 118.028H165.068C164.023 118.028 163.146 117.192 163.146 116.105V78.7764C163.146 77.7313 163.982 76.8535 165.068 76.8535H221.668C222.671 76.8953 223.549 77.7313 223.549 78.7764Z" fill="#6EB7E6"/>
<path d="M193.745 123.671C194.622 123.671 195.333 122.96 195.333 122.083C195.333 121.205 194.622 120.494 193.745 120.494C192.867 120.494 192.156 121.205 192.156 122.083C192.156 122.96 192.867 123.671 193.745 123.671Z" fill="#CCD1D8"/>
<path d="M209.337 133.912V135.291H177.567V133.912C177.567 132.198 178.989 130.777 180.702 130.777H206.201C207.915 130.777 209.337 132.198 209.337 133.912Z" fill="#E6E9ED"/>
<path d="M223.55 78.7761V93.2394L213.727 118.028H191.99L208.335 76.895H221.669C222.673 76.895 223.55 77.731 223.55 78.7761Z" fill="#93C7E9"/>
</g>
<path d="M193.207 89.5928C197.134 89.6398 200.203 90.7099 202.861 92.9147C203.367 93.3321 203.837 93.7907 204.301 94.2552C204.983 94.9254 205.001 95.8602 204.378 96.4776C203.755 97.0949 202.837 97.0714 202.179 96.3953C201.332 95.531 200.427 94.7432 199.38 94.1317C195.03 91.5859 189.344 92.3032 185.769 95.8544C185.458 96.166 185.152 96.4835 184.829 96.7833C184.205 97.3654 183.3 97.3654 182.712 96.7892C182.118 96.2071 182.089 95.3135 182.677 94.6726C184.882 92.262 187.521 90.5511 190.773 89.9103C191.731 89.7221 192.707 89.6574 193.207 89.5928Z" fill="#F5F5F5"/>
<path d="M193.578 95.084C196.5 95.084 198.728 96.2481 200.545 98.2824C201.174 98.9938 201.151 99.958 200.51 100.581C199.869 101.204 198.905 101.199 198.205 100.575C197.688 100.117 197.206 99.5935 196.623 99.2231C194.472 97.8591 191.855 98.1824 189.997 99.9874C189.697 100.281 189.409 100.593 189.098 100.875C188.41 101.498 187.428 101.481 186.793 100.84C186.17 100.211 186.135 99.229 186.758 98.5587C187.599 97.6533 188.475 96.7831 189.574 96.1776C190.867 95.4661 192.249 95.0957 193.578 95.084Z" fill="#F5F5F5"/>
<path d="M193.659 106.59C192.26 106.655 191.014 105.508 190.949 104.091C190.884 102.657 191.99 101.393 193.377 101.322C194.912 101.246 196.158 102.351 196.223 103.856C196.293 105.302 195.147 106.52 193.659 106.59Z" fill="#F5F5F5"/>
</svg>
