<svg width="40" height="38" viewBox="0 0 40 38" fill="none" xmlns="http://www.w3.org/2000/svg">
<ellipse cx="19.9048" cy="19" rx="19.9048" ry="19" fill="white"/>
<path d="M19.8145 37.0229C30.158 37.0229 38.5431 28.9376 38.5431 18.9638C38.5431 8.9901 30.158 0.904785 19.8145 0.904785C9.471 0.904785 1.08594 8.9901 1.08594 18.9638C1.08594 28.9376 9.471 37.0229 19.8145 37.0229Z" fill="#212121"/>
<path d="M19.7959 35.2315C29.1201 35.2315 36.6788 27.9483 36.6788 18.9639C36.6788 9.97955 29.1201 2.69629 19.7959 2.69629C10.4718 2.69629 2.91309 9.97955 2.91309 18.9639C2.91309 27.9483 10.4718 35.2315 19.7959 35.2315Z" fill="white"/>
<path d="M36.6969 18.9635C36.6969 21.334 36.1721 23.5778 35.2312 25.6226C34.1455 25.9664 32.4988 24.374 29.9293 24.3921C28.0836 24.4102 26.3464 25.3149 25.1702 26.7264C22.6912 29.694 24.8626 31.214 23.6502 34.8149C22.4197 35.0864 21.135 35.2311 19.814 35.2311C17.6969 35.2311 15.815 34.9235 13.9512 34.2359C16.195 31.0692 13.4083 27.4864 17.9683 25.1521C27.3778 21.714 19.1083 13.8245 25.0616 11.4902C25.8216 11.0378 26.5093 16.0683 26.7445 16.3216C26.7083 16.7197 29.495 17.3169 29.7121 17.4435C29.9655 17.4435 32.9693 18.2397 33.114 17.9683C34.8874 16.6654 35.7921 15.3083 36.2988 15.3807C36.5521 16.5207 36.6969 17.733 36.6969 18.9635Z" fill="#74CBED"/>
<path d="M21.461 19.3256L21.081 20.5199L17.7515 23.2884L14.7477 25.4056L13.5715 32.7703L12.7934 33.7475C9.69914 32.3903 7.1839 30.2008 5.41057 27.4322C4.27057 25.2065 3.61914 22.6732 3.61914 19.9951C3.61914 15.5799 5.37438 11.5808 8.23343 8.66748L8.46866 8.70367C8.46866 8.70367 10.0068 9.59034 10.4591 12.4132C10.9115 15.2361 13.6439 14.6208 13.6439 14.6208C13.6439 14.6208 15.7429 14.5484 16.9372 16.2856C18.1315 18.0227 21.3706 18.7827 21.3706 18.7827L21.461 19.3256Z" fill="#FAC04F"/>
<path d="M34.9962 26.0572C32.8428 30.3276 28.8076 33.5667 23.9219 34.7429C24.1933 33.8924 24.5552 32.4086 24.4647 30.7981C24.32 28.0476 26.3104 25.5143 29.3685 25.1705C32.4266 24.8086 33.6752 26.4734 34.8152 26.0934C34.8876 26.0391 34.9419 26.0391 34.9962 26.0572Z" fill="#A8EC6C"/>
<path d="M26.6724 11.2553L26.3467 15.0553L23.5601 14.2591L22.4563 16.141L21.461 19.3077L21.3705 18.7648C21.3705 18.7648 18.1315 18.0048 16.9372 16.2677C15.7429 14.5305 13.6258 14.621 13.6258 14.621C13.6258 14.621 10.9115 15.2363 10.441 12.4134C9.98864 9.59054 8.45054 8.70387 8.45054 8.70387L8.2334 8.68578C10.8572 5.98959 14.4401 4.23435 18.421 3.94482L18.2401 5.48292L20.1039 7.60006L24.4648 8.52292L26.6724 11.2553Z" fill="#E96B73"/>
<path d="M32.3002 8.01581C31.9744 7.78057 31.6306 7.54533 31.2325 7.292C28.9706 5.86247 25.5325 4.252 21.1354 3.89009C20.6649 3.8539 20.2306 4.16152 20.1582 4.632C20.0497 5.21104 20.4659 5.7539 22.6554 6.17009C26.2744 6.83962 28.1563 9.39104 27.8668 11.7796C27.5049 14.6929 26.6363 14.9282 26.6363 14.9282L26.9982 15.7968C26.9982 15.851 27.0163 15.9053 27.0163 15.9596L27.0706 15.9777L27.2154 16.3034L27.7944 16.4301C27.7763 16.3577 27.7582 16.2672 27.7582 16.1949L30.4363 17.0272L34.5621 17.5701L36.0097 14.4034C35.2859 11.9968 34.0011 9.82533 32.3002 8.01581ZM27.704 14.2225C27.6678 14.1863 27.6316 14.1501 27.6135 14.132C27.6316 14.132 27.6678 14.1682 27.704 14.2225Z" fill="#A8EC6C"/>
<path opacity="0.2" d="M36.0094 14.4035C35.6294 13.1731 35.1228 11.9969 34.4713 10.8931C35.1409 12.6302 35.5028 14.5121 35.5028 16.4664C35.5028 25.3693 27.939 32.5893 18.6018 32.5893C16.6656 32.5893 15.3266 32.3359 13.5894 31.775L14.7113 24.6093L16.919 23.3245L17.6066 22.275C17.299 22.275 15.5437 23.1435 15.2904 23.3245C14.7113 23.7407 13.6256 24.4645 13.0285 26.0569C12.4132 27.7216 12.7209 30.454 12.7209 30.454C12.7209 30.454 12.7209 30.5807 12.7209 30.7616C12.7209 31.3226 12.2685 31.4493 11.8885 31.3045C8.54087 29.9474 6.1523 27.975 4.34277 24.935C6.31515 31.3769 12.4313 35.2493 19.778 35.2493C21.1894 35.2493 22.5647 35.0864 23.8856 34.7607C28.7713 33.5845 32.8066 30.3635 34.9599 26.075C36.0456 23.9216 36.6428 21.515 36.6428 18.9635C36.679 17.3712 36.4437 15.8512 36.0094 14.4035Z" fill="#212121"/>
<path opacity="0.2" d="M36.0092 14.4039L34.5616 17.5705L30.4358 17.0277L26.7987 15.6705C26.5996 14.5486 27.3777 13.7163 27.7216 14.2229C28.2463 14.9829 31.1416 16.7201 32.8787 14.2229C34.3082 12.1601 32.0644 8.50483 31.232 7.31055C31.612 7.56388 31.9739 7.79912 32.2996 8.03436C34.0006 9.82579 35.2854 11.9972 36.0092 14.4039Z" fill="#212121"/>
<path d="M13.0648 15.6706C14.5439 15.6706 15.7429 14.4716 15.7429 12.9925C15.7429 11.5135 14.5439 10.3145 13.0648 10.3145C11.5857 10.3145 10.3867 11.5135 10.3867 12.9925C10.3867 14.4716 11.5857 15.6706 13.0648 15.6706Z" fill="#212121"/>
<path d="M12.0337 13.1915C12.5334 13.1915 12.9384 12.7622 12.9384 12.2325C12.9384 11.7028 12.5334 11.2734 12.0337 11.2734C11.534 11.2734 11.1289 11.7028 11.1289 12.2325C11.1289 12.7622 11.534 13.1915 12.0337 13.1915Z" fill="white"/>
<path d="M25.4779 15.6706C26.957 15.6706 28.156 14.4716 28.156 12.9925C28.156 11.5135 26.957 10.3145 25.4779 10.3145C23.9988 10.3145 22.7998 11.5135 22.7998 12.9925C22.7998 14.4716 23.9988 15.6706 25.4779 15.6706Z" fill="#212121"/>
<path d="M24.4468 13.1915C24.9464 13.1915 25.3515 12.7622 25.3515 12.2325C25.3515 11.7028 24.9464 11.2734 24.4468 11.2734C23.9471 11.2734 23.542 11.7028 23.542 12.2325C23.542 12.7622 23.9471 13.1915 24.4468 13.1915Z" fill="white"/>
<path fill-rule="evenodd" clip-rule="evenodd" d="M17.9201 1.5137C17.9203 1.51331 17.9204 1.51294 18.7465 1.88203C19.5725 2.25112 19.5727 2.25078 19.5728 2.25047L19.5731 2.24994L19.5734 2.24922L19.5713 2.25413C19.5688 2.25977 19.5645 2.26992 19.5586 2.28428C19.5467 2.31305 19.5285 2.35853 19.5062 2.41838C19.4614 2.53852 19.4009 2.71419 19.3421 2.92718C19.2221 3.36191 19.1208 3.91048 19.1479 4.44398C19.1749 4.97264 19.3231 5.42348 19.6382 5.76241C19.9488 6.09653 20.5282 6.43665 21.6492 6.53604C24.4945 6.78827 25.989 8.11274 26.7169 9.49171C27.0664 10.1539 27.221 10.7933 27.2894 11.2642C27.3238 11.501 27.337 11.6998 27.3414 11.844C27.3437 11.9162 27.3437 11.9751 27.343 12.0188C27.3427 12.0407 27.3422 12.0587 27.3416 12.0728C27.3414 12.0798 27.3411 12.0858 27.3409 12.0908L27.3406 12.0975L27.3404 12.1002L27.3404 12.1015C27.3403 12.102 27.3403 12.1026 26.437 12.0516L27.3403 12.1026L27.3385 12.1341L27.0439 14.4566C27.0519 14.4961 27.0629 14.5453 27.0774 14.6014C27.1203 14.7663 27.1871 14.9624 27.2826 15.1348C27.3802 15.3108 27.4782 15.4096 27.5593 15.4565C27.6153 15.4888 27.7186 15.5321 27.9426 15.479C29.2455 15.1584 30.2694 15.822 30.9492 16.284C31.0273 16.3371 31.101 16.3878 31.1715 16.4363C31.4451 16.6245 31.6685 16.7781 31.9028 16.9023C32.1799 17.049 32.3868 17.1045 32.5686 17.1004L32.5713 17.1003L32.574 17.1003C32.6026 17.0998 32.6313 17.0993 32.6601 17.0989C33.2804 17.0895 33.941 17.0796 34.3841 16.5383C34.8562 15.9616 35.3445 14.4093 34.2497 10.3893L35.9957 9.91382C37.1085 14.0004 36.8639 16.3658 35.7843 17.6845C34.7766 18.9155 33.2708 18.9109 32.718 18.9092C32.6749 18.9091 32.6377 18.909 32.6069 18.9095C32.0028 18.9226 31.4825 18.7273 31.0558 18.5013C30.7192 18.323 30.3869 18.0938 30.1069 17.9007C30.0459 17.8586 29.9874 17.8183 29.9319 17.7805C29.2281 17.3021 28.8238 17.125 28.3733 17.2365L28.3701 17.2373L28.3668 17.2381C27.724 17.3921 27.1403 17.3044 26.6537 17.023C26.1919 16.7561 25.8919 16.3584 25.6999 16.0119C25.5059 15.6618 25.3918 15.3093 25.326 15.0564C25.2925 14.9272 25.2698 14.8169 25.2551 14.7365C25.2477 14.6962 25.2423 14.6629 25.2385 14.6381C25.2367 14.6256 25.2352 14.6152 25.234 14.6071L25.2326 14.5965L25.2321 14.5925L25.2318 14.5901C25.2317 14.5897 25.2317 14.5894 26.1293 14.4763L25.2317 14.5894L25.2174 14.4759L25.5338 11.9817C25.534 11.9634 25.5339 11.9357 25.5328 11.8997C25.5302 11.8145 25.5219 11.6846 25.4986 11.5242C25.4516 11.2006 25.3461 10.7712 25.1166 10.3364C24.6864 9.52131 23.7471 8.53864 21.4895 8.33849C20.0591 8.21169 19.0099 7.74431 18.3128 6.99441C17.6202 6.24933 17.3817 5.33963 17.3408 4.53603C17.3001 3.73727 17.4498 2.98185 17.5978 2.44565C17.6731 2.17318 17.7508 1.94666 17.8108 1.78596C17.8408 1.70541 17.8666 1.64081 17.8857 1.5946C17.8952 1.57149 17.9031 1.55293 17.909 1.53923C17.9119 1.53238 17.9144 1.52673 17.9163 1.52234L17.9188 1.51669L17.9197 1.51458L17.9201 1.5137Z" fill="#212121"/>
<path fill-rule="evenodd" clip-rule="evenodd" d="M20.2626 17.8253C20.2628 17.8258 20.263 17.8262 21.0989 17.48C21.9348 17.1338 21.935 17.1343 21.9352 17.1348L21.9356 17.1358L21.9366 17.1382L21.9389 17.1439C21.9406 17.1481 21.9426 17.1533 21.945 17.1593C21.9497 17.1713 21.9557 17.1869 21.9628 17.2058C21.9768 17.2436 21.995 17.295 22.0156 17.3586C22.0567 17.4855 22.1077 17.6626 22.1536 17.8787C22.2445 18.3072 22.3194 18.9098 22.2421 19.5868C22.0799 21.0059 21.2579 22.6128 18.9572 23.5958C17.0021 24.4312 15.9782 25.1409 15.4356 25.8298C14.9328 26.4682 14.7699 27.1843 14.8189 28.2786C14.8367 28.6758 14.8675 29.0333 14.8987 29.395C14.9138 29.5697 14.929 29.7455 14.9428 29.9272C14.9834 30.4622 15.0089 31.0183 14.9509 31.5906C14.8295 32.7884 14.3545 33.9395 13.1782 35.2554L11.8291 34.0494C12.788 32.9768 13.073 32.1736 13.1506 31.4081C13.1921 30.9987 13.1769 30.5708 13.1384 30.0643C13.1273 29.9178 13.1138 29.7609 13.0996 29.596C13.067 29.2162 13.0307 28.7941 13.0112 28.3596C12.9516 27.0291 13.1416 25.818 14.014 24.7102C14.8467 23.653 16.2205 22.7974 18.2462 21.9318C19.9265 21.2139 20.3531 20.1789 20.4442 19.3813C20.4935 18.9501 20.4463 18.5506 20.3835 18.2542C20.3524 18.1078 20.3186 17.9917 20.2941 17.916C20.2819 17.8783 20.2721 17.8511 20.2664 17.8356C20.2635 17.8278 20.2616 17.8231 20.261 17.8214L20.2617 17.8232L20.2623 17.8246L20.2626 17.8253Z" fill="#212121"/>
<path d="M19.3984 19.4888C17.9146 19.5973 15.0193 17.1545 16.0689 15.7792C16.3403 15.4173 16.8289 15.3449 17.2089 15.5621C18.747 16.4307 20.0317 16.7745 21.4793 15.6888C21.4793 15.6888 21.4793 15.6888 21.4974 15.6707C22.0403 15.2002 22.8727 15.544 22.9812 16.2678C23.2165 17.8602 20.7736 19.4707 19.3984 19.4888Z" fill="#212121"/>
</svg>
