<svg width="285" height="344" viewBox="0 0 285 344" fill="none" xmlns="http://www.w3.org/2000/svg">
<rect x="1.5" y="1.5" width="282" height="340.172" rx="30.5" stroke="#212121" stroke-width="3"/>
<path d="M84.3491 108.967C84.0727 109.489 83.7348 109.95 83.2741 110.349C81.2776 112.131 78.2062 111.946 76.4247 109.95C74.6433 107.954 74.8276 104.882 76.824 103.101C77.7147 102.302 78.8205 101.903 79.9262 101.872C79.0355 103.592 79.2198 105.804 80.6019 107.339C81.5541 108.476 82.9669 109.029 84.3491 108.967Z" fill="#E1ECF1"/>
<path d="M79.5047 103.499C80.8869 105.035 81.1019 107.216 80.1804 108.966C78.7983 108.997 77.4161 108.475 76.4332 107.339C75.0511 105.803 74.8361 103.622 75.7575 101.871C77.1397 101.841 78.5218 102.393 79.5047 103.499Z" fill="#FEF5F5"/>
<path d="M154.872 105.485C154.872 112.609 153.613 119.456 151.31 125.813C146.489 139.078 137.062 150.102 124.963 157.041C120.142 159.805 114.861 161.924 109.303 163.244C107.553 163.674 105.741 164.012 103.929 164.257C101.903 164.534 99.8452 164.718 97.7572 164.81C97.0202 164.841 96.2526 164.841 95.4849 164.841C84.3691 164.841 73.9595 161.77 65.0546 156.458C61.3391 154.247 57.8999 151.606 54.7679 148.658C43.3143 137.85 36.1289 122.496 36.1289 105.485C36.1289 104.779 36.1289 104.103 36.1596 103.397C37.2651 71.5847 63.3964 46.1289 95.4542 46.1289C128.31 46.1596 154.872 72.7209 154.872 105.485Z" fill="#B9E2F3"/>
<path fill-rule="evenodd" clip-rule="evenodd" d="M157.071 127.9L157.069 127.906C151.744 142.558 141.342 154.711 128.012 162.357L128.011 162.358C122.696 165.405 116.874 167.742 110.741 169.201C108.773 169.684 106.755 170.059 104.752 170.33C102.538 170.632 100.296 170.833 98.027 170.933L98.0196 170.933L98.0121 170.933C97.1464 170.969 96.2702 170.969 95.5383 170.969H95.4846C83.2256 170.969 71.7359 167.58 61.9145 161.721C57.7876 159.265 53.9964 156.349 50.5672 153.121L50.5613 153.115C37.9354 141.2 30 124.257 30 105.485L30 105.437C30 104.768 30 103.988 30.0353 103.158C31.2682 68.0727 60.0882 40 95.4539 40H95.4597C131.689 40.0339 161 69.3286 161 105.485C161 113.335 159.612 120.888 157.071 127.9ZM36.1594 103.397C36.1287 104.103 36.1287 104.778 36.1287 105.485C36.1287 122.496 43.314 137.849 54.7676 148.658C57.8997 151.606 61.3388 154.247 65.0543 156.458C73.9593 161.77 84.3688 164.841 95.4846 164.841C96.2523 164.841 97.02 164.841 97.7569 164.81C99.845 164.718 101.902 164.534 103.929 164.257C105.741 164.012 107.552 163.674 109.303 163.244C114.861 161.924 120.142 159.805 124.963 157.041C137.061 150.101 146.488 139.078 151.309 125.812C153.612 119.456 154.871 112.609 154.871 105.485C154.871 72.7206 128.31 46.1594 95.4539 46.1287C63.3962 46.1287 37.2648 71.5845 36.1594 103.397Z" fill="#212121"/>
<mask id="mask0_257_9295" style="mask-type:alpha" maskUnits="userSpaceOnUse" x="36" y="46" width="119" height="119">
<path d="M154.872 105.484C154.872 112.608 153.613 119.455 151.31 125.812C146.489 139.077 137.062 150.101 124.963 157.04C120.142 159.804 114.861 161.923 109.303 163.243C107.553 163.673 105.741 164.011 103.929 164.256C101.903 164.533 99.8452 164.717 97.7572 164.809C97.0202 164.84 96.2526 164.84 95.4849 164.84C84.3691 164.84 73.9595 161.769 65.0546 156.457C61.3391 154.246 57.8999 151.605 54.7679 148.657C43.3143 137.849 36.1289 122.495 36.1289 105.484C36.1289 104.778 36.1289 104.102 36.1596 103.396C37.2651 71.5838 63.3964 46.1279 95.4542 46.1279C128.31 46.1586 154.872 72.7199 154.872 105.484Z" fill="#B9E2F3"/>
</mask>
<g mask="url(#mask0_257_9295)">
<path d="M90.114 122.317H43.9859C42.6153 122.317 41.4902 121.192 41.4902 119.821V60.1154C41.4902 58.7445 42.6153 57.6191 43.9859 57.6191H90.114C91.4846 57.6191 92.6097 58.7445 92.6097 60.1154V119.841C92.6097 121.212 91.4846 122.317 90.114 122.317Z" fill="#CE7E48"/>
<path d="M87.6681 119.122H46.4122C45.4574 119.122 44.6855 118.35 44.6855 117.396V63.3384C44.6855 62.384 45.4574 61.6123 46.4122 61.6123H87.6884C88.6431 61.6123 89.415 62.384 89.415 63.3384V117.396C89.3947 118.35 88.6228 119.122 87.6681 119.122Z" fill="#B27247"/>
<path d="M87.4887 63.4072H68.3828V89.1117H87.4887V63.4072Z" fill="#EAF7FF"/>
<path d="M80.7194 67.0359L72.9666 74.7411C72.578 75.1284 71.9643 75.1284 71.5756 74.7411L71.5552 74.7207C71.1665 74.3334 71.1665 73.7219 71.5552 73.3346L79.308 65.6293C79.6966 65.242 80.3103 65.242 80.699 65.6293L80.7194 65.6497C81.1081 66.037 81.1081 66.6486 80.7194 67.0359Z" fill="white"/>
<path d="M74.4766 66.7513L71.6946 69.5235C71.4082 69.8089 70.9173 69.8089 70.6309 69.5235L70.2831 69.177C69.9968 68.8916 69.9968 68.4024 70.2831 68.117L73.0856 65.3244C73.372 65.039 73.8629 65.039 74.1493 65.3244L74.4971 65.6709C74.7835 65.9767 74.7835 66.4455 74.4766 66.7513Z" fill="white"/>
<path d="M87.4887 90.9863H68.3828V116.691H87.4887V90.9863Z" fill="#EAF7FF"/>
<path d="M80.7194 94.615L72.9666 102.32C72.578 102.707 71.9643 102.707 71.5756 102.32L71.5552 102.3C71.1665 101.913 71.1665 101.301 71.5552 100.914L79.308 93.2084C79.6966 92.8211 80.3103 92.8211 80.699 93.2084L80.7194 93.2288C81.1081 93.6161 81.1081 94.2277 80.7194 94.615Z" fill="white"/>
<path d="M74.4766 94.3304L71.6946 97.1026C71.4082 97.388 70.9173 97.388 70.6309 97.1026L70.2831 96.7561C69.9968 96.4707 69.9968 95.9815 70.2831 95.6961L73.0856 92.9035C73.372 92.6181 73.8629 92.6181 74.1493 92.9035L74.4971 93.25C74.7835 93.5558 74.7835 94.0246 74.4766 94.3304Z" fill="white"/>
<path d="M66.0375 90.9863H46.9316V116.691H66.0375V90.9863Z" fill="#EAF7FF"/>
<path d="M59.2683 94.615L51.5155 102.32C51.1268 102.707 50.5131 102.707 50.1245 102.32L50.104 102.3C49.7153 101.913 49.7153 101.301 50.104 100.914L57.8568 93.2084C58.2455 92.8211 58.8591 92.8211 59.2478 93.2084L59.2683 93.2288C59.6569 93.6161 59.6569 94.2277 59.2683 94.615Z" fill="white"/>
<path d="M53.0254 94.3304L50.2434 97.1026C49.9571 97.388 49.4661 97.388 49.1797 97.1026L48.832 96.7561C48.5456 96.4707 48.5456 95.9815 48.832 95.6961L51.6344 92.9035C51.9208 92.6181 52.4118 92.6181 52.6981 92.9035L53.0459 93.25C53.3323 93.5558 53.3323 94.0246 53.0254 94.3304Z" fill="white"/>
<path d="M66.0375 63.4072H46.9316V89.1117H66.0375V63.4072Z" fill="#EAF7FF"/>
<path d="M59.2683 67.0359L51.5155 74.7411C51.1268 75.1284 50.5131 75.1284 50.1245 74.7411L50.104 74.7207C49.7153 74.3334 49.7153 73.7219 50.104 73.3346L57.8568 65.6293C58.2455 65.242 58.8591 65.242 59.2478 65.6293L59.2683 65.6497C59.6569 66.037 59.6569 66.6486 59.2683 67.0359Z" fill="white"/>
<path d="M53.0254 66.7513L50.2434 69.5235C49.9571 69.8089 49.4661 69.8089 49.1797 69.5235L48.832 69.177C48.5456 68.8916 48.5456 68.4024 48.832 68.117L51.6344 65.3244C51.9208 65.039 52.4118 65.039 52.6981 65.3244L53.0459 65.6709C53.3323 65.9767 53.3323 66.4455 53.0254 66.7513Z" fill="white"/>
<path d="M85.159 82.1338H44.5566V162.572H85.159V82.1338Z" fill="#4B5A59"/>
<path d="M90.3703 131.196H39.7495C38.1808 131.196 36.8945 129.925 36.8945 128.341V119.462C36.8945 117.894 38.1808 116.607 39.7495 116.607H90.3703C91.9546 116.607 93.2253 117.894 93.2253 119.462V128.341C93.241 129.925 91.9546 131.196 90.3703 131.196Z" fill="#617983"/>
<path d="M44.2046 125.768C45.2356 125.768 46.0713 124.932 46.0713 123.901C46.0713 122.87 45.2356 122.034 44.2046 122.034C43.1736 122.034 42.3379 122.87 42.3379 123.901C42.3379 124.932 43.1736 125.768 44.2046 125.768Z" fill="#E96B73"/>
<path d="M50.6831 125.768C51.7141 125.768 52.5498 124.932 52.5498 123.901C52.5498 122.87 51.7141 122.034 50.6831 122.034C49.6522 122.034 48.8164 122.87 48.8164 123.901C48.8164 124.932 49.6522 125.768 50.6831 125.768Z" fill="#FAC04F"/>
<path d="M57.146 125.768C58.177 125.768 59.0127 124.932 59.0127 123.901C59.0127 122.87 58.177 122.034 57.146 122.034C56.1151 122.034 55.2793 122.87 55.2793 123.901C55.2793 124.932 56.1151 125.768 57.146 125.768Z" fill="#A8EB6C"/>
<path d="M85.7272 124.811H69.4602C69.021 124.811 68.6602 124.45 68.6602 124.011V123.776C68.6602 123.336 69.021 122.976 69.4602 122.976H85.7272C86.1664 122.976 86.5272 123.336 86.5272 123.776V124.011C86.5116 124.466 86.1664 124.811 85.7272 124.811Z" fill="#4B5A59"/>
<path d="M90.3703 110.511H39.7495C38.1808 110.511 36.8945 109.241 36.8945 107.656V98.7778C36.8945 97.2092 38.1808 95.9229 39.7495 95.9229H90.3703C91.9546 95.9229 93.2253 97.2092 93.2253 98.7778V107.656C93.241 109.241 91.9546 110.511 90.3703 110.511Z" fill="#617983"/>
<path d="M44.2046 105.084C45.2356 105.084 46.0713 104.248 46.0713 103.217C46.0713 102.186 45.2356 101.351 44.2046 101.351C43.1736 101.351 42.3379 102.186 42.3379 103.217C42.3379 104.248 43.1736 105.084 44.2046 105.084Z" fill="#E96B73"/>
<path d="M50.6831 105.084C51.7141 105.084 52.5498 104.248 52.5498 103.217C52.5498 102.186 51.7141 101.351 50.6831 101.351C49.6522 101.351 48.8164 102.186 48.8164 103.217C48.8164 104.248 49.6522 105.084 50.6831 105.084Z" fill="#FAC04F"/>
<path d="M57.146 105.084C58.177 105.084 59.0127 104.248 59.0127 103.217C59.0127 102.186 58.177 101.351 57.146 101.351C56.1151 101.351 55.2793 102.186 55.2793 103.217C55.2793 104.248 56.1151 105.084 57.146 105.084Z" fill="#A8EB6C"/>
<path d="M85.7272 104.127H69.4602C69.021 104.127 68.6602 103.767 68.6602 103.327V103.092C68.6602 102.653 69.021 102.292 69.4602 102.292H85.7272C86.1664 102.292 86.5272 102.653 86.5272 103.092V103.327C86.5116 103.782 86.1664 104.127 85.7272 104.127Z" fill="#4B5A59"/>
<path d="M90.3703 89.8269H39.7495C38.1808 89.8269 36.8945 88.5562 36.8945 86.9719V78.0933C36.8945 76.5246 38.1808 75.2383 39.7495 75.2383H90.3703C91.9546 75.2383 93.2253 76.5246 93.2253 78.0933V86.9719C93.241 88.5562 91.9546 89.8269 90.3703 89.8269Z" fill="#617983"/>
<path d="M44.2046 84.3994C45.2356 84.3994 46.0713 83.5637 46.0713 82.5327C46.0713 81.5018 45.2356 80.666 44.2046 80.666C43.1736 80.666 42.3379 81.5018 42.3379 82.5327C42.3379 83.5637 43.1736 84.3994 44.2046 84.3994Z" fill="#E96B73"/>
<path d="M50.6831 84.3994C51.7141 84.3994 52.5498 83.5637 52.5498 82.5327C52.5498 81.5018 51.7141 80.666 50.6831 80.666C49.6522 80.666 48.8164 81.5018 48.8164 82.5327C48.8164 83.5637 49.6522 84.3994 50.6831 84.3994Z" fill="#FAC04F"/>
<path d="M57.146 84.3994C58.177 84.3994 59.0127 83.5637 59.0127 82.5327C59.0127 81.5018 58.177 80.666 57.146 80.666C56.1151 80.666 55.2793 81.5018 55.2793 82.5327C55.2793 83.5637 56.1151 84.3994 57.146 84.3994Z" fill="#A8EB6C"/>
<path d="M85.7272 83.4428H69.4602C69.021 83.4428 68.6602 83.082 68.6602 82.6427V82.4074C68.6602 81.9682 69.021 81.6074 69.4602 81.6074H85.7272C86.1664 81.6074 86.5272 81.9682 86.5272 82.4074V82.6427C86.5116 83.0977 86.1664 83.4428 85.7272 83.4428Z" fill="#4B5A59"/>
<path d="M90.3703 151.881H39.7495C38.1808 151.881 36.8945 150.61 36.8945 149.026V140.147C36.8945 138.563 38.1808 137.292 39.7495 137.292H90.3703C91.9546 137.292 93.2253 138.578 93.2253 140.147V149.026C93.241 150.61 91.9546 151.881 90.3703 151.881Z" fill="#617983"/>
<path d="M44.2046 146.453C45.2356 146.453 46.0713 145.617 46.0713 144.586C46.0713 143.555 45.2356 142.72 44.2046 142.72C43.1736 142.72 42.3379 143.555 42.3379 144.586C42.3379 145.617 43.1736 146.453 44.2046 146.453Z" fill="#E96B73"/>
<path d="M50.6831 146.453C51.7141 146.453 52.5498 145.617 52.5498 144.586C52.5498 143.555 51.7141 142.72 50.6831 142.72C49.6522 142.72 48.8164 143.555 48.8164 144.586C48.8164 145.617 49.6522 146.453 50.6831 146.453Z" fill="#FAC04F"/>
<path d="M57.146 146.453C58.177 146.453 59.0127 145.617 59.0127 144.586C59.0127 143.555 58.177 142.72 57.146 142.72C56.1151 142.72 55.2793 143.555 55.2793 144.586C55.2793 145.617 56.1151 146.453 57.146 146.453Z" fill="#A8EB6C"/>
<path d="M85.7272 145.496H69.4602C69.021 145.496 68.6602 145.136 68.6602 144.696V144.461C68.6602 144.022 69.021 143.661 69.4602 143.661H85.7272C86.1664 143.661 86.5272 144.022 86.5272 144.461V144.696C86.5116 145.151 86.1664 145.496 85.7272 145.496Z" fill="#4B5A59"/>
<path d="M90.3703 172.564H39.7495C38.1808 172.564 36.8945 171.294 36.8945 169.709V160.831C36.8945 159.246 38.1808 157.976 39.7495 157.976H90.3703C91.9546 157.976 93.2253 159.262 93.2253 160.831V169.709C93.241 171.294 91.9546 172.564 90.3703 172.564Z" fill="#617983"/>
<path d="M44.2046 167.137C45.2356 167.137 46.0713 166.301 46.0713 165.27C46.0713 164.239 45.2356 163.403 44.2046 163.403C43.1736 163.403 42.3379 164.239 42.3379 165.27C42.3379 166.301 43.1736 167.137 44.2046 167.137Z" fill="#E96B73"/>
<path d="M50.6831 167.137C51.7141 167.137 52.5498 166.301 52.5498 165.27C52.5498 164.239 51.7141 163.403 50.6831 163.403C49.6522 163.403 48.8164 164.239 48.8164 165.27C48.8164 166.301 49.6522 167.137 50.6831 167.137Z" fill="#FAC04F"/>
<path d="M57.146 167.137C58.177 167.137 59.0127 166.301 59.0127 165.27C59.0127 164.239 58.177 163.403 57.146 163.403C56.1151 163.403 55.2793 164.239 55.2793 165.27C55.2793 166.301 56.1151 167.137 57.146 167.137Z" fill="#A8EB6C"/>
<path d="M85.7272 166.18H69.4602C69.021 166.18 68.6602 165.819 68.6602 165.38V165.145C68.6602 164.706 69.021 164.345 69.4602 164.345H85.7272C86.1664 164.345 86.5272 164.706 86.5272 165.145V165.38C86.5116 165.835 86.1664 166.18 85.7272 166.18Z" fill="#4B5A59"/>
<path d="M144.913 124.269H104.311V162.573H144.913V124.269Z" fill="#4B5A59"/>
<path d="M150.126 131.196H99.5054C97.9367 131.196 96.6504 129.925 96.6504 128.341V119.462C96.6504 117.894 97.9367 116.607 99.5054 116.607H150.126C151.711 116.607 152.981 117.894 152.981 119.462V128.341C152.997 129.925 151.711 131.196 150.126 131.196Z" fill="#617983"/>
<path d="M103.96 125.769C104.991 125.769 105.827 124.933 105.827 123.902C105.827 122.871 104.991 122.035 103.96 122.035C102.93 122.035 102.094 122.871 102.094 123.902C102.094 124.933 102.93 125.769 103.96 125.769Z" fill="#E96B73"/>
<path d="M110.439 125.769C111.47 125.769 112.306 124.933 112.306 123.902C112.306 122.871 111.47 122.035 110.439 122.035C109.408 122.035 108.572 122.871 108.572 123.902C108.572 124.933 109.408 125.769 110.439 125.769Z" fill="#FAC04F"/>
<path d="M116.902 125.769C117.933 125.769 118.769 124.933 118.769 123.902C118.769 122.871 117.933 122.035 116.902 122.035C115.871 122.035 115.035 122.871 115.035 123.902C115.035 124.933 115.871 125.769 116.902 125.769Z" fill="#A8EB6C"/>
<path d="M145.483 124.812H129.216C128.777 124.812 128.416 124.451 128.416 124.012V123.777C128.416 123.337 128.777 122.977 129.216 122.977H145.483C145.922 122.977 146.283 123.337 146.283 123.777V124.012C146.267 124.467 145.922 124.812 145.483 124.812Z" fill="#4B5A59"/>
<path d="M150.126 151.881H99.5054C97.9367 151.881 96.6504 150.61 96.6504 149.026V140.147C96.6504 138.563 97.9367 137.292 99.5054 137.292H150.126C151.711 137.292 152.981 138.578 152.981 140.147V149.026C152.997 150.61 151.711 151.881 150.126 151.881Z" fill="#617983"/>
<path d="M103.96 146.453C104.991 146.453 105.827 145.617 105.827 144.586C105.827 143.555 104.991 142.72 103.96 142.72C102.93 142.72 102.094 143.555 102.094 144.586C102.094 145.617 102.93 146.453 103.96 146.453Z" fill="#E96B73"/>
<path d="M110.439 146.453C111.47 146.453 112.306 145.617 112.306 144.586C112.306 143.555 111.47 142.72 110.439 142.72C109.408 142.72 108.572 143.555 108.572 144.586C108.572 145.617 109.408 146.453 110.439 146.453Z" fill="#FAC04F"/>
<path d="M116.902 146.453C117.933 146.453 118.769 145.617 118.769 144.586C118.769 143.555 117.933 142.72 116.902 142.72C115.871 142.72 115.035 143.555 115.035 144.586C115.035 145.617 115.871 146.453 116.902 146.453Z" fill="#A8EB6C"/>
<path d="M145.483 145.496H129.216C128.777 145.496 128.416 145.136 128.416 144.696V144.461C128.416 144.022 128.777 143.661 129.216 143.661H145.483C145.922 143.661 146.283 144.022 146.283 144.461V144.696C146.267 145.151 145.922 145.496 145.483 145.496Z" fill="#4B5A59"/>
<path d="M150.126 172.564H99.5054C97.9367 172.564 96.6504 171.294 96.6504 169.709V160.831C96.6504 159.246 97.9367 157.976 99.5054 157.976H150.126C151.711 157.976 152.981 159.262 152.981 160.831V169.709C152.997 171.294 151.711 172.564 150.126 172.564Z" fill="#617983"/>
<path d="M103.96 167.137C104.991 167.137 105.827 166.301 105.827 165.27C105.827 164.239 104.991 163.403 103.96 163.403C102.93 163.403 102.094 164.239 102.094 165.27C102.094 166.301 102.93 167.137 103.96 167.137Z" fill="#E96B73"/>
<path d="M110.439 167.137C111.47 167.137 112.306 166.301 112.306 165.27C112.306 164.239 111.47 163.403 110.439 163.403C109.408 163.403 108.572 164.239 108.572 165.27C108.572 166.301 109.408 167.137 110.439 167.137Z" fill="#FAC04F"/>
<path d="M116.902 167.137C117.933 167.137 118.769 166.301 118.769 165.27C118.769 164.239 117.933 163.403 116.902 163.403C115.871 163.403 115.035 164.239 115.035 165.27C115.035 166.301 115.871 167.137 116.902 167.137Z" fill="#A8EB6C"/>
<path d="M145.483 166.18H129.216C128.777 166.18 128.416 165.819 128.416 165.38V165.145C128.416 164.706 128.777 164.345 129.216 164.345H145.483C145.922 164.345 146.283 164.706 146.283 165.145V165.38C146.267 165.835 145.922 166.18 145.483 166.18Z" fill="#4B5A59"/>
<path d="M52.2051 147.298L60.1789 194.789H68.537L59.7946 146.434L52.2051 147.298Z" fill="#ECBA5A"/>
<path d="M52.8788 147.298L44.905 194.789H36.5469L45.2572 146.434L52.8788 147.298Z" fill="#ECBA5A"/>
<path d="M148.788 146.434H114.139V194.789H148.788V146.434Z" fill="#ECBA5A"/>
<path d="M148.724 151.078H114.074V155.049H125.539L127.716 158.444H135.338L137.291 155.049H148.724V151.078Z" fill="#DEA14E"/>
<path d="M151.094 148.548H38.3715C36.7063 148.548 35.3613 147.203 35.3613 145.538V143.84C35.3613 142.175 36.7063 140.83 38.3715 140.83H151.094C152.759 140.83 154.104 142.175 154.104 143.84V145.538C154.072 147.203 152.759 148.548 151.094 148.548Z" fill="#FAC04F"/>
<path d="M52.558 132.888H52.494C50.3484 132.888 48.6191 131.127 48.6191 129.013V120.463C48.6191 118.317 50.3804 116.588 52.494 116.588H52.558C54.7036 116.588 56.4328 118.349 56.4328 120.463V129.013C56.4328 131.127 54.7036 132.888 52.558 132.888Z" fill="#A8EC6C"/>
<path d="M55.8567 127.926L53.9353 140.863H46.9221L44.8086 127.926H55.8567Z" fill="#E96B73"/>
<path d="M60.2422 127.926L58.5129 140.863H53.9336L55.855 127.926H60.2422Z" fill="#DC4F58"/>
<path d="M146.033 98.8476V138.397C146.033 139.742 144.912 140.862 143.567 140.862H127.331C125.986 140.862 124.865 139.742 124.865 138.397V98.8476C124.865 97.5027 125.986 96.3818 127.331 96.3818H143.567C144.944 96.3818 146.033 97.4706 146.033 98.8476Z" fill="#E6E9ED"/>
<path d="M146.064 100.929H124.896V104.579H146.064V100.929Z" fill="#CCD1D8"/>
<path d="M135.464 118.67C136.826 118.67 137.93 117.566 137.93 116.204C137.93 114.842 136.826 113.738 135.464 113.738C134.102 113.738 132.998 114.842 132.998 116.204C132.998 117.566 134.102 118.67 135.464 118.67Z" fill="#A8EC6C"/>
<path d="M139.916 129.11H131.045C130.405 129.11 129.893 128.598 129.893 127.957V127.765C129.893 127.125 130.405 126.612 131.045 126.612H139.916C140.556 126.612 141.069 127.125 141.069 127.765V127.957C141.037 128.598 140.524 129.11 139.916 129.11Z" fill="#CCD1D8"/>
<path d="M139.916 132.599H131.045C130.405 132.599 129.893 132.087 129.893 131.447V131.254C129.893 130.614 130.405 130.102 131.045 130.102H139.916C140.556 130.102 141.069 130.614 141.069 131.254V131.447C141.037 132.087 140.524 132.599 139.916 132.599Z" fill="#CCD1D8"/>
<path d="M139.916 136.122H131.045C130.405 136.122 129.893 135.609 129.893 134.969V134.777C129.893 134.136 130.405 133.624 131.045 133.624H139.916C140.556 133.624 141.069 134.136 141.069 134.777V134.969C141.037 135.609 140.524 136.122 139.916 136.122Z" fill="#CCD1D8"/>
<path d="M86.3742 133.109L84.8691 138.297H102.77L101.201 133.109H86.3742Z" fill="#CCD1D8"/>
<path d="M115.515 133.91H72.0272C69.9777 133.91 68.3125 132.245 68.3125 130.196V97.3397C68.3125 95.2902 69.9777 93.625 72.0272 93.625H115.515C117.564 93.625 119.23 95.2902 119.23 97.3397V130.196C119.23 132.245 117.564 133.91 115.515 133.91Z" fill="#E6E9ED"/>
<path d="M116.795 97.5961V126.193C116.795 126.994 116.155 127.666 115.322 127.666H71.9946C71.194 127.666 70.5215 127.026 70.5215 126.193V97.5961C70.5215 96.7955 71.1619 96.123 71.9946 96.123H115.354C116.123 96.1551 116.795 96.7955 116.795 97.5961Z" fill="#6EB7E6"/>
<path d="M93.963 131.989C94.6351 131.989 95.1799 131.445 95.1799 130.773C95.1799 130.1 94.6351 129.556 93.963 129.556C93.2909 129.556 92.7461 130.1 92.7461 130.773C92.7461 131.445 93.2909 131.989 93.963 131.989Z" fill="#CCD1D8"/>
<path d="M105.906 139.834V140.891H81.5684V139.834C81.5684 138.521 82.6572 137.433 83.9701 137.433H103.504C104.817 137.433 105.906 138.521 105.906 139.834Z" fill="#E6E9ED"/>
<path d="M116.797 97.5963V108.676L109.271 127.666H92.6191L105.14 96.1553H115.356C116.124 96.1553 116.797 96.7957 116.797 97.5963Z" fill="#93C7E9"/>
</g>
<path d="M113.502 77.502C113.502 77.2768 113.502 77.0515 113.502 76.8263C113.586 76.5166 113.58 76.1956 113.636 75.8803C114.179 72.862 115.68 70.4349 118.205 68.7174C121.027 66.8028 124.123 66.3186 127.37 67.3265C130.741 68.3739 133.042 70.632 134.302 73.9488C134.744 75.1032 134.945 76.3082 134.94 77.5527C134.929 77.5752 134.912 77.6034 134.906 77.6259C134.867 78.3692 134.733 79.09 134.531 79.8052C134.195 80.9877 133.68 82.0858 132.969 83.0825C132.504 83.7357 131.978 84.3383 131.373 84.8789C130.741 85.442 130.058 85.9319 129.319 86.3373C127.969 87.0806 126.519 87.5086 124.991 87.61C123.955 87.6775 122.919 87.6269 121.9 87.3847C120.691 87.0975 119.554 86.6414 118.502 85.9713C117.466 85.3181 116.57 84.5072 115.809 83.5499C115.249 82.846 114.795 82.0802 114.431 81.258C113.989 80.2557 113.692 79.2139 113.564 78.1215C113.552 77.9131 113.597 77.6991 113.502 77.502ZM124.229 68.6386C119.448 68.6104 115.327 72.4678 115.277 77.5415C115.232 82.6095 119.252 86.6189 124.218 86.6245C129.167 86.6302 133.21 82.632 133.165 77.5471C133.131 72.4734 129.005 68.6104 124.229 68.6386Z" fill="#EB5A78"/>
<path d="M123.389 88.4151C123.138 88.3194 122.874 88.3363 122.617 88.2969C120.461 87.959 118.574 87.0524 116.973 85.5658C115.17 83.8933 114.067 81.8267 113.642 79.394C113.586 79.0843 113.586 78.7746 113.502 78.4705C113.502 78.1495 113.502 77.8229 113.502 77.502C113.597 77.699 113.552 77.913 113.575 78.1157C113.704 79.2082 114 80.25 114.443 81.2523C114.806 82.0745 115.26 82.8403 115.82 83.5442C116.581 84.5015 117.477 85.3124 118.513 85.9656C119.565 86.6301 120.702 87.0918 121.911 87.379C122.93 87.6212 123.966 87.6718 125.002 87.6043C126.53 87.5029 127.98 87.0749 129.33 86.3316C130.069 85.9262 130.752 85.4363 131.385 84.8731C131.989 84.3382 132.516 83.73 132.98 83.0768C133.691 82.0801 134.206 80.982 134.542 79.7995C134.744 79.0843 134.878 78.3635 134.917 77.6202C134.917 77.5921 134.94 77.5695 134.951 77.547C134.979 79.4503 134.531 81.2354 133.596 82.8797C131.95 85.7685 129.487 87.5479 126.239 88.2237C125.892 88.2969 125.534 88.3194 125.181 88.3701C125.131 88.3757 125.069 88.3476 125.03 88.4095C124.476 88.4151 123.933 88.4151 123.389 88.4151Z" fill="#DC4F58"/>
<path d="M124.23 68.6378C129.001 68.6097 133.127 72.4727 133.172 77.552C133.211 82.6313 129.169 86.635 124.225 86.6294C119.259 86.6181 115.239 82.6088 115.284 77.5407C115.328 72.4727 119.449 68.6097 124.23 68.6378ZM124.852 78.56C124.919 78.6219 124.975 78.6895 125.048 78.7514C125.524 79.1512 126 79.551 126.476 79.9509C127.181 80.5421 127.881 81.139 128.586 81.7303C128.766 81.8823 128.928 81.8711 129.068 81.7247C129.191 81.5951 129.174 81.3812 129.017 81.2404C128.799 81.0433 128.575 80.8575 128.351 80.666C127.691 80.1085 127.03 79.5454 126.369 78.9936C126 78.6838 125.647 78.3572 125.255 78.0813C125.317 77.918 125.339 77.7491 125.356 77.5801C126.056 76.865 126.75 76.1498 127.455 75.4347C127.646 75.2376 127.73 75.0123 127.651 74.7477C127.506 74.2577 126.924 74.1282 126.543 74.5055C125.871 75.1813 125.21 75.8626 124.544 76.5384C124.314 76.5046 124.085 76.5046 123.855 76.5665C123.637 76.3694 123.419 76.1723 123.2 75.9753C122.103 74.9898 121 74.01 119.903 73.0245C119.729 72.8725 119.539 72.788 119.309 72.8387C119.046 72.895 118.872 73.0583 118.805 73.3173C118.738 73.5876 118.828 73.8129 119.035 73.9931C120.401 75.215 121.761 76.437 123.122 77.6646C123.139 77.7547 123.144 77.8448 123.167 77.9349C123.323 78.5431 124.068 79.0161 124.852 78.56ZM123.9 70.2709C123.9 70.4398 123.895 70.6088 123.9 70.7777C123.911 70.9748 124.035 71.0987 124.214 71.1043C124.404 71.1099 124.544 70.986 124.55 70.7777C124.561 70.4455 124.561 70.1188 124.55 69.7866C124.544 69.5783 124.41 69.4487 124.225 69.4487C124.04 69.4487 123.911 69.5783 123.9 69.7866C123.895 69.9499 123.9 70.1132 123.9 70.2709ZM116.918 77.2986C116.767 77.2986 116.61 77.2929 116.459 77.2986C116.235 77.3042 116.101 77.4281 116.095 77.6195C116.095 77.8166 116.224 77.9462 116.448 77.9518C116.762 77.9574 117.075 77.9574 117.389 77.9518C117.613 77.9462 117.741 77.8166 117.741 77.6195C117.741 77.4225 117.607 77.3042 117.383 77.2986C117.226 77.2929 117.075 77.2986 116.918 77.2986ZM131.554 77.2986C131.391 77.2986 131.235 77.2929 131.072 77.2986C130.848 77.3042 130.714 77.4281 130.714 77.6252C130.714 77.8223 130.843 77.9518 131.067 77.9574C131.38 77.9631 131.694 77.9631 132.007 77.9574C132.226 77.9518 132.36 77.8166 132.36 77.6252C132.354 77.4337 132.22 77.3098 131.996 77.3042C131.85 77.2929 131.705 77.2986 131.554 77.2986ZM123.9 84.9907C123.9 85.1428 123.895 85.3005 123.9 85.4525C123.911 85.6777 124.04 85.8073 124.23 85.8073C124.415 85.8073 124.55 85.6777 124.555 85.4638C124.561 85.1428 124.561 84.8162 124.555 84.4952C124.55 84.2812 124.421 84.1573 124.236 84.1517C124.04 84.1461 123.911 84.2812 123.9 84.5008C123.895 84.6641 123.9 84.8274 123.9 84.9907Z" fill="white"/>
<path d="M123.116 77.6717C121.756 76.4497 120.389 75.2221 119.029 74.0002C118.822 73.8143 118.732 73.5947 118.799 73.3244C118.867 73.0654 119.04 72.9021 119.303 72.8458C119.533 72.7951 119.723 72.8796 119.897 73.0316C120.994 74.0171 122.091 74.9969 123.194 75.9823C123.413 76.1794 123.631 76.3765 123.849 76.5736C123.575 76.72 123.323 76.889 123.222 77.2099C123.122 77.3451 123.15 77.514 123.116 77.6717Z" fill="#617983"/>
<path d="M124.531 76.5447C125.198 75.869 125.864 75.1876 126.53 74.5119C126.905 74.1346 127.493 74.2641 127.639 74.754C127.717 75.0187 127.639 75.2439 127.443 75.441C126.743 76.1562 126.043 76.8713 125.343 77.5865C125.293 77.4626 125.321 77.3218 125.231 77.2092C125.119 76.8544 124.839 76.6799 124.531 76.5447Z" fill="#617983"/>
<path d="M125.243 78.082C125.635 78.358 125.988 78.6902 126.357 78.9943C127.023 79.5461 127.678 80.1092 128.339 80.6667C128.563 80.8582 128.787 81.044 129.005 81.2411C129.162 81.3819 129.179 81.5902 129.056 81.7254C128.916 81.8774 128.759 81.8831 128.574 81.731C127.869 81.1398 127.169 80.5428 126.464 79.9516C125.988 79.5518 125.512 79.152 125.036 78.7521C124.969 78.6958 124.907 78.6283 124.84 78.5607C125.013 78.4312 125.148 78.2735 125.243 78.082Z" fill="#74CBED"/>
<path d="M124.531 76.5443C124.839 76.6851 125.124 76.854 125.236 77.2088C125.169 77.5805 124.844 77.8676 124.363 77.9577C123.881 78.0478 123.254 77.6368 123.221 77.2088C123.321 76.8878 123.573 76.7189 123.848 76.5725C124.072 76.5049 124.296 76.5049 124.531 76.5443Z" fill="#EB5A78"/>
<path d="M123.214 77.2031C123.248 77.6311 123.875 78.0422 124.356 77.9521C124.838 77.862 125.162 77.5748 125.23 77.2031C125.319 77.3157 125.286 77.4565 125.342 77.5804C125.325 77.7493 125.302 77.9239 125.241 78.0816C125.146 78.273 125.011 78.4251 124.843 78.5602C124.065 79.0164 123.315 78.5433 123.158 77.9352C123.136 77.8451 123.124 77.755 123.113 77.6649C123.147 77.5128 123.119 77.3439 123.214 77.2031Z" fill="#DC4F58"/>
<path d="M123.899 70.2714C123.899 70.1081 123.893 69.9504 123.899 69.7871C123.91 69.5787 124.039 69.4492 124.224 69.4492C124.408 69.4492 124.543 69.5787 124.548 69.7871C124.554 70.1193 124.56 70.4459 124.548 70.7782C124.543 70.9865 124.403 71.1104 124.213 71.1048C124.033 71.0991 123.91 70.9753 123.899 70.7782C123.893 70.6092 123.899 70.4403 123.899 70.2714Z" fill="#617983"/>
<path d="M116.918 77.2994C117.07 77.2994 117.226 77.2937 117.378 77.2994C117.607 77.305 117.736 77.4289 117.736 77.6204C117.736 77.8174 117.607 77.947 117.383 77.9526C117.07 77.9582 116.756 77.9582 116.443 77.9526C116.219 77.947 116.09 77.8174 116.09 77.6204C116.09 77.4289 116.224 77.305 116.454 77.2994C116.611 77.2937 116.767 77.2994 116.918 77.2994Z" fill="#617983"/>
<path d="M131.553 77.2986C131.698 77.2986 131.844 77.293 131.995 77.2986C132.219 77.3042 132.353 77.4281 132.359 77.6196C132.365 77.8167 132.23 77.9518 132.006 77.9518C131.693 77.9574 131.379 77.9574 131.066 77.9518C130.842 77.9462 130.713 77.8167 130.713 77.6196C130.713 77.4225 130.847 77.3042 131.071 77.293C131.234 77.293 131.396 77.2986 131.553 77.2986Z" fill="#617983"/>
<path d="M123.899 84.9918C123.899 84.8285 123.893 84.6708 123.899 84.5075C123.91 84.2823 124.033 84.1527 124.235 84.1584C124.42 84.164 124.548 84.2879 124.554 84.5019C124.56 84.8229 124.56 85.1495 124.554 85.4704C124.548 85.6788 124.414 85.8083 124.229 85.8139C124.033 85.8139 123.905 85.6844 123.899 85.4592C123.893 85.2959 123.899 85.1438 123.899 84.9918Z" fill="#617983"/>
<path d="M93.5513 105.883C96.5601 105.919 98.9113 106.739 100.947 108.428C101.334 108.747 101.695 109.099 102.051 109.455C102.573 109.968 102.587 110.684 102.109 111.157C101.632 111.63 100.929 111.612 100.425 111.094C99.776 110.432 99.0824 109.828 98.2807 109.36C94.9476 107.41 90.5921 107.959 87.8536 110.68C87.6149 110.918 87.3807 111.162 87.133 111.391C86.6555 111.837 85.9619 111.837 85.5115 111.396C85.0566 110.95 85.034 110.265 85.4844 109.774C87.1735 107.928 89.1958 106.617 91.6866 106.126C92.4208 105.982 93.1685 105.932 93.5513 105.883Z" fill="#F5F5F5"/>
<path d="M93.8353 110.09C96.0738 110.09 97.7809 110.982 99.1727 112.54C99.6546 113.085 99.6366 113.824 99.1456 114.301C98.6547 114.779 97.916 114.774 97.38 114.297C96.9837 113.945 96.6143 113.545 96.1684 113.261C94.5199 112.216 92.5156 112.464 91.0923 113.846C90.8625 114.071 90.6418 114.31 90.4031 114.526C89.8761 115.004 89.1239 114.99 88.6375 114.499C88.1601 114.017 88.133 113.265 88.6105 112.752C89.2546 112.058 89.9257 111.392 90.768 110.928C91.7589 110.383 92.8173 110.099 93.8353 110.09Z" fill="#F5F5F5"/>
<path d="M93.8988 118.904C92.8268 118.953 91.8719 118.075 91.8224 116.99C91.7728 115.891 92.6196 114.922 93.6826 114.868C94.8582 114.81 95.813 115.656 95.8626 116.809C95.9166 117.917 95.0383 118.85 93.8988 118.904Z" fill="#F5F5F5"/>
<path d="M40.5503 212.114H34.9346V208.572H40.5503C41.4181 208.572 42.1245 208.431 42.6694 208.148C43.2144 207.855 43.613 207.452 43.8652 206.937C44.1175 206.422 44.2437 205.842 44.2437 205.196C44.2437 204.54 44.1175 203.93 43.8652 203.365C43.613 202.8 43.2144 202.346 42.6694 202.002C42.1245 201.659 41.4181 201.488 40.5503 201.488H36.5088V219.97H31.9678V197.931H40.5503C42.2759 197.931 43.7542 198.243 44.9854 198.869C46.2266 199.485 47.1751 200.337 47.8311 201.427C48.487 202.517 48.8149 203.763 48.8149 205.166C48.8149 206.589 48.487 207.82 47.8311 208.859C47.1751 209.899 46.2266 210.701 44.9854 211.266C43.7542 211.831 42.2759 212.114 40.5503 212.114ZM50.7676 211.947V211.629C50.7676 210.429 50.9391 209.324 51.2822 208.314C51.6253 207.295 52.1248 206.412 52.7808 205.666C53.4367 204.919 54.244 204.339 55.2026 203.925C56.1613 203.501 57.2612 203.289 58.5024 203.289C59.7437 203.289 60.8486 203.501 61.8174 203.925C62.7861 204.339 63.5985 204.919 64.2544 205.666C64.9204 206.412 65.425 207.295 65.7681 208.314C66.1112 209.324 66.2827 210.429 66.2827 211.629V211.947C66.2827 213.138 66.1112 214.243 65.7681 215.262C65.425 216.271 64.9204 217.154 64.2544 217.911C63.5985 218.658 62.7912 219.238 61.8325 219.652C60.8739 220.066 59.7739 220.272 58.5327 220.272C57.2915 220.272 56.1865 220.066 55.2178 219.652C54.2591 219.238 53.4468 218.658 52.7808 217.911C52.1248 217.154 51.6253 216.271 51.2822 215.262C50.9391 214.243 50.7676 213.138 50.7676 211.947ZM55.127 211.629V211.947C55.127 212.633 55.1875 213.274 55.3086 213.87C55.4297 214.465 55.6214 214.99 55.8838 215.444C56.1562 215.888 56.5094 216.236 56.9434 216.488C57.3773 216.741 57.9071 216.867 58.5327 216.867C59.1382 216.867 59.6579 216.741 60.0918 216.488C60.5257 216.236 60.8739 215.888 61.1362 215.444C61.3986 214.99 61.5903 214.465 61.7114 213.87C61.8426 213.274 61.9082 212.633 61.9082 211.947V211.629C61.9082 210.963 61.8426 210.338 61.7114 209.752C61.5903 209.157 61.3936 208.632 61.1211 208.178C60.8587 207.714 60.5106 207.351 60.0767 207.088C59.6427 206.826 59.118 206.695 58.5024 206.695C57.8869 206.695 57.3621 206.826 56.9282 207.088C56.5044 207.351 56.1562 207.714 55.8838 208.178C55.6214 208.632 55.4297 209.157 55.3086 209.752C55.1875 210.338 55.127 210.963 55.127 211.629ZM73.5635 196.72V219.97H69.189V196.72H73.5635ZM81.7676 196.72V219.97H77.3931V196.72H81.7676ZM95.0576 216.049V203.592H99.417V219.97H95.3149L95.0576 216.049ZM95.542 212.689L96.8286 212.659C96.8286 213.749 96.7025 214.763 96.4502 215.701C96.1979 216.63 95.8195 217.437 95.3149 218.123C94.8104 218.799 94.1746 219.329 93.4077 219.712C92.6408 220.086 91.7376 220.272 90.6982 220.272C89.901 220.272 89.1644 220.161 88.4883 219.939C87.8223 219.707 87.2471 219.349 86.7627 218.865C86.2884 218.37 85.915 217.74 85.6426 216.973C85.3802 216.196 85.249 215.262 85.249 214.172V203.592H89.6084V214.203C89.6084 214.687 89.6639 215.096 89.7749 215.429C89.896 215.762 90.0625 216.034 90.2744 216.246C90.4863 216.458 90.7336 216.609 91.0161 216.7C91.3088 216.791 91.6317 216.836 91.9849 216.836C92.883 216.836 93.5894 216.655 94.104 216.292C94.6287 215.928 94.9971 215.434 95.209 214.808C95.431 214.172 95.542 213.466 95.542 212.689ZM110.77 203.592V206.68H101.233V203.592H110.77ZM103.595 199.55H107.954V215.035C107.954 215.509 108.015 215.873 108.136 216.125C108.267 216.377 108.459 216.554 108.711 216.655C108.963 216.746 109.281 216.791 109.665 216.791C109.937 216.791 110.179 216.781 110.391 216.761C110.613 216.73 110.8 216.7 110.951 216.67L110.966 219.879C110.593 220 110.189 220.096 109.755 220.167C109.321 220.237 108.842 220.272 108.317 220.272C107.359 220.272 106.521 220.116 105.805 219.803C105.098 219.48 104.553 218.966 104.17 218.259C103.786 217.553 103.595 216.625 103.595 215.474V199.55ZM117.854 203.592V219.97H113.479V203.592H117.854ZM113.207 199.323C113.207 198.688 113.429 198.163 113.873 197.749C114.317 197.335 114.912 197.128 115.659 197.128C116.395 197.128 116.986 197.335 117.43 197.749C117.884 198.163 118.111 198.688 118.111 199.323C118.111 199.959 117.884 200.484 117.43 200.897C116.986 201.311 116.395 201.518 115.659 201.518C114.912 201.518 114.317 201.311 113.873 200.897C113.429 200.484 113.207 199.959 113.207 199.323ZM120.76 211.947V211.629C120.76 210.429 120.931 209.324 121.274 208.314C121.618 207.295 122.117 206.412 122.773 205.666C123.429 204.919 124.236 204.339 125.195 203.925C126.153 203.501 127.253 203.289 128.495 203.289C129.736 203.289 130.841 203.501 131.81 203.925C132.778 204.339 133.591 204.919 134.247 205.666C134.913 206.412 135.417 207.295 135.76 208.314C136.103 209.324 136.275 210.429 136.275 211.629V211.947C136.275 213.138 136.103 214.243 135.76 215.262C135.417 216.271 134.913 217.154 134.247 217.911C133.591 218.658 132.783 219.238 131.825 219.652C130.866 220.066 129.766 220.272 128.525 220.272C127.284 220.272 126.179 220.066 125.21 219.652C124.251 219.238 123.439 218.658 122.773 217.911C122.117 217.154 121.618 216.271 121.274 215.262C120.931 214.243 120.76 213.138 120.76 211.947ZM125.119 211.629V211.947C125.119 212.633 125.18 213.274 125.301 213.87C125.422 214.465 125.614 214.99 125.876 215.444C126.148 215.888 126.502 216.236 126.936 216.488C127.369 216.741 127.899 216.867 128.525 216.867C129.13 216.867 129.65 216.741 130.084 216.488C130.518 216.236 130.866 215.888 131.128 215.444C131.391 214.99 131.583 214.465 131.704 213.87C131.835 213.274 131.9 212.633 131.9 211.947V211.629C131.9 210.963 131.835 210.338 131.704 209.752C131.583 209.157 131.386 208.632 131.113 208.178C130.851 207.714 130.503 207.351 130.069 207.088C129.635 206.826 129.11 206.695 128.495 206.695C127.879 206.695 127.354 206.826 126.92 207.088C126.497 207.351 126.148 207.714 125.876 208.178C125.614 208.632 125.422 209.157 125.301 209.752C125.18 210.338 125.119 210.963 125.119 211.629ZM143.223 207.088V219.97H138.863V203.592H142.95L143.223 207.088ZM142.587 211.206H141.406C141.406 209.995 141.563 208.905 141.875 207.936C142.188 206.957 142.627 206.125 143.192 205.438C143.757 204.742 144.429 204.212 145.206 203.849C145.993 203.476 146.871 203.289 147.839 203.289C148.606 203.289 149.308 203.4 149.943 203.622C150.579 203.844 151.124 204.197 151.578 204.682C152.042 205.166 152.396 205.807 152.638 206.604C152.89 207.401 153.016 208.375 153.016 209.525V219.97H148.626V209.51C148.626 208.784 148.526 208.219 148.324 207.815C148.122 207.411 147.824 207.129 147.431 206.967C147.047 206.796 146.573 206.71 146.008 206.71C145.423 206.71 144.913 206.826 144.479 207.058C144.055 207.29 143.702 207.613 143.419 208.027C143.147 208.431 142.94 208.905 142.799 209.45C142.658 209.995 142.587 210.58 142.587 211.206ZM35.9639 243.088V255.97H31.6045V239.592H35.6914L35.9639 243.088ZM35.3281 247.206H34.1475C34.1475 245.995 34.3039 244.905 34.6167 243.936C34.9295 242.957 35.3685 242.125 35.9336 241.438C36.4987 240.742 37.1698 240.212 37.9468 239.849C38.7339 239.476 39.6118 239.289 40.5806 239.289C41.3475 239.289 42.0488 239.4 42.6846 239.622C43.3203 239.844 43.8652 240.197 44.3193 240.682C44.7835 241.166 45.1367 241.807 45.3789 242.604C45.6312 243.401 45.7573 244.375 45.7573 245.525V255.97H41.3677V245.51C41.3677 244.784 41.2668 244.219 41.0649 243.815C40.8631 243.411 40.5654 243.129 40.1719 242.967C39.7884 242.796 39.3141 242.71 38.749 242.71C38.1637 242.71 37.6541 242.826 37.2202 243.058C36.7964 243.29 36.4432 243.613 36.1606 244.027C35.8882 244.431 35.6813 244.905 35.54 245.45C35.3988 245.995 35.3281 246.58 35.3281 247.206ZM58.7598 252.049V239.592H63.1191V255.97H59.0171L58.7598 252.049ZM59.2441 248.689L60.5308 248.659C60.5308 249.749 60.4046 250.763 60.1523 251.701C59.9001 252.63 59.5216 253.437 59.0171 254.123C58.5125 254.799 57.8768 255.329 57.1099 255.712C56.3429 256.086 55.4398 256.272 54.4004 256.272C53.6032 256.272 52.8665 256.161 52.1904 255.939C51.5244 255.707 50.9492 255.349 50.4648 254.865C49.9906 254.37 49.6172 253.74 49.3447 252.973C49.0824 252.196 48.9512 251.262 48.9512 250.172V239.592H53.3105V250.203C53.3105 250.687 53.366 251.096 53.4771 251.429C53.5981 251.762 53.7646 252.034 53.9766 252.246C54.1885 252.458 54.4357 252.609 54.7183 252.7C55.0109 252.791 55.3338 252.836 55.687 252.836C56.5851 252.836 57.2915 252.655 57.8062 252.292C58.3309 251.928 58.6992 251.434 58.9111 250.808C59.1331 250.172 59.2441 249.466 59.2441 248.689ZM70.8086 242.982V255.97H66.4341V239.592H70.5361L70.8086 242.982ZM70.2031 247.206H68.9922C68.9922 246.065 69.1284 245.016 69.4009 244.057C69.6834 243.088 70.0921 242.251 70.627 241.544C71.1719 240.828 71.8429 240.273 72.6401 239.879C73.4373 239.486 74.3607 239.289 75.4102 239.289C76.1367 239.289 76.8027 239.4 77.4082 239.622C78.0137 239.834 78.5334 240.172 78.9673 240.636C79.4113 241.09 79.7544 241.686 79.9966 242.422C80.2388 243.149 80.3599 244.022 80.3599 245.041V255.97H76.0005V245.525C76.0005 244.779 75.8996 244.203 75.6978 243.8C75.4959 243.396 75.2083 243.114 74.835 242.952C74.4717 242.791 74.0327 242.71 73.5181 242.71C72.953 242.71 72.4585 242.826 72.0347 243.058C71.6209 243.29 71.2778 243.613 71.0054 244.027C70.7329 244.431 70.5311 244.905 70.3999 245.45C70.2687 245.995 70.2031 246.58 70.2031 247.206ZM79.9512 246.706L78.3921 246.903C78.3921 245.833 78.5233 244.839 78.7856 243.921C79.0581 243.003 79.4567 242.195 79.9814 241.499C80.5163 240.803 81.1772 240.263 81.9644 239.879C82.7515 239.486 83.6597 239.289 84.689 239.289C85.4761 239.289 86.1925 239.405 86.8384 239.637C87.4842 239.859 88.0342 240.217 88.4883 240.712C88.9525 241.196 89.3057 241.832 89.5479 242.619C89.8001 243.406 89.9263 244.37 89.9263 245.51V255.97H85.5518V245.51C85.5518 244.753 85.4508 244.178 85.249 243.785C85.0573 243.381 84.7747 243.104 84.4014 242.952C84.0381 242.791 83.6042 242.71 83.0996 242.71C82.5749 242.71 82.1157 242.816 81.7222 243.028C81.3286 243.23 81.0007 243.512 80.7383 243.875C80.4759 244.239 80.2791 244.663 80.1479 245.147C80.0168 245.621 79.9512 246.141 79.9512 246.706ZM100.84 256.272C99.5684 256.272 98.4281 256.071 97.4189 255.667C96.4098 255.253 95.5521 254.683 94.8457 253.957C94.1494 253.23 93.6146 252.387 93.2412 251.429C92.8678 250.46 92.6812 249.431 92.6812 248.341V247.735C92.6812 246.494 92.8577 245.359 93.2109 244.33C93.5641 243.3 94.0687 242.407 94.7246 241.65C95.3906 240.894 96.1979 240.313 97.1465 239.91C98.0951 239.496 99.1647 239.289 100.355 239.289C101.516 239.289 102.545 239.481 103.443 239.864C104.341 240.248 105.093 240.793 105.699 241.499C106.314 242.205 106.778 243.053 107.091 244.042C107.404 245.021 107.561 246.111 107.561 247.312V249.128H94.543V246.222H103.277V245.889C103.277 245.283 103.166 244.743 102.944 244.269C102.732 243.785 102.409 243.401 101.975 243.119C101.541 242.836 100.986 242.695 100.31 242.695C99.7349 242.695 99.2404 242.821 98.8267 243.073C98.4129 243.326 98.0749 243.679 97.8125 244.133C97.5602 244.587 97.3685 245.122 97.2373 245.737C97.1162 246.343 97.0557 247.009 97.0557 247.735V248.341C97.0557 248.997 97.1465 249.602 97.3281 250.157C97.5199 250.712 97.7873 251.192 98.1304 251.595C98.4836 251.999 98.9074 252.312 99.4019 252.534C99.9064 252.756 100.477 252.867 101.112 252.867C101.899 252.867 102.631 252.715 103.307 252.413C103.993 252.1 104.584 251.631 105.078 251.005L107.197 253.306C106.854 253.8 106.385 254.274 105.79 254.729C105.204 255.183 104.498 255.556 103.67 255.849C102.843 256.131 101.899 256.272 100.84 256.272ZM97.7671 237.367L100.734 232.705H105.472L101.309 237.367H97.7671ZM114.402 243.164V255.97H110.043V239.592H114.145L114.402 243.164ZM119.337 239.486L119.261 243.527C119.049 243.497 118.792 243.472 118.489 243.452C118.197 243.421 117.929 243.406 117.687 243.406C117.071 243.406 116.537 243.487 116.083 243.648C115.639 243.8 115.265 244.027 114.962 244.33C114.67 244.632 114.448 245.001 114.296 245.435C114.155 245.868 114.074 246.363 114.054 246.918L113.176 246.646C113.176 245.586 113.282 244.612 113.494 243.724C113.706 242.826 114.014 242.044 114.417 241.378C114.831 240.712 115.336 240.197 115.931 239.834C116.527 239.471 117.208 239.289 117.975 239.289C118.217 239.289 118.464 239.309 118.716 239.35C118.969 239.38 119.175 239.425 119.337 239.486ZM125.997 239.592V255.97H121.623V239.592H125.997ZM121.35 235.323C121.35 234.688 121.572 234.163 122.016 233.749C122.46 233.335 123.056 233.128 123.802 233.128C124.539 233.128 125.129 233.335 125.573 233.749C126.027 234.163 126.254 234.688 126.254 235.323C126.254 235.959 126.027 236.484 125.573 236.897C125.129 237.311 124.539 237.518 123.802 237.518C123.056 237.518 122.46 237.311 122.016 236.897C121.572 236.484 121.35 235.959 121.35 235.323ZM139.272 262.267V242.937L139.832 239.592H143.662V262.267H139.272ZM128.918 247.947V247.629C128.918 246.378 129.055 245.243 129.327 244.224C129.61 243.194 130.023 242.316 130.568 241.59C131.113 240.853 131.779 240.288 132.566 239.895C133.364 239.491 134.282 239.289 135.321 239.289C136.32 239.289 137.183 239.491 137.91 239.895C138.636 240.298 139.247 240.868 139.741 241.605C140.246 242.342 140.649 243.209 140.952 244.208C141.255 245.208 141.487 246.302 141.648 247.493V248.189C141.497 249.33 141.265 250.389 140.952 251.368C140.649 252.347 140.246 253.205 139.741 253.941C139.247 254.678 138.631 255.253 137.895 255.667C137.168 256.071 136.3 256.272 135.291 256.272C134.272 256.272 133.364 256.066 132.566 255.652C131.779 255.228 131.113 254.643 130.568 253.896C130.023 253.149 129.61 252.271 129.327 251.262C129.055 250.243 128.918 249.138 128.918 247.947ZM133.278 247.629V247.947C133.278 248.623 133.333 249.259 133.444 249.854C133.555 250.44 133.732 250.959 133.974 251.414C134.226 251.868 134.549 252.226 134.943 252.488C135.336 252.741 135.821 252.867 136.396 252.867C137.193 252.867 137.834 252.695 138.318 252.352C138.813 251.999 139.176 251.52 139.408 250.914C139.65 250.309 139.792 249.617 139.832 248.84V246.857C139.802 246.222 139.716 245.652 139.575 245.147C139.444 244.632 139.242 244.193 138.969 243.83C138.707 243.467 138.364 243.189 137.94 242.998C137.526 242.796 137.022 242.695 136.426 242.695C135.861 242.695 135.377 242.821 134.973 243.073C134.569 243.326 134.242 243.679 133.989 244.133C133.747 244.577 133.565 245.097 133.444 245.692C133.333 246.287 133.278 246.933 133.278 247.629ZM156.785 252.049V239.592H161.145V255.97H157.042L156.785 252.049ZM157.27 248.689L158.556 248.659C158.556 249.749 158.43 250.763 158.178 251.701C157.925 252.63 157.547 253.437 157.042 254.123C156.538 254.799 155.902 255.329 155.135 255.712C154.368 256.086 153.465 256.272 152.426 256.272C151.629 256.272 150.892 256.161 150.216 255.939C149.55 255.707 148.975 255.349 148.49 254.865C148.016 254.37 147.643 253.74 147.37 252.973C147.108 252.196 146.977 251.262 146.977 250.172V239.592H151.336V250.203C151.336 250.687 151.391 251.096 151.502 251.429C151.624 251.762 151.79 252.034 152.002 252.246C152.214 252.458 152.461 252.609 152.744 252.7C153.036 252.791 153.359 252.836 153.712 252.836C154.611 252.836 155.317 252.655 155.832 252.292C156.356 251.928 156.725 251.434 156.937 250.808C157.159 250.172 157.27 249.466 157.27 248.689ZM172.013 256.272C170.741 256.272 169.601 256.071 168.592 255.667C167.583 255.253 166.725 254.683 166.019 253.957C165.322 253.23 164.787 252.387 164.414 251.429C164.041 250.46 163.854 249.431 163.854 248.341V247.735C163.854 246.494 164.031 245.359 164.384 244.33C164.737 243.3 165.242 242.407 165.897 241.65C166.563 240.894 167.371 240.313 168.319 239.91C169.268 239.496 170.338 239.289 171.528 239.289C172.689 239.289 173.718 239.481 174.616 239.864C175.514 240.248 176.266 240.793 176.872 241.499C177.487 242.205 177.951 243.053 178.264 244.042C178.577 245.021 178.733 246.111 178.733 247.312V249.128H165.716V246.222H174.45V245.889C174.45 245.283 174.339 244.743 174.117 244.269C173.905 243.785 173.582 243.401 173.148 243.119C172.714 242.836 172.159 242.695 171.483 242.695C170.908 242.695 170.413 242.821 170 243.073C169.586 243.326 169.248 243.679 168.985 244.133C168.733 244.587 168.541 245.122 168.41 245.737C168.289 246.343 168.229 247.009 168.229 247.735V248.341C168.229 248.997 168.319 249.602 168.501 250.157C168.693 250.712 168.96 251.192 169.303 251.595C169.656 251.999 170.08 252.312 170.575 252.534C171.079 252.756 171.649 252.867 172.285 252.867C173.072 252.867 173.804 252.715 174.48 252.413C175.166 252.1 175.757 251.631 176.251 251.005L178.37 253.306C178.027 253.8 177.558 254.274 176.962 254.729C176.377 255.183 175.671 255.556 174.843 255.849C174.016 256.131 173.072 256.272 172.013 256.272Z" fill="#222222"/>
<rect x="30" y="284.355" width="18" height="18.8169" fill="#FAC04F"/>
<rect x="53" y="284.355" width="18" height="18.8169" fill="#FAC04F"/>
<rect x="76" y="284.355" width="18" height="18.8169" fill="#FAC04F"/>
<rect x="99" y="284.355" width="18" height="18.8169" fill="#FAC04F"/>
<rect x="122" y="284.355" width="18" height="18.8169" fill="#FAC04F"/>
<rect x="145" y="284.355" width="18" height="18.8169" fill="#E4E4E4"/>
<rect x="168" y="284.355" width="18" height="18.8169" fill="#E4E4E4"/>
<rect x="191" y="284.355" width="18" height="18.8169" fill="#E4E4E4"/>
<rect x="214" y="284.355" width="18" height="18.8169" fill="#E4E4E4"/>
<rect x="237" y="284.355" width="18" height="18.8169" fill="#E4E4E4"/>
<rect x="217" y="18" width="50" height="47.0423" rx="16" fill="#E96B73"/>
<path d="M230.125 45.5L230.125 37.9997L253.876 37.9997L253.876 45.5L230.125 45.5Z" fill="#212121"/>
</svg>
